STARTFONT 2.1
COMMENT
COMMENT Converted from OpenType font "CourierPrime-Regular.ttf" by "otf2bdf 3.0".
COMMENT
FONT -FreeType-courier prime-Medium-R-Normal--25-180-100-100-P-114-Windows-cp1252
SIZE 18 100 100
FONTBOUNDINGBOX 19 30 0 -7
STARTPROPERTIES 19
FOUNDRY "FreeType"
FAMILY_NAME "courier prime"
WEIGHT_NAME "Medium"
SLANT "R"
SETWIDTH_NAME "Normal"
ADD_STYLE_NAME ""
PIXEL_SIZE 25
POINT_SIZE 180
RESOLUTION_X 100
RESOLUTION_Y 100
SPACING "P"
AVERAGE_WIDTH 114
CHARSET_REGISTRY "Windows"
CHARSET_ENCODING "cp1252"
FONT_ASCENT 19
FONT_DESCENT 8
COPYRIGHT "Copyright 2015 The Courier Prime Project Authors (https://github.com/quoteunquoteapps/CourierPrime)."
_OTF_FONTFILE "CourierPrime-Regular.ttf"
_OTF_PSNAME "CourierPrime-Regular"
ENDPROPERTIES
CHARS 219
STARTCHAR 000D
ENCODING 13
SWIDTH 600 0
DWIDTH 15 0
BBX 0 0 0 0
BITMAP
ENDCHAR
STARTCHAR 0020
ENCODING 32
SWIDTH 600 0
DWIDTH 15 0
BBX 0 0 0 0
BITMAP
ENDCHAR
STARTCHAR 0021
ENCODING 33
SWIDTH 600 0
DWIDTH 15 0
BBX 3 16 6 0
BITMAP
E0
E0
E0
E0
E0
40
40
40
40
40
00
00
E0
E0
E0
E0
ENDCHAR
STARTCHAR 0022
ENCODING 34
SWIDTH 600 0
DWIDTH 15 0
BBX 9 7 3 9
BITMAP
E380
E380
E380
6300
6300
6300
4100
ENDCHAR
STARTCHAR 0023
ENCODING 35
SWIDTH 600 0
DWIDTH 15 0
BBX 13 15 1 0
BITMAP
0620
0420
0460
0C60
7FF8
7FF8
08C0
18C0
1880
FFF0
FFF0
3180
3100
2100
2300
ENDCHAR
STARTCHAR 0024
ENCODING 36
SWIDTH 600 0
DWIDTH 15 0
BBX 11 18 2 -1
BITMAP
0400
0400
0400
3EC0
7FC0
E4C0
C440
7400
3F80
07C0
C460
C460
E4E0
FFC0
DF80
0400
0400
0400
ENDCHAR
STARTCHAR 0025
ENCODING 37
SWIDTH 600 0
DWIDTH 15 0
BBX 13 15 1 0
BITMAP
7800
FC00
CC18
8430
CC60
FDC0
3380
0700
0EF0
1DF8
3198
6108
C198
01F8
00F0
ENDCHAR
STARTCHAR 0026
ENCODING 38
SWIDTH 600 0
DWIDTH 15 0
BBX 12 15 2 0
BITMAP
1F00
3F80
6180
6180
6000
6000
3000
78F0
ECF0
CEC0
C780
C380
C380
7EF0
3C70
ENDCHAR
STARTCHAR 0027
ENCODING 39
SWIDTH 600 0
DWIDTH 15 0
BBX 3 7 6 9
BITMAP
E0
E0
E0
E0
E0
40
40
ENDCHAR
STARTCHAR 0028
ENCODING 40
SWIDTH 600 0
DWIDTH 15 0
BBX 7 22 4 -4
BITMAP
04
0E
18
30
70
60
C0
C0
C0
C0
80
80
80
C0
C0
C0
60
60
30
18
0E
04
ENDCHAR
STARTCHAR 0029
ENCODING 41
SWIDTH 600 0
DWIDTH 15 0
BBX 7 22 4 -4
BITMAP
40
E0
70
38
18
0C
0C
06
06
06
02
02
06
06
06
06
0C
0C
18
38
70
E0
ENDCHAR
STARTCHAR 002A
ENCODING 42
SWIDTH 600 0
DWIDTH 15 0
BBX 11 10 2 5
BITMAP
0400
0E00
0400
4440
F5E0
3F80
0E00
1B00
3B80
3180
ENDCHAR
STARTCHAR 002B
ENCODING 43
SWIDTH 600 0
DWIDTH 15 0
BBX 11 11 2 2
BITMAP
0400
0400
0400
0400
FFE0
FFE0
0400
0400
0400
0400
0400
ENDCHAR
STARTCHAR 002C
ENCODING 44
SWIDTH 600 0
DWIDTH 15 0
BBX 4 7 5 -4
BITMAP
70
F0
E0
E0
C0
C0
80
ENDCHAR
STARTCHAR 002D
ENCODING 45
SWIDTH 600 0
DWIDTH 15 0
BBX 11 2 2 7
BITMAP
FFE0
FFE0
ENDCHAR
STARTCHAR 002E
ENCODING 46
SWIDTH 600 0
DWIDTH 15 0
BBX 3 4 6 0
BITMAP
E0
E0
E0
E0
ENDCHAR
STARTCHAR 002F
ENCODING 47
SWIDTH 600 0
DWIDTH 15 0
BBX 11 23 2 -5
BITMAP
0040
00E0
00C0
00C0
0180
0180
0180
0300
0300
0600
0600
0600
0C00
0C00
1800
1800
1800
3000
3000
7000
6000
6000
C000
ENDCHAR
STARTCHAR 0030
ENCODING 48
SWIDTH 600 0
DWIDTH 15 0
BBX 11 15 2 0
BITMAP
1F00
3F80
71C0
60C0
60C0
C060
C060
C060
C060
C060
60C0
60C0
71C0
3F80
1F00
ENDCHAR
STARTCHAR 0031
ENCODING 49
SWIDTH 600 0
DWIDTH 15 0
BBX 10 15 3 0
BITMAP
0C00
3C00
7C00
EC00
8C00
0C00
0C00
0C00
0C00
0C00
0C00
0C00
0C00
FF80
FFC0
ENDCHAR
STARTCHAR 0032
ENCODING 50
SWIDTH 600 0
DWIDTH 15 0
BBX 10 15 2 0
BITMAP
1F00
7F80
6180
60C0
40C0
00C0
0180
0380
0700
0E00
1C00
38C0
70C0
FFC0
FFC0
ENDCHAR
STARTCHAR 0033
ENCODING 51
SWIDTH 600 0
DWIDTH 15 0
BBX 10 15 2 0
BITMAP
3F00
7F80
61C0
60C0
00C0
0180
0F80
0F80
00C0
00C0
00C0
00C0
E1C0
7F80
1F00
ENDCHAR
STARTCHAR 0034
ENCODING 52
SWIDTH 600 0
DWIDTH 15 0
BBX 11 15 2 0
BITMAP
0300
0700
0700
0F00
1B00
1B00
3300
6300
E300
FFE0
FFE0
0300
0300
0FC0
0FE0
ENDCHAR
STARTCHAR 0035
ENCODING 53
SWIDTH 600 0
DWIDTH 15 0
BBX 10 15 2 0
BITMAP
7FC0
7F80
6000
6000
6000
7F00
7F80
61C0
00C0
00C0
00C0
00C0
E1C0
7F80
3E00
ENDCHAR
STARTCHAR 0036
ENCODING 54
SWIDTH 600 0
DWIDTH 15 0
BBX 11 15 2 0
BITMAP
03C0
0FC0
1C00
3000
6000
6F00
5F80
F1C0
E0C0
E060
6060
60C0
70C0
3F80
1F00
ENDCHAR
STARTCHAR 0037
ENCODING 55
SWIDTH 600 0
DWIDTH 15 0
BBX 10 15 3 0
BITMAP
FFC0
FF80
C180
C180
0300
0300
0200
0600
0600
0C00
0C00
1800
1800
1800
3000
ENDCHAR
STARTCHAR 0038
ENCODING 56
SWIDTH 600 0
DWIDTH 15 0
BBX 9 15 3 0
BITMAP
3E00
7F00
E380
C180
C180
E380
7F00
7F00
C180
C180
8180
C180
C380
7F00
3E00
ENDCHAR
STARTCHAR 0039
ENCODING 57
SWIDTH 600 0
DWIDTH 15 0
BBX 11 15 2 0
BITMAP
1E00
7F80
61C0
C0C0
C0C0
C0C0
61E0
7F40
1EC0
00C0
01C0
0180
0700
7E00
7800
ENDCHAR
STARTCHAR 003A
ENCODING 58
SWIDTH 600 0
DWIDTH 15 0
BBX 3 12 6 0
BITMAP
E0
E0
E0
E0
00
00
00
00
E0
E0
E0
E0
ENDCHAR
STARTCHAR 003B
ENCODING 59
SWIDTH 600 0
DWIDTH 15 0
BBX 4 15 5 -3
BITMAP
70
70
70
70
00
00
00
00
70
70
70
E0
E0
C0
C0
ENDCHAR
STARTCHAR 003C
ENCODING 60
SWIDTH 600 0
DWIDTH 15 0
BBX 11 12 2 2
BITMAP
0060
01E0
0780
1E00
7800
E000
E000
7800
1E00
0780
01E0
0060
ENDCHAR
STARTCHAR 003D
ENCODING 61
SWIDTH 600 0
DWIDTH 15 0
BBX 11 7 2 4
BITMAP
FFE0
FFE0
0000
0000
0000
FFE0
FFE0
ENDCHAR
STARTCHAR 003E
ENCODING 62
SWIDTH 600 0
DWIDTH 15 0
BBX 11 12 2 2
BITMAP
C000
F000
3C00
0F00
03C0
00E0
00E0
03C0
0F00
3C00
F000
C000
ENDCHAR
STARTCHAR 003F
ENCODING 63
SWIDTH 600 0
DWIDTH 15 0
BBX 9 16 3 0
BITMAP
3E00
FF00
C380
C180
0180
0380
0F00
1E00
1800
1800
1800
0000
0000
1800
1800
1800
ENDCHAR
STARTCHAR 0040
ENCODING 64
SWIDTH 600 0
DWIDTH 15 0
BBX 13 16 1 -2
BITMAP
0780
1FE0
3870
6030
4758
CFC8
8CC8
9888
9988
9988
9B98
DEF0
CC60
6000
3FC0
1F80
ENDCHAR
STARTCHAR 0041
ENCODING 65
SWIDTH 600 0
DWIDTH 15 0
BBX 15 15 0 0
BITMAP
1F80
1F80
06C0
06C0
0440
0C60
0C60
0820
1FF0
1FF0
3010
3018
3018
FC7E
FC7E
ENDCHAR
STARTCHAR 0042
ENCODING 66
SWIDTH 600 0
DWIDTH 15 0
BBX 12 15 1 0
BITMAP
FF80
FFE0
3060
3060
3060
3060
3FC0
3FE0
3070
3030
3030
3030
3030
FFE0
FFC0
ENDCHAR
STARTCHAR 0043
ENCODING 67
SWIDTH 600 0
DWIDTH 15 0
BBX 12 15 1 0
BITMAP
0FB0
1FF0
3870
7030
6030
6030
C000
C000
C000
6000
6000
6000
3830
1FF0
0FC0
ENDCHAR
STARTCHAR 0044
ENCODING 68
SWIDTH 600 0
DWIDTH 15 0
BBX 13 15 1 0
BITMAP
FF80
FFE0
3070
3030
3030
3018
3018
3018
3018
3018
3038
3030
3070
FFE0
FF80
ENDCHAR
STARTCHAR 0045
ENCODING 69
SWIDTH 600 0
DWIDTH 15 0
BBX 12 15 1 0
BITMAP
FFF0
FFF0
3030
3030
3190
3180
3F80
3F80
3180
3190
3010
3010
3010
FFF0
FFF0
ENDCHAR
STARTCHAR 0046
ENCODING 70
SWIDTH 600 0
DWIDTH 15 0
BBX 13 15 1 0
BITMAP
FFF8
FFF8
3018
3018
3190
3180
3180
3F80
3F80
3180
3000
3000
3000
FF00
FF00
ENDCHAR
STARTCHAR 0047
ENCODING 71
SWIDTH 600 0
DWIDTH 15 0
BBX 13 15 1 0
BITMAP
0FB0
1FF0
3070
6030
6030
C000
C000
C000
C3F8
C1F8
6030
6030
3030
3FF0
0FC0
ENDCHAR
STARTCHAR 0048
ENCODING 72
SWIDTH 600 0
DWIDTH 15 0
BBX 13 15 1 0
BITMAP
F8F8
F8F8
2020
2020
2020
2020
3FE0
3FE0
2020
2020
2020
2020
2020
F8F8
F8F8
ENDCHAR
STARTCHAR 0049
ENCODING 73
SWIDTH 600 0
DWIDTH 15 0
BBX 11 15 2 0
BITMAP
7FC0
7FC0
0400
0400
0400
0400
0400
0400
0400
0400
0400
0400
0400
7FC0
FFE0
ENDCHAR
STARTCHAR 004A
ENCODING 74
SWIDTH 600 0
DWIDTH 15 0
BBX 13 15 1 0
BITMAP
1FF8
1FF8
00C0
00C0
00C0
00C0
00C0
00C0
40C0
C0C0
C0C0
C0C0
E1C0
7F80
3F00
ENDCHAR
STARTCHAR 004B
ENCODING 75
SWIDTH 600 0
DWIDTH 15 0
BBX 14 15 1 0
BITMAP
FCF8
FCF8
3060
30C0
3180
3300
3600
3F80
3FC0
30C0
30E0
3060
3060
FE38
FE3C
ENDCHAR
STARTCHAR 004C
ENCODING 76
SWIDTH 600 0
DWIDTH 15 0
BBX 12 15 1 0
BITMAP
FF00
FF00
1800
1800
1800
1800
1800
1800
1810
1810
1810
1810
1810
FFF0
FFF0
ENDCHAR
STARTCHAR 004D
ENCODING 77
SWIDTH 600 0
DWIDTH 15 0
BBX 15 15 0 0
BITMAP
783C
783C
3C78
3C78
3C78
36D8
36D8
36D8
3398
3398
3118
3018
3018
FC7E
FC7E
ENDCHAR
STARTCHAR 004E
ENCODING 78
SWIDTH 600 0
DWIDTH 15 0
BBX 13 15 1 0
BITMAP
F0F8
F8F8
3830
2C30
2C30
2630
2630
2330
23B0
21B0
20F0
20F0
2070
FC70
FC30
ENDCHAR
STARTCHAR 004F
ENCODING 79
SWIDTH 600 0
DWIDTH 15 0
BBX 13 15 1 0
BITMAP
0F80
3FE0
7060
6030
E030
C018
C018
C018
C018
C018
E030
6030
7060
3FE0
0F80
ENDCHAR
STARTCHAR 0050
ENCODING 80
SWIDTH 600 0
DWIDTH 15 0
BBX 13 15 1 0
BITMAP
FFC0
FFE0
1870
1830
1818
1818
1830
1870
1FE0
1FC0
1800
1800
1800
FF00
FF00
ENDCHAR
STARTCHAR 0051
ENCODING 81
SWIDTH 600 0
DWIDTH 15 0
BBX 13 19 1 -4
BITMAP
0F80
3FE0
7070
6030
E030
C018
C018
C018
C018
C018
E030
6030
7060
3FE0
0F80
1800
3F30
3FF0
30E0
ENDCHAR
STARTCHAR 0052
ENCODING 82
SWIDTH 600 0
DWIDTH 15 0
BBX 14 15 1 0
BITMAP
FF80
FFE0
3060
3030
3030
3030
3060
3FC0
3F80
31C0
30C0
3060
3060
FC38
FC3C
ENDCHAR
STARTCHAR 0053
ENCODING 83
SWIDTH 600 0
DWIDTH 15 0
BBX 11 15 2 0
BITMAP
3E40
7FC0
E1C0
C0C0
C040
E000
7E00
1F80
01C0
0060
C060
C060
E0E0
FFC0
DF80
ENDCHAR
STARTCHAR 0054
ENCODING 84
SWIDTH 600 0
DWIDTH 15 0
BBX 13 15 1 0
BITMAP
FFF0
FFF8
C218
C218
C218
C218
0200
0200
0200
0200
0200
0200
0200
3FE0
3FE0
ENDCHAR
STARTCHAR 0055
ENCODING 85
SWIDTH 600 0
DWIDTH 15 0
BBX 13 15 1 0
BITMAP
F8F8
F8F8
6030
6030
6030
6030
6030
6030
6030
6030
6030
2060
3060
3FC0
0F80
ENDCHAR
STARTCHAR 0056
ENCODING 86
SWIDTH 600 0
DWIDTH 15 0
BBX 15 15 0 0
BITMAP
FC7E
FC7E
3018
3018
1830
1830
1830
0C60
0C60
0440
06C0
06C0
0280
0380
0380
ENDCHAR
STARTCHAR 0057
ENCODING 87
SWIDTH 600 0
DWIDTH 15 0
BBX 15 15 0 0
BITMAP
FC3E
FC3E
600C
6008
2108
3398
3398
3298
36D8
36D8
3458
1C70
1C70
1870
1830
ENDCHAR
STARTCHAR 0058
ENCODING 88
SWIDTH 600 0
DWIDTH 15 0
BBX 13 15 1 0
BITMAP
FCF8
FCF8
3060
18C0
1DC0
0D80
0700
0700
0F80
0D80
18C0
30E0
3060
F8F8
F8F8
ENDCHAR
STARTCHAR 0059
ENCODING 89
SWIDTH 600 0
DWIDTH 15 0
BBX 13 15 1 0
BITMAP
F8F8
F8F8
3060
3060
18C0
0D80
0D80
0700
0700
0200
0200
0200
0200
3FE0
3FE0
ENDCHAR
STARTCHAR 005A
ENCODING 90
SWIDTH 600 0
DWIDTH 15 0
BBX 11 15 2 0
BITMAP
FFE0
FFE0
C0C0
C180
C380
4300
0600
0E00
0C00
1860
3860
3060
6060
FFE0
FFE0
ENDCHAR
STARTCHAR 005B
ENCODING 91
SWIDTH 600 0
DWIDTH 15 0
BBX 7 22 4 -4
BITMAP
FE
FE
C0
C0
C0
C0
C0
C0
C0
C0
C0
C0
C0
C0
C0
C0
C0
C0
C0
C0
FE
FE
ENDCHAR
STARTCHAR 005C
ENCODING 92
SWIDTH 600 0
DWIDTH 15 0
BBX 11 23 2 -5
BITMAP
4000
E000
6000
6000
3000
3000
3000
1800
1800
0C00
0C00
0C00
0600
0600
0300
0300
0300
0180
0180
01C0
00C0
00C0
0060
ENDCHAR
STARTCHAR 005D
ENCODING 93
SWIDTH 600 0
DWIDTH 15 0
BBX 7 22 4 -4
BITMAP
FE
FE
06
06
06
06
06
06
06
06
06
06
06
06
06
06
06
06
06
06
FE
FE
ENDCHAR
STARTCHAR 005E
ENCODING 94
SWIDTH 600 0
DWIDTH 15 0
BBX 9 9 3 6
BITMAP
0800
1C00
1C00
3600
3600
6300
6300
C180
C180
ENDCHAR
STARTCHAR 005F
ENCODING 95
SWIDTH 600 0
DWIDTH 15 0
BBX 15 2 0 -5
BITMAP
FFFE
FFFE
ENDCHAR
STARTCHAR 0060
ENCODING 96
SWIDTH 600 0
DWIDTH 15 0
BBX 6 5 4 13
BITMAP
C0
E0
70
3C
0C
ENDCHAR
STARTCHAR 0061
ENCODING 97
SWIDTH 600 0
DWIDTH 15 0
BBX 12 12 2 0
BITMAP
3F00
7F80
40C0
00C0
3EC0
7FC0
C0C0
C0C0
C0C0
C3C0
FF70
3C70
ENDCHAR
STARTCHAR 0062
ENCODING 98
SWIDTH 600 0
DWIDTH 15 0
BBX 13 17 0 0
BITMAP
F000
7000
3000
3000
3000
33C0
37F0
3C38
3818
3018
3018
3018
3018
3818
3C38
77F0
73E0
ENDCHAR
STARTCHAR 0063
ENCODING 99
SWIDTH 600 0
DWIDTH 15 0
BBX 11 12 2 0
BITMAP
1F60
7FE0
60E0
C060
C060
C000
8000
C000
C020
60E0
7FC0
1F00
ENDCHAR
STARTCHAR 0064
ENCODING 100
SWIDTH 600 0
DWIDTH 15 0
BBX 12 17 2 0
BITMAP
03C0
03E0
0060
0060
0060
1E60
7F60
E1E0
C0E0
C0E0
C060
8060
C0E0
C0E0
E1E0
7F70
1E70
ENDCHAR
STARTCHAR 0065
ENCODING 101
SWIDTH 600 0
DWIDTH 15 0
BBX 11 12 2 0
BITMAP
1F00
3FC0
60E0
C060
FFE0
FFE0
C000
C000
C000
6060
7FE0
1F80
ENDCHAR
STARTCHAR 0066
ENCODING 102
SWIDTH 600 0
DWIDTH 15 0
BBX 12 17 2 0
BITMAP
03E0
0FF0
0C20
0800
1800
1800
FFC0
FFC0
1800
1800
1800
1800
1800
1800
1800
FFC0
FFC0
ENDCHAR
STARTCHAR 0067
ENCODING 103
SWIDTH 600 0
DWIDTH 15 0
BBX 12 17 2 -5
BITMAP
1E70
7F70
E1E0
C0E0
C0E0
C060
8060
C0E0
C0E0
E1E0
7F60
1E60
0060
00C0
40C0
FF80
3F00
ENDCHAR
STARTCHAR 0068
ENCODING 104
SWIDTH 600 0
DWIDTH 15 0
BBX 13 17 1 0
BITMAP
F000
F000
3000
3000
3000
33C0
37E0
3C60
3860
3020
3020
3020
3020
3020
3020
F8F8
FCF8
ENDCHAR
STARTCHAR 0069
ENCODING 105
SWIDTH 600 0
DWIDTH 15 0
BBX 11 17 2 0
BITMAP
0E00
0E00
0E00
0000
0000
7E00
7E00
0600
0600
0600
0600
0600
0600
0600
0600
FFE0
FFE0
ENDCHAR
STARTCHAR 006A
ENCODING 106
SWIDTH 600 0
DWIDTH 15 0
BBX 9 22 2 -5
BITMAP
0180
0180
0180
0000
0000
7F80
7F80
0180
0180
0180
0180
0180
0180
0180
0180
0180
0180
0180
0180
E180
7F00
1E00
ENDCHAR
STARTCHAR 006B
ENCODING 107
SWIDTH 600 0
DWIDTH 15 0
BBX 13 17 1 0
BITMAP
F000
F000
3000
3000
3000
31F8
31F8
30C0
3180
3300
3700
3F80
3980
30C0
3060
FCF8
FCF8
ENDCHAR
STARTCHAR 006C
ENCODING 108
SWIDTH 600 0
DWIDTH 15 0
BBX 11 17 2 0
BITMAP
7E00
7E00
0600
0600
0600
0600
0600
0600
0600
0600
0600
0600
0600
0600
0600
FFE0
FFE0
ENDCHAR
STARTCHAR 006D
ENCODING 109
SWIDTH 600 0
DWIDTH 15 0
BBX 15 12 0 0
BITMAP
E638
EF78
39CC
318C
318C
318C
318C
318C
318C
318C
F9CE
F9CE
ENDCHAR
STARTCHAR 006E
ENCODING 110
SWIDTH 600 0
DWIDTH 15 0
BBX 13 12 1 0
BITMAP
F3C0
F7E0
3C60
3820
3030
3030
3030
3030
3030
3030
FCF8
FCF8
ENDCHAR
STARTCHAR 006F
ENCODING 111
SWIDTH 600 0
DWIDTH 15 0
BBX 11 12 2 0
BITMAP
1F00
7FC0
60C0
C060
C060
C060
C060
C060
C060
60C0
7FC0
1F00
ENDCHAR
STARTCHAR 0070
ENCODING 112
SWIDTH 600 0
DWIDTH 15 0
BBX 13 17 0 -5
BITMAP
73C0
77F0
3C38
3818
3018
3018
3018
3018
3818
3C38
37F0
33E0
3000
3000
3000
7E00
FE00
ENDCHAR
STARTCHAR 0071
ENCODING 113
SWIDTH 600 0
DWIDTH 15 0
BBX 13 17 2 -5
BITMAP
1E70
7F70
E1E0
C0E0
C0E0
C060
8060
C0E0
C0E0
E1E0
7F60
1E60
0060
0060
0060
03F0
03F8
ENDCHAR
STARTCHAR 0072
ENCODING 114
SWIDTH 600 0
DWIDTH 15 0
BBX 12 12 2 0
BITMAP
F1E0
F3F0
3600
3C00
3800
3800
3000
3000
3000
3000
FF80
FF80
ENDCHAR
STARTCHAR 0073
ENCODING 115
SWIDTH 600 0
DWIDTH 15 0
BBX 11 12 2 0
BITMAP
3EC0
7FC0
E0C0
C040
E000
7F80
0FC0
C060
C060
E0E0
FFC0
DF80
ENDCHAR
STARTCHAR 0074
ENCODING 116
SWIDTH 600 0
DWIDTH 15 0
BBX 12 15 1 0
BITMAP
0800
0C00
0C00
0C00
FFE0
7FE0
0C00
0C00
0C00
0C00
0C00
0C00
0C30
0FF0
07C0
ENDCHAR
STARTCHAR 0075
ENCODING 117
SWIDTH 600 0
DWIDTH 15 0
BBX 13 12 1 0
BITMAP
E1E0
E1E0
2060
2060
2060
2060
2060
2060
30E0
31E0
3FF8
1E38
ENDCHAR
STARTCHAR 0076
ENCODING 118
SWIDTH 600 0
DWIDTH 15 0
BBX 13 12 1 0
BITMAP
F8F8
F8F8
6030
3060
3060
18C0
18C0
0880
0D80
0D80
0700
0700
ENDCHAR
STARTCHAR 0077
ENCODING 119
SWIDTH 600 0
DWIDTH 15 0
BBX 15 12 0 0
BITMAP
F83E
F83E
600C
630C
2388
3398
36D8
36D8
16D0
1C70
1C70
1870
ENDCHAR
STARTCHAR 0078
ENCODING 120
SWIDTH 600 0
DWIDTH 15 0
BBX 13 12 1 0
BITMAP
FCF8
FCF8
3860
18C0
0D80
0700
0700
0D80
18C0
3060
F9F8
F9F8
ENDCHAR
STARTCHAR 0079
ENCODING 121
SWIDTH 600 0
DWIDTH 15 0
BBX 13 17 1 -5
BITMAP
F8F8
F8F8
6030
3060
3060
18C0
18C0
0D80
0D80
0700
0700
0600
0600
0C00
1C00
F800
F000
ENDCHAR
STARTCHAR 007A
ENCODING 122
SWIDTH 600 0
DWIDTH 15 0
BBX 11 12 2 0
BITMAP
FFE0
FFE0
C1C0
C380
4700
0600
0C00
1860
3860
7060
FFE0
FFE0
ENDCHAR
STARTCHAR 007B
ENCODING 123
SWIDTH 600 0
DWIDTH 15 0
BBX 10 22 2 -4
BITMAP
0040
03C0
0780
0C00
0C00
0C00
0C00
0C00
0C00
1800
F000
F000
1800
0C00
0C00
0C00
0C00
0C00
0C00
0E00
07C0
01C0
ENDCHAR
STARTCHAR 007C
ENCODING 124
SWIDTH 600 0
DWIDTH 15 0
BBX 1 23 7 -5
BITMAP
80
80
80
80
80
80
80
80
80
80
80
80
80
80
80
80
80
80
80
80
80
80
80
ENDCHAR
STARTCHAR 007D
ENCODING 125
SWIDTH 600 0
DWIDTH 15 0
BBX 10 22 3 -4
BITMAP
8000
F000
7800
0C00
0C00
0C00
0C00
0C00
0C00
0600
03C0
03C0
0600
0C00
0C00
0C00
0C00
0C00
0C00
1C00
F800
F000
ENDCHAR
STARTCHAR 007E
ENCODING 126
SWIDTH 600 0
DWIDTH 15 0
BBX 11 4 2 5
BITMAP
3800
FC60
CFE0
03C0
ENDCHAR
STARTCHAR 00A0
ENCODING 160
SWIDTH 600 0
DWIDTH 15 0
BBX 0 0 0 0
BITMAP
ENDCHAR
STARTCHAR 00A1
ENCODING 161
SWIDTH 600 0
DWIDTH 15 0
BBX 3 17 6 -5
BITMAP
E0
E0
E0
E0
00
00
00
40
40
40
40
40
E0
E0
E0
E0
E0
ENDCHAR
STARTCHAR 00A2
ENCODING 162
SWIDTH 600 0
DWIDTH 15 0
BBX 11 18 2 -1
BITMAP
0400
0400
0400
1F60
7FE0
64E0
C460
C460
C400
C400
C400
C420
64E0
7FC0
1F00
0400
0400
0400
ENDCHAR
STARTCHAR 00A3
ENCODING 163
SWIDTH 600 0
DWIDTH 15 0
BBX 11 15 2 0
BITMAP
1F00
3FC0
30C0
60C0
6000
3000
3000
7F80
7F80
1800
1800
1000
3000
7FE0
FFC0
ENDCHAR
STARTCHAR 00A4
ENCODING 164
SWIDTH 600 0
DWIDTH 15 0
BBX 13 13 1 1
BITMAP
4010
E738
3FE0
38E0
3060
2020
6030
2020
3060
38E0
3FE0
E738
4010
ENDCHAR
STARTCHAR 00A5
ENCODING 165
SWIDTH 600 0
DWIDTH 15 0
BBX 13 15 1 0
BITMAP
F8F8
F8F8
3060
18C0
78F0
7DF0
0D80
0700
7FF0
7FF0
0200
0200
0200
3FE0
3FE0
ENDCHAR
STARTCHAR 00A6
ENCODING 166
SWIDTH 600 0
DWIDTH 15 0
BBX 1 23 7 -5
BITMAP
80
80
80
80
80
80
80
80
80
80
00
00
00
00
80
80
80
80
80
80
80
80
80
ENDCHAR
STARTCHAR 00A7
ENCODING 167
SWIDTH 600 0
DWIDTH 15 0
BBX 11 18 2 -3
BITMAP
1FC0
3FC0
30C0
30C0
3000
7800
DE00
C700
E3C0
70E0
3C60
0E60
03C0
4180
6180
6180
7F80
7F00
ENDCHAR
STARTCHAR 00A8
ENCODING 168
SWIDTH 600 0
DWIDTH 15 0
BBX 7 3 4 14
BITMAP
C6
C6
C6
ENDCHAR
STARTCHAR 00A9
ENCODING 169
SWIDTH 600 0
DWIDTH 15 0
BBX 15 16 0 0
BITMAP
07C0
1FF0
3838
3018
63CC
47C4
4C04
CC06
C806
4C04
4C04
67CC
33D8
3838
1FF0
07C0
ENDCHAR
STARTCHAR 00AA
ENCODING 170
SWIDTH 600 0
DWIDTH 15 0
BBX 10 9 3 6
BITMAP
3E00
7F00
0300
1900
7F00
C100
C300
FF80
7DC0
ENDCHAR
STARTCHAR 00AB
ENCODING 171
SWIDTH 600 0
DWIDTH 15 0
BBX 11 10 2 2
BITMAP
1860
18E0
30C0
6180
C300
C300
6180
30C0
18E0
1860
ENDCHAR
STARTCHAR 00AC
ENCODING 172
SWIDTH 600 0
DWIDTH 15 0
BBX 11 7 2 4
BITMAP
FFE0
FFE0
0060
0060
0060
0060
0060
ENDCHAR
STARTCHAR 00AD
ENCODING 173
SWIDTH 600 0
DWIDTH 15 0
BBX 9 2 3 5
BITMAP
FF80
FF80
ENDCHAR
STARTCHAR 00AE
ENCODING 174
SWIDTH 600 0
DWIDTH 15 0
BBX 11 13 2 4
BITMAP
1F00
3F80
60C0
DE60
9F20
9120
9F20
9E20
9320
D160
60C0
3F80
1F00
ENDCHAR
STARTCHAR 00AF
ENCODING 175
SWIDTH 600 0
DWIDTH 15 0
BBX 7 2 4 14
BITMAP
FE
FE
ENDCHAR
STARTCHAR 00B0
ENCODING 176
SWIDTH 600 0
DWIDTH 15 0
BBX 7 7 3 8
BITMAP
38
7C
C6
C6
C6
7C
38
ENDCHAR
STARTCHAR 00B1
ENCODING 177
SWIDTH 600 0
DWIDTH 15 0
BBX 11 13 2 1
BITMAP
0400
0400
0400
0400
FFE0
FFE0
0400
0400
0400
0400
0000
FFE0
FFE0
ENDCHAR
STARTCHAR 00B2
ENCODING 178
SWIDTH 600 0
DWIDTH 15 0
BBX 8 10 4 6
BITMAP
7C
FE
86
86
06
1C
38
63
FF
FF
ENDCHAR
STARTCHAR 00B3
ENCODING 179
SWIDTH 600 0
DWIDTH 15 0
BBX 7 10 4 6
BITMAP
7C
FE
86
06
3C
1E
02
06
FE
7C
ENDCHAR
STARTCHAR 00B4
ENCODING 180
SWIDTH 600 0
DWIDTH 15 0
BBX 6 5 5 13
BITMAP
0C
1C
38
F0
C0
ENDCHAR
STARTCHAR 00B5
ENCODING 181
SWIDTH 600 0
DWIDTH 15 0
BBX 9 16 3 -5
BITMAP
8080
C080
C080
C080
C080
C080
C180
C180
C380
FE80
F880
C000
C000
C000
C000
8000
ENDCHAR
STARTCHAR 00B6
ENCODING 182
SWIDTH 600 0
DWIDTH 15 0
BBX 12 20 2 -5
BITMAP
3FF0
7FF0
FCC0
FCC0
FCC0
FCC0
FCC0
7CC0
1CC0
0CC0
0CC0
0CC0
0CC0
0CC0
0CC0
0CC0
0CC0
0CC0
0CC0
0CC0
ENDCHAR
STARTCHAR 00B7
ENCODING 183
SWIDTH 600 0
DWIDTH 15 0
BBX 3 4 6 5
BITMAP
E0
E0
E0
E0
ENDCHAR
STARTCHAR 00B8
ENCODING 184
SWIDTH 600 0
DWIDTH 15 0
BBX 7 6 4 -6
BITMAP
30
30
3C
06
FC
7C
ENDCHAR
STARTCHAR 00B9
ENCODING 185
SWIDTH 600 0
DWIDTH 15 0
BBX 8 10 4 6
BITMAP
18
78
D8
18
18
18
18
18
FE
FF
ENDCHAR
STARTCHAR 00BA
ENCODING 186
SWIDTH 600 0
DWIDTH 15 0
BBX 9 9 3 6
BITMAP
3E00
7F00
C180
C180
C180
C180
C180
7F00
3E00
ENDCHAR
STARTCHAR 00BB
ENCODING 187
SWIDTH 600 0
DWIDTH 15 0
BBX 11 10 2 2
BITMAP
C300
E300
6180
30C0
1860
1860
30C0
6180
E300
C300
ENDCHAR
STARTCHAR 00BC
ENCODING 188
SWIDTH 600 0
DWIDTH 15 0
BBX 15 20 0 -3
BITMAP
3000
F000
9000
1000
1000
1000
1008
FC1C
FC30
00C0
0380
0608
1C18
7038
2068
00C8
00FE
00FE
0008
0008
ENDCHAR
STARTCHAR 00BD
ENCODING 189
SWIDTH 600 0
DWIDTH 15 0
BBX 15 20 0 -2
BITMAP
3000
F000
9000
1000
1000
1000
1008
101C
FC70
00E0
0380
0678
1CFC
70C4
2044
000C
0018
0030
0062
00FE
ENDCHAR
STARTCHAR 00BE
ENCODING 190
SWIDTH 600 0
DWIDTH 15 0
BBX 15 21 0 -3
BITMAP
7800
FC00
C400
0400
3C00
3C00
0600
060C
FC18
7870
00C0
0380
0608
1818
7038
2068
00C8
00FE
00FE
0008
0008
ENDCHAR
STARTCHAR 00BF
ENCODING 191
SWIDTH 600 0
DWIDTH 15 0
BBX 9 16 3 -4
BITMAP
0C00
0C00
0C00
0000
0000
0C00
0C00
0C00
3C00
7800
E000
C000
C180
E180
7F80
3E00
ENDCHAR
STARTCHAR 00C0
ENCODING 192
SWIDTH 600 0
DWIDTH 15 0
BBX 15 21 0 0
BITMAP
0800
1E00
0F00
0380
0080
0000
1F80
1F80
06C0
06C0
0440
0C60
0C60
0820
1FF0
1FF0
3010
3018
3018
FC7E
FC7E
ENDCHAR
STARTCHAR 00C1
ENCODING 193
SWIDTH 600 0
DWIDTH 15 0
BBX 15 21 0 0
BITMAP
00C0
01C0
0380
0700
0C00
0000
1F80
1F80
06C0
06C0
0440
0C60
0C60
0820
1FF0
1FF0
3010
3018
3018
FC7E
FC7E
ENDCHAR
STARTCHAR 00C2
ENCODING 194
SWIDTH 600 0
DWIDTH 15 0
BBX 15 21 0 0
BITMAP
0100
0380
07C0
0CE0
1860
0000
1F80
1F80
06C0
06C0
0440
0C60
0C60
0820
1FF0
1FF0
3010
3018
3018
FC7E
FC7E
ENDCHAR
STARTCHAR 00C3
ENCODING 195
SWIDTH 600 0
DWIDTH 15 0
BBX 15 20 0 0
BITMAP
0E20
1FE0
11C0
0000
0000
1F80
1F80
06C0
06C0
0440
0C60
0C60
0820
1FF0
1FF0
3010
3018
3018
FC7E
FC7E
ENDCHAR
STARTCHAR 00C4
ENCODING 196
SWIDTH 600 0
DWIDTH 15 0
BBX 15 20 0 0
BITMAP
0C60
0C60
0C60
0000
0000
1F80
1F80
06C0
06C0
0440
0C60
0C60
0820
1FF0
1FF0
3010
3018
3018
FC7E
FC7E
ENDCHAR
STARTCHAR 00C5
ENCODING 197
SWIDTH 600 0
DWIDTH 15 0
BBX 15 23 0 0
BITMAP
0780
0FC0
0CC0
0CC0
0FC0
0780
0000
0000
1F80
1F80
06C0
06C0
0440
0C60
0C60
0820
1FF0
1FF0
3010
3018
3018
FC7E
FC7E
ENDCHAR
STARTCHAR 00C6
ENCODING 198
SWIDTH 600 0
DWIDTH 15 0
BBX 14 15 0 0
BITMAP
1FFC
1FFC
058C
0D8C
0D8C
0D80
19F0
19F0
1F80
3F8C
318C
318C
218C
F9FC
F9FC
ENDCHAR
STARTCHAR 00C7
ENCODING 199
SWIDTH 600 0
DWIDTH 15 0
BBX 12 22 1 -7
BITMAP
0FB0
1FF0
3870
7030
6030
6030
C000
C000
C000
4000
6000
6000
7010
3870
1FE0
0780
0200
0380
00C0
08C0
0FC0
0200
ENDCHAR
STARTCHAR 00C8
ENCODING 200
SWIDTH 600 0
DWIDTH 15 0
BBX 12 21 1 0
BITMAP
0800
1E00
0F00
0380
0180
0000
FFF0
FFF0
3030
3030
3190
3180
3F80
3F80
3180
3190
3010
3010
3010
FFF0
FFF0
ENDCHAR
STARTCHAR 00C9
ENCODING 201
SWIDTH 600 0
DWIDTH 15 0
BBX 12 21 1 0
BITMAP
0080
03C0
0780
0E00
0C00
0000
FFF0
FFF0
3030
3030
3190
3180
3F80
3F80
3180
3190
3010
3010
3010
FFF0
FFF0
ENDCHAR
STARTCHAR 00CA
ENCODING 202
SWIDTH 600 0
DWIDTH 15 0
BBX 12 21 1 0
BITMAP
0200
0700
0F80
1CC0
1860
0000
FFF0
FFF0
3030
3030
3190
3180
3F80
3F80
3180
3190
3010
3010
3010
FFF0
FFF0
ENDCHAR
STARTCHAR 00CB
ENCODING 203
SWIDTH 600 0
DWIDTH 15 0
BBX 12 20 1 0
BITMAP
18E0
18E0
18E0
0000
0000
FFF0
FFF0
3030
3030
3190
3180
3F80
3F80
3180
3190
3010
3010
3010
FFF0
FFF0
ENDCHAR
STARTCHAR 00CC
ENCODING 204
SWIDTH 600 0
DWIDTH 15 0
BBX 11 21 2 0
BITMAP
3000
3800
1C00
0F00
0300
0000
7FC0
7FC0
0400
0400
0400
0400
0400
0400
0400
0400
0400
0400
0400
7FC0
FFE0
ENDCHAR
STARTCHAR 00CD
ENCODING 205
SWIDTH 600 0
DWIDTH 15 0
BBX 11 21 2 0
BITMAP
0180
0380
0700
1E00
1800
0000
7FC0
7FC0
0400
0400
0400
0400
0400
0400
0400
0400
0400
0400
0400
7FC0
FFE0
ENDCHAR
STARTCHAR 00CE
ENCODING 206
SWIDTH 600 0
DWIDTH 15 0
BBX 11 21 2 0
BITMAP
0400
0E00
1F00
3380
2080
0000
7FC0
7FC0
0400
0400
0400
0400
0400
0400
0400
0400
0400
0400
0400
7FC0
FFE0
ENDCHAR
STARTCHAR 00CF
ENCODING 207
SWIDTH 600 0
DWIDTH 15 0
BBX 11 20 2 0
BITMAP
3180
3180
3180
0000
0000
7FC0
7FC0
0400
0400
0400
0400
0400
0400
0400
0400
0400
0400
0400
7FC0
FFE0
ENDCHAR
STARTCHAR 00D0
ENCODING 208
SWIDTH 600 0
DWIDTH 15 0
BBX 13 15 1 0
BITMAP
FF80
FFE0
3070
3030
3030
3018
FE18
FE18
3018
3018
3038
3030
3070
FFE0
FF80
ENDCHAR
STARTCHAR 00D1
ENCODING 209
SWIDTH 600 0
DWIDTH 15 0
BBX 13 20 1 0
BITMAP
0C40
1FE0
3380
0000
0000
F0F8
F8F8
3830
2C30
2C30
2630
2630
2330
23B0
21B0
20F0
20F0
2070
FC70
FC30
ENDCHAR
STARTCHAR 00D2
ENCODING 210
SWIDTH 600 0
DWIDTH 15 0
BBX 13 21 1 0
BITMAP
1800
1C00
0F00
0380
0180
0000
0F80
3FE0
7060
6030
E030
C018
C018
C018
C018
C018
E030
6030
7060
3FE0
0F80
ENDCHAR
STARTCHAR 00D3
ENCODING 211
SWIDTH 600 0
DWIDTH 15 0
BBX 13 21 1 0
BITMAP
0080
01C0
0780
0E00
0C00
0000
0F80
3FE0
7060
6030
E030
C018
C018
C018
C018
C018
E030
6030
7060
3FE0
0F80
ENDCHAR
STARTCHAR 00D4
ENCODING 212
SWIDTH 600 0
DWIDTH 15 0
BBX 13 21 1 0
BITMAP
0200
0700
0F80
19C0
1040
0000
0F80
3FE0
7060
6030
E030
C018
C018
C018
C018
C018
E030
6030
7060
3FE0
0F80
ENDCHAR
STARTCHAR 00D5
ENCODING 213
SWIDTH 600 0
DWIDTH 15 0
BBX 13 20 1 0
BITMAP
0C40
1FE0
3380
0000
0000
0F80
3FE0
7060
6030
E030
C018
C018
C018
C018
C018
E030
6030
7060
3FE0
0F80
ENDCHAR
STARTCHAR 00D6
ENCODING 214
SWIDTH 600 0
DWIDTH 15 0
BBX 13 20 1 0
BITMAP
18C0
18C0
18C0
0000
0000
0F80
3FE0
7060
6030
E030
C018
C018
C018
C018
C018
E030
6030
7060
3FE0
0F80
ENDCHAR
STARTCHAR 00D7
ENCODING 215
SWIDTH 600 0
DWIDTH 15 0
BBX 9 10 3 2
BITMAP
8080
C180
6300
3600
1C00
1C00
3600
6300
C180
C080
ENDCHAR
STARTCHAR 00D8
ENCODING 216
SWIDTH 600 0
DWIDTH 15 0
BBX 13 18 1 -1
BITMAP
0010
0010
0FB8
3FF0
7060
60F0
E0F0
C198
C318
C718
C618
CC18
7838
7830
3070
7FE0
EF80
4000
ENDCHAR
STARTCHAR 00D9
ENCODING 217
SWIDTH 600 0
DWIDTH 15 0
BBX 13 21 1 0
BITMAP
1800
1C00
0E00
0780
0180
0000
F8F8
F8F8
6030
6030
6030
6030
6030
6030
6030
6030
6030
2060
3060
3FC0
0F80
ENDCHAR
STARTCHAR 00DA
ENCODING 218
SWIDTH 600 0
DWIDTH 15 0
BBX 13 21 1 0
BITMAP
00C0
01C0
0380
0F00
0C00
0000
F8F8
F8F8
6030
6030
6030
6030
6030
6030
6030
6030
6030
2060
3060
3FC0
0F80
ENDCHAR
STARTCHAR 00DB
ENCODING 219
SWIDTH 600 0
DWIDTH 15 0
BBX 13 21 1 0
BITMAP
0200
0700
0F80
19C0
1040
0000
F8F8
F8F8
6030
6030
6030
6030
6030
6030
6030
6030
6030
2060
3060
3FC0
0F80
ENDCHAR
STARTCHAR 00DC
ENCODING 220
SWIDTH 600 0
DWIDTH 15 0
BBX 13 20 1 0
BITMAP
18C0
18C0
18C0
0000
0000
F8F8
F8F8
6030
6030
6030
6030
6030
6030
6030
6030
6030
2060
3060
3FC0
0F80
ENDCHAR
STARTCHAR 00DD
ENCODING 221
SWIDTH 600 0
DWIDTH 15 0
BBX 13 21 1 0
BITMAP
00C0
01C0
0380
0F00
0C00
0000
F8F8
F8F8
3060
3060
18C0
0D80
0D80
0700
0700
0200
0200
0200
0200
3FE0
3FE0
ENDCHAR
STARTCHAR 00DE
ENCODING 222
SWIDTH 600 0
DWIDTH 15 0
BBX 12 15 1 0
BITMAP
FF00
FF00
1800
1FC0
1FE0
1870
1830
1830
1830
1870
1FE0
1FC0
1800
FF00
FF00
ENDCHAR
STARTCHAR 00DF
ENCODING 223
SWIDTH 600 0
DWIDTH 15 0
BBX 13 17 0 0
BITMAP
07C0
0FE0
1C70
1830
1830
1830
1870
19E0
19E0
1830
1818
1818
1818
1818
1830
79F0
F9C0
ENDCHAR
STARTCHAR 00E0
ENCODING 224
SWIDTH 600 0
DWIDTH 15 0
BBX 12 18 2 0
BITMAP
1800
1C00
0E00
0700
0180
0000
3F00
7F80
40C0
00C0
3EC0
7FC0
C0C0
C0C0
C0C0
C3C0
FF70
3C70
ENDCHAR
STARTCHAR 00E1
ENCODING 225
SWIDTH 600 0
DWIDTH 15 0
BBX 12 18 2 0
BITMAP
0300
0700
0E00
1C00
3000
0000
3F00
7F80
40C0
00C0
3EC0
7FC0
C0C0
C0C0
C0C0
C3C0
FF70
3C70
ENDCHAR
STARTCHAR 00E2
ENCODING 226
SWIDTH 600 0
DWIDTH 15 0
BBX 12 18 2 0
BITMAP
0400
0E00
1F00
3380
2080
0000
3F00
7F80
40C0
00C0
3EC0
7FC0
C0C0
C0C0
C0C0
C3C0
FF70
3C70
ENDCHAR
STARTCHAR 00E3
ENCODING 227
SWIDTH 600 0
DWIDTH 15 0
BBX 12 17 2 0
BITMAP
1880
3FC0
6700
0000
0000
3F00
7F80
40C0
00C0
3EC0
7FC0
C0C0
C0C0
C0C0
C3C0
FF70
3C70
ENDCHAR
STARTCHAR 00E4
ENCODING 228
SWIDTH 600 0
DWIDTH 15 0
BBX 12 17 2 0
BITMAP
3180
3180
3180
0000
0000
3F00
7F80
40C0
00C0
3EC0
7FC0
C0C0
C0C0
C0C0
C3C0
FF70
3C70
ENDCHAR
STARTCHAR 00E5
ENCODING 229
SWIDTH 600 0
DWIDTH 15 0
BBX 12 20 2 0
BITMAP
0E00
1F00
1180
1180
1F00
0E00
0000
0000
3F00
7F80
40C0
00C0
3EC0
7FC0
C0C0
C0C0
C0C0
C3C0
FF70
3C70
ENDCHAR
STARTCHAR 00E6
ENCODING 230
SWIDTH 600 0
DWIDTH 15 0
BBX 13 12 1 0
BITMAP
3CE0
FFF0
4718
0318
1FF8
7FF8
E200
C300
C700
C718
FDF8
78E0
ENDCHAR
STARTCHAR 00E7
ENCODING 231
SWIDTH 600 0
DWIDTH 15 0
BBX 11 18 2 -6
BITMAP
1F60
7FE0
60E0
C060
C060
C000
C000
C000
C020
60E0
3FC0
0E00
0C00
0F00
0180
1180
3F00
0600
ENDCHAR
STARTCHAR 00E8
ENCODING 232
SWIDTH 600 0
DWIDTH 15 0
BBX 11 18 2 0
BITMAP
1800
1C00
0E00
0700
0180
0000
1F00
3FC0
60E0
C060
FFE0
FFE0
C000
C000
C000
6060
7FE0
1F80
ENDCHAR
STARTCHAR 00E9
ENCODING 233
SWIDTH 600 0
DWIDTH 15 0
BBX 11 18 2 0
BITMAP
0100
0380
0F00
1C00
1800
0000
1F00
3FC0
60E0
C060
FFE0
FFE0
C000
C000
C000
6060
7FE0
1F80
ENDCHAR
STARTCHAR 00EA
ENCODING 234
SWIDTH 600 0
DWIDTH 15 0
BBX 11 18 2 0
BITMAP
0400
0E00
1F00
3980
20C0
0000
1F00
3FC0
60E0
C060
FFE0
FFE0
C000
C000
C000
6060
7FE0
1F80
ENDCHAR
STARTCHAR 00EB
ENCODING 235
SWIDTH 600 0
DWIDTH 15 0
BBX 11 17 2 0
BITMAP
3180
3180
3180
0000
0000
1F00
3FC0
60E0
C060
FFE0
FFE0
C000
C000
C000
6060
7FE0
1F80
ENDCHAR
STARTCHAR 00EC
ENCODING 236
SWIDTH 600 0
DWIDTH 15 0
BBX 11 18 2 0
BITMAP
2000
7800
3C00
0E00
0200
0000
7E00
7E00
0600
0600
0600
0600
0600
0600
0600
0600
FFE0
FFE0
ENDCHAR
STARTCHAR 00ED
ENCODING 237
SWIDTH 600 0
DWIDTH 15 0
BBX 11 18 2 0
BITMAP
0300
0700
0E00
1C00
3000
0000
7E00
7E00
0600
0600
0600
0600
0600
0600
0600
0600
FFE0
FFE0
ENDCHAR
STARTCHAR 00EE
ENCODING 238
SWIDTH 600 0
DWIDTH 15 0
BBX 11 18 2 0
BITMAP
0400
0E00
1F00
3380
2080
0000
7E00
7E00
0600
0600
0600
0600
0600
0600
0600
0600
FFE0
FFE0
ENDCHAR
STARTCHAR 00EF
ENCODING 239
SWIDTH 600 0
DWIDTH 15 0
BBX 11 17 2 0
BITMAP
3180
3180
3180
0000
0000
7E00
7E00
0600
0600
0600
0600
0600
0600
0600
0600
FFE0
FFE0
ENDCHAR
STARTCHAR 00F0
ENCODING 240
SWIDTH 600 0
DWIDTH 15 0
BBX 11 17 2 0
BITMAP
38C0
1FC0
1F00
3B80
0180
1FC0
7FC0
60E0
C060
C060
C060
C060
C060
C060
60C0
3F80
1F00
ENDCHAR
STARTCHAR 00F1
ENCODING 241
SWIDTH 600 0
DWIDTH 15 0
BBX 13 17 1 0
BITMAP
0C40
1FE0
3380
0000
0000
F3C0
F7E0
3C60
3820
3030
3030
3030
3030
3030
3030
FCF8
FCF8
ENDCHAR
STARTCHAR 00F2
ENCODING 242
SWIDTH 600 0
DWIDTH 15 0
BBX 11 18 2 0
BITMAP
3000
3800
1E00
0700
0300
0000
1F00
7FC0
60C0
C060
C060
C060
C060
C060
C060
60C0
7FC0
1F00
ENDCHAR
STARTCHAR 00F3
ENCODING 243
SWIDTH 600 0
DWIDTH 15 0
BBX 11 18 2 0
BITMAP
0100
0380
0F00
1C00
1800
0000
1F00
7FC0
60C0
C060
C060
C060
C060
C060
C060
60C0
7FC0
1F00
ENDCHAR
STARTCHAR 00F4
ENCODING 244
SWIDTH 600 0
DWIDTH 15 0
BBX 11 18 2 0
BITMAP
0400
0E00
1F00
3380
2080
0000
1F00
7FC0
60C0
C060
C060
C060
C060
C060
C060
60C0
7FC0
1F00
ENDCHAR
STARTCHAR 00F5
ENCODING 245
SWIDTH 600 0
DWIDTH 15 0
BBX 11 17 2 0
BITMAP
1880
3FC0
6700
0000
0000
1F00
7FC0
60C0
C060
C060
C060
C060
C060
C060
60C0
7FC0
1F00
ENDCHAR
STARTCHAR 00F6
ENCODING 246
SWIDTH 600 0
DWIDTH 15 0
BBX 11 17 2 0
BITMAP
3180
3180
3180
0000
0000
1F00
7FC0
60C0
C060
C060
C060
C060
C060
C060
60C0
7FC0
1F00
ENDCHAR
STARTCHAR 00F7
ENCODING 247
SWIDTH 600 0
DWIDTH 15 0
BBX 11 12 2 1
BITMAP
0E00
0E00
0E00
0000
0000
FFE0
FFE0
0000
0000
0E00
0E00
0E00
ENDCHAR
STARTCHAR 00F8
ENCODING 248
SWIDTH 600 0
DWIDTH 15 0
BBX 13 12 1 0
BITMAP
0F98
3FF8
3060
60F0
61B0
6330
6630
6C30
7830
3060
FFE0
CF80
ENDCHAR
STARTCHAR 00F9
ENCODING 249
SWIDTH 600 0
DWIDTH 15 0
BBX 13 18 1 0
BITMAP
1800
1C00
0F00
0380
0180
0000
E1E0
E1E0
2060
2060
2060
2060
2060
2060
30E0
31E0
3FF8
1E38
ENDCHAR
STARTCHAR 00FA
ENCODING 250
SWIDTH 600 0
DWIDTH 15 0
BBX 13 18 1 0
BITMAP
00C0
01C0
0380
0E00
0C00
0000
E1E0
E1E0
2060
2060
2060
2060
2060
2060
30E0
31E0
3FF8
1E38
ENDCHAR
STARTCHAR 00FB
ENCODING 251
SWIDTH 600 0
DWIDTH 15 0
BBX 13 18 1 0
BITMAP
0200
0700
0F80
19C0
3040
0000
E1E0
E1E0
2060
2060
2060
2060
2060
2060
30E0
31E0
3FF8
1E38
ENDCHAR
STARTCHAR 00FC
ENCODING 252
SWIDTH 600 0
DWIDTH 15 0
BBX 13 17 1 0
BITMAP
18C0
18C0
18C0
0000
0000
E1E0
E1E0
2060
2060
2060
2060
2060
2060
30E0
31E0
3FF8
1E38
ENDCHAR
STARTCHAR 00FD
ENCODING 253
SWIDTH 600 0
DWIDTH 15 0
BBX 13 23 1 -5
BITMAP
00C0
01C0
0380
0F00
0C00
0000
F8F8
F8F8
6030
3060
3060
18C0
18C0
0D80
0D80
0700
0700
0600
0600
0C00
1C00
F800
F000
ENDCHAR
STARTCHAR 00FE
ENCODING 254
SWIDTH 600 0
DWIDTH 15 0
BBX 13 22 0 -5
BITMAP
7000
7000
3000
3000
3000
33C0
37F0
3C38
3818
3018
3018
3018
3018
3818
3C38
37F0
33E0
3000
3000
3000
7E00
FE00
ENDCHAR
STARTCHAR 00FF
ENCODING 255
SWIDTH 600 0
DWIDTH 15 0
BBX 13 22 1 -5
BITMAP
18C0
18C0
18C0
0000
0000
F8F8
F8F8
6030
3060
3060
18C0
18C0
0D80
0D80
0700
0700
0600
0600
0C00
1C00
F800
F000
ENDCHAR
STARTCHAR 0152
ENCODING 140
SWIDTH 600 0
DWIDTH 15 0
BBX 13 15 1 0
BITMAP
1FF8
3FF8
7318
6318
C318
C300
C3E0
C3E0
C300
C300
C318
6318
7318
3FF8
1FF8
ENDCHAR
STARTCHAR 0153
ENCODING 156
SWIDTH 600 0
DWIDTH 15 0
BBX 13 12 1 0
BITMAP
38E0
7DF0
C718
C718
C7F8
C3F8
C200
C700
C700
C718
7DF8
38E0
ENDCHAR
STARTCHAR 0160
ENCODING 138
SWIDTH 600 0
DWIDTH 15 0
BBX 11 21 2 0
BITMAP
2080
7180
3B00
1E00
0C00
0000
3E40
7FC0
E1C0
C0C0
C040
E000
7E00
1F80
01C0
0060
C060
C060
E0E0
FFC0
DF80
ENDCHAR
STARTCHAR 0161
ENCODING 154
SWIDTH 600 0
DWIDTH 15 0
BBX 11 18 2 0
BITMAP
2080
3180
3B00
1E00
0C00
0000
3EC0
7FC0
E0C0
C040
E000
7F80
0FC0
C060
C060
E0E0
FFC0
DF80
ENDCHAR
STARTCHAR 0178
ENCODING 159
SWIDTH 600 0
DWIDTH 15 0
BBX 13 20 1 0
BITMAP
18C0
18C0
18C0
0000
0000
F8F8
F8F8
3060
3060
18C0
0D80
0D80
0700
0700
0200
0200
0200
0200
3FE0
3FE0
ENDCHAR
STARTCHAR 017D
ENCODING 142
SWIDTH 600 0
DWIDTH 15 0
BBX 11 21 2 0
BITMAP
2080
3180
1B80
0F00
0600
0000
FFE0
FFE0
C0C0
C180
C380
4300
0600
0E00
0C00
1860
3860
3060
6060
FFE0
FFE0
ENDCHAR
STARTCHAR 017E
ENCODING 158
SWIDTH 600 0
DWIDTH 15 0
BBX 11 18 2 0
BITMAP
2080
31C0
1B80
0F00
0600
0000
FFE0
FFE0
C1C0
C380
4700
0600
0C00
1860
3860
7060
FFE0
FFE0
ENDCHAR
STARTCHAR 0192
ENCODING 131
SWIDTH 600 0
DWIDTH 15 0
BBX 14 20 0 -3
BITMAP
007C
00FC
0180
0180
0180
0180
1FF0
1FF0
0300
0300
0300
0300
0300
0300
0300
0300
0300
0600
FE00
7C00
ENDCHAR
STARTCHAR 02C6
ENCODING 136
SWIDTH 600 0
DWIDTH 15 0
BBX 7 5 4 13
BITMAP
10
38
7C
CE
82
ENDCHAR
STARTCHAR 02DC
ENCODING 152
SWIDTH 600 0
DWIDTH 15 0
BBX 9 3 3 14
BITMAP
3100
7F80
CE00
ENDCHAR
STARTCHAR 2013
ENCODING 150
SWIDTH 600 0
DWIDTH 15 0
BBX 11 2 2 7
BITMAP
FFE0
FFE0
ENDCHAR
STARTCHAR 2014
ENCODING 151
SWIDTH 600 0
DWIDTH 15 0
BBX 15 2 0 7
BITMAP
FFFE
FFFE
ENDCHAR
STARTCHAR 2018
ENCODING 145
SWIDTH 600 0
DWIDTH 15 0
BBX 5 7 5 10
BITMAP
18
30
30
30
70
70
E0
ENDCHAR
STARTCHAR 2019
ENCODING 146
SWIDTH 600 0
DWIDTH 15 0
BBX 5 7 5 9
BITMAP
38
70
70
60
60
C0
C0
ENDCHAR
STARTCHAR 201A
ENCODING 130
SWIDTH 600 0
DWIDTH 15 0
BBX 5 7 5 -3
BITMAP
38
70
70
60
60
C0
C0
ENDCHAR
STARTCHAR 201C
ENCODING 147
SWIDTH 600 0
DWIDTH 15 0
BBX 11 7 2 10
BITMAP
1860
30C0
30C0
31C0
71C0
71C0
E380
ENDCHAR
STARTCHAR 201D
ENCODING 148
SWIDTH 600 0
DWIDTH 15 0
BBX 11 7 2 9
BITMAP
38E0
71C0
71C0
6180
6180
6300
C300
ENDCHAR
STARTCHAR 201E
ENCODING 132
SWIDTH 600 0
DWIDTH 15 0
BBX 11 7 2 -3
BITMAP
38E0
71C0
71C0
6180
6180
6300
C300
ENDCHAR
STARTCHAR 2020
ENCODING 134
SWIDTH 600 0
DWIDTH 15 0
BBX 7 12 4 3
BITMAP
10
10
10
FE
FE
10
10
10
10
10
10
10
ENDCHAR
STARTCHAR 2021
ENCODING 135
SWIDTH 600 0
DWIDTH 15 0
BBX 7 12 4 3
BITMAP
10
10
FE
FE
10
10
10
FE
FE
10
10
10
ENDCHAR
STARTCHAR 2022
ENCODING 149
SWIDTH 600 0
DWIDTH 15 0
BBX 5 6 5 4
BITMAP
F8
F8
F8
F8
F8
F8
ENDCHAR
STARTCHAR 2026
ENCODING 133
SWIDTH 600 0
DWIDTH 15 0
BBX 13 3 1 0
BITMAP
E738
E738
E738
ENDCHAR
STARTCHAR 2030
ENCODING 137
SWIDTH 600 0
DWIDTH 15 0
BBX 18 15 1 0
BITMAP
780000
FC0000
CC1800
843000
CC6000
FDC000
338000
070000
0EF380
1DFFC0
319CC0
610840
C19CC0
01FFC0
00F380
ENDCHAR
STARTCHAR 2039
ENCODING 139
SWIDTH 600 0
DWIDTH 15 0
BBX 5 10 5 2
BITMAP
18
18
30
60
C0
C0
60
30
18
18
ENDCHAR
STARTCHAR 203A
ENCODING 155
SWIDTH 600 0
DWIDTH 15 0
BBX 5 10 5 2
BITMAP
C0
C0
60
30
18
18
30
60
C0
C0
ENDCHAR
STARTCHAR 20AC
ENCODING 128
SWIDTH 600 0
DWIDTH 15 0
BBX 13 15 1 0
BITMAP
0790
1FF0
1870
3030
FF30
FF10
3000
3000
FF00
FF00
3000
3000
1838
0FF0
07C0
ENDCHAR
STARTCHAR 2122
ENCODING 153
SWIDTH 600 0
DWIDTH 15 0
BBX 15 7 1 9
BITMAP
FD8C
31CC
31DC
31F4
31B4
31A6
2104
ENDCHAR
ENDFONT
