STARTFONT 2.1
COMMENT
COMMENT Converted from OpenType font "CourierPrime-Bold.ttf" by "otf2bdf 3.0".
COMMENT
FONT -FreeType-Courier Prime-Bold-R-Normal--10-70-100-100-P-53-ISO10646-1
SIZE 7 100 100
FONTBOUNDINGBOX 12 12 -4 -3
STARTPROPERTIES 19
FOUNDRY "FreeType"
FAMILY_NAME "Courier Prime"
WEIGHT_NAME "Bold"
SLANT "R"
SETWIDTH_NAME "Normal"
ADD_STYLE_NAME ""
PIXEL_SIZE 10
POINT_SIZE 70
RESOLUTION_X 100
RESOLUTION_Y 100
SPACING "P"
AVERAGE_WIDTH 53
CHARSET_REGISTRY "ISO10646"
CHARSET_ENCODING "1"
FONT_ASCENT 7
FONT_DESCENT 3
COPYRIGHT "Copyright 2015 The Courier Prime Project Authors (https://github.com/quoteunquoteapps/CourierPrime)."
_OTF_FONTFILE "CourierPrime-Bold.ttf"
_OTF_PSNAME "CourierPrime-Bold"
ENDPROPERTIES
CHARS 383
STARTCHAR 000D
ENCODING 13
SWIDTH 617 0
DWIDTH 6 0
BBX 0 0 0 0
BITMAP
ENDCHAR
STARTCHAR 0020
ENCODING 32
SWIDTH 617 0
DWIDTH 6 0
BBX 0 0 0 0
BITMAP
ENDCHAR
STARTCHAR 0021
ENCODING 33
SWIDTH 617 0
DWIDTH 6 0
BBX 2 7 2 0
BITMAP
C0
C0
C0
80
00
00
C0
ENDCHAR
STARTCHAR 0022
ENCODING 34
SWIDTH 617 0
DWIDTH 6 0
BBX 4 3 1 4
BITMAP
F0
90
90
ENDCHAR
STARTCHAR 0023
ENCODING 35
SWIDTH 617 0
DWIDTH 6 0
BBX 6 6 0 0
BITMAP
28
7C
48
F8
50
50
ENDCHAR
STARTCHAR 0024
ENCODING 36
SWIDTH 617 0
DWIDTH 6 0
BBX 4 8 1 -1
BITMAP
40
40
F0
D0
F0
D0
F0
40
ENDCHAR
STARTCHAR 0025
ENCODING 37
SWIDTH 617 0
DWIDTH 6 0
BBX 6 6 0 0
BITMAP
E0
EC
10
38
D4
18
ENDCHAR
STARTCHAR 0026
ENCODING 38
SWIDTH 617 0
DWIDTH 6 0
BBX 5 6 1 0
BITMAP
60
90
80
D8
B0
F8
ENDCHAR
STARTCHAR 0027
ENCODING 39
SWIDTH 617 0
DWIDTH 6 0
BBX 2 3 2 4
BITMAP
C0
C0
80
ENDCHAR
STARTCHAR 0028
ENCODING 40
SWIDTH 617 0
DWIDTH 6 0
BBX 4 9 1 -2
BITMAP
30
60
40
C0
80
C0
40
60
30
ENDCHAR
STARTCHAR 0029
ENCODING 41
SWIDTH 617 0
DWIDTH 6 0
BBX 4 9 1 -2
BITMAP
C0
60
20
30
10
30
20
60
C0
ENDCHAR
STARTCHAR 002A
ENCODING 42
SWIDTH 617 0
DWIDTH 6 0
BBX 4 4 1 2
BITMAP
60
D0
60
F0
ENDCHAR
STARTCHAR 002B
ENCODING 43
SWIDTH 617 0
DWIDTH 6 0
BBX 4 5 1 1
BITMAP
60
60
F0
60
60
ENDCHAR
STARTCHAR 002C
ENCODING 44
SWIDTH 617 0
DWIDTH 6 0
BBX 2 3 2 -2
BITMAP
C0
80
80
ENDCHAR
STARTCHAR 002D
ENCODING 45
SWIDTH 617 0
DWIDTH 6 0
BBX 4 1 1 3
BITMAP
F0
ENDCHAR
STARTCHAR 002E
ENCODING 46
SWIDTH 617 0
DWIDTH 6 0
BBX 2 2 2 0
BITMAP
C0
C0
ENDCHAR
STARTCHAR 002F
ENCODING 47
SWIDTH 617 0
DWIDTH 6 0
BBX 4 9 1 -2
BITMAP
10
10
20
20
60
40
40
80
80
ENDCHAR
STARTCHAR 0030
ENCODING 48
SWIDTH 617 0
DWIDTH 6 0
BBX 4 6 1 0
BITMAP
60
90
90
90
90
60
ENDCHAR
STARTCHAR 0031
ENCODING 49
SWIDTH 617 0
DWIDTH 6 0
BBX 4 6 1 0
BITMAP
60
E0
20
20
20
F0
ENDCHAR
STARTCHAR 0032
ENCODING 50
SWIDTH 617 0
DWIDTH 6 0
BBX 4 6 1 0
BITMAP
E0
90
30
60
D0
F0
ENDCHAR
STARTCHAR 0033
ENCODING 51
SWIDTH 617 0
DWIDTH 6 0
BBX 4 6 1 0
BITMAP
F0
90
60
10
90
E0
ENDCHAR
STARTCHAR 0034
ENCODING 52
SWIDTH 617 0
DWIDTH 6 0
BBX 4 6 1 0
BITMAP
20
60
A0
F0
20
70
ENDCHAR
STARTCHAR 0035
ENCODING 53
SWIDTH 617 0
DWIDTH 6 0
BBX 4 6 1 0
BITMAP
F0
80
F0
10
90
E0
ENDCHAR
STARTCHAR 0036
ENCODING 54
SWIDTH 617 0
DWIDTH 6 0
BBX 4 6 1 0
BITMAP
70
C0
F0
90
90
70
ENDCHAR
STARTCHAR 0037
ENCODING 55
SWIDTH 617 0
DWIDTH 6 0
BBX 4 6 1 0
BITMAP
F0
90
30
20
60
40
ENDCHAR
STARTCHAR 0038
ENCODING 56
SWIDTH 617 0
DWIDTH 6 0
BBX 4 6 1 0
BITMAP
F0
90
60
90
90
F0
ENDCHAR
STARTCHAR 0039
ENCODING 57
SWIDTH 617 0
DWIDTH 6 0
BBX 4 6 1 0
BITMAP
E0
90
F0
10
30
E0
ENDCHAR
STARTCHAR 003A
ENCODING 58
SWIDTH 617 0
DWIDTH 6 0
BBX 2 5 2 0
BITMAP
C0
00
00
00
C0
ENDCHAR
STARTCHAR 003B
ENCODING 59
SWIDTH 617 0
DWIDTH 6 0
BBX 2 6 2 -1
BITMAP
C0
00
00
C0
80
80
ENDCHAR
STARTCHAR 003C
ENCODING 60
SWIDTH 617 0
DWIDTH 6 0
BBX 4 5 1 0
BITMAP
10
60
80
60
10
ENDCHAR
STARTCHAR 003D
ENCODING 61
SWIDTH 617 0
DWIDTH 6 0
BBX 4 3 1 2
BITMAP
F0
00
F0
ENDCHAR
STARTCHAR 003E
ENCODING 62
SWIDTH 617 0
DWIDTH 6 0
BBX 4 5 1 0
BITMAP
80
60
10
60
80
ENDCHAR
STARTCHAR 003F
ENCODING 63
SWIDTH 617 0
DWIDTH 6 0
BBX 4 7 1 0
BITMAP
E0
90
10
60
40
00
60
ENDCHAR
STARTCHAR 0040
ENCODING 64
SWIDTH 617 0
DWIDTH 6 0
BBX 6 6 0 -1
BITMAP
38
7C
B4
D4
A8
70
ENDCHAR
STARTCHAR 0041
ENCODING 65
SWIDTH 617 0
DWIDTH 6 0
BBX 6 6 0 0
BITMAP
70
30
78
78
48
FC
ENDCHAR
STARTCHAR 0042
ENCODING 66
SWIDTH 617 0
DWIDTH 6 0
BBX 6 6 0 0
BITMAP
F8
48
70
48
4C
F8
ENDCHAR
STARTCHAR 0043
ENCODING 67
SWIDTH 617 0
DWIDTH 6 0
BBX 6 6 0 0
BITMAP
38
48
48
C0
48
3C
ENDCHAR
STARTCHAR 0044
ENCODING 68
SWIDTH 617 0
DWIDTH 6 0
BBX 6 6 0 0
BITMAP
F8
48
4C
4C
48
F8
ENDCHAR
STARTCHAR 0045
ENCODING 69
SWIDTH 617 0
DWIDTH 6 0
BBX 5 6 0 0
BITMAP
F8
48
70
48
48
F8
ENDCHAR
STARTCHAR 0046
ENCODING 70
SWIDTH 617 0
DWIDTH 6 0
BBX 5 6 0 0
BITMAP
F8
48
70
40
40
F0
ENDCHAR
STARTCHAR 0047
ENCODING 71
SWIDTH 617 0
DWIDTH 6 0
BBX 6 6 0 0
BITMAP
78
48
C0
DC
48
78
ENDCHAR
STARTCHAR 0048
ENCODING 72
SWIDTH 617 0
DWIDTH 6 0
BBX 6 6 0 0
BITMAP
FC
48
78
48
48
FC
ENDCHAR
STARTCHAR 0049
ENCODING 73
SWIDTH 617 0
DWIDTH 6 0
BBX 4 6 1 0
BITMAP
F0
60
60
60
60
F0
ENDCHAR
STARTCHAR 004A
ENCODING 74
SWIDTH 617 0
DWIDTH 6 0
BBX 6 6 0 0
BITMAP
3C
18
18
D8
D8
70
ENDCHAR
STARTCHAR 004B
ENCODING 75
SWIDTH 617 0
DWIDTH 6 0
BBX 6 6 0 0
BITMAP
FC
48
70
78
48
EC
ENDCHAR
STARTCHAR 004C
ENCODING 76
SWIDTH 617 0
DWIDTH 6 0
BBX 5 6 0 0
BITMAP
F0
60
60
68
68
F8
ENDCHAR
STARTCHAR 004D
ENCODING 77
SWIDTH 617 0
DWIDTH 6 0
BBX 6 6 0 0
BITMAP
CC
78
78
78
48
DC
ENDCHAR
STARTCHAR 004E
ENCODING 78
SWIDTH 617 0
DWIDTH 6 0
BBX 6 6 0 0
BITMAP
DC
68
78
58
58
E8
ENDCHAR
STARTCHAR 004F
ENCODING 79
SWIDTH 617 0
DWIDTH 6 0
BBX 6 6 0 0
BITMAP
78
48
CC
CC
48
78
ENDCHAR
STARTCHAR 0050
ENCODING 80
SWIDTH 617 0
DWIDTH 6 0
BBX 6 6 0 0
BITMAP
F8
68
6C
78
60
F0
ENDCHAR
STARTCHAR 0051
ENCODING 81
SWIDTH 617 0
DWIDTH 6 0
BBX 6 8 0 -2
BITMAP
78
48
CC
CC
48
78
20
7C
ENDCHAR
STARTCHAR 0052
ENCODING 82
SWIDTH 617 0
DWIDTH 6 0
BBX 6 6 0 0
BITMAP
F8
48
78
58
48
EC
ENDCHAR
STARTCHAR 0053
ENCODING 83
SWIDTH 617 0
DWIDTH 6 0
BBX 4 6 1 0
BITMAP
F0
90
E0
30
90
F0
ENDCHAR
STARTCHAR 0054
ENCODING 84
SWIDTH 617 0
DWIDTH 6 0
BBX 6 6 0 0
BITMAP
FC
FC
B4
30
30
78
ENDCHAR
STARTCHAR 0055
ENCODING 85
SWIDTH 617 0
DWIDTH 6 0
BBX 6 6 0 0
BITMAP
FC
48
48
48
48
78
ENDCHAR
STARTCHAR 0056
ENCODING 86
SWIDTH 617 0
DWIDTH 6 0
BBX 6 6 0 0
BITMAP
FC
48
48
30
30
30
ENDCHAR
STARTCHAR 0057
ENCODING 87
SWIDTH 617 0
DWIDTH 6 0
BBX 6 6 0 0
BITMAP
CC
C8
78
78
78
48
ENDCHAR
STARTCHAR 0058
ENCODING 88
SWIDTH 617 0
DWIDTH 6 0
BBX 6 6 0 0
BITMAP
FC
68
30
30
48
FC
ENDCHAR
STARTCHAR 0059
ENCODING 89
SWIDTH 617 0
DWIDTH 6 0
BBX 6 6 0 0
BITMAP
FC
48
30
30
30
78
ENDCHAR
STARTCHAR 005A
ENCODING 90
SWIDTH 617 0
DWIDTH 6 0
BBX 4 6 1 0
BITMAP
F0
B0
20
50
D0
F0
ENDCHAR
STARTCHAR 005B
ENCODING 91
SWIDTH 617 0
DWIDTH 6 0
BBX 4 9 1 -2
BITMAP
F0
C0
C0
C0
C0
C0
C0
C0
F0
ENDCHAR
STARTCHAR 005C
ENCODING 92
SWIDTH 617 0
DWIDTH 6 0
BBX 4 9 1 -2
BITMAP
80
80
40
40
60
20
20
10
10
ENDCHAR
STARTCHAR 005D
ENCODING 93
SWIDTH 617 0
DWIDTH 6 0
BBX 4 9 1 -2
BITMAP
F0
30
30
30
30
30
30
30
F0
ENDCHAR
STARTCHAR 005E
ENCODING 94
SWIDTH 617 0
DWIDTH 6 0
BBX 4 4 1 2
BITMAP
60
60
F0
90
ENDCHAR
STARTCHAR 005F
ENCODING 95
SWIDTH 617 0
DWIDTH 6 0
BBX 6 1 0 -2
BITMAP
FC
ENDCHAR
STARTCHAR 0060
ENCODING 96
SWIDTH 617 0
DWIDTH 6 0
BBX 3 2 1 5
BITMAP
C0
60
ENDCHAR
STARTCHAR 0061
ENCODING 97
SWIDTH 617 0
DWIDTH 6 0
BBX 5 5 1 0
BITMAP
E0
90
F0
90
F8
ENDCHAR
STARTCHAR 0062
ENCODING 98
SWIDTH 617 0
DWIDTH 6 0
BBX 6 7 0 0
BITMAP
C0
40
78
48
4C
48
F8
ENDCHAR
STARTCHAR 0063
ENCODING 99
SWIDTH 617 0
DWIDTH 6 0
BBX 4 5 1 0
BITMAP
70
90
80
90
70
ENDCHAR
STARTCHAR 0064
ENCODING 100
SWIDTH 617 0
DWIDTH 6 0
BBX 6 7 0 0
BITMAP
18
08
78
48
C8
48
7C
ENDCHAR
STARTCHAR 0065
ENCODING 101
SWIDTH 617 0
DWIDTH 6 0
BBX 4 5 1 0
BITMAP
70
90
F0
80
F0
ENDCHAR
STARTCHAR 0066
ENCODING 102
SWIDTH 617 0
DWIDTH 6 0
BBX 4 7 1 0
BITMAP
70
40
F0
40
40
40
F0
ENDCHAR
STARTCHAR 0067
ENCODING 103
SWIDTH 617 0
DWIDTH 6 0
BBX 6 7 0 -2
BITMAP
7C
48
C8
48
78
08
70
ENDCHAR
STARTCHAR 0068
ENCODING 104
SWIDTH 617 0
DWIDTH 6 0
BBX 6 7 0 0
BITMAP
C0
40
58
68
48
48
FC
ENDCHAR
STARTCHAR 0069
ENCODING 105
SWIDTH 617 0
DWIDTH 6 0
BBX 4 7 1 0
BITMAP
60
00
E0
60
60
60
F0
ENDCHAR
STARTCHAR 006A
ENCODING 106
SWIDTH 617 0
DWIDTH 6 0
BBX 4 9 1 -2
BITMAP
30
00
F0
30
30
30
30
A0
E0
ENDCHAR
STARTCHAR 006B
ENCODING 107
SWIDTH 617 0
DWIDTH 6 0
BBX 6 7 0 0
BITMAP
C0
40
5C
58
70
58
EC
ENDCHAR
STARTCHAR 006C
ENCODING 108
SWIDTH 617 0
DWIDTH 6 0
BBX 4 7 1 0
BITMAP
E0
60
60
60
60
60
F0
ENDCHAR
STARTCHAR 006D
ENCODING 109
SWIDTH 617 0
DWIDTH 6 0
BBX 6 5 0 0
BITMAP
A8
7C
7C
7C
7C
ENDCHAR
STARTCHAR 006E
ENCODING 110
SWIDTH 617 0
DWIDTH 6 0
BBX 6 5 0 0
BITMAP
D8
68
48
48
FC
ENDCHAR
STARTCHAR 006F
ENCODING 111
SWIDTH 617 0
DWIDTH 6 0
BBX 4 5 1 0
BITMAP
F0
90
90
90
F0
ENDCHAR
STARTCHAR 0070
ENCODING 112
SWIDTH 617 0
DWIDTH 6 0
BBX 6 7 0 -2
BITMAP
F8
48
4C
48
78
40
E0
ENDCHAR
STARTCHAR 0071
ENCODING 113
SWIDTH 617 0
DWIDTH 6 0
BBX 6 7 0 -2
BITMAP
7C
48
C8
48
78
08
1C
ENDCHAR
STARTCHAR 0072
ENCODING 114
SWIDTH 617 0
DWIDTH 6 0
BBX 5 5 1 0
BITMAP
F8
60
40
40
F0
ENDCHAR
STARTCHAR 0073
ENCODING 115
SWIDTH 617 0
DWIDTH 6 0
BBX 4 5 1 0
BITMAP
F0
90
F0
90
F0
ENDCHAR
STARTCHAR 0074
ENCODING 116
SWIDTH 617 0
DWIDTH 6 0
BBX 5 6 0 0
BITMAP
20
F8
20
20
28
38
ENDCHAR
STARTCHAR 0075
ENCODING 117
SWIDTH 617 0
DWIDTH 6 0
BBX 6 5 0 0
BITMAP
D8
48
48
58
7C
ENDCHAR
STARTCHAR 0076
ENCODING 118
SWIDTH 617 0
DWIDTH 6 0
BBX 6 5 0 0
BITMAP
FC
48
78
30
30
ENDCHAR
STARTCHAR 0077
ENCODING 119
SWIDTH 617 0
DWIDTH 6 0
BBX 6 5 0 0
BITMAP
CC
EC
78
78
48
ENDCHAR
STARTCHAR 0078
ENCODING 120
SWIDTH 617 0
DWIDTH 6 0
BBX 6 5 0 0
BITMAP
FC
78
30
78
FC
ENDCHAR
STARTCHAR 0079
ENCODING 121
SWIDTH 617 0
DWIDTH 6 0
BBX 6 7 0 -2
BITMAP
FC
48
78
30
30
20
40
ENDCHAR
STARTCHAR 007A
ENCODING 122
SWIDTH 617 0
DWIDTH 6 0
BBX 4 5 1 0
BITMAP
F0
B0
60
D0
F0
ENDCHAR
STARTCHAR 007B
ENCODING 123
SWIDTH 617 0
DWIDTH 6 0
BBX 4 9 1 -2
BITMAP
30
60
40
40
C0
40
40
40
30
ENDCHAR
STARTCHAR 007C
ENCODING 124
SWIDTH 617 0
DWIDTH 6 0
BBX 2 9 2 -2
BITMAP
C0
C0
C0
C0
C0
C0
C0
C0
C0
ENDCHAR
STARTCHAR 007D
ENCODING 125
SWIDTH 617 0
DWIDTH 6 0
BBX 4 9 1 -2
BITMAP
C0
60
20
20
10
20
20
20
C0
ENDCHAR
STARTCHAR 007E
ENCODING 126
SWIDTH 617 0
DWIDTH 6 0
BBX 4 2 1 2
BITMAP
D0
B0
ENDCHAR
STARTCHAR 00A0
ENCODING 160
SWIDTH 617 0
DWIDTH 6 0
BBX 0 0 0 0
BITMAP
ENDCHAR
STARTCHAR 00A1
ENCODING 161
SWIDTH 617 0
DWIDTH 6 0
BBX 2 7 2 -2
BITMAP
C0
00
00
80
C0
C0
C0
ENDCHAR
STARTCHAR 00A2
ENCODING 162
SWIDTH 617 0
DWIDTH 6 0
BBX 4 8 1 -1
BITMAP
20
20
F0
B0
A0
D0
60
20
ENDCHAR
STARTCHAR 00A3
ENCODING 163
SWIDTH 617 0
DWIDTH 6 0
BBX 4 6 1 0
BITMAP
F0
90
F0
40
C0
F0
ENDCHAR
STARTCHAR 00A4
ENCODING 164
SWIDTH 617 0
DWIDTH 6 0
BBX 6 5 0 0
BITMAP
FC
48
48
78
CC
ENDCHAR
STARTCHAR 00A5
ENCODING 165
SWIDTH 617 0
DWIDTH 6 0
BBX 6 6 0 0
BITMAP
FC
48
30
78
30
78
ENDCHAR
STARTCHAR 00A6
ENCODING 166
SWIDTH 617 0
DWIDTH 6 0
BBX 2 9 2 -2
BITMAP
C0
C0
C0
C0
00
C0
C0
C0
C0
ENDCHAR
STARTCHAR 00A7
ENCODING 167
SWIDTH 617 0
DWIDTH 6 0
BBX 4 7 1 -1
BITMAP
70
90
E0
B0
70
B0
F0
ENDCHAR
STARTCHAR 00A8
ENCODING 168
SWIDTH 617 0
DWIDTH 6 0
BBX 4 1 1 6
BITMAP
F0
ENDCHAR
STARTCHAR 00A9
ENCODING 169
SWIDTH 617 0
DWIDTH 6 0
BBX 6 6 0 0
BITMAP
78
78
A4
C4
FC
78
ENDCHAR
STARTCHAR 00AA
ENCODING 170
SWIDTH 617 0
DWIDTH 6 0
BBX 4 4 1 2
BITMAP
E0
10
F0
F0
ENDCHAR
STARTCHAR 00AB
ENCODING 171
SWIDTH 617 0
DWIDTH 6 0
BBX 5 4 0 1
BITMAP
28
58
D8
28
ENDCHAR
STARTCHAR 00AC
ENCODING 172
SWIDTH 617 0
DWIDTH 6 0
BBX 4 3 1 1
BITMAP
F0
10
10
ENDCHAR
STARTCHAR 00AD
ENCODING 173
SWIDTH 617 0
DWIDTH 6 0
BBX 4 1 1 2
BITMAP
F0
ENDCHAR
STARTCHAR 00AE
ENCODING 174
SWIDTH 617 0
DWIDTH 6 0
BBX 4 5 1 2
BITMAP
60
F0
F0
F0
F0
ENDCHAR
STARTCHAR 00AF
ENCODING 175
SWIDTH 617 0
DWIDTH 6 0
BBX 4 1 1 6
BITMAP
F0
ENDCHAR
STARTCHAR 00B0
ENCODING 176
SWIDTH 617 0
DWIDTH 6 0
BBX 3 3 1 3
BITMAP
60
A0
E0
ENDCHAR
STARTCHAR 00B1
ENCODING 177
SWIDTH 617 0
DWIDTH 6 0
BBX 4 6 1 0
BITMAP
60
60
F0
60
00
F0
ENDCHAR
STARTCHAR 00B2
ENCODING 178
SWIDTH 617 0
DWIDTH 6 0
BBX 4 5 1 2
BITMAP
60
90
20
40
F0
ENDCHAR
STARTCHAR 00B3
ENCODING 179
SWIDTH 617 0
DWIDTH 6 0
BBX 4 5 1 2
BITMAP
E0
90
60
10
E0
ENDCHAR
STARTCHAR 00B4
ENCODING 180
SWIDTH 617 0
DWIDTH 6 0
BBX 3 2 2 5
BITMAP
60
C0
ENDCHAR
STARTCHAR 00B5
ENCODING 181
SWIDTH 617 0
DWIDTH 6 0
BBX 4 7 1 -2
BITMAP
90
90
90
B0
F0
80
80
ENDCHAR
STARTCHAR 00B6
ENCODING 182
SWIDTH 617 0
DWIDTH 6 0
BBX 6 8 0 -2
BITMAP
7C
E8
68
68
28
28
28
28
ENDCHAR
STARTCHAR 00B7
ENCODING 183
SWIDTH 617 0
DWIDTH 6 0
BBX 2 2 2 2
BITMAP
C0
C0
ENDCHAR
STARTCHAR 00B8
ENCODING 184
SWIDTH 617 0
DWIDTH 6 0
BBX 2 3 2 -2
BITMAP
80
40
C0
ENDCHAR
STARTCHAR 00B9
ENCODING 185
SWIDTH 617 0
DWIDTH 6 0
BBX 4 5 1 2
BITMAP
60
E0
20
20
F0
ENDCHAR
STARTCHAR 00BA
ENCODING 186
SWIDTH 617 0
DWIDTH 6 0
BBX 4 4 1 2
BITMAP
60
90
90
60
ENDCHAR
STARTCHAR 00BB
ENCODING 187
SWIDTH 617 0
DWIDTH 6 0
BBX 5 4 1 1
BITMAP
A0
D0
D8
A0
ENDCHAR
STARTCHAR 00BC
ENCODING 188
SWIDTH 617 0
DWIDTH 6 0
BBX 6 9 0 -1
BITMAP
40
C0
40
EC
10
6C
94
1C
04
ENDCHAR
STARTCHAR 00BD
ENCODING 189
SWIDTH 617 0
DWIDTH 6 0
BBX 6 9 0 -1
BITMAP
40
C0
40
EC
30
5C
94
08
1C
ENDCHAR
STARTCHAR 00BE
ENCODING 190
SWIDTH 617 0
DWIDTH 6 0
BBX 6 9 0 -1
BITMAP
C0
A0
40
EC
10
6C
94
1C
04
ENDCHAR
STARTCHAR 00BF
ENCODING 191
SWIDTH 617 0
DWIDTH 6 0
BBX 4 7 1 -2
BITMAP
60
00
20
60
80
90
70
ENDCHAR
STARTCHAR 00C0
ENCODING 192
SWIDTH 617 0
DWIDTH 6 0
BBX 6 8 0 0
BITMAP
60
30
70
30
78
78
48
FC
ENDCHAR
STARTCHAR 00C1
ENCODING 193
SWIDTH 617 0
DWIDTH 6 0
BBX 6 8 0 0
BITMAP
10
20
70
30
78
78
48
FC
ENDCHAR
STARTCHAR 00C2
ENCODING 194
SWIDTH 617 0
DWIDTH 6 0
BBX 6 8 0 0
BITMAP
30
58
70
30
78
78
48
FC
ENDCHAR
STARTCHAR 00C3
ENCODING 195
SWIDTH 617 0
DWIDTH 6 0
BBX 6 8 0 0
BITMAP
78
00
70
30
78
78
48
FC
ENDCHAR
STARTCHAR 00C4
ENCODING 196
SWIDTH 617 0
DWIDTH 6 0
BBX 6 8 0 0
BITMAP
58
00
70
30
78
78
48
FC
ENDCHAR
STARTCHAR 00C5
ENCODING 197
SWIDTH 617 0
DWIDTH 6 0
BBX 6 9 0 0
BITMAP
30
30
30
70
30
78
78
48
FC
ENDCHAR
STARTCHAR 00C6
ENCODING 198
SWIDTH 617 0
DWIDTH 6 0
BBX 6 6 0 0
BITMAP
7C
54
58
74
54
DC
ENDCHAR
STARTCHAR 00C7
ENCODING 199
SWIDTH 617 0
DWIDTH 6 0
BBX 6 9 0 -3
BITMAP
38
48
48
C0
40
4C
38
18
30
ENDCHAR
STARTCHAR 00C8
ENCODING 200
SWIDTH 617 0
DWIDTH 6 0
BBX 5 8 0 0
BITMAP
60
10
F8
48
70
48
48
F8
ENDCHAR
STARTCHAR 00C9
ENCODING 201
SWIDTH 617 0
DWIDTH 6 0
BBX 5 8 0 0
BITMAP
18
20
F8
48
70
48
48
F8
ENDCHAR
STARTCHAR 00CA
ENCODING 202
SWIDTH 617 0
DWIDTH 6 0
BBX 5 8 0 0
BITMAP
30
68
F8
48
70
48
48
F8
ENDCHAR
STARTCHAR 00CB
ENCODING 203
SWIDTH 617 0
DWIDTH 6 0
BBX 5 8 0 0
BITMAP
68
00
F8
48
70
48
48
F8
ENDCHAR
STARTCHAR 00CC
ENCODING 204
SWIDTH 617 0
DWIDTH 6 0
BBX 4 8 1 0
BITMAP
C0
60
F0
60
60
60
60
F0
ENDCHAR
STARTCHAR 00CD
ENCODING 205
SWIDTH 617 0
DWIDTH 6 0
BBX 4 8 1 0
BITMAP
30
60
F0
60
60
60
60
F0
ENDCHAR
STARTCHAR 00CE
ENCODING 206
SWIDTH 617 0
DWIDTH 6 0
BBX 4 8 1 0
BITMAP
60
F0
F0
60
60
60
60
F0
ENDCHAR
STARTCHAR 00CF
ENCODING 207
SWIDTH 617 0
DWIDTH 6 0
BBX 4 8 1 0
BITMAP
F0
00
F0
60
60
60
60
F0
ENDCHAR
STARTCHAR 00D0
ENCODING 208
SWIDTH 617 0
DWIDTH 6 0
BBX 6 6 0 0
BITMAP
F8
48
EC
4C
48
F8
ENDCHAR
STARTCHAR 00D1
ENCODING 209
SWIDTH 617 0
DWIDTH 6 0
BBX 6 8 0 0
BITMAP
78
00
DC
68
78
58
58
E8
ENDCHAR
STARTCHAR 00D2
ENCODING 210
SWIDTH 617 0
DWIDTH 6 0
BBX 6 8 0 0
BITMAP
60
10
78
48
CC
CC
48
78
ENDCHAR
STARTCHAR 00D3
ENCODING 211
SWIDTH 617 0
DWIDTH 6 0
BBX 6 8 0 0
BITMAP
18
20
78
48
CC
CC
48
78
ENDCHAR
STARTCHAR 00D4
ENCODING 212
SWIDTH 617 0
DWIDTH 6 0
BBX 6 8 0 0
BITMAP
30
78
78
48
CC
CC
48
78
ENDCHAR
STARTCHAR 00D5
ENCODING 213
SWIDTH 617 0
DWIDTH 6 0
BBX 6 8 0 0
BITMAP
78
00
78
48
CC
CC
48
78
ENDCHAR
STARTCHAR 00D6
ENCODING 214
SWIDTH 617 0
DWIDTH 6 0
BBX 6 8 0 0
BITMAP
78
00
78
48
CC
CC
48
78
ENDCHAR
STARTCHAR 00D7
ENCODING 215
SWIDTH 617 0
DWIDTH 6 0
BBX 4 4 1 1
BITMAP
90
60
60
90
ENDCHAR
STARTCHAR 00D8
ENCODING 216
SWIDTH 617 0
DWIDTH 6 0
BBX 6 7 0 0
BITMAP
04
78
48
DC
EC
48
F8
ENDCHAR
STARTCHAR 00D9
ENCODING 217
SWIDTH 617 0
DWIDTH 6 0
BBX 6 8 0 0
BITMAP
60
30
FC
48
48
48
48
78
ENDCHAR
STARTCHAR 00DA
ENCODING 218
SWIDTH 617 0
DWIDTH 6 0
BBX 6 8 0 0
BITMAP
18
30
FC
48
48
48
48
78
ENDCHAR
STARTCHAR 00DB
ENCODING 219
SWIDTH 617 0
DWIDTH 6 0
BBX 6 8 0 0
BITMAP
30
78
FC
48
48
48
48
78
ENDCHAR
STARTCHAR 00DC
ENCODING 220
SWIDTH 617 0
DWIDTH 6 0
BBX 6 8 0 0
BITMAP
78
00
FC
48
48
48
48
78
ENDCHAR
STARTCHAR 00DD
ENCODING 221
SWIDTH 617 0
DWIDTH 6 0
BBX 6 8 0 0
BITMAP
18
30
FC
48
30
30
30
78
ENDCHAR
STARTCHAR 00DE
ENCODING 222
SWIDTH 617 0
DWIDTH 6 0
BBX 4 6 1 0
BITMAP
E0
70
50
70
40
E0
ENDCHAR
STARTCHAR 00DF
ENCODING 223
SWIDTH 617 0
DWIDTH 6 0
BBX 5 7 0 0
BITMAP
30
48
48
58
48
48
D8
ENDCHAR
STARTCHAR 00E0
ENCODING 224
SWIDTH 617 0
DWIDTH 6 0
BBX 5 7 1 0
BITMAP
40
20
E0
90
F0
90
F8
ENDCHAR
STARTCHAR 00E1
ENCODING 225
SWIDTH 617 0
DWIDTH 6 0
BBX 5 7 1 0
BITMAP
20
40
E0
90
F0
90
F8
ENDCHAR
STARTCHAR 00E2
ENCODING 226
SWIDTH 617 0
DWIDTH 6 0
BBX 5 7 1 0
BITMAP
60
F0
E0
90
F0
90
F8
ENDCHAR
STARTCHAR 00E3
ENCODING 227
SWIDTH 617 0
DWIDTH 6 0
BBX 5 7 1 0
BITMAP
F0
00
E0
90
F0
90
F8
ENDCHAR
STARTCHAR 00E4
ENCODING 228
SWIDTH 617 0
DWIDTH 6 0
BBX 5 7 1 0
BITMAP
F0
00
E0
90
F0
90
F8
ENDCHAR
STARTCHAR 00E5
ENCODING 229
SWIDTH 617 0
DWIDTH 6 0
BBX 5 8 1 0
BITMAP
60
60
60
E0
90
F0
90
F8
ENDCHAR
STARTCHAR 00E6
ENCODING 230
SWIDTH 617 0
DWIDTH 6 0
BBX 6 5 0 0
BITMAP
F8
B4
7C
B0
FC
ENDCHAR
STARTCHAR 00E7
ENCODING 231
SWIDTH 617 0
DWIDTH 6 0
BBX 4 7 1 -2
BITMAP
F0
90
80
90
60
60
60
ENDCHAR
STARTCHAR 00E8
ENCODING 232
SWIDTH 617 0
DWIDTH 6 0
BBX 4 7 1 0
BITMAP
40
20
70
90
F0
80
F0
ENDCHAR
STARTCHAR 00E9
ENCODING 233
SWIDTH 617 0
DWIDTH 6 0
BBX 4 7 1 0
BITMAP
30
40
70
90
F0
80
F0
ENDCHAR
STARTCHAR 00EA
ENCODING 234
SWIDTH 617 0
DWIDTH 6 0
BBX 4 7 1 0
BITMAP
60
F0
70
90
F0
80
F0
ENDCHAR
STARTCHAR 00EB
ENCODING 235
SWIDTH 617 0
DWIDTH 6 0
BBX 4 7 1 0
BITMAP
F0
00
70
90
F0
80
F0
ENDCHAR
STARTCHAR 00EC
ENCODING 236
SWIDTH 617 0
DWIDTH 6 0
BBX 4 7 1 0
BITMAP
C0
60
E0
60
60
60
F0
ENDCHAR
STARTCHAR 00ED
ENCODING 237
SWIDTH 617 0
DWIDTH 6 0
BBX 4 7 1 0
BITMAP
20
40
E0
60
60
60
F0
ENDCHAR
STARTCHAR 00EE
ENCODING 238
SWIDTH 617 0
DWIDTH 6 0
BBX 4 7 1 0
BITMAP
60
F0
E0
60
60
60
F0
ENDCHAR
STARTCHAR 00EF
ENCODING 239
SWIDTH 617 0
DWIDTH 6 0
BBX 4 7 1 0
BITMAP
F0
00
E0
60
60
60
F0
ENDCHAR
STARTCHAR 00F0
ENCODING 240
SWIDTH 617 0
DWIDTH 6 0
BBX 4 7 1 0
BITMAP
70
60
F0
90
90
90
F0
ENDCHAR
STARTCHAR 00F1
ENCODING 241
SWIDTH 617 0
DWIDTH 6 0
BBX 6 7 0 0
BITMAP
78
00
D8
68
48
48
FC
ENDCHAR
STARTCHAR 00F2
ENCODING 242
SWIDTH 617 0
DWIDTH 6 0
BBX 4 7 1 0
BITMAP
C0
20
F0
90
90
90
F0
ENDCHAR
STARTCHAR 00F3
ENCODING 243
SWIDTH 617 0
DWIDTH 6 0
BBX 4 7 1 0
BITMAP
30
40
F0
90
90
90
F0
ENDCHAR
STARTCHAR 00F4
ENCODING 244
SWIDTH 617 0
DWIDTH 6 0
BBX 4 7 1 0
BITMAP
60
F0
F0
90
90
90
F0
ENDCHAR
STARTCHAR 00F5
ENCODING 245
SWIDTH 617 0
DWIDTH 6 0
BBX 4 7 1 0
BITMAP
F0
00
F0
90
90
90
F0
ENDCHAR
STARTCHAR 00F6
ENCODING 246
SWIDTH 617 0
DWIDTH 6 0
BBX 4 7 1 0
BITMAP
F0
00
F0
90
90
90
F0
ENDCHAR
STARTCHAR 00F7
ENCODING 247
SWIDTH 617 0
DWIDTH 6 0
BBX 4 5 1 1
BITMAP
60
00
F0
00
60
ENDCHAR
STARTCHAR 00F8
ENCODING 248
SWIDTH 617 0
DWIDTH 6 0
BBX 6 6 0 0
BITMAP
04
78
58
78
68
F8
ENDCHAR
STARTCHAR 00F9
ENCODING 249
SWIDTH 617 0
DWIDTH 6 0
BBX 6 7 0 0
BITMAP
60
10
D8
48
48
58
7C
ENDCHAR
STARTCHAR 00FA
ENCODING 250
SWIDTH 617 0
DWIDTH 6 0
BBX 6 7 0 0
BITMAP
18
20
D8
48
48
58
7C
ENDCHAR
STARTCHAR 00FB
ENCODING 251
SWIDTH 617 0
DWIDTH 6 0
BBX 6 7 0 0
BITMAP
30
78
D8
48
48
58
7C
ENDCHAR
STARTCHAR 00FC
ENCODING 252
SWIDTH 617 0
DWIDTH 6 0
BBX 6 7 0 0
BITMAP
58
00
D8
48
48
58
7C
ENDCHAR
STARTCHAR 00FD
ENCODING 253
SWIDTH 617 0
DWIDTH 6 0
BBX 6 9 0 -2
BITMAP
18
30
FC
48
78
30
30
20
40
ENDCHAR
STARTCHAR 00FE
ENCODING 254
SWIDTH 617 0
DWIDTH 6 0
BBX 6 9 0 -2
BITMAP
C0
40
78
48
4C
48
78
40
E0
ENDCHAR
STARTCHAR 00FF
ENCODING 255
SWIDTH 617 0
DWIDTH 6 0
BBX 6 9 0 -2
BITMAP
78
00
FC
48
78
30
30
20
40
ENDCHAR
STARTCHAR 0100
ENCODING 256
SWIDTH 617 0
DWIDTH 6 0
BBX 6 8 0 0
BITMAP
70
00
70
30
78
78
48
FC
ENDCHAR
STARTCHAR 0101
ENCODING 257
SWIDTH 617 0
DWIDTH 6 0
BBX 5 7 1 0
BITMAP
F0
00
E0
90
F0
90
F8
ENDCHAR
STARTCHAR 0102
ENCODING 258
SWIDTH 617 0
DWIDTH 6 0
BBX 6 9 0 0
BITMAP
48
30
00
70
30
78
78
48
FC
ENDCHAR
STARTCHAR 0103
ENCODING 259
SWIDTH 617 0
DWIDTH 6 0
BBX 5 8 1 0
BITMAP
90
60
00
E0
90
F0
90
F8
ENDCHAR
STARTCHAR 0104
ENCODING 260
SWIDTH 617 0
DWIDTH 6 0
BBX 6 8 0 -2
BITMAP
70
30
78
78
48
FC
08
1C
ENDCHAR
STARTCHAR 0105
ENCODING 261
SWIDTH 617 0
DWIDTH 6 0
BBX 5 7 1 -2
BITMAP
E0
90
F0
90
F8
10
38
ENDCHAR
STARTCHAR 0106
ENCODING 262
SWIDTH 617 0
DWIDTH 6 0
BBX 6 8 0 0
BITMAP
18
30
38
48
48
C0
48
3C
ENDCHAR
STARTCHAR 0107
ENCODING 263
SWIDTH 617 0
DWIDTH 6 0
BBX 4 7 1 0
BITMAP
30
40
70
90
80
90
70
ENDCHAR
STARTCHAR 0108
ENCODING 264
SWIDTH 617 0
DWIDTH 6 0
BBX 6 8 0 0
BITMAP
30
68
38
48
48
C0
48
3C
ENDCHAR
STARTCHAR 0109
ENCODING 265
SWIDTH 617 0
DWIDTH 6 0
BBX 4 7 1 0
BITMAP
60
F0
70
90
80
90
70
ENDCHAR
STARTCHAR 010A
ENCODING 266
SWIDTH 617 0
DWIDTH 6 0
BBX 6 8 0 0
BITMAP
10
00
38
48
48
C0
48
3C
ENDCHAR
STARTCHAR 010B
ENCODING 267
SWIDTH 617 0
DWIDTH 6 0
BBX 4 7 1 0
BITMAP
60
00
70
90
80
90
70
ENDCHAR
STARTCHAR 010C
ENCODING 268
SWIDTH 617 0
DWIDTH 6 0
BBX 6 8 0 0
BITMAP
68
30
38
48
48
C0
48
3C
ENDCHAR
STARTCHAR 010D
ENCODING 269
SWIDTH 617 0
DWIDTH 6 0
BBX 4 7 1 0
BITMAP
F0
60
70
90
80
90
70
ENDCHAR
STARTCHAR 010E
ENCODING 270
SWIDTH 617 0
DWIDTH 6 0
BBX 6 8 0 0
BITMAP
58
30
F8
48
4C
4C
48
F8
ENDCHAR
STARTCHAR 010F
ENCODING 271
SWIDTH 617 0
DWIDTH 6 0
BBX 7 7 0 0
BITMAP
3E
1C
7C
58
D8
58
78
ENDCHAR
STARTCHAR 0110
ENCODING 272
SWIDTH 617 0
DWIDTH 6 0
BBX 6 6 0 0
BITMAP
F8
48
FC
4C
48
F8
ENDCHAR
STARTCHAR 0111
ENCODING 273
SWIDTH 617 0
DWIDTH 6 0
BBX 5 7 1 0
BITMAP
10
78
10
F0
90
90
F8
ENDCHAR
STARTCHAR 0112
ENCODING 274
SWIDTH 617 0
DWIDTH 6 0
BBX 5 8 0 0
BITMAP
78
00
F8
48
70
48
48
F8
ENDCHAR
STARTCHAR 0113
ENCODING 275
SWIDTH 617 0
DWIDTH 6 0
BBX 4 7 1 0
BITMAP
F0
00
70
90
F0
80
F0
ENDCHAR
STARTCHAR 0114
ENCODING 276
SWIDTH 617 0
DWIDTH 6 0
BBX 5 9 0 0
BITMAP
48
30
00
F8
48
70
48
48
F8
ENDCHAR
STARTCHAR 0115
ENCODING 277
SWIDTH 617 0
DWIDTH 6 0
BBX 4 8 1 0
BITMAP
90
60
00
70
90
F0
80
F0
ENDCHAR
STARTCHAR 0116
ENCODING 278
SWIDTH 617 0
DWIDTH 6 0
BBX 5 8 0 0
BITMAP
30
00
F8
48
70
48
48
F8
ENDCHAR
STARTCHAR 0117
ENCODING 279
SWIDTH 617 0
DWIDTH 6 0
BBX 4 7 1 0
BITMAP
60
00
70
90
F0
80
F0
ENDCHAR
STARTCHAR 0118
ENCODING 280
SWIDTH 617 0
DWIDTH 6 0
BBX 6 8 0 -2
BITMAP
F8
48
70
48
48
F8
10
1C
ENDCHAR
STARTCHAR 0119
ENCODING 281
SWIDTH 617 0
DWIDTH 6 0
BBX 4 7 1 -2
BITMAP
70
90
F0
80
F0
20
30
ENDCHAR
STARTCHAR 011A
ENCODING 282
SWIDTH 617 0
DWIDTH 6 0
BBX 5 8 0 0
BITMAP
78
30
F8
48
70
48
48
F8
ENDCHAR
STARTCHAR 011B
ENCODING 283
SWIDTH 617 0
DWIDTH 6 0
BBX 4 7 1 0
BITMAP
F0
60
70
90
F0
80
F0
ENDCHAR
STARTCHAR 011C
ENCODING 284
SWIDTH 617 0
DWIDTH 6 0
BBX 6 8 0 0
BITMAP
30
68
78
48
C0
DC
48
78
ENDCHAR
STARTCHAR 011D
ENCODING 285
SWIDTH 617 0
DWIDTH 6 0
BBX 6 9 0 -2
BITMAP
30
78
7C
48
C8
48
78
08
70
ENDCHAR
STARTCHAR 011E
ENCODING 286
SWIDTH 617 0
DWIDTH 6 0
BBX 6 9 0 0
BITMAP
48
30
00
78
48
C0
DC
48
78
ENDCHAR
STARTCHAR 011F
ENCODING 287
SWIDTH 617 0
DWIDTH 6 0
BBX 6 10 0 -2
BITMAP
48
30
00
7C
48
C8
48
78
08
70
ENDCHAR
STARTCHAR 0120
ENCODING 288
SWIDTH 617 0
DWIDTH 6 0
BBX 6 8 0 0
BITMAP
30
00
78
48
C0
DC
48
78
ENDCHAR
STARTCHAR 0121
ENCODING 289
SWIDTH 617 0
DWIDTH 6 0
BBX 6 9 0 -2
BITMAP
30
00
7C
48
C8
48
78
08
70
ENDCHAR
STARTCHAR 0122
ENCODING 290
SWIDTH 617 0
DWIDTH 6 0
BBX 6 9 0 -3
BITMAP
78
48
C0
DC
48
78
00
30
20
ENDCHAR
STARTCHAR 0123
ENCODING 291
SWIDTH 617 0
DWIDTH 6 0
BBX 6 10 0 -2
BITMAP
10
30
00
7C
48
C8
48
78
08
70
ENDCHAR
STARTCHAR 0124
ENCODING 292
SWIDTH 617 0
DWIDTH 6 0
BBX 6 8 0 0
BITMAP
30
78
FC
48
78
48
48
FC
ENDCHAR
STARTCHAR 0125
ENCODING 293
SWIDTH 617 0
DWIDTH 6 0
BBX 6 9 0 0
BITMAP
30
78
C0
40
58
68
48
48
FC
ENDCHAR
STARTCHAR 0126
ENCODING 294
SWIDTH 617 0
DWIDTH 6 0
BBX 6 6 0 0
BITMAP
FC
FC
78
48
48
FC
ENDCHAR
STARTCHAR 0127
ENCODING 295
SWIDTH 617 0
DWIDTH 6 0
BBX 6 7 0 0
BITMAP
40
F0
40
58
68
48
FC
ENDCHAR
STARTCHAR 0128
ENCODING 296
SWIDTH 617 0
DWIDTH 6 0
BBX 4 8 1 0
BITMAP
F0
00
F0
60
60
60
60
F0
ENDCHAR
STARTCHAR 0129
ENCODING 297
SWIDTH 617 0
DWIDTH 6 0
BBX 4 7 1 0
BITMAP
F0
00
E0
60
60
60
F0
ENDCHAR
STARTCHAR 012A
ENCODING 298
SWIDTH 617 0
DWIDTH 6 0
BBX 4 8 1 0
BITMAP
F0
00
F0
60
60
60
60
F0
ENDCHAR
STARTCHAR 012B
ENCODING 299
SWIDTH 617 0
DWIDTH 6 0
BBX 4 7 1 0
BITMAP
F0
00
E0
60
60
60
F0
ENDCHAR
STARTCHAR 012C
ENCODING 300
SWIDTH 617 0
DWIDTH 6 0
BBX 4 9 1 0
BITMAP
90
60
00
F0
60
60
60
60
F0
ENDCHAR
STARTCHAR 012D
ENCODING 301
SWIDTH 617 0
DWIDTH 6 0
BBX 4 8 1 0
BITMAP
90
60
00
E0
60
60
60
F0
ENDCHAR
STARTCHAR 012E
ENCODING 302
SWIDTH 617 0
DWIDTH 6 0
BBX 4 8 1 -2
BITMAP
F0
60
60
60
60
F0
40
60
ENDCHAR
STARTCHAR 012F
ENCODING 303
SWIDTH 617 0
DWIDTH 6 0
BBX 4 9 1 -2
BITMAP
60
00
E0
60
60
60
F0
40
60
ENDCHAR
STARTCHAR 0130
ENCODING 304
SWIDTH 617 0
DWIDTH 6 0
BBX 4 8 1 0
BITMAP
60
00
F0
60
60
60
60
F0
ENDCHAR
STARTCHAR 0131
ENCODING 305
SWIDTH 617 0
DWIDTH 6 0
BBX 4 5 1 0
BITMAP
E0
60
60
60
F0
ENDCHAR
STARTCHAR 0132
ENCODING 306
SWIDTH 617 0
DWIDTH 6 0
BBX 6 6 0 0
BITMAP
DC
CC
CC
DC
FC
F8
ENDCHAR
STARTCHAR 0133
ENCODING 307
SWIDTH 617 0
DWIDTH 6 0
BBX 5 9 0 -2
BITMAP
48
00
D8
48
48
48
E8
08
38
ENDCHAR
STARTCHAR 0134
ENCODING 308
SWIDTH 617 0
DWIDTH 6 0
BBX 6 8 0 0
BITMAP
18
2C
3C
18
18
D8
D8
70
ENDCHAR
STARTCHAR 0135
ENCODING 309
SWIDTH 617 0
DWIDTH 6 0
BBX 4 9 1 -2
BITMAP
20
50
F0
30
30
30
30
A0
E0
ENDCHAR
STARTCHAR 0136
ENCODING 310
SWIDTH 617 0
DWIDTH 6 0
BBX 6 9 0 -3
BITMAP
FC
48
70
78
48
EC
00
30
20
ENDCHAR
STARTCHAR 0137
ENCODING 311
SWIDTH 617 0
DWIDTH 6 0
BBX 6 10 0 -3
BITMAP
C0
40
5C
58
70
58
EC
00
30
20
ENDCHAR
STARTCHAR 0139
ENCODING 313
SWIDTH 617 0
DWIDTH 6 0
BBX 5 8 0 0
BITMAP
30
60
F0
60
60
68
68
F8
ENDCHAR
STARTCHAR 013A
ENCODING 314
SWIDTH 617 0
DWIDTH 6 0
BBX 4 9 1 0
BITMAP
30
40
E0
60
60
60
60
60
F0
ENDCHAR
STARTCHAR 013B
ENCODING 315
SWIDTH 617 0
DWIDTH 6 0
BBX 5 9 0 -3
BITMAP
F0
60
60
68
68
F8
00
30
20
ENDCHAR
STARTCHAR 013C
ENCODING 316
SWIDTH 617 0
DWIDTH 6 0
BBX 4 10 1 -3
BITMAP
E0
60
60
60
60
60
F0
00
60
40
ENDCHAR
STARTCHAR 013D
ENCODING 317
SWIDTH 617 0
DWIDTH 6 0
BBX 6 6 0 0
BITMAP
F4
6C
68
68
68
F8
ENDCHAR
STARTCHAR 013E
ENCODING 318
SWIDTH 617 0
DWIDTH 6 0
BBX 5 7 1 0
BITMAP
C8
58
50
40
40
40
F0
ENDCHAR
STARTCHAR 013F
ENCODING 319
SWIDTH 617 0
DWIDTH 6 0
BBX 5 6 0 0
BITMAP
F0
78
78
68
68
F8
ENDCHAR
STARTCHAR 0140
ENCODING 320
SWIDTH 617 0
DWIDTH 6 0
BBX 5 7 1 0
BITMAP
C0
40
58
40
40
40
F0
ENDCHAR
STARTCHAR 0141
ENCODING 321
SWIDTH 617 0
DWIDTH 6 0
BBX 5 6 0 0
BITMAP
F0
70
60
E8
68
F8
ENDCHAR
STARTCHAR 0142
ENCODING 322
SWIDTH 617 0
DWIDTH 6 0
BBX 4 7 1 0
BITMAP
E0
60
70
60
E0
60
F0
ENDCHAR
STARTCHAR 0143
ENCODING 323
SWIDTH 617 0
DWIDTH 6 0
BBX 6 8 0 0
BITMAP
18
20
DC
68
78
58
58
E8
ENDCHAR
STARTCHAR 0144
ENCODING 324
SWIDTH 617 0
DWIDTH 6 0
BBX 6 7 0 0
BITMAP
18
20
D8
68
48
48
FC
ENDCHAR
STARTCHAR 0145
ENCODING 325
SWIDTH 617 0
DWIDTH 6 0
BBX 6 9 0 -3
BITMAP
DC
68
78
58
58
E8
00
30
20
ENDCHAR
STARTCHAR 0146
ENCODING 326
SWIDTH 617 0
DWIDTH 6 0
BBX 6 8 0 -3
BITMAP
D8
68
48
48
FC
00
30
20
ENDCHAR
STARTCHAR 0147
ENCODING 327
SWIDTH 617 0
DWIDTH 6 0
BBX 6 8 0 0
BITMAP
78
30
DC
68
78
58
58
E8
ENDCHAR
STARTCHAR 0148
ENCODING 328
SWIDTH 617 0
DWIDTH 6 0
BBX 6 7 0 0
BITMAP
78
30
D8
68
48
48
FC
ENDCHAR
STARTCHAR 014A
ENCODING 330
SWIDTH 617 0
DWIDTH 6 0
BBX 6 8 0 -2
BITMAP
DC
68
78
58
58
E8
08
38
ENDCHAR
STARTCHAR 014B
ENCODING 331
SWIDTH 617 0
DWIDTH 6 0
BBX 5 7 0 -2
BITMAP
D8
68
48
48
68
08
38
ENDCHAR
STARTCHAR 014C
ENCODING 332
SWIDTH 617 0
DWIDTH 6 0
BBX 6 8 0 0
BITMAP
78
00
78
48
CC
CC
48
78
ENDCHAR
STARTCHAR 014D
ENCODING 333
SWIDTH 617 0
DWIDTH 6 0
BBX 4 7 1 0
BITMAP
F0
00
F0
90
90
90
F0
ENDCHAR
STARTCHAR 014E
ENCODING 334
SWIDTH 617 0
DWIDTH 6 0
BBX 6 9 0 0
BITMAP
48
30
00
78
48
CC
CC
48
78
ENDCHAR
STARTCHAR 014F
ENCODING 335
SWIDTH 617 0
DWIDTH 6 0
BBX 4 8 1 0
BITMAP
90
60
00
F0
90
90
90
F0
ENDCHAR
STARTCHAR 0150
ENCODING 336
SWIDTH 617 0
DWIDTH 6 0
BBX 6 8 0 0
BITMAP
3C
68
78
48
CC
CC
48
78
ENDCHAR
STARTCHAR 0151
ENCODING 337
SWIDTH 617 0
DWIDTH 6 0
BBX 5 7 1 0
BITMAP
78
D0
F0
90
90
90
F0
ENDCHAR
STARTCHAR 0152
ENCODING 338
SWIDTH 617 0
DWIDTH 6 0
BBX 6 6 0 0
BITMAP
7C
54
D8
D0
54
7C
ENDCHAR
STARTCHAR 0153
ENCODING 339
SWIDTH 617 0
DWIDTH 6 0
BBX 6 5 0 0
BITMAP
78
B4
BC
B0
7C
ENDCHAR
STARTCHAR 0154
ENCODING 340
SWIDTH 617 0
DWIDTH 6 0
BBX 6 8 0 0
BITMAP
18
20
F8
48
78
58
48
EC
ENDCHAR
STARTCHAR 0155
ENCODING 341
SWIDTH 617 0
DWIDTH 6 0
BBX 5 7 1 0
BITMAP
30
60
F8
60
40
40
F0
ENDCHAR
STARTCHAR 0156
ENCODING 342
SWIDTH 617 0
DWIDTH 6 0
BBX 6 9 0 -3
BITMAP
F8
48
78
58
48
EC
00
30
20
ENDCHAR
STARTCHAR 0157
ENCODING 343
SWIDTH 617 0
DWIDTH 6 0
BBX 5 8 1 -3
BITMAP
F8
60
40
40
F0
00
40
40
ENDCHAR
STARTCHAR 0158
ENCODING 344
SWIDTH 617 0
DWIDTH 6 0
BBX 6 8 0 0
BITMAP
58
30
F8
48
78
58
48
EC
ENDCHAR
STARTCHAR 0159
ENCODING 345
SWIDTH 617 0
DWIDTH 6 0
BBX 5 7 1 0
BITMAP
D0
60
F8
60
40
40
F0
ENDCHAR
STARTCHAR 015A
ENCODING 346
SWIDTH 617 0
DWIDTH 6 0
BBX 4 8 1 0
BITMAP
30
40
F0
90
E0
30
90
F0
ENDCHAR
STARTCHAR 015B
ENCODING 347
SWIDTH 617 0
DWIDTH 6 0
BBX 4 7 1 0
BITMAP
30
40
F0
90
F0
90
F0
ENDCHAR
STARTCHAR 015C
ENCODING 348
SWIDTH 617 0
DWIDTH 6 0
BBX 4 8 1 0
BITMAP
60
F0
F0
90
E0
30
90
F0
ENDCHAR
STARTCHAR 015D
ENCODING 349
SWIDTH 617 0
DWIDTH 6 0
BBX 4 7 1 0
BITMAP
60
F0
F0
90
F0
90
F0
ENDCHAR
STARTCHAR 015E
ENCODING 350
SWIDTH 617 0
DWIDTH 6 0
BBX 4 8 1 -2
BITMAP
F0
90
E0
30
90
F0
30
60
ENDCHAR
STARTCHAR 015F
ENCODING 351
SWIDTH 617 0
DWIDTH 6 0
BBX 4 7 1 -2
BITMAP
F0
80
F0
10
F0
20
70
ENDCHAR
STARTCHAR 0160
ENCODING 352
SWIDTH 617 0
DWIDTH 6 0
BBX 4 8 1 0
BITMAP
F0
60
F0
90
E0
30
90
F0
ENDCHAR
STARTCHAR 0161
ENCODING 353
SWIDTH 617 0
DWIDTH 6 0
BBX 4 7 1 0
BITMAP
F0
60
F0
90
F0
90
F0
ENDCHAR
STARTCHAR 0162
ENCODING 354
SWIDTH 617 0
DWIDTH 6 0
BBX 6 8 0 -2
BITMAP
FC
FC
B4
30
30
78
18
30
ENDCHAR
STARTCHAR 0163
ENCODING 355
SWIDTH 617 0
DWIDTH 6 0
BBX 5 8 0 -2
BITMAP
20
F8
20
20
28
38
18
38
ENDCHAR
STARTCHAR 0164
ENCODING 356
SWIDTH 617 0
DWIDTH 6 0
BBX 6 8 0 0
BITMAP
78
30
FC
FC
B4
30
30
78
ENDCHAR
STARTCHAR 0165
ENCODING 357
SWIDTH 617 0
DWIDTH 6 0
BBX 5 7 0 0
BITMAP
08
28
F8
20
20
28
38
ENDCHAR
STARTCHAR 0166
ENCODING 358
SWIDTH 617 0
DWIDTH 6 0
BBX 6 6 0 0
BITMAP
FC
FC
B8
78
30
78
ENDCHAR
STARTCHAR 0167
ENCODING 359
SWIDTH 617 0
DWIDTH 6 0
BBX 5 6 0 0
BITMAP
20
F8
20
70
28
38
ENDCHAR
STARTCHAR 0168
ENCODING 360
SWIDTH 617 0
DWIDTH 6 0
BBX 6 8 0 0
BITMAP
78
00
FC
48
48
48
48
78
ENDCHAR
STARTCHAR 0169
ENCODING 361
SWIDTH 617 0
DWIDTH 6 0
BBX 6 7 0 0
BITMAP
78
00
D8
48
48
58
7C
ENDCHAR
STARTCHAR 016A
ENCODING 362
SWIDTH 617 0
DWIDTH 6 0
BBX 6 8 0 0
BITMAP
78
00
FC
48
48
48
48
78
ENDCHAR
STARTCHAR 016B
ENCODING 363
SWIDTH 617 0
DWIDTH 6 0
BBX 6 7 0 0
BITMAP
78
00
D8
48
48
58
7C
ENDCHAR
STARTCHAR 016C
ENCODING 364
SWIDTH 617 0
DWIDTH 6 0
BBX 6 9 0 0
BITMAP
48
30
00
FC
48
48
48
48
78
ENDCHAR
STARTCHAR 016D
ENCODING 365
SWIDTH 617 0
DWIDTH 6 0
BBX 6 8 0 0
BITMAP
48
30
00
D8
48
48
58
7C
ENDCHAR
STARTCHAR 016E
ENCODING 366
SWIDTH 617 0
DWIDTH 6 0
BBX 6 9 0 0
BITMAP
30
30
30
FC
48
48
48
48
78
ENDCHAR
STARTCHAR 016F
ENCODING 367
SWIDTH 617 0
DWIDTH 6 0
BBX 6 8 0 0
BITMAP
30
50
30
D8
48
48
58
7C
ENDCHAR
STARTCHAR 0170
ENCODING 368
SWIDTH 617 0
DWIDTH 6 0
BBX 6 8 0 0
BITMAP
3C
68
FC
48
48
48
48
78
ENDCHAR
STARTCHAR 0171
ENCODING 369
SWIDTH 617 0
DWIDTH 6 0
BBX 6 7 0 0
BITMAP
28
50
D8
48
48
58
7C
ENDCHAR
STARTCHAR 0172
ENCODING 370
SWIDTH 617 0
DWIDTH 6 0
BBX 6 8 0 -2
BITMAP
FC
48
48
48
48
70
20
38
ENDCHAR
STARTCHAR 0173
ENCODING 371
SWIDTH 617 0
DWIDTH 6 0
BBX 6 7 0 -2
BITMAP
D8
48
48
58
7C
08
1C
ENDCHAR
STARTCHAR 0174
ENCODING 372
SWIDTH 617 0
DWIDTH 6 0
BBX 6 8 0 0
BITMAP
30
78
CC
C8
78
78
78
48
ENDCHAR
STARTCHAR 0175
ENCODING 373
SWIDTH 617 0
DWIDTH 6 0
BBX 6 7 0 0
BITMAP
30
78
CC
EC
78
78
48
ENDCHAR
STARTCHAR 0176
ENCODING 374
SWIDTH 617 0
DWIDTH 6 0
BBX 6 8 0 0
BITMAP
30
78
FC
48
30
30
30
78
ENDCHAR
STARTCHAR 0177
ENCODING 375
SWIDTH 617 0
DWIDTH 6 0
BBX 6 9 0 -2
BITMAP
30
68
FC
48
78
30
30
20
40
ENDCHAR
STARTCHAR 0178
ENCODING 376
SWIDTH 617 0
DWIDTH 6 0
BBX 6 8 0 0
BITMAP
78
00
FC
48
30
30
30
78
ENDCHAR
STARTCHAR 0179
ENCODING 377
SWIDTH 617 0
DWIDTH 6 0
BBX 4 8 1 0
BITMAP
30
40
F0
B0
20
50
D0
F0
ENDCHAR
STARTCHAR 017A
ENCODING 378
SWIDTH 617 0
DWIDTH 6 0
BBX 4 7 1 0
BITMAP
30
40
F0
B0
60
D0
F0
ENDCHAR
STARTCHAR 017B
ENCODING 379
SWIDTH 617 0
DWIDTH 6 0
BBX 4 8 1 0
BITMAP
60
00
F0
B0
20
50
D0
F0
ENDCHAR
STARTCHAR 017C
ENCODING 380
SWIDTH 617 0
DWIDTH 6 0
BBX 4 7 1 0
BITMAP
60
00
F0
B0
60
D0
F0
ENDCHAR
STARTCHAR 017D
ENCODING 381
SWIDTH 617 0
DWIDTH 6 0
BBX 4 8 1 0
BITMAP
F0
60
F0
B0
20
50
D0
F0
ENDCHAR
STARTCHAR 017E
ENCODING 382
SWIDTH 617 0
DWIDTH 6 0
BBX 4 7 1 0
BITMAP
F0
60
F0
B0
60
D0
F0
ENDCHAR
STARTCHAR 0192
ENCODING 402
SWIDTH 617 0
DWIDTH 6 0
BBX 6 8 0 -1
BITMAP
1C
30
78
20
20
20
20
E0
ENDCHAR
STARTCHAR 0218
ENCODING 536
SWIDTH 617 0
DWIDTH 6 0
BBX 4 9 1 -3
BITMAP
F0
90
E0
30
90
F0
00
60
40
ENDCHAR
STARTCHAR 0219
ENCODING 537
SWIDTH 617 0
DWIDTH 6 0
BBX 4 8 1 -3
BITMAP
F0
90
F0
90
F0
00
60
40
ENDCHAR
STARTCHAR 021A
ENCODING 538
SWIDTH 617 0
DWIDTH 6 0
BBX 6 9 0 -3
BITMAP
FC
FC
B4
30
30
78
00
30
20
ENDCHAR
STARTCHAR 021B
ENCODING 539
SWIDTH 617 0
DWIDTH 6 0
BBX 5 9 0 -3
BITMAP
20
F8
20
20
28
38
00
10
20
ENDCHAR
STARTCHAR 0237
ENCODING 567
SWIDTH 617 0
DWIDTH 6 0
BBX 4 7 1 -2
BITMAP
F0
30
30
30
30
A0
E0
ENDCHAR
STARTCHAR 02C6
ENCODING 710
SWIDTH 617 0
DWIDTH 6 0
BBX 4 2 1 5
BITMAP
60
F0
ENDCHAR
STARTCHAR 02C7
ENCODING 711
SWIDTH 617 0
DWIDTH 6 0
BBX 4 2 1 5
BITMAP
F0
60
ENDCHAR
STARTCHAR 02D8
ENCODING 728
SWIDTH 617 0
DWIDTH 6 0
BBX 4 2 1 6
BITMAP
90
60
ENDCHAR
STARTCHAR 02D9
ENCODING 729
SWIDTH 617 0
DWIDTH 6 0
BBX 2 1 2 6
BITMAP
C0
ENDCHAR
STARTCHAR 02DA
ENCODING 730
SWIDTH 617 0
DWIDTH 6 0
BBX 2 3 2 5
BITMAP
C0
C0
C0
ENDCHAR
STARTCHAR 02DB
ENCODING 731
SWIDTH 617 0
DWIDTH 6 0
BBX 2 2 2 -2
BITMAP
C0
C0
ENDCHAR
STARTCHAR 02DC
ENCODING 732
SWIDTH 617 0
DWIDTH 6 0
BBX 4 1 1 6
BITMAP
F0
ENDCHAR
STARTCHAR 02DD
ENCODING 733
SWIDTH 617 0
DWIDTH 6 0
BBX 5 2 1 5
BITMAP
78
F0
ENDCHAR
STARTCHAR 0326
ENCODING 806
SWIDTH 0 0
DWIDTH 0 0
BBX 2 2 -4 -3
BITMAP
C0
80
ENDCHAR
STARTCHAR 0394
ENCODING 916
SWIDTH 617 0
DWIDTH 6 0
BBX 4 7 1 0
BITMAP
60
60
60
F0
90
90
F0
ENDCHAR
STARTCHAR 03A9
ENCODING 937
SWIDTH 617 0
DWIDTH 6 0
BBX 6 7 0 0
BITMAP
78
48
CC
CC
CC
78
FC
ENDCHAR
STARTCHAR 03BC
ENCODING 956
SWIDTH 617 0
DWIDTH 6 0
BBX 4 7 1 -2
BITMAP
90
90
90
B0
F0
80
80
ENDCHAR
STARTCHAR 03C0
ENCODING 960
SWIDTH 617 0
DWIDTH 6 0
BBX 6 5 0 0
BITMAP
FC
48
48
48
48
ENDCHAR
STARTCHAR 1E80
ENCODING 7808
SWIDTH 617 0
DWIDTH 6 0
BBX 6 8 0 0
BITMAP
60
30
CC
C8
78
78
78
48
ENDCHAR
STARTCHAR 1E81
ENCODING 7809
SWIDTH 617 0
DWIDTH 6 0
BBX 6 7 0 0
BITMAP
60
30
CC
EC
78
78
48
ENDCHAR
STARTCHAR 1E82
ENCODING 7810
SWIDTH 617 0
DWIDTH 6 0
BBX 6 8 0 0
BITMAP
18
30
CC
C8
78
78
78
48
ENDCHAR
STARTCHAR 1E83
ENCODING 7811
SWIDTH 617 0
DWIDTH 6 0
BBX 6 7 0 0
BITMAP
18
30
CC
EC
78
78
48
ENDCHAR
STARTCHAR 1E84
ENCODING 7812
SWIDTH 617 0
DWIDTH 6 0
BBX 6 8 0 0
BITMAP
68
00
CC
C8
78
78
78
48
ENDCHAR
STARTCHAR 1E85
ENCODING 7813
SWIDTH 617 0
DWIDTH 6 0
BBX 6 7 0 0
BITMAP
78
00
CC
EC
78
78
48
ENDCHAR
STARTCHAR 1EF2
ENCODING 7922
SWIDTH 617 0
DWIDTH 6 0
BBX 6 8 0 0
BITMAP
60
30
FC
48
30
30
30
78
ENDCHAR
STARTCHAR 1EF3
ENCODING 7923
SWIDTH 617 0
DWIDTH 6 0
BBX 6 9 0 -2
BITMAP
60
30
FC
48
78
30
30
20
40
ENDCHAR
STARTCHAR 2011
ENCODING 8209
SWIDTH 617 0
DWIDTH 6 0
BBX 4 1 1 3
BITMAP
F0
ENDCHAR
STARTCHAR 2013
ENCODING 8211
SWIDTH 617 0
DWIDTH 6 0
BBX 4 1 1 3
BITMAP
F0
ENDCHAR
STARTCHAR 2014
ENCODING 8212
SWIDTH 617 0
DWIDTH 6 0
BBX 6 1 0 3
BITMAP
FC
ENDCHAR
STARTCHAR 2018
ENCODING 8216
SWIDTH 617 0
DWIDTH 6 0
BBX 2 3 2 4
BITMAP
40
C0
C0
ENDCHAR
STARTCHAR 2019
ENCODING 8217
SWIDTH 617 0
DWIDTH 6 0
BBX 2 3 2 4
BITMAP
C0
C0
80
ENDCHAR
STARTCHAR 201A
ENCODING 8218
SWIDTH 617 0
DWIDTH 6 0
BBX 2 3 2 -1
BITMAP
C0
C0
80
ENDCHAR
STARTCHAR 201C
ENCODING 8220
SWIDTH 617 0
DWIDTH 6 0
BBX 5 3 0 4
BITMAP
68
48
D8
ENDCHAR
STARTCHAR 201D
ENCODING 8221
SWIDTH 617 0
DWIDTH 6 0
BBX 4 3 1 4
BITMAP
D0
90
A0
ENDCHAR
STARTCHAR 201E
ENCODING 8222
SWIDTH 617 0
DWIDTH 6 0
BBX 4 3 1 -1
BITMAP
D0
90
A0
ENDCHAR
STARTCHAR 2020
ENCODING 8224
SWIDTH 617 0
DWIDTH 6 0
BBX 4 5 1 1
BITMAP
60
F0
60
60
60
ENDCHAR
STARTCHAR 2021
ENCODING 8225
SWIDTH 617 0
DWIDTH 6 0
BBX 4 5 1 1
BITMAP
60
F0
60
F0
60
ENDCHAR
STARTCHAR 2022
ENCODING 8226
SWIDTH 617 0
DWIDTH 6 0
BBX 2 3 2 2
BITMAP
C0
C0
C0
ENDCHAR
STARTCHAR 2026
ENCODING 8230
SWIDTH 617 0
DWIDTH 6 0
BBX 6 1 0 0
BITMAP
FC
ENDCHAR
STARTCHAR 2030
ENCODING 8240
SWIDTH 617 0
DWIDTH 6 0
BBX 8 6 0 0
BITMAP
E0
EC
10
3E
D5
1E
ENDCHAR
STARTCHAR 2032
ENCODING 8242
SWIDTH 617 0
DWIDTH 6 0
BBX 2 3 2 3
BITMAP
40
C0
80
ENDCHAR
STARTCHAR 2033
ENCODING 8243
SWIDTH 617 0
DWIDTH 6 0
BBX 4 3 1 3
BITMAP
50
F0
A0
ENDCHAR
STARTCHAR 2039
ENCODING 8249
SWIDTH 617 0
DWIDTH 6 0
BBX 2 4 2 1
BITMAP
40
80
80
40
ENDCHAR
STARTCHAR 203A
ENCODING 8250
SWIDTH 617 0
DWIDTH 6 0
BBX 2 4 2 1
BITMAP
80
40
40
80
ENDCHAR
STARTCHAR 2044
ENCODING 8260
SWIDTH 617 0
DWIDTH 6 0
BBX 6 4 0 1
BITMAP
04
18
20
C0
ENDCHAR
STARTCHAR 2074
ENCODING 8308
SWIDTH 617 0
DWIDTH 6 0
BBX 4 5 1 2
BITMAP
20
60
60
F0
20
ENDCHAR
STARTCHAR 20A3
ENCODING 8355
SWIDTH 617 0
DWIDTH 6 0
BBX 5 6 0 0
BITMAP
F8
48
70
40
F8
F0
ENDCHAR
STARTCHAR 20A9
ENCODING 8361
SWIDTH 617 0
DWIDTH 6 0
BBX 6 6 0 0
BITMAP
CC
C8
FC
78
78
48
ENDCHAR
STARTCHAR 20AC
ENCODING 8364
SWIDTH 617 0
DWIDTH 6 0
BBX 6 6 0 0
BITMAP
78
F8
40
F0
64
38
ENDCHAR
STARTCHAR 2122
ENCODING 8482
SWIDTH 617 0
DWIDTH 6 0
BBX 6 3 0 4
BITMAP
F4
5C
5C
ENDCHAR
STARTCHAR 2202
ENCODING 8706
SWIDTH 617 0
DWIDTH 6 0
BBX 4 6 1 0
BITMAP
60
10
F0
90
B0
E0
ENDCHAR
STARTCHAR 220F
ENCODING 8719
SWIDTH 617 0
DWIDTH 6 0
BBX 4 6 1 0
BITMAP
F0
90
90
90
90
90
ENDCHAR
STARTCHAR 2211
ENCODING 8721
SWIDTH 617 0
DWIDTH 6 0
BBX 4 6 1 0
BITMAP
F0
C0
60
60
C0
F0
ENDCHAR
STARTCHAR 2212
ENCODING 8722
SWIDTH 617 0
DWIDTH 6 0
BBX 4 1 1 2
BITMAP
F0
ENDCHAR
STARTCHAR 2215
ENCODING 8725
SWIDTH 617 0
DWIDTH 6 0
BBX 4 10 1 -2
BITMAP
10
10
30
20
20
60
40
C0
80
80
ENDCHAR
STARTCHAR 221A
ENCODING 8730
SWIDTH 617 0
DWIDTH 6 0
BBX 6 6 0 0
BITMAP
0C
08
08
D8
30
30
ENDCHAR
STARTCHAR 221E
ENCODING 8734
SWIDTH 617 0
DWIDTH 6 0
BBX 6 3 0 1
BITMAP
FC
B4
FC
ENDCHAR
STARTCHAR 222B
ENCODING 8747
SWIDTH 617 0
DWIDTH 6 0
BBX 6 9 0 -2
BITMAP
1C
30
30
30
30
30
30
30
E0
ENDCHAR
STARTCHAR 2248
ENCODING 8776
SWIDTH 617 0
DWIDTH 6 0
BBX 4 4 1 1
BITMAP
D0
B0
D0
B0
ENDCHAR
STARTCHAR 2260
ENCODING 8800
SWIDTH 617 0
DWIDTH 6 0
BBX 4 5 1 0
BITMAP
10
F0
60
F0
80
ENDCHAR
STARTCHAR 2264
ENCODING 8804
SWIDTH 617 0
DWIDTH 6 0
BBX 4 5 1 0
BITMAP
30
C0
70
10
F0
ENDCHAR
STARTCHAR 2265
ENCODING 8805
SWIDTH 617 0
DWIDTH 6 0
BBX 4 5 1 0
BITMAP
C0
30
E0
80
F0
ENDCHAR
STARTCHAR 25CA
ENCODING 9674
SWIDTH 617 0
DWIDTH 6 0
BBX 4 6 1 0
BITMAP
60
60
90
90
60
60
ENDCHAR
STARTCHAR FB01
ENCODING 64257
SWIDTH 617 0
DWIDTH 6 0
BBX 6 7 0 0
BITMAP
70
40
F8
48
48
48
5C
ENDCHAR
STARTCHAR FB02
ENCODING 64258
SWIDTH 617 0
DWIDTH 6 0
BBX 6 7 0 0
BITMAP
78
48
E8
48
48
48
5C
ENDCHAR
ENDFONT
