STARTFONT 2.1
COMMENT
COMMENT Converted from OpenType font "CourierPrime-Bold.ttf" by "otf2bdf 3.0".
COMMENT
FONT -FreeType-courier prime-Bold-R-Normal--22-160-100-100-P-106-Windows-cp1252
SIZE 16 100 100
FONTBOUNDINGBOX 17 25 0 -5
STARTPROPERTIES 19
FOUNDRY "FreeType"
FAMILY_NAME "courier prime"
WEIGHT_NAME "Bold"
SLANT "R"
SETWIDTH_NAME "Normal"
ADD_STYLE_NAME ""
PIXEL_SIZE 22
POINT_SIZE 160
RESOLUTION_X 100
RESOLUTION_Y 100
SPACING "P"
AVERAGE_WIDTH 106
CHARSET_REGISTRY "Windows"
CHARSET_ENCODING "cp1252"
FONT_ASCENT 17
FONT_DESCENT 7
COPYRIGHT "Copyright 2015 The Courier Prime Project Authors (https://github.com/quoteunquoteapps/CourierPrime)."
_OTF_FONTFILE "CourierPrime-Bold.ttf"
_OTF_PSNAME "CourierPrime-Bold"
ENDPROPERTIES
CHARS 219
STARTCHAR 000D
ENCODING 13
SWIDTH 585 0
DWIDTH 13 0
BBX 0 0 0 0
BITMAP
ENDCHAR
STARTCHAR 0020
ENCODING 32
SWIDTH 585 0
DWIDTH 13 0
BBX 0 0 0 0
BITMAP
ENDCHAR
STARTCHAR 0021
ENCODING 33
SWIDTH 585 0
DWIDTH 13 0
BBX 3 14 5 0
BITMAP
E0
E0
E0
E0
E0
E0
E0
60
00
00
E0
E0
E0
E0
ENDCHAR
STARTCHAR 0022
ENCODING 34
SWIDTH 585 0
DWIDTH 13 0
BBX 9 6 2 8
BITMAP
E380
E380
E380
E380
6380
6100
ENDCHAR
STARTCHAR 0023
ENCODING 35
SWIDTH 585 0
DWIDTH 13 0
BBX 12 13 1 0
BITMAP
0CE0
0CC0
1CC0
7FF0
FFF0
1980
3180
3180
FFE0
FFE0
6300
6700
6600
ENDCHAR
STARTCHAR 0024
ENCODING 36
SWIDTH 585 0
DWIDTH 13 0
BBX 10 15 2 -1
BITMAP
0C00
0C00
7D80
FF80
EF80
ED80
FE00
7F80
1F80
CDC0
EF80
FF80
DF00
0C00
0C00
ENDCHAR
STARTCHAR 0025
ENCODING 37
SWIDTH 585 0
DWIDTH 13 0
BBX 12 13 1 0
BITMAP
7000
F820
D860
D9E0
FB80
7700
0E00
1DC0
3BE0
7370
E370
43E0
01C0
ENDCHAR
STARTCHAR 0026
ENCODING 38
SWIDTH 585 0
DWIDTH 13 0
BBX 11 13 1 0
BITMAP
1F00
3F80
7B80
7180
7000
3800
3CE0
7FE0
EF80
E780
F7C0
7FE0
3CE0
ENDCHAR
STARTCHAR 0027
ENCODING 39
SWIDTH 585 0
DWIDTH 13 0
BBX 3 6 5 8
BITMAP
E0
E0
E0
E0
E0
60
ENDCHAR
STARTCHAR 0028
ENCODING 40
SWIDTH 585 0
DWIDTH 13 0
BBX 7 19 3 -4
BITMAP
04
0E
1E
3C
70
70
E0
E0
E0
C0
C0
E0
E0
E0
70
38
3C
1E
04
ENDCHAR
STARTCHAR 0029
ENCODING 41
SWIDTH 585 0
DWIDTH 13 0
BBX 7 19 3 -4
BITMAP
40
E0
F0
38
1C
0E
0E
0E
06
06
06
06
0E
0E
1C
3C
78
F0
60
ENDCHAR
STARTCHAR 002A
ENCODING 42
SWIDTH 585 0
DWIDTH 13 0
BBX 9 8 2 5
BITMAP
1C00
1C00
CD80
FF80
7F80
1E00
3700
7700
ENDCHAR
STARTCHAR 002B
ENCODING 43
SWIDTH 585 0
DWIDTH 13 0
BBX 9 9 2 1
BITMAP
1C00
1C00
1C00
FF80
FF80
1C00
1C00
1C00
1C00
ENDCHAR
STARTCHAR 002C
ENCODING 44
SWIDTH 585 0
DWIDTH 13 0
BBX 4 7 4 -3
BITMAP
70
70
F0
E0
E0
C0
C0
ENDCHAR
STARTCHAR 002D
ENCODING 45
SWIDTH 585 0
DWIDTH 13 0
BBX 9 2 2 5
BITMAP
FF80
FF80
ENDCHAR
STARTCHAR 002E
ENCODING 46
SWIDTH 585 0
DWIDTH 13 0
BBX 3 4 5 0
BITMAP
E0
E0
E0
E0
ENDCHAR
STARTCHAR 002F
ENCODING 47
SWIDTH 585 0
DWIDTH 13 0
BBX 9 19 2 -4
BITMAP
0100
0180
0380
0380
0700
0700
0600
0E00
0E00
1C00
1C00
3800
3800
3000
7000
7000
E000
E000
C000
ENDCHAR
STARTCHAR 0030
ENCODING 48
SWIDTH 585 0
DWIDTH 13 0
BBX 11 13 1 0
BITMAP
1F00
3F80
7BC0
71C0
70E0
E0E0
E0E0
E0E0
70E0
71C0
7BC0
3F80
1F00
ENDCHAR
STARTCHAR 0031
ENCODING 49
SWIDTH 585 0
DWIDTH 13 0
BBX 9 13 2 0
BITMAP
0C00
1C00
7C00
FC00
CC00
0C00
0C00
0C00
0C00
0C00
0C00
FF80
FF80
ENDCHAR
STARTCHAR 0032
ENCODING 50
SWIDTH 585 0
DWIDTH 13 0
BBX 9 13 2 0
BITMAP
3E00
FF00
E780
E380
E380
0780
0F00
1E00
3C00
7980
F180
FF80
FF80
ENDCHAR
STARTCHAR 0033
ENCODING 51
SWIDTH 585 0
DWIDTH 13 0
BBX 9 13 2 0
BITMAP
7E00
FF00
E780
E380
0380
1F00
1F00
0780
0380
0380
E780
FF00
7E00
ENDCHAR
STARTCHAR 0034
ENCODING 52
SWIDTH 585 0
DWIDTH 13 0
BBX 11 13 1 0
BITMAP
0300
0700
0F00
1F00
3B00
3300
7300
FFE0
FFE0
0300
0300
1FC0
1FC0
ENDCHAR
STARTCHAR 0035
ENCODING 53
SWIDTH 585 0
DWIDTH 13 0
BBX 9 13 2 0
BITMAP
7F80
7F80
6000
6000
E000
FF00
FF80
4380
0380
0380
E780
FF00
7E00
ENDCHAR
STARTCHAR 0036
ENCODING 54
SWIDTH 585 0
DWIDTH 13 0
BBX 10 13 2 0
BITMAP
0780
1F80
7E00
7000
E000
FF00
FF80
F380
E1C0
E1C0
F380
7F80
3E00
ENDCHAR
STARTCHAR 0037
ENCODING 55
SWIDTH 585 0
DWIDTH 13 0
BBX 10 13 2 0
BITMAP
FFC0
FFC0
C380
C380
C300
0700
0700
0E00
0E00
1C00
1C00
3800
1800
ENDCHAR
STARTCHAR 0038
ENCODING 56
SWIDTH 585 0
DWIDTH 13 0
BBX 9 13 2 0
BITMAP
3E00
7F00
F780
E380
E380
7F00
7F00
F780
E380
E380
F780
7F80
3E00
ENDCHAR
STARTCHAR 0039
ENCODING 57
SWIDTH 585 0
DWIDTH 13 0
BBX 9 13 2 0
BITMAP
3E00
7F00
F780
E380
C380
E380
FF80
7D80
0380
0380
1F00
7E00
7800
ENDCHAR
STARTCHAR 003A
ENCODING 58
SWIDTH 585 0
DWIDTH 13 0
BBX 3 10 5 0
BITMAP
E0
E0
E0
E0
00
00
E0
E0
E0
E0
ENDCHAR
STARTCHAR 003B
ENCODING 59
SWIDTH 585 0
DWIDTH 13 0
BBX 5 13 4 -3
BITMAP
70
70
70
70
00
00
78
70
70
60
E0
C0
C0
ENDCHAR
STARTCHAR 003C
ENCODING 60
SWIDTH 585 0
DWIDTH 13 0
BBX 11 11 1 1
BITMAP
00C0
03E0
07C0
1F00
7C00
F000
7C00
1F00
07C0
03E0
00C0
ENDCHAR
STARTCHAR 003D
ENCODING 61
SWIDTH 585 0
DWIDTH 13 0
BBX 9 7 2 3
BITMAP
FF80
FF80
0000
0000
0000
FF80
FF80
ENDCHAR
STARTCHAR 003E
ENCODING 62
SWIDTH 585 0
DWIDTH 13 0
BBX 10 11 2 1
BITMAP
C000
F000
FC00
3F00
0F80
03C0
0F80
3F00
FC00
F000
C000
ENDCHAR
STARTCHAR 003F
ENCODING 63
SWIDTH 585 0
DWIDTH 13 0
BBX 9 14 2 0
BITMAP
3E00
FF00
E780
E380
4380
0700
1F00
1C00
1800
0000
0000
1C00
1C00
1C00
ENDCHAR
STARTCHAR 0040
ENCODING 64
SWIDTH 585 0
DWIDTH 13 0
BBX 13 13 0 -2
BITMAP
07C0
1FE0
3870
67B0
6FD8
4C98
C998
D998
CEF0
6EE0
7000
3F80
1F80
ENDCHAR
STARTCHAR 0041
ENCODING 65
SWIDTH 585 0
DWIDTH 13 0
BBX 13 13 0 0
BITMAP
3F00
3F80
0F80
0D80
1DC0
1DC0
18C0
3FE0
3FE0
3860
7070
FDF8
FDF8
ENDCHAR
STARTCHAR 0042
ENCODING 66
SWIDTH 585 0
DWIDTH 13 0
BBX 11 13 1 0
BITMAP
FF80
FFC0
31C0
30C0
30C0
31C0
3F80
3FE0
30E0
30E0
31E0
FFE0
FF80
ENDCHAR
STARTCHAR 0043
ENCODING 67
SWIDTH 585 0
DWIDTH 13 0
BBX 11 13 1 0
BITMAP
1F60
3FE0
79E0
70E0
E0E0
E000
E000
E000
E000
7020
79E0
3FE0
1F80
ENDCHAR
STARTCHAR 0044
ENCODING 68
SWIDTH 585 0
DWIDTH 13 0
BBX 11 13 1 0
BITMAP
FF00
FFC0
73C0
70E0
70E0
70E0
7060
70E0
70E0
70E0
73C0
FFC0
FF00
ENDCHAR
STARTCHAR 0045
ENCODING 69
SWIDTH 585 0
DWIDTH 13 0
BBX 11 13 1 0
BITMAP
FFE0
FFE0
70E0
70E0
70E0
7000
7E00
7E00
7060
70E0
70E0
FFE0
FFE0
ENDCHAR
STARTCHAR 0046
ENCODING 70
SWIDTH 585 0
DWIDTH 13 0
BBX 11 13 1 0
BITMAP
FFE0
FFE0
3060
3060
3060
3000
3F00
3F00
3000
3000
3000
FE00
FE00
ENDCHAR
STARTCHAR 0047
ENCODING 71
SWIDTH 585 0
DWIDTH 13 0
BBX 12 13 1 0
BITMAP
1EE0
3FE0
79E0
E0E0
E0E0
E000
E7F0
E7F0
E0E0
E0E0
79E0
3FE0
1F80
ENDCHAR
STARTCHAR 0048
ENCODING 72
SWIDTH 585 0
DWIDTH 13 0
BBX 12 13 1 0
BITMAP
FBF0
FBF0
70C0
70C0
70C0
70C0
7FC0
7FC0
70C0
70C0
70C0
FBF0
FBF0
ENDCHAR
STARTCHAR 0049
ENCODING 73
SWIDTH 585 0
DWIDTH 13 0
BBX 9 13 2 0
BITMAP
FF80
FF80
1C00
1C00
1C00
1C00
1C00
1C00
1C00
1C00
1C00
FF80
FF80
ENDCHAR
STARTCHAR 004A
ENCODING 74
SWIDTH 585 0
DWIDTH 13 0
BBX 12 13 1 0
BITMAP
3FF0
3FF0
0380
0380
0380
0380
0380
E380
E380
E380
E780
FF00
3E00
ENDCHAR
STARTCHAR 004B
ENCODING 75
SWIDTH 585 0
DWIDTH 13 0
BBX 12 13 1 0
BITMAP
FBF0
FBF0
71E0
73C0
7700
7E00
7F00
7F80
71C0
71C0
70E0
FCF0
FC70
ENDCHAR
STARTCHAR 004C
ENCODING 76
SWIDTH 585 0
DWIDTH 13 0
BBX 11 13 1 0
BITMAP
FF00
FF00
3800
3800
3800
3800
3800
38E0
38E0
38E0
38E0
FFE0
FFE0
ENDCHAR
STARTCHAR 004D
ENCODING 77
SWIDTH 585 0
DWIDTH 13 0
BBX 13 13 0 0
BITMAP
F8F8
F8F8
38F0
3DF0
3DF0
3DF0
77F0
7770
7770
7070
7070
F8F8
F8F8
ENDCHAR
STARTCHAR 004E
ENCODING 78
SWIDTH 585 0
DWIDTH 13 0
BBX 12 13 1 0
BITMAP
F1F0
F3F0
78E0
7CE0
7CE0
6EE0
66E0
67E0
63E0
63E0
61E0
F8E0
F8E0
ENDCHAR
STARTCHAR 004F
ENCODING 79
SWIDTH 585 0
DWIDTH 13 0
BBX 12 13 1 0
BITMAP
1F00
3FC0
7BC0
E0E0
E0E0
E060
E070
E060
E0E0
E0E0
7BC0
3FC0
1F00
ENDCHAR
STARTCHAR 0050
ENCODING 80
SWIDTH 585 0
DWIDTH 13 0
BBX 11 13 1 0
BITMAP
FF80
FFC0
39E0
38E0
38E0
38E0
39E0
3FC0
3F80
3800
3800
FF00
FF00
ENDCHAR
STARTCHAR 0051
ENCODING 81
SWIDTH 585 0
DWIDTH 13 0
BBX 12 16 1 -3
BITMAP
1F00
7FC0
7BE0
E0E0
E0E0
E070
E070
E0E0
E0E0
7BE0
7FC0
1F00
3800
3F60
7FE0
73C0
ENDCHAR
STARTCHAR 0052
ENCODING 82
SWIDTH 585 0
DWIDTH 13 0
BBX 12 13 1 0
BITMAP
FF80
FFC0
71C0
70E0
70E0
71C0
7FC0
7F80
7380
71C0
71E0
FCF0
FC70
ENDCHAR
STARTCHAR 0053
ENCODING 83
SWIDTH 585 0
DWIDTH 13 0
BBX 10 13 2 0
BITMAP
3D80
FF80
E780
C180
E000
FE00
7F80
0F80
C1C0
C1C0
F380
FF80
DF00
ENDCHAR
STARTCHAR 0054
ENCODING 84
SWIDTH 585 0
DWIDTH 13 0
BBX 11 13 1 0
BITMAP
FFE0
FFE0
CE60
CE60
CE60
CE60
0E00
0E00
0E00
0E00
0E00
7FC0
7FC0
ENDCHAR
STARTCHAR 0055
ENCODING 85
SWIDTH 585 0
DWIDTH 13 0
BBX 12 13 1 0
BITMAP
FBF0
FBF0
60C0
60C0
60C0
60C0
60C0
60C0
60C0
70C0
7BC0
3F80
1F00
ENDCHAR
STARTCHAR 0056
ENCODING 86
SWIDTH 585 0
DWIDTH 13 0
BBX 13 13 0 0
BITMAP
FCF8
FCF8
7070
3860
38E0
18E0
1DC0
1DC0
0D80
0F80
0F80
0700
0700
ENDCHAR
STARTCHAR 0057
ENCODING 87
SWIDTH 585 0
DWIDTH 13 0
BBX 13 13 0 0
BITMAP
F8F8
F8F8
6030
7030
7730
7730
77F0
3DF0
3DE0
3DE0
38E0
38E0
38E0
ENDCHAR
STARTCHAR 0058
ENCODING 88
SWIDTH 585 0
DWIDTH 13 0
BBX 13 13 0 0
BITMAP
7DF0
7DF8
38E0
1DC0
1FC0
0F80
0700
0F80
1DC0
3CE0
38E0
FDF8
FDF8
ENDCHAR
STARTCHAR 0059
ENCODING 89
SWIDTH 585 0
DWIDTH 13 0
BBX 13 13 0 0
BITMAP
FDF8
FDF8
3870
38E0
1DC0
0FC0
0F80
0700
0700
0700
0700
3FE0
1FE0
ENDCHAR
STARTCHAR 005A
ENCODING 90
SWIDTH 585 0
DWIDTH 13 0
BBX 11 13 1 0
BITMAP
7FE0
7FE0
61C0
6380
6780
0700
0E00
1E00
3CE0
38E0
70E0
FFE0
7FE0
ENDCHAR
STARTCHAR 005B
ENCODING 91
SWIDTH 585 0
DWIDTH 13 0
BBX 7 18 3 -4
BITMAP
FE
FE
E0
E0
E0
E0
E0
E0
E0
E0
E0
E0
E0
E0
E0
E0
FE
FE
ENDCHAR
STARTCHAR 005C
ENCODING 92
SWIDTH 585 0
DWIDTH 13 0
BBX 9 19 2 -4
BITMAP
4000
E000
E000
6000
7000
7000
3800
3800
1800
1C00
1C00
0E00
0E00
0700
0700
0300
0380
0380
0180
ENDCHAR
STARTCHAR 005D
ENCODING 93
SWIDTH 585 0
DWIDTH 13 0
BBX 7 18 3 -4
BITMAP
FE
FE
0E
0E
0E
0E
0E
0E
0E
0E
0E
0E
0E
0E
0E
0E
FE
FE
ENDCHAR
STARTCHAR 005E
ENCODING 94
SWIDTH 585 0
DWIDTH 13 0
BBX 9 8 2 5
BITMAP
1C00
1C00
3E00
3E00
7700
7300
E380
E180
ENDCHAR
STARTCHAR 005F
ENCODING 95
SWIDTH 585 0
DWIDTH 13 0
BBX 14 2 0 -5
BITMAP
FFFC
FFFC
ENDCHAR
STARTCHAR 0060
ENCODING 96
SWIDTH 585 0
DWIDTH 13 0
BBX 6 5 3 11
BITMAP
40
E0
F0
3C
0C
ENDCHAR
STARTCHAR 0061
ENCODING 97
SWIDTH 585 0
DWIDTH 13 0
BBX 12 10 1 0
BITMAP
3F00
7F80
73C0
01C0
7FC0
FFC0
E1C0
F7C0
7FF0
3EF0
ENDCHAR
STARTCHAR 0062
ENCODING 98
SWIDTH 585 0
DWIDTH 13 0
BBX 12 14 0 0
BITMAP
F800
F800
3800
3800
3BC0
3FE0
3CF0
3870
3870
3870
3870
3CF0
FFE0
73C0
ENDCHAR
STARTCHAR 0063
ENCODING 99
SWIDTH 585 0
DWIDTH 13 0
BBX 11 10 1 0
BITMAP
1EC0
3FC0
7BC0
70C0
E0C0
E000
7000
79C0
3FE0
1F80
ENDCHAR
STARTCHAR 0064
ENCODING 100
SWIDTH 585 0
DWIDTH 13 0
BBX 12 14 1 0
BITMAP
07C0
07C0
01C0
01C0
3FC0
7FC0
73C0
E1C0
E0C0
E0C0
E1C0
73C0
7FF0
3EF0
ENDCHAR
STARTCHAR 0065
ENCODING 101
SWIDTH 585 0
DWIDTH 13 0
BBX 11 10 1 0
BITMAP
1F00
3FC0
79C0
60E0
FFE0
FFE0
6000
79C0
3FE0
1F80
ENDCHAR
STARTCHAR 0066
ENCODING 102
SWIDTH 585 0
DWIDTH 13 0
BBX 10 14 2 0
BITMAP
0F80
1FC0
1CC0
3800
3800
FF80
FF80
3800
3800
3800
3800
3800
FF80
FF80
ENDCHAR
STARTCHAR 0067
ENCODING 103
SWIDTH 585 0
DWIDTH 13 0
BBX 12 14 1 -4
BITMAP
3EF0
7FF0
73C0
E1C0
E0C0
E0C0
E1C0
73C0
7FC0
3FC0
01C0
73C0
7F80
7F00
ENDCHAR
STARTCHAR 0068
ENCODING 104
SWIDTH 585 0
DWIDTH 13 0
BBX 13 14 0 0
BITMAP
7800
F800
3800
3800
3BC0
3FE0
3EE0
3C60
3860
3860
3860
3860
7DF8
7DF8
ENDCHAR
STARTCHAR 0069
ENCODING 105
SWIDTH 585 0
DWIDTH 13 0
BBX 10 14 2 0
BITMAP
1C00
1C00
1C00
0000
FC00
FC00
1C00
1C00
1C00
1C00
1C00
1C00
FFC0
FFC0
ENDCHAR
STARTCHAR 006A
ENCODING 106
SWIDTH 585 0
DWIDTH 13 0
BBX 8 18 2 -4
BITMAP
07
07
07
00
FF
FF
07
07
07
07
07
07
07
07
07
EF
FE
7C
ENDCHAR
STARTCHAR 006B
ENCODING 107
SWIDTH 585 0
DWIDTH 13 0
BBX 12 14 1 0
BITMAP
F000
F000
7000
7000
73E0
73E0
71C0
7780
7F00
7F80
7380
71C0
FDF0
FCF0
ENDCHAR
STARTCHAR 006C
ENCODING 108
SWIDTH 585 0
DWIDTH 13 0
BBX 10 14 2 0
BITMAP
FC00
FC00
1C00
1C00
1C00
1C00
1C00
1C00
1C00
1C00
1C00
1C00
FFC0
FFC0
ENDCHAR
STARTCHAR 006D
ENCODING 109
SWIDTH 585 0
DWIDTH 13 0
BBX 13 10 0 0
BITMAP
EE70
EFF0
7FB0
7738
7738
7738
7738
7738
7738
7730
ENDCHAR
STARTCHAR 006E
ENCODING 110
SWIDTH 585 0
DWIDTH 13 0
BBX 12 10 1 0
BITMAP
F780
FFC0
7DC0
78C0
70C0
70C0
70C0
70C0
F9F0
F9F0
ENDCHAR
STARTCHAR 006F
ENCODING 111
SWIDTH 585 0
DWIDTH 13 0
BBX 11 10 1 0
BITMAP
1F00
3FC0
7BC0
E0E0
E0E0
E0E0
E0E0
7BC0
3FC0
1F00
ENDCHAR
STARTCHAR 0070
ENCODING 112
SWIDTH 585 0
DWIDTH 13 0
BBX 12 14 0 -4
BITMAP
F3C0
FFE0
3CF0
3870
3870
3870
3870
3CF0
3FE0
3BC0
3800
3800
FE00
FE00
ENDCHAR
STARTCHAR 0071
ENCODING 113
SWIDTH 585 0
DWIDTH 13 0
BBX 12 14 1 -4
BITMAP
3EF0
7FF0
73C0
E1C0
E0C0
E0C0
E1C0
73C0
7FC0
3FC0
01C0
01C0
07F0
07F0
ENDCHAR
STARTCHAR 0072
ENCODING 114
SWIDTH 585 0
DWIDTH 13 0
BBX 11 10 1 0
BITMAP
79E0
7BE0
1F60
1C00
1C00
1800
1800
1800
FF80
FF80
ENDCHAR
STARTCHAR 0073
ENCODING 115
SWIDTH 585 0
DWIDTH 13 0
BBX 10 10 2 0
BITMAP
7D80
FF80
E780
E180
FF00
3F80
C1C0
F380
FF80
DF00
ENDCHAR
STARTCHAR 0074
ENCODING 116
SWIDTH 585 0
DWIDTH 13 0
BBX 11 13 1 0
BITMAP
1800
1800
1800
1800
FFC0
FFC0
1800
1800
1800
1C00
1CE0
1FE0
0F80
ENDCHAR
STARTCHAR 0075
ENCODING 117
SWIDTH 585 0
DWIDTH 13 0
BBX 12 10 1 0
BITMAP
F3C0
F3C0
71C0
71C0
71C0
71C0
71C0
73C0
7EF0
3CF0
ENDCHAR
STARTCHAR 0076
ENCODING 118
SWIDTH 585 0
DWIDTH 13 0
BBX 13 10 0 0
BITMAP
FDF8
FDF8
3860
38E0
1CC0
1DC0
0D80
0F80
0780
0700
ENDCHAR
STARTCHAR 0077
ENCODING 119
SWIDTH 585 0
DWIDTH 13 0
BBX 13 10 0 0
BITMAP
F878
F8F8
6230
6730
7770
3FF0
3DE0
3DE0
38E0
38E0
ENDCHAR
STARTCHAR 0078
ENCODING 120
SWIDTH 585 0
DWIDTH 13 0
BBX 11 10 1 0
BITMAP
FBE0
FBE0
79C0
3F80
1F00
1F00
3B80
71C0
FBE0
FBE0
ENDCHAR
STARTCHAR 0079
ENCODING 121
SWIDTH 585 0
DWIDTH 13 0
BBX 13 14 0 -4
BITMAP
FDF8
FDF8
3860
38E0
1CC0
1DC0
0F80
0780
0700
0700
0E00
1E00
7C00
7800
ENDCHAR
STARTCHAR 007A
ENCODING 122
SWIDTH 585 0
DWIDTH 13 0
BBX 11 10 1 0
BITMAP
7FE0
7FE0
63C0
6780
0F00
1E00
3CE0
78E0
FFE0
7FE0
ENDCHAR
STARTCHAR 007B
ENCODING 123
SWIDTH 585 0
DWIDTH 13 0
BBX 9 19 2 -4
BITMAP
0080
0F80
1F80
1C00
1800
1800
1C00
3800
F800
F000
7800
1800
1C00
1800
1800
1C00
1E00
0F80
0780
ENDCHAR
STARTCHAR 007C
ENCODING 124
SWIDTH 585 0
DWIDTH 13 0
BBX 3 19 5 -4
BITMAP
40
E0
E0
E0
E0
E0
E0
E0
E0
E0
E0
E0
E0
E0
E0
E0
E0
E0
E0
ENDCHAR
STARTCHAR 007D
ENCODING 125
SWIDTH 585 0
DWIDTH 13 0
BBX 9 19 2 -4
BITMAP
4000
F800
7C00
1C00
0C00
0C00
0C00
0E00
0780
0380
0F00
0C00
0C00
0C00
0C00
0C00
3C00
FC00
7000
ENDCHAR
STARTCHAR 007E
ENCODING 126
SWIDTH 585 0
DWIDTH 13 0
BBX 11 4 1 4
BITMAP
3800
7EE0
EFC0
0380
ENDCHAR
STARTCHAR 00A0
ENCODING 160
SWIDTH 585 0
DWIDTH 13 0
BBX 0 0 0 0
BITMAP
ENDCHAR
STARTCHAR 00A1
ENCODING 161
SWIDTH 585 0
DWIDTH 13 0
BBX 3 14 5 -4
BITMAP
E0
E0
E0
E0
00
00
60
E0
E0
E0
E0
E0
E0
E0
ENDCHAR
STARTCHAR 00A2
ENCODING 162
SWIDTH 585 0
DWIDTH 13 0
BBX 11 15 1 -1
BITMAP
0600
0600
1EC0
3FC0
7FC0
76C0
E6C0
E600
E600
76C0
7FE0
3FC0
0600
0600
0600
ENDCHAR
STARTCHAR 00A3
ENCODING 163
SWIDTH 585 0
DWIDTH 13 0
BBX 9 13 2 0
BITMAP
3E00
7F80
7380
6380
6100
7000
FF00
FF00
3800
3000
7000
FF80
FF80
ENDCHAR
STARTCHAR 00A4
ENCODING 164
SWIDTH 585 0
DWIDTH 13 0
BBX 11 11 1 1
BITMAP
4040
EFE0
7FC0
3BC0
71C0
70C0
71C0
3BC0
7FC0
EFE0
4040
ENDCHAR
STARTCHAR 00A5
ENCODING 165
SWIDTH 585 0
DWIDTH 13 0
BBX 13 13 0 0
BITMAP
FDF8
FDF8
3870
38E0
7DF0
7DF0
0F80
0700
7FF0
3FF0
0700
3FE0
1FE0
ENDCHAR
STARTCHAR 00A6
ENCODING 166
SWIDTH 585 0
DWIDTH 13 0
BBX 3 19 5 -4
BITMAP
40
E0
E0
E0
E0
E0
E0
E0
40
00
00
E0
E0
E0
E0
E0
E0
E0
E0
ENDCHAR
STARTCHAR 00A7
ENCODING 167
SWIDTH 585 0
DWIDTH 13 0
BBX 9 15 2 -2
BITMAP
3F80
7F80
7380
6380
7800
FE00
DF80
E380
F980
7F80
0F80
E700
E300
FF00
FF00
ENDCHAR
STARTCHAR 00A8
ENCODING 168
SWIDTH 585 0
DWIDTH 13 0
BBX 7 3 3 11
BITMAP
E6
E6
E6
ENDCHAR
STARTCHAR 00A9
ENCODING 169
SWIDTH 585 0
DWIDTH 13 0
BBX 13 13 0 0
BITMAP
0F80
3FE0
3070
6FB0
4F98
DC18
D818
DC18
4F98
6FB0
3070
3FE0
0F80
ENDCHAR
STARTCHAR 00AA
ENCODING 170
SWIDTH 585 0
DWIDTH 13 0
BBX 9 8 2 5
BITMAP
3E00
7F00
0300
7F00
7F00
E300
7F80
3D80
ENDCHAR
STARTCHAR 00AB
ENCODING 171
SWIDTH 585 0
DWIDTH 13 0
BBX 11 9 1 1
BITMAP
18C0
38E0
71C0
7380
E300
7380
71C0
38E0
18C0
ENDCHAR
STARTCHAR 00AC
ENCODING 172
SWIDTH 585 0
DWIDTH 13 0
BBX 11 6 1 3
BITMAP
FFE0
FFE0
00E0
00E0
00E0
00E0
ENDCHAR
STARTCHAR 00AD
ENCODING 173
SWIDTH 585 0
DWIDTH 13 0
BBX 9 2 2 3
BITMAP
FF80
FF80
ENDCHAR
STARTCHAR 00AE
ENCODING 174
SWIDTH 585 0
DWIDTH 13 0
BBX 11 11 1 4
BITMAP
1F00
3180
60C0
5E40
DB60
D960
DF60
5B60
7940
3080
1F00
ENDCHAR
STARTCHAR 00AF
ENCODING 175
SWIDTH 585 0
DWIDTH 13 0
BBX 7 2 3 11
BITMAP
FE
FE
ENDCHAR
STARTCHAR 00B0
ENCODING 176
SWIDTH 585 0
DWIDTH 13 0
BBX 7 7 2 6
BITMAP
3C
7E
6E
E6
6E
7E
3C
ENDCHAR
STARTCHAR 00B1
ENCODING 177
SWIDTH 585 0
DWIDTH 13 0
BBX 9 12 2 0
BITMAP
1C00
1C00
1C00
FF80
FF80
1C00
1C00
1C00
0000
0000
FF80
FF80
ENDCHAR
STARTCHAR 00B2
ENCODING 178
SWIDTH 585 0
DWIDTH 13 0
BBX 8 9 3 5
BITMAP
7C
FE
C6
46
0C
38
73
FF
FF
ENDCHAR
STARTCHAR 00B3
ENCODING 179
SWIDTH 585 0
DWIDTH 13 0
BBX 7 9 3 5
BITMAP
7C
FE
C6
3E
3E
06
86
FE
7C
ENDCHAR
STARTCHAR 00B4
ENCODING 180
SWIDTH 585 0
DWIDTH 13 0
BBX 6 5 4 11
BITMAP
08
1C
3C
F0
40
ENDCHAR
STARTCHAR 00B5
ENCODING 181
SWIDTH 585 0
DWIDTH 13 0
BBX 9 14 2 -4
BITMAP
E180
E180
E180
E180
E180
E380
E380
FF80
FF80
F980
E000
E000
E000
E000
ENDCHAR
STARTCHAR 00B6
ENCODING 182
SWIDTH 585 0
DWIDTH 13 0
BBX 11 17 1 -4
BITMAP
3FE0
7FE0
FCC0
FCC0
FCC0
FCC0
7CC0
3CC0
0CC0
0CC0
0CC0
0CC0
0CC0
0CC0
0CC0
0CC0
0CC0
ENDCHAR
STARTCHAR 00B7
ENCODING 183
SWIDTH 585 0
DWIDTH 13 0
BBX 3 4 5 4
BITMAP
E0
E0
E0
E0
ENDCHAR
STARTCHAR 00B8
ENCODING 184
SWIDTH 585 0
DWIDTH 13 0
BBX 6 5 4 -5
BITMAP
60
78
1C
FC
F8
ENDCHAR
STARTCHAR 00B9
ENCODING 185
SWIDTH 585 0
DWIDTH 13 0
BBX 7 9 3 5
BITMAP
18
78
F8
18
18
18
18
FE
FE
ENDCHAR
STARTCHAR 00BA
ENCODING 186
SWIDTH 585 0
DWIDTH 13 0
BBX 9 8 2 5
BITMAP
3E00
7F00
6380
E180
E180
6380
7F00
3E00
ENDCHAR
STARTCHAR 00BB
ENCODING 187
SWIDTH 585 0
DWIDTH 13 0
BBX 11 9 1 1
BITMAP
6100
E380
71C0
38E0
1CE0
38E0
71C0
E380
6100
ENDCHAR
STARTCHAR 00BC
ENCODING 188
SWIDTH 585 0
DWIDTH 13 0
BBX 13 17 0 -2
BITMAP
3000
F000
F000
3000
3000
3000
FC30
FCF0
03C0
0F30
1C70
7070
40F0
01B0
01F8
01F8
0030
ENDCHAR
STARTCHAR 00BD
ENCODING 189
SWIDTH 585 0
DWIDTH 13 0
BBX 13 17 0 -2
BITMAP
1000
7000
F000
3000
3000
3010
FC70
01C0
0380
0E00
39F0
7198
4098
0038
0060
00C8
01F8
ENDCHAR
STARTCHAR 00BE
ENCODING 190
SWIDTH 585 0
DWIDTH 13 0
BBX 13 17 0 -2
BITMAP
F800
FC00
CC00
3800
3C00
0C00
FC30
78E0
0380
0F30
3C70
7070
40F0
01B0
01F8
01F8
0030
ENDCHAR
STARTCHAR 00BF
ENCODING 191
SWIDTH 585 0
DWIDTH 13 0
BBX 9 14 2 -4
BITMAP
1C00
1C00
1C00
0000
0000
0C00
1C00
7C00
7800
E000
E380
7380
7F80
3E00
ENDCHAR
STARTCHAR 00C0
ENCODING 192
SWIDTH 585 0
DWIDTH 13 0
BBX 13 19 0 0
BITMAP
0800
1C00
1E00
0F00
0300
0000
3F00
3F80
0F80
0D80
1DC0
1DC0
18C0
3FE0
3FE0
3860
7070
FDF8
FDF8
ENDCHAR
STARTCHAR 00C1
ENCODING 193
SWIDTH 585 0
DWIDTH 13 0
BBX 13 19 0 0
BITMAP
0080
0380
07C0
0F00
0C00
0000
3F00
3F80
0F80
0D80
1DC0
1DC0
18C0
3FE0
3FE0
3860
7070
FDF8
FDF8
ENDCHAR
STARTCHAR 00C2
ENCODING 194
SWIDTH 585 0
DWIDTH 13 0
BBX 13 18 0 0
BITMAP
0600
0F80
1FC0
18C0
0000
3F00
3F80
0F80
0D80
1DC0
1DC0
18C0
3FE0
3FE0
3860
7070
FDF8
FDF8
ENDCHAR
STARTCHAR 00C3
ENCODING 195
SWIDTH 585 0
DWIDTH 13 0
BBX 13 17 0 0
BITMAP
1EC0
3FC0
3380
0000
3F00
3F80
0F80
0D80
1DC0
1DC0
18C0
3FE0
3FE0
3860
7070
FDF8
FDF8
ENDCHAR
STARTCHAR 00C4
ENCODING 196
SWIDTH 585 0
DWIDTH 13 0
BBX 13 17 0 0
BITMAP
19C0
19C0
19C0
0000
3F00
3F80
0F80
0D80
1DC0
1DC0
18C0
3FE0
3FE0
3860
7070
FDF8
FDF8
ENDCHAR
STARTCHAR 00C5
ENCODING 197
SWIDTH 585 0
DWIDTH 13 0
BBX 13 20 0 0
BITMAP
0700
0F80
0D80
0D80
0F80
0700
0000
3F00
3F80
0F80
0D80
1DC0
1DC0
18C0
3FE0
3FE0
3860
7070
FDF8
FDF8
ENDCHAR
STARTCHAR 00C6
ENCODING 198
SWIDTH 585 0
DWIDTH 13 0
BBX 13 13 0 0
BITMAP
7FF0
7FF0
1B30
1B30
3B00
3BC0
33C0
3F00
7F38
7338
6338
FBF8
F3F8
ENDCHAR
STARTCHAR 00C7
ENCODING 199
SWIDTH 585 0
DWIDTH 13 0
BBX 11 18 1 -5
BITMAP
1F60
3FE0
79E0
70E0
E0E0
E000
E000
E000
E000
7060
3FE0
1FC0
0600
0780
0180
1180
1F80
0F00
ENDCHAR
STARTCHAR 00C8
ENCODING 200
SWIDTH 585 0
DWIDTH 13 0
BBX 11 19 1 0
BITMAP
1000
1800
3E00
0F00
0300
0000
FFE0
FFE0
70E0
70E0
70E0
7000
7E00
7E00
7060
70E0
70E0
FFE0
FFE0
ENDCHAR
STARTCHAR 00C9
ENCODING 201
SWIDTH 585 0
DWIDTH 13 0
BBX 11 19 1 0
BITMAP
0100
0380
0F80
1E00
1800
0000
FFE0
FFE0
70E0
70E0
70E0
7000
7E00
7E00
7060
70E0
70E0
FFE0
FFE0
ENDCHAR
STARTCHAR 00CA
ENCODING 202
SWIDTH 585 0
DWIDTH 13 0
BBX 11 18 1 0
BITMAP
0600
0F00
3F80
30C0
0000
FFE0
FFE0
70E0
70E0
70E0
7000
7E00
7E00
7060
70E0
70E0
FFE0
FFE0
ENDCHAR
STARTCHAR 00CB
ENCODING 203
SWIDTH 585 0
DWIDTH 13 0
BBX 11 17 1 0
BITMAP
39C0
39C0
39C0
0000
FFE0
FFE0
70E0
70E0
70E0
7000
7E00
7E00
7060
70E0
70E0
FFE0
FFE0
ENDCHAR
STARTCHAR 00CC
ENCODING 204
SWIDTH 585 0
DWIDTH 13 0
BBX 9 19 2 0
BITMAP
2000
7000
7800
1E00
0600
0000
FF80
FF80
1C00
1C00
1C00
1C00
1C00
1C00
1C00
1C00
1C00
FF80
FF80
ENDCHAR
STARTCHAR 00CD
ENCODING 205
SWIDTH 585 0
DWIDTH 13 0
BBX 9 19 2 0
BITMAP
0200
0700
0F00
3C00
1000
0000
FF80
FF80
1C00
1C00
1C00
1C00
1C00
1C00
1C00
1C00
1C00
FF80
FF80
ENDCHAR
STARTCHAR 00CE
ENCODING 206
SWIDTH 585 0
DWIDTH 13 0
BBX 9 18 2 0
BITMAP
1C00
3E00
7F00
6300
0000
FF80
FF80
1C00
1C00
1C00
1C00
1C00
1C00
1C00
1C00
1C00
FF80
FF80
ENDCHAR
STARTCHAR 00CF
ENCODING 207
SWIDTH 585 0
DWIDTH 13 0
BBX 9 17 2 0
BITMAP
7300
7300
7300
0000
FF80
FF80
1C00
1C00
1C00
1C00
1C00
1C00
1C00
1C00
1C00
FF80
FF80
ENDCHAR
STARTCHAR 00D0
ENCODING 208
SWIDTH 585 0
DWIDTH 13 0
BBX 12 13 0 0
BITMAP
7F80
7FE0
39E0
3870
3870
3870
FE30
FE70
3870
3870
39E0
7FE0
7F80
ENDCHAR
STARTCHAR 00D1
ENCODING 209
SWIDTH 585 0
DWIDTH 13 0
BBX 12 17 1 0
BITMAP
3DC0
7F80
2700
0000
F1F0
F3F0
78E0
7CE0
7CE0
6EE0
66E0
67E0
63E0
63E0
61E0
F8E0
F8E0
ENDCHAR
STARTCHAR 00D2
ENCODING 210
SWIDTH 585 0
DWIDTH 13 0
BBX 12 19 1 0
BITMAP
1000
3800
3E00
0F00
0300
0000
1F00
3FC0
7BC0
E0E0
E0E0
E060
E070
E060
E0E0
E0E0
7BC0
3FC0
1F00
ENDCHAR
STARTCHAR 00D3
ENCODING 211
SWIDTH 585 0
DWIDTH 13 0
BBX 12 19 1 0
BITMAP
0100
0380
0780
1E00
1800
0000
1F00
3FC0
7BC0
E0E0
E0E0
E060
E070
E060
E0E0
E0E0
7BC0
3FC0
1F00
ENDCHAR
STARTCHAR 00D4
ENCODING 212
SWIDTH 585 0
DWIDTH 13 0
BBX 12 18 1 0
BITMAP
0E00
1F00
3F80
3180
0000
1F00
3FC0
7BC0
E0E0
E0E0
E060
E070
E060
E0E0
E0E0
7BC0
3FC0
1F00
ENDCHAR
STARTCHAR 00D5
ENCODING 213
SWIDTH 585 0
DWIDTH 13 0
BBX 12 17 1 0
BITMAP
3DC0
7F80
2700
0000
1F00
3FC0
7BC0
E0E0
E0E0
E060
E070
E060
E0E0
E0E0
7BC0
3FC0
1F00
ENDCHAR
STARTCHAR 00D6
ENCODING 214
SWIDTH 585 0
DWIDTH 13 0
BBX 12 17 1 0
BITMAP
3980
3980
3980
0000
1F00
3FC0
7BC0
E0E0
E0E0
E060
E070
E060
E0E0
E0E0
7BC0
3FC0
1F00
ENDCHAR
STARTCHAR 00D7
ENCODING 215
SWIDTH 585 0
DWIDTH 13 0
BBX 9 8 2 2
BITMAP
6100
F380
7F00
3E00
3E00
7F00
F380
6100
ENDCHAR
STARTCHAR 00D8
ENCODING 216
SWIDTH 585 0
DWIDTH 13 0
BBX 12 14 1 0
BITMAP
0060
1F60
3FC0
7BC0
E1E0
E3E0
E760
EE70
EC60
F8E0
F8E0
7BC0
7FC0
FF00
ENDCHAR
STARTCHAR 00D9
ENCODING 217
SWIDTH 585 0
DWIDTH 13 0
BBX 12 19 1 0
BITMAP
1000
3800
3C00
0F00
0300
0000
FBF0
FBF0
60C0
60C0
60C0
60C0
60C0
60C0
60C0
70C0
7BC0
3F80
1F00
ENDCHAR
STARTCHAR 00DA
ENCODING 218
SWIDTH 585 0
DWIDTH 13 0
BBX 12 19 1 0
BITMAP
0100
0380
0780
1E00
0800
0000
FBF0
FBF0
60C0
60C0
60C0
60C0
60C0
60C0
60C0
70C0
7BC0
3F80
1F00
ENDCHAR
STARTCHAR 00DB
ENCODING 219
SWIDTH 585 0
DWIDTH 13 0
BBX 12 18 1 0
BITMAP
0E00
1F00
3F80
3180
0000
FBF0
FBF0
60C0
60C0
60C0
60C0
60C0
60C0
60C0
70C0
7BC0
3F80
1F00
ENDCHAR
STARTCHAR 00DC
ENCODING 220
SWIDTH 585 0
DWIDTH 13 0
BBX 12 17 1 0
BITMAP
3980
3980
3980
0000
FBF0
FBF0
60C0
60C0
60C0
60C0
60C0
60C0
60C0
70C0
7BC0
3F80
1F00
ENDCHAR
STARTCHAR 00DD
ENCODING 221
SWIDTH 585 0
DWIDTH 13 0
BBX 13 19 0 0
BITMAP
0080
01C0
03C0
0F00
0400
0000
FDF8
FDF8
3870
38E0
1DC0
0FC0
0F80
0700
0700
0700
0700
3FE0
1FE0
ENDCHAR
STARTCHAR 00DE
ENCODING 222
SWIDTH 585 0
DWIDTH 13 0
BBX 11 13 1 0
BITMAP
FF00
FF00
1800
1F80
1FC0
19E0
18E0
19E0
1FC0
1F80
1800
FF00
FF00
ENDCHAR
STARTCHAR 00DF
ENCODING 223
SWIDTH 585 0
DWIDTH 13 0
BBX 12 14 0 0
BITMAP
0F80
1FC0
1DE0
38E0
38E0
38E0
3BC0
3BE0
38E0
3870
3870
38E0
FBE0
FBC0
ENDCHAR
STARTCHAR 00E0
ENCODING 224
SWIDTH 585 0
DWIDTH 13 0
BBX 12 16 1 0
BITMAP
0800
1C00
1E00
0F00
0300
0000
3F00
7F80
73C0
01C0
7FC0
FFC0
E1C0
F7C0
7FF0
3EF0
ENDCHAR
STARTCHAR 00E1
ENCODING 225
SWIDTH 585 0
DWIDTH 13 0
BBX 12 16 1 0
BITMAP
0100
0700
0F80
1E00
1800
0000
3F00
7F80
73C0
01C0
7FC0
FFC0
E1C0
F7C0
7FF0
3EF0
ENDCHAR
STARTCHAR 00E2
ENCODING 226
SWIDTH 585 0
DWIDTH 13 0
BBX 12 15 1 0
BITMAP
0E00
1F00
3F80
3180
0000
3F00
7F80
73C0
01C0
7FC0
FFC0
E1C0
F7C0
7FF0
3EF0
ENDCHAR
STARTCHAR 00E3
ENCODING 227
SWIDTH 585 0
DWIDTH 13 0
BBX 12 14 1 0
BITMAP
3DC0
7F80
2700
0000
3F00
7F80
73C0
01C0
7FC0
FFC0
E1C0
F7C0
7FF0
3EF0
ENDCHAR
STARTCHAR 00E4
ENCODING 228
SWIDTH 585 0
DWIDTH 13 0
BBX 12 14 1 0
BITMAP
3980
3980
3980
0000
3F00
7F80
73C0
01C0
7FC0
FFC0
E1C0
F7C0
7FF0
3EF0
ENDCHAR
STARTCHAR 00E5
ENCODING 229
SWIDTH 585 0
DWIDTH 13 0
BBX 12 17 1 0
BITMAP
0E00
1F00
1B00
1B00
1F00
0E00
0000
3F00
7F80
73C0
01C0
7FC0
FFC0
E1C0
F7C0
7FF0
3EF0
ENDCHAR
STARTCHAR 00E6
ENCODING 230
SWIDTH 585 0
DWIDTH 13 0
BBX 13 10 0 0
BITMAP
3DE0
7FF0
67B8
0738
7FF8
7FF8
E700
E7B0
7FF8
3DF0
ENDCHAR
STARTCHAR 00E7
ENCODING 231
SWIDTH 585 0
DWIDTH 13 0
BBX 11 15 1 -5
BITMAP
1EC0
3FC0
7BC0
70C0
E0C0
E000
6000
70C0
3FE0
1F80
0C00
0F00
0380
1F80
1F00
ENDCHAR
STARTCHAR 00E8
ENCODING 232
SWIDTH 585 0
DWIDTH 13 0
BBX 11 16 1 0
BITMAP
0800
1C00
1E00
0F00
0300
0000
1F00
3FC0
79C0
60E0
FFE0
FFE0
6000
79C0
3FE0
1F80
ENDCHAR
STARTCHAR 00E9
ENCODING 233
SWIDTH 585 0
DWIDTH 13 0
BBX 11 16 1 0
BITMAP
0100
0380
0F80
1E00
1800
0000
1F00
3FC0
79C0
60E0
FFE0
FFE0
6000
79C0
3FE0
1F80
ENDCHAR
STARTCHAR 00EA
ENCODING 234
SWIDTH 585 0
DWIDTH 13 0
BBX 11 15 1 0
BITMAP
0600
1F00
3FC0
3080
0000
1F00
3FC0
79C0
60E0
FFE0
FFE0
6000
79C0
3FE0
1F80
ENDCHAR
STARTCHAR 00EB
ENCODING 235
SWIDTH 585 0
DWIDTH 13 0
BBX 11 14 1 0
BITMAP
3980
3980
3980
0000
1F00
3FC0
79C0
60E0
FFE0
FFE0
6000
79C0
3FE0
1F80
ENDCHAR
STARTCHAR 00EC
ENCODING 236
SWIDTH 585 0
DWIDTH 13 0
BBX 10 16 2 0
BITMAP
2000
7000
7800
3C00
0C00
0000
FC00
FC00
1C00
1C00
1C00
1C00
1C00
1C00
FFC0
FFC0
ENDCHAR
STARTCHAR 00ED
ENCODING 237
SWIDTH 585 0
DWIDTH 13 0
BBX 10 16 2 0
BITMAP
0200
0E00
1F00
3C00
3000
0000
FC00
FC00
1C00
1C00
1C00
1C00
1C00
1C00
FFC0
FFC0
ENDCHAR
STARTCHAR 00EE
ENCODING 238
SWIDTH 585 0
DWIDTH 13 0
BBX 10 15 2 0
BITMAP
1C00
3E00
7F00
6300
0000
FC00
FC00
1C00
1C00
1C00
1C00
1C00
1C00
FFC0
FFC0
ENDCHAR
STARTCHAR 00EF
ENCODING 239
SWIDTH 585 0
DWIDTH 13 0
BBX 10 14 2 0
BITMAP
7300
7300
7300
0000
FC00
FC00
1C00
1C00
1C00
1C00
1C00
1C00
FFC0
FFC0
ENDCHAR
STARTCHAR 00F0
ENCODING 240
SWIDTH 585 0
DWIDTH 13 0
BBX 11 15 1 0
BITMAP
0800
1D80
1F80
1F00
1B80
01C0
3FC0
7FE0
71E0
E0E0
E0E0
E0E0
7BC0
3FC0
1F00
ENDCHAR
STARTCHAR 00F1
ENCODING 241
SWIDTH 585 0
DWIDTH 13 0
BBX 12 14 1 0
BITMAP
3DC0
7F80
2700
0000
F780
FFC0
7DC0
78C0
70C0
70C0
70C0
70C0
F9F0
F9F0
ENDCHAR
STARTCHAR 00F2
ENCODING 242
SWIDTH 585 0
DWIDTH 13 0
BBX 11 16 1 0
BITMAP
1000
3800
3E00
0F00
0300
0000
1F00
3FC0
7BC0
E0E0
E0E0
E0E0
E0E0
7BC0
3FC0
1F00
ENDCHAR
STARTCHAR 00F3
ENCODING 243
SWIDTH 585 0
DWIDTH 13 0
BBX 11 16 1 0
BITMAP
0100
0380
0780
1E00
1800
0000
1F00
3FC0
7BC0
E0E0
E0E0
E0E0
E0E0
7BC0
3FC0
1F00
ENDCHAR
STARTCHAR 00F4
ENCODING 244
SWIDTH 585 0
DWIDTH 13 0
BBX 11 15 1 0
BITMAP
0E00
1F00
3F80
3180
0000
1F00
3FC0
7BC0
E0E0
E0E0
E0E0
E0E0
7BC0
3FC0
1F00
ENDCHAR
STARTCHAR 00F5
ENCODING 245
SWIDTH 585 0
DWIDTH 13 0
BBX 11 14 1 0
BITMAP
3DC0
7F80
2700
0000
1F00
3FC0
7BC0
E0E0
E0E0
E0E0
E0E0
7BC0
3FC0
1F00
ENDCHAR
STARTCHAR 00F6
ENCODING 246
SWIDTH 585 0
DWIDTH 13 0
BBX 11 14 1 0
BITMAP
3980
3980
3980
0000
1F00
3FC0
7BC0
E0E0
E0E0
E0E0
E0E0
7BC0
3FC0
1F00
ENDCHAR
STARTCHAR 00F7
ENCODING 247
SWIDTH 585 0
DWIDTH 13 0
BBX 9 10 2 1
BITMAP
1C00
1C00
0000
0000
FF80
FF80
0000
0000
1C00
1C00
ENDCHAR
STARTCHAR 00F8
ENCODING 248
SWIDTH 585 0
DWIDTH 13 0
BBX 11 11 1 0
BITMAP
0060
1F60
3FE0
7BC0
E3E0
E7E0
ECE0
F8E0
7BC0
7FC0
DF00
ENDCHAR
STARTCHAR 00F9
ENCODING 249
SWIDTH 585 0
DWIDTH 13 0
BBX 12 16 1 0
BITMAP
1000
3800
3E00
0F00
0300
0000
F3C0
F3C0
71C0
71C0
71C0
71C0
71C0
73C0
7EF0
3CF0
ENDCHAR
STARTCHAR 00FA
ENCODING 250
SWIDTH 585 0
DWIDTH 13 0
BBX 12 16 1 0
BITMAP
0100
0380
0780
1E00
0800
0000
F3C0
F3C0
71C0
71C0
71C0
71C0
71C0
73C0
7EF0
3CF0
ENDCHAR
STARTCHAR 00FB
ENCODING 251
SWIDTH 585 0
DWIDTH 13 0
BBX 12 15 1 0
BITMAP
0E00
1F00
3F80
3180
0000
F3C0
F3C0
71C0
71C0
71C0
71C0
71C0
73C0
7EF0
3CF0
ENDCHAR
STARTCHAR 00FC
ENCODING 252
SWIDTH 585 0
DWIDTH 13 0
BBX 12 14 1 0
BITMAP
3380
3380
3380
0000
F3C0
F3C0
71C0
71C0
71C0
71C0
71C0
73C0
7EF0
3CF0
ENDCHAR
STARTCHAR 00FD
ENCODING 253
SWIDTH 585 0
DWIDTH 13 0
BBX 13 20 0 -4
BITMAP
0080
01C0
03C0
0F00
0400
0000
FDF8
FDF8
3860
38E0
1CC0
1DC0
0F80
0780
0700
0700
0E00
1E00
7C00
7800
ENDCHAR
STARTCHAR 00FE
ENCODING 254
SWIDTH 585 0
DWIDTH 13 0
BBX 12 18 0 -4
BITMAP
F800
F800
3800
3800
3BC0
3FE0
3CF0
3870
3870
3870
3870
3CF0
3FE0
3BC0
3800
3800
FE00
FE00
ENDCHAR
STARTCHAR 00FF
ENCODING 255
SWIDTH 585 0
DWIDTH 13 0
BBX 13 18 0 -4
BITMAP
1CC0
1CC0
1CC0
0000
FDF8
FDF8
3860
38E0
1CC0
1DC0
0F80
0780
0700
0700
0E00
1E00
7C00
7800
ENDCHAR
STARTCHAR 0152
ENCODING 140
SWIDTH 585 0
DWIDTH 13 0
BBX 12 13 1 0
BITMAP
1FE0
7FE0
7660
E660
C600
C780
C780
C600
C670
E670
7670
7FF0
1FF0
ENDCHAR
STARTCHAR 0153
ENCODING 156
SWIDTH 585 0
DWIDTH 13 0
BBX 13 10 0 0
BITMAP
3DE0
7FF0
77B0
E738
E7F8
E7F8
E700
77B0
7FF8
3DF0
ENDCHAR
STARTCHAR 0160
ENCODING 138
SWIDTH 585 0
DWIDTH 13 0
BBX 10 18 2 0
BITMAP
6300
7700
3E00
1C00
0000
3D80
FF80
E780
C180
E000
FE00
7F80
0F80
C1C0
C1C0
F380
FF80
DF00
ENDCHAR
STARTCHAR 0161
ENCODING 154
SWIDTH 585 0
DWIDTH 13 0
BBX 10 15 2 0
BITMAP
6300
7700
3E00
1C00
0000
7D80
FF80
E780
E180
FF00
3F80
C1C0
F380
FF80
DF00
ENDCHAR
STARTCHAR 0178
ENCODING 159
SWIDTH 585 0
DWIDTH 13 0
BBX 13 17 0 0
BITMAP
1CC0
1CC0
1CC0
0000
FDF8
FDF8
3870
38E0
1DC0
0FC0
0F80
0700
0700
0700
0700
3FE0
1FE0
ENDCHAR
STARTCHAR 017D
ENCODING 142
SWIDTH 585 0
DWIDTH 13 0
BBX 11 18 1 0
BITMAP
3080
3FC0
1F00
0600
0000
7FE0
7FE0
61C0
6380
6780
0700
0E00
1E00
3CE0
38E0
70E0
FFE0
7FE0
ENDCHAR
STARTCHAR 017E
ENCODING 158
SWIDTH 585 0
DWIDTH 13 0
BBX 11 15 1 0
BITMAP
3080
3FC0
1F00
0600
0000
7FE0
7FE0
63C0
6780
0F00
1E00
3CE0
78E0
FFE0
7FE0
ENDCHAR
STARTCHAR 0192
ENCODING 131
SWIDTH 585 0
DWIDTH 13 0
BBX 12 17 0 -3
BITMAP
01F0
03F0
0390
0700
0700
3FE0
3FE0
0700
0700
0700
0600
0600
0600
0E00
CE00
FC00
F800
ENDCHAR
STARTCHAR 02C6
ENCODING 136
SWIDTH 585 0
DWIDTH 13 0
BBX 7 4 3 11
BITMAP
38
7C
FE
C6
ENDCHAR
STARTCHAR 02DC
ENCODING 152
SWIDTH 585 0
DWIDTH 13 0
BBX 9 3 2 11
BITMAP
7B80
FF00
4E00
ENDCHAR
STARTCHAR 2013
ENCODING 150
SWIDTH 585 0
DWIDTH 13 0
BBX 9 2 2 5
BITMAP
FF80
FF80
ENDCHAR
STARTCHAR 2014
ENCODING 151
SWIDTH 585 0
DWIDTH 13 0
BBX 14 2 0 5
BITMAP
FFFC
FFF8
ENDCHAR
STARTCHAR 2018
ENCODING 145
SWIDTH 585 0
DWIDTH 13 0
BBX 5 6 4 8
BITMAP
38
30
30
70
70
F0
ENDCHAR
STARTCHAR 2019
ENCODING 146
SWIDTH 585 0
DWIDTH 13 0
BBX 5 6 4 8
BITMAP
78
70
70
70
60
E0
ENDCHAR
STARTCHAR 201A
ENCODING 130
SWIDTH 585 0
DWIDTH 13 0
BBX 5 6 4 -2
BITMAP
78
70
70
70
60
E0
ENDCHAR
STARTCHAR 201C
ENCODING 147
SWIDTH 585 0
DWIDTH 13 0
BBX 11 6 1 8
BITMAP
38E0
30C0
70C0
71C0
71C0
F3C0
ENDCHAR
STARTCHAR 201D
ENCODING 148
SWIDTH 585 0
DWIDTH 13 0
BBX 11 6 1 8
BITMAP
79E0
71C0
71C0
71C0
6180
E380
ENDCHAR
STARTCHAR 201E
ENCODING 132
SWIDTH 585 0
DWIDTH 13 0
BBX 11 6 1 -2
BITMAP
79E0
71C0
71C0
71C0
6180
E380
ENDCHAR
STARTCHAR 2020
ENCODING 134
SWIDTH 585 0
DWIDTH 13 0
BBX 8 10 3 3
BITMAP
38
38
38
FE
FF
38
38
38
38
38
ENDCHAR
STARTCHAR 2021
ENCODING 135
SWIDTH 585 0
DWIDTH 13 0
BBX 8 11 3 2
BITMAP
38
38
FE
FF
38
38
38
FF
FE
38
38
ENDCHAR
STARTCHAR 2022
ENCODING 149
SWIDTH 585 0
DWIDTH 13 0
BBX 5 6 4 3
BITMAP
F8
F8
F8
F8
F8
F8
ENDCHAR
STARTCHAR 2026
ENCODING 133
SWIDTH 585 0
DWIDTH 13 0
BBX 11 3 1 0
BITMAP
EE60
EE60
EE60
ENDCHAR
STARTCHAR 2030
ENCODING 137
SWIDTH 585 0
DWIDTH 13 0
BBX 16 13 1 0
BITMAP
7000
F820
D860
D9E0
FB80
7700
0E00
1DDC
3BFE
7376
E377
43FE
01DC
ENDCHAR
STARTCHAR 2039
ENCODING 139
SWIDTH 585 0
DWIDTH 13 0
BBX 5 9 4 1
BITMAP
10
38
70
E0
E0
E0
70
38
10
ENDCHAR
STARTCHAR 203A
ENCODING 155
SWIDTH 585 0
DWIDTH 13 0
BBX 5 9 4 1
BITMAP
60
E0
70
38
18
38
70
E0
60
ENDCHAR
STARTCHAR 20AC
ENCODING 128
SWIDTH 585 0
DWIDTH 13 0
BBX 11 13 1 0
BITMAP
0F60
3FE0
39E0
70E0
FEE0
FE00
7000
FE00
FE00
7000
3DE0
3FE0
0F80
ENDCHAR
STARTCHAR 2122
ENCODING 153
SWIDTH 585 0
DWIDTH 13 0
BBX 13 6 1 8
BITMAP
FB10
FB38
23B8
23F8
22D8
2258
ENDCHAR
ENDFONT
