STARTFONT 2.1
COMMENT
COMMENT Converted from OpenType font "CourierPrime-Regular.ttf" by "otf2bdf 3.0".
COMMENT
FONT -FreeType-courier prime cp1252-Medium-R-Normal--22-160-100-100-P-101-ISO10646-1
SIZE 16 100 100
FONTBOUNDINGBOX 17 25 0 -5
STARTPROPERTIES 19
FOUNDRY "FreeType"
FAMILY_NAME "courier prime cp1252"
WEIGHT_NAME "Medium"
SLANT "R"
SETWIDTH_NAME "Normal"
ADD_STYLE_NAME ""
PIXEL_SIZE 22
POINT_SIZE 160
RESOLUTION_X 100
RESOLUTION_Y 100
SPACING "P"
AVERAGE_WIDTH 101
CHARSET_REGISTRY "ISO10646"
CHARSET_ENCODING "1"
FONT_ASCENT 17
FONT_DESCENT 7
COPYRIGHT "Copyright 2015 The Courier Prime Project Authors (https://github.com/quoteunquoteapps/CourierPrime)."
_OTF_FONTFILE "CourierPrime-Regular.ttf"
_OTF_PSNAME "CourierPrime-Regular"
ENDPROPERTIES
CHARS 219
STARTCHAR 000D
ENCODING 13
SWIDTH 585 0
DWIDTH 13 0
BBX 0 0 0 0
BITMAP
ENDCHAR
STARTCHAR 0020
ENCODING 32
SWIDTH 585 0
DWIDTH 13 0
BBX 0 0 0 0
BITMAP
ENDCHAR
STARTCHAR 0021
ENCODING 33
SWIDTH 585 0
DWIDTH 13 0
BBX 3 14 5 0
BITMAP
E0
60
60
60
40
40
40
40
40
00
00
E0
E0
E0
ENDCHAR
STARTCHAR 0022
ENCODING 34
SWIDTH 585 0
DWIDTH 13 0
BBX 7 6 3 8
BITMAP
C6
C6
C6
C6
C6
C6
ENDCHAR
STARTCHAR 0023
ENCODING 35
SWIDTH 585 0
DWIDTH 13 0
BBX 12 13 1 0
BITMAP
0C40
08C0
0880
7FE0
FFF0
1180
1100
1100
FFE0
FFE0
2200
6200
6600
ENDCHAR
STARTCHAR 0024
ENCODING 36
SWIDTH 585 0
DWIDTH 13 0
BBX 9 15 2 -1
BITMAP
0800
0800
7D80
FF80
C980
C800
FE00
3F80
0980
C880
C980
FF00
8C00
0800
0800
ENDCHAR
STARTCHAR 0025
ENCODING 37
SWIDTH 585 0
DWIDTH 13 0
BBX 12 13 1 0
BITMAP
7000
F800
8860
88C0
F980
7300
0600
1DC0
33E0
6230
C230
03E0
01C0
ENDCHAR
STARTCHAR 0026
ENCODING 38
SWIDTH 585 0
DWIDTH 13 0
BBX 10 13 2 0
BITMAP
3C00
7F00
6300
4300
6000
6000
71C0
D9C0
CD00
8700
C700
FFC0
79C0
ENDCHAR
STARTCHAR 0027
ENCODING 39
SWIDTH 585 0
DWIDTH 13 0
BBX 3 6 5 8
BITMAP
E0
E0
60
60
40
40
ENDCHAR
STARTCHAR 0028
ENCODING 40
SWIDTH 585 0
DWIDTH 13 0
BBX 6 18 3 -4
BITMAP
0C
1C
30
30
60
40
C0
C0
C0
C0
C0
C0
40
60
30
38
1C
04
ENDCHAR
STARTCHAR 0029
ENCODING 41
SWIDTH 585 0
DWIDTH 13 0
BBX 6 19 4 -4
BITMAP
80
C0
60
30
18
18
0C
0C
0C
0C
0C
0C
0C
08
18
30
60
E0
80
ENDCHAR
STARTCHAR 002A
ENCODING 42
SWIDTH 585 0
DWIDTH 13 0
BBX 9 9 2 4
BITMAP
0C00
0800
0800
C980
FF80
0C00
1600
3700
6300
ENDCHAR
STARTCHAR 002B
ENCODING 43
SWIDTH 585 0
DWIDTH 13 0
BBX 9 9 2 1
BITMAP
0800
0800
0800
FF80
FF80
0800
0800
0800
0800
ENDCHAR
STARTCHAR 002C
ENCODING 44
SWIDTH 585 0
DWIDTH 13 0
BBX 4 6 4 -3
BITMAP
70
70
60
E0
C0
C0
ENDCHAR
STARTCHAR 002D
ENCODING 45
SWIDTH 585 0
DWIDTH 13 0
BBX 9 2 2 5
BITMAP
FF80
FF80
ENDCHAR
STARTCHAR 002E
ENCODING 46
SWIDTH 585 0
DWIDTH 13 0
BBX 3 3 5 0
BITMAP
E0
E0
E0
ENDCHAR
STARTCHAR 002F
ENCODING 47
SWIDTH 585 0
DWIDTH 13 0
BBX 9 19 2 -4
BITMAP
0080
0180
0180
0300
0300
0600
0600
0400
0C00
0C00
1800
1800
1000
3000
3000
6000
6000
C000
C000
ENDCHAR
STARTCHAR 0030
ENCODING 48
SWIDTH 585 0
DWIDTH 13 0
BBX 9 13 2 0
BITMAP
1E00
7F00
6300
C180
C180
C180
C180
C180
C180
C180
6300
7F00
1E00
ENDCHAR
STARTCHAR 0031
ENCODING 49
SWIDTH 585 0
DWIDTH 13 0
BBX 9 13 2 0
BITMAP
0C00
1C00
7C00
CC00
0C00
0C00
0C00
0C00
0C00
0C00
0C00
0C00
7F80
ENDCHAR
STARTCHAR 0032
ENCODING 50
SWIDTH 585 0
DWIDTH 13 0
BBX 9 13 2 0
BITMAP
3E00
FF00
C300
C100
0100
0300
0600
0E00
1C00
3880
7180
E180
FF80
ENDCHAR
STARTCHAR 0033
ENCODING 51
SWIDTH 585 0
DWIDTH 13 0
BBX 9 13 2 0
BITMAP
3E00
7F00
4100
0100
0100
1F00
1F00
0300
0180
0180
8180
FF00
3E00
ENDCHAR
STARTCHAR 0034
ENCODING 52
SWIDTH 585 0
DWIDTH 13 0
BBX 9 13 2 0
BITMAP
0600
0E00
0E00
1E00
3600
6600
6600
C600
FF80
0600
0600
0600
1F80
ENDCHAR
STARTCHAR 0035
ENCODING 53
SWIDTH 585 0
DWIDTH 13 0
BBX 9 13 2 0
BITMAP
7F00
7F00
4000
4000
4C00
7F00
4300
0180
0180
0180
8100
FF00
3E00
ENDCHAR
STARTCHAR 0036
ENCODING 54
SWIDTH 585 0
DWIDTH 13 0
BBX 9 13 2 0
BITMAP
0700
1F00
3000
6000
4000
DE00
FF00
C180
C180
C180
6180
7F00
1E00
ENDCHAR
STARTCHAR 0037
ENCODING 55
SWIDTH 585 0
DWIDTH 13 0
BBX 9 13 2 0
BITMAP
FF80
FF80
C100
4300
0300
0200
0600
0400
0C00
0C00
1800
1800
1000
ENDCHAR
STARTCHAR 0038
ENCODING 56
SWIDTH 585 0
DWIDTH 13 0
BBX 9 13 2 0
BITMAP
3E00
7F00
6100
4180
6100
3F00
3E00
6300
C180
C180
C180
7F00
3E00
ENDCHAR
STARTCHAR 0039
ENCODING 57
SWIDTH 585 0
DWIDTH 13 0
BBX 9 13 2 0
BITMAP
3E00
7F00
C100
C180
C180
C180
7F80
3D80
0180
0300
0600
7C00
7800
ENDCHAR
STARTCHAR 003A
ENCODING 58
SWIDTH 585 0
DWIDTH 13 0
BBX 3 10 5 0
BITMAP
E0
E0
E0
00
00
00
00
E0
E0
E0
ENDCHAR
STARTCHAR 003B
ENCODING 59
SWIDTH 585 0
DWIDTH 13 0
BBX 4 13 4 -3
BITMAP
70
70
70
00
00
00
00
70
70
60
60
C0
C0
ENDCHAR
STARTCHAR 003C
ENCODING 60
SWIDTH 585 0
DWIDTH 13 0
BBX 10 10 1 1
BITMAP
00C0
03C0
0F00
3C00
7000
F000
3C00
0F00
03C0
00C0
ENDCHAR
STARTCHAR 003D
ENCODING 61
SWIDTH 585 0
DWIDTH 13 0
BBX 9 6 2 3
BITMAP
FF80
FF80
0000
0000
FF80
FF80
ENDCHAR
STARTCHAR 003E
ENCODING 62
SWIDTH 585 0
DWIDTH 13 0
BBX 10 10 2 1
BITMAP
C000
F000
3C00
0F00
03C0
01C0
0700
3C00
F000
C000
ENDCHAR
STARTCHAR 003F
ENCODING 63
SWIDTH 585 0
DWIDTH 13 0
BBX 7 14 3 0
BITMAP
7C
FE
82
82
06
0E
38
30
30
00
00
30
30
30
ENDCHAR
STARTCHAR 0040
ENCODING 64
SWIDTH 585 0
DWIDTH 13 0
BBX 12 13 1 -2
BITMAP
0F80
3FC0
6060
CFA0
8F20
9930
9130
B320
9FE0
9DC0
C000
7F00
3F00
ENDCHAR
STARTCHAR 0041
ENCODING 65
SWIDTH 585 0
DWIDTH 13 0
BBX 13 13 0 0
BITMAP
3F00
1F00
0580
0D80
0880
08C0
18C0
1FC0
3FE0
3060
2020
F8F8
F8F8
ENDCHAR
STARTCHAR 0042
ENCODING 66
SWIDTH 585 0
DWIDTH 13 0
BBX 11 13 1 0
BITMAP
FF00
FF80
20C0
20C0
20C0
2180
3F00
3FC0
2060
2060
2060
FFC0
FF80
ENDCHAR
STARTCHAR 0043
ENCODING 67
SWIDTH 585 0
DWIDTH 13 0
BBX 11 13 1 0
BITMAP
1F60
3FE0
60E0
6060
C060
C000
C000
C000
C000
6000
6060
3FE0
1F80
ENDCHAR
STARTCHAR 0044
ENCODING 68
SWIDTH 585 0
DWIDTH 13 0
BBX 11 13 1 0
BITMAP
FF00
FF80
20C0
2060
2060
2060
2020
2060
2060
2060
20C0
FF80
FF00
ENDCHAR
STARTCHAR 0045
ENCODING 69
SWIDTH 585 0
DWIDTH 13 0
BBX 11 13 1 0
BITMAP
FFE0
2060
2060
2060
2300
2300
3F00
2300
2300
2060
2060
2060
FFE0
ENDCHAR
STARTCHAR 0046
ENCODING 70
SWIDTH 585 0
DWIDTH 13 0
BBX 11 13 1 0
BITMAP
FFE0
FFE0
3060
3060
3300
3300
3F00
3F00
3300
3000
3000
FC00
FE00
ENDCHAR
STARTCHAR 0047
ENCODING 71
SWIDTH 585 0
DWIDTH 13 0
BBX 12 13 1 0
BITMAP
1F40
3FC0
60C0
4040
C000
C000
C000
C3F0
C3E0
4060
6060
3FE0
1F80
ENDCHAR
STARTCHAR 0048
ENCODING 72
SWIDTH 585 0
DWIDTH 13 0
BBX 11 13 1 0
BITMAP
F9E0
F1E0
60C0
60C0
60C0
60C0
7FC0
7FC0
60C0
60C0
60C0
F1E0
F9E0
ENDCHAR
STARTCHAR 0049
ENCODING 73
SWIDTH 585 0
DWIDTH 13 0
BBX 9 13 2 0
BITMAP
FF80
7F80
0800
0800
0800
0800
0800
0800
0800
0800
0800
FF80
FF80
ENDCHAR
STARTCHAR 004A
ENCODING 74
SWIDTH 585 0
DWIDTH 13 0
BBX 11 13 1 0
BITMAP
1FE0
1FE0
0180
0180
0180
0180
0180
C180
C180
C180
C100
7F00
3E00
ENDCHAR
STARTCHAR 004B
ENCODING 75
SWIDTH 585 0
DWIDTH 13 0
BBX 12 13 1 0
BITMAP
F9E0
F9E0
2180
2300
2600
2C00
3F00
3F00
2180
2180
20C0
F8E0
FC70
ENDCHAR
STARTCHAR 004C
ENCODING 76
SWIDTH 585 0
DWIDTH 13 0
BBX 11 13 1 0
BITMAP
FE00
3000
3000
3000
3000
3000
3000
3060
3060
3060
3060
3060
FFE0
ENDCHAR
STARTCHAR 004D
ENCODING 77
SWIDTH 585 0
DWIDTH 13 0
BBX 13 13 0 0
BITMAP
7078
7870
38E0
28A0
2DA0
2DA0
2520
2720
2330
2030
2030
78F8
F8F8
ENDCHAR
STARTCHAR 004E
ENCODING 78
SWIDTH 585 0
DWIDTH 13 0
BBX 11 13 1 0
BITMAP
F1E0
F1E0
7840
7840
6C40
6440
6640
6240
6340
61C0
61C0
F8C0
F8C0
ENDCHAR
STARTCHAR 004F
ENCODING 79
SWIDTH 585 0
DWIDTH 13 0
BBX 11 13 1 0
BITMAP
1F00
3F80
60C0
C060
C060
C060
C020
C060
C060
C060
60C0
3F80
1F00
ENDCHAR
STARTCHAR 0050
ENCODING 80
SWIDTH 585 0
DWIDTH 13 0
BBX 11 13 1 0
BITMAP
FF80
FFC0
3060
3060
3060
3060
30C0
3FC0
3E00
3000
3000
FE00
FE00
ENDCHAR
STARTCHAR 0051
ENCODING 81
SWIDTH 585 0
DWIDTH 13 0
BBX 11 16 1 -3
BITMAP
1F00
3F80
60C0
C060
C060
C060
C020
C060
C060
C060
60C0
3F80
1F00
1800
3FE0
7FC0
ENDCHAR
STARTCHAR 0052
ENCODING 82
SWIDTH 585 0
DWIDTH 13 0
BBX 12 13 1 0
BITMAP
FF00
FFC0
20C0
2040
20C0
20C0
3F80
3F00
2180
2180
20C0
F8E0
FC70
ENDCHAR
STARTCHAR 0053
ENCODING 83
SWIDTH 585 0
DWIDTH 13 0
BBX 9 13 2 0
BITMAP
3D80
FF80
C180
C180
C000
7800
3F00
0380
0080
8080
C180
FF80
9E00
ENDCHAR
STARTCHAR 0054
ENCODING 84
SWIDTH 585 0
DWIDTH 13 0
BBX 11 13 1 0
BITMAP
FFE0
FFE0
C460
C460
C460
4420
0400
0400
0400
0400
0400
3F80
3FC0
ENDCHAR
STARTCHAR 0055
ENCODING 85
SWIDTH 585 0
DWIDTH 13 0
BBX 11 13 1 0
BITMAP
F9E0
F1E0
60C0
60C0
60C0
60C0
60C0
60C0
60C0
60C0
60C0
3F80
1F00
ENDCHAR
STARTCHAR 0056
ENCODING 86
SWIDTH 585 0
DWIDTH 13 0
BBX 13 13 0 0
BITMAP
F8F8
F8F8
3020
3060
1060
1840
18C0
0880
0D80
0D80
0500
0700
0300
ENDCHAR
STARTCHAR 0057
ENCODING 87
SWIDTH 585 0
DWIDTH 13 0
BBX 13 13 0 0
BITMAP
F8F8
F878
6030
6230
6730
2730
2520
25A0
3DA0
38E0
38E0
38E0
1060
ENDCHAR
STARTCHAR 0058
ENCODING 88
SWIDTH 585 0
DWIDTH 13 0
BBX 12 13 1 0
BITMAP
F9E0
F9E0
3180
1980
1B00
0E00
0E00
0F00
1B00
3180
20C0
F1E0
F3F0
ENDCHAR
STARTCHAR 0059
ENCODING 89
SWIDTH 585 0
DWIDTH 13 0
BBX 12 13 1 0
BITMAP
F9F0
F1E0
20C0
3180
1900
1B00
0E00
0400
0400
0400
0400
3F80
3FC0
ENDCHAR
STARTCHAR 005A
ENCODING 90
SWIDTH 585 0
DWIDTH 13 0
BBX 9 13 2 0
BITMAP
FF80
C180
C300
C300
C600
0C00
0C00
1800
3080
2080
6080
C080
FF80
ENDCHAR
STARTCHAR 005B
ENCODING 91
SWIDTH 585 0
DWIDTH 13 0
BBX 5 18 4 -4
BITMAP
F8
F8
80
80
80
80
80
80
80
80
80
80
80
80
80
80
F8
F8
ENDCHAR
STARTCHAR 005C
ENCODING 92
SWIDTH 585 0
DWIDTH 13 0
BBX 9 19 2 -4
BITMAP
4000
C000
4000
6000
2000
3000
3000
1800
1800
0800
0C00
0C00
0600
0600
0200
0300
0300
0180
0180
ENDCHAR
STARTCHAR 005D
ENCODING 93
SWIDTH 585 0
DWIDTH 13 0
BBX 6 18 4 -4
BITMAP
FC
FC
0C
0C
0C
0C
0C
0C
0C
0C
0C
0C
0C
0C
0C
0C
FC
FC
ENDCHAR
STARTCHAR 005E
ENCODING 94
SWIDTH 585 0
DWIDTH 13 0
BBX 9 8 2 5
BITMAP
0800
0C00
1C00
3600
3200
6300
6100
C180
ENDCHAR
STARTCHAR 005F
ENCODING 95
SWIDTH 585 0
DWIDTH 13 0
BBX 14 2 0 -4
BITMAP
FFF8
FFFC
ENDCHAR
STARTCHAR 0060
ENCODING 96
SWIDTH 585 0
DWIDTH 13 0
BBX 6 4 3 11
BITMAP
40
F0
38
0C
ENDCHAR
STARTCHAR 0061
ENCODING 97
SWIDTH 585 0
DWIDTH 13 0
BBX 11 10 1 0
BITMAP
1F00
7F80
40C0
00C0
3FC0
7FC0
C0C0
C1C0
7FE0
3E60
ENDCHAR
STARTCHAR 0062
ENCODING 98
SWIDTH 585 0
DWIDTH 13 0
BBX 12 14 0 0
BITMAP
F000
7000
3000
3000
3780
3FE0
3860
3030
3030
3030
3030
3860
7FE0
7780
ENDCHAR
STARTCHAR 0063
ENCODING 99
SWIDTH 585 0
DWIDTH 13 0
BBX 10 10 1 0
BITMAP
1F40
3FC0
60C0
4040
C000
C000
4000
6040
3FC0
1F00
ENDCHAR
STARTCHAR 0064
ENCODING 100
SWIDTH 585 0
DWIDTH 13 0
BBX 12 14 1 0
BITMAP
03C0
03C0
00C0
00C0
1EC0
3FC0
61C0
40C0
C0C0
C0C0
40C0
61C0
3F60
1E70
ENDCHAR
STARTCHAR 0065
ENCODING 101
SWIDTH 585 0
DWIDTH 13 0
BBX 10 10 2 0
BITMAP
3E00
7F00
C180
C080
FFC0
FF80
8000
C000
7F80
3F00
ENDCHAR
STARTCHAR 0066
ENCODING 102
SWIDTH 585 0
DWIDTH 13 0
BBX 10 14 2 0
BITMAP
0F80
1FC0
1800
1000
1000
FF80
FF80
1000
1000
1000
1000
1000
FF80
FF80
ENDCHAR
STARTCHAR 0067
ENCODING 103
SWIDTH 585 0
DWIDTH 13 0
BBX 12 14 1 -4
BITMAP
1E70
3F60
61C0
40C0
C0C0
C0C0
40C0
61C0
3FC0
1EC0
00C0
00C0
7F80
3F00
ENDCHAR
STARTCHAR 0068
ENCODING 104
SWIDTH 585 0
DWIDTH 13 0
BBX 11 14 1 0
BITMAP
E000
E000
6000
6000
6780
6F80
70C0
70C0
60C0
60C0
60C0
60C0
F1E0
F9E0
ENDCHAR
STARTCHAR 0069
ENCODING 105
SWIDTH 585 0
DWIDTH 13 0
BBX 10 15 2 0
BITMAP
0C00
0C00
0C00
0000
0000
7C00
7C00
0C00
0C00
0C00
0C00
0C00
0C00
FF80
FFC0
ENDCHAR
STARTCHAR 006A
ENCODING 106
SWIDTH 585 0
DWIDTH 13 0
BBX 8 19 2 -4
BITMAP
03
03
03
00
00
7F
7F
03
03
03
03
03
03
03
03
03
83
FE
3C
ENDCHAR
STARTCHAR 006B
ENCODING 107
SWIDTH 585 0
DWIDTH 13 0
BBX 11 14 1 0
BITMAP
E000
E000
2000
2000
23E0
23E0
2380
2600
2E00
3B00
3300
2180
F9E0
F9E0
ENDCHAR
STARTCHAR 006C
ENCODING 108
SWIDTH 585 0
DWIDTH 13 0
BBX 10 14 2 0
BITMAP
FC00
7C00
0C00
0C00
0C00
0C00
0C00
0C00
0C00
0C00
0C00
0C00
FF80
FFC0
ENDCHAR
STARTCHAR 006D
ENCODING 109
SWIDTH 585 0
DWIDTH 13 0
BBX 13 10 0 0
BITMAP
EE60
FEF0
3330
2310
2310
2310
2310
2310
F398
F398
ENDCHAR
STARTCHAR 006E
ENCODING 110
SWIDTH 585 0
DWIDTH 13 0
BBX 12 10 1 0
BITMAP
E780
EFC0
30C0
30C0
20C0
20C0
20C0
20C0
F9E0
F9F0
ENDCHAR
STARTCHAR 006F
ENCODING 111
SWIDTH 585 0
DWIDTH 13 0
BBX 11 10 1 0
BITMAP
1F00
3F80
60C0
4060
C060
C060
4060
60C0
3F80
1F00
ENDCHAR
STARTCHAR 0070
ENCODING 112
SWIDTH 585 0
DWIDTH 13 0
BBX 12 14 0 -4
BITMAP
7780
7FE0
3860
3030
3030
3030
3030
3860
3FE0
3780
3000
3000
7C00
FC00
ENDCHAR
STARTCHAR 0071
ENCODING 113
SWIDTH 585 0
DWIDTH 13 0
BBX 12 14 1 -4
BITMAP
1E70
3F60
61C0
40C0
C0C0
C0C0
40C0
61C0
3FC0
1EC0
00C0
00C0
03F0
03F0
ENDCHAR
STARTCHAR 0072
ENCODING 114
SWIDTH 585 0
DWIDTH 13 0
BBX 10 10 2 0
BITMAP
E3C0
E7C0
2800
3800
3000
3000
3000
3000
FF00
FF00
ENDCHAR
STARTCHAR 0073
ENCODING 115
SWIDTH 585 0
DWIDTH 13 0
BBX 9 10 2 0
BITMAP
7D80
FF80
C180
C000
7E00
0F80
8080
C180
FF80
DF00
ENDCHAR
STARTCHAR 0074
ENCODING 116
SWIDTH 585 0
DWIDTH 13 0
BBX 11 13 1 0
BITMAP
1800
1800
1800
1800
FFC0
7FC0
1800
1800
1800
1800
1840
0FE0
0F80
ENDCHAR
STARTCHAR 0075
ENCODING 117
SWIDTH 585 0
DWIDTH 13 0
BBX 11 10 1 0
BITMAP
E3C0
E3C0
60C0
60C0
60C0
60C0
60C0
61C0
3FE0
1EE0
ENDCHAR
STARTCHAR 0076
ENCODING 118
SWIDTH 585 0
DWIDTH 13 0
BBX 12 10 1 0
BITMAP
F9F0
F1E0
60C0
2080
3180
1180
1B00
0B00
0E00
0E00
ENDCHAR
STARTCHAR 0077
ENCODING 119
SWIDTH 585 0
DWIDTH 13 0
BBX 13 10 0 0
BITMAP
F078
F078
6210
6730
2730
2520
3DE0
3CE0
18C0
18C0
ENDCHAR
STARTCHAR 0078
ENCODING 120
SWIDTH 585 0
DWIDTH 13 0
BBX 11 10 1 0
BITMAP
F9E0
F9E0
3180
1B00
0E00
0E00
1B00
3180
F1E0
F3E0
ENDCHAR
STARTCHAR 0079
ENCODING 121
SWIDTH 585 0
DWIDTH 13 0
BBX 12 14 1 -4
BITMAP
F9F0
F1E0
60C0
3080
3180
1900
1B00
0E00
0600
0400
0C00
1800
7800
E000
ENDCHAR
STARTCHAR 007A
ENCODING 122
SWIDTH 585 0
DWIDTH 13 0
BBX 9 10 2 0
BITMAP
FF80
C180
C300
C600
0C00
1800
3080
6080
C080
FF80
ENDCHAR
STARTCHAR 007B
ENCODING 123
SWIDTH 585 0
DWIDTH 13 0
BBX 9 19 2 -4
BITMAP
0100
0780
0C00
1800
1800
1800
1800
1800
F000
E000
1800
1800
0800
1800
1800
1800
0C00
0F80
0100
ENDCHAR
STARTCHAR 007C
ENCODING 124
SWIDTH 585 0
DWIDTH 13 0
BBX 1 19 6 -4
BITMAP
80
80
80
80
80
80
80
80
80
80
80
80
80
80
80
80
80
80
80
ENDCHAR
STARTCHAR 007D
ENCODING 125
SWIDTH 585 0
DWIDTH 13 0
BBX 8 19 3 -4
BITMAP
80
F0
30
18
18
18
18
18
0F
07
08
18
18
18
18
18
30
F0
80
ENDCHAR
STARTCHAR 007E
ENCODING 126
SWIDTH 585 0
DWIDTH 13 0
BBX 10 3 2 5
BITMAP
7080
FFC0
8700
ENDCHAR
STARTCHAR 00A0
ENCODING 160
SWIDTH 585 0
DWIDTH 13 0
BBX 0 0 0 0
BITMAP
ENDCHAR
STARTCHAR 00A1
ENCODING 161
SWIDTH 585 0
DWIDTH 13 0
BBX 3 14 5 -4
BITMAP
E0
E0
E0
00
00
40
40
40
40
40
60
60
60
E0
ENDCHAR
STARTCHAR 00A2
ENCODING 162
SWIDTH 585 0
DWIDTH 13 0
BBX 10 15 1 -1
BITMAP
0400
0400
1F40
3DC0
64C0
4440
C400
C400
4400
6440
7DC0
1F80
0400
0400
0400
ENDCHAR
STARTCHAR 00A3
ENCODING 163
SWIDTH 585 0
DWIDTH 13 0
BBX 9 13 2 0
BITMAP
1E00
3F00
6100
6100
6000
2000
FF00
7E00
3000
3000
2000
7F80
FF00
ENDCHAR
STARTCHAR 00A4
ENCODING 164
SWIDTH 585 0
DWIDTH 13 0
BBX 11 11 1 1
BITMAP
C060
E460
7FC0
3180
60C0
60C0
60C0
20C0
3FC0
7FE0
C060
ENDCHAR
STARTCHAR 00A5
ENCODING 165
SWIDTH 585 0
DWIDTH 13 0
BBX 12 13 1 0
BITMAP
F9F0
F1E0
20C0
3180
79C0
7BE0
0E00
7FC0
7FC0
0400
0400
3F80
3FC0
ENDCHAR
STARTCHAR 00A6
ENCODING 166
SWIDTH 585 0
DWIDTH 13 0
BBX 1 19 6 -4
BITMAP
80
80
80
80
80
80
80
80
80
00
00
80
80
80
80
80
80
80
80
ENDCHAR
STARTCHAR 00A7
ENCODING 167
SWIDTH 585 0
DWIDTH 13 0
BBX 9 15 2 -2
BITMAP
3F80
7F80
6180
6100
7000
DC00
C700
E380
3980
1D80
0780
4300
4300
7F00
7E00
ENDCHAR
STARTCHAR 00A8
ENCODING 168
SWIDTH 585 0
DWIDTH 13 0
BBX 7 3 3 12
BITMAP
C6
C6
C6
ENDCHAR
STARTCHAR 00A9
ENCODING 169
SWIDTH 585 0
DWIDTH 13 0
BBX 13 13 0 0
BITMAP
0F80
1FE0
3030
6790
4F98
D818
D818
D818
4F98
6790
3030
1FE0
0F80
ENDCHAR
STARTCHAR 00AA
ENCODING 170
SWIDTH 585 0
DWIDTH 13 0
BBX 8 8 3 5
BITMAP
7C
C6
06
7E
C6
86
CE
7B
ENDCHAR
STARTCHAR 00AB
ENCODING 171
SWIDTH 585 0
DWIDTH 13 0
BBX 10 8 2 2
BITMAP
10C0
3180
6300
C600
C600
6300
3180
10C0
ENDCHAR
STARTCHAR 00AC
ENCODING 172
SWIDTH 585 0
DWIDTH 13 0
BBX 11 6 1 4
BITMAP
7FC0
FFE0
0060
0060
0060
0060
ENDCHAR
STARTCHAR 00AD
ENCODING 173
SWIDTH 585 0
DWIDTH 13 0
BBX 9 2 2 4
BITMAP
7F80
FF80
ENDCHAR
STARTCHAR 00AE
ENCODING 174
SWIDTH 585 0
DWIDTH 13 0
BBX 11 11 1 3
BITMAP
1F00
3F80
6CC0
4F40
C920
CF20
CE20
4B40
60C0
3F80
1F00
ENDCHAR
STARTCHAR 00AF
ENCODING 175
SWIDTH 585 0
DWIDTH 13 0
BBX 7 2 3 12
BITMAP
FE
FE
ENDCHAR
STARTCHAR 00B0
ENCODING 176
SWIDTH 585 0
DWIDTH 13 0
BBX 6 6 3 7
BITMAP
70
F8
8C
8C
F8
70
ENDCHAR
STARTCHAR 00B1
ENCODING 177
SWIDTH 585 0
DWIDTH 13 0
BBX 9 11 2 1
BITMAP
0800
0800
0800
FF80
FF80
0800
0800
0800
0000
FF80
FF80
ENDCHAR
STARTCHAR 00B2
ENCODING 178
SWIDTH 585 0
DWIDTH 13 0
BBX 7 9 3 5
BITMAP
7C
CC
C6
06
0C
18
32
E2
FE
ENDCHAR
STARTCHAR 00B3
ENCODING 179
SWIDTH 585 0
DWIDTH 13 0
BBX 7 9 3 5
BITMAP
7C
CC
C6
04
3C
06
06
CE
7C
ENDCHAR
STARTCHAR 00B4
ENCODING 180
SWIDTH 585 0
DWIDTH 13 0
BBX 6 4 4 11
BITMAP
0C
1C
70
C0
ENDCHAR
STARTCHAR 00B5
ENCODING 181
SWIDTH 585 0
DWIDTH 13 0
BBX 9 14 2 -4
BITMAP
C180
C180
C180
C180
C180
C180
C180
C380
FF80
FD80
C000
C000
C000
C000
ENDCHAR
STARTCHAR 00B6
ENCODING 182
SWIDTH 585 0
DWIDTH 13 0
BBX 11 17 1 -4
BITMAP
3FE0
7FE0
7CC0
FCC0
FCC0
7CC0
3CC0
04C0
04C0
04C0
04C0
04C0
04C0
04C0
04C0
04C0
04C0
ENDCHAR
STARTCHAR 00B7
ENCODING 183
SWIDTH 585 0
DWIDTH 13 0
BBX 3 3 5 5
BITMAP
E0
E0
E0
ENDCHAR
STARTCHAR 00B8
ENCODING 184
SWIDTH 585 0
DWIDTH 13 0
BBX 5 5 4 -5
BITMAP
20
20
38
08
F8
ENDCHAR
STARTCHAR 00B9
ENCODING 185
SWIDTH 585 0
DWIDTH 13 0
BBX 7 9 3 5
BITMAP
18
78
D8
18
18
18
18
18
FE
ENDCHAR
STARTCHAR 00BA
ENCODING 186
SWIDTH 585 0
DWIDTH 13 0
BBX 8 8 3 5
BITMAP
7C
E6
82
83
83
82
EE
3C
ENDCHAR
STARTCHAR 00BB
ENCODING 187
SWIDTH 585 0
DWIDTH 13 0
BBX 10 8 2 2
BITMAP
8400
C600
6300
3180
31C0
6300
C600
8400
ENDCHAR
STARTCHAR 00BC
ENCODING 188
SWIDTH 585 0
DWIDTH 13 0
BBX 13 17 0 -2
BITMAP
3000
F000
B000
3000
3000
3010
FC30
F8C0
0300
0E30
1870
6050
0090
01F8
01F8
0010
0010
ENDCHAR
STARTCHAR 00BD
ENCODING 189
SWIDTH 585 0
DWIDTH 13 0
BBX 13 17 0 -2
BITMAP
2000
F000
B000
3000
3000
3010
FC60
00C0
0300
0600
18F0
7198
4098
0010
0060
00C8
01F8
ENDCHAR
STARTCHAR 00BE
ENCODING 190
SWIDTH 585 0
DWIDTH 13 0
BBX 13 18 0 -2
BITMAP
3000
F800
CC00
0800
3800
3C00
0400
FC30
78C0
0300
0E30
1870
6050
0090
01F8
01F8
0010
0010
ENDCHAR
STARTCHAR 00BF
ENCODING 191
SWIDTH 585 0
DWIDTH 13 0
BBX 7 14 3 -4
BITMAP
18
18
18
00
00
18
18
38
70
C0
82
C2
FE
7C
ENDCHAR
STARTCHAR 00C0
ENCODING 192
SWIDTH 585 0
DWIDTH 13 0
BBX 13 18 0 0
BITMAP
1800
1C00
0700
0100
0000
3F00
1F00
0580
0D80
0880
08C0
18C0
1FC0
3FE0
3060
2020
F8F8
F8F8
ENDCHAR
STARTCHAR 00C1
ENCODING 193
SWIDTH 585 0
DWIDTH 13 0
BBX 13 18 0 0
BITMAP
0180
0380
0E00
0C00
0000
3F00
1F00
0580
0D80
0880
08C0
18C0
1FC0
3FE0
3060
2020
F8F8
F8F8
ENDCHAR
STARTCHAR 00C2
ENCODING 194
SWIDTH 585 0
DWIDTH 13 0
BBX 13 18 0 0
BITMAP
0600
0F00
1D80
10C0
0000
3F00
1F00
0580
0D80
0880
08C0
18C0
1FC0
3FE0
3060
2020
F8F8
F8F8
ENDCHAR
STARTCHAR 00C3
ENCODING 195
SWIDTH 585 0
DWIDTH 13 0
BBX 13 18 0 0
BITMAP
0840
1FC0
3380
0000
0000
3F00
1F00
0580
0D80
0880
08C0
18C0
1FC0
3FE0
3060
2020
F8F8
F8F8
ENDCHAR
STARTCHAR 00C4
ENCODING 196
SWIDTH 585 0
DWIDTH 13 0
BBX 13 18 0 0
BITMAP
18C0
18C0
18C0
0000
0000
3F00
1F00
0580
0D80
0880
08C0
18C0
1FC0
3FE0
3060
2020
F8F8
F8F8
ENDCHAR
STARTCHAR 00C5
ENCODING 197
SWIDTH 585 0
DWIDTH 13 0
BBX 13 20 0 0
BITMAP
0600
0F00
0980
0980
0F80
0700
0000
3F00
1F00
0580
0D80
0880
08C0
18C0
1FC0
3FE0
3060
2020
F8F8
F8F8
ENDCHAR
STARTCHAR 00C6
ENCODING 198
SWIDTH 585 0
DWIDTH 13 0
BBX 12 13 0 0
BITMAP
3FF0
0F30
0F30
0B30
1B00
1B00
13C0
3300
3F00
3310
2310
6310
FBF0
ENDCHAR
STARTCHAR 00C7
ENCODING 199
SWIDTH 585 0
DWIDTH 13 0
BBX 11 18 1 -5
BITMAP
1F60
3FE0
60E0
6060
C060
C000
C000
C000
4000
6000
70E0
3FC0
0F00
0400
0700
0180
1180
1F00
ENDCHAR
STARTCHAR 00C8
ENCODING 200
SWIDTH 585 0
DWIDTH 13 0
BBX 11 18 1 0
BITMAP
1800
1C00
0600
0300
0000
FFE0
2060
2060
2060
2300
2300
3F00
2300
2300
2060
2060
2060
FFE0
ENDCHAR
STARTCHAR 00C9
ENCODING 201
SWIDTH 585 0
DWIDTH 13 0
BBX 11 18 1 0
BITMAP
0100
0700
0E00
1800
0000
FFE0
2060
2060
2060
2300
2300
3F00
2300
2300
2060
2060
2060
FFE0
ENDCHAR
STARTCHAR 00CA
ENCODING 202
SWIDTH 585 0
DWIDTH 13 0
BBX 11 18 1 0
BITMAP
0600
0F00
1980
3080
0000
FFE0
2060
2060
2060
2300
2300
3F00
2300
2300
2060
2060
2060
FFE0
ENDCHAR
STARTCHAR 00CB
ENCODING 203
SWIDTH 585 0
DWIDTH 13 0
BBX 11 18 1 0
BITMAP
1980
1980
1980
0000
0000
FFE0
2060
2060
2060
2300
2300
3F00
2300
2300
2060
2060
2060
FFE0
ENDCHAR
STARTCHAR 00CC
ENCODING 204
SWIDTH 585 0
DWIDTH 13 0
BBX 9 18 2 0
BITMAP
2000
7800
1C00
0600
0000
FF80
7F80
0800
0800
0800
0800
0800
0800
0800
0800
0800
FF80
FF80
ENDCHAR
STARTCHAR 00CD
ENCODING 205
SWIDTH 585 0
DWIDTH 13 0
BBX 9 18 2 0
BITMAP
0300
0700
1C00
3000
0000
FF80
7F80
0800
0800
0800
0800
0800
0800
0800
0800
0800
FF80
FF80
ENDCHAR
STARTCHAR 00CE
ENCODING 206
SWIDTH 585 0
DWIDTH 13 0
BBX 9 18 2 0
BITMAP
0C00
1E00
3700
6100
0000
FF80
7F80
0800
0800
0800
0800
0800
0800
0800
0800
0800
FF80
FF80
ENDCHAR
STARTCHAR 00CF
ENCODING 207
SWIDTH 585 0
DWIDTH 13 0
BBX 9 18 2 0
BITMAP
6300
6300
6300
0000
0000
FF80
7F80
0800
0800
0800
0800
0800
0800
0800
0800
0800
FF80
FF80
ENDCHAR
STARTCHAR 00D0
ENCODING 208
SWIDTH 585 0
DWIDTH 13 0
BBX 11 13 1 0
BITMAP
FF00
FF80
20C0
2060
2060
2060
FC20
FC60
2060
2060
20C0
FF80
FF00
ENDCHAR
STARTCHAR 00D1
ENCODING 209
SWIDTH 585 0
DWIDTH 13 0
BBX 11 18 1 0
BITMAP
0880
3F80
2300
0000
0000
F1E0
F1E0
7840
7840
6C40
6440
6640
6240
6340
61C0
61C0
F8C0
F8C0
ENDCHAR
STARTCHAR 00D2
ENCODING 210
SWIDTH 585 0
DWIDTH 13 0
BBX 11 18 1 0
BITMAP
1800
1C00
0E00
0300
0000
1F00
3F80
60C0
C060
C060
C060
C020
C060
C060
C060
60C0
3F80
1F00
ENDCHAR
STARTCHAR 00D3
ENCODING 211
SWIDTH 585 0
DWIDTH 13 0
BBX 11 18 1 0
BITMAP
0100
0780
0E00
1800
0000
1F00
3F80
60C0
C060
C060
C060
C020
C060
C060
C060
60C0
3F80
1F00
ENDCHAR
STARTCHAR 00D4
ENCODING 212
SWIDTH 585 0
DWIDTH 13 0
BBX 11 18 1 0
BITMAP
0600
0F00
1B80
3080
0000
1F00
3F80
60C0
C060
C060
C060
C020
C060
C060
C060
60C0
3F80
1F00
ENDCHAR
STARTCHAR 00D5
ENCODING 213
SWIDTH 585 0
DWIDTH 13 0
BBX 11 18 1 0
BITMAP
0880
3F80
2300
0000
0000
1F00
3F80
60C0
C060
C060
C060
C020
C060
C060
C060
60C0
3F80
1F00
ENDCHAR
STARTCHAR 00D6
ENCODING 214
SWIDTH 585 0
DWIDTH 13 0
BBX 11 18 1 0
BITMAP
3180
3180
3180
0000
0000
1F00
3F80
60C0
C060
C060
C060
C020
C060
C060
C060
60C0
3F80
1F00
ENDCHAR
STARTCHAR 00D7
ENCODING 215
SWIDTH 585 0
DWIDTH 13 0
BBX 9 8 2 2
BITMAP
C180
6300
3600
1C00
1C00
3600
6300
C180
ENDCHAR
STARTCHAR 00D8
ENCODING 216
SWIDTH 585 0
DWIDTH 13 0
BBX 11 14 1 0
BITMAP
0060
1F60
3FC0
60C0
C1E0
C360
C660
C620
CC60
D860
D060
70C0
7F80
DF00
ENDCHAR
STARTCHAR 00D9
ENCODING 217
SWIDTH 585 0
DWIDTH 13 0
BBX 11 18 1 0
BITMAP
1000
3C00
0E00
0300
0000
F9E0
F1E0
60C0
60C0
60C0
60C0
60C0
60C0
60C0
60C0
60C0
3F80
1F00
ENDCHAR
STARTCHAR 00DA
ENCODING 218
SWIDTH 585 0
DWIDTH 13 0
BBX 11 18 1 0
BITMAP
0180
0380
0E00
1800
0000
F9E0
F1E0
60C0
60C0
60C0
60C0
60C0
60C0
60C0
60C0
60C0
3F80
1F00
ENDCHAR
STARTCHAR 00DB
ENCODING 219
SWIDTH 585 0
DWIDTH 13 0
BBX 11 18 1 0
BITMAP
0600
0F00
1B80
3080
0000
F9E0
F1E0
60C0
60C0
60C0
60C0
60C0
60C0
60C0
60C0
60C0
3F80
1F00
ENDCHAR
STARTCHAR 00DC
ENCODING 220
SWIDTH 585 0
DWIDTH 13 0
BBX 11 18 1 0
BITMAP
3180
3180
3180
0000
0000
F9E0
F1E0
60C0
60C0
60C0
60C0
60C0
60C0
60C0
60C0
60C0
3F80
1F00
ENDCHAR
STARTCHAR 00DD
ENCODING 221
SWIDTH 585 0
DWIDTH 13 0
BBX 12 18 1 0
BITMAP
0180
0380
0E00
0800
0000
F9F0
F1E0
20C0
3180
1900
1B00
0E00
0400
0400
0400
0400
3F80
3FC0
ENDCHAR
STARTCHAR 00DE
ENCODING 222
SWIDTH 585 0
DWIDTH 13 0
BBX 11 13 1 0
BITMAP
FE00
FE00
1000
1F80
1FC0
1040
1060
1040
1FC0
1F80
1000
FE00
FE00
ENDCHAR
STARTCHAR 00DF
ENCODING 223
SWIDTH 585 0
DWIDTH 13 0
BBX 11 14 0 0
BITMAP
0F80
1FC0
1860
1060
1060
10C0
1380
10C0
1060
1020
1020
1060
73C0
F380
ENDCHAR
STARTCHAR 00E0
ENCODING 224
SWIDTH 585 0
DWIDTH 13 0
BBX 11 15 1 0
BITMAP
1800
1C00
0700
0100
0000
1F00
7F80
40C0
00C0
3FC0
7FC0
C0C0
C1C0
7FE0
3E60
ENDCHAR
STARTCHAR 00E1
ENCODING 225
SWIDTH 585 0
DWIDTH 13 0
BBX 11 15 1 0
BITMAP
0300
0700
1C00
1800
0000
1F00
7F80
40C0
00C0
3FC0
7FC0
C0C0
C1C0
7FE0
3E60
ENDCHAR
STARTCHAR 00E2
ENCODING 226
SWIDTH 585 0
DWIDTH 13 0
BBX 11 15 1 0
BITMAP
0600
0F00
1B80
3080
0000
1F00
7F80
40C0
00C0
3FC0
7FC0
C0C0
C1C0
7FE0
3E60
ENDCHAR
STARTCHAR 00E3
ENCODING 227
SWIDTH 585 0
DWIDTH 13 0
BBX 11 15 1 0
BITMAP
0880
3F80
2300
0000
0000
1F00
7F80
40C0
00C0
3FC0
7FC0
C0C0
C1C0
7FE0
3E60
ENDCHAR
STARTCHAR 00E4
ENCODING 228
SWIDTH 585 0
DWIDTH 13 0
BBX 11 15 1 0
BITMAP
3180
3180
3180
0000
0000
1F00
7F80
40C0
00C0
3FC0
7FC0
C0C0
C1C0
7FE0
3E60
ENDCHAR
STARTCHAR 00E5
ENCODING 229
SWIDTH 585 0
DWIDTH 13 0
BBX 11 17 1 0
BITMAP
0400
0F00
1900
1100
1F00
0E00
0000
1F00
7F80
40C0
00C0
3FC0
7FC0
C0C0
C1C0
7FE0
3E60
ENDCHAR
STARTCHAR 00E6
ENCODING 230
SWIDTH 585 0
DWIDTH 13 0
BBX 11 10 1 0
BITMAP
79C0
FFE0
0660
0FE0
7FE0
C400
C600
8E20
FFE0
73C0
ENDCHAR
STARTCHAR 00E7
ENCODING 231
SWIDTH 585 0
DWIDTH 13 0
BBX 10 14 1 -4
BITMAP
1F40
3FC0
60C0
4040
C000
C000
6000
70C0
3FC0
0E00
0400
0700
0100
1F00
ENDCHAR
STARTCHAR 00E8
ENCODING 232
SWIDTH 585 0
DWIDTH 13 0
BBX 10 15 2 0
BITMAP
3000
3800
0E00
0200
0000
3E00
7F00
C180
C080
FFC0
FF80
8000
C000
7F80
3F00
ENDCHAR
STARTCHAR 00E9
ENCODING 233
SWIDTH 585 0
DWIDTH 13 0
BBX 10 15 2 0
BITMAP
0200
0F00
1C00
3000
0000
3E00
7F00
C180
C080
FFC0
FF80
8000
C000
7F80
3F00
ENDCHAR
STARTCHAR 00EA
ENCODING 234
SWIDTH 585 0
DWIDTH 13 0
BBX 10 15 2 0
BITMAP
0C00
1E00
3300
6100
0000
3E00
7F00
C180
C080
FFC0
FF80
8000
C000
7F80
3F00
ENDCHAR
STARTCHAR 00EB
ENCODING 235
SWIDTH 585 0
DWIDTH 13 0
BBX 10 15 2 0
BITMAP
6300
6300
6300
0000
0000
3E00
7F00
C180
C080
FFC0
FF80
8000
C000
7F80
3F00
ENDCHAR
STARTCHAR 00EC
ENCODING 236
SWIDTH 585 0
DWIDTH 13 0
BBX 10 15 2 0
BITMAP
6000
7000
1C00
0400
0000
7C00
7C00
0C00
0C00
0C00
0C00
0C00
0C00
FF80
FFC0
ENDCHAR
STARTCHAR 00ED
ENCODING 237
SWIDTH 585 0
DWIDTH 13 0
BBX 10 15 2 0
BITMAP
0600
0E00
3800
3000
0000
7C00
7C00
0C00
0C00
0C00
0C00
0C00
0C00
FF80
FFC0
ENDCHAR
STARTCHAR 00EE
ENCODING 238
SWIDTH 585 0
DWIDTH 13 0
BBX 10 15 2 0
BITMAP
0C00
1E00
3700
6100
0000
7C00
7C00
0C00
0C00
0C00
0C00
0C00
0C00
FF80
FFC0
ENDCHAR
STARTCHAR 00EF
ENCODING 239
SWIDTH 585 0
DWIDTH 13 0
BBX 10 15 2 0
BITMAP
6300
6300
6300
0000
0000
7C00
7C00
0C00
0C00
0C00
0C00
0C00
0C00
FF80
FFC0
ENDCHAR
STARTCHAR 00F0
ENCODING 240
SWIDTH 585 0
DWIDTH 13 0
BBX 11 14 1 0
BITMAP
18C0
0F80
3F00
0180
1FC0
3FC0
60C0
4060
4060
C060
4060
60C0
3F80
1F00
ENDCHAR
STARTCHAR 00F1
ENCODING 241
SWIDTH 585 0
DWIDTH 13 0
BBX 12 15 1 0
BITMAP
0880
3F80
2300
0000
0000
E780
EFC0
30C0
30C0
20C0
20C0
20C0
20C0
F9E0
F9F0
ENDCHAR
STARTCHAR 00F2
ENCODING 242
SWIDTH 585 0
DWIDTH 13 0
BBX 11 15 1 0
BITMAP
1800
1C00
0E00
0300
0000
1F00
3F80
60C0
4060
C060
C060
4060
60C0
3F80
1F00
ENDCHAR
STARTCHAR 00F3
ENCODING 243
SWIDTH 585 0
DWIDTH 13 0
BBX 11 15 1 0
BITMAP
0100
0780
0E00
1800
0000
1F00
3F80
60C0
4060
C060
C060
4060
60C0
3F80
1F00
ENDCHAR
STARTCHAR 00F4
ENCODING 244
SWIDTH 585 0
DWIDTH 13 0
BBX 11 15 1 0
BITMAP
0600
0F00
1B80
3080
0000
1F00
3F80
60C0
4060
C060
C060
4060
60C0
3F80
1F00
ENDCHAR
STARTCHAR 00F5
ENCODING 245
SWIDTH 585 0
DWIDTH 13 0
BBX 11 15 1 0
BITMAP
0880
3F80
2300
0000
0000
1F00
3F80
60C0
4060
C060
C060
4060
60C0
3F80
1F00
ENDCHAR
STARTCHAR 00F6
ENCODING 246
SWIDTH 585 0
DWIDTH 13 0
BBX 11 15 1 0
BITMAP
3180
3180
3180
0000
0000
1F00
3F80
60C0
4060
C060
C060
4060
60C0
3F80
1F00
ENDCHAR
STARTCHAR 00F7
ENCODING 247
SWIDTH 585 0
DWIDTH 13 0
BBX 9 10 2 1
BITMAP
1C00
1C00
0000
0000
FF80
FF80
0000
0000
1C00
1C00
ENDCHAR
STARTCHAR 00F8
ENCODING 248
SWIDTH 585 0
DWIDTH 13 0
BBX 11 10 1 0
BITMAP
1F20
3FE0
61C0
4360
C660
CC60
5860
70C0
7F80
DF00
ENDCHAR
STARTCHAR 00F9
ENCODING 249
SWIDTH 585 0
DWIDTH 13 0
BBX 11 15 1 0
BITMAP
1000
3C00
0E00
0300
0000
E3C0
E3C0
60C0
60C0
60C0
60C0
60C0
61C0
3FE0
1EE0
ENDCHAR
STARTCHAR 00FA
ENCODING 250
SWIDTH 585 0
DWIDTH 13 0
BBX 11 15 1 0
BITMAP
0180
0380
0E00
1800
0000
E3C0
E3C0
60C0
60C0
60C0
60C0
60C0
61C0
3FE0
1EE0
ENDCHAR
STARTCHAR 00FB
ENCODING 251
SWIDTH 585 0
DWIDTH 13 0
BBX 11 15 1 0
BITMAP
0400
0E00
1B00
3180
0000
E3C0
E3C0
60C0
60C0
60C0
60C0
60C0
61C0
3FE0
1EE0
ENDCHAR
STARTCHAR 00FC
ENCODING 252
SWIDTH 585 0
DWIDTH 13 0
BBX 11 15 1 0
BITMAP
3180
3180
3180
0000
0000
E3C0
E3C0
60C0
60C0
60C0
60C0
60C0
61C0
3FE0
1EE0
ENDCHAR
STARTCHAR 00FD
ENCODING 253
SWIDTH 585 0
DWIDTH 13 0
BBX 12 19 1 -4
BITMAP
0180
0380
0E00
1800
0000
F9F0
F1E0
60C0
3080
3180
1900
1B00
0E00
0600
0400
0C00
1800
7800
E000
ENDCHAR
STARTCHAR 00FE
ENCODING 254
SWIDTH 585 0
DWIDTH 13 0
BBX 12 18 0 -4
BITMAP
7000
7000
3000
3000
3780
3FE0
3860
3030
3030
3030
3030
3860
3FE0
3780
3000
3000
7C00
FC00
ENDCHAR
STARTCHAR 00FF
ENCODING 255
SWIDTH 585 0
DWIDTH 13 0
BBX 12 19 1 -4
BITMAP
3180
3180
3180
0000
0000
F9F0
F1E0
60C0
3080
3180
1900
1B00
0E00
0600
0400
0C00
1800
7800
E000
ENDCHAR
STARTCHAR 0152
ENCODING 140
SWIDTH 585 0
DWIDTH 13 0
BBX 11 13 1 0
BITMAP
1FE0
7660
6660
C660
C600
8600
8780
8600
C600
C620
6620
7620
1FE0
ENDCHAR
STARTCHAR 0153
ENCODING 156
SWIDTH 585 0
DWIDTH 13 0
BBX 11 10 1 0
BITMAP
7BC0
FFE0
CE60
C7E0
87E0
8400
C600
CE20
FFE0
7BC0
ENDCHAR
STARTCHAR 0160
ENCODING 138
SWIDTH 585 0
DWIDTH 13 0
BBX 9 18 2 0
BITMAP
4300
7600
3C00
1800
0000
3D80
FF80
C180
C180
C000
7800
3F00
0380
0080
8080
C180
FF80
9E00
ENDCHAR
STARTCHAR 0161
ENCODING 154
SWIDTH 585 0
DWIDTH 13 0
BBX 9 15 2 0
BITMAP
6300
3600
1C00
0800
0000
7D80
FF80
C180
C000
7E00
0F80
8080
C180
FF80
DF00
ENDCHAR
STARTCHAR 0178
ENCODING 159
SWIDTH 585 0
DWIDTH 13 0
BBX 12 18 1 0
BITMAP
3180
3180
3180
0000
0000
F9F0
F1E0
20C0
3180
1900
1B00
0E00
0400
0400
0400
0400
3F80
3FC0
ENDCHAR
STARTCHAR 017D
ENCODING 142
SWIDTH 585 0
DWIDTH 13 0
BBX 9 18 2 0
BITMAP
6100
3700
1E00
0C00
0000
FF80
C180
C300
C300
C600
0C00
0C00
1800
3080
2080
6080
C080
FF80
ENDCHAR
STARTCHAR 017E
ENCODING 158
SWIDTH 585 0
DWIDTH 13 0
BBX 9 15 2 0
BITMAP
6100
3700
1E00
0C00
0000
FF80
C180
C300
C600
0C00
1800
3080
6080
C080
FF80
ENDCHAR
STARTCHAR 0192
ENCODING 131
SWIDTH 585 0
DWIDTH 13 0
BBX 12 17 0 -3
BITMAP
00F0
01F0
0300
0300
0300
1FE0
1FC0
0200
0200
0600
0600
0600
0600
0600
0400
7C00
F800
ENDCHAR
STARTCHAR 02C6
ENCODING 136
SWIDTH 585 0
DWIDTH 13 0
BBX 7 4 3 11
BITMAP
18
3C
6E
C2
ENDCHAR
STARTCHAR 02DC
ENCODING 152
SWIDTH 585 0
DWIDTH 13 0
BBX 7 3 3 12
BITMAP
22
FE
8C
ENDCHAR
STARTCHAR 2013
ENCODING 150
SWIDTH 585 0
DWIDTH 13 0
BBX 9 2 2 5
BITMAP
FF80
FF80
ENDCHAR
STARTCHAR 2014
ENCODING 151
SWIDTH 585 0
DWIDTH 13 0
BBX 14 2 0 5
BITMAP
FFF8
FFFC
ENDCHAR
STARTCHAR 2018
ENCODING 145
SWIDTH 585 0
DWIDTH 13 0
BBX 3 6 5 8
BITMAP
20
60
60
60
E0
C0
ENDCHAR
STARTCHAR 2019
ENCODING 146
SWIDTH 585 0
DWIDTH 13 0
BBX 4 6 5 8
BITMAP
70
60
E0
C0
C0
80
ENDCHAR
STARTCHAR 201A
ENCODING 130
SWIDTH 585 0
DWIDTH 13 0
BBX 4 6 5 -2
BITMAP
70
60
E0
C0
C0
80
ENDCHAR
STARTCHAR 201C
ENCODING 147
SWIDTH 585 0
DWIDTH 13 0
BBX 9 6 2 8
BITMAP
3080
3180
6180
6300
E300
E700
ENDCHAR
STARTCHAR 201D
ENCODING 148
SWIDTH 585 0
DWIDTH 13 0
BBX 9 6 2 8
BITMAP
7380
7380
6300
E300
C200
C600
ENDCHAR
STARTCHAR 201E
ENCODING 132
SWIDTH 585 0
DWIDTH 13 0
BBX 9 6 2 -2
BITMAP
7380
7380
6300
E300
C200
C600
ENDCHAR
STARTCHAR 2020
ENCODING 134
SWIDTH 585 0
DWIDTH 13 0
BBX 7 10 3 3
BITMAP
10
10
10
FE
FE
10
10
10
10
10
ENDCHAR
STARTCHAR 2021
ENCODING 135
SWIDTH 585 0
DWIDTH 13 0
BBX 7 10 3 3
BITMAP
10
10
FE
FE
10
10
FE
FE
10
10
ENDCHAR
STARTCHAR 2022
ENCODING 149
SWIDTH 585 0
DWIDTH 13 0
BBX 5 5 4 4
BITMAP
F8
F8
F8
F8
F8
ENDCHAR
STARTCHAR 2026
ENCODING 133
SWIDTH 585 0
DWIDTH 13 0
BBX 11 3 1 0
BITMAP
C660
CE60
CE60
ENDCHAR
STARTCHAR 2030
ENCODING 137
SWIDTH 585 0
DWIDTH 13 0
BBX 16 13 1 0
BITMAP
7000
F800
8860
88C0
F980
7300
0600
1DCE
33FF
6231
C231
03FF
01CE
ENDCHAR
STARTCHAR 2039
ENCODING 139
SWIDTH 585 0
DWIDTH 13 0
BBX 5 8 4 2
BITMAP
18
38
70
60
E0
70
30
18
ENDCHAR
STARTCHAR 203A
ENCODING 155
SWIDTH 585 0
DWIDTH 13 0
BBX 5 8 4 2
BITMAP
C0
60
30
18
18
30
60
C0
ENDCHAR
STARTCHAR 20AC
ENCODING 128
SWIDTH 585 0
DWIDTH 13 0
BBX 11 13 1 0
BITMAP
0F60
1FE0
3060
3060
FE60
FE00
6000
FE00
FE00
2000
3020
1FE0
0F80
ENDCHAR
STARTCHAR 2122
ENCODING 153
SWIDTH 585 0
DWIDTH 13 0
BBX 13 6 1 8
BITMAP
FB10
23B0
23B0
23F8
2258
2218
ENDCHAR
ENDFONT
