STARTFONT 2.1
COMMENT
COMMENT Converted from OpenType font "CourierPrime-Bold.ttf" by "otf2bdf 3.0".
COMMENT
FONT -FreeType-courier prime cp1252-Bold-R-Normal--25-180-100-100-P-120-ISO10646-1
SIZE 18 100 100
FONTBOUNDINGBOX 19 29 0 -6
STARTPROPERTIES 19
FOUNDRY "FreeType"
FAMILY_NAME "courier prime cp1252"
WEIGHT_NAME "Bold"
SLANT "R"
SETWIDTH_NAME "Normal"
ADD_STYLE_NAME ""
PIXEL_SIZE 25
POINT_SIZE 180
RESOLUTION_X 100
RESOLUTION_Y 100
SPACING "P"
AVERAGE_WIDTH 120
CHARSET_REGISTRY "ISO10646"
CHARSET_ENCODING "1"
FONT_ASCENT 19
FONT_DESCENT 8
COPYRIGHT "Copyright 2015 The Courier Prime Project Authors (https://github.com/quoteunquoteapps/CourierPrime)."
_OTF_FONTFILE "CourierPrime-Bold.ttf"
_OTF_PSNAME "CourierPrime-Bold"
ENDPROPERTIES
CHARS 219
STARTCHAR 000D
ENCODING 13
SWIDTH 600 0
DWIDTH 15 0
BBX 0 0 0 0
BITMAP
ENDCHAR
STARTCHAR 0020
ENCODING 32
SWIDTH 600 0
DWIDTH 15 0
BBX 0 0 0 0
BITMAP
ENDCHAR
STARTCHAR 0021
ENCODING 33
SWIDTH 600 0
DWIDTH 15 0
BBX 3 16 6 0
BITMAP
E0
E0
E0
E0
E0
E0
E0
E0
E0
E0
00
00
E0
E0
E0
E0
ENDCHAR
STARTCHAR 0022
ENCODING 34
SWIDTH 600 0
DWIDTH 15 0
BBX 11 8 2 9
BITMAP
F1E0
F1E0
F1E0
71C0
71C0
71C0
60C0
60C0
ENDCHAR
STARTCHAR 0023
ENCODING 35
SWIDTH 600 0
DWIDTH 15 0
BBX 13 15 1 0
BITMAP
0E30
0E70
0C70
7FF8
7FF8
7FF8
18E0
18C0
38C0
FFF0
FFF0
FFF0
7180
7380
6380
ENDCHAR
STARTCHAR 0024
ENCODING 36
SWIDTH 600 0
DWIDTH 15 0
BBX 11 18 2 -1
BITMAP
0E00
0E00
0E00
3EC0
7FE0
FFE0
EEC0
FE00
FFC0
7FE0
0FE0
CEE0
FFE0
FFC0
EF80
0E00
0E00
0E00
ENDCHAR
STARTCHAR 0025
ENCODING 37
SWIDTH 600 0
DWIDTH 15 0
BBX 13 15 1 0
BITMAP
7800
FC00
FC38
CC78
FCF0
FDE0
3380
0700
0EF0
3DF8
79F8
F198
E1F8
01F8
00F0
ENDCHAR
STARTCHAR 0026
ENCODING 38
SWIDTH 600 0
DWIDTH 15 0
BBX 13 15 1 0
BITMAP
0F80
3FE0
3FE0
78E0
38C0
3800
3C78
7EF8
7FF8
F7E0
E3C0
F3E0
7FF8
7FF8
3E78
ENDCHAR
STARTCHAR 0027
ENCODING 39
SWIDTH 600 0
DWIDTH 15 0
BBX 5 8 5 9
BITMAP
F8
70
70
70
70
70
70
70
ENDCHAR
STARTCHAR 0028
ENCODING 40
SWIDTH 600 0
DWIDTH 15 0
BBX 8 23 3 -5
BITMAP
02
07
0F
1F
3C
38
78
70
F0
E0
E0
E0
E0
E0
F0
70
78
38
3C
1F
0F
07
02
ENDCHAR
STARTCHAR 0029
ENCODING 41
SWIDTH 600 0
DWIDTH 15 0
BBX 8 23 4 -5
BITMAP
40
E0
F0
F8
3C
1C
1E
0E
0F
07
07
07
07
07
0F
0E
1E
1C
3C
F8
F0
E0
40
ENDCHAR
STARTCHAR 002A
ENCODING 42
SWIDTH 600 0
DWIDTH 15 0
BBX 11 10 2 5
BITMAP
0E00
0E00
0E00
6EC0
FFE0
7FC0
0E00
1B00
3B80
3B80
ENDCHAR
STARTCHAR 002B
ENCODING 43
SWIDTH 600 0
DWIDTH 15 0
BBX 11 11 2 2
BITMAP
0E00
0E00
0E00
0E00
FFE0
FFE0
FFE0
0E00
0E00
0E00
0E00
ENDCHAR
STARTCHAR 002C
ENCODING 44
SWIDTH 600 0
DWIDTH 15 0
BBX 6 8 4 -4
BITMAP
3C
78
78
70
70
60
E0
E0
ENDCHAR
STARTCHAR 002D
ENCODING 45
SWIDTH 600 0
DWIDTH 15 0
BBX 11 3 2 6
BITMAP
FFE0
FFE0
FFE0
ENDCHAR
STARTCHAR 002E
ENCODING 46
SWIDTH 600 0
DWIDTH 15 0
BBX 5 5 5 0
BITMAP
70
F8
F8
F8
70
ENDCHAR
STARTCHAR 002F
ENCODING 47
SWIDTH 600 0
DWIDTH 15 0
BBX 11 23 2 -5
BITMAP
0040
00E0
00E0
01C0
01C0
03C0
0380
0380
0700
0700
0F00
0E00
0E00
1C00
1C00
3C00
3800
3800
7000
7000
F000
E000
E000
ENDCHAR
STARTCHAR 0030
ENCODING 48
SWIDTH 600 0
DWIDTH 15 0
BBX 11 15 2 0
BITMAP
1F00
3F80
7FC0
F1E0
E0E0
E0E0
E0E0
E0E0
E0E0
E0E0
E0E0
F1E0
7FC0
3F80
1F00
ENDCHAR
STARTCHAR 0031
ENCODING 49
SWIDTH 600 0
DWIDTH 15 0
BBX 11 15 2 0
BITMAP
0600
0E00
3E00
FE00
FE00
4E00
0E00
0E00
0E00
0E00
0E00
0E00
7FE0
7FE0
7FE0
ENDCHAR
STARTCHAR 0032
ENCODING 50
SWIDTH 600 0
DWIDTH 15 0
BBX 11 15 2 0
BITMAP
1F00
7F80
FFC0
E1C0
E1C0
61C0
03C0
0780
0F80
1F00
3E40
78E0
FFE0
FFE0
FFE0
ENDCHAR
STARTCHAR 0033
ENCODING 51
SWIDTH 600 0
DWIDTH 15 0
BBX 11 15 2 0
BITMAP
3F00
7F80
7FC0
61C0
61C0
01C0
1FC0
1F80
0FC0
01E0
01E0
41E0
FFC0
FFC0
3F00
ENDCHAR
STARTCHAR 0034
ENCODING 52
SWIDTH 600 0
DWIDTH 15 0
BBX 12 15 1 0
BITMAP
0180
03C0
07C0
0FC0
0FC0
1DC0
39C0
71C0
7FF0
FFF0
7FF0
03C0
0FF0
0FF0
0FF0
ENDCHAR
STARTCHAR 0035
ENCODING 53
SWIDTH 600 0
DWIDTH 15 0
BBX 11 15 2 0
BITMAP
7FC0
7FC0
7FC0
7000
7000
7F00
7FC0
7FC0
01E0
01E0
01E0
41E0
FFC0
FF80
3F00
ENDCHAR
STARTCHAR 0036
ENCODING 54
SWIDTH 600 0
DWIDTH 15 0
BBX 11 15 2 0
BITMAP
03C0
0FE0
3FE0
7C00
7000
F700
FFC0
FFE0
F1E0
E0E0
F0E0
F1E0
7FE0
3FC0
1F00
ENDCHAR
STARTCHAR 0037
ENCODING 55
SWIDTH 600 0
DWIDTH 15 0
BBX 11 15 2 0
BITMAP
FFE0
FFE0
FFE0
E1E0
E1C0
E3C0
0380
0380
0700
0700
0F00
0E00
1E00
1C00
1C00
ENDCHAR
STARTCHAR 0038
ENCODING 56
SWIDTH 600 0
DWIDTH 15 0
BBX 11 15 2 0
BITMAP
1F00
7FC0
7FC0
71C0
71C0
7FC0
3F00
7FC0
F1E0
E0E0
E0E0
F1E0
7FC0
7FC0
1F00
ENDCHAR
STARTCHAR 0039
ENCODING 57
SWIDTH 600 0
DWIDTH 15 0
BBX 11 15 2 0
BITMAP
1F00
7F80
FFC0
E1E0
E0E0
E1E0
FFE0
7FE0
3EE0
01E0
01C0
07C0
7F80
7F00
7C00
ENDCHAR
STARTCHAR 003A
ENCODING 58
SWIDTH 600 0
DWIDTH 15 0
BBX 5 12 5 0
BITMAP
70
F8
F8
70
00
00
00
00
70
F8
F8
70
ENDCHAR
STARTCHAR 003B
ENCODING 59
SWIDTH 600 0
DWIDTH 15 0
BBX 5 15 5 -3
BITMAP
70
F8
F8
70
00
00
00
78
70
F0
F0
E0
E0
C0
C0
ENDCHAR
STARTCHAR 003C
ENCODING 60
SWIDTH 600 0
DWIDTH 15 0
BBX 12 13 1 1
BITMAP
0030
00F0
03F0
0FC0
3F80
7E00
F800
7C00
3F00
0FC0
03F0
00F0
0030
ENDCHAR
STARTCHAR 003D
ENCODING 61
SWIDTH 600 0
DWIDTH 15 0
BBX 11 9 2 3
BITMAP
FFE0
FFE0
FFE0
0000
0000
0000
FFE0
FFE0
FFE0
ENDCHAR
STARTCHAR 003E
ENCODING 62
SWIDTH 600 0
DWIDTH 15 0
BBX 12 13 2 1
BITMAP
C000
F000
FC00
3F00
1F80
07E0
01F0
03E0
0FC0
3F00
FC00
F000
C000
ENDCHAR
STARTCHAR 003F
ENCODING 63
SWIDTH 600 0
DWIDTH 15 0
BBX 9 16 3 0
BITMAP
3E00
FF00
FF80
C380
C380
0380
1F80
1F00
1C00
1800
0000
0000
3C00
3C00
3C00
3C00
ENDCHAR
STARTCHAR 0040
ENCODING 64
SWIDTH 600 0
DWIDTH 15 0
BBX 14 16 0 -2
BITMAP
03C0
0FF0
1C38
301C
73AC
67EC
6664
EE64
CCEC
CCCC
ECCC
6F78
6770
3800
1FE0
0FC0
ENDCHAR
STARTCHAR 0041
ENCODING 65
SWIDTH 600 0
DWIDTH 15 0
BBX 15 15 0 0
BITMAP
3FC0
3FC0
3FC0
06E0
0EE0
0EE0
0C70
1C70
1FF0
1FF0
3FF8
3838
FC7E
FCFE
FCFE
ENDCHAR
STARTCHAR 0042
ENCODING 66
SWIDTH 600 0
DWIDTH 15 0
BBX 13 15 1 0
BITMAP
FFC0
FFE0
FFF0
3870
3870
38F0
3FE0
3FE0
3FF0
3878
3838
3878
FFF8
FFF0
FFC0
ENDCHAR
STARTCHAR 0043
ENCODING 67
SWIDTH 600 0
DWIDTH 15 0
BBX 13 15 1 0
BITMAP
0FB8
1FF8
3FF8
7878
7078
F038
F000
F000
F000
F000
7000
7830
3FF8
1FF0
0FC0
ENDCHAR
STARTCHAR 0044
ENCODING 68
SWIDTH 600 0
DWIDTH 15 0
BBX 13 15 1 0
BITMAP
FF80
FFE0
FFF0
38F0
3878
3838
3838
3838
3838
3838
3878
38F0
FFF0
FFE0
FF80
ENDCHAR
STARTCHAR 0045
ENCODING 69
SWIDTH 600 0
DWIDTH 15 0
BBX 13 15 1 0
BITMAP
FFF0
FFF0
FFF0
3830
3830
3830
3F00
3F00
3F00
3838
3838
3838
FFF8
FFF8
FFF8
ENDCHAR
STARTCHAR 0046
ENCODING 70
SWIDTH 600 0
DWIDTH 15 0
BBX 13 15 1 0
BITMAP
FFF8
FFF8
FFF8
3838
3838
3800
3F80
3FC0
3F80
3800
3800
3800
FF00
FF80
FF00
ENDCHAR
STARTCHAR 0047
ENCODING 71
SWIDTH 600 0
DWIDTH 15 0
BBX 14 15 1 0
BITMAP
0F70
3FF0
7FF0
7870
F070
E070
E000
E3F8
E3FC
E3F8
F070
7870
7FF0
3FF0
0FC0
ENDCHAR
STARTCHAR 0048
ENCODING 72
SWIDTH 600 0
DWIDTH 15 0
BBX 13 15 1 0
BITMAP
FDF8
FDF8
FDF8
7070
7070
7070
7FF0
7FF0
7FF0
7070
7070
7070
FDF8
FDF8
FDF8
ENDCHAR
STARTCHAR 0049
ENCODING 73
SWIDTH 600 0
DWIDTH 15 0
BBX 11 15 2 0
BITMAP
FFE0
FFE0
FFE0
0E00
0E00
0E00
0E00
0E00
0E00
0E00
0E00
0E00
FFE0
FFE0
FFE0
ENDCHAR
STARTCHAR 004A
ENCODING 74
SWIDTH 600 0
DWIDTH 15 0
BBX 13 15 1 0
BITMAP
1FF8
1FF8
1FF8
01C0
01C0
01C0
01C0
01C0
E1C0
E1C0
E1C0
E1C0
FFC0
7F80
3F00
ENDCHAR
STARTCHAR 004B
ENCODING 75
SWIDTH 600 0
DWIDTH 15 0
BBX 14 15 1 0
BITMAP
FDF8
FDFC
FDF8
38F0
39E0
3BC0
3F00
3FC0
3FC0
39E0
38E0
3870
FE7C
FE7C
FE3C
ENDCHAR
STARTCHAR 004C
ENCODING 76
SWIDTH 600 0
DWIDTH 15 0
BBX 13 15 1 0
BITMAP
FF80
FF80
FF80
3800
3800
3800
3800
3800
3838
3838
3838
3838
FFF8
FFF8
FFF8
ENDCHAR
STARTCHAR 004D
ENCODING 77
SWIDTH 600 0
DWIDTH 15 0
BBX 15 15 0 0
BITMAP
F83E
FC7E
7C7C
3C78
3EF8
36D8
36D8
37D8
3398
3398
3118
3018
FC7E
FC7E
FC7E
ENDCHAR
STARTCHAR 004E
ENCODING 78
SWIDTH 600 0
DWIDTH 15 0
BBX 14 15 1 0
BITMAP
F0FC
F8FC
FCF8
7C70
7E70
7E70
7770
77F0
73F0
71F0
71F0
70F0
FCF0
FC70
FC30
ENDCHAR
STARTCHAR 004F
ENCODING 79
SWIDTH 600 0
DWIDTH 15 0
BBX 13 15 1 0
BITMAP
0F80
3FE0
7FF0
70F0
F078
E038
E038
E038
E038
E038
F078
70F0
7FF0
3FE0
0F80
ENDCHAR
STARTCHAR 0050
ENCODING 80
SWIDTH 600 0
DWIDTH 15 0
BBX 13 15 1 0
BITMAP
FFC0
FFF0
FFF0
3878
3838
3838
3878
3FF0
3FF0
3FC0
3800
3800
FF80
FF80
FF80
ENDCHAR
STARTCHAR 0051
ENCODING 81
SWIDTH 600 0
DWIDTH 15 0
BBX 13 19 1 -4
BITMAP
0F80
3FE0
7FF0
70F0
F078
E038
E038
E038
E038
E038
F078
78F0
7FF0
3FE0
0F80
1F10
7FF8
7FF8
20E0
ENDCHAR
STARTCHAR 0052
ENCODING 82
SWIDTH 600 0
DWIDTH 15 0
BBX 14 15 1 0
BITMAP
FFC0
FFE0
FFF0
3870
3870
3870
3FF0
3FE0
3FC0
39E0
38E0
38F0
FE7C
FE7C
FE3C
ENDCHAR
STARTCHAR 0053
ENCODING 83
SWIDTH 600 0
DWIDTH 15 0
BBX 11 15 2 0
BITMAP
3EE0
7FE0
FFE0
E1E0
E0E0
F000
FF80
3FC0
07E0
C0E0
E0E0
F0E0
FFE0
FFC0
EF80
ENDCHAR
STARTCHAR 0054
ENCODING 84
SWIDTH 600 0
DWIDTH 15 0
BBX 13 15 1 0
BITMAP
FFF8
FFF8
FFF8
E738
E738
E738
E738
0700
0700
0700
0700
0700
3FE0
3FE0
3FE0
ENDCHAR
STARTCHAR 0055
ENCODING 85
SWIDTH 600 0
DWIDTH 15 0
BBX 13 15 1 0
BITMAP
FDF8
FDF8
FDF8
7070
7070
7070
7070
7070
7070
7070
7070
78F0
3FE0
3FE0
0F80
ENDCHAR
STARTCHAR 0056
ENCODING 86
SWIDTH 600 0
DWIDTH 15 0
BBX 15 15 0 0
BITMAP
FE7E
FE7E
FE7E
3838
3838
1C70
1C70
1E70
0EE0
0EE0
0FE0
07C0
07C0
0380
0380
ENDCHAR
STARTCHAR 0057
ENCODING 87
SWIDTH 600 0
DWIDTH 15 0
BBX 15 15 0 0
BITMAP
FC7E
FC7E
FC7E
701C
719C
739C
3398
37D8
37D8
3ED8
3EF8
3CF8
3C78
3C78
3830
ENDCHAR
STARTCHAR 0058
ENCODING 88
SWIDTH 600 0
DWIDTH 15 0
BBX 15 15 0 0
BITMAP
7EFC
7EFC
7EFC
1C70
1EF0
0FE0
07C0
07C0
07C0
0EE0
1EF0
3C78
7CFC
FEFE
FEFE
ENDCHAR
STARTCHAR 0059
ENCODING 89
SWIDTH 600 0
DWIDTH 15 0
BBX 15 15 0 0
BITMAP
7EFC
FEFE
7E7C
3C78
1C70
0EE0
0FE0
07C0
0380
0380
0380
0380
1FF0
1FF0
1FF0
ENDCHAR
STARTCHAR 005A
ENCODING 90
SWIDTH 600 0
DWIDTH 15 0
BBX 11 15 2 0
BITMAP
FFE0
FFE0
FFE0
E3C0
E380
E780
0F00
1E00
1E00
3CE0
78E0
70E0
FFE0
FFE0
FFE0
ENDCHAR
STARTCHAR 005B
ENCODING 91
SWIDTH 600 0
DWIDTH 15 0
BBX 7 22 4 -4
BITMAP
FE
FE
FE
E0
E0
E0
E0
E0
E0
E0
E0
E0
E0
E0
E0
E0
E0
E0
E0
FE
FE
FE
ENDCHAR
STARTCHAR 005C
ENCODING 92
SWIDTH 600 0
DWIDTH 15 0
BBX 11 23 2 -5
BITMAP
4000
E000
E000
7000
7000
7800
3800
3800
1C00
1C00
1E00
0E00
0E00
0700
0700
0780
0380
0380
01C0
01C0
01E0
00E0
00E0
ENDCHAR
STARTCHAR 005D
ENCODING 93
SWIDTH 600 0
DWIDTH 15 0
BBX 7 22 4 -4
BITMAP
FE
FE
FE
0E
0E
0E
0E
0E
0E
0E
0E
0E
0E
0E
0E
0E
0E
0E
0E
FE
FE
FE
ENDCHAR
STARTCHAR 005E
ENCODING 94
SWIDTH 600 0
DWIDTH 15 0
BBX 11 10 2 6
BITMAP
0400
0E00
0E00
1F00
1F00
3B80
3B80
71C0
F1E0
60C0
ENDCHAR
STARTCHAR 005F
ENCODING 95
SWIDTH 600 0
DWIDTH 15 0
BBX 15 3 0 -6
BITMAP
FFFE
FFFE
FFFE
ENDCHAR
STARTCHAR 0060
ENCODING 96
SWIDTH 600 0
DWIDTH 15 0
BBX 7 6 3 13
BITMAP
20
70
F8
7C
1E
06
ENDCHAR
STARTCHAR 0061
ENCODING 97
SWIDTH 600 0
DWIDTH 15 0
BBX 13 12 1 0
BITMAP
1F80
7FE0
7FE0
00E0
1FE0
7FE0
7FE0
F0E0
F0E0
7FF8
7FF8
3E38
ENDCHAR
STARTCHAR 0062
ENCODING 98
SWIDTH 600 0
DWIDTH 15 0
BBX 14 17 0 0
BITMAP
F800
F800
F800
3800
3800
39E0
3FF0
3FF8
3C38
3C3C
383C
383C
3C3C
3C38
7FF8
7FF0
79E0
ENDCHAR
STARTCHAR 0063
ENCODING 99
SWIDTH 600 0
DWIDTH 15 0
BBX 11 12 2 0
BITMAP
1EE0
7FE0
7FE0
F1E0
E0E0
E0E0
E000
E000
F060
7FE0
7FE0
1F80
ENDCHAR
STARTCHAR 0064
ENCODING 100
SWIDTH 600 0
DWIDTH 15 0
BBX 14 17 1 0
BITMAP
03F0
03F0
03F0
0070
0070
1E70
3FF0
7FF0
70F0
F0F0
E070
E070
F0F0
70F0
7FF8
3FFC
1E78
ENDCHAR
STARTCHAR 0065
ENCODING 101
SWIDTH 600 0
DWIDTH 15 0
BBX 11 12 2 0
BITMAP
1F00
7FC0
7FE0
E0E0
FFE0
FFE0
FFE0
E000
F020
FFE0
7FE0
1F80
ENDCHAR
STARTCHAR 0066
ENCODING 102
SWIDTH 600 0
DWIDTH 15 0
BBX 12 17 2 0
BITMAP
07C0
0FF0
1FF0
1C00
1C00
1C00
FFE0
FFE0
FFE0
1C00
1C00
1C00
1C00
1C00
FFC0
FFC0
FFC0
ENDCHAR
STARTCHAR 0067
ENCODING 103
SWIDTH 600 0
DWIDTH 15 0
BBX 14 17 1 -5
BITMAP
1F78
3FFC
7FF8
70F0
F0F0
E070
E070
F0F0
70F0
7FF0
3FF0
1E70
0070
40F0
7FE0
7FC0
3F80
ENDCHAR
STARTCHAR 0068
ENCODING 104
SWIDTH 600 0
DWIDTH 15 0
BBX 14 17 1 0
BITMAP
F800
F800
F800
3800
3800
3BC0
3FE0
3FF0
3CF0
3870
3870
3870
3870
3870
FCF8
FDFC
FDF8
ENDCHAR
STARTCHAR 0069
ENCODING 105
SWIDTH 600 0
DWIDTH 15 0
BBX 11 18 2 0
BITMAP
0E00
0E00
0E00
0E00
0000
0000
7E00
7E00
7E00
0E00
0E00
0E00
0E00
0E00
0E00
FFE0
FFE0
FFE0
ENDCHAR
STARTCHAR 006A
ENCODING 106
SWIDTH 600 0
DWIDTH 15 0
BBX 9 23 2 -5
BITMAP
0380
0380
0380
0380
0000
0000
7F80
7F80
7F80
0380
0380
0380
0380
0380
0380
0380
0380
0380
0380
C380
FF80
FF00
3E00
ENDCHAR
STARTCHAR 006B
ENCODING 107
SWIDTH 600 0
DWIDTH 15 0
BBX 13 17 1 0
BITMAP
F800
F800
F800
3800
3800
39F8
3BF8
39F8
39E0
3BC0
3F80
3FC0
3DE0
39E0
FCF8
FE78
FC78
ENDCHAR
STARTCHAR 006C
ENCODING 108
SWIDTH 600 0
DWIDTH 15 0
BBX 11 17 2 0
BITMAP
FE00
FE00
7E00
0E00
0E00
0E00
0E00
0E00
0E00
0E00
0E00
0E00
0E00
0E00
FFE0
FFE0
FFE0
ENDCHAR
STARTCHAR 006D
ENCODING 109
SWIDTH 600 0
DWIDTH 15 0
BBX 14 12 0 0
BITMAP
E738
EFFC
EFFC
7BDC
7B9C
739C
739C
739C
739C
739C
739C
739C
ENDCHAR
STARTCHAR 006E
ENCODING 110
SWIDTH 600 0
DWIDTH 15 0
BBX 14 12 1 0
BITMAP
F3C0
F7E0
FFF0
3C70
3870
3870
3870
3870
3870
FCF8
FCFC
FCFC
ENDCHAR
STARTCHAR 006F
ENCODING 111
SWIDTH 600 0
DWIDTH 15 0
BBX 13 12 1 0
BITMAP
0F80
3FE0
7FF0
78F0
F070
F078
F078
7070
78F0
7FF0
3FE0
0F80
ENDCHAR
STARTCHAR 0070
ENCODING 112
SWIDTH 600 0
DWIDTH 15 0
BBX 14 17 0 -5
BITMAP
79E0
FFF0
7FF8
3C38
3C3C
383C
383C
3C3C
3C38
3FF8
3FF0
3BE0
3800
3800
7F00
FF00
7F00
ENDCHAR
STARTCHAR 0071
ENCODING 113
SWIDTH 600 0
DWIDTH 15 0
BBX 14 17 1 -5
BITMAP
1E78
3FFC
7FF8
70F0
F0F0
E070
E070
F0F0
70F0
7FF0
3FF0
1E70
0070
0070
03F8
03FC
03F8
ENDCHAR
STARTCHAR 0072
ENCODING 114
SWIDTH 600 0
DWIDTH 15 0
BBX 12 12 2 0
BITMAP
F9E0
FBF0
FFF0
3E00
3C00
3C00
3800
3800
3800
FF80
FF80
FF80
ENDCHAR
STARTCHAR 0073
ENCODING 115
SWIDTH 600 0
DWIDTH 15 0
BBX 11 12 2 0
BITMAP
3EC0
7FE0
FFE0
E0C0
F000
7F80
3FE0
01E0
E0E0
FFE0
FFC0
EF80
ENDCHAR
STARTCHAR 0074
ENCODING 116
SWIDTH 600 0
DWIDTH 15 0
BBX 13 15 1 0
BITMAP
1C00
1C00
1C00
1C00
FFF0
FFF0
FFF0
1C00
1C00
1C00
1C00
1E30
0FF8
0FF0
07C0
ENDCHAR
STARTCHAR 0075
ENCODING 117
SWIDTH 600 0
DWIDTH 15 0
BBX 13 12 1 0
BITMAP
F1F0
F3F0
F1F0
7070
7070
70F0
70F0
70F0
79F0
3FF8
3F78
1E78
ENDCHAR
STARTCHAR 0076
ENCODING 118
SWIDTH 600 0
DWIDTH 15 0
BBX 15 12 0 0
BITMAP
7EFC
FEFE
7EFC
3C78
1C70
1C70
0EE0
0EE0
0FC0
07C0
07C0
0380
ENDCHAR
STARTCHAR 0077
ENCODING 119
SWIDTH 600 0
DWIDTH 15 0
BBX 15 12 0 0
BITMAP
F83E
FC3E
F83E
739C
739C
7798
37D8
3EF8
3EF8
3CF8
1C70
1C70
ENDCHAR
STARTCHAR 0078
ENCODING 120
SWIDTH 600 0
DWIDTH 15 0
BBX 13 12 1 0
BITMAP
FDF8
FDF8
FDF8
3CE0
1FC0
0F80
0F80
1FC0
39E0
FDF8
FDF8
FDF8
ENDCHAR
STARTCHAR 0079
ENCODING 121
SWIDTH 600 0
DWIDTH 15 0
BBX 15 17 0 -5
BITMAP
7EFC
FEFE
7EFC
3C78
1C70
1E70
0EE0
0FE0
07C0
07C0
0380
0380
0700
0F00
3E00
7C00
3800
ENDCHAR
STARTCHAR 007A
ENCODING 122
SWIDTH 600 0
DWIDTH 15 0
BBX 11 12 2 0
BITMAP
FFE0
FFE0
FFE0
E3C0
E780
0F00
1E00
3CE0
78E0
FFE0
FFE0
FFE0
ENDCHAR
STARTCHAR 007B
ENCODING 123
SWIDTH 600 0
DWIDTH 15 0
BBX 10 22 2 -4
BITMAP
0040
07C0
0FC0
0F00
1E00
1C00
1E00
0E00
1E00
1C00
F800
F000
FC00
1C00
0E00
0E00
1C00
1C00
1E00
0FC0
0FC0
03C0
ENDCHAR
STARTCHAR 007C
ENCODING 124
SWIDTH 600 0
DWIDTH 15 0
BBX 3 23 6 -5
BITMAP
40
E0
E0
E0
E0
E0
E0
E0
E0
E0
E0
E0
E0
E0
E0
E0
E0
E0
E0
E0
E0
E0
E0
ENDCHAR
STARTCHAR 007D
ENCODING 125
SWIDTH 600 0
DWIDTH 15 0
BBX 10 22 3 -4
BITMAP
8000
F800
FC00
3C00
1E00
1E00
1E00
1C00
1E00
0E00
07C0
03C0
0FC0
0E00
1C00
1C00
0E00
1E00
1E00
FC00
FC00
F000
ENDCHAR
STARTCHAR 007E
ENCODING 126
SWIDTH 600 0
DWIDTH 15 0
BBX 11 5 2 5
BITMAP
3800
FC60
FFE0
CFE0
03C0
ENDCHAR
STARTCHAR 00A0
ENCODING 160
SWIDTH 600 0
DWIDTH 15 0
BBX 0 0 0 0
BITMAP
ENDCHAR
STARTCHAR 00A1
ENCODING 161
SWIDTH 600 0
DWIDTH 15 0
BBX 3 16 6 -4
BITMAP
E0
E0
E0
E0
00
00
E0
E0
E0
E0
E0
E0
E0
E0
E0
E0
ENDCHAR
STARTCHAR 00A2
ENCODING 162
SWIDTH 600 0
DWIDTH 15 0
BBX 11 18 2 -1
BITMAP
0E00
0E00
0E00
1EE0
7FE0
7FE0
FFE0
EEE0
EEE0
EE00
EE00
EE60
FFE0
7FE0
1F80
0E00
0E00
0E00
ENDCHAR
STARTCHAR 00A3
ENCODING 163
SWIDTH 600 0
DWIDTH 15 0
BBX 11 15 2 0
BITMAP
1F00
3FC0
7FC0
71C0
70C0
7800
FF80
FF80
FF80
1C00
3800
7800
FFE0
FFE0
7FC0
ENDCHAR
STARTCHAR 00A4
ENCODING 164
SWIDTH 600 0
DWIDTH 15 0
BBX 13 13 1 1
BITMAP
6030
F778
7FF0
3FE0
38E0
3060
7070
3060
38E0
3FE0
7FF0
F778
6030
ENDCHAR
STARTCHAR 00A5
ENCODING 165
SWIDTH 600 0
DWIDTH 15 0
BBX 15 15 0 0
BITMAP
7EFC
FEFE
7E7C
3C78
3C78
7EFC
3FF8
07C0
3FF8
3FF8
3FF8
0380
1FF0
1FF0
1FF0
ENDCHAR
STARTCHAR 00A6
ENCODING 166
SWIDTH 600 0
DWIDTH 15 0
BBX 3 23 6 -5
BITMAP
40
E0
E0
E0
E0
E0
E0
E0
E0
40
00
00
00
00
E0
E0
E0
E0
E0
E0
E0
E0
E0
ENDCHAR
STARTCHAR 00A7
ENCODING 167
SWIDTH 600 0
DWIDTH 15 0
BBX 11 19 2 -4
BITMAP
1FC0
3FC0
7FC0
70C0
70C0
7C00
FF00
FF80
E7C0
F1E0
7CE0
3FE0
0FE0
07C0
61C0
61C0
7FC0
7F80
7F00
ENDCHAR
STARTCHAR 00A8
ENCODING 168
SWIDTH 600 0
DWIDTH 15 0
BBX 9 4 3 14
BITMAP
E380
E380
E380
E380
ENDCHAR
STARTCHAR 00A9
ENCODING 169
SWIDTH 600 0
DWIDTH 15 0
BBX 15 16 0 0
BITMAP
07C0
1FF0
3838
3018
67EC
6FCC
CC04
CC06
CC06
CC06
6FCC
67EC
701C
3838
1FF0
07C0
ENDCHAR
STARTCHAR 00AA
ENCODING 170
SWIDTH 600 0
DWIDTH 15 0
BBX 10 9 3 6
BITMAP
7E00
FF00
0300
7F00
FF00
C300
C700
FFC0
79C0
ENDCHAR
STARTCHAR 00AB
ENCODING 171
SWIDTH 600 0
DWIDTH 15 0
BBX 12 10 1 2
BITMAP
1830
1C70
38F0
79E0
F1C0
F3C0
78E0
38F0
1C70
1830
ENDCHAR
STARTCHAR 00AC
ENCODING 172
SWIDTH 600 0
DWIDTH 15 0
BBX 12 8 1 3
BITMAP
7FF0
FFF0
7FF0
0070
0070
0070
0070
0070
ENDCHAR
STARTCHAR 00AD
ENCODING 173
SWIDTH 600 0
DWIDTH 15 0
BBX 11 3 2 4
BITMAP
7FC0
FFE0
7FC0
ENDCHAR
STARTCHAR 00AE
ENCODING 174
SWIDTH 600 0
DWIDTH 15 0
BBX 11 13 2 4
BITMAP
1F00
3F80
60C0
DF60
9F60
9920
9F20
9E20
9B60
D960
60C0
3F80
1F00
ENDCHAR
STARTCHAR 00AF
ENCODING 175
SWIDTH 600 0
DWIDTH 15 0
BBX 9 3 3 14
BITMAP
7F00
FF80
7F00
ENDCHAR
STARTCHAR 00B0
ENCODING 176
SWIDTH 600 0
DWIDTH 15 0
BBX 8 8 3 7
BITMAP
3C
7E
FE
C7
C7
FE
7E
3C
ENDCHAR
STARTCHAR 00B1
ENCODING 177
SWIDTH 600 0
DWIDTH 15 0
BBX 11 14 2 0
BITMAP
0E00
0E00
0E00
FFE0
FFE0
FFE0
0E00
0E00
0E00
0E00
0000
FFE0
FFE0
FFE0
ENDCHAR
STARTCHAR 00B2
ENCODING 178
SWIDTH 600 0
DWIDTH 15 0
BBX 9 10 3 6
BITMAP
3E00
7F00
6300
6380
0700
0E00
1C00
7180
FF80
FF80
ENDCHAR
STARTCHAR 00B3
ENCODING 179
SWIDTH 600 0
DWIDTH 15 0
BBX 9 10 3 6
BITMAP
7E00
FF00
E380
0300
1F00
1F00
0380
4380
FF00
7E00
ENDCHAR
STARTCHAR 00B4
ENCODING 180
SWIDTH 600 0
DWIDTH 15 0
BBX 7 6 5 13
BITMAP
08
1C
3E
7C
F0
C0
ENDCHAR
STARTCHAR 00B5
ENCODING 181
SWIDTH 600 0
DWIDTH 15 0
BBX 11 16 2 -5
BITMAP
E0E0
E0E0
E0E0
E0E0
E0E0
E0E0
E1E0
F1E0
FFE0
FFE0
FCE0
E000
E000
E000
E000
E000
ENDCHAR
STARTCHAR 00B6
ENCODING 182
SWIDTH 600 0
DWIDTH 15 0
BBX 13 20 1 -5
BITMAP
1FF8
7FF8
7FF8
FE60
FE60
FE60
FE60
7E60
3E60
0E60
0E60
0E60
0E60
0E60
0E60
0E60
0E60
0E60
0E60
0E60
ENDCHAR
STARTCHAR 00B7
ENCODING 183
SWIDTH 600 0
DWIDTH 15 0
BBX 5 5 5 5
BITMAP
70
F8
F8
F8
70
ENDCHAR
STARTCHAR 00B8
ENCODING 184
SWIDTH 600 0
DWIDTH 15 0
BBX 7 6 4 -6
BITMAP
30
3C
3E
0E
FE
7C
ENDCHAR
STARTCHAR 00B9
ENCODING 185
SWIDTH 600 0
DWIDTH 15 0
BBX 8 10 4 6
BITMAP
18
78
F8
98
18
18
18
18
FF
FF
ENDCHAR
STARTCHAR 00BA
ENCODING 186
SWIDTH 600 0
DWIDTH 15 0
BBX 9 9 3 6
BITMAP
3E00
7F00
E380
C180
C180
C180
E380
7F00
3E00
ENDCHAR
STARTCHAR 00BB
ENCODING 187
SWIDTH 600 0
DWIDTH 15 0
BBX 12 10 2 2
BITMAP
C180
E380
F1C0
71E0
38F0
3CF0
79E0
F1C0
E380
C180
ENDCHAR
STARTCHAR 00BC
ENCODING 188
SWIDTH 600 0
DWIDTH 15 0
BBX 15 21 0 -3
BITMAP
1000
7000
F000
F000
3000
3000
3000
3000
FE0C
FE3C
00F0
03C0
070C
1C1C
783C
606C
00EC
00FE
00FE
000C
000C
ENDCHAR
STARTCHAR 00BD
ENCODING 189
SWIDTH 600 0
DWIDTH 15 0
BBX 15 21 0 -3
BITMAP
1000
7000
F000
F000
3000
3000
3000
300C
FE3C
FEF0
01E0
0780
1E7C
78FE
70C6
0046
000C
0038
0076
00FE
00FE
ENDCHAR
STARTCHAR 00BE
ENCODING 190
SWIDTH 600 0
DWIDTH 15 0
BBX 15 20 0 -3
BITMAP
FC00
FC00
C600
3C00
3C00
0E00
8E08
FC1C
7878
01E0
03C0
0F0C
3C1C
703C
206C
00EC
00FE
00FE
000C
000C
ENDCHAR
STARTCHAR 00BF
ENCODING 191
SWIDTH 600 0
DWIDTH 15 0
BBX 9 17 3 -5
BITMAP
1E00
1E00
1E00
1E00
0000
0000
0C00
0C00
3C00
7C00
F000
E000
E180
E180
FF80
7F80
1E00
ENDCHAR
STARTCHAR 00C0
ENCODING 192
SWIDTH 600 0
DWIDTH 15 0
BBX 15 22 0 0
BITMAP
0800
1C00
1E00
0F80
07C0
0180
0000
3FC0
3FC0
3FC0
06E0
0EE0
0EE0
0C70
1C70
1FF0
1FF0
3FF8
3838
FC7E
FCFE
FCFE
ENDCHAR
STARTCHAR 00C1
ENCODING 193
SWIDTH 600 0
DWIDTH 15 0
BBX 15 22 0 0
BITMAP
0040
00C0
03E0
07C0
0F00
0400
0000
3FC0
3FC0
3FC0
06E0
0EE0
0EE0
0C70
1C70
1FF0
1FF0
3FF8
3838
FC7E
FCFE
FCFE
ENDCHAR
STARTCHAR 00C2
ENCODING 194
SWIDTH 600 0
DWIDTH 15 0
BBX 15 21 0 0
BITMAP
0300
0780
0FE0
1EF0
1820
0000
3FC0
3FC0
3FC0
06E0
0EE0
0EE0
0C70
1C70
1FF0
1FF0
3FF8
3838
FC7E
FCFE
FCFE
ENDCHAR
STARTCHAR 00C3
ENCODING 195
SWIDTH 600 0
DWIDTH 15 0
BBX 15 21 0 0
BITMAP
0E20
1FF0
3FE0
11C0
0000
0000
3FC0
3FC0
3FC0
06E0
0EE0
0EE0
0C70
1C70
1FF0
1FF0
3FF8
3838
FC7E
FCFE
FCFE
ENDCHAR
STARTCHAR 00C4
ENCODING 196
SWIDTH 600 0
DWIDTH 15 0
BBX 15 21 0 0
BITMAP
1CE0
1CE0
1CE0
1CE0
0000
0000
3FC0
3FC0
3FC0
06E0
0EE0
0EE0
0C70
1C70
1FF0
1FF0
3FF8
3838
FC7E
FCFE
FCFE
ENDCHAR
STARTCHAR 00C5
ENCODING 197
SWIDTH 600 0
DWIDTH 15 0
BBX 15 23 0 0
BITMAP
0380
07C0
0EC0
0CC0
0CC0
07C0
0380
0000
3FC0
3FC0
3FC0
06E0
0EE0
0EE0
0C70
1C70
1FF0
1FF0
3FF8
3838
FC7E
FCFE
FCFE
ENDCHAR
STARTCHAR 00C6
ENCODING 198
SWIDTH 600 0
DWIDTH 15 0
BBX 14 15 0 0
BITMAP
3FFC
7FFC
3FFC
1DCC
1DCC
19C0
39F0
39F0
3FF0
3FC0
7FCC
71CC
F9FC
F9FC
F9FC
ENDCHAR
STARTCHAR 00C7
ENCODING 199
SWIDTH 600 0
DWIDTH 15 0
BBX 13 21 1 -6
BITMAP
0FB8
1FF8
3FF8
7878
7078
F038
F000
F000
F000
F000
7000
7830
3FF8
1FF0
0780
0300
03C0
00C0
08C0
0FC0
0F80
ENDCHAR
STARTCHAR 00C8
ENCODING 200
SWIDTH 600 0
DWIDTH 15 0
BBX 13 22 1 0
BITMAP
0800
1C00
1E00
1F80
0780
0180
0000
FFF0
FFF0
FFF0
3830
3830
3830
3F00
3F00
3F00
3838
3838
3838
FFF8
FFF8
FFF8
ENDCHAR
STARTCHAR 00C9
ENCODING 201
SWIDTH 600 0
DWIDTH 15 0
BBX 13 22 1 0
BITMAP
0080
01C0
03C0
0F80
0F00
0C00
0000
FFF0
FFF0
FFF0
3830
3830
3830
3F00
3F00
3F00
3838
3838
3838
FFF8
FFF8
FFF8
ENDCHAR
STARTCHAR 00CA
ENCODING 202
SWIDTH 600 0
DWIDTH 15 0
BBX 13 21 1 0
BITMAP
0300
0780
1FC0
3DE0
1860
0000
FFF0
FFF0
FFF0
3830
3830
3830
3F00
3F00
3F00
3838
3838
3838
FFF8
FFF8
FFF8
ENDCHAR
STARTCHAR 00CB
ENCODING 203
SWIDTH 600 0
DWIDTH 15 0
BBX 13 21 1 0
BITMAP
1CE0
1CE0
1CE0
1CE0
0000
0000
FFF0
FFF0
FFF0
3830
3830
3830
3F00
3F00
3F00
3838
3838
3838
FFF8
FFF8
FFF8
ENDCHAR
STARTCHAR 00CC
ENCODING 204
SWIDTH 600 0
DWIDTH 15 0
BBX 11 22 2 0
BITMAP
1000
3800
7C00
3E00
0F00
0300
0000
FFE0
FFE0
FFE0
0E00
0E00
0E00
0E00
0E00
0E00
0E00
0E00
0E00
FFE0
FFE0
FFE0
ENDCHAR
STARTCHAR 00CD
ENCODING 205
SWIDTH 600 0
DWIDTH 15 0
BBX 11 22 2 0
BITMAP
0100
0380
07C0
0F80
1E00
1800
0000
FFE0
FFE0
FFE0
0E00
0E00
0E00
0E00
0E00
0E00
0E00
0E00
0E00
FFE0
FFE0
FFE0
ENDCHAR
STARTCHAR 00CE
ENCODING 206
SWIDTH 600 0
DWIDTH 15 0
BBX 11 21 2 0
BITMAP
0E00
1F00
3F80
7BC0
60C0
0000
FFE0
FFE0
FFE0
0E00
0E00
0E00
0E00
0E00
0E00
0E00
0E00
0E00
FFE0
FFE0
FFE0
ENDCHAR
STARTCHAR 00CF
ENCODING 207
SWIDTH 600 0
DWIDTH 15 0
BBX 11 21 2 0
BITMAP
71C0
71C0
71C0
71C0
0000
0000
FFE0
FFE0
FFE0
0E00
0E00
0E00
0E00
0E00
0E00
0E00
0E00
0E00
FFE0
FFE0
FFE0
ENDCHAR
STARTCHAR 00D0
ENCODING 208
SWIDTH 600 0
DWIDTH 15 0
BBX 14 15 0 0
BITMAP
7FC0
7FF0
7FF8
1C78
1C3C
1C1C
7F1C
FF1C
7F1C
1C1C
1C3C
1C78
7FF8
7FF0
7FC0
ENDCHAR
STARTCHAR 00D1
ENCODING 209
SWIDTH 600 0
DWIDTH 15 0
BBX 14 21 1 0
BITMAP
0C60
3FE0
3FE0
33C0
0000
0000
F0FC
F8FC
FCF8
7C70
7E70
7E70
7770
77F0
73F0
71F0
71F0
70F0
FCF0
FC70
FC30
ENDCHAR
STARTCHAR 00D2
ENCODING 210
SWIDTH 600 0
DWIDTH 15 0
BBX 13 22 1 0
BITMAP
0800
1C00
1E00
1F00
0780
0180
0000
0F80
3FE0
7FF0
70F0
F078
E038
E038
E038
E038
E038
F078
70F0
7FF0
3FE0
0F80
ENDCHAR
STARTCHAR 00D3
ENCODING 211
SWIDTH 600 0
DWIDTH 15 0
BBX 13 22 1 0
BITMAP
0080
01C0
03C0
07C0
0F00
0C00
0000
0F80
3FE0
7FF0
70F0
F078
E038
E038
E038
E038
E038
F078
70F0
7FF0
3FE0
0F80
ENDCHAR
STARTCHAR 00D4
ENCODING 212
SWIDTH 600 0
DWIDTH 15 0
BBX 13 21 1 0
BITMAP
0700
0F80
1FC0
3DE0
3060
0000
0F80
3FE0
7FF0
70F0
F078
E038
E038
E038
E038
E038
F078
70F0
7FF0
3FE0
0F80
ENDCHAR
STARTCHAR 00D5
ENCODING 213
SWIDTH 600 0
DWIDTH 15 0
BBX 13 21 1 0
BITMAP
0C60
3FE0
3FE0
33C0
0000
0000
0F80
3FE0
7FF0
70F0
F078
E038
E038
E038
E038
E038
F078
70F0
7FF0
3FE0
0F80
ENDCHAR
STARTCHAR 00D6
ENCODING 214
SWIDTH 600 0
DWIDTH 15 0
BBX 13 21 1 0
BITMAP
38E0
38E0
38E0
38E0
0000
0000
0F80
3FE0
7FF0
70F0
F078
E038
E038
E038
E038
E038
F078
70F0
7FF0
3FE0
0F80
ENDCHAR
STARTCHAR 00D7
ENCODING 215
SWIDTH 600 0
DWIDTH 15 0
BBX 9 10 3 2
BITMAP
C100
E380
F780
7F00
3E00
3E00
7F00
F780
E380
C180
ENDCHAR
STARTCHAR 00D8
ENCODING 216
SWIDTH 600 0
DWIDTH 15 0
BBX 13 18 1 -1
BITMAP
0010
0038
0FB8
3FF0
7FF0
70F0
F1F8
E1B8
E3B8
E738
EE38
EC38
FC78
7870
7FF0
7FE0
EF80
4000
ENDCHAR
STARTCHAR 00D9
ENCODING 217
SWIDTH 600 0
DWIDTH 15 0
BBX 13 22 1 0
BITMAP
0800
1C00
3E00
1F00
0780
0180
0000
FDF8
FDF8
FDF8
7070
7070
7070
7070
7070
7070
7070
7070
78F0
3FE0
3FE0
0F80
ENDCHAR
STARTCHAR 00DA
ENCODING 218
SWIDTH 600 0
DWIDTH 15 0
BBX 13 22 1 0
BITMAP
0080
01C0
03E0
07C0
0F00
0C00
0000
FDF8
FDF8
FDF8
7070
7070
7070
7070
7070
7070
7070
7070
78F0
3FE0
3FE0
0F80
ENDCHAR
STARTCHAR 00DB
ENCODING 219
SWIDTH 600 0
DWIDTH 15 0
BBX 13 21 1 0
BITMAP
0700
0F80
1FC0
3DE0
3060
0000
FDF8
FDF8
FDF8
7070
7070
7070
7070
7070
7070
7070
7070
78F0
3FE0
3FE0
0F80
ENDCHAR
STARTCHAR 00DC
ENCODING 220
SWIDTH 600 0
DWIDTH 15 0
BBX 13 21 1 0
BITMAP
38E0
38E0
38E0
38E0
0000
0000
FDF8
FDF8
FDF8
7070
7070
7070
7070
7070
7070
7070
7070
78F0
3FE0
3FE0
0F80
ENDCHAR
STARTCHAR 00DD
ENCODING 221
SWIDTH 600 0
DWIDTH 15 0
BBX 15 22 0 0
BITMAP
0040
00E0
01F0
03E0
0780
0600
0000
7EFC
FEFE
7E7C
3C78
1C70
0EE0
0FE0
07C0
0380
0380
0380
0380
1FF0
1FF0
1FF0
ENDCHAR
STARTCHAR 00DE
ENCODING 222
SWIDTH 600 0
DWIDTH 15 0
BBX 12 15 1 0
BITMAP
7F80
FF80
7F80
1FC0
1FF0
1FF0
1C70
1C70
1FF0
1FF0
1FC0
1C00
7F80
FF80
7F80
ENDCHAR
STARTCHAR 00DF
ENCODING 223
SWIDTH 600 0
DWIDTH 15 0
BBX 13 17 0 0
BITMAP
07C0
0FE0
1FF0
1C70
1C38
1C78
1C70
1DF0
1DE0
1DF8
1C38
1C38
1C38
1C78
FDF8
FDF0
FDE0
ENDCHAR
STARTCHAR 00E0
ENCODING 224
SWIDTH 600 0
DWIDTH 15 0
BBX 13 19 1 0
BITMAP
0800
0C00
1F00
0F80
03C0
0080
0000
1F80
7FE0
7FE0
00E0
1FE0
7FE0
7FE0
F0E0
F0E0
7FF8
7FF8
3E38
ENDCHAR
STARTCHAR 00E1
ENCODING 225
SWIDTH 600 0
DWIDTH 15 0
BBX 13 19 1 0
BITMAP
0080
0180
07C0
0F80
1E00
0800
0000
1F80
7FE0
7FE0
00E0
1FE0
7FE0
7FE0
F0E0
F0E0
7FF8
7FF8
3E38
ENDCHAR
STARTCHAR 00E2
ENCODING 226
SWIDTH 600 0
DWIDTH 15 0
BBX 13 18 1 0
BITMAP
0700
0F80
1FC0
3DE0
3060
0000
1F80
7FE0
7FE0
00E0
1FE0
7FE0
7FE0
F0E0
F0E0
7FF8
7FF8
3E38
ENDCHAR
STARTCHAR 00E3
ENCODING 227
SWIDTH 600 0
DWIDTH 15 0
BBX 13 18 1 0
BITMAP
0C60
3FE0
3FE0
33C0
0000
0000
1F80
7FE0
7FE0
00E0
1FE0
7FE0
7FE0
F0E0
F0E0
7FF8
7FF8
3E38
ENDCHAR
STARTCHAR 00E4
ENCODING 228
SWIDTH 600 0
DWIDTH 15 0
BBX 13 18 1 0
BITMAP
38E0
38E0
38E0
38E0
0000
0000
1F80
7FE0
7FE0
00E0
1FE0
7FE0
7FE0
F0E0
F0E0
7FF8
7FF8
3E38
ENDCHAR
STARTCHAR 00E5
ENCODING 229
SWIDTH 600 0
DWIDTH 15 0
BBX 13 20 1 0
BITMAP
0700
0F80
1DC0
18C0
1DC0
0F80
0700
0000
1F80
7FE0
7FE0
00E0
1FE0
7FE0
7FE0
F0E0
F0E0
7FF8
7FF8
3E38
ENDCHAR
STARTCHAR 00E6
ENCODING 230
SWIDTH 600 0
DWIDTH 15 0
BBX 15 12 0 0
BITMAP
3E78
7FFC
7FFC
038C
1FFC
7FFE
7FFE
E380
E384
7FFC
7FFE
3CF8
ENDCHAR
STARTCHAR 00E7
ENCODING 231
SWIDTH 600 0
DWIDTH 15 0
BBX 11 18 2 -6
BITMAP
1EE0
7FE0
7FE0
F1E0
E0E0
E0E0
E000
E000
E000
F0E0
7FE0
3FC0
0F00
0E00
0F80
0380
3F80
1F00
ENDCHAR
STARTCHAR 00E8
ENCODING 232
SWIDTH 600 0
DWIDTH 15 0
BBX 11 19 2 0
BITMAP
1000
3800
3E00
1F00
0780
0300
0000
1F00
7FC0
7FE0
E0E0
FFE0
FFE0
FFE0
E000
F020
FFE0
7FE0
1F80
ENDCHAR
STARTCHAR 00E9
ENCODING 233
SWIDTH 600 0
DWIDTH 15 0
BBX 11 19 2 0
BITMAP
0100
0380
0780
1F00
1E00
1800
0000
1F00
7FC0
7FE0
E0E0
FFE0
FFE0
FFE0
E000
F020
FFE0
7FE0
1F80
ENDCHAR
STARTCHAR 00EA
ENCODING 234
SWIDTH 600 0
DWIDTH 15 0
BBX 11 18 2 0
BITMAP
0600
1F00
3F80
7BC0
20C0
0000
1F00
7FC0
7FE0
E0E0
FFE0
FFE0
FFE0
E000
F020
FFE0
7FE0
1F80
ENDCHAR
STARTCHAR 00EB
ENCODING 235
SWIDTH 600 0
DWIDTH 15 0
BBX 11 18 2 0
BITMAP
71C0
71C0
71C0
71C0
0000
0000
1F00
7FC0
7FE0
E0E0
FFE0
FFE0
FFE0
E000
F020
FFE0
7FE0
1F80
ENDCHAR
STARTCHAR 00EC
ENCODING 236
SWIDTH 600 0
DWIDTH 15 0
BBX 11 19 2 0
BITMAP
2000
7000
7800
3E00
1F00
0600
0000
7E00
7E00
7E00
0E00
0E00
0E00
0E00
0E00
0E00
FFE0
FFE0
FFE0
ENDCHAR
STARTCHAR 00ED
ENCODING 237
SWIDTH 600 0
DWIDTH 15 0
BBX 11 19 2 0
BITMAP
0100
0300
0F80
1F00
3C00
1000
0000
7E00
7E00
7E00
0E00
0E00
0E00
0E00
0E00
0E00
FFE0
FFE0
FFE0
ENDCHAR
STARTCHAR 00EE
ENCODING 238
SWIDTH 600 0
DWIDTH 15 0
BBX 11 18 2 0
BITMAP
0E00
1F00
3F80
7BC0
60C0
0000
7E00
7E00
7E00
0E00
0E00
0E00
0E00
0E00
0E00
FFE0
FFE0
FFE0
ENDCHAR
STARTCHAR 00EF
ENCODING 239
SWIDTH 600 0
DWIDTH 15 0
BBX 11 18 2 0
BITMAP
71C0
71C0
71C0
71C0
0000
0000
7E00
7E00
7E00
0E00
0E00
0E00
0E00
0E00
0E00
FFE0
FFE0
FFE0
ENDCHAR
STARTCHAR 00F0
ENCODING 240
SWIDTH 600 0
DWIDTH 15 0
BBX 13 18 1 0
BITMAP
0800
0E40
1FE0
0FC0
1FC0
1FE0
08E0
0FF0
3FF0
7FF0
78F0
7078
F070
7070
78F0
7FF0
3FE0
0F80
ENDCHAR
STARTCHAR 00F1
ENCODING 241
SWIDTH 600 0
DWIDTH 15 0
BBX 14 18 1 0
BITMAP
0C60
3FE0
3FE0
33C0
0000
0000
F3C0
F7E0
FFF0
3C70
3870
3870
3870
3870
3870
FCF8
FCFC
FCFC
ENDCHAR
STARTCHAR 00F2
ENCODING 242
SWIDTH 600 0
DWIDTH 15 0
BBX 13 19 1 0
BITMAP
0800
1C00
1E00
1F00
0780
0180
0000
0F80
3FE0
7FF0
78F0
F070
F078
F078
7070
78F0
7FF0
3FE0
0F80
ENDCHAR
STARTCHAR 00F3
ENCODING 243
SWIDTH 600 0
DWIDTH 15 0
BBX 13 19 1 0
BITMAP
0080
01C0
03C0
07C0
0F00
0C00
0000
0F80
3FE0
7FF0
78F0
F070
F078
F078
7070
78F0
7FF0
3FE0
0F80
ENDCHAR
STARTCHAR 00F4
ENCODING 244
SWIDTH 600 0
DWIDTH 15 0
BBX 13 18 1 0
BITMAP
0700
0F80
1FC0
3DE0
3060
0000
0F80
3FE0
7FF0
78F0
F070
F078
F078
7070
78F0
7FF0
3FE0
0F80
ENDCHAR
STARTCHAR 00F5
ENCODING 245
SWIDTH 600 0
DWIDTH 15 0
BBX 13 18 1 0
BITMAP
0C60
3FE0
3FE0
33C0
0000
0000
0F80
3FE0
7FF0
78F0
F070
F078
F078
7070
78F0
7FF0
3FE0
0F80
ENDCHAR
STARTCHAR 00F6
ENCODING 246
SWIDTH 600 0
DWIDTH 15 0
BBX 13 18 1 0
BITMAP
38E0
38E0
38E0
38E0
0000
0000
0F80
3FE0
7FF0
78F0
F070
F078
F078
7070
78F0
7FF0
3FE0
0F80
ENDCHAR
STARTCHAR 00F7
ENCODING 247
SWIDTH 600 0
DWIDTH 15 0
BBX 11 13 2 1
BITMAP
0E00
0E00
0E00
0000
0000
FFE0
FFE0
FFE0
0000
0000
0E00
0E00
0E00
ENDCHAR
STARTCHAR 00F8
ENCODING 248
SWIDTH 600 0
DWIDTH 15 0
BBX 13 14 1 -1
BITMAP
0010
0FB8
3FF0
7FF0
79F0
F3F0
F7F8
FF78
FE70
7CF0
7FF0
7FE0
EF80
4000
ENDCHAR
STARTCHAR 00F9
ENCODING 249
SWIDTH 600 0
DWIDTH 15 0
BBX 13 19 1 0
BITMAP
0800
1C00
1E00
1F00
0780
0180
0000
F1F0
F3F0
F1F0
7070
7070
70F0
70F0
70F0
79F0
3FF8
3F78
1E78
ENDCHAR
STARTCHAR 00FA
ENCODING 250
SWIDTH 600 0
DWIDTH 15 0
BBX 13 19 1 0
BITMAP
0080
01C0
03E0
07C0
0F00
0C00
0000
F1F0
F3F0
F1F0
7070
7070
70F0
70F0
70F0
79F0
3FF8
3F78
1E78
ENDCHAR
STARTCHAR 00FB
ENCODING 251
SWIDTH 600 0
DWIDTH 15 0
BBX 13 18 1 0
BITMAP
0600
0F80
1FC0
3DE0
3040
0000
F1F0
F3F0
F1F0
7070
7070
70F0
70F0
70F0
79F0
3FF8
3F78
1E78
ENDCHAR
STARTCHAR 00FC
ENCODING 252
SWIDTH 600 0
DWIDTH 15 0
BBX 13 18 1 0
BITMAP
39C0
39C0
39C0
39C0
0000
0000
F1F0
F3F0
F1F0
7070
7070
70F0
70F0
70F0
79F0
3FF8
3F78
1E78
ENDCHAR
STARTCHAR 00FD
ENCODING 253
SWIDTH 600 0
DWIDTH 15 0
BBX 15 24 0 -5
BITMAP
0040
00E0
01F0
03E0
0780
0600
0000
7EFC
FEFE
7EFC
3C78
1C70
1E70
0EE0
0FE0
07C0
07C0
0380
0380
0700
0F00
3E00
7C00
3800
ENDCHAR
STARTCHAR 00FE
ENCODING 254
SWIDTH 600 0
DWIDTH 15 0
BBX 14 22 0 -5
BITMAP
7800
F800
7800
3800
3800
39E0
3FF0
3FF8
3C38
3C3C
383C
383C
3C3C
3C38
3FF8
3FF0
3BE0
3800
3800
7F00
FF00
7F00
ENDCHAR
STARTCHAR 00FF
ENCODING 255
SWIDTH 600 0
DWIDTH 15 0
BBX 15 23 0 -5
BITMAP
1C70
1C70
1C70
1C70
0000
0000
7EFC
FEFE
7EFC
3C78
1C70
1E70
0EE0
0FE0
07C0
07C0
0380
0380
0700
0F00
3E00
7C00
3800
ENDCHAR
STARTCHAR 0152
ENCODING 140
SWIDTH 600 0
DWIDTH 15 0
BBX 13 15 1 0
BITMAP
0FF8
3FF8
7FF8
F338
E338
E300
E3C0
E3E0
E3C0
E300
E318
7318
7FF8
3FF8
1FF8
ENDCHAR
STARTCHAR 0153
ENCODING 156
SWIDTH 600 0
DWIDTH 15 0
BBX 15 12 0 0
BITMAP
1E78
7FFC
7FFC
738C
E3FC
E3FE
E3FE
E380
7384
7FFC
7FFE
1E78
ENDCHAR
STARTCHAR 0160
ENCODING 138
SWIDTH 600 0
DWIDTH 15 0
BBX 11 21 2 0
BITMAP
6080
7BC0
3F80
1F00
0E00
0000
3EE0
7FE0
FFE0
E1E0
E0E0
F000
FF80
3FC0
07E0
C0E0
E0E0
F0E0
FFE0
FFC0
EF80
ENDCHAR
STARTCHAR 0161
ENCODING 154
SWIDTH 600 0
DWIDTH 15 0
BBX 11 18 2 0
BITMAP
6080
7BC0
3F80
1F00
0E00
0000
3EC0
7FE0
FFE0
E0C0
F000
7F80
3FE0
01E0
E0E0
FFE0
FFC0
EF80
ENDCHAR
STARTCHAR 0178
ENCODING 159
SWIDTH 600 0
DWIDTH 15 0
BBX 15 21 0 0
BITMAP
1C70
1C70
1C70
1C70
0000
0000
7EFC
FEFE
7E7C
3C78
1C70
0EE0
0FE0
07C0
0380
0380
0380
0380
1FF0
1FF0
1FF0
ENDCHAR
STARTCHAR 017D
ENCODING 142
SWIDTH 600 0
DWIDTH 15 0
BBX 11 21 2 0
BITMAP
20C0
7BC0
3F80
1F00
0E00
0000
FFE0
FFE0
FFE0
E3C0
E380
E780
0F00
1E00
1E00
3CE0
78E0
70E0
FFE0
FFE0
FFE0
ENDCHAR
STARTCHAR 017E
ENCODING 158
SWIDTH 600 0
DWIDTH 15 0
BBX 11 18 2 0
BITMAP
20C0
7BC0
3F80
1F00
0E00
0000
FFE0
FFE0
FFE0
E3C0
E780
0F00
1E00
3CE0
78E0
FFE0
FFE0
FFE0
ENDCHAR
STARTCHAR 0192
ENCODING 131
SWIDTH 600 0
DWIDTH 15 0
BBX 14 20 0 -3
BITMAP
007C
01FC
01FC
03C0
0380
0380
1FF8
1FF8
1FF8
0380
0380
0780
0700
0700
0700
0700
0700
FF00
FE00
7C00
ENDCHAR
STARTCHAR 02C6
ENCODING 136
SWIDTH 600 0
DWIDTH 15 0
BBX 9 5 3 13
BITMAP
1C00
3E00
7F00
F780
C180
ENDCHAR
STARTCHAR 02DC
ENCODING 152
SWIDTH 600 0
DWIDTH 15 0
BBX 9 4 3 14
BITMAP
3180
FF80
FF80
CF00
ENDCHAR
STARTCHAR 2013
ENCODING 150
SWIDTH 600 0
DWIDTH 15 0
BBX 11 3 2 6
BITMAP
FFE0
FFE0
FFE0
ENDCHAR
STARTCHAR 2014
ENCODING 151
SWIDTH 600 0
DWIDTH 15 0
BBX 15 3 0 6
BITMAP
FFFE
FFFE
FFFE
ENDCHAR
STARTCHAR 2018
ENCODING 145
SWIDTH 600 0
DWIDTH 15 0
BBX 5 8 5 9
BITMAP
38
38
38
70
70
F0
F0
F0
ENDCHAR
STARTCHAR 2019
ENCODING 146
SWIDTH 600 0
DWIDTH 15 0
BBX 5 8 5 9
BITMAP
78
78
70
70
F0
E0
E0
C0
ENDCHAR
STARTCHAR 201A
ENCODING 130
SWIDTH 600 0
DWIDTH 15 0
BBX 5 8 5 -3
BITMAP
78
78
70
70
F0
E0
E0
C0
ENDCHAR
STARTCHAR 201C
ENCODING 147
SWIDTH 600 0
DWIDTH 15 0
BBX 12 8 1 9
BITMAP
1830
1870
3870
3870
78F0
78E0
71E0
F1E0
ENDCHAR
STARTCHAR 201D
ENCODING 148
SWIDTH 600 0
DWIDTH 15 0
BBX 12 8 2 9
BITMAP
78F0
71E0
F1E0
F1C0
E1C0
E1C0
C180
C380
ENDCHAR
STARTCHAR 201E
ENCODING 132
SWIDTH 600 0
DWIDTH 15 0
BBX 12 8 2 -3
BITMAP
78F0
71E0
F1E0
F1C0
E1C0
E1C0
C180
C380
ENDCHAR
STARTCHAR 2020
ENCODING 134
SWIDTH 600 0
DWIDTH 15 0
BBX 9 12 3 3
BITMAP
1C00
1C00
1C00
FF80
FF80
FF80
1C00
1C00
1C00
1C00
1C00
1C00
ENDCHAR
STARTCHAR 2021
ENCODING 135
SWIDTH 600 0
DWIDTH 15 0
BBX 9 13 3 2
BITMAP
1C00
1C00
FF80
FF80
FF80
1C00
1C00
FF80
FF80
FF80
1C00
1C00
1C00
ENDCHAR
STARTCHAR 2022
ENCODING 149
SWIDTH 600 0
DWIDTH 15 0
BBX 7 7 4 4
BITMAP
7C
FE
FE
FE
FE
FE
7C
ENDCHAR
STARTCHAR 2026
ENCODING 133
SWIDTH 600 0
DWIDTH 15 0
BBX 13 4 1 0
BITMAP
E738
E738
E738
E738
ENDCHAR
STARTCHAR 2030
ENCODING 137
SWIDTH 600 0
DWIDTH 15 0
BBX 18 15 1 0
BITMAP
780000
FC0000
FC3800
CC7800
FCF000
FDE000
338000
070000
0EF700
3DFF80
79FFC0
F199C0
E1FFC0
01FF80
00F700
ENDCHAR
STARTCHAR 2039
ENCODING 139
SWIDTH 600 0
DWIDTH 15 0
BBX 6 10 4 2
BITMAP
08
1C
3C
78
70
F0
78
3C
1C
0C
ENDCHAR
STARTCHAR 203A
ENCODING 155
SWIDTH 600 0
DWIDTH 15 0
BBX 6 10 5 2
BITMAP
40
E0
F0
78
38
3C
78
F0
E0
C0
ENDCHAR
STARTCHAR 20AC
ENCODING 128
SWIDTH 600 0
DWIDTH 15 0
BBX 13 15 1 0
BITMAP
0FB8
1FF8
3FF8
3878
FF38
FF38
FF00
7800
FF00
FF00
FF00
3810
3FF8
1FF8
07C0
ENDCHAR
STARTCHAR 2122
ENCODING 153
SWIDTH 600 0
DWIDTH 15 0
BBX 15 7 1 9
BITMAP
FD8C
FDCC
31DC
31FE
31F6
31B6
3186
ENDCHAR
ENDFONT
