STARTFONT 2.1
COMMENT
COMMENT Converted from OpenType font "CourierPrime-Regular.ttf" by "otf2bdf 3.0".
COMMENT
FONT -FreeType-courier prime cp1252-Medium-R-Normal--33-240-100-100-P-151-ISO10646-1
SIZE 24 100 100
FONTBOUNDINGBOX 26 37 0 -8
STARTPROPERTIES 19
FOUNDRY "FreeType"
FAMILY_NAME "courier prime cp1252"
WEIGHT_NAME "Medium"
SLANT "R"
SETWIDTH_NAME "Normal"
ADD_STYLE_NAME ""
PIXEL_SIZE 33
POINT_SIZE 240
RESOLUTION_X 100
RESOLUTION_Y 100
SPACING "P"
AVERAGE_WIDTH 151
CHARSET_REGISTRY "ISO10646"
CHARSET_ENCODING "1"
FONT_ASCENT 25
FONT_DESCENT 11
COPYRIGHT "Copyright 2015 The Courier Prime Project Authors (https://github.com/quoteunquoteapps/CourierPrime)."
_OTF_FONTFILE "CourierPrime-Regular.ttf"
_OTF_PSNAME "CourierPrime-Regular"
ENDPROPERTIES
CHARS 219
STARTCHAR 000D
ENCODING 13
SWIDTH 600 0
DWIDTH 20 0
BBX 0 0 0 0
BITMAP
ENDCHAR
STARTCHAR 0020
ENCODING 32
SWIDTH 600 0
DWIDTH 20 0
BBX 0 0 0 0
BITMAP
ENDCHAR
STARTCHAR 0021
ENCODING 33
SWIDTH 600 0
DWIDTH 20 0
BBX 4 20 8 0
BITMAP
F0
F0
F0
E0
E0
E0
60
60
60
60
60
60
60
00
00
00
F0
F0
F0
F0
ENDCHAR
STARTCHAR 0022
ENCODING 34
SWIDTH 600 0
DWIDTH 20 0
BBX 12 9 4 11
BITMAP
F0F0
F0F0
F0E0
70E0
70E0
70E0
70E0
60E0
6060
ENDCHAR
STARTCHAR 0023
ENCODING 35
SWIDTH 600 0
DWIDTH 20 0
BBX 18 19 1 0
BITMAP
018600
018600
038600
030600
030C00
7FFFC0
7FFFC0
061C00
061800
061800
0C1800
FFFF80
FFFF80
0C3000
183000
186000
186000
386000
306000
ENDCHAR
STARTCHAR 0024
ENCODING 36
SWIDTH 600 0
DWIDTH 20 0
BBX 14 23 3 -2
BITMAP
0300
0300
0300
0300
1F98
7FD8
F3F8
E338
E318
F300
7FC0
1FF8
0378
C31C
C31C
E31C
FF78
DFF8
CFE0
0300
0300
0300
0300
ENDCHAR
STARTCHAR 0025
ENCODING 37
SWIDTH 600 0
DWIDTH 20 0
BBX 18 19 1 0
BITMAP
3C0000
7F0000
F70100
C38380
C38700
E30E00
7F1C00
3E3800
00F000
01E000
038F00
073F80
0E3BC0
1C70C0
3860C0
7070C0
403BC0
003F80
000F00
ENDCHAR
STARTCHAR 0026
ENCODING 38
SWIDTH 600 0
DWIDTH 20 0
BBX 16 19 2 0
BITMAP
07C0
1FF0
3E78
3838
3038
3000
3800
1800
1C00
3E0F
7F1F
7398
61D8
E0F8
E070
6078
7BFC
3FDF
1F0F
ENDCHAR
STARTCHAR 0027
ENCODING 39
SWIDTH 600 0
DWIDTH 20 0
BBX 4 9 8 11
BITMAP
F0
F0
F0
F0
E0
E0
60
60
60
ENDCHAR
STARTCHAR 0028
ENCODING 40
SWIDTH 600 0
DWIDTH 20 0
BBX 9 27 5 -5
BITMAP
0380
0780
0E00
1C00
3800
3800
7000
6000
6000
E000
C000
C000
C000
C000
C000
C000
C000
E000
6000
7000
7000
3800
1C00
1E00
0F00
0780
0180
ENDCHAR
STARTCHAR 0029
ENCODING 41
SWIDTH 600 0
DWIDTH 20 0
BBX 9 27 6 -5
BITMAP
C000
E000
7000
3800
1C00
0E00
0600
0700
0300
0300
0380
0380
0180
0180
0180
0380
0380
0380
0300
0700
0600
0E00
1C00
3C00
7800
F000
E000
ENDCHAR
STARTCHAR 002A
ENCODING 42
SWIDTH 600 0
DWIDTH 20 0
BBX 14 13 3 6
BITMAP
0300
0700
0300
0300
E318
FB7C
7FF8
0700
0780
0DC0
1CE0
3870
1860
ENDCHAR
STARTCHAR 002B
ENCODING 43
SWIDTH 600 0
DWIDTH 20 0
BBX 14 14 3 2
BITMAP
0300
0300
0300
0300
0300
0300
FFFC
FFFC
0300
0300
0300
0300
0300
0300
ENDCHAR
STARTCHAR 002C
ENCODING 44
SWIDTH 600 0
DWIDTH 20 0
BBX 6 9 6 -5
BITMAP
3C
7C
78
78
70
70
E0
E0
C0
ENDCHAR
STARTCHAR 002D
ENCODING 45
SWIDTH 600 0
DWIDTH 20 0
BBX 14 2 3 8
BITMAP
FFFC
FFFC
ENDCHAR
STARTCHAR 002E
ENCODING 46
SWIDTH 600 0
DWIDTH 20 0
BBX 4 5 8 0
BITMAP
F0
F0
F0
F0
F0
ENDCHAR
STARTCHAR 002F
ENCODING 47
SWIDTH 600 0
DWIDTH 20 0
BBX 14 28 3 -6
BITMAP
0008
001C
0038
0038
0030
0070
0070
00E0
00E0
00C0
01C0
0180
0380
0380
0700
0700
0600
0E00
0E00
1C00
1C00
3800
3800
3000
7000
7000
E000
E000
ENDCHAR
STARTCHAR 0030
ENCODING 48
SWIDTH 600 0
DWIDTH 20 0
BBX 14 19 3 0
BITMAP
0F80
1FE0
3CF0
7070
7038
6018
E018
E01C
E01C
E01C
E01C
E01C
E018
6018
7038
7070
3CF0
1FE0
0F80
ENDCHAR
STARTCHAR 0031
ENCODING 49
SWIDTH 600 0
DWIDTH 20 0
BBX 13 19 4 0
BITMAP
0300
0F00
3F00
7F00
E700
C700
0700
0700
0700
0700
0700
0700
0700
0700
0700
0700
0700
FFF8
FFF8
ENDCHAR
STARTCHAR 0032
ENCODING 50
SWIDTH 600 0
DWIDTH 20 0
BBX 13 19 3 0
BITMAP
1F80
7FE0
79F0
6070
6030
6038
0030
0070
0070
00E0
01C0
0380
0700
0E00
1C18
3818
7018
FFF8
FFF8
ENDCHAR
STARTCHAR 0033
ENCODING 51
SWIDTH 600 0
DWIDTH 20 0
BBX 13 19 3 0
BITMAP
1F80
7FE0
78F0
6030
6038
0038
0030
00F0
07E0
07F0
0070
0038
0018
0018
0018
E038
FCF0
7FE0
1FC0
ENDCHAR
STARTCHAR 0034
ENCODING 52
SWIDTH 600 0
DWIDTH 20 0
BBX 15 19 2 0
BITMAP
0060
00F0
01F0
03F0
0370
0770
0E70
1C70
1870
3870
7070
FFFE
FFFE
0070
0070
0070
0070
03FE
03FE
ENDCHAR
STARTCHAR 0035
ENCODING 53
SWIDTH 600 0
DWIDTH 20 0
BBX 13 19 3 0
BITMAP
3FF0
7FF0
7000
7000
7000
7000
7FC0
7FE0
7CF0
2038
0038
0018
0018
0018
0038
C038
FCF0
7FE0
1F80
ENDCHAR
STARTCHAR 0036
ENCODING 54
SWIDTH 600 0
DWIDTH 20 0
BBX 14 19 3 0
BITMAP
00F8
07F8
0FE0
1E00
3800
7000
7000
67C0
FFF0
FCF8
F038
E01C
E01C
601C
601C
7038
3CF8
1FF0
0FC0
ENDCHAR
STARTCHAR 0037
ENCODING 55
SWIDTH 600 0
DWIDTH 20 0
BBX 13 19 4 0
BITMAP
FFF0
FFF8
C030
C070
C060
80E0
00E0
00C0
01C0
0180
0380
0300
0700
0700
0600
0E00
0C00
1C00
1800
ENDCHAR
STARTCHAR 0038
ENCODING 56
SWIDTH 600 0
DWIDTH 20 0
BBX 13 19 3 0
BITMAP
0FC0
1FE0
3CF0
7038
6038
6038
7038
3CF0
1FE0
3FF0
7878
6038
E018
E018
E018
7038
7CF0
3FE0
0FC0
ENDCHAR
STARTCHAR 0039
ENCODING 57
SWIDTH 600 0
DWIDTH 20 0
BBX 14 19 3 0
BITMAP
0F80
3FE0
7DF0
7038
E018
E018
E018
E03C
707C
3FF8
1FD8
0038
0038
0070
00F0
01E0
0FC0
7F00
7C00
ENDCHAR
STARTCHAR 003A
ENCODING 58
SWIDTH 600 0
DWIDTH 20 0
BBX 4 15 8 0
BITMAP
F0
F0
F0
F0
F0
00
00
00
00
00
F0
F0
F0
F0
F0
ENDCHAR
STARTCHAR 003B
ENCODING 59
SWIDTH 600 0
DWIDTH 20 0
BBX 6 19 6 -4
BITMAP
3C
3C
3C
3C
3C
00
00
00
00
00
3C
3C
7C
78
78
70
70
E0
E0
ENDCHAR
STARTCHAR 003C
ENCODING 60
SWIDTH 600 0
DWIDTH 20 0
BBX 15 15 2 2
BITMAP
0006
001E
007C
01F0
07C0
1F00
7C00
F000
7800
3F00
07C0
01F0
007C
001E
0006
ENDCHAR
STARTCHAR 003D
ENCODING 61
SWIDTH 600 0
DWIDTH 20 0
BBX 14 8 3 5
BITMAP
FFFC
FFFC
0000
0000
0000
0000
FFFC
FFFC
ENDCHAR
STARTCHAR 003E
ENCODING 62
SWIDTH 600 0
DWIDTH 20 0
BBX 15 15 3 2
BITMAP
C000
F000
7C00
1F00
07C0
01F0
007C
001E
007C
01F0
07C0
1F00
7C00
F000
C000
ENDCHAR
STARTCHAR 003F
ENCODING 63
SWIDTH 600 0
DWIDTH 20 0
BBX 12 20 4 0
BITMAP
3F80
FFE0
E0E0
E060
C070
0060
00E0
01E0
0F80
0F00
0C00
0C00
0C00
0000
0000
0000
0E00
1E00
1E00
0E00
ENDCHAR
STARTCHAR 0040
ENCODING 64
SWIDTH 600 0
DWIDTH 20 0
BBX 18 20 1 -2
BITMAP
01F800
07FE00
1F9F00
3C0700
300180
60E980
63E8C0
C3B8C0
C738C0
C638C0
CE30C0
CC31C0
CE7180
CFDF80
C79F00
600000
700000
3E3800
1FF800
07F000
ENDCHAR
STARTCHAR 0041
ENCODING 65
SWIDTH 600 0
DWIDTH 20 0
BBX 20 19 0 0
BITMAP
1FF000
1FF000
01F000
019800
019800
031C00
030C00
070C00
060E00
060600
0E0600
0FFF00
0FFF00
1C0300
180380
380180
3801C0
FF0FF0
FE0FF0
ENDCHAR
STARTCHAR 0042
ENCODING 66
SWIDTH 600 0
DWIDTH 20 0
BBX 17 19 1 0
BITMAP
FFF000
FFFC00
1C3E00
1C0E00
1C0600
1C0600
1C0E00
1C1E00
1FFC00
1FFE00
1C1F00
1C0700
1C0380
1C0380
1C0380
1C0700
1C1F00
FFFE00
FFF800
ENDCHAR
STARTCHAR 0043
ENCODING 67
SWIDTH 600 0
DWIDTH 20 0
BBX 16 19 2 0
BITMAP
07E6
1FF6
3E3E
380E
7006
6006
E006
E000
E000
C000
C000
E000
E000
6000
7000
7806
3E7F
1FFC
07F0
ENDCHAR
STARTCHAR 0044
ENCODING 68
SWIDTH 600 0
DWIDTH 20 0
BBX 17 19 1 0
BITMAP
FFF000
FFFC00
1C3E00
1C0F00
1C0700
1C0380
1C0380
1C0180
1C0180
1C0180
1C0180
1C0180
1C0380
1C0380
1C0700
1C0F00
1C3E00
FFFC00
FFF000
ENDCHAR
STARTCHAR 0045
ENCODING 69
SWIDTH 600 0
DWIDTH 20 0
BBX 17 19 1 0
BITMAP
FFFF00
FFFF00
180300
180300
180300
180300
183000
183000
1FF000
1FF000
183000
183000
183100
180380
180380
180380
180380
FFFF80
FFFF80
ENDCHAR
STARTCHAR 0046
ENCODING 70
SWIDTH 600 0
DWIDTH 20 0
BBX 17 19 1 0
BITMAP
FFFF80
FFFF80
1C0380
1C0380
1C0380
1C0380
1C3000
1C3000
1C3000
1FF000
1FF000
1C3000
1C3000
1C0000
1C0000
1C0000
1C0000
FFE000
FFE000
ENDCHAR
STARTCHAR 0047
ENCODING 71
SWIDTH 600 0
DWIDTH 20 0
BBX 17 19 2 0
BITMAP
07E600
1FF600
3E7E00
780E00
700E00
E00600
E00600
C00000
C00000
C00000
C0FF80
C0FF80
E00600
E00600
700600
780600
3E3E00
1FFE00
07F000
ENDCHAR
STARTCHAR 0048
ENCODING 72
SWIDTH 600 0
DWIDTH 20 0
BBX 18 19 1 0
BITMAP
FE1F80
FE3FC0
380600
380600
380600
380600
380600
380600
3FFE00
3FFE00
380600
380600
380600
380600
380600
380600
380600
FE3FC0
FE1F80
ENDCHAR
STARTCHAR 0049
ENCODING 73
SWIDTH 600 0
DWIDTH 20 0
BBX 14 19 3 0
BITMAP
7FF8
7FF8
0300
0300
0300
0300
0300
0300
0300
0300
0300
0300
0300
0300
0300
0300
0300
FFFC
FFF8
ENDCHAR
STARTCHAR 004A
ENCODING 74
SWIDTH 600 0
DWIDTH 20 0
BBX 17 19 2 0
BITMAP
0FFF80
1FFF80
003000
003000
003000
003000
003000
003000
003000
003000
403000
C03000
C03000
C03000
C03000
C07000
F9F000
7FE000
1F8000
ENDCHAR
STARTCHAR 004B
ENCODING 75
SWIDTH 600 0
DWIDTH 20 0
BBX 18 19 1 0
BITMAP
FF1FC0
FF3FC0
1C0F00
1C1C00
1C3800
1C7000
1CE000
1DC000
1F8000
1FF000
1FF800
1E3800
1C1C00
1C0C00
1C0E00
1C0E00
1C0700
FF87C0
FF83C0
ENDCHAR
STARTCHAR 004C
ENCODING 76
SWIDTH 600 0
DWIDTH 20 0
BBX 17 19 1 0
BITMAP
FFE000
FFE000
0C0000
0C0000
0C0000
0C0000
0C0000
0C0000
0C0000
0C0000
0C0000
0C0380
0C0380
0C0380
0C0380
0C0380
0C0380
FFFF80
FFFF80
ENDCHAR
STARTCHAR 004D
ENCODING 77
SWIDTH 600 0
DWIDTH 20 0
BBX 19 19 0 0
BITMAP
7C07E0
7E07E0
1E0780
1E0F80
1F0D80
1B0D80
1B9D80
1B9980
199980
19F980
18F180
38F180
38E180
386180
380180
380180
380180
FF0FE0
7E0FE0
ENDCHAR
STARTCHAR 004E
ENCODING 78
SWIDTH 600 0
DWIDTH 20 0
BBX 18 19 1 0
BITMAP
FC1FC0
FC3FC0
3E0700
3E0700
3F0700
3B8700
3B8700
39C700
39C700
38E700
386700
387700
383700
383F00
381F00
380F00
380F00
FF0700
FF0700
ENDCHAR
STARTCHAR 004F
ENCODING 79
SWIDTH 600 0
DWIDTH 20 0
BBX 17 19 1 0
BITMAP
03F000
0FFC00
1F3E00
380F00
700700
700380
600380
600180
E00180
E00180
E00180
600180
600380
700380
700700
380F00
1F3E00
0FFC00
03F000
ENDCHAR
STARTCHAR 0050
ENCODING 80
SWIDTH 600 0
DWIDTH 20 0
BBX 17 19 1 0
BITMAP
FFF800
FFFE00
0C1F00
0C0700
0C0380
0C0380
0C0380
0C0380
0C0380
0C0F00
0FFE00
0FFC00
0C0000
0C0000
0C0000
0C0000
0C0000
FFE000
FFE000
ENDCHAR
STARTCHAR 0051
ENCODING 81
SWIDTH 600 0
DWIDTH 20 0
BBX 17 23 1 -4
BITMAP
03F000
0FFC00
1F3E00
380F00
700700
700380
600380
600180
E00180
E00180
E00180
600180
600380
700380
700700
380F00
1F3E00
0FFC00
03F000
070000
0E0100
1FFF80
1FFF00
ENDCHAR
STARTCHAR 0052
ENCODING 82
SWIDTH 600 0
DWIDTH 20 0
BBX 18 19 1 0
BITMAP
FFF000
FFFC00
1C3E00
1C0700
1C0700
1C0700
1C0700
1C0600
1C3E00
1FFC00
1FF000
1C3800
1C1C00
1C1C00
1C0E00
1C0E00
1C0700
FF87C0
FF83C0
ENDCHAR
STARTCHAR 0053
ENCODING 83
SWIDTH 600 0
DWIDTH 20 0
BBX 14 19 3 0
BITMAP
1F98
7FD8
F9F8
E038
C018
C018
E000
F800
7FC0
1FF0
00F8
001C
C01C
C00C
E01C
F01C
FC78
DFF0
C7E0
ENDCHAR
STARTCHAR 0054
ENCODING 84
SWIDTH 600 0
DWIDTH 20 0
BBX 16 19 2 0
BITMAP
FFFF
FFFF
C187
C187
C187
C187
C187
C187
0180
0180
0180
0180
0180
0180
0180
0180
0180
3FFC
3FFC
ENDCHAR
STARTCHAR 0055
ENCODING 85
SWIDTH 600 0
DWIDTH 20 0
BBX 18 19 1 0
BITMAP
FE1FC0
FE3FC0
380700
380700
380700
380700
380700
380700
380700
380700
380700
380700
380700
380700
380600
1C0E00
1F3E00
0FFC00
03F000
ENDCHAR
STARTCHAR 0056
ENCODING 86
SWIDTH 600 0
DWIDTH 20 0
BBX 20 19 0 0
BITMAP
FF0FF0
FF0FF0
380180
180380
1C0380
0C0300
0C0700
0E0600
060600
070E00
070C00
030C00
039C00
019800
01B800
01F800
00F000
00F000
00E000
ENDCHAR
STARTCHAR 0057
ENCODING 87
SWIDTH 600 0
DWIDTH 20 0
BBX 20 19 0 0
BITMAP
FE07F0
FE07F0
3000C0
3000C0
3001C0
3061C0
38E180
38F180
38F180
19F180
19B980
199B80
1B9B80
1B1F80
1F0F00
1F0F00
0E0F00
0E0700
0E0700
ENDCHAR
STARTCHAR 0058
ENCODING 88
SWIDTH 600 0
DWIDTH 20 0
BBX 18 19 1 0
BITMAP
FF1F80
FF1FC0
1C0E00
1C0E00
0E1C00
073800
073000
03F000
01E000
01E000
03E000
03F000
073800
0E1C00
1C1C00
1C0E00
380700
FE3FC0
FE3FC0
ENDCHAR
STARTCHAR 0059
ENCODING 89
SWIDTH 600 0
DWIDTH 20 0
BBX 18 19 1 0
BITMAP
FE1FC0
FE1FC0
380700
1C0E00
1C0C00
0E1C00
063800
073000
03F000
01E000
01E000
00C000
00C000
00C000
00C000
00C000
00C000
1FFE00
1FFE00
ENDCHAR
STARTCHAR 005A
ENCODING 90
SWIDTH 600 0
DWIDTH 20 0
BBX 14 19 3 0
BITMAP
FFFC
FFFC
C038
C038
C070
C0E0
C1C0
01C0
0380
0700
0700
0E08
1C0C
180C
380C
700C
E00C
FFFC
FFFC
ENDCHAR
STARTCHAR 005B
ENCODING 91
SWIDTH 600 0
DWIDTH 20 0
BBX 9 27 5 -5
BITMAP
FF80
FF80
E000
E000
E000
E000
E000
E000
E000
E000
E000
E000
E000
E000
E000
E000
E000
E000
E000
E000
E000
E000
E000
E000
E000
FF80
FF80
ENDCHAR
STARTCHAR 005C
ENCODING 92
SWIDTH 600 0
DWIDTH 20 0
BBX 14 28 3 -6
BITMAP
4000
E000
6000
7000
7000
3800
3800
1800
1C00
1C00
0E00
0E00
0700
0700
0300
0380
0380
01C0
01C0
00C0
00E0
0060
0070
0070
0038
0038
0018
001C
ENDCHAR
STARTCHAR 005D
ENCODING 93
SWIDTH 600 0
DWIDTH 20 0
BBX 8 27 6 -5
BITMAP
FF
FF
03
03
03
03
03
03
03
03
03
03
03
03
03
03
03
03
03
03
03
03
03
03
03
FF
FF
ENDCHAR
STARTCHAR 005E
ENCODING 94
SWIDTH 600 0
DWIDTH 20 0
BBX 12 11 4 8
BITMAP
0600
0E00
0F00
1F80
1980
39C0
30C0
70E0
E060
E070
C030
ENDCHAR
STARTCHAR 005F
ENCODING 95
SWIDTH 600 0
DWIDTH 20 0
BBX 20 2 0 -6
BITMAP
FFFFF0
FFFFF0
ENDCHAR
STARTCHAR 0060
ENCODING 96
SWIDTH 600 0
DWIDTH 20 0
BBX 8 6 5 16
BITMAP
60
F0
78
3E
0F
03
ENDCHAR
STARTCHAR 0061
ENCODING 97
SWIDTH 600 0
DWIDTH 20 0
BBX 17 15 2 0
BITMAP
0FE000
3FF800
7E7800
201C00
000C00
000C00
1FFC00
7FFC00
701C00
E00C00
E01C00
E03C00
79FE00
7FEF80
1F8780
ENDCHAR
STARTCHAR 0062
ENCODING 98
SWIDTH 600 0
DWIDTH 20 0
BBX 17 21 1 0
BITMAP
F80000
F80000
380000
380000
380000
380000
39F800
3BFC00
3F1E00
3C0700
380700
380380
380380
380380
380380
380380
380700
3C0700
3F1E00
FBFC00
F1F000
ENDCHAR
STARTCHAR 0063
ENCODING 99
SWIDTH 600 0
DWIDTH 20 0
BBX 15 15 2 0
BITMAP
07C6
1FFE
3E7E
701E
700E
E00E
E006
E000
E000
E000
6000
7006
3E7E
1FFC
07E0
ENDCHAR
STARTCHAR 0064
ENCODING 100
SWIDTH 600 0
DWIDTH 20 0
BBX 17 21 2 0
BITMAP
00FE00
007E00
000E00
000E00
000E00
000E00
0F8E00
1FEE00
3CFE00
703E00
E01E00
E00E00
E00E00
E00E00
E00E00
E00E00
E01E00
703E00
3C7E00
1FEF80
0F8F80
ENDCHAR
STARTCHAR 0065
ENCODING 101
SWIDTH 600 0
DWIDTH 20 0
BBX 16 15 2 0
BITMAP
07E0
1FF8
3E7C
700E
700E
6006
FFFF
FFFF
E000
6000
7000
7006
3E7E
1FFE
07F0
ENDCHAR
STARTCHAR 0066
ENCODING 102
SWIDTH 600 0
DWIDTH 20 0
BBX 15 21 3 0
BITMAP
01F8
03FE
079E
0E00
0E00
0E00
0E00
0E00
FFF8
FFF8
0E00
0E00
0E00
0E00
0E00
0E00
0E00
0E00
0E00
FFF8
FFF8
ENDCHAR
STARTCHAR 0067
ENCODING 103
SWIDTH 600 0
DWIDTH 20 0
BBX 17 21 2 -6
BITMAP
0FCF80
1FEF80
3CFE00
703E00
E01E00
E00E00
E00E00
E00E00
E00E00
E00E00
E01E00
703E00
3C7E00
1FEE00
0F8E00
000E00
000C00
001C00
7C7C00
7FF800
1FE000
ENDCHAR
STARTCHAR 0068
ENCODING 104
SWIDTH 600 0
DWIDTH 20 0
BBX 18 21 1 0
BITMAP
F80000
F80000
180000
180000
180000
180000
18F800
19FC00
1B9E00
1E0E00
1C0600
1C0600
180600
180600
180600
180600
180600
180600
180600
FF3FC0
7F1FC0
ENDCHAR
STARTCHAR 0069
ENCODING 105
SWIDTH 600 0
DWIDTH 20 0
BBX 15 21 3 0
BITMAP
0300
0700
0700
0300
0000
0000
7F00
7F00
0300
0300
0300
0300
0300
0300
0300
0300
0300
0300
0300
FFFE
FFFE
ENDCHAR
STARTCHAR 006A
ENCODING 106
SWIDTH 600 0
DWIDTH 20 0
BBX 12 27 3 -6
BITMAP
0060
00F0
00F0
0060
0000
0000
7FE0
7FF0
0070
0070
0070
0070
0070
0070
0070
0070
0070
0070
0070
0070
0070
0070
0060
C060
FDE0
7FC0
1F80
ENDCHAR
STARTCHAR 006B
ENCODING 107
SWIDTH 600 0
DWIDTH 20 0
BBX 18 21 1 0
BITMAP
FC0000
FC0000
1C0000
1C0000
1C0000
1C0000
1C3F80
1C3F80
1C0E00
1C3C00
1C7800
1CE000
1DC000
1FE000
1F7000
1E3800
1C1C00
1C0E00
1C0F00
FF3FC0
7F1FC0
ENDCHAR
STARTCHAR 006C
ENCODING 108
SWIDTH 600 0
DWIDTH 20 0
BBX 15 21 3 0
BITMAP
7F00
FF00
0300
0300
0300
0300
0300
0300
0300
0300
0300
0300
0300
0300
0300
0300
0300
0300
0300
FFFE
FFFC
ENDCHAR
STARTCHAR 006D
ENCODING 109
SWIDTH 600 0
DWIDTH 20 0
BBX 20 15 0 0
BITMAP
F3C780
F7EFC0
36FDC0
3C70C0
3870C0
3870C0
3870C0
3860C0
3860C0
3860C0
3860C0
3860C0
3860C0
FE78F0
FC78F0
ENDCHAR
STARTCHAR 006E
ENCODING 110
SWIDTH 600 0
DWIDTH 20 0
BBX 18 15 1 0
BITMAP
F8F800
F9FC00
1B9E00
1E0600
1C0600
1C0700
1C0700
180700
180700
180700
180700
180700
180700
7F1FC0
7F1FC0
ENDCHAR
STARTCHAR 006F
ENCODING 111
SWIDTH 600 0
DWIDTH 20 0
BBX 16 15 2 0
BITMAP
07E0
1FF8
3E7C
701E
700E
E006
E007
E007
E007
E006
700E
701E
3E7C
1FF8
07E0
ENDCHAR
STARTCHAR 0070
ENCODING 112
SWIDTH 600 0
DWIDTH 20 0
BBX 17 21 1 -6
BITMAP
F1F800
FBFC00
3F1E00
3C0700
380700
380380
380380
380380
380380
380380
380700
3C0700
3F1E00
3BFC00
39F000
380000
380000
380000
380000
FF0000
FF0000
ENDCHAR
STARTCHAR 0071
ENCODING 113
SWIDTH 600 0
DWIDTH 20 0
BBX 17 21 2 -6
BITMAP
0FCF80
1FEF80
3CFE00
703E00
E01E00
E00E00
E00E00
E00E00
E00E00
E00E00
E01E00
703E00
3C7E00
1FEE00
0F8E00
000E00
000E00
000E00
000E00
00FF80
00FF80
ENDCHAR
STARTCHAR 0072
ENCODING 114
SWIDTH 600 0
DWIDTH 20 0
BBX 16 15 2 0
BITMAP
7C1E
7C7F
0CF6
0DC0
0F00
0F00
0E00
0E00
0C00
0C00
0C00
0C00
0C00
FFF8
FFF8
ENDCHAR
STARTCHAR 0073
ENCODING 115
SWIDTH 600 0
DWIDTH 20 0
BBX 14 15 3 0
BITMAP
1F98
7FD8
F0F8
E038
E018
E000
7FC0
3FF0
00F8
C01C
C01C
E01C
FC78
DFF8
C7E0
ENDCHAR
STARTCHAR 0074
ENCODING 116
SWIDTH 600 0
DWIDTH 20 0
BBX 16 19 2 0
BITMAP
0E00
0E00
0E00
0E00
0E00
FFFC
FFFC
0E00
0E00
0E00
0E00
0E00
0E00
0E00
0E00
0E06
07BF
07FE
01F0
ENDCHAR
STARTCHAR 0075
ENCODING 117
SWIDTH 600 0
DWIDTH 20 0
BBX 17 15 1 0
BITMAP
F87E00
F87E00
380600
380600
380600
380600
380600
380600
380E00
380E00
180E00
181E00
1E7600
0FE780
07C780
ENDCHAR
STARTCHAR 0076
ENCODING 118
SWIDTH 600 0
DWIDTH 20 0
BBX 18 15 1 0
BITMAP
FE1FC0
FF1FC0
380700
380600
180E00
1C0E00
0C1C00
0E1C00
061800
073800
073000
037000
03E000
01E000
01C000
ENDCHAR
STARTCHAR 0077
ENCODING 119
SWIDTH 600 0
DWIDTH 20 0
BBX 20 15 0 0
BITMAP
FC03F0
FE07F0
7000E0
7040C0
3060C0
30F1C0
38F180
19F180
19B980
199B80
1F9B00
0F1F00
0F0F00
0F0F00
0E0600
ENDCHAR
STARTCHAR 0078
ENCODING 120
SWIDTH 600 0
DWIDTH 20 0
BBX 18 15 1 0
BITMAP
FF1F80
FF1FC0
1C0E00
0E1C00
0F3800
07B000
03E000
01E000
03F000
073800
0E1C00
1C0E00
380F00
FE3FC0
FE3FC0
ENDCHAR
STARTCHAR 0079
ENCODING 121
SWIDTH 600 0
DWIDTH 20 0
BBX 18 21 1 -6
BITMAP
FE1FC0
FF1FC0
380700
380600
1C0E00
1C0C00
0E1C00
061800
073800
033000
03F000
01E000
01E000
00C000
01C000
018000
038000
070000
1F0000
7E0000
780000
ENDCHAR
STARTCHAR 007A
ENCODING 122
SWIDTH 600 0
DWIDTH 20 0
BBX 14 15 3 0
BITMAP
FFFC
FFFC
E038
E070
E0E0
41C0
0380
0700
0F00
1E0C
3C1C
381C
701C
FFFC
FFFC
ENDCHAR
STARTCHAR 007B
ENCODING 123
SWIDTH 600 0
DWIDTH 20 0
BBX 13 27 3 -5
BITMAP
0078
01F8
03E0
0700
0700
0700
0700
0700
0700
0600
0600
1C00
F800
F800
3C00
0E00
0700
0700
0700
0700
0700
0700
0700
0700
03E0
01F8
0078
ENDCHAR
STARTCHAR 007C
ENCODING 124
SWIDTH 600 0
DWIDTH 20 0
BBX 2 28 9 -6
BITMAP
80
C0
C0
C0
C0
C0
C0
C0
C0
C0
C0
C0
C0
C0
C0
C0
C0
C0
C0
C0
C0
C0
C0
C0
C0
C0
C0
C0
ENDCHAR
STARTCHAR 007D
ENCODING 125
SWIDTH 600 0
DWIDTH 20 0
BBX 13 27 4 -5
BITMAP
F000
FC00
3E00
0E00
0700
0700
0700
0700
0700
0700
0300
0380
00F8
00F8
03E0
0300
0700
0600
0600
0700
0700
0700
0700
0E00
3E00
FC00
F000
ENDCHAR
STARTCHAR 007E
ENCODING 126
SWIDTH 600 0
DWIDTH 20 0
BBX 15 5 2 7
BITMAP
1E00
7F86
F7FE
61FC
0078
ENDCHAR
STARTCHAR 00A0
ENCODING 160
SWIDTH 600 0
DWIDTH 20 0
BBX 0 0 0 0
BITMAP
ENDCHAR
STARTCHAR 00A1
ENCODING 161
SWIDTH 600 0
DWIDTH 20 0
BBX 4 20 8 -5
BITMAP
F0
F0
F0
F0
00
00
00
60
60
60
60
60
60
60
E0
E0
E0
E0
F0
F0
ENDCHAR
STARTCHAR 00A2
ENCODING 162
SWIDTH 600 0
DWIDTH 20 0
BBX 15 23 2 -2
BITMAP
0180
0180
0180
0180
07C6
1FFE
3FFE
799E
718E
E18E
E186
E180
E180
E180
E180
7184
399E
1FFC
0FF0
0180
0180
0180
0180
ENDCHAR
STARTCHAR 00A3
ENCODING 163
SWIDTH 600 0
DWIDTH 20 0
BBX 14 19 3 0
BITMAP
0FC0
1FF0
3CF8
3038
7030
3000
3000
3800
1C00
FFF0
FFF0
0C00
0C00
1C00
1800
3800
7018
FFFC
7FF0
ENDCHAR
STARTCHAR 00A4
ENCODING 164
SWIDTH 600 0
DWIDTH 20 0
BBX 16 16 2 2
BITMAP
C003
E007
77EE
7FFC
3C38
301C
700C
700C
700E
700C
301C
3C38
3FFC
77EE
E007
C003
ENDCHAR
STARTCHAR 00A5
ENCODING 165
SWIDTH 600 0
DWIDTH 20 0
BBX 18 19 1 0
BITMAP
FE1FC0
FE1FC0
380700
1C0E00
1C0C00
0E1C00
3E3F00
7F3F00
03F000
01E000
01C000
3FFF00
3FFF00
00C000
00C000
00C000
00C000
1FFE00
1FFE00
ENDCHAR
STARTCHAR 00A6
ENCODING 166
SWIDTH 600 0
DWIDTH 20 0
BBX 2 28 9 -6
BITMAP
C0
C0
C0
C0
C0
C0
C0
C0
C0
C0
C0
C0
00
00
00
00
C0
C0
C0
C0
C0
C0
C0
C0
C0
C0
C0
C0
ENDCHAR
STARTCHAR 00A7
ENCODING 167
SWIDTH 600 0
DWIDTH 20 0
BBX 14 23 3 -4
BITMAP
0FF8
1FF8
3C38
3038
3018
3800
7C00
FE00
E780
C3E0
E0F0
7878
3C1C
1F1C
079C
03FC
00F8
6070
6070
6070
60F0
7FE0
7FC0
ENDCHAR
STARTCHAR 00A8
ENCODING 168
SWIDTH 600 0
DWIDTH 20 0
BBX 10 4 5 17
BITMAP
E1C0
E1C0
E1C0
E1C0
ENDCHAR
STARTCHAR 00A9
ENCODING 169
SWIDTH 600 0
DWIDTH 20 0
BBX 18 20 1 0
BITMAP
03F000
0FFC00
1F3E00
380700
700380
E3F180
C7F8C0
C610C0
CE00C0
CC00C0
CC00C0
CC00C0
CE00C0
C730C0
E3F980
71F380
380700
1F3E00
0FFC00
03F000
ENDCHAR
STARTCHAR 00AA
ENCODING 170
SWIDTH 600 0
DWIDTH 20 0
BBX 13 12 4 8
BITMAP
1F80
7FC0
70C0
00E0
0060
3FE0
7FE0
E060
C060
E1E0
FFF8
3E38
ENDCHAR
STARTCHAR 00AB
ENCODING 171
SWIDTH 600 0
DWIDTH 20 0
BBX 15 12 2 3
BITMAP
0606
0F0E
1E1C
1C38
3878
70F0
F0F0
3870
1C38
1E1C
0F0E
0606
ENDCHAR
STARTCHAR 00AC
ENCODING 172
SWIDTH 600 0
DWIDTH 20 0
BBX 15 8 2 5
BITMAP
FFFE
FFFE
0006
0006
0006
0006
0006
0006
ENDCHAR
STARTCHAR 00AD
ENCODING 173
SWIDTH 600 0
DWIDTH 20 0
BBX 12 2 4 6
BITMAP
FFF0
FFF0
ENDCHAR
STARTCHAR 00AE
ENCODING 174
SWIDTH 600 0
DWIDTH 20 0
BBX 16 16 2 5
BITMAP
07E0
1FF8
381C
77CC
67E6
C462
C423
C463
C7E3
C7C3
C4E2
6466
700C
381C
1FF8
07E0
ENDCHAR
STARTCHAR 00AF
ENCODING 175
SWIDTH 600 0
DWIDTH 20 0
BBX 10 2 5 18
BITMAP
FFC0
FFC0
ENDCHAR
STARTCHAR 00B0
ENCODING 176
SWIDTH 600 0
DWIDTH 20 0
BBX 9 9 4 10
BITMAP
3C00
7F00
F780
C180
C180
C180
F780
7F00
3E00
ENDCHAR
STARTCHAR 00B1
ENCODING 177
SWIDTH 600 0
DWIDTH 20 0
BBX 14 16 3 2
BITMAP
0300
0300
0300
0300
0300
FFFC
FFFC
0300
0300
0300
0300
0300
0000
0000
FFFC
FFFC
ENDCHAR
STARTCHAR 00B2
ENCODING 178
SWIDTH 600 0
DWIDTH 20 0
BBX 10 14 5 8
BITMAP
3E00
FF80
E380
C180
C1C0
0180
0380
0700
0E00
1C00
38C0
F0C0
FFC0
FFC0
ENDCHAR
STARTCHAR 00B3
ENCODING 179
SWIDTH 600 0
DWIDTH 20 0
BBX 10 14 5 8
BITMAP
3E00
FF80
C380
C180
0180
0180
1F00
1F80
01C0
00C0
00C0
C1C0
FF80
3F00
ENDCHAR
STARTCHAR 00B4
ENCODING 180
SWIDTH 600 0
DWIDTH 20 0
BBX 8 6 7 16
BITMAP
06
0F
3E
78
F0
C0
ENDCHAR
STARTCHAR 00B5
ENCODING 181
SWIDTH 600 0
DWIDTH 20 0
BBX 12 21 4 -6
BITMAP
C030
C030
C030
C030
C030
C030
C030
C030
C030
C070
C070
C0F0
E3F0
FFB0
FE30
C000
C000
C000
C000
C000
C000
ENDCHAR
STARTCHAR 00B6
ENCODING 182
SWIDTH 600 0
DWIDTH 20 0
BBX 16 25 2 -6
BITMAP
0FFF
3FFF
7F9C
FF9C
FF9C
FF9C
FF9C
FF9C
7F9C
3F9C
0F9C
039C
039C
039C
039C
039C
039C
039C
039C
039C
039C
039C
039C
039C
018C
ENDCHAR
STARTCHAR 00B7
ENCODING 183
SWIDTH 600 0
DWIDTH 20 0
BBX 4 5 8 7
BITMAP
F0
F0
F0
F0
F0
ENDCHAR
STARTCHAR 00B8
ENCODING 184
SWIDTH 600 0
DWIDTH 20 0
BBX 8 8 6 -7
BITMAP
18
18
1C
1F
07
87
FF
7C
ENDCHAR
STARTCHAR 00B9
ENCODING 185
SWIDTH 600 0
DWIDTH 20 0
BBX 10 14 5 8
BITMAP
0C00
1C00
7C00
EC00
8C00
0C00
0C00
0C00
0C00
0C00
0C00
0C00
FFC0
FFC0
ENDCHAR
STARTCHAR 00BA
ENCODING 186
SWIDTH 600 0
DWIDTH 20 0
BBX 12 12 4 8
BITMAP
1F00
3FC0
70E0
E060
C070
C030
C030
C070
E070
71E0
3FC0
1F00
ENDCHAR
STARTCHAR 00BB
ENCODING 187
SWIDTH 600 0
DWIDTH 20 0
BBX 14 12 3 3
BITMAP
C080
E1C0
F0E0
7070
3838
1C1C
1E1C
3838
7870
F0E0
E1C0
C0C0
ENDCHAR
STARTCHAR 00BC
ENCODING 188
SWIDTH 600 0
DWIDTH 20 0
BBX 20 26 0 -4
BITMAP
080000
380000
F80000
D80000
180000
180000
180000
180000
180000
1800C0
FF83C0
FF0700
001E00
007800
00E000
03C0C0
0701C0
1C03C0
3806C0
200CC0
0018C0
003FF0
003FF0
0000C0
0000C0
0000C0
ENDCHAR
STARTCHAR 00BD
ENCODING 189
SWIDTH 600 0
DWIDTH 20 0
BBX 20 26 0 -3
BITMAP
080000
380000
F80000
D80000
180000
180000
180000
180000
180040
1801C0
FF8380
FF0E00
003800
007000
01C000
078F80
0E1FE0
381860
301860
000060
0000C0
000180
000700
000E30
001FF0
001FF0
ENDCHAR
STARTCHAR 00BE
ENCODING 190
SWIDTH 600 0
DWIDTH 20 0
BBX 20 26 0 -4
BITMAP
3C0000
FF0000
C30000
430000
030000
1E0000
1F0000
038000
018000
4380C0
FF03C0
3E0700
001C00
007800
00E000
0380C0
0F01C0
1C03C0
3006C0
000CC0
0018C0
003FF0
003FF0
0000C0
0000C0
0000C0
ENDCHAR
STARTCHAR 00BF
ENCODING 191
SWIDTH 600 0
DWIDTH 20 0
BBX 12 20 4 -5
BITMAP
0700
0700
0700
0700
0000
0000
0000
0300
0700
0700
0F00
3F00
7800
7000
E000
E070
E070
7070
7FF0
3FC0
ENDCHAR
STARTCHAR 00C0
ENCODING 192
SWIDTH 600 0
DWIDTH 20 0
BBX 20 26 0 0
BITMAP
060000
0F0000
07C000
01E000
00F000
003000
000000
1FF000
1FF000
01F000
019800
019800
031C00
030C00
070C00
060E00
060600
0E0600
0FFF00
0FFF00
1C0300
180380
380180
3801C0
FF0FF0
FE0FF0
ENDCHAR
STARTCHAR 00C1
ENCODING 193
SWIDTH 600 0
DWIDTH 20 0
BBX 20 26 0 0
BITMAP
001800
003C00
00F800
01E000
03C000
030000
000000
1FF000
1FF000
01F000
019800
019800
031C00
030C00
070C00
060E00
060600
0E0600
0FFF00
0FFF00
1C0300
180380
380180
3801C0
FF0FF0
FE0FF0
ENDCHAR
STARTCHAR 00C2
ENCODING 194
SWIDTH 600 0
DWIDTH 20 0
BBX 20 26 0 0
BITMAP
004000
00E000
01F000
03B800
0F1E00
040400
000000
1FF000
1FF000
01F000
019800
019800
031C00
030C00
070C00
060E00
060600
0E0600
0FFF00
0FFF00
1C0300
180380
380180
3801C0
FF0FF0
FE0FF0
ENDCHAR
STARTCHAR 00C3
ENCODING 195
SWIDTH 600 0
DWIDTH 20 0
BBX 20 24 0 0
BITMAP
07CE00
0FFC00
0C7800
000000
000000
1FF000
1FF000
01F000
019800
019800
031C00
030C00
070C00
060E00
060600
0E0600
0FFF00
0FFF00
1C0300
180380
380180
3801C0
FF0FF0
FE0FF0
ENDCHAR
STARTCHAR 00C4
ENCODING 196
SWIDTH 600 0
DWIDTH 20 0
BBX 20 25 0 0
BITMAP
070C00
071C00
071C00
070C00
000000
000000
1FF000
1FF000
01F000
019800
019800
031C00
030C00
070C00
060E00
060600
0E0600
0FFF00
0FFF00
1C0300
180380
380180
3801C0
FF0FF0
FE0FF0
ENDCHAR
STARTCHAR 00C5
ENCODING 197
SWIDTH 600 0
DWIDTH 20 0
BBX 20 29 0 0
BITMAP
01E000
03F000
03B800
071800
061800
03B800
03F000
01E000
000000
000000
1FF000
1FF000
01F000
019800
019800
031C00
030C00
070C00
060E00
060600
0E0600
0FFF00
0FFF00
1C0300
180380
380180
3801C0
FF0FF0
FE0FF0
ENDCHAR
STARTCHAR 00C6
ENCODING 198
SWIDTH 600 0
DWIDTH 20 0
BBX 18 19 0 0
BITMAP
0FFFC0
0FFFC0
03F0C0
0370C0
0370C0
0770C0
067000
067000
0E7F00
0E7F00
0C7000
1FF000
1FF0C0
1870C0
1870C0
3870C0
3070C0
FE7FC0
FE7FC0
ENDCHAR
STARTCHAR 00C7
ENCODING 199
SWIDTH 600 0
DWIDTH 20 0
BBX 16 26 2 -7
BITMAP
07E6
1FF6
3E3E
380E
7006
6006
E006
E000
E000
C000
C000
E000
E000
E000
7000
7006
3C1F
1FFE
0FF8
0180
0180
01E0
01F0
0030
0FF0
07E0
ENDCHAR
STARTCHAR 00C8
ENCODING 200
SWIDTH 600 0
DWIDTH 20 0
BBX 17 26 1 0
BITMAP
060000
078000
07C000
01E000
007800
003000
000000
FFFF00
FFFF00
180300
180300
180300
180300
183000
183000
1FF000
1FF000
183000
183000
183100
180380
180380
180380
180380
FFFF80
FFFF80
ENDCHAR
STARTCHAR 00C9
ENCODING 201
SWIDTH 600 0
DWIDTH 20 0
BBX 17 26 1 0
BITMAP
001800
007800
00F800
01E000
078000
020000
000000
FFFF00
FFFF00
180300
180300
180300
180300
183000
183000
1FF000
1FF000
183000
183000
183100
180380
180380
180380
180380
FFFF80
FFFF80
ENDCHAR
STARTCHAR 00CA
ENCODING 202
SWIDTH 600 0
DWIDTH 20 0
BBX 17 26 1 0
BITMAP
004000
00E000
01F000
07B800
0F1E00
040400
000000
FFFF00
FFFF00
180300
180300
180300
180300
183000
183000
1FF000
1FF000
183000
183000
183100
180380
180380
180380
180380
FFFF80
FFFF80
ENDCHAR
STARTCHAR 00CB
ENCODING 203
SWIDTH 600 0
DWIDTH 20 0
BBX 17 25 1 0
BITMAP
061C00
0F1C00
0F1C00
061C00
000000
000000
FFFF00
FFFF00
180300
180300
180300
180300
183000
183000
1FF000
1FF000
183000
183000
183100
180380
180380
180380
180380
FFFF80
FFFF80
ENDCHAR
STARTCHAR 00CC
ENCODING 204
SWIDTH 600 0
DWIDTH 20 0
BBX 14 26 3 0
BITMAP
1800
3C00
1E00
0F80
03C0
00C0
0000
7FF8
7FF8
0300
0300
0300
0300
0300
0300
0300
0300
0300
0300
0300
0300
0300
0300
0300
FFFC
FFF8
ENDCHAR
STARTCHAR 00CD
ENCODING 205
SWIDTH 600 0
DWIDTH 20 0
BBX 14 26 3 0
BITMAP
0060
00F0
03E0
0780
0F00
0C00
0000
7FF8
7FF8
0300
0300
0300
0300
0300
0300
0300
0300
0300
0300
0300
0300
0300
0300
0300
FFFC
FFF8
ENDCHAR
STARTCHAR 00CE
ENCODING 206
SWIDTH 600 0
DWIDTH 20 0
BBX 14 26 3 0
BITMAP
0200
0780
0FC0
1DE0
3870
3030
0000
7FF8
7FF8
0300
0300
0300
0300
0300
0300
0300
0300
0300
0300
0300
0300
0300
0300
0300
FFFC
FFF8
ENDCHAR
STARTCHAR 00CF
ENCODING 207
SWIDTH 600 0
DWIDTH 20 0
BBX 14 25 3 0
BITMAP
3870
3870
3870
3870
0000
0000
7FF8
7FF8
0300
0300
0300
0300
0300
0300
0300
0300
0300
0300
0300
0300
0300
0300
0300
FFFC
FFF8
ENDCHAR
STARTCHAR 00D0
ENCODING 208
SWIDTH 600 0
DWIDTH 20 0
BBX 17 19 1 0
BITMAP
FFF000
FFFC00
1C3E00
1C0F00
1C0700
1C0380
1C0380
1C0180
FF8180
FFC180
1C0180
1C0180
1C0380
1C0380
1C0700
1C0F00
1C3E00
FFFC00
FFF000
ENDCHAR
STARTCHAR 00D1
ENCODING 209
SWIDTH 600 0
DWIDTH 20 0
BBX 18 24 1 0
BITMAP
07CC00
0FFC00
187800
000000
000000
FC1FC0
FC3FC0
3E0700
3E0700
3F0700
3B8700
3B8700
39C700
39C700
38E700
386700
387700
383700
383F00
381F00
380F00
380F00
FF0700
FF0700
ENDCHAR
STARTCHAR 00D2
ENCODING 210
SWIDTH 600 0
DWIDTH 20 0
BBX 17 26 1 0
BITMAP
060000
0F0000
07C000
01E000
00F000
003000
000000
03F000
0FFC00
1F3E00
380F00
700700
700380
600380
600180
E00180
E00180
E00180
600180
600380
700380
700700
380F00
1F3E00
0FFC00
03F000
ENDCHAR
STARTCHAR 00D3
ENCODING 211
SWIDTH 600 0
DWIDTH 20 0
BBX 17 26 1 0
BITMAP
001800
007800
00F800
01E000
078000
030000
000000
03F000
0FFC00
1F3E00
380F00
700700
700380
600380
600180
E00180
E00180
E00180
600180
600380
700380
700700
380F00
1F3E00
0FFC00
03F000
ENDCHAR
STARTCHAR 00D4
ENCODING 212
SWIDTH 600 0
DWIDTH 20 0
BBX 17 26 1 0
BITMAP
008000
01E000
03F000
077800
0E1C00
0C0C00
000000
03F000
0FFC00
1F3E00
380F00
700700
700380
600380
600180
E00180
E00180
E00180
600180
600380
700380
700700
380F00
1F3E00
0FFC00
03F000
ENDCHAR
STARTCHAR 00D5
ENCODING 213
SWIDTH 600 0
DWIDTH 20 0
BBX 17 24 1 0
BITMAP
07CC00
0FFC00
187800
000000
000000
03F000
0FFC00
1F3E00
380F00
700700
700380
600380
600180
E00180
E00180
E00180
600180
600380
700380
700700
380F00
1F3E00
0FFC00
03F000
ENDCHAR
STARTCHAR 00D6
ENCODING 214
SWIDTH 600 0
DWIDTH 20 0
BBX 17 25 1 0
BITMAP
0E1C00
0E1C00
0E1C00
0E1C00
000000
000000
03F000
0FFC00
1F3E00
380F00
700700
700380
600380
600180
E00180
E00180
E00180
600180
600380
700380
700700
380F00
1F3E00
0FFC00
03F000
ENDCHAR
STARTCHAR 00D7
ENCODING 215
SWIDTH 600 0
DWIDTH 20 0
BBX 12 12 4 3
BITMAP
C030
E070
70E0
39C0
1F80
0F00
0F00
1F80
39C0
70E0
E070
C030
ENDCHAR
STARTCHAR 00D8
ENCODING 216
SWIDTH 600 0
DWIDTH 20 0
BBX 17 22 1 -1
BITMAP
000100
000380
03F380
0FFF00
1F3E00
380F00
701F00
701B80
603B80
607180
E0E180
E0C180
E1C180
638180
670380
760380
7E0700
3C0F00
3F3E00
3FFC00
73F000
600000
ENDCHAR
STARTCHAR 00D9
ENCODING 217
SWIDTH 600 0
DWIDTH 20 0
BBX 18 26 1 0
BITMAP
060000
0F0000
078000
03E000
00F000
003000
000000
FE1FC0
FE3FC0
380700
380700
380700
380700
380700
380700
380700
380700
380700
380700
380700
380700
380600
1C0E00
1F3E00
0FFC00
03F000
ENDCHAR
STARTCHAR 00DA
ENCODING 218
SWIDTH 600 0
DWIDTH 20 0
BBX 18 26 1 0
BITMAP
001800
003C00
00F800
01E000
03C000
030000
000000
FE1FC0
FE3FC0
380700
380700
380700
380700
380700
380700
380700
380700
380700
380700
380700
380700
380600
1C0E00
1F3E00
0FFC00
03F000
ENDCHAR
STARTCHAR 00DB
ENCODING 219
SWIDTH 600 0
DWIDTH 20 0
BBX 18 26 1 0
BITMAP
008000
01E000
03F000
077800
0E1C00
0C0C00
000000
FE1FC0
FE3FC0
380700
380700
380700
380700
380700
380700
380700
380700
380700
380700
380700
380700
380600
1C0E00
1F3E00
0FFC00
03F000
ENDCHAR
STARTCHAR 00DC
ENCODING 220
SWIDTH 600 0
DWIDTH 20 0
BBX 18 25 1 0
BITMAP
0E1C00
0E1C00
0E1C00
0E1C00
000000
000000
FE1FC0
FE3FC0
380700
380700
380700
380700
380700
380700
380700
380700
380700
380700
380700
380700
380600
1C0E00
1F3E00
0FFC00
03F000
ENDCHAR
STARTCHAR 00DD
ENCODING 221
SWIDTH 600 0
DWIDTH 20 0
BBX 18 26 1 0
BITMAP
001800
003C00
007800
01F000
03C000
030000
000000
FE1FC0
FE1FC0
380700
1C0E00
1C0C00
0E1C00
063800
073000
03F000
01E000
01E000
00C000
00C000
00C000
00C000
00C000
00C000
1FFE00
1FFE00
ENDCHAR
STARTCHAR 00DE
ENCODING 222
SWIDTH 600 0
DWIDTH 20 0
BBX 15 19 2 0
BITMAP
FFC0
FFC0
1C00
1C00
1FF0
1FFC
1C3C
1C0E
1C06
1C06
1C06
1C0E
1C3E
1FFC
1FF0
1C00
1C00
FFC0
FFC0
ENDCHAR
STARTCHAR 00DF
ENCODING 223
SWIDTH 600 0
DWIDTH 20 0
BBX 16 21 1 0
BITMAP
03F0
0FFC
0E1C
1C0E
1C0E
180E
180E
180C
183C
18F0
18FC
180E
1806
1807
1807
1807
1807
180E
183E
F8FC
F8F0
ENDCHAR
STARTCHAR 00E0
ENCODING 224
SWIDTH 600 0
DWIDTH 20 0
BBX 17 22 2 0
BITMAP
060000
0F0000
078000
03E000
00F000
003000
000000
0FE000
3FF800
7E7800
201C00
000C00
000C00
1FFC00
7FFC00
701C00
E00C00
E01C00
E03C00
79FE00
7FEF80
1F8780
ENDCHAR
STARTCHAR 00E1
ENCODING 225
SWIDTH 600 0
DWIDTH 20 0
BBX 17 22 2 0
BITMAP
006000
00F000
03E000
078000
0F0000
0C0000
000000
0FE000
3FF800
7E7800
201C00
000C00
000C00
1FFC00
7FFC00
701C00
E00C00
E01C00
E03C00
79FE00
7FEF80
1F8780
ENDCHAR
STARTCHAR 00E2
ENCODING 226
SWIDTH 600 0
DWIDTH 20 0
BBX 17 22 2 0
BITMAP
010000
03C000
07E000
0EF000
1C3800
181800
000000
0FE000
3FF800
7E7800
201C00
000C00
000C00
1FFC00
7FFC00
701C00
E00C00
E01C00
E03C00
79FE00
7FEF80
1F8780
ENDCHAR
STARTCHAR 00E3
ENCODING 227
SWIDTH 600 0
DWIDTH 20 0
BBX 17 20 2 0
BITMAP
0F9800
1FF800
30F000
000000
000000
0FE000
3FF800
7E7800
201C00
000C00
000C00
1FFC00
7FFC00
701C00
E00C00
E01C00
E03C00
79FE00
7FEF80
1F8780
ENDCHAR
STARTCHAR 00E4
ENCODING 228
SWIDTH 600 0
DWIDTH 20 0
BBX 17 21 2 0
BITMAP
1C3800
1C3800
1C3800
1C3800
000000
000000
0FE000
3FF800
7E7800
201C00
000C00
000C00
1FFC00
7FFC00
701C00
E00C00
E01C00
E03C00
79FE00
7FEF80
1F8780
ENDCHAR
STARTCHAR 00E5
ENCODING 229
SWIDTH 600 0
DWIDTH 20 0
BBX 17 25 2 0
BITMAP
03C000
07E000
0FF000
0C3000
0C3000
0FF000
07E000
03C000
000000
000000
0FE000
3FF800
7E7800
201C00
000C00
000C00
1FFC00
7FFC00
701C00
E00C00
E01C00
E03C00
79FE00
7FEF80
1F8780
ENDCHAR
STARTCHAR 00E6
ENCODING 230
SWIDTH 600 0
DWIDTH 20 0
BBX 18 15 1 0
BITMAP
1F1E00
7FFF00
7BF780
21E380
00C180
00C180
1FFFC0
3FFF80
70C000
E0C000
E0C000
E1E180
F7F780
7F7F80
3E1E00
ENDCHAR
STARTCHAR 00E7
ENCODING 231
SWIDTH 600 0
DWIDTH 20 0
BBX 15 23 2 -8
BITMAP
07C6
1FFE
3E7E
781E
700E
E00E
E006
E000
E000
E000
E000
7006
781E
3FFC
0FF8
0380
0180
01C0
01F0
0070
0870
0FF0
07C0
ENDCHAR
STARTCHAR 00E8
ENCODING 232
SWIDTH 600 0
DWIDTH 20 0
BBX 16 22 2 0
BITMAP
0600
0F00
0780
03E0
00F0
0030
0000
07E0
1FF8
3E7C
700E
700E
6006
FFFF
FFFF
E000
6000
7000
7006
3E7E
1FFE
07F0
ENDCHAR
STARTCHAR 00E9
ENCODING 233
SWIDTH 600 0
DWIDTH 20 0
BBX 16 22 2 0
BITMAP
0030
00F0
01F0
03C0
0F00
0600
0000
07E0
1FF8
3E7C
700E
700E
6006
FFFF
FFFF
E000
6000
7000
7006
3E7E
1FFE
07F0
ENDCHAR
STARTCHAR 00EA
ENCODING 234
SWIDTH 600 0
DWIDTH 20 0
BBX 16 22 2 0
BITMAP
0080
01C0
07E0
0F70
1C38
1818
0000
07E0
1FF8
3E7C
700E
700E
6006
FFFF
FFFF
E000
6000
7000
7006
3E7E
1FFE
07F0
ENDCHAR
STARTCHAR 00EB
ENCODING 235
SWIDTH 600 0
DWIDTH 20 0
BBX 16 21 2 0
BITMAP
1C38
1C38
1C38
1C38
0000
0000
07E0
1FF8
3E7C
700E
700E
6006
FFFF
FFFF
E000
6000
7000
7006
3E7E
1FFE
07F0
ENDCHAR
STARTCHAR 00EC
ENCODING 236
SWIDTH 600 0
DWIDTH 20 0
BBX 15 22 3 0
BITMAP
3000
7800
3E00
0F00
0780
0180
0000
7F00
7F00
0300
0300
0300
0300
0300
0300
0300
0300
0300
0300
0300
FFFE
FFFE
ENDCHAR
STARTCHAR 00ED
ENCODING 237
SWIDTH 600 0
DWIDTH 20 0
BBX 15 22 3 0
BITMAP
00C0
01E0
07C0
0F00
1E00
1800
0000
7F00
7F00
0300
0300
0300
0300
0300
0300
0300
0300
0300
0300
0300
FFFE
FFFE
ENDCHAR
STARTCHAR 00EE
ENCODING 238
SWIDTH 600 0
DWIDTH 20 0
BBX 15 22 3 0
BITMAP
0200
0780
0FC0
1DE0
3870
3030
0000
7F00
7F00
0300
0300
0300
0300
0300
0300
0300
0300
0300
0300
0300
FFFE
FFFE
ENDCHAR
STARTCHAR 00EF
ENCODING 239
SWIDTH 600 0
DWIDTH 20 0
BBX 15 21 3 0
BITMAP
3870
3870
3870
3870
0000
0000
7F00
7F00
0300
0300
0300
0300
0300
0300
0300
0300
0300
0300
0300
FFFE
FFFE
ENDCHAR
STARTCHAR 00F0
ENCODING 240
SWIDTH 600 0
DWIDTH 20 0
BBX 16 22 2 0
BITMAP
0800
0E0C
0FFC
03F8
0FE0
1F70
1838
0018
0FFC
1FFE
3C3E
700E
600E
E006
E007
E007
E006
700E
701E
3E7C
1FF8
07E0
ENDCHAR
STARTCHAR 00F1
ENCODING 241
SWIDTH 600 0
DWIDTH 20 0
BBX 18 20 1 0
BITMAP
07CC00
0FFC00
187800
000000
000000
F8F800
F9FC00
1B9E00
1E0600
1C0600
1C0700
1C0700
180700
180700
180700
180700
180700
180700
7F1FC0
7F1FC0
ENDCHAR
STARTCHAR 00F2
ENCODING 242
SWIDTH 600 0
DWIDTH 20 0
BBX 16 22 2 0
BITMAP
0C00
1E00
0F80
03C0
01E0
0060
0000
07E0
1FF8
3E7C
701E
700E
E006
E007
E007
E007
E006
700E
701E
3E7C
1FF8
07E0
ENDCHAR
STARTCHAR 00F3
ENCODING 243
SWIDTH 600 0
DWIDTH 20 0
BBX 16 22 2 0
BITMAP
0030
00F0
01F0
03C0
0F00
0600
0000
07E0
1FF8
3E7C
701E
700E
E006
E007
E007
E007
E006
700E
701E
3E7C
1FF8
07E0
ENDCHAR
STARTCHAR 00F4
ENCODING 244
SWIDTH 600 0
DWIDTH 20 0
BBX 16 22 2 0
BITMAP
0100
03C0
07E0
0EF0
1C38
1818
0000
07E0
1FF8
3E7C
701E
700E
E006
E007
E007
E007
E006
700E
701E
3E7C
1FF8
07E0
ENDCHAR
STARTCHAR 00F5
ENCODING 245
SWIDTH 600 0
DWIDTH 20 0
BBX 16 20 2 0
BITMAP
0F98
1FF8
30F0
0000
0000
07E0
1FF8
3E7C
701E
700E
E006
E007
E007
E007
E006
700E
701E
3E7C
1FF8
07E0
ENDCHAR
STARTCHAR 00F6
ENCODING 246
SWIDTH 600 0
DWIDTH 20 0
BBX 16 21 2 0
BITMAP
1C38
1C38
1C38
1C38
0000
0000
07E0
1FF8
3E7C
701E
700E
E006
E007
E007
E007
E006
700E
701E
3E7C
1FF8
07E0
ENDCHAR
STARTCHAR 00F7
ENCODING 247
SWIDTH 600 0
DWIDTH 20 0
BBX 14 15 3 2
BITMAP
0700
0780
0780
0700
0000
0000
0000
FFFC
FFFC
0000
0000
0700
0780
0780
0700
ENDCHAR
STARTCHAR 00F8
ENCODING 248
SWIDTH 600 0
DWIDTH 20 0
BBX 17 15 1 0
BITMAP
03F180
0FFF80
1F3F00
380E00
381F00
703B00
70F380
71E380
738380
770300
3E0700
3C0F00
3F3E00
FFFC00
63F000
ENDCHAR
STARTCHAR 00F9
ENCODING 249
SWIDTH 600 0
DWIDTH 20 0
BBX 17 22 1 0
BITMAP
060000
0F0000
07C000
01E000
00F000
003000
000000
F87E00
F87E00
380600
380600
380600
380600
380600
380600
380E00
380E00
180E00
181E00
1E7600
0FE780
07C780
ENDCHAR
STARTCHAR 00FA
ENCODING 250
SWIDTH 600 0
DWIDTH 20 0
BBX 17 22 1 0
BITMAP
001800
003C00
00F800
01E000
03C000
030000
000000
F87E00
F87E00
380600
380600
380600
380600
380600
380600
380E00
380E00
180E00
181E00
1E7600
0FE780
07C780
ENDCHAR
STARTCHAR 00FB
ENCODING 251
SWIDTH 600 0
DWIDTH 20 0
BBX 17 22 1 0
BITMAP
008000
01C000
03F000
077800
0E1C00
0C0C00
000000
F87E00
F87E00
380600
380600
380600
380600
380600
380600
380E00
380E00
180E00
181E00
1E7600
0FE780
07C780
ENDCHAR
STARTCHAR 00FC
ENCODING 252
SWIDTH 600 0
DWIDTH 20 0
BBX 17 21 1 0
BITMAP
0E1800
0E3800
0E3800
0E1800
000000
000000
F87E00
F87E00
380600
380600
380600
380600
380600
380600
380E00
380E00
180E00
181E00
1E7600
0FE780
07C780
ENDCHAR
STARTCHAR 00FD
ENCODING 253
SWIDTH 600 0
DWIDTH 20 0
BBX 18 28 1 -6
BITMAP
001800
003C00
00F800
01E000
03C000
030000
000000
FE1FC0
FF1FC0
380700
380600
1C0E00
1C0C00
0E1C00
061800
073800
033000
03F000
01E000
01E000
00C000
01C000
018000
038000
070000
1F0000
7E0000
780000
ENDCHAR
STARTCHAR 00FE
ENCODING 254
SWIDTH 600 0
DWIDTH 20 0
BBX 17 27 1 -6
BITMAP
F80000
F80000
380000
380000
380000
380000
39F800
3BFC00
3F1E00
3C0700
380700
380380
380380
380380
380380
380380
380700
3C0700
3F1E00
3BFC00
39F000
380000
380000
380000
380000
FF0000
FF0000
ENDCHAR
STARTCHAR 00FF
ENCODING 255
SWIDTH 600 0
DWIDTH 20 0
BBX 18 27 1 -6
BITMAP
0E1C00
0E1C00
0E1C00
0E1C00
000000
000000
FE1FC0
FF1FC0
380700
380600
1C0E00
1C0C00
0E1C00
061800
073800
033000
03F000
01E000
01E000
00C000
01C000
018000
038000
070000
1F0000
7E0000
780000
ENDCHAR
STARTCHAR 0152
ENCODING 140
SWIDTH 600 0
DWIDTH 20 0
BBX 17 19 1 0
BITMAP
07FF80
1FFF80
3CE180
38E180
70E180
60E180
E0E000
E0E000
E0FE00
E0FE00
E0E000
E0E000
E0E180
60E180
70E180
38E180
3CE180
1FFF80
07FF80
ENDCHAR
STARTCHAR 0153
ENCODING 156
SWIDTH 600 0
DWIDTH 20 0
BBX 18 15 1 0
BITMAP
1E1E00
3F7F00
7BF780
61E380
E1C180
E0C180
E0FFC0
E0FF80
E0C000
E0C000
E1C000
61E180
7BF780
3F7F80
1E1E00
ENDCHAR
STARTCHAR 0160
ENCODING 138
SWIDTH 600 0
DWIDTH 20 0
BBX 14 27 3 0
BITMAP
2020
7070
38E0
1FC0
0F80
0700
0000
0000
1F98
7FD8
F9F8
E038
C018
C018
E000
F800
7FC0
1FF0
00F8
001C
C01C
C00C
E01C
F01C
FC78
DFF0
C7E0
ENDCHAR
STARTCHAR 0161
ENCODING 154
SWIDTH 600 0
DWIDTH 20 0
BBX 14 23 3 0
BITMAP
2020
3070
3CE0
1FC0
0780
0300
0000
0000
1F98
7FD8
F0F8
E038
E018
E000
7FC0
3FF0
00F8
C01C
C01C
E01C
FC78
DFF8
C7E0
ENDCHAR
STARTCHAR 0178
ENCODING 159
SWIDTH 600 0
DWIDTH 20 0
BBX 18 25 1 0
BITMAP
0E1C00
0E1C00
0E1C00
0E1C00
000000
000000
FE1FC0
FE1FC0
380700
1C0E00
1C0C00
0E1C00
063800
073000
03F000
01E000
01E000
00C000
00C000
00C000
00C000
00C000
00C000
1FFE00
1FFE00
ENDCHAR
STARTCHAR 017D
ENCODING 142
SWIDTH 600 0
DWIDTH 20 0
BBX 14 27 3 0
BITMAP
2010
3870
1CE0
0FC0
0780
0300
0000
0000
FFFC
FFFC
C038
C038
C070
C0E0
C1C0
01C0
0380
0700
0700
0E08
1C0C
180C
380C
700C
E00C
FFFC
FFFC
ENDCHAR
STARTCHAR 017E
ENCODING 158
SWIDTH 600 0
DWIDTH 20 0
BBX 14 23 3 0
BITMAP
2010
3830
1CF0
0FC0
0780
0300
0000
0000
FFFC
FFFC
E038
E070
E0E0
41C0
0380
0700
0F00
1E0C
3C1C
381C
701C
FFFC
FFFC
ENDCHAR
STARTCHAR 0192
ENCODING 131
SWIDTH 600 0
DWIDTH 20 0
BBX 18 25 1 -4
BITMAP
003F80
007FC0
007080
00E000
00E000
00C000
00C000
0FFE00
1FFE00
00C000
00C000
01C000
01C000
01C000
01C000
018000
018000
018000
018000
018000
038000
038000
E70000
FE0000
FC0000
ENDCHAR
STARTCHAR 02C6
ENCODING 136
SWIDTH 600 0
DWIDTH 20 0
BBX 10 6 5 16
BITMAP
0800
1E00
3F00
7780
E1C0
C0C0
ENDCHAR
STARTCHAR 02DC
ENCODING 152
SWIDTH 600 0
DWIDTH 20 0
BBX 11 3 4 17
BITMAP
3E60
7FE0
C3C0
ENDCHAR
STARTCHAR 2013
ENCODING 150
SWIDTH 600 0
DWIDTH 20 0
BBX 14 2 3 8
BITMAP
FFFC
FFFC
ENDCHAR
STARTCHAR 2014
ENCODING 151
SWIDTH 600 0
DWIDTH 20 0
BBX 20 2 0 8
BITMAP
FFFFF0
FFFFF0
ENDCHAR
STARTCHAR 2018
ENCODING 145
SWIDTH 600 0
DWIDTH 20 0
BBX 6 9 7 12
BITMAP
0C
1C
18
38
38
78
70
F0
F0
ENDCHAR
STARTCHAR 2019
ENCODING 146
SWIDTH 600 0
DWIDTH 20 0
BBX 6 9 7 11
BITMAP
3C
7C
78
78
70
70
E0
E0
C0
ENDCHAR
STARTCHAR 201A
ENCODING 130
SWIDTH 600 0
DWIDTH 20 0
BBX 6 9 7 -5
BITMAP
3C
7C
78
78
70
70
E0
E0
C0
ENDCHAR
STARTCHAR 201C
ENCODING 147
SWIDTH 600 0
DWIDTH 20 0
BBX 14 9 3 12
BITMAP
0C0C
1C1C
1818
3838
3838
7878
7870
F0F0
F0F0
ENDCHAR
STARTCHAR 201D
ENCODING 148
SWIDTH 600 0
DWIDTH 20 0
BBX 14 9 3 11
BITMAP
3C3C
3C7C
7878
7878
7070
7070
E0E0
E0E0
C0C0
ENDCHAR
STARTCHAR 201E
ENCODING 132
SWIDTH 600 0
DWIDTH 20 0
BBX 14 9 3 -5
BITMAP
3C3C
3C7C
7878
7878
7070
7070
E0E0
E0E0
C0C0
ENDCHAR
STARTCHAR 2020
ENCODING 134
SWIDTH 600 0
DWIDTH 20 0
BBX 10 15 5 4
BITMAP
0C00
0C00
0C00
0C00
FFC0
FFC0
0C00
0C00
0C00
0C00
0C00
0C00
0C00
0C00
0C00
ENDCHAR
STARTCHAR 2021
ENCODING 135
SWIDTH 600 0
DWIDTH 20 0
BBX 10 16 5 3
BITMAP
0C00
0C00
0C00
0C00
FFC0
FFC0
0C00
0C00
0C00
0C00
FFC0
FFC0
0C00
0C00
0C00
0C00
ENDCHAR
STARTCHAR 2022
ENCODING 149
SWIDTH 600 0
DWIDTH 20 0
BBX 8 8 6 6
BITMAP
7E
FF
FF
FF
FF
FF
FF
7E
ENDCHAR
STARTCHAR 2026
ENCODING 133
SWIDTH 600 0
DWIDTH 20 0
BBX 16 4 2 0
BITMAP
E387
E3C7
E3C7
E387
ENDCHAR
STARTCHAR 2030
ENCODING 137
SWIDTH 600 0
DWIDTH 20 0
BBX 25 19 1 0
BITMAP
3C000000
7F000000
F7010000
C3838000
C3870000
E30E0000
7F1C0000
3E380000
00F00000
01E00000
038E3C00
073FFF00
0E3BF700
1C70C380
3860C180
7070C380
403BF700
003FFF00
000E3C00
ENDCHAR
STARTCHAR 2039
ENCODING 139
SWIDTH 600 0
DWIDTH 20 0
BBX 7 12 6 3
BITMAP
06
0E
1E
3C
78
70
F0
38
3C
1C
0E
06
ENDCHAR
STARTCHAR 203A
ENCODING 155
SWIDTH 600 0
DWIDTH 20 0
BBX 7 12 6 3
BITMAP
60
F0
70
38
1C
0E
0E
1C
38
70
F0
60
ENDCHAR
STARTCHAR 20AC
ENCODING 128
SWIDTH 600 0
DWIDTH 20 0
BBX 17 19 1 0
BITMAP
01F380
07FF80
0F9F80
0E0780
1C0380
1C0380
FFE380
FFE000
180000
180000
180000
FFE000
FFE000
1C0000
1C0000
0E0380
0F9F80
07FF00
01F800
ENDCHAR
STARTCHAR 2122
ENCODING 153
SWIDTH 600 0
DWIDTH 20 0
BBX 19 9 1 12
BITMAP
FF3060
FF38E0
1838E0
183DE0
183DE0
183760
183760
183220
183020
ENDCHAR
ENDFONT
