STARTFONT 2.1
COMMENT
COMMENT Converted from OpenType font "CourierPrime-Bold.ttf" by "otf2bdf 3.0".
COMMENT
FONT -FreeType-courier prime-Bold-R-Normal--19-140-100-100-P-92-Windows-cp1252
SIZE 14 100 100
FONTBOUNDINGBOX 14 23 0 -5
STARTPROPERTIES 19
FOUNDRY "FreeType"
FAMILY_NAME "courier prime"
WEIGHT_NAME "Bold"
SLANT "R"
SETWIDTH_NAME "Normal"
ADD_STYLE_NAME ""
PIXEL_SIZE 19
POINT_SIZE 140
RESOLUTION_X 100
RESOLUTION_Y 100
SPACING "P"
AVERAGE_WIDTH 92
CHARSET_REGISTRY "Windows"
CHARSET_ENCODING "cp1252"
FONT_ASCENT 14
FONT_DESCENT 6
COPYRIGHT "Copyright 2015 The Courier Prime Project Authors (https://github.com/quoteunquoteapps/CourierPrime)."
_OTF_FONTFILE "CourierPrime-Bold.ttf"
_OTF_PSNAME "CourierPrime-Bold"
ENDPROPERTIES
CHARS 219
STARTCHAR 000D
ENCODING 13
SWIDTH 565 0
DWIDTH 11 0
BBX 0 0 0 0
BITMAP
ENDCHAR
STARTCHAR 0020
ENCODING 32
SWIDTH 565 0
DWIDTH 11 0
BBX 0 0 0 0
BITMAP
ENDCHAR
STARTCHAR 0021
ENCODING 33
SWIDTH 565 0
DWIDTH 11 0
BBX 3 12 4 0
BITMAP
E0
E0
E0
60
60
60
60
00
00
E0
E0
E0
ENDCHAR
STARTCHAR 0022
ENCODING 34
SWIDTH 565 0
DWIDTH 11 0
BBX 8 6 2 6
BITMAP
E7
E7
C6
C6
C6
C6
ENDCHAR
STARTCHAR 0023
ENCODING 35
SWIDTH 565 0
DWIDTH 11 0
BBX 11 11 0 0
BITMAP
0CC0
0CC0
7FE0
7FE0
1980
1900
7FC0
FFC0
3300
3200
6600
ENDCHAR
STARTCHAR 0024
ENCODING 36
SWIDTH 565 0
DWIDTH 11 0
BBX 8 13 2 -1
BITMAP
10
18
7E
FF
DA
FC
FE
3F
DB
FF
FE
18
10
ENDCHAR
STARTCHAR 0025
ENCODING 37
SWIDTH 565 0
DWIDTH 11 0
BBX 11 11 0 0
BITMAP
7800
7840
CCE0
7980
7F00
0E00
1DC0
3BE0
7360
43E0
01C0
ENDCHAR
STARTCHAR 0026
ENCODING 38
SWIDTH 565 0
DWIDTH 11 0
BBX 10 11 1 0
BITMAP
3E00
7F00
7300
6300
7000
7B80
FF80
CF00
E700
FFC0
79C0
ENDCHAR
STARTCHAR 0027
ENCODING 39
SWIDTH 565 0
DWIDTH 11 0
BBX 3 6 4 6
BITMAP
E0
E0
E0
60
60
60
ENDCHAR
STARTCHAR 0028
ENCODING 40
SWIDTH 565 0
DWIDTH 11 0
BBX 7 16 2 -4
BITMAP
0C
1E
3C
30
70
60
60
E0
E0
60
60
70
30
3C
1E
0C
ENDCHAR
STARTCHAR 0029
ENCODING 41
SWIDTH 565 0
DWIDTH 11 0
BBX 6 16 3 -4
BITMAP
C0
E0
70
38
18
1C
0C
0C
0C
0C
1C
18
38
70
E0
C0
ENDCHAR
STARTCHAR 002A
ENCODING 42
SWIDTH 565 0
DWIDTH 11 0
BBX 8 8 2 3
BITMAP
18
18
DA
FF
3C
3C
6E
64
ENDCHAR
STARTCHAR 002B
ENCODING 43
SWIDTH 565 0
DWIDTH 11 0
BBX 8 8 2 1
BITMAP
18
18
18
FF
FF
18
18
18
ENDCHAR
STARTCHAR 002C
ENCODING 44
SWIDTH 565 0
DWIDTH 11 0
BBX 4 6 3 -3
BITMAP
70
70
60
60
C0
C0
ENDCHAR
STARTCHAR 002D
ENCODING 45
SWIDTH 565 0
DWIDTH 11 0
BBX 8 2 2 4
BITMAP
FF
FF
ENDCHAR
STARTCHAR 002E
ENCODING 46
SWIDTH 565 0
DWIDTH 11 0
BBX 3 4 4 0
BITMAP
E0
E0
E0
E0
ENDCHAR
STARTCHAR 002F
ENCODING 47
SWIDTH 565 0
DWIDTH 11 0
BBX 9 16 1 -4
BITMAP
0180
0380
0300
0700
0600
0600
0E00
0C00
1C00
1800
3800
3000
3000
7000
6000
E000
ENDCHAR
STARTCHAR 0030
ENCODING 48
SWIDTH 565 0
DWIDTH 11 0
BBX 9 11 1 0
BITMAP
1E00
7F00
7380
E380
E180
E180
E180
E380
7380
7F00
1E00
ENDCHAR
STARTCHAR 0031
ENCODING 49
SWIDTH 565 0
DWIDTH 11 0
BBX 8 11 2 0
BITMAP
18
38
F8
D8
18
18
18
18
18
FF
FF
ENDCHAR
STARTCHAR 0032
ENCODING 50
SWIDTH 565 0
DWIDTH 11 0
BBX 9 11 1 0
BITMAP
3E00
7F00
6300
6300
0300
0700
0E00
1C00
7980
7F80
FF80
ENDCHAR
STARTCHAR 0033
ENCODING 51
SWIDTH 565 0
DWIDTH 11 0
BBX 8 11 2 0
BITMAP
7C
FE
C6
06
3E
3E
07
07
87
FE
7C
ENDCHAR
STARTCHAR 0034
ENCODING 52
SWIDTH 565 0
DWIDTH 11 0
BBX 9 11 1 0
BITMAP
0600
0E00
1E00
3E00
3600
6600
FF80
FF80
0600
1F80
1F80
ENDCHAR
STARTCHAR 0035
ENCODING 53
SWIDTH 565 0
DWIDTH 11 0
BBX 8 11 2 0
BITMAP
FE
FE
C0
FC
FE
C7
07
07
C6
FE
7C
ENDCHAR
STARTCHAR 0036
ENCODING 54
SWIDTH 565 0
DWIDTH 11 0
BBX 9 11 1 0
BITMAP
0780
1F80
3800
7000
7F00
7F80
E380
6180
7380
7F00
1E00
ENDCHAR
STARTCHAR 0037
ENCODING 55
SWIDTH 565 0
DWIDTH 11 0
BBX 8 11 2 0
BITMAP
FF
FF
C7
C6
0E
0C
1C
18
38
38
30
ENDCHAR
STARTCHAR 0038
ENCODING 56
SWIDTH 565 0
DWIDTH 11 0
BBX 8 11 2 0
BITMAP
7C
FE
C6
C6
7E
FE
C7
C7
E7
FE
7C
ENDCHAR
STARTCHAR 0039
ENCODING 57
SWIDTH 565 0
DWIDTH 11 0
BBX 9 11 1 0
BITMAP
3E00
7F00
6300
E380
6380
7F80
3F80
0300
0F00
7E00
7800
ENDCHAR
STARTCHAR 003A
ENCODING 58
SWIDTH 565 0
DWIDTH 11 0
BBX 3 9 4 0
BITMAP
E0
E0
E0
00
00
00
E0
E0
E0
ENDCHAR
STARTCHAR 003B
ENCODING 59
SWIDTH 565 0
DWIDTH 11 0
BBX 4 11 3 -2
BITMAP
70
70
70
00
00
70
70
70
60
60
C0
ENDCHAR
STARTCHAR 003C
ENCODING 60
SWIDTH 565 0
DWIDTH 11 0
BBX 9 10 1 1
BITMAP
0180
0780
1F00
3C00
F000
F000
3C00
1F00
0780
0180
ENDCHAR
STARTCHAR 003D
ENCODING 61
SWIDTH 565 0
DWIDTH 11 0
BBX 8 6 2 3
BITMAP
FF
FF
00
00
FF
FF
ENDCHAR
STARTCHAR 003E
ENCODING 62
SWIDTH 565 0
DWIDTH 11 0
BBX 9 10 1 1
BITMAP
4000
F000
7C00
1F00
0780
0780
1F00
7C00
F000
4000
ENDCHAR
STARTCHAR 003F
ENCODING 63
SWIDTH 565 0
DWIDTH 11 0
BBX 7 12 2 0
BITMAP
7C
FE
C6
C6
0E
3C
38
10
00
38
38
38
ENDCHAR
STARTCHAR 0040
ENCODING 64
SWIDTH 565 0
DWIDTH 11 0
BBX 11 11 0 -1
BITMAP
0F00
30C0
67C0
4B60
5920
DB60
DB60
DDC0
4D80
6000
3F00
ENDCHAR
STARTCHAR 0041
ENCODING 65
SWIDTH 565 0
DWIDTH 11 0
BBX 11 11 0 0
BITMAP
3E00
7F00
0B00
1B00
1B80
3980
3F80
3FC0
70C0
FBE0
FBE0
ENDCHAR
STARTCHAR 0042
ENCODING 66
SWIDTH 565 0
DWIDTH 11 0
BBX 10 11 1 0
BITMAP
FF00
FF80
7380
7380
7F00
7F80
7180
71C0
7180
FF80
FF00
ENDCHAR
STARTCHAR 0043
ENCODING 67
SWIDTH 565 0
DWIDTH 11 0
BBX 9 11 1 0
BITMAP
1F80
7F80
7380
E180
E180
C000
E000
E000
7180
7F80
1F00
ENDCHAR
STARTCHAR 0044
ENCODING 68
SWIDTH 565 0
DWIDTH 11 0
BBX 10 11 1 0
BITMAP
FE00
FF00
6380
6180
61C0
61C0
61C0
6180
6380
FF00
FE00
ENDCHAR
STARTCHAR 0045
ENCODING 69
SWIDTH 565 0
DWIDTH 11 0
BBX 9 11 1 0
BITMAP
FF80
FF80
6180
6180
7C00
7C00
6180
6180
6180
FF80
FF80
ENDCHAR
STARTCHAR 0046
ENCODING 70
SWIDTH 565 0
DWIDTH 11 0
BBX 9 11 1 0
BITMAP
FF80
FF80
7180
7180
7000
7E00
7E00
7000
7000
FC00
FC00
ENDCHAR
STARTCHAR 0047
ENCODING 71
SWIDTH 565 0
DWIDTH 11 0
BBX 10 11 1 0
BITMAP
3D80
7F80
E380
E180
C000
CFC0
CFC0
E180
E180
7F80
3F00
ENDCHAR
STARTCHAR 0048
ENCODING 72
SWIDTH 565 0
DWIDTH 11 0
BBX 11 11 0 0
BITMAP
7BE0
FBE0
31C0
31C0
3FC0
3FC0
31C0
31C0
31C0
FBE0
7BE0
ENDCHAR
STARTCHAR 0049
ENCODING 73
SWIDTH 565 0
DWIDTH 11 0
BBX 8 11 2 0
BITMAP
FF
FF
18
18
18
18
18
18
18
FF
FF
ENDCHAR
STARTCHAR 004A
ENCODING 74
SWIDTH 565 0
DWIDTH 11 0
BBX 10 11 1 0
BITMAP
3FC0
3FC0
0700
0700
0700
0700
C700
C700
C700
FE00
7C00
ENDCHAR
STARTCHAR 004B
ENCODING 75
SWIDTH 565 0
DWIDTH 11 0
BBX 11 11 0 0
BITMAP
7BE0
FBE0
31C0
3380
3600
3F00
3F80
3180
31C0
FCE0
7CE0
ENDCHAR
STARTCHAR 004C
ENCODING 76
SWIDTH 565 0
DWIDTH 11 0
BBX 9 11 1 0
BITMAP
FC00
FC00
7000
7000
7000
7000
7180
7180
7180
FF80
FF80
ENDCHAR
STARTCHAR 004D
ENCODING 77
SWIDTH 565 0
DWIDTH 11 0
BBX 11 11 0 0
BITMAP
F1E0
F1E0
79C0
7BC0
6FC0
6EC0
6EC0
66C0
60C0
F9E0
F9E0
ENDCHAR
STARTCHAR 004E
ENCODING 78
SWIDTH 565 0
DWIDTH 11 0
BBX 11 11 0 0
BITMAP
71E0
FBE0
38C0
3CC0
3EC0
36C0
37C0
33C0
31C0
F9C0
78C0
ENDCHAR
STARTCHAR 004F
ENCODING 79
SWIDTH 565 0
DWIDTH 11 0
BBX 10 11 1 0
BITMAP
3E00
7F00
E380
C1C0
C1C0
C1C0
C1C0
C1C0
E380
7F00
3E00
ENDCHAR
STARTCHAR 0050
ENCODING 80
SWIDTH 565 0
DWIDTH 11 0
BBX 10 11 1 0
BITMAP
FF00
FF80
7180
71C0
7180
7F80
7F00
7000
7000
FC00
FC00
ENDCHAR
STARTCHAR 0051
ENCODING 81
SWIDTH 565 0
DWIDTH 11 0
BBX 10 14 1 -3
BITMAP
3E00
7F00
E380
C1C0
C1C0
C1C0
C1C0
C1C0
E380
7F00
3E00
3000
7FC0
7F80
ENDCHAR
STARTCHAR 0052
ENCODING 82
SWIDTH 565 0
DWIDTH 11 0
BBX 10 11 1 0
BITMAP
FE00
FF80
6380
6180
6380
7F00
7E00
6700
6380
F9C0
F9C0
ENDCHAR
STARTCHAR 0053
ENCODING 83
SWIDTH 565 0
DWIDTH 11 0
BBX 9 11 1 0
BITMAP
3F80
7F80
E380
E180
7C00
3F00
0780
C180
E380
FF80
FF00
ENDCHAR
STARTCHAR 0054
ENCODING 84
SWIDTH 565 0
DWIDTH 11 0
BBX 9 11 1 0
BITMAP
FF80
FF80
CC80
CC80
CC80
0C00
0C00
0C00
0C00
7F00
7F00
ENDCHAR
STARTCHAR 0055
ENCODING 85
SWIDTH 565 0
DWIDTH 11 0
BBX 11 11 0 0
BITMAP
7BE0
FBE0
70C0
70C0
70C0
70C0
70C0
70C0
31C0
3F80
1F00
ENDCHAR
STARTCHAR 0056
ENCODING 86
SWIDTH 565 0
DWIDTH 11 0
BBX 11 11 0 0
BITMAP
F9E0
F9E0
70C0
31C0
3980
1980
1B80
1F00
0F00
0E00
0E00
ENDCHAR
STARTCHAR 0057
ENCODING 87
SWIDTH 565 0
DWIDTH 11 0
BBX 12 11 0 0
BITMAP
F9F0
F9F0
60C0
66C0
6EC0
6EC0
6FC0
7BC0
3BC0
31C0
31C0
ENDCHAR
STARTCHAR 0058
ENCODING 88
SWIDTH 565 0
DWIDTH 11 0
BBX 11 11 0 0
BITMAP
7BE0
7BE0
3980
1B80
0F00
0E00
1F00
3B80
31C0
FBE0
FBE0
ENDCHAR
STARTCHAR 0059
ENCODING 89
SWIDTH 565 0
DWIDTH 11 0
BBX 11 11 0 0
BITMAP
FBE0
FBE0
31C0
3980
1F00
0F00
0E00
0600
0600
3F80
3F80
ENDCHAR
STARTCHAR 005A
ENCODING 90
SWIDTH 565 0
DWIDTH 11 0
BBX 9 11 1 0
BITMAP
7F80
7F80
6700
6700
0E00
1C00
3980
3980
7180
FF80
FF80
ENDCHAR
STARTCHAR 005B
ENCODING 91
SWIDTH 565 0
DWIDTH 11 0
BBX 6 16 3 -3
BITMAP
FC
FC
C0
C0
C0
C0
C0
C0
C0
C0
C0
C0
C0
C0
FC
FC
ENDCHAR
STARTCHAR 005C
ENCODING 92
SWIDTH 565 0
DWIDTH 11 0
BBX 9 16 1 -4
BITMAP
E000
6000
7000
3000
3000
3800
1800
1C00
0C00
0E00
0600
0600
0700
0300
0380
0180
ENDCHAR
STARTCHAR 005D
ENCODING 93
SWIDTH 565 0
DWIDTH 11 0
BBX 6 16 3 -3
BITMAP
FC
FC
1C
1C
1C
1C
1C
1C
1C
1C
1C
1C
1C
1C
FC
FC
ENDCHAR
STARTCHAR 005E
ENCODING 94
SWIDTH 565 0
DWIDTH 11 0
BBX 8 7 2 4
BITMAP
18
38
3C
6C
6E
E6
C7
ENDCHAR
STARTCHAR 005F
ENCODING 95
SWIDTH 565 0
DWIDTH 11 0
BBX 12 2 0 -5
BITMAP
FFF0
FFF0
ENDCHAR
STARTCHAR 0060
ENCODING 96
SWIDTH 565 0
DWIDTH 11 0
BBX 5 4 3 10
BITMAP
C0
E0
78
10
ENDCHAR
STARTCHAR 0061
ENCODING 97
SWIDTH 565 0
DWIDTH 11 0
BBX 10 9 1 0
BITMAP
7E00
7F00
4300
7F00
FF00
E300
E780
FFC0
7DC0
ENDCHAR
STARTCHAR 0062
ENCODING 98
SWIDTH 565 0
DWIDTH 11 0
BBX 11 12 0 0
BITMAP
F000
F000
3000
3700
3FC0
39C0
30C0
30E0
30C0
39C0
FFC0
F700
ENDCHAR
STARTCHAR 0063
ENCODING 99
SWIDTH 565 0
DWIDTH 11 0
BBX 9 9 1 0
BITMAP
3D80
7F80
7380
E180
E000
E000
7180
7F80
1E00
ENDCHAR
STARTCHAR 0064
ENCODING 100
SWIDTH 565 0
DWIDTH 11 0
BBX 10 12 1 0
BITMAP
0F80
0F80
0380
3F80
7F80
E780
E380
C380
E380
E780
7FC0
3DC0
ENDCHAR
STARTCHAR 0065
ENCODING 101
SWIDTH 565 0
DWIDTH 11 0
BBX 9 9 1 0
BITMAP
1E00
7F00
6380
FF80
FF80
E000
7180
7F80
3F00
ENDCHAR
STARTCHAR 0066
ENCODING 102
SWIDTH 565 0
DWIDTH 11 0
BBX 8 12 2 0
BITMAP
1F
3F
30
30
FF
FF
30
30
30
30
FE
FE
ENDCHAR
STARTCHAR 0067
ENCODING 103
SWIDTH 565 0
DWIDTH 11 0
BBX 10 13 1 -4
BITMAP
3DC0
7FC0
E780
E380
C380
E380
E780
7F80
3F80
0380
4300
FF00
7E00
ENDCHAR
STARTCHAR 0068
ENCODING 104
SWIDTH 565 0
DWIDTH 11 0
BBX 11 12 0 0
BITMAP
F000
F000
3000
3780
3F80
39C0
39C0
31C0
31C0
31C0
7BE0
7BE0
ENDCHAR
STARTCHAR 0069
ENCODING 105
SWIDTH 565 0
DWIDTH 11 0
BBX 8 12 2 0
BITMAP
18
18
00
F8
F8
18
18
18
18
18
FF
FF
ENDCHAR
STARTCHAR 006A
ENCODING 106
SWIDTH 565 0
DWIDTH 11 0
BBX 8 16 1 -4
BITMAP
07
07
00
7F
7F
07
07
07
07
07
07
07
07
66
FE
3C
ENDCHAR
STARTCHAR 006B
ENCODING 107
SWIDTH 565 0
DWIDTH 11 0
BBX 10 12 1 0
BITMAP
E000
E000
6000
67C0
67C0
6700
6E00
7E00
7700
6700
FBC0
F9C0
ENDCHAR
STARTCHAR 006C
ENCODING 108
SWIDTH 565 0
DWIDTH 11 0
BBX 9 12 1 0
BITMAP
7C00
7C00
0C00
0C00
0C00
0C00
0C00
0C00
0C00
0C00
FF80
FF80
ENDCHAR
STARTCHAR 006D
ENCODING 109
SWIDTH 565 0
DWIDTH 11 0
BBX 11 9 0 0
BITMAP
ECC0
FFE0
76E0
66E0
66E0
66E0
66E0
66E0
66E0
ENDCHAR
STARTCHAR 006E
ENCODING 110
SWIDTH 565 0
DWIDTH 11 0
BBX 10 9 1 0
BITMAP
EF00
FF80
7B80
7380
6380
6380
6380
F7C0
F3C0
ENDCHAR
STARTCHAR 006F
ENCODING 111
SWIDTH 565 0
DWIDTH 11 0
BBX 9 9 1 0
BITMAP
3E00
7F00
E380
E180
E180
E180
E380
7F00
3E00
ENDCHAR
STARTCHAR 0070
ENCODING 112
SWIDTH 565 0
DWIDTH 11 0
BBX 11 13 0 -4
BITMAP
F700
FFC0
39C0
30C0
30E0
30C0
39C0
3FC0
3700
3000
3000
FC00
FC00
ENDCHAR
STARTCHAR 0071
ENCODING 113
SWIDTH 565 0
DWIDTH 11 0
BBX 10 13 1 -4
BITMAP
3DC0
7FC0
E780
E380
C380
E380
E780
7F80
3F80
0380
0380
0FC0
0FC0
ENDCHAR
STARTCHAR 0072
ENCODING 114
SWIDTH 565 0
DWIDTH 11 0
BBX 10 9 1 0
BITMAP
F380
F7C0
3C80
3800
3800
3000
3000
FF00
FF00
ENDCHAR
STARTCHAR 0073
ENCODING 115
SWIDTH 565 0
DWIDTH 11 0
BBX 8 9 2 0
BITMAP
7E
FF
C6
E0
FE
07
C7
FF
FE
ENDCHAR
STARTCHAR 0074
ENCODING 116
SWIDTH 565 0
DWIDTH 11 0
BBX 9 11 1 0
BITMAP
3800
3800
3800
FF80
FF80
3800
3800
3800
3980
1F80
0F00
ENDCHAR
STARTCHAR 0075
ENCODING 117
SWIDTH 565 0
DWIDTH 11 0
BBX 11 9 0 0
BITMAP
73C0
F3C0
31C0
31C0
31C0
31C0
33C0
3EE0
1CE0
ENDCHAR
STARTCHAR 0076
ENCODING 118
SWIDTH 565 0
DWIDTH 11 0
BBX 11 9 0 0
BITMAP
FBE0
FBE0
31C0
3980
1B80
1B00
1F00
0E00
0E00
ENDCHAR
STARTCHAR 0077
ENCODING 119
SWIDTH 565 0
DWIDTH 11 0
BBX 12 9 0 0
BITMAP
F1F0
F1F0
66E0
6EC0
6EC0
6FC0
3BC0
3980
3180
ENDCHAR
STARTCHAR 0078
ENCODING 120
SWIDTH 565 0
DWIDTH 11 0
BBX 10 9 1 0
BITMAP
F7C0
F7C0
7300
3E00
1C00
3E00
7700
F7C0
F7C0
ENDCHAR
STARTCHAR 0079
ENCODING 121
SWIDTH 565 0
DWIDTH 11 0
BBX 11 13 0 -4
BITMAP
FBE0
FBE0
31C0
3980
1B80
1F00
0F00
0E00
0E00
0C00
1C00
7800
7000
ENDCHAR
STARTCHAR 007A
ENCODING 122
SWIDTH 565 0
DWIDTH 11 0
BBX 9 9 1 0
BITMAP
FF80
FF80
E700
4E00
1C00
3980
7180
FF80
FF80
ENDCHAR
STARTCHAR 007B
ENCODING 123
SWIDTH 565 0
DWIDTH 11 0
BBX 7 16 2 -4
BITMAP
0E
1E
38
30
30
38
30
F0
E0
30
38
30
30
38
3E
1E
ENDCHAR
STARTCHAR 007C
ENCODING 124
SWIDTH 565 0
DWIDTH 11 0
BBX 2 16 5 -4
BITMAP
C0
C0
C0
C0
C0
C0
C0
C0
C0
C0
C0
C0
C0
C0
C0
C0
ENDCHAR
STARTCHAR 007D
ENCODING 125
SWIDTH 565 0
DWIDTH 11 0
BBX 8 16 2 -4
BITMAP
F0
F8
38
18
18
18
1C
0F
0F
1C
18
18
18
18
F8
F0
ENDCHAR
STARTCHAR 007E
ENCODING 126
SWIDTH 565 0
DWIDTH 11 0
BBX 9 3 1 4
BITMAP
7980
FF80
4700
ENDCHAR
STARTCHAR 00A0
ENCODING 160
SWIDTH 565 0
DWIDTH 11 0
BBX 0 0 0 0
BITMAP
ENDCHAR
STARTCHAR 00A1
ENCODING 161
SWIDTH 565 0
DWIDTH 11 0
BBX 3 13 4 -4
BITMAP
E0
E0
E0
00
00
00
60
60
60
60
E0
E0
E0
ENDCHAR
STARTCHAR 00A2
ENCODING 162
SWIDTH 565 0
DWIDTH 11 0
BBX 9 13 1 -1
BITMAP
0C00
0C00
3D80
7F80
6F80
ED80
EC00
EC00
7F80
7F80
1E00
0C00
0C00
ENDCHAR
STARTCHAR 00A3
ENCODING 163
SWIDTH 565 0
DWIDTH 11 0
BBX 9 11 1 0
BITMAP
1E00
3F00
7300
7300
3000
FF00
FF00
3800
3000
7F80
7F00
ENDCHAR
STARTCHAR 00A4
ENCODING 164
SWIDTH 565 0
DWIDTH 11 0
BBX 9 10 1 1
BITMAP
4180
FF80
7F80
7300
6300
6380
7300
7F80
FF80
4180
ENDCHAR
STARTCHAR 00A5
ENCODING 165
SWIDTH 565 0
DWIDTH 11 0
BBX 11 11 0 0
BITMAP
FBE0
FBE0
31C0
7BC0
7FC0
0F00
7FC0
7FC0
0600
3F80
3F80
ENDCHAR
STARTCHAR 00A6
ENCODING 166
SWIDTH 565 0
DWIDTH 11 0
BBX 2 16 5 -4
BITMAP
C0
C0
C0
C0
C0
C0
C0
00
00
C0
C0
C0
C0
C0
C0
C0
ENDCHAR
STARTCHAR 00A7
ENCODING 167
SWIDTH 565 0
DWIDTH 11 0
BBX 9 14 1 -3
BITMAP
3F00
3F00
7300
7300
7C00
7F00
E780
7380
3D80
0F00
6700
6300
7F00
7E00
ENDCHAR
STARTCHAR 00A8
ENCODING 168
SWIDTH 565 0
DWIDTH 11 0
BBX 7 2 2 10
BITMAP
E6
E6
ENDCHAR
STARTCHAR 00A9
ENCODING 169
SWIDTH 565 0
DWIDTH 11 0
BBX 11 11 0 0
BITMAP
1F00
3180
6F40
5F60
D820
D820
D820
5F60
6F40
30C0
1F00
ENDCHAR
STARTCHAR 00AA
ENCODING 170
SWIDTH 565 0
DWIDTH 11 0
BBX 8 7 2 4
BITMAP
7C
7C
26
FE
C6
FE
7F
ENDCHAR
STARTCHAR 00AB
ENCODING 171
SWIDTH 565 0
DWIDTH 11 0
BBX 9 8 1 1
BITMAP
3180
3380
7300
E700
E700
6300
3380
3180
ENDCHAR
STARTCHAR 00AC
ENCODING 172
SWIDTH 565 0
DWIDTH 11 0
BBX 9 5 1 3
BITMAP
FF80
FF80
0180
0180
0180
ENDCHAR
STARTCHAR 00AD
ENCODING 173
SWIDTH 565 0
DWIDTH 11 0
BBX 8 2 2 3
BITMAP
FF
FE
ENDCHAR
STARTCHAR 00AE
ENCODING 174
SWIDTH 565 0
DWIDTH 11 0
BBX 9 10 1 3
BITMAP
1E00
6300
4180
DC80
9280
9E80
D680
5380
6300
1E00
ENDCHAR
STARTCHAR 00AF
ENCODING 175
SWIDTH 565 0
DWIDTH 11 0
BBX 6 2 3 10
BITMAP
FC
FC
ENDCHAR
STARTCHAR 00B0
ENCODING 176
SWIDTH 565 0
DWIDTH 11 0
BBX 6 6 2 5
BITMAP
78
FC
CC
CC
FC
78
ENDCHAR
STARTCHAR 00B1
ENCODING 177
SWIDTH 565 0
DWIDTH 11 0
BBX 8 10 2 0
BITMAP
18
18
FF
FF
18
18
18
00
FF
FF
ENDCHAR
STARTCHAR 00B2
ENCODING 178
SWIDTH 565 0
DWIDTH 11 0
BBX 6 8 3 4
BITMAP
F8
FC
CC
1C
38
60
FC
FC
ENDCHAR
STARTCHAR 00B3
ENCODING 179
SWIDTH 565 0
DWIDTH 11 0
BBX 6 8 3 4
BITMAP
F8
FC
8C
38
3C
0C
FC
F8
ENDCHAR
STARTCHAR 00B4
ENCODING 180
SWIDTH 565 0
DWIDTH 11 0
BBX 5 4 4 10
BITMAP
10
78
F0
C0
ENDCHAR
STARTCHAR 00B5
ENCODING 181
SWIDTH 565 0
DWIDTH 11 0
BBX 8 13 2 -4
BITMAP
C7
C7
C7
C7
C7
C7
EF
FF
F3
C0
C0
C0
C0
ENDCHAR
STARTCHAR 00B6
ENCODING 182
SWIDTH 565 0
DWIDTH 11 0
BBX 10 15 1 -4
BITMAP
3FC0
7FC0
FB00
FB00
FB00
FB00
7B00
1B00
1B00
1B00
1B00
1B00
1B00
1B00
1B00
ENDCHAR
STARTCHAR 00B7
ENCODING 183
SWIDTH 565 0
DWIDTH 11 0
BBX 3 4 4 4
BITMAP
E0
E0
E0
E0
ENDCHAR
STARTCHAR 00B8
ENCODING 184
SWIDTH 565 0
DWIDTH 11 0
BBX 5 5 3 -4
BITMAP
20
38
18
F8
F8
ENDCHAR
STARTCHAR 00B9
ENCODING 185
SWIDTH 565 0
DWIDTH 11 0
BBX 6 8 3 4
BITMAP
30
F0
F0
30
30
30
FC
FC
ENDCHAR
STARTCHAR 00BA
ENCODING 186
SWIDTH 565 0
DWIDTH 11 0
BBX 7 7 2 4
BITMAP
3C
7E
C6
C6
C6
7E
3C
ENDCHAR
STARTCHAR 00BB
ENCODING 187
SWIDTH 565 0
DWIDTH 11 0
BBX 10 8 1 1
BITMAP
4600
E700
7380
3180
39C0
7380
E700
4600
ENDCHAR
STARTCHAR 00BC
ENCODING 188
SWIDTH 565 0
DWIDTH 11 0
BBX 12 16 0 -2
BITMAP
2000
6000
E000
2000
2000
2000
F860
01C0
0700
1C60
70E0
61E0
0360
03F0
0060
0060
ENDCHAR
STARTCHAR 00BD
ENCODING 189
SWIDTH 565 0
DWIDTH 11 0
BBX 12 15 0 -2
BITMAP
6000
E000
2000
2000
2000
F860
0180
0600
0C00
33E0
6360
0020
00C0
01B0
03F0
ENDCHAR
STARTCHAR 00BE
ENCODING 190
SWIDTH 565 0
DWIDTH 11 0
BBX 12 15 0 -2
BITMAP
F000
9800
9800
3000
1800
F8E0
0180
0700
1C60
70E0
41E0
0360
03F0
0060
0060
ENDCHAR
STARTCHAR 00BF
ENCODING 191
SWIDTH 565 0
DWIDTH 11 0
BBX 7 13 2 -4
BITMAP
18
18
18
00
18
18
38
78
E0
C6
E6
7E
3C
ENDCHAR
STARTCHAR 00C0
ENCODING 192
SWIDTH 565 0
DWIDTH 11 0
BBX 11 17 0 0
BITMAP
1000
3C00
1E00
0600
0000
0000
3E00
7F00
0B00
1B00
1B80
3980
3F80
3FC0
70C0
FBE0
FBE0
ENDCHAR
STARTCHAR 00C1
ENCODING 193
SWIDTH 565 0
DWIDTH 11 0
BBX 11 17 0 0
BITMAP
0300
0700
1E00
1800
0000
0000
3E00
7F00
0B00
1B00
1B80
3980
3F80
3FC0
70C0
FBE0
FBE0
ENDCHAR
STARTCHAR 00C2
ENCODING 194
SWIDTH 565 0
DWIDTH 11 0
BBX 11 17 0 0
BITMAP
0400
0E00
1F00
3180
0000
0000
3E00
7F00
0B00
1B00
1B80
3980
3F80
3FC0
70C0
FBE0
FBE0
ENDCHAR
STARTCHAR 00C3
ENCODING 195
SWIDTH 565 0
DWIDTH 11 0
BBX 11 16 0 0
BITMAP
1D80
3F80
2700
0000
0000
3E00
7F00
0B00
1B00
1B80
3980
3F80
3FC0
70C0
FBE0
FBE0
ENDCHAR
STARTCHAR 00C4
ENCODING 196
SWIDTH 565 0
DWIDTH 11 0
BBX 11 15 0 0
BITMAP
3B80
3B80
0000
0000
3E00
7F00
0B00
1B00
1B80
3980
3F80
3FC0
70C0
FBE0
FBE0
ENDCHAR
STARTCHAR 00C5
ENCODING 197
SWIDTH 565 0
DWIDTH 11 0
BBX 11 18 0 0
BITMAP
0E00
1F00
1B00
1F00
0E00
0000
0000
3E00
7F00
0B00
1B00
1B80
3980
3F80
3FC0
70C0
FBE0
FBE0
ENDCHAR
STARTCHAR 00C6
ENCODING 198
SWIDTH 565 0
DWIDTH 11 0
BBX 11 11 0 0
BITMAP
7FE0
7FE0
3E60
3640
3780
3780
7E00
7E60
6660
F7E0
F7E0
ENDCHAR
STARTCHAR 00C7
ENCODING 199
SWIDTH 565 0
DWIDTH 11 0
BBX 9 16 1 -5
BITMAP
1F80
7F80
7380
E180
E180
C000
C000
E000
E000
7180
7F80
1F00
0C00
0F00
1F00
1E00
ENDCHAR
STARTCHAR 00C8
ENCODING 200
SWIDTH 565 0
DWIDTH 11 0
BBX 9 17 1 0
BITMAP
3000
3800
1E00
0600
0000
0000
FF80
FF80
6180
6180
7C00
7C00
6180
6180
6180
FF80
FF80
ENDCHAR
STARTCHAR 00C9
ENCODING 201
SWIDTH 565 0
DWIDTH 11 0
BBX 9 17 1 0
BITMAP
0600
0F00
3C00
1000
0000
0000
FF80
FF80
6180
6180
7C00
7C00
6180
6180
6180
FF80
FF80
ENDCHAR
STARTCHAR 00CA
ENCODING 202
SWIDTH 565 0
DWIDTH 11 0
BBX 9 17 1 0
BITMAP
0800
1E00
3F00
2300
0000
0000
FF80
FF80
6180
6180
7C00
7C00
6180
6180
6180
FF80
FF80
ENDCHAR
STARTCHAR 00CB
ENCODING 203
SWIDTH 565 0
DWIDTH 11 0
BBX 9 15 1 0
BITMAP
3300
3300
0000
0000
FF80
FF80
6180
6180
7C00
7C00
6180
6180
6180
FF80
FF80
ENDCHAR
STARTCHAR 00CC
ENCODING 204
SWIDTH 565 0
DWIDTH 11 0
BBX 8 17 2 0
BITMAP
60
70
3C
08
00
00
FF
FF
18
18
18
18
18
18
18
FF
FF
ENDCHAR
STARTCHAR 00CD
ENCODING 205
SWIDTH 565 0
DWIDTH 11 0
BBX 8 17 2 0
BITMAP
04
1E
3C
30
00
00
FF
FF
18
18
18
18
18
18
18
FF
FF
ENDCHAR
STARTCHAR 00CE
ENCODING 206
SWIDTH 565 0
DWIDTH 11 0
BBX 8 17 2 0
BITMAP
10
38
7E
C6
00
00
FF
FF
18
18
18
18
18
18
18
FF
FF
ENDCHAR
STARTCHAR 00CF
ENCODING 207
SWIDTH 565 0
DWIDTH 11 0
BBX 8 15 2 0
BITMAP
E6
E6
00
00
FF
FF
18
18
18
18
18
18
18
FF
FF
ENDCHAR
STARTCHAR 00D0
ENCODING 208
SWIDTH 565 0
DWIDTH 11 0
BBX 11 11 0 0
BITMAP
7F00
7F80
31C0
30C0
FCE0
FCE0
30E0
30C0
31C0
7F80
7F00
ENDCHAR
STARTCHAR 00D1
ENCODING 209
SWIDTH 565 0
DWIDTH 11 0
BBX 11 16 0 0
BITMAP
1C80
3F80
3700
0000
0000
71E0
FBE0
38C0
3CC0
3EC0
36C0
37C0
33C0
31C0
F9C0
78C0
ENDCHAR
STARTCHAR 00D2
ENCODING 210
SWIDTH 565 0
DWIDTH 11 0
BBX 10 17 1 0
BITMAP
3000
3800
1E00
0600
0000
0000
3E00
7F00
E380
C1C0
C1C0
C1C0
C1C0
C1C0
E380
7F00
3E00
ENDCHAR
STARTCHAR 00D3
ENCODING 211
SWIDTH 565 0
DWIDTH 11 0
BBX 10 17 1 0
BITMAP
0600
0F00
1C00
1000
0000
0000
3E00
7F00
E380
C1C0
C1C0
C1C0
C1C0
C1C0
E380
7F00
3E00
ENDCHAR
STARTCHAR 00D4
ENCODING 212
SWIDTH 565 0
DWIDTH 11 0
BBX 10 17 1 0
BITMAP
0800
1C00
3F00
6300
0000
0000
3E00
7F00
E380
C1C0
C1C0
C1C0
C1C0
C1C0
E380
7F00
3E00
ENDCHAR
STARTCHAR 00D5
ENCODING 213
SWIDTH 565 0
DWIDTH 11 0
BBX 10 16 1 0
BITMAP
3900
7F00
6E00
0000
0000
3E00
7F00
E380
C1C0
C1C0
C1C0
C1C0
C1C0
E380
7F00
3E00
ENDCHAR
STARTCHAR 00D6
ENCODING 214
SWIDTH 565 0
DWIDTH 11 0
BBX 10 15 1 0
BITMAP
7300
7300
0000
0000
3E00
7F00
E380
C1C0
C1C0
C1C0
C1C0
C1C0
E380
7F00
3E00
ENDCHAR
STARTCHAR 00D7
ENCODING 215
SWIDTH 565 0
DWIDTH 11 0
BBX 7 7 2 2
BITMAP
C6
EE
7C
38
7C
EE
C6
ENDCHAR
STARTCHAR 00D8
ENCODING 216
SWIDTH 565 0
DWIDTH 11 0
BBX 10 12 1 0
BITMAP
0080
3F80
7F80
E380
C7C0
CFC0
CDC0
D9C0
F1C0
E380
7F00
FE00
ENDCHAR
STARTCHAR 00D9
ENCODING 217
SWIDTH 565 0
DWIDTH 11 0
BBX 11 17 0 0
BITMAP
1800
1C00
0F00
0200
0000
0000
7BE0
FBE0
70C0
70C0
70C0
70C0
70C0
70C0
31C0
3F80
1F00
ENDCHAR
STARTCHAR 00DA
ENCODING 218
SWIDTH 565 0
DWIDTH 11 0
BBX 11 17 0 0
BITMAP
0100
0780
0F00
0C00
0000
0000
7BE0
FBE0
70C0
70C0
70C0
70C0
70C0
70C0
31C0
3F80
1F00
ENDCHAR
STARTCHAR 00DB
ENCODING 219
SWIDTH 565 0
DWIDTH 11 0
BBX 11 17 0 0
BITMAP
0400
0E00
1F80
3180
0000
0000
7BE0
FBE0
70C0
70C0
70C0
70C0
70C0
70C0
31C0
3F80
1F00
ENDCHAR
STARTCHAR 00DC
ENCODING 220
SWIDTH 565 0
DWIDTH 11 0
BBX 11 15 0 0
BITMAP
3980
3980
0000
0000
7BE0
FBE0
70C0
70C0
70C0
70C0
70C0
70C0
31C0
3F80
1F00
ENDCHAR
STARTCHAR 00DD
ENCODING 221
SWIDTH 565 0
DWIDTH 11 0
BBX 11 17 0 0
BITMAP
0100
0780
0F00
0C00
0000
0000
FBE0
FBE0
31C0
3980
1F00
0F00
0E00
0600
0600
3F80
3F80
ENDCHAR
STARTCHAR 00DE
ENCODING 222
SWIDTH 565 0
DWIDTH 11 0
BBX 9 11 1 0
BITMAP
FE00
FE00
3F00
3F80
3180
3180
3F80
3F00
3000
FE00
FE00
ENDCHAR
STARTCHAR 00DF
ENCODING 223
SWIDTH 565 0
DWIDTH 11 0
BBX 10 12 0 0
BITMAP
0F00
1F80
3980
31C0
3180
3700
3780
31C0
30C0
31C0
F7C0
F700
ENDCHAR
STARTCHAR 00E0
ENCODING 224
SWIDTH 565 0
DWIDTH 11 0
BBX 10 14 1 0
BITMAP
1000
3C00
1E00
0600
0000
7E00
7F00
4300
7F00
FF00
E300
E780
FFC0
7DC0
ENDCHAR
STARTCHAR 00E1
ENCODING 225
SWIDTH 565 0
DWIDTH 11 0
BBX 10 14 1 0
BITMAP
0600
0E00
3C00
3000
0000
7E00
7F00
4300
7F00
FF00
E300
E780
FFC0
7DC0
ENDCHAR
STARTCHAR 00E2
ENCODING 226
SWIDTH 565 0
DWIDTH 11 0
BBX 10 14 1 0
BITMAP
0800
1C00
3F00
6300
0000
7E00
7F00
4300
7F00
FF00
E300
E780
FFC0
7DC0
ENDCHAR
STARTCHAR 00E3
ENCODING 227
SWIDTH 565 0
DWIDTH 11 0
BBX 10 13 1 0
BITMAP
3900
7F00
6E00
0000
7E00
7F00
4300
7F00
FF00
E300
E780
FFC0
7DC0
ENDCHAR
STARTCHAR 00E4
ENCODING 228
SWIDTH 565 0
DWIDTH 11 0
BBX 10 12 1 0
BITMAP
7300
7300
0000
7E00
7F00
4300
7F00
FF00
E300
E780
FFC0
7DC0
ENDCHAR
STARTCHAR 00E5
ENCODING 229
SWIDTH 565 0
DWIDTH 11 0
BBX 10 15 1 0
BITMAP
1C00
3E00
3200
1E00
1C00
0000
7E00
7F00
4300
7F00
FF00
E300
E780
FFC0
7DC0
ENDCHAR
STARTCHAR 00E6
ENCODING 230
SWIDTH 565 0
DWIDTH 11 0
BBX 11 9 0 0
BITMAP
7BC0
7FE0
4660
3FE0
7FE0
E600
EE20
7FE0
7BC0
ENDCHAR
STARTCHAR 00E7
ENCODING 231
SWIDTH 565 0
DWIDTH 11 0
BBX 9 13 1 -4
BITMAP
3D80
7F80
7380
E180
E000
E000
6180
7F80
3F00
0800
0E00
1E00
3E00
ENDCHAR
STARTCHAR 00E8
ENCODING 232
SWIDTH 565 0
DWIDTH 11 0
BBX 9 14 1 0
BITMAP
1000
3C00
1E00
0600
0000
1E00
7F00
6380
FF80
FF80
E000
7180
7F80
3F00
ENDCHAR
STARTCHAR 00E9
ENCODING 233
SWIDTH 565 0
DWIDTH 11 0
BBX 9 14 1 0
BITMAP
0600
0F00
3C00
1000
0000
1E00
7F00
6380
FF80
FF80
E000
7180
7F80
3F00
ENDCHAR
STARTCHAR 00EA
ENCODING 234
SWIDTH 565 0
DWIDTH 11 0
BBX 9 14 1 0
BITMAP
0800
1C00
3F00
6300
0000
1E00
7F00
6380
FF80
FF80
E000
7180
7F80
3F00
ENDCHAR
STARTCHAR 00EB
ENCODING 235
SWIDTH 565 0
DWIDTH 11 0
BBX 9 12 1 0
BITMAP
7300
7300
0000
1E00
7F00
6380
FF80
FF80
E000
7180
7F80
3F00
ENDCHAR
STARTCHAR 00EC
ENCODING 236
SWIDTH 565 0
DWIDTH 11 0
BBX 8 14 2 0
BITMAP
40
F0
78
18
00
F8
F8
18
18
18
18
18
FF
FF
ENDCHAR
STARTCHAR 00ED
ENCODING 237
SWIDTH 565 0
DWIDTH 11 0
BBX 8 14 2 0
BITMAP
0C
1C
78
60
00
F8
F8
18
18
18
18
18
FF
FF
ENDCHAR
STARTCHAR 00EE
ENCODING 238
SWIDTH 565 0
DWIDTH 11 0
BBX 8 14 2 0
BITMAP
10
38
7E
C6
00
F8
F8
18
18
18
18
18
FF
FF
ENDCHAR
STARTCHAR 00EF
ENCODING 239
SWIDTH 565 0
DWIDTH 11 0
BBX 8 12 2 0
BITMAP
E6
E6
00
F8
F8
18
18
18
18
18
FF
FF
ENDCHAR
STARTCHAR 00F0
ENCODING 240
SWIDTH 565 0
DWIDTH 11 0
BBX 9 12 1 0
BITMAP
1B00
3F00
3E00
1300
3F80
7F80
E380
E180
E180
E380
7F00
3E00
ENDCHAR
STARTCHAR 00F1
ENCODING 241
SWIDTH 565 0
DWIDTH 11 0
BBX 10 13 1 0
BITMAP
3900
7F00
6E00
0000
EF00
FF80
7B80
7380
6380
6380
6380
F7C0
F3C0
ENDCHAR
STARTCHAR 00F2
ENCODING 242
SWIDTH 565 0
DWIDTH 11 0
BBX 9 14 1 0
BITMAP
3000
3800
1E00
0600
0000
3E00
7F00
E380
E180
E180
E180
E380
7F00
3E00
ENDCHAR
STARTCHAR 00F3
ENCODING 243
SWIDTH 565 0
DWIDTH 11 0
BBX 9 14 1 0
BITMAP
0600
0F00
1C00
1000
0000
3E00
7F00
E380
E180
E180
E180
E380
7F00
3E00
ENDCHAR
STARTCHAR 00F4
ENCODING 244
SWIDTH 565 0
DWIDTH 11 0
BBX 9 14 1 0
BITMAP
0800
1C00
3F00
6300
0000
3E00
7F00
E380
E180
E180
E180
E380
7F00
3E00
ENDCHAR
STARTCHAR 00F5
ENCODING 245
SWIDTH 565 0
DWIDTH 11 0
BBX 9 13 1 0
BITMAP
3900
7F00
6E00
0000
3E00
7F00
E380
E180
E180
E180
E380
7F00
3E00
ENDCHAR
STARTCHAR 00F6
ENCODING 246
SWIDTH 565 0
DWIDTH 11 0
BBX 9 12 1 0
BITMAP
7300
7300
0000
3E00
7F00
E380
E180
E180
E180
E380
7F00
3E00
ENDCHAR
STARTCHAR 00F7
ENCODING 247
SWIDTH 565 0
DWIDTH 11 0
BBX 8 9 2 1
BITMAP
18
18
00
FF
FF
00
00
18
18
ENDCHAR
STARTCHAR 00F8
ENCODING 248
SWIDTH 565 0
DWIDTH 11 0
BBX 10 10 1 0
BITMAP
0080
3FC0
7F80
E380
E780
ED80
F980
F380
7F00
FE00
ENDCHAR
STARTCHAR 00F9
ENCODING 249
SWIDTH 565 0
DWIDTH 11 0
BBX 11 14 0 0
BITMAP
1800
1C00
0E00
0300
0000
73C0
F3C0
31C0
31C0
31C0
31C0
33C0
3EE0
1CE0
ENDCHAR
STARTCHAR 00FA
ENCODING 250
SWIDTH 565 0
DWIDTH 11 0
BBX 11 14 0 0
BITMAP
0100
0780
0F00
0C00
0000
73C0
F3C0
31C0
31C0
31C0
31C0
33C0
3EE0
1CE0
ENDCHAR
STARTCHAR 00FB
ENCODING 251
SWIDTH 565 0
DWIDTH 11 0
BBX 11 14 0 0
BITMAP
0400
0E00
1F00
3180
0000
73C0
F3C0
31C0
31C0
31C0
31C0
33C0
3EE0
1CE0
ENDCHAR
STARTCHAR 00FC
ENCODING 252
SWIDTH 565 0
DWIDTH 11 0
BBX 11 12 0 0
BITMAP
3B80
3B80
0000
73C0
F3C0
31C0
31C0
31C0
31C0
33C0
3EE0
1CE0
ENDCHAR
STARTCHAR 00FD
ENCODING 253
SWIDTH 565 0
DWIDTH 11 0
BBX 11 18 0 -4
BITMAP
0100
0780
0F00
0C00
0000
FBE0
FBE0
31C0
3980
1B80
1F00
0F00
0E00
0E00
0C00
1C00
7800
7000
ENDCHAR
STARTCHAR 00FE
ENCODING 254
SWIDTH 565 0
DWIDTH 11 0
BBX 11 16 0 -4
BITMAP
F000
F000
3000
3700
3FC0
39C0
30C0
30E0
30C0
39C0
3FC0
3700
3000
3000
FC00
FC00
ENDCHAR
STARTCHAR 00FF
ENCODING 255
SWIDTH 565 0
DWIDTH 11 0
BBX 11 16 0 -4
BITMAP
3980
3980
0000
FBE0
FBE0
31C0
3980
1B80
1F00
0F00
0E00
0E00
0C00
1C00
7800
7000
ENDCHAR
STARTCHAR 0152
ENCODING 140
SWIDTH 565 0
DWIDTH 11 0
BBX 10 11 1 0
BITMAP
3FC0
7FC0
ECC0
CC80
CF00
CF00
CC00
CCC0
ECC0
7FC0
3FC0
ENDCHAR
STARTCHAR 0153
ENCODING 156
SWIDTH 565 0
DWIDTH 11 0
BBX 11 9 0 0
BITMAP
3BC0
7FE0
EE60
E7E0
C7E0
E600
EE20
7FE0
3BC0
ENDCHAR
STARTCHAR 0160
ENCODING 138
SWIDTH 565 0
DWIDTH 11 0
BBX 9 17 1 0
BITMAP
2100
7700
3E00
0C00
0000
0000
3F80
7F80
E380
E180
7C00
3F00
0780
C180
E380
FF80
FF00
ENDCHAR
STARTCHAR 0161
ENCODING 154
SWIDTH 565 0
DWIDTH 11 0
BBX 8 14 2 0
BITMAP
42
EE
7C
18
00
7E
FF
C6
E0
FE
07
C7
FF
FE
ENDCHAR
STARTCHAR 0178
ENCODING 159
SWIDTH 565 0
DWIDTH 11 0
BBX 11 15 0 0
BITMAP
3980
3980
0000
0000
FBE0
FBE0
31C0
3980
1F00
0F00
0E00
0600
0600
3F80
3F80
ENDCHAR
STARTCHAR 017D
ENCODING 142
SWIDTH 565 0
DWIDTH 11 0
BBX 9 17 1 0
BITMAP
2100
7700
1E00
0C00
0000
0000
7F80
7F80
6700
6700
0E00
1C00
3980
3980
7180
FF80
FF80
ENDCHAR
STARTCHAR 017E
ENCODING 158
SWIDTH 565 0
DWIDTH 11 0
BBX 9 14 1 0
BITMAP
2100
7700
1E00
0C00
0000
FF80
FF80
E700
4E00
1C00
3980
7180
FF80
FF80
ENDCHAR
STARTCHAR 0192
ENCODING 131
SWIDTH 565 0
DWIDTH 11 0
BBX 11 15 0 -3
BITMAP
03E0
07E0
0600
0600
3FC0
3FC0
0E00
0E00
0C00
0C00
0C00
0C00
0C00
FC00
F800
ENDCHAR
STARTCHAR 02C6
ENCODING 136
SWIDTH 565 0
DWIDTH 11 0
BBX 7 4 2 10
BITMAP
10
38
7E
C6
ENDCHAR
STARTCHAR 02DC
ENCODING 152
SWIDTH 565 0
DWIDTH 11 0
BBX 7 3 2 10
BITMAP
72
FE
DC
ENDCHAR
STARTCHAR 2013
ENCODING 150
SWIDTH 565 0
DWIDTH 11 0
BBX 8 2 2 4
BITMAP
FF
FF
ENDCHAR
STARTCHAR 2014
ENCODING 151
SWIDTH 565 0
DWIDTH 11 0
BBX 12 2 0 4
BITMAP
FFF0
FFF0
ENDCHAR
STARTCHAR 2018
ENCODING 145
SWIDTH 565 0
DWIDTH 11 0
BBX 3 5 4 7
BITMAP
20
60
60
E0
E0
ENDCHAR
STARTCHAR 2019
ENCODING 146
SWIDTH 565 0
DWIDTH 11 0
BBX 4 6 4 6
BITMAP
70
E0
E0
C0
C0
C0
ENDCHAR
STARTCHAR 201A
ENCODING 130
SWIDTH 565 0
DWIDTH 11 0
BBX 4 6 4 -3
BITMAP
70
E0
E0
C0
C0
C0
ENDCHAR
STARTCHAR 201C
ENCODING 147
SWIDTH 565 0
DWIDTH 11 0
BBX 9 5 1 7
BITMAP
3180
7180
6380
E300
E700
ENDCHAR
STARTCHAR 201D
ENCODING 148
SWIDTH 565 0
DWIDTH 11 0
BBX 9 6 1 6
BITMAP
7380
7380
6300
6300
C300
C600
ENDCHAR
STARTCHAR 201E
ENCODING 132
SWIDTH 565 0
DWIDTH 11 0
BBX 9 6 1 -3
BITMAP
7380
7380
6300
6300
C300
C600
ENDCHAR
STARTCHAR 2020
ENCODING 134
SWIDTH 565 0
DWIDTH 11 0
BBX 7 9 2 2
BITMAP
18
18
FE
FE
18
18
18
18
18
ENDCHAR
STARTCHAR 2021
ENCODING 135
SWIDTH 565 0
DWIDTH 11 0
BBX 7 10 2 1
BITMAP
18
18
FE
FE
18
18
FE
FE
18
18
ENDCHAR
STARTCHAR 2022
ENCODING 149
SWIDTH 565 0
DWIDTH 11 0
BBX 5 5 3 3
BITMAP
F8
F8
F8
F8
F8
ENDCHAR
STARTCHAR 2026
ENCODING 133
SWIDTH 565 0
DWIDTH 11 0
BBX 10 3 1 0
BITMAP
CDC0
CDC0
CDC0
ENDCHAR
STARTCHAR 2030
ENCODING 137
SWIDTH 565 0
DWIDTH 11 0
BBX 14 11 0 0
BITMAP
7800
7840
CCE0
7980
7F00
0E00
1DF8
3BFC
7364
43FC
01F8
ENDCHAR
STARTCHAR 2039
ENCODING 139
SWIDTH 565 0
DWIDTH 11 0
BBX 5 8 3 1
BITMAP
10
38
70
60
E0
70
38
10
ENDCHAR
STARTCHAR 203A
ENCODING 155
SWIDTH 565 0
DWIDTH 11 0
BBX 4 8 4 1
BITMAP
C0
C0
E0
70
70
E0
C0
C0
ENDCHAR
STARTCHAR 20AC
ENCODING 128
SWIDTH 565 0
DWIDTH 11 0
BBX 10 11 1 0
BITMAP
1F80
3F80
7380
FD80
FD80
6000
FC00
FC00
7080
3FC0
1F00
ENDCHAR
STARTCHAR 2122
ENCODING 153
SWIDTH 565 0
DWIDTH 11 0
BBX 12 5 0 7
BITMAP
FB30
3370
33F0
32F0
3230
ENDCHAR
ENDFONT
