STARTFONT 2.1
COMMENT
COMMENT Converted from OpenType font "CourierPrime-Regular.ttf" by "otf2bdf 3.0".
COMMENT
FONT -FreeType-Courier Prime-Medium-R-Normal--14-100-100-100-P-69-ISO10646-1
SIZE 10 100 100
FONTBOUNDINGBOX 16 18 -5 -4
STARTPROPERTIES 19
FOUNDRY "FreeType"
FAMILY_NAME "Courier Prime"
WEIGHT_NAME "Medium"
SLANT "R"
SETWIDTH_NAME "Normal"
ADD_STYLE_NAME ""
PIXEL_SIZE 14
POINT_SIZE 100
RESOLUTION_X 100
RESOLUTION_Y 100
SPACING "P"
AVERAGE_WIDTH 69
CHARSET_REGISTRY "ISO10646"
CHARSET_ENCODING "1"
FONT_ASCENT 10
FONT_DESCENT 4
COPYRIGHT "Copyright 2015 The Courier Prime Project Authors (https://github.com/quoteunquoteapps/CourierPrime)."
_OTF_FONTFILE "CourierPrime-Regular.ttf"
_OTF_PSNAME "CourierPrime-Regular"
ENDPROPERTIES
CHARS 383
STARTCHAR 000D
ENCODING 13
SWIDTH 576 0
DWIDTH 8 0
BBX 0 0 0 0
BITMAP
ENDCHAR
STARTCHAR 0020
ENCODING 32
SWIDTH 576 0
DWIDTH 8 0
BBX 0 0 0 0
BITMAP
ENDCHAR
STARTCHAR 0021
ENCODING 33
SWIDTH 576 0
DWIDTH 8 0
BBX 2 10 3 0
BITMAP
C0
40
40
40
40
40
00
00
C0
C0
ENDCHAR
STARTCHAR 0022
ENCODING 34
SWIDTH 576 0
DWIDTH 8 0
BBX 5 4 2 6
BITMAP
98
90
90
90
ENDCHAR
STARTCHAR 0023
ENCODING 35
SWIDTH 576 0
DWIDTH 8 0
BBX 8 9 0 0
BITMAP
12
12
7F
24
24
FF
28
28
48
ENDCHAR
STARTCHAR 0024
ENCODING 36
SWIDTH 576 0
DWIDTH 8 0
BBX 6 11 1 -1
BITMAP
10
10
7C
94
D0
7C
94
D4
BC
10
10
ENDCHAR
STARTCHAR 0025
ENCODING 37
SWIDTH 576 0
DWIDTH 8 0
BBX 8 9 0 0
BITMAP
60
91
92
74
08
36
69
49
06
ENDCHAR
STARTCHAR 0026
ENCODING 38
SWIDTH 576 0
DWIDTH 8 0
BBX 7 9 1 0
BITMAP
78
48
40
40
66
98
98
98
76
ENDCHAR
STARTCHAR 0027
ENCODING 39
SWIDTH 576 0
DWIDTH 8 0
BBX 2 4 3 6
BITMAP
C0
C0
40
40
ENDCHAR
STARTCHAR 0028
ENCODING 40
SWIDTH 576 0
DWIDTH 8 0
BBX 4 13 2 -3
BITMAP
10
20
40
40
80
80
80
80
80
40
40
20
10
ENDCHAR
STARTCHAR 0029
ENCODING 41
SWIDTH 576 0
DWIDTH 8 0
BBX 4 13 2 -3
BITMAP
C0
60
20
10
10
10
10
10
10
10
20
40
C0
ENDCHAR
STARTCHAR 002A
ENCODING 42
SWIDTH 576 0
DWIDTH 8 0
BBX 6 6 1 3
BITMAP
10
10
DC
30
38
48
ENDCHAR
STARTCHAR 002B
ENCODING 43
SWIDTH 576 0
DWIDTH 8 0
BBX 6 7 1 1
BITMAP
10
10
10
FC
10
10
10
ENDCHAR
STARTCHAR 002C
ENCODING 44
SWIDTH 576 0
DWIDTH 8 0
BBX 2 4 3 -2
BITMAP
C0
C0
80
80
ENDCHAR
STARTCHAR 002D
ENCODING 45
SWIDTH 576 0
DWIDTH 8 0
BBX 6 1 1 4
BITMAP
FC
ENDCHAR
STARTCHAR 002E
ENCODING 46
SWIDTH 576 0
DWIDTH 8 0
BBX 2 2 3 0
BITMAP
C0
C0
ENDCHAR
STARTCHAR 002F
ENCODING 47
SWIDTH 576 0
DWIDTH 8 0
BBX 6 13 1 -3
BITMAP
04
04
08
08
18
10
10
20
20
20
40
40
C0
ENDCHAR
STARTCHAR 0030
ENCODING 48
SWIDTH 576 0
DWIDTH 8 0
BBX 6 9 1 0
BITMAP
38
48
44
84
84
84
44
48
38
ENDCHAR
STARTCHAR 0031
ENCODING 49
SWIDTH 576 0
DWIDTH 8 0
BBX 6 9 1 0
BITMAP
10
70
D0
10
10
10
10
10
7C
ENDCHAR
STARTCHAR 0032
ENCODING 50
SWIDTH 576 0
DWIDTH 8 0
BBX 6 9 1 0
BITMAP
78
48
44
08
08
10
20
44
FC
ENDCHAR
STARTCHAR 0033
ENCODING 51
SWIDTH 576 0
DWIDTH 8 0
BBX 6 9 1 0
BITMAP
78
48
04
08
38
0C
04
CC
78
ENDCHAR
STARTCHAR 0034
ENCODING 52
SWIDTH 576 0
DWIDTH 8 0
BBX 6 9 1 0
BITMAP
18
18
28
48
48
FC
08
08
3C
ENDCHAR
STARTCHAR 0035
ENCODING 53
SWIDTH 576 0
DWIDTH 8 0
BBX 6 9 1 0
BITMAP
78
40
40
78
4C
04
04
CC
78
ENDCHAR
STARTCHAR 0036
ENCODING 54
SWIDTH 576 0
DWIDTH 8 0
BBX 6 9 1 0
BITMAP
1C
20
40
78
CC
C4
44
4C
38
ENDCHAR
STARTCHAR 0037
ENCODING 55
SWIDTH 576 0
DWIDTH 8 0
BBX 5 9 2 0
BITMAP
F8
88
90
10
10
20
20
60
40
ENDCHAR
STARTCHAR 0038
ENCODING 56
SWIDTH 576 0
DWIDTH 8 0
BBX 6 9 1 0
BITMAP
38
48
44
4C
38
4C
C4
4C
78
ENDCHAR
STARTCHAR 0039
ENCODING 57
SWIDTH 576 0
DWIDTH 8 0
BBX 6 9 1 0
BITMAP
78
4C
84
C4
7C
04
08
18
60
ENDCHAR
STARTCHAR 003A
ENCODING 58
SWIDTH 576 0
DWIDTH 8 0
BBX 2 7 3 0
BITMAP
C0
C0
00
00
00
C0
C0
ENDCHAR
STARTCHAR 003B
ENCODING 59
SWIDTH 576 0
DWIDTH 8 0
BBX 2 9 3 -2
BITMAP
C0
C0
00
00
00
C0
C0
80
80
ENDCHAR
STARTCHAR 003C
ENCODING 60
SWIDTH 576 0
DWIDTH 8 0
BBX 6 7 1 1
BITMAP
04
18
60
80
60
18
04
ENDCHAR
STARTCHAR 003D
ENCODING 61
SWIDTH 576 0
DWIDTH 8 0
BBX 6 4 1 2
BITMAP
FC
00
00
FC
ENDCHAR
STARTCHAR 003E
ENCODING 62
SWIDTH 576 0
DWIDTH 8 0
BBX 7 7 1 1
BITMAP
C0
70
18
06
18
70
C0
ENDCHAR
STARTCHAR 003F
ENCODING 63
SWIDTH 576 0
DWIDTH 8 0
BBX 5 10 2 0
BITMAP
F0
90
88
10
70
40
40
00
60
60
ENDCHAR
STARTCHAR 0040
ENCODING 64
SWIDTH 576 0
DWIDTH 8 0
BBX 8 9 0 -1
BITMAP
1C
22
5D
95
A5
AD
BE
40
3C
ENDCHAR
STARTCHAR 0041
ENCODING 65
SWIDTH 576 0
DWIDTH 8 0
BBX 8 9 0 0
BITMAP
78
18
14
24
24
3E
42
42
E7
ENDCHAR
STARTCHAR 0042
ENCODING 66
SWIDTH 576 0
DWIDTH 8 0
BBX 6 9 1 0
BITMAP
F8
4C
44
44
78
44
44
44
FC
ENDCHAR
STARTCHAR 0043
ENCODING 67
SWIDTH 576 0
DWIDTH 8 0
BBX 6 9 1 0
BITMAP
3C
44
84
80
80
80
80
44
38
ENDCHAR
STARTCHAR 0044
ENCODING 68
SWIDTH 576 0
DWIDTH 8 0
BBX 7 9 1 0
BITMAP
F8
4C
44
42
42
42
46
4C
F8
ENDCHAR
STARTCHAR 0045
ENCODING 69
SWIDTH 576 0
DWIDTH 8 0
BBX 7 9 1 0
BITMAP
FC
44
44
50
70
50
46
46
FE
ENDCHAR
STARTCHAR 0046
ENCODING 70
SWIDTH 576 0
DWIDTH 8 0
BBX 7 9 1 0
BITMAP
FE
42
42
48
78
48
40
40
F0
ENDCHAR
STARTCHAR 0047
ENCODING 71
SWIDTH 576 0
DWIDTH 8 0
BBX 7 9 1 0
BITMAP
3C
C4
84
80
80
9E
84
C4
7C
ENDCHAR
STARTCHAR 0048
ENCODING 72
SWIDTH 576 0
DWIDTH 8 0
BBX 7 9 1 0
BITMAP
EE
C4
C4
C4
FC
C4
C4
C4
EE
ENDCHAR
STARTCHAR 0049
ENCODING 73
SWIDTH 576 0
DWIDTH 8 0
BBX 6 9 1 0
BITMAP
FC
10
10
10
10
10
10
10
FC
ENDCHAR
STARTCHAR 004A
ENCODING 74
SWIDTH 576 0
DWIDTH 8 0
BBX 7 9 1 0
BITMAP
7E
08
08
08
08
88
88
88
70
ENDCHAR
STARTCHAR 004B
ENCODING 75
SWIDTH 576 0
DWIDTH 8 0
BBX 7 9 1 0
BITMAP
EE
4C
58
50
78
48
4C
44
E6
ENDCHAR
STARTCHAR 004C
ENCODING 76
SWIDTH 576 0
DWIDTH 8 0
BBX 7 9 1 0
BITMAP
F0
40
40
40
40
46
46
46
FE
ENDCHAR
STARTCHAR 004D
ENCODING 77
SWIDTH 576 0
DWIDTH 8 0
BBX 8 9 0 0
BITMAP
E3
66
66
56
5A
5A
4A
42
E7
ENDCHAR
STARTCHAR 004E
ENCODING 78
SWIDTH 576 0
DWIDTH 8 0
BBX 8 9 0 0
BITMAP
E7
62
52
52
4A
4E
46
46
72
ENDCHAR
STARTCHAR 004F
ENCODING 79
SWIDTH 576 0
DWIDTH 8 0
BBX 7 9 1 0
BITMAP
78
C4
84
82
82
82
84
C4
78
ENDCHAR
STARTCHAR 0050
ENCODING 80
SWIDTH 576 0
DWIDTH 8 0
BBX 7 9 1 0
BITMAP
F8
44
46
46
44
7C
40
40
F0
ENDCHAR
STARTCHAR 0051
ENCODING 81
SWIDTH 576 0
DWIDTH 8 0
BBX 7 11 1 -2
BITMAP
78
C4
84
82
82
82
84
C4
78
40
7C
ENDCHAR
STARTCHAR 0052
ENCODING 82
SWIDTH 576 0
DWIDTH 8 0
BBX 7 9 1 0
BITMAP
F8
44
44
44
78
48
48
44
E6
ENDCHAR
STARTCHAR 0053
ENCODING 83
SWIDTH 576 0
DWIDTH 8 0
BBX 6 9 1 0
BITMAP
74
CC
84
C0
38
04
84
C4
B8
ENDCHAR
STARTCHAR 0054
ENCODING 84
SWIDTH 576 0
DWIDTH 8 0
BBX 7 9 1 0
BITMAP
FE
92
92
92
10
10
10
10
7C
ENDCHAR
STARTCHAR 0055
ENCODING 85
SWIDTH 576 0
DWIDTH 8 0
BBX 8 9 0 0
BITMAP
F7
42
42
42
42
42
42
26
3C
ENDCHAR
STARTCHAR 0056
ENCODING 86
SWIDTH 576 0
DWIDTH 8 0
BBX 8 9 0 0
BITMAP
E7
42
62
22
24
34
14
18
18
ENDCHAR
STARTCHAR 0057
ENCODING 87
SWIDTH 576 0
DWIDTH 8 0
BBX 8 9 0 0
BITMAP
E7
41
4A
5A
5A
56
66
66
26
ENDCHAR
STARTCHAR 0058
ENCODING 88
SWIDTH 576 0
DWIDTH 8 0
BBX 8 9 0 0
BITMAP
77
26
34
18
18
1C
24
62
E7
ENDCHAR
STARTCHAR 0059
ENCODING 89
SWIDTH 576 0
DWIDTH 8 0
BBX 8 9 0 0
BITMAP
F7
22
24
14
18
08
08
08
3E
ENDCHAR
STARTCHAR 005A
ENCODING 90
SWIDTH 576 0
DWIDTH 8 0
BBX 6 9 1 0
BITMAP
FC
8C
88
10
10
24
64
44
FC
ENDCHAR
STARTCHAR 005B
ENCODING 91
SWIDTH 576 0
DWIDTH 8 0
BBX 4 13 2 -2
BITMAP
F0
80
80
80
80
80
80
80
80
80
80
80
F0
ENDCHAR
STARTCHAR 005C
ENCODING 92
SWIDTH 576 0
DWIDTH 8 0
BBX 6 13 1 -3
BITMAP
C0
40
40
60
20
20
10
10
18
08
08
04
04
ENDCHAR
STARTCHAR 005D
ENCODING 93
SWIDTH 576 0
DWIDTH 8 0
BBX 4 13 2 -2
BITMAP
F0
10
10
10
10
10
10
10
10
10
10
10
F0
ENDCHAR
STARTCHAR 005E
ENCODING 94
SWIDTH 576 0
DWIDTH 8 0
BBX 5 5 2 4
BITMAP
20
60
50
90
88
ENDCHAR
STARTCHAR 005F
ENCODING 95
SWIDTH 576 0
DWIDTH 8 0
BBX 9 1 0 -3
BITMAP
FF80
ENDCHAR
STARTCHAR 0060
ENCODING 96
SWIDTH 576 0
DWIDTH 8 0
BBX 4 3 2 8
BITMAP
C0
60
30
ENDCHAR
STARTCHAR 0061
ENCODING 97
SWIDTH 576 0
DWIDTH 8 0
BBX 7 7 1 0
BITMAP
78
CC
04
7C
84
8C
76
ENDCHAR
STARTCHAR 0062
ENCODING 98
SWIDTH 576 0
DWIDTH 8 0
BBX 8 10 0 0
BITMAP
C0
40
40
5C
62
62
43
62
62
DC
ENDCHAR
STARTCHAR 0063
ENCODING 99
SWIDTH 576 0
DWIDTH 8 0
BBX 6 7 1 0
BITMAP
7C
C4
84
80
80
C4
78
ENDCHAR
STARTCHAR 0064
ENCODING 100
SWIDTH 576 0
DWIDTH 8 0
BBX 7 10 1 0
BITMAP
1C
04
04
74
CC
84
84
84
CC
76
ENDCHAR
STARTCHAR 0065
ENCODING 101
SWIDTH 576 0
DWIDTH 8 0
BBX 6 7 1 0
BITMAP
78
44
84
FC
80
C4
7C
ENDCHAR
STARTCHAR 0066
ENCODING 102
SWIDTH 576 0
DWIDTH 8 0
BBX 7 10 1 0
BITMAP
1C
32
20
20
FC
20
20
20
20
FC
ENDCHAR
STARTCHAR 0067
ENCODING 103
SWIDTH 576 0
DWIDTH 8 0
BBX 7 10 1 -3
BITMAP
76
CC
84
84
84
CC
74
04
8C
F8
ENDCHAR
STARTCHAR 0068
ENCODING 104
SWIDTH 576 0
DWIDTH 8 0
BBX 7 10 1 0
BITMAP
C0
40
40
58
64
44
44
44
44
EE
ENDCHAR
STARTCHAR 0069
ENCODING 105
SWIDTH 576 0
DWIDTH 8 0
BBX 7 10 1 0
BITMAP
10
10
00
70
10
10
10
10
10
FE
ENDCHAR
STARTCHAR 006A
ENCODING 106
SWIDTH 576 0
DWIDTH 8 0
BBX 5 13 1 -3
BITMAP
08
08
00
78
08
08
08
08
08
08
08
C8
70
ENDCHAR
STARTCHAR 006B
ENCODING 107
SWIDTH 576 0
DWIDTH 8 0
BBX 8 10 0 0
BITMAP
E0
20
20
2F
24
28
38
24
26
77
ENDCHAR
STARTCHAR 006C
ENCODING 108
SWIDTH 576 0
DWIDTH 8 0
BBX 6 10 1 0
BITMAP
F0
10
10
10
10
10
10
10
10
FC
ENDCHAR
STARTCHAR 006D
ENCODING 109
SWIDTH 576 0
DWIDTH 8 0
BBX 9 7 0 0
BITMAP
F600
6900
4900
4900
4900
4900
ED80
ENDCHAR
STARTCHAR 006E
ENCODING 110
SWIDTH 576 0
DWIDTH 8 0
BBX 7 7 1 0
BITMAP
D8
64
44
44
44
44
EE
ENDCHAR
STARTCHAR 006F
ENCODING 111
SWIDTH 576 0
DWIDTH 8 0
BBX 7 7 1 0
BITMAP
78
C4
84
86
84
C4
78
ENDCHAR
STARTCHAR 0070
ENCODING 112
SWIDTH 576 0
DWIDTH 8 0
BBX 8 10 0 -3
BITMAP
DC
62
62
43
62
62
5C
40
40
F0
ENDCHAR
STARTCHAR 0071
ENCODING 113
SWIDTH 576 0
DWIDTH 8 0
BBX 7 10 1 -3
BITMAP
76
CC
84
84
84
CC
74
04
04
1E
ENDCHAR
STARTCHAR 0072
ENCODING 114
SWIDTH 576 0
DWIDTH 8 0
BBX 7 7 1 0
BITMAP
CE
50
20
20
20
20
F8
ENDCHAR
STARTCHAR 0073
ENCODING 115
SWIDTH 576 0
DWIDTH 8 0
BBX 6 7 1 0
BITMAP
74
CC
C0
7C
84
C4
B8
ENDCHAR
STARTCHAR 0074
ENCODING 116
SWIDTH 576 0
DWIDTH 8 0
BBX 7 9 1 0
BITMAP
20
20
20
FC
20
20
20
26
3C
ENDCHAR
STARTCHAR 0075
ENCODING 117
SWIDTH 576 0
DWIDTH 8 0
BBX 8 7 0 0
BITMAP
EE
62
62
62
62
26
3B
ENDCHAR
STARTCHAR 0076
ENCODING 118
SWIDTH 576 0
DWIDTH 8 0
BBX 8 7 0 0
BITMAP
F7
42
22
24
14
18
18
ENDCHAR
STARTCHAR 0077
ENCODING 119
SWIDTH 576 0
DWIDTH 8 0
BBX 8 7 0 0
BITMAP
E3
41
59
5A
56
26
26
ENDCHAR
STARTCHAR 0078
ENCODING 120
SWIDTH 576 0
DWIDTH 8 0
BBX 8 7 0 0
BITMAP
77
26
14
18
14
26
E7
ENDCHAR
STARTCHAR 0079
ENCODING 121
SWIDTH 576 0
DWIDTH 8 0
BBX 8 10 0 -3
BITMAP
F7
42
26
24
14
18
08
10
30
60
ENDCHAR
STARTCHAR 007A
ENCODING 122
SWIDTH 576 0
DWIDTH 8 0
BBX 6 7 1 0
BITMAP
FC
88
98
30
24
44
FC
ENDCHAR
STARTCHAR 007B
ENCODING 123
SWIDTH 576 0
DWIDTH 8 0
BBX 6 12 1 -2
BITMAP
1C
10
30
20
30
20
C0
20
10
20
10
1C
ENDCHAR
STARTCHAR 007C
ENCODING 124
SWIDTH 576 0
DWIDTH 8 0
BBX 1 13 4 -3
BITMAP
80
80
80
80
80
80
80
80
80
80
80
80
80
ENDCHAR
STARTCHAR 007D
ENCODING 125
SWIDTH 576 0
DWIDTH 8 0
BBX 5 12 2 -2
BITMAP
C0
60
20
20
20
20
18
20
20
20
20
C0
ENDCHAR
STARTCHAR 007E
ENCODING 126
SWIDTH 576 0
DWIDTH 8 0
BBX 6 2 1 3
BITMAP
64
9C
ENDCHAR
STARTCHAR 00A0
ENCODING 160
SWIDTH 576 0
DWIDTH 8 0
BBX 0 0 0 0
BITMAP
ENDCHAR
STARTCHAR 00A1
ENCODING 161
SWIDTH 576 0
DWIDTH 8 0
BBX 2 10 3 -3
BITMAP
C0
C0
00
00
40
40
40
40
40
C0
ENDCHAR
STARTCHAR 00A2
ENCODING 162
SWIDTH 576 0
DWIDTH 8 0
BBX 6 11 1 -1
BITMAP
10
10
7C
D4
94
90
90
D4
7C
10
10
ENDCHAR
STARTCHAR 00A3
ENCODING 163
SWIDTH 576 0
DWIDTH 8 0
BBX 6 9 1 0
BITMAP
38
44
40
40
F8
20
20
40
FC
ENDCHAR
STARTCHAR 00A4
ENCODING 164
SWIDTH 576 0
DWIDTH 8 0
BBX 7 7 1 1
BITMAP
BE
4C
84
84
4C
FC
82
ENDCHAR
STARTCHAR 00A5
ENCODING 165
SWIDTH 576 0
DWIDTH 8 0
BBX 8 9 0 0
BITMAP
F7
22
24
76
18
7E
08
08
3E
ENDCHAR
STARTCHAR 00A6
ENCODING 166
SWIDTH 576 0
DWIDTH 8 0
BBX 1 13 4 -3
BITMAP
80
80
80
80
80
00
00
00
80
80
80
80
80
ENDCHAR
STARTCHAR 00A7
ENCODING 167
SWIDTH 576 0
DWIDTH 8 0
BBX 6 10 1 -1
BITMAP
3C
44
40
F0
98
64
34
08
48
78
ENDCHAR
STARTCHAR 00A8
ENCODING 168
SWIDTH 576 0
DWIDTH 8 0
BBX 4 2 2 8
BITMAP
90
90
ENDCHAR
STARTCHAR 00A9
ENCODING 169
SWIDTH 576 0
DWIDTH 8 0
BBX 8 9 0 0
BITMAP
3C
62
5D
A1
A1
A1
5D
42
3C
ENDCHAR
STARTCHAR 00AA
ENCODING 170
SWIDTH 576 0
DWIDTH 8 0
BBX 5 5 2 3
BITMAP
F0
10
F0
90
E8
ENDCHAR
STARTCHAR 00AB
ENCODING 171
SWIDTH 576 0
DWIDTH 8 0
BBX 6 6 1 1
BITMAP
24
4C
C8
D8
4C
24
ENDCHAR
STARTCHAR 00AC
ENCODING 172
SWIDTH 576 0
DWIDTH 8 0
BBX 6 4 1 2
BITMAP
FC
04
04
04
ENDCHAR
STARTCHAR 00AD
ENCODING 173
SWIDTH 576 0
DWIDTH 8 0
BBX 6 1 1 3
BITMAP
FC
ENDCHAR
STARTCHAR 00AE
ENCODING 174
SWIDTH 576 0
DWIDTH 8 0
BBX 7 8 1 2
BITMAP
38
44
B4
AA
B2
BC
44
78
ENDCHAR
STARTCHAR 00AF
ENCODING 175
SWIDTH 576 0
DWIDTH 8 0
BBX 4 1 2 8
BITMAP
F0
ENDCHAR
STARTCHAR 00B0
ENCODING 176
SWIDTH 576 0
DWIDTH 8 0
BBX 4 4 2 5
BITMAP
E0
A0
B0
E0
ENDCHAR
STARTCHAR 00B1
ENCODING 177
SWIDTH 576 0
DWIDTH 8 0
BBX 6 7 1 1
BITMAP
10
10
FC
10
10
10
FC
ENDCHAR
STARTCHAR 00B2
ENCODING 178
SWIDTH 576 0
DWIDTH 8 0
BBX 5 6 2 3
BITMAP
F0
90
10
20
48
F8
ENDCHAR
STARTCHAR 00B3
ENCODING 179
SWIDTH 576 0
DWIDTH 8 0
BBX 4 6 2 3
BITMAP
F0
90
70
10
10
F0
ENDCHAR
STARTCHAR 00B4
ENCODING 180
SWIDTH 576 0
DWIDTH 8 0
BBX 3 3 3 8
BITMAP
20
60
80
ENDCHAR
STARTCHAR 00B5
ENCODING 181
SWIDTH 576 0
DWIDTH 8 0
BBX 6 10 1 -3
BITMAP
C4
C4
C4
C4
C4
CC
F4
C0
C0
C0
ENDCHAR
STARTCHAR 00B6
ENCODING 182
SWIDTH 576 0
DWIDTH 8 0
BBX 7 12 1 -3
BITMAP
7E
F4
F4
F4
74
14
14
14
14
14
14
14
ENDCHAR
STARTCHAR 00B7
ENCODING 183
SWIDTH 576 0
DWIDTH 8 0
BBX 2 2 3 3
BITMAP
C0
C0
ENDCHAR
STARTCHAR 00B8
ENCODING 184
SWIDTH 576 0
DWIDTH 8 0
BBX 4 4 2 -4
BITMAP
20
30
10
F0
ENDCHAR
STARTCHAR 00B9
ENCODING 185
SWIDTH 576 0
DWIDTH 8 0
BBX 4 6 2 3
BITMAP
60
A0
20
20
20
F0
ENDCHAR
STARTCHAR 00BA
ENCODING 186
SWIDTH 576 0
DWIDTH 8 0
BBX 5 5 2 3
BITMAP
70
98
88
88
70
ENDCHAR
STARTCHAR 00BB
ENCODING 187
SWIDTH 576 0
DWIDTH 8 0
BBX 6 6 1 1
BITMAP
90
48
64
64
48
90
ENDCHAR
STARTCHAR 00BC
ENCODING 188
SWIDTH 576 0
DWIDTH 8 0
BBX 8 12 0 -2
BITMAP
40
C0
40
40
F3
04
08
33
43
05
0F
01
ENDCHAR
STARTCHAR 00BD
ENCODING 189
SWIDTH 576 0
DWIDTH 8 0
BBX 8 12 0 -2
BITMAP
40
C0
40
40
F3
04
18
27
45
01
03
07
ENDCHAR
STARTCHAR 00BE
ENCODING 190
SWIDTH 576 0
DWIDTH 8 0
BBX 8 12 0 -2
BITMAP
E0
90
60
10
E3
04
18
23
43
05
0F
01
ENDCHAR
STARTCHAR 00BF
ENCODING 191
SWIDTH 576 0
DWIDTH 8 0
BBX 5 10 2 -3
BITMAP
20
20
00
20
20
60
80
88
88
70
ENDCHAR
STARTCHAR 00C0
ENCODING 192
SWIDTH 576 0
DWIDTH 8 0
BBX 8 13 0 0
BITMAP
20
10
08
00
78
18
14
24
24
3E
42
42
E7
ENDCHAR
STARTCHAR 00C1
ENCODING 193
SWIDTH 576 0
DWIDTH 8 0
BBX 8 13 0 0
BITMAP
0C
18
30
00
78
18
14
24
24
3E
42
42
E7
ENDCHAR
STARTCHAR 00C2
ENCODING 194
SWIDTH 576 0
DWIDTH 8 0
BBX 8 13 0 0
BITMAP
08
18
24
00
78
18
14
24
24
3E
42
42
E7
ENDCHAR
STARTCHAR 00C3
ENCODING 195
SWIDTH 576 0
DWIDTH 8 0
BBX 8 12 0 0
BITMAP
34
2C
00
78
18
14
24
24
3E
42
42
E7
ENDCHAR
STARTCHAR 00C4
ENCODING 196
SWIDTH 576 0
DWIDTH 8 0
BBX 8 12 0 0
BITMAP
24
24
00
78
18
14
24
24
3E
42
42
E7
ENDCHAR
STARTCHAR 00C5
ENCODING 197
SWIDTH 576 0
DWIDTH 8 0
BBX 8 14 0 0
BITMAP
18
24
24
18
00
78
18
14
24
24
3E
42
42
E7
ENDCHAR
STARTCHAR 00C6
ENCODING 198
SWIDTH 576 0
DWIDTH 8 0
BBX 8 9 0 0
BITMAP
3F
19
29
28
2E
78
49
49
EF
ENDCHAR
STARTCHAR 00C7
ENCODING 199
SWIDTH 576 0
DWIDTH 8 0
BBX 6 12 1 -3
BITMAP
3C
44
84
80
80
80
C4
7C
10
18
08
38
ENDCHAR
STARTCHAR 00C8
ENCODING 200
SWIDTH 576 0
DWIDTH 8 0
BBX 7 13 1 0
BITMAP
60
30
18
00
FC
44
44
50
70
50
46
46
FE
ENDCHAR
STARTCHAR 00C9
ENCODING 201
SWIDTH 576 0
DWIDTH 8 0
BBX 7 13 1 0
BITMAP
08
30
20
00
FC
44
44
50
70
50
46
46
FE
ENDCHAR
STARTCHAR 00CA
ENCODING 202
SWIDTH 576 0
DWIDTH 8 0
BBX 7 13 1 0
BITMAP
10
38
4C
00
FC
44
44
50
70
50
46
46
FE
ENDCHAR
STARTCHAR 00CB
ENCODING 203
SWIDTH 576 0
DWIDTH 8 0
BBX 7 12 1 0
BITMAP
68
68
00
FC
44
44
50
70
50
46
46
FE
ENDCHAR
STARTCHAR 00CC
ENCODING 204
SWIDTH 576 0
DWIDTH 8 0
BBX 6 13 1 0
BITMAP
60
30
18
00
FC
10
10
10
10
10
10
10
FC
ENDCHAR
STARTCHAR 00CD
ENCODING 205
SWIDTH 576 0
DWIDTH 8 0
BBX 6 13 1 0
BITMAP
08
18
20
00
FC
10
10
10
10
10
10
10
FC
ENDCHAR
STARTCHAR 00CE
ENCODING 206
SWIDTH 576 0
DWIDTH 8 0
BBX 6 13 1 0
BITMAP
10
30
48
00
FC
10
10
10
10
10
10
10
FC
ENDCHAR
STARTCHAR 00CF
ENCODING 207
SWIDTH 576 0
DWIDTH 8 0
BBX 6 12 1 0
BITMAP
48
48
00
FC
10
10
10
10
10
10
10
FC
ENDCHAR
STARTCHAR 00D0
ENCODING 208
SWIDTH 576 0
DWIDTH 8 0
BBX 8 9 0 0
BITMAP
7C
26
22
21
F9
21
23
26
7C
ENDCHAR
STARTCHAR 00D1
ENCODING 209
SWIDTH 576 0
DWIDTH 8 0
BBX 8 12 0 0
BITMAP
32
2C
00
E7
62
52
52
4A
4E
46
46
72
ENDCHAR
STARTCHAR 00D2
ENCODING 210
SWIDTH 576 0
DWIDTH 8 0
BBX 7 13 1 0
BITMAP
60
30
18
00
78
C4
84
82
82
82
84
C4
78
ENDCHAR
STARTCHAR 00D3
ENCODING 211
SWIDTH 576 0
DWIDTH 8 0
BBX 7 13 1 0
BITMAP
08
10
20
00
78
C4
84
82
82
82
84
C4
78
ENDCHAR
STARTCHAR 00D4
ENCODING 212
SWIDTH 576 0
DWIDTH 8 0
BBX 7 13 1 0
BITMAP
10
30
48
00
78
C4
84
82
82
82
84
C4
78
ENDCHAR
STARTCHAR 00D5
ENCODING 213
SWIDTH 576 0
DWIDTH 8 0
BBX 7 12 1 0
BITMAP
64
58
00
78
C4
84
82
82
82
84
C4
78
ENDCHAR
STARTCHAR 00D6
ENCODING 214
SWIDTH 576 0
DWIDTH 8 0
BBX 7 12 1 0
BITMAP
48
48
00
78
C4
84
82
82
82
84
C4
78
ENDCHAR
STARTCHAR 00D7
ENCODING 215
SWIDTH 576 0
DWIDTH 8 0
BBX 5 6 2 1
BITMAP
88
D0
60
60
D0
88
ENDCHAR
STARTCHAR 00D8
ENCODING 216
SWIDTH 576 0
DWIDTH 8 0
BBX 7 10 1 0
BITMAP
02
7C
CC
8C
92
92
A2
C4
C4
F8
ENDCHAR
STARTCHAR 00D9
ENCODING 217
SWIDTH 576 0
DWIDTH 8 0
BBX 8 13 0 0
BITMAP
30
18
0C
00
F7
42
42
42
42
42
42
26
3C
ENDCHAR
STARTCHAR 00DA
ENCODING 218
SWIDTH 576 0
DWIDTH 8 0
BBX 8 13 0 0
BITMAP
04
0C
10
00
F7
42
42
42
42
42
42
26
3C
ENDCHAR
STARTCHAR 00DB
ENCODING 219
SWIDTH 576 0
DWIDTH 8 0
BBX 8 13 0 0
BITMAP
08
18
24
00
F7
42
42
42
42
42
42
26
3C
ENDCHAR
STARTCHAR 00DC
ENCODING 220
SWIDTH 576 0
DWIDTH 8 0
BBX 8 12 0 0
BITMAP
24
24
00
F7
42
42
42
42
42
42
26
3C
ENDCHAR
STARTCHAR 00DD
ENCODING 221
SWIDTH 576 0
DWIDTH 8 0
BBX 8 13 0 0
BITMAP
04
0C
10
00
F7
22
24
14
18
08
08
08
3E
ENDCHAR
STARTCHAR 00DE
ENCODING 222
SWIDTH 576 0
DWIDTH 8 0
BBX 6 9 1 0
BITMAP
F0
40
78
44
44
44
7C
40
F0
ENDCHAR
STARTCHAR 00DF
ENCODING 223
SWIDTH 576 0
DWIDTH 8 0
BBX 7 10 0 0
BITMAP
1C
26
22
22
2C
26
22
22
22
EC
ENDCHAR
STARTCHAR 00E0
ENCODING 224
SWIDTH 576 0
DWIDTH 8 0
BBX 7 11 1 0
BITMAP
20
30
08
00
78
CC
04
7C
84
8C
76
ENDCHAR
STARTCHAR 00E1
ENCODING 225
SWIDTH 576 0
DWIDTH 8 0
BBX 7 11 1 0
BITMAP
18
30
60
00
78
CC
04
7C
84
8C
76
ENDCHAR
STARTCHAR 00E2
ENCODING 226
SWIDTH 576 0
DWIDTH 8 0
BBX 7 11 1 0
BITMAP
10
30
48
00
78
CC
04
7C
84
8C
76
ENDCHAR
STARTCHAR 00E3
ENCODING 227
SWIDTH 576 0
DWIDTH 8 0
BBX 7 10 1 0
BITMAP
64
58
00
78
CC
04
7C
84
8C
76
ENDCHAR
STARTCHAR 00E4
ENCODING 228
SWIDTH 576 0
DWIDTH 8 0
BBX 7 10 1 0
BITMAP
48
48
00
78
CC
04
7C
84
8C
76
ENDCHAR
STARTCHAR 00E5
ENCODING 229
SWIDTH 576 0
DWIDTH 8 0
BBX 7 12 1 0
BITMAP
30
28
28
30
00
78
CC
04
7C
84
8C
76
ENDCHAR
STARTCHAR 00E6
ENCODING 230
SWIDTH 576 0
DWIDTH 8 0
BBX 7 7 1 0
BITMAP
EC
12
7E
90
90
B2
EC
ENDCHAR
STARTCHAR 00E7
ENCODING 231
SWIDTH 576 0
DWIDTH 8 0
BBX 6 10 1 -3
BITMAP
7C
C4
84
80
80
C4
7C
10
18
78
ENDCHAR
STARTCHAR 00E8
ENCODING 232
SWIDTH 576 0
DWIDTH 8 0
BBX 6 11 1 0
BITMAP
20
30
08
00
78
44
84
FC
80
C4
7C
ENDCHAR
STARTCHAR 00E9
ENCODING 233
SWIDTH 576 0
DWIDTH 8 0
BBX 6 11 1 0
BITMAP
08
10
20
00
78
44
84
FC
80
C4
7C
ENDCHAR
STARTCHAR 00EA
ENCODING 234
SWIDTH 576 0
DWIDTH 8 0
BBX 6 11 1 0
BITMAP
10
38
4C
00
78
44
84
FC
80
C4
7C
ENDCHAR
STARTCHAR 00EB
ENCODING 235
SWIDTH 576 0
DWIDTH 8 0
BBX 6 10 1 0
BITMAP
48
48
00
78
44
84
FC
80
C4
7C
ENDCHAR
STARTCHAR 00EC
ENCODING 236
SWIDTH 576 0
DWIDTH 8 0
BBX 7 11 1 0
BITMAP
40
20
10
00
70
10
10
10
10
10
FE
ENDCHAR
STARTCHAR 00ED
ENCODING 237
SWIDTH 576 0
DWIDTH 8 0
BBX 7 11 1 0
BITMAP
18
30
60
00
70
10
10
10
10
10
FE
ENDCHAR
STARTCHAR 00EE
ENCODING 238
SWIDTH 576 0
DWIDTH 8 0
BBX 7 11 1 0
BITMAP
10
30
48
00
70
10
10
10
10
10
FE
ENDCHAR
STARTCHAR 00EF
ENCODING 239
SWIDTH 576 0
DWIDTH 8 0
BBX 7 10 1 0
BITMAP
48
48
00
70
10
10
10
10
10
FE
ENDCHAR
STARTCHAR 00F0
ENCODING 240
SWIDTH 576 0
DWIDTH 8 0
BBX 6 10 1 0
BITMAP
6C
30
48
7C
CC
84
84
84
CC
78
ENDCHAR
STARTCHAR 00F1
ENCODING 241
SWIDTH 576 0
DWIDTH 8 0
BBX 7 10 1 0
BITMAP
64
58
00
D8
64
44
44
44
44
EE
ENDCHAR
STARTCHAR 00F2
ENCODING 242
SWIDTH 576 0
DWIDTH 8 0
BBX 7 11 1 0
BITMAP
60
30
18
00
78
C4
84
86
84
C4
78
ENDCHAR
STARTCHAR 00F3
ENCODING 243
SWIDTH 576 0
DWIDTH 8 0
BBX 7 11 1 0
BITMAP
08
10
20
00
78
C4
84
86
84
C4
78
ENDCHAR
STARTCHAR 00F4
ENCODING 244
SWIDTH 576 0
DWIDTH 8 0
BBX 7 11 1 0
BITMAP
10
30
48
00
78
C4
84
86
84
C4
78
ENDCHAR
STARTCHAR 00F5
ENCODING 245
SWIDTH 576 0
DWIDTH 8 0
BBX 7 10 1 0
BITMAP
64
58
00
78
C4
84
86
84
C4
78
ENDCHAR
STARTCHAR 00F6
ENCODING 246
SWIDTH 576 0
DWIDTH 8 0
BBX 7 10 1 0
BITMAP
48
48
00
78
C4
84
86
84
C4
78
ENDCHAR
STARTCHAR 00F7
ENCODING 247
SWIDTH 576 0
DWIDTH 8 0
BBX 6 7 1 1
BITMAP
30
10
00
FC
00
10
30
ENDCHAR
STARTCHAR 00F8
ENCODING 248
SWIDTH 576 0
DWIDTH 8 0
BBX 7 7 1 0
BITMAP
7A
CC
8C
96
A4
C4
F8
ENDCHAR
STARTCHAR 00F9
ENCODING 249
SWIDTH 576 0
DWIDTH 8 0
BBX 8 11 0 0
BITMAP
30
18
0C
00
EE
62
62
62
62
26
3B
ENDCHAR
STARTCHAR 00FA
ENCODING 250
SWIDTH 576 0
DWIDTH 8 0
BBX 8 11 0 0
BITMAP
04
0C
10
00
EE
62
62
62
62
26
3B
ENDCHAR
STARTCHAR 00FB
ENCODING 251
SWIDTH 576 0
DWIDTH 8 0
BBX 8 11 0 0
BITMAP
08
18
24
00
EE
62
62
62
62
26
3B
ENDCHAR
STARTCHAR 00FC
ENCODING 252
SWIDTH 576 0
DWIDTH 8 0
BBX 8 10 0 0
BITMAP
24
24
00
EE
62
62
62
62
26
3B
ENDCHAR
STARTCHAR 00FD
ENCODING 253
SWIDTH 576 0
DWIDTH 8 0
BBX 8 14 0 -3
BITMAP
04
0C
10
00
F7
42
26
24
14
18
08
10
30
60
ENDCHAR
STARTCHAR 00FE
ENCODING 254
SWIDTH 576 0
DWIDTH 8 0
BBX 8 13 0 -3
BITMAP
C0
40
40
5C
62
62
43
62
62
5C
40
40
F0
ENDCHAR
STARTCHAR 00FF
ENCODING 255
SWIDTH 576 0
DWIDTH 8 0
BBX 8 13 0 -3
BITMAP
24
24
00
F7
42
26
24
14
18
08
10
30
60
ENDCHAR
STARTCHAR 0100
ENCODING 256
SWIDTH 576 0
DWIDTH 8 0
BBX 8 11 0 0
BITMAP
3C
00
78
18
14
24
24
3E
42
42
E7
ENDCHAR
STARTCHAR 0101
ENCODING 257
SWIDTH 576 0
DWIDTH 8 0
BBX 7 9 1 0
BITMAP
78
00
78
CC
04
7C
84
8C
76
ENDCHAR
STARTCHAR 0102
ENCODING 258
SWIDTH 576 0
DWIDTH 8 0
BBX 8 12 0 0
BITMAP
24
3C
00
78
18
14
24
24
3E
42
42
E7
ENDCHAR
STARTCHAR 0103
ENCODING 259
SWIDTH 576 0
DWIDTH 8 0
BBX 7 10 1 0
BITMAP
48
78
00
78
CC
04
7C
84
8C
76
ENDCHAR
STARTCHAR 0104
ENCODING 260
SWIDTH 576 0
DWIDTH 8 0
BBX 8 12 0 -3
BITMAP
78
18
14
24
24
3E
42
42
E7
02
04
07
ENDCHAR
STARTCHAR 0105
ENCODING 261
SWIDTH 576 0
DWIDTH 8 0
BBX 7 10 1 -3
BITMAP
78
CC
04
7C
84
8C
76
04
08
0E
ENDCHAR
STARTCHAR 0106
ENCODING 262
SWIDTH 576 0
DWIDTH 8 0
BBX 6 13 1 0
BITMAP
08
18
20
00
3C
44
84
80
80
80
80
44
38
ENDCHAR
STARTCHAR 0107
ENCODING 263
SWIDTH 576 0
DWIDTH 8 0
BBX 6 11 1 0
BITMAP
08
18
20
00
7C
C4
84
80
80
C4
78
ENDCHAR
STARTCHAR 0108
ENCODING 264
SWIDTH 576 0
DWIDTH 8 0
BBX 6 13 1 0
BITMAP
10
38
4C
00
3C
44
84
80
80
80
80
44
38
ENDCHAR
STARTCHAR 0109
ENCODING 265
SWIDTH 576 0
DWIDTH 8 0
BBX 6 11 1 0
BITMAP
10
38
48
00
7C
C4
84
80
80
C4
78
ENDCHAR
STARTCHAR 010A
ENCODING 266
SWIDTH 576 0
DWIDTH 8 0
BBX 6 12 1 0
BITMAP
10
10
00
3C
44
84
80
80
80
80
44
38
ENDCHAR
STARTCHAR 010B
ENCODING 267
SWIDTH 576 0
DWIDTH 8 0
BBX 6 10 1 0
BITMAP
10
10
00
7C
C4
84
80
80
C4
78
ENDCHAR
STARTCHAR 010C
ENCODING 268
SWIDTH 576 0
DWIDTH 8 0
BBX 6 13 1 0
BITMAP
44
28
10
00
3C
44
84
80
80
80
80
44
38
ENDCHAR
STARTCHAR 010D
ENCODING 269
SWIDTH 576 0
DWIDTH 8 0
BBX 6 11 1 0
BITMAP
48
68
30
00
7C
C4
84
80
80
C4
78
ENDCHAR
STARTCHAR 010E
ENCODING 270
SWIDTH 576 0
DWIDTH 8 0
BBX 7 13 1 0
BITMAP
48
78
30
00
F8
4C
44
42
42
42
46
4C
F8
ENDCHAR
STARTCHAR 010F
ENCODING 271
SWIDTH 576 0
DWIDTH 8 0
BBX 8 10 1 0
BITMAP
19
09
0A
78
C8
88
88
88
C8
7C
ENDCHAR
STARTCHAR 0110
ENCODING 272
SWIDTH 576 0
DWIDTH 8 0
BBX 7 9 1 0
BITMAP
F8
4C
44
42
F2
42
46
4C
F8
ENDCHAR
STARTCHAR 0111
ENCODING 273
SWIDTH 576 0
DWIDTH 8 0
BBX 7 10 1 0
BITMAP
1C
04
3E
74
CC
84
84
84
CC
76
ENDCHAR
STARTCHAR 0112
ENCODING 274
SWIDTH 576 0
DWIDTH 8 0
BBX 7 11 1 0
BITMAP
7C
00
FC
44
44
50
70
50
46
46
FE
ENDCHAR
STARTCHAR 0113
ENCODING 275
SWIDTH 576 0
DWIDTH 8 0
BBX 6 9 1 0
BITMAP
7C
00
78
44
84
FC
80
C4
7C
ENDCHAR
STARTCHAR 0114
ENCODING 276
SWIDTH 576 0
DWIDTH 8 0
BBX 7 12 1 0
BITMAP
48
78
00
FC
44
44
50
70
50
46
46
FE
ENDCHAR
STARTCHAR 0115
ENCODING 277
SWIDTH 576 0
DWIDTH 8 0
BBX 6 10 1 0
BITMAP
44
38
00
78
44
84
FC
80
C4
7C
ENDCHAR
STARTCHAR 0116
ENCODING 278
SWIDTH 576 0
DWIDTH 8 0
BBX 7 12 1 0
BITMAP
10
10
00
FC
44
44
50
70
50
46
46
FE
ENDCHAR
STARTCHAR 0117
ENCODING 279
SWIDTH 576 0
DWIDTH 8 0
BBX 6 10 1 0
BITMAP
10
10
00
78
44
84
FC
80
C4
7C
ENDCHAR
STARTCHAR 0118
ENCODING 280
SWIDTH 576 0
DWIDTH 8 0
BBX 7 12 1 -3
BITMAP
FC
44
44
50
70
50
46
46
FE
08
08
0C
ENDCHAR
STARTCHAR 0119
ENCODING 281
SWIDTH 576 0
DWIDTH 8 0
BBX 6 10 1 -3
BITMAP
78
44
84
FC
80
C4
7C
08
10
1C
ENDCHAR
STARTCHAR 011A
ENCODING 282
SWIDTH 576 0
DWIDTH 8 0
BBX 7 13 1 0
BITMAP
48
68
30
00
FC
44
44
50
70
50
46
46
FE
ENDCHAR
STARTCHAR 011B
ENCODING 283
SWIDTH 576 0
DWIDTH 8 0
BBX 6 11 1 0
BITMAP
44
28
10
00
78
44
84
FC
80
C4
7C
ENDCHAR
STARTCHAR 011C
ENCODING 284
SWIDTH 576 0
DWIDTH 8 0
BBX 7 13 1 0
BITMAP
10
38
4C
00
3C
C4
84
80
80
9E
84
C4
7C
ENDCHAR
STARTCHAR 011D
ENCODING 285
SWIDTH 576 0
DWIDTH 8 0
BBX 7 14 1 -3
BITMAP
10
30
48
00
76
CC
84
84
84
CC
74
04
8C
F8
ENDCHAR
STARTCHAR 011E
ENCODING 286
SWIDTH 576 0
DWIDTH 8 0
BBX 7 12 1 0
BITMAP
44
38
00
3C
C4
84
80
80
9E
84
C4
7C
ENDCHAR
STARTCHAR 011F
ENCODING 287
SWIDTH 576 0
DWIDTH 8 0
BBX 7 13 1 -3
BITMAP
48
78
00
76
CC
84
84
84
CC
74
04
8C
F8
ENDCHAR
STARTCHAR 0120
ENCODING 288
SWIDTH 576 0
DWIDTH 8 0
BBX 7 12 1 0
BITMAP
10
10
00
3C
C4
84
80
80
9E
84
C4
7C
ENDCHAR
STARTCHAR 0121
ENCODING 289
SWIDTH 576 0
DWIDTH 8 0
BBX 7 13 1 -3
BITMAP
10
10
00
76
CC
84
84
84
CC
74
04
8C
F8
ENDCHAR
STARTCHAR 0122
ENCODING 290
SWIDTH 576 0
DWIDTH 8 0
BBX 7 13 1 -4
BITMAP
3C
C4
84
80
80
9E
84
C4
7C
00
10
10
20
ENDCHAR
STARTCHAR 0123
ENCODING 291
SWIDTH 576 0
DWIDTH 8 0
BBX 7 14 1 -3
BITMAP
10
10
10
00
76
CC
84
84
84
CC
74
04
8C
F8
ENDCHAR
STARTCHAR 0124
ENCODING 292
SWIDTH 576 0
DWIDTH 8 0
BBX 7 13 1 0
BITMAP
10
30
48
00
EE
C4
C4
C4
FC
C4
C4
C4
EE
ENDCHAR
STARTCHAR 0125
ENCODING 293
SWIDTH 576 0
DWIDTH 8 0
BBX 7 14 1 0
BITMAP
10
30
48
00
C0
40
40
58
64
44
44
44
44
EE
ENDCHAR
STARTCHAR 0126
ENCODING 294
SWIDTH 576 0
DWIDTH 8 0
BBX 8 9 0 0
BITMAP
77
62
FF
62
7E
62
62
62
77
ENDCHAR
STARTCHAR 0127
ENCODING 295
SWIDTH 576 0
DWIDTH 8 0
BBX 8 10 0 0
BITMAP
60
20
F8
3C
32
22
22
22
22
77
ENDCHAR
STARTCHAR 0128
ENCODING 296
SWIDTH 576 0
DWIDTH 8 0
BBX 6 12 1 0
BITMAP
64
58
00
FC
10
10
10
10
10
10
10
FC
ENDCHAR
STARTCHAR 0129
ENCODING 297
SWIDTH 576 0
DWIDTH 8 0
BBX 7 10 1 0
BITMAP
68
58
00
70
10
10
10
10
10
FE
ENDCHAR
STARTCHAR 012A
ENCODING 298
SWIDTH 576 0
DWIDTH 8 0
BBX 6 11 1 0
BITMAP
78
00
FC
10
10
10
10
10
10
10
FC
ENDCHAR
STARTCHAR 012B
ENCODING 299
SWIDTH 576 0
DWIDTH 8 0
BBX 7 9 1 0
BITMAP
78
00
70
10
10
10
10
10
FE
ENDCHAR
STARTCHAR 012C
ENCODING 300
SWIDTH 576 0
DWIDTH 8 0
BBX 6 12 1 0
BITMAP
48
78
00
FC
10
10
10
10
10
10
10
FC
ENDCHAR
STARTCHAR 012D
ENCODING 301
SWIDTH 576 0
DWIDTH 8 0
BBX 7 10 1 0
BITMAP
48
78
00
70
10
10
10
10
10
FE
ENDCHAR
STARTCHAR 012E
ENCODING 302
SWIDTH 576 0
DWIDTH 8 0
BBX 6 12 1 -3
BITMAP
FC
10
10
10
10
10
10
10
FC
20
20
30
ENDCHAR
STARTCHAR 012F
ENCODING 303
SWIDTH 576 0
DWIDTH 8 0
BBX 7 13 1 -3
BITMAP
10
10
00
70
10
10
10
10
10
FE
20
20
30
ENDCHAR
STARTCHAR 0130
ENCODING 304
SWIDTH 576 0
DWIDTH 8 0
BBX 6 12 1 0
BITMAP
10
10
00
FC
10
10
10
10
10
10
10
FC
ENDCHAR
STARTCHAR 0131
ENCODING 305
SWIDTH 576 0
DWIDTH 8 0
BBX 7 7 1 0
BITMAP
70
10
10
10
10
10
FE
ENDCHAR
STARTCHAR 0132
ENCODING 306
SWIDTH 576 0
DWIDTH 8 0
BBX 8 9 0 0
BITMAP
E7
42
42
42
42
4A
4A
4A
EE
ENDCHAR
STARTCHAR 0133
ENCODING 307
SWIDTH 576 0
DWIDTH 8 0
BBX 7 13 0 -3
BITMAP
22
22
00
6E
22
22
22
22
22
FA
02
12
1E
ENDCHAR
STARTCHAR 0134
ENCODING 308
SWIDTH 576 0
DWIDTH 8 0
BBX 7 13 1 0
BITMAP
08
1C
24
00
7E
08
08
08
08
88
88
88
70
ENDCHAR
STARTCHAR 0135
ENCODING 309
SWIDTH 576 0
DWIDTH 8 0
BBX 6 14 1 -3
BITMAP
10
18
24
00
78
08
08
08
08
08
08
08
C8
70
ENDCHAR
STARTCHAR 0136
ENCODING 310
SWIDTH 576 0
DWIDTH 8 0
BBX 7 13 1 -4
BITMAP
EE
4C
58
50
78
48
4C
44
E6
00
10
10
20
ENDCHAR
STARTCHAR 0137
ENCODING 311
SWIDTH 576 0
DWIDTH 8 0
BBX 8 14 0 -4
BITMAP
E0
20
20
2F
24
28
38
24
26
77
00
18
10
10
ENDCHAR
STARTCHAR 0139
ENCODING 313
SWIDTH 576 0
DWIDTH 8 0
BBX 7 13 1 0
BITMAP
10
60
C0
00
F0
40
40
40
40
46
46
46
FE
ENDCHAR
STARTCHAR 013A
ENCODING 314
SWIDTH 576 0
DWIDTH 8 0
BBX 6 14 1 0
BITMAP
08
30
20
00
F0
10
10
10
10
10
10
10
10
FC
ENDCHAR
STARTCHAR 013B
ENCODING 315
SWIDTH 576 0
DWIDTH 8 0
BBX 7 13 1 -4
BITMAP
F0
40
40
40
40
46
46
46
FE
00
10
30
20
ENDCHAR
STARTCHAR 013C
ENCODING 316
SWIDTH 576 0
DWIDTH 8 0
BBX 6 14 1 -4
BITMAP
F0
10
10
10
10
10
10
10
10
FC
00
10
30
20
ENDCHAR
STARTCHAR 013D
ENCODING 317
SWIDTH 576 0
DWIDTH 8 0
BBX 7 9 1 0
BITMAP
F6
44
44
40
40
46
46
46
FE
ENDCHAR
STARTCHAR 013E
ENCODING 318
SWIDTH 576 0
DWIDTH 8 0
BBX 7 10 1 0
BITMAP
F6
14
14
10
10
10
10
10
10
FC
ENDCHAR
STARTCHAR 013F
ENCODING 319
SWIDTH 576 0
DWIDTH 8 0
BBX 7 9 1 0
BITMAP
F0
40
40
58
58
44
46
46
FE
ENDCHAR
STARTCHAR 0140
ENCODING 320
SWIDTH 576 0
DWIDTH 8 0
BBX 6 10 1 0
BITMAP
F0
10
10
14
14
10
10
10
10
FC
ENDCHAR
STARTCHAR 0141
ENCODING 321
SWIDTH 576 0
DWIDTH 8 0
BBX 8 9 0 0
BITMAP
78
20
28
38
30
E3
23
23
7F
ENDCHAR
STARTCHAR 0142
ENCODING 322
SWIDTH 576 0
DWIDTH 8 0
BBX 6 10 1 0
BITMAP
F0
10
10
1C
18
30
50
10
10
FC
ENDCHAR
STARTCHAR 0143
ENCODING 323
SWIDTH 576 0
DWIDTH 8 0
BBX 8 13 0 0
BITMAP
04
0C
10
00
E7
62
52
52
4A
4E
46
46
72
ENDCHAR
STARTCHAR 0144
ENCODING 324
SWIDTH 576 0
DWIDTH 8 0
BBX 7 11 1 0
BITMAP
08
18
20
00
D8
64
44
44
44
44
EE
ENDCHAR
STARTCHAR 0145
ENCODING 325
SWIDTH 576 0
DWIDTH 8 0
BBX 8 13 0 -4
BITMAP
E7
62
52
52
4A
4E
46
46
72
00
08
18
10
ENDCHAR
STARTCHAR 0146
ENCODING 326
SWIDTH 576 0
DWIDTH 8 0
BBX 7 11 1 -4
BITMAP
D8
64
44
44
44
44
EE
00
10
30
20
ENDCHAR
STARTCHAR 0147
ENCODING 327
SWIDTH 576 0
DWIDTH 8 0
BBX 8 13 0 0
BITMAP
24
34
18
00
E7
62
52
52
4A
4E
46
46
72
ENDCHAR
STARTCHAR 0148
ENCODING 328
SWIDTH 576 0
DWIDTH 8 0
BBX 7 11 1 0
BITMAP
48
68
30
00
D8
64
44
44
44
44
EE
ENDCHAR
STARTCHAR 014A
ENCODING 330
SWIDTH 576 0
DWIDTH 8 0
BBX 8 12 0 -3
BITMAP
E7
62
52
52
4A
4E
46
46
72
02
02
1E
ENDCHAR
STARTCHAR 014B
ENCODING 331
SWIDTH 576 0
DWIDTH 8 0
BBX 6 10 1 -3
BITMAP
D8
64
44
44
44
44
E4
04
04
3C
ENDCHAR
STARTCHAR 014C
ENCODING 332
SWIDTH 576 0
DWIDTH 8 0
BBX 7 11 1 0
BITMAP
78
00
78
C4
84
82
82
82
84
C4
78
ENDCHAR
STARTCHAR 014D
ENCODING 333
SWIDTH 576 0
DWIDTH 8 0
BBX 7 9 1 0
BITMAP
78
00
78
C4
84
86
84
C4
78
ENDCHAR
STARTCHAR 014E
ENCODING 334
SWIDTH 576 0
DWIDTH 8 0
BBX 7 12 1 0
BITMAP
48
78
00
78
C4
84
82
82
82
84
C4
78
ENDCHAR
STARTCHAR 014F
ENCODING 335
SWIDTH 576 0
DWIDTH 8 0
BBX 7 10 1 0
BITMAP
48
78
00
78
C4
84
86
84
C4
78
ENDCHAR
STARTCHAR 0150
ENCODING 336
SWIDTH 576 0
DWIDTH 8 0
BBX 7 13 1 0
BITMAP
14
36
48
00
78
C4
84
82
82
82
84
C4
78
ENDCHAR
STARTCHAR 0151
ENCODING 337
SWIDTH 576 0
DWIDTH 8 0
BBX 7 11 1 0
BITMAP
14
36
48
00
78
C4
84
86
84
C4
78
ENDCHAR
STARTCHAR 0152
ENCODING 338
SWIDTH 576 0
DWIDTH 8 0
BBX 8 9 0 0
BITMAP
3F
69
49
C8
CE
C8
49
69
3F
ENDCHAR
STARTCHAR 0153
ENCODING 339
SWIDTH 576 0
DWIDTH 8 0
BBX 8 7 0 0
BITMAP
76
59
4F
C8
48
59
76
ENDCHAR
STARTCHAR 0154
ENCODING 340
SWIDTH 576 0
DWIDTH 8 0
BBX 7 13 1 0
BITMAP
08
10
20
00
F8
44
44
44
78
48
48
44
E6
ENDCHAR
STARTCHAR 0155
ENCODING 341
SWIDTH 576 0
DWIDTH 8 0
BBX 7 11 1 0
BITMAP
0C
18
30
00
CE
50
20
20
20
20
F8
ENDCHAR
STARTCHAR 0156
ENCODING 342
SWIDTH 576 0
DWIDTH 8 0
BBX 7 13 1 -4
BITMAP
F8
44
44
44
78
48
48
44
E6
00
10
10
20
ENDCHAR
STARTCHAR 0157
ENCODING 343
SWIDTH 576 0
DWIDTH 8 0
BBX 7 11 1 -4
BITMAP
CE
50
20
20
20
20
F8
00
20
20
40
ENDCHAR
STARTCHAR 0158
ENCODING 344
SWIDTH 576 0
DWIDTH 8 0
BBX 7 13 1 0
BITMAP
48
78
30
00
F8
44
44
44
78
48
48
44
E6
ENDCHAR
STARTCHAR 0159
ENCODING 345
SWIDTH 576 0
DWIDTH 8 0
BBX 7 11 1 0
BITMAP
44
28
10
00
CE
50
20
20
20
20
F8
ENDCHAR
STARTCHAR 015A
ENCODING 346
SWIDTH 576 0
DWIDTH 8 0
BBX 6 13 1 0
BITMAP
08
10
20
00
74
CC
84
C0
38
04
84
C4
B8
ENDCHAR
STARTCHAR 015B
ENCODING 347
SWIDTH 576 0
DWIDTH 8 0
BBX 6 11 1 0
BITMAP
08
10
20
00
74
CC
C0
7C
84
C4
B8
ENDCHAR
STARTCHAR 015C
ENCODING 348
SWIDTH 576 0
DWIDTH 8 0
BBX 6 13 1 0
BITMAP
10
30
48
00
74
CC
84
C0
38
04
84
C4
B8
ENDCHAR
STARTCHAR 015D
ENCODING 349
SWIDTH 576 0
DWIDTH 8 0
BBX 6 11 1 0
BITMAP
10
30
48
00
74
CC
C0
7C
84
C4
B8
ENDCHAR
STARTCHAR 015E
ENCODING 350
SWIDTH 576 0
DWIDTH 8 0
BBX 6 12 1 -3
BITMAP
74
CC
84
C0
38
04
84
C4
B8
10
08
38
ENDCHAR
STARTCHAR 015F
ENCODING 351
SWIDTH 576 0
DWIDTH 8 0
BBX 6 10 1 -3
BITMAP
74
CC
C0
7C
84
C4
B8
10
08
38
ENDCHAR
STARTCHAR 0160
ENCODING 352
SWIDTH 576 0
DWIDTH 8 0
BBX 6 13 1 0
BITMAP
48
78
30
00
74
CC
84
C0
38
04
84
C4
B8
ENDCHAR
STARTCHAR 0161
ENCODING 353
SWIDTH 576 0
DWIDTH 8 0
BBX 6 11 1 0
BITMAP
48
68
30
00
74
CC
C0
7C
84
C4
B8
ENDCHAR
STARTCHAR 0162
ENCODING 354
SWIDTH 576 0
DWIDTH 8 0
BBX 7 13 1 -4
BITMAP
FE
92
92
92
10
10
10
10
7C
10
18
08
38
ENDCHAR
STARTCHAR 0163
ENCODING 355
SWIDTH 576 0
DWIDTH 8 0
BBX 7 12 1 -3
BITMAP
20
20
20
FC
20
20
20
26
3C
10
08
38
ENDCHAR
STARTCHAR 0164
ENCODING 356
SWIDTH 576 0
DWIDTH 8 0
BBX 7 13 1 0
BITMAP
48
68
30
00
FE
92
92
92
10
10
10
10
7C
ENDCHAR
STARTCHAR 0165
ENCODING 357
SWIDTH 576 0
DWIDTH 8 0
BBX 7 10 1 0
BITMAP
04
28
28
20
FC
20
20
20
26
3C
ENDCHAR
STARTCHAR 0166
ENCODING 358
SWIDTH 576 0
DWIDTH 8 0
BBX 7 9 1 0
BITMAP
FE
92
92
92
10
7C
10
10
7C
ENDCHAR
STARTCHAR 0167
ENCODING 359
SWIDTH 576 0
DWIDTH 8 0
BBX 7 9 1 0
BITMAP
20
20
20
FC
20
F8
20
26
3C
ENDCHAR
STARTCHAR 0168
ENCODING 360
SWIDTH 576 0
DWIDTH 8 0
BBX 8 12 0 0
BITMAP
32
2C
00
F7
42
42
42
42
42
42
26
3C
ENDCHAR
STARTCHAR 0169
ENCODING 361
SWIDTH 576 0
DWIDTH 8 0
BBX 8 10 0 0
BITMAP
34
2C
00
EE
62
62
62
62
26
3B
ENDCHAR
STARTCHAR 016A
ENCODING 362
SWIDTH 576 0
DWIDTH 8 0
BBX 8 11 0 0
BITMAP
3C
00
F7
42
42
42
42
42
42
26
3C
ENDCHAR
STARTCHAR 016B
ENCODING 363
SWIDTH 576 0
DWIDTH 8 0
BBX 8 9 0 0
BITMAP
3C
00
EE
62
62
62
62
26
3B
ENDCHAR
STARTCHAR 016C
ENCODING 364
SWIDTH 576 0
DWIDTH 8 0
BBX 8 12 0 0
BITMAP
24
3C
00
F7
42
42
42
42
42
42
26
3C
ENDCHAR
STARTCHAR 016D
ENCODING 365
SWIDTH 576 0
DWIDTH 8 0
BBX 8 10 0 0
BITMAP
24
3C
00
EE
62
62
62
62
26
3B
ENDCHAR
STARTCHAR 016E
ENCODING 366
SWIDTH 576 0
DWIDTH 8 0
BBX 8 14 0 0
BITMAP
18
14
14
18
00
F7
42
42
42
42
42
42
26
3C
ENDCHAR
STARTCHAR 016F
ENCODING 367
SWIDTH 576 0
DWIDTH 8 0
BBX 8 12 0 0
BITMAP
18
24
24
18
00
EE
62
62
62
62
26
3B
ENDCHAR
STARTCHAR 0170
ENCODING 368
SWIDTH 576 0
DWIDTH 8 0
BBX 8 13 0 0
BITMAP
0A
1B
24
00
F7
42
42
42
42
42
42
26
3C
ENDCHAR
STARTCHAR 0171
ENCODING 369
SWIDTH 576 0
DWIDTH 8 0
BBX 8 11 0 0
BITMAP
12
1E
2C
00
EE
62
62
62
62
26
3B
ENDCHAR
STARTCHAR 0172
ENCODING 370
SWIDTH 576 0
DWIDTH 8 0
BBX 8 12 0 -3
BITMAP
F7
42
42
42
42
42
42
26
3C
08
10
0C
ENDCHAR
STARTCHAR 0173
ENCODING 371
SWIDTH 576 0
DWIDTH 8 0
BBX 8 10 0 -3
BITMAP
EE
62
62
62
62
26
3B
02
04
07
ENDCHAR
STARTCHAR 0174
ENCODING 372
SWIDTH 576 0
DWIDTH 8 0
BBX 8 13 0 0
BITMAP
08
18
24
00
E7
41
4A
5A
5A
56
66
66
26
ENDCHAR
STARTCHAR 0175
ENCODING 373
SWIDTH 576 0
DWIDTH 8 0
BBX 8 11 0 0
BITMAP
08
18
24
00
E3
41
59
5A
56
26
26
ENDCHAR
STARTCHAR 0176
ENCODING 374
SWIDTH 576 0
DWIDTH 8 0
BBX 8 13 0 0
BITMAP
08
1C
24
00
F7
22
24
14
18
08
08
08
3E
ENDCHAR
STARTCHAR 0177
ENCODING 375
SWIDTH 576 0
DWIDTH 8 0
BBX 8 14 0 -3
BITMAP
08
1C
24
00
F7
42
26
24
14
18
08
10
30
60
ENDCHAR
STARTCHAR 0178
ENCODING 376
SWIDTH 576 0
DWIDTH 8 0
BBX 8 12 0 0
BITMAP
24
24
00
F7
22
24
14
18
08
08
08
3E
ENDCHAR
STARTCHAR 0179
ENCODING 377
SWIDTH 576 0
DWIDTH 8 0
BBX 6 13 1 0
BITMAP
08
18
20
00
FC
8C
88
10
10
24
64
44
FC
ENDCHAR
STARTCHAR 017A
ENCODING 378
SWIDTH 576 0
DWIDTH 8 0
BBX 6 11 1 0
BITMAP
08
18
20
00
FC
88
98
30
24
44
FC
ENDCHAR
STARTCHAR 017B
ENCODING 379
SWIDTH 576 0
DWIDTH 8 0
BBX 6 12 1 0
BITMAP
10
10
00
FC
8C
88
10
10
24
64
44
FC
ENDCHAR
STARTCHAR 017C
ENCODING 380
SWIDTH 576 0
DWIDTH 8 0
BBX 6 10 1 0
BITMAP
10
10
00
FC
88
98
30
24
44
FC
ENDCHAR
STARTCHAR 017D
ENCODING 381
SWIDTH 576 0
DWIDTH 8 0
BBX 6 13 1 0
BITMAP
48
68
30
00
FC
8C
88
10
10
24
64
44
FC
ENDCHAR
STARTCHAR 017E
ENCODING 382
SWIDTH 576 0
DWIDTH 8 0
BBX 6 11 1 0
BITMAP
48
68
30
00
FC
88
98
30
24
44
FC
ENDCHAR
STARTCHAR 0192
ENCODING 402
SWIDTH 576 0
DWIDTH 8 0
BBX 8 12 0 -2
BITMAP
07
08
08
3E
08
08
10
10
10
10
10
E0
ENDCHAR
STARTCHAR 0218
ENCODING 536
SWIDTH 576 0
DWIDTH 8 0
BBX 6 13 1 -4
BITMAP
74
CC
84
C0
38
04
84
C4
B8
00
10
30
20
ENDCHAR
STARTCHAR 0219
ENCODING 537
SWIDTH 576 0
DWIDTH 8 0
BBX 6 11 1 -4
BITMAP
74
CC
C0
7C
84
C4
B8
00
10
30
20
ENDCHAR
STARTCHAR 021A
ENCODING 538
SWIDTH 576 0
DWIDTH 8 0
BBX 7 13 1 -4
BITMAP
FE
92
92
92
10
10
10
10
7C
00
10
20
20
ENDCHAR
STARTCHAR 021B
ENCODING 539
SWIDTH 576 0
DWIDTH 8 0
BBX 7 13 1 -4
BITMAP
20
20
20
FC
20
20
20
26
3C
00
10
10
10
ENDCHAR
STARTCHAR 0237
ENCODING 567
SWIDTH 576 0
DWIDTH 8 0
BBX 5 10 1 -3
BITMAP
78
08
08
08
08
08
08
08
C8
70
ENDCHAR
STARTCHAR 02C6
ENCODING 710
SWIDTH 576 0
DWIDTH 8 0
BBX 4 3 2 8
BITMAP
20
60
90
ENDCHAR
STARTCHAR 02C7
ENCODING 711
SWIDTH 576 0
DWIDTH 8 0
BBX 4 3 2 8
BITMAP
90
D0
60
ENDCHAR
STARTCHAR 02D8
ENCODING 728
SWIDTH 576 0
DWIDTH 8 0
BBX 4 2 2 8
BITMAP
90
F0
ENDCHAR
STARTCHAR 02D9
ENCODING 729
SWIDTH 576 0
DWIDTH 8 0
BBX 1 2 4 8
BITMAP
80
80
ENDCHAR
STARTCHAR 02DA
ENCODING 730
SWIDTH 576 0
DWIDTH 8 0
BBX 3 4 3 8
BITMAP
C0
A0
A0
C0
ENDCHAR
STARTCHAR 02DB
ENCODING 731
SWIDTH 576 0
DWIDTH 8 0
BBX 3 3 3 -3
BITMAP
C0
80
E0
ENDCHAR
STARTCHAR 02DC
ENCODING 732
SWIDTH 576 0
DWIDTH 8 0
BBX 5 2 2 8
BITMAP
C8
B0
ENDCHAR
STARTCHAR 02DD
ENCODING 733
SWIDTH 576 0
DWIDTH 8 0
BBX 6 3 2 8
BITMAP
28
6C
90
ENDCHAR
STARTCHAR 0326
ENCODING 806
SWIDTH 0 0
DWIDTH 0 0
BBX 2 3 -5 -4
BITMAP
C0
80
80
ENDCHAR
STARTCHAR 0394
ENCODING 916
SWIDTH 576 0
DWIDTH 8 0
BBX 6 9 1 0
BITMAP
10
30
38
28
48
48
44
84
FC
ENDCHAR
STARTCHAR 03A9
ENCODING 937
SWIDTH 576 0
DWIDTH 8 0
BBX 7 9 1 0
BITMAP
78
C4
86
82
82
82
84
4C
EE
ENDCHAR
STARTCHAR 03BC
ENCODING 956
SWIDTH 576 0
DWIDTH 8 0
BBX 6 10 1 -3
BITMAP
C4
C4
C4
C4
C4
CC
F4
C0
C0
C0
ENDCHAR
STARTCHAR 03C0
ENCODING 960
SWIDTH 576 0
DWIDTH 8 0
BBX 7 7 1 0
BITMAP
FE
44
44
44
44
44
44
ENDCHAR
STARTCHAR 1E80
ENCODING 7808
SWIDTH 576 0
DWIDTH 8 0
BBX 8 13 0 0
BITMAP
20
18
08
00
E7
41
4A
5A
5A
56
66
66
26
ENDCHAR
STARTCHAR 1E81
ENCODING 7809
SWIDTH 576 0
DWIDTH 8 0
BBX 8 11 0 0
BITMAP
20
18
08
00
E3
41
59
5A
56
26
26
ENDCHAR
STARTCHAR 1E82
ENCODING 7810
SWIDTH 576 0
DWIDTH 8 0
BBX 8 13 0 0
BITMAP
04
0C
10
00
E7
41
4A
5A
5A
56
66
66
26
ENDCHAR
STARTCHAR 1E83
ENCODING 7811
SWIDTH 576 0
DWIDTH 8 0
BBX 8 11 0 0
BITMAP
04
0C
10
00
E3
41
59
5A
56
26
26
ENDCHAR
STARTCHAR 1E84
ENCODING 7812
SWIDTH 576 0
DWIDTH 8 0
BBX 8 12 0 0
BITMAP
24
24
00
E7
41
4A
5A
5A
56
66
66
26
ENDCHAR
STARTCHAR 1E85
ENCODING 7813
SWIDTH 576 0
DWIDTH 8 0
BBX 8 10 0 0
BITMAP
24
24
00
E3
41
59
5A
56
26
26
ENDCHAR
STARTCHAR 1EF2
ENCODING 7922
SWIDTH 576 0
DWIDTH 8 0
BBX 8 13 0 0
BITMAP
30
18
0C
00
F7
22
24
14
18
08
08
08
3E
ENDCHAR
STARTCHAR 1EF3
ENCODING 7923
SWIDTH 576 0
DWIDTH 8 0
BBX 8 14 0 -3
BITMAP
30
18
0C
00
F7
42
26
24
14
18
08
10
30
60
ENDCHAR
STARTCHAR 2011
ENCODING 8209
SWIDTH 576 0
DWIDTH 8 0
BBX 6 1 1 4
BITMAP
FC
ENDCHAR
STARTCHAR 2013
ENCODING 8211
SWIDTH 576 0
DWIDTH 8 0
BBX 6 1 1 4
BITMAP
FC
ENDCHAR
STARTCHAR 2014
ENCODING 8212
SWIDTH 576 0
DWIDTH 8 0
BBX 9 1 0 4
BITMAP
FF80
ENDCHAR
STARTCHAR 2018
ENCODING 8216
SWIDTH 576 0
DWIDTH 8 0
BBX 2 4 3 6
BITMAP
40
40
C0
C0
ENDCHAR
STARTCHAR 2019
ENCODING 8217
SWIDTH 576 0
DWIDTH 8 0
BBX 2 4 3 6
BITMAP
40
C0
80
80
ENDCHAR
STARTCHAR 201A
ENCODING 8218
SWIDTH 576 0
DWIDTH 8 0
BBX 2 4 3 -1
BITMAP
40
C0
80
80
ENDCHAR
STARTCHAR 201C
ENCODING 8220
SWIDTH 576 0
DWIDTH 8 0
BBX 6 4 1 6
BITMAP
24
44
4C
C8
ENDCHAR
STARTCHAR 201D
ENCODING 8221
SWIDTH 576 0
DWIDTH 8 0
BBX 6 4 1 6
BITMAP
6C
4C
48
88
ENDCHAR
STARTCHAR 201E
ENCODING 8222
SWIDTH 576 0
DWIDTH 8 0
BBX 6 4 1 -1
BITMAP
6C
4C
48
88
ENDCHAR
STARTCHAR 2020
ENCODING 8224
SWIDTH 576 0
DWIDTH 8 0
BBX 4 7 2 2
BITMAP
20
20
F0
20
20
20
20
ENDCHAR
STARTCHAR 2021
ENCODING 8225
SWIDTH 576 0
DWIDTH 8 0
BBX 4 7 2 2
BITMAP
20
F0
20
20
F0
20
20
ENDCHAR
STARTCHAR 2022
ENCODING 8226
SWIDTH 576 0
DWIDTH 8 0
BBX 3 4 3 3
BITMAP
E0
E0
E0
E0
ENDCHAR
STARTCHAR 2026
ENCODING 8230
SWIDTH 576 0
DWIDTH 8 0
BBX 7 2 1 0
BITMAP
B6
B6
ENDCHAR
STARTCHAR 2030
ENCODING 8240
SWIDTH 576 0
DWIDTH 8 0
BBX 11 9 0 0
BITMAP
6000
9100
9200
7400
0800
36C0
6920
4920
06C0
ENDCHAR
STARTCHAR 2032
ENCODING 8242
SWIDTH 576 0
DWIDTH 8 0
BBX 3 4 3 5
BITMAP
60
40
80
80
ENDCHAR
STARTCHAR 2033
ENCODING 8243
SWIDTH 576 0
DWIDTH 8 0
BBX 6 4 1 5
BITMAP
24
2C
48
90
ENDCHAR
STARTCHAR 2039
ENCODING 8249
SWIDTH 576 0
DWIDTH 8 0
BBX 3 6 3 1
BITMAP
20
40
80
80
40
20
ENDCHAR
STARTCHAR 203A
ENCODING 8250
SWIDTH 576 0
DWIDTH 8 0
BBX 3 6 3 1
BITMAP
80
C0
40
60
C0
80
ENDCHAR
STARTCHAR 2044
ENCODING 8260
SWIDTH 576 0
DWIDTH 8 0
BBX 7 5 1 1
BITMAP
06
08
30
40
80
ENDCHAR
STARTCHAR 2074
ENCODING 8308
SWIDTH 576 0
DWIDTH 8 0
BBX 5 6 2 3
BITMAP
30
50
90
F8
10
10
ENDCHAR
STARTCHAR 20A3
ENCODING 8355
SWIDTH 576 0
DWIDTH 8 0
BBX 8 9 0 0
BITMAP
7F
21
21
20
3C
20
FC
20
78
ENDCHAR
STARTCHAR 20A9
ENCODING 8361
SWIDTH 576 0
DWIDTH 8 0
BBX 9 9 0 0
BITMAP
E700
4100
4A00
FF80
5A00
5600
6600
6600
2600
ENDCHAR
STARTCHAR 20AC
ENCODING 8364
SWIDTH 576 0
DWIDTH 8 0
BBX 7 9 1 0
BITMAP
3C
64
44
F0
40
F0
40
46
3C
ENDCHAR
STARTCHAR 2122
ENCODING 8482
SWIDTH 576 0
DWIDTH 8 0
BBX 9 4 0 5
BITMAP
F500
2580
2680
2880
ENDCHAR
STARTCHAR 2202
ENCODING 8706
SWIDTH 576 0
DWIDTH 8 0
BBX 6 8 1 0
BITMAP
38
04
04
74
CC
84
88
70
ENDCHAR
STARTCHAR 220F
ENCODING 8719
SWIDTH 576 0
DWIDTH 8 0
BBX 6 8 1 0
BITMAP
FC
84
84
84
84
84
84
84
ENDCHAR
STARTCHAR 2211
ENCODING 8721
SWIDTH 576 0
DWIDTH 8 0
BBX 6 8 1 0
BITMAP
FC
40
20
10
30
20
40
FC
ENDCHAR
STARTCHAR 2212
ENCODING 8722
SWIDTH 576 0
DWIDTH 8 0
BBX 6 1 1 3
BITMAP
FC
ENDCHAR
STARTCHAR 2215
ENCODING 8725
SWIDTH 576 0
DWIDTH 8 0
BBX 6 13 1 -2
BITMAP
04
04
08
08
18
10
10
20
20
20
40
40
C0
ENDCHAR
STARTCHAR 221A
ENCODING 8730
SWIDTH 576 0
DWIDTH 8 0
BBX 7 8 1 0
BITMAP
06
04
04
04
C8
48
38
30
ENDCHAR
STARTCHAR 221E
ENCODING 8734
SWIDTH 576 0
DWIDTH 8 0
BBX 8 4 0 2
BITMAP
67
99
99
67
ENDCHAR
STARTCHAR 222B
ENCODING 8747
SWIDTH 576 0
DWIDTH 8 0
BBX 8 13 0 -3
BITMAP
07
08
08
08
08
08
08
08
08
08
08
10
F0
ENDCHAR
STARTCHAR 2248
ENCODING 8776
SWIDTH 576 0
DWIDTH 8 0
BBX 6 4 1 2
BITMAP
64
9C
64
9C
ENDCHAR
STARTCHAR 2260
ENCODING 8800
SWIDTH 576 0
DWIDTH 8 0
BBX 6 7 1 1
BITMAP
08
08
FC
10
20
FC
40
ENDCHAR
STARTCHAR 2264
ENCODING 8804
SWIDTH 576 0
DWIDTH 8 0
BBX 6 7 1 1
BITMAP
0C
30
C0
30
0C
00
FC
ENDCHAR
STARTCHAR 2265
ENCODING 8805
SWIDTH 576 0
DWIDTH 8 0
BBX 6 7 1 1
BITMAP
C0
38
04
38
C0
00
FC
ENDCHAR
STARTCHAR 25CA
ENCODING 9674
SWIDTH 576 0
DWIDTH 8 0
BBX 6 9 1 0
BITMAP
10
30
28
48
C4
4C
48
38
30
ENDCHAR
STARTCHAR FB01
ENCODING 64257
SWIDTH 576 0
DWIDTH 8 0
BBX 8 10 0 0
BITMAP
3C
20
20
FE
22
22
22
22
22
2F
ENDCHAR
STARTCHAR FB02
ENCODING 64258
SWIDTH 576 0
DWIDTH 8 0
BBX 8 10 0 0
BITMAP
1C
22
22
FA
22
22
22
22
22
27
ENDCHAR
ENDFONT
