STARTFONT 2.1
COMMENT
COMMENT Converted from OpenType font "CourierPrime-Regular.ttf" by "otf2bdf 3.0".
COMMENT
FONT -FreeType-courier prime-Medium-R-Normal--19-140-100-100-P-88-Windows-cp1252
SIZE 14 100 100
FONTBOUNDINGBOX 15 21 0 -4
STARTPROPERTIES 19
FOUNDRY "FreeType"
FAMILY_NAME "courier prime"
WEIGHT_NAME "Medium"
SLANT "R"
SETWIDTH_NAME "Normal"
ADD_STYLE_NAME ""
PIXEL_SIZE 19
POINT_SIZE 140
RESOLUTION_X 100
RESOLUTION_Y 100
SPACING "P"
AVERAGE_WIDTH 88
CHARSET_REGISTRY "Windows"
CHARSET_ENCODING "cp1252"
FONT_ASCENT 14
FONT_DESCENT 6
COPYRIGHT "Copyright 2015 The Courier Prime Project Authors (https://github.com/quoteunquoteapps/CourierPrime)."
_OTF_FONTFILE "CourierPrime-Regular.ttf"
_OTF_PSNAME "CourierPrime-Regular"
ENDPROPERTIES
CHARS 219
STARTCHAR 000D
ENCODING 13
SWIDTH 565 0
DWIDTH 11 0
BBX 0 0 0 0
BITMAP
ENDCHAR
STARTCHAR 0020
ENCODING 32
SWIDTH 565 0
DWIDTH 11 0
BBX 0 0 0 0
BITMAP
ENDCHAR
STARTCHAR 0021
ENCODING 33
SWIDTH 565 0
DWIDTH 11 0
BBX 2 12 5 0
BITMAP
C0
C0
C0
80
80
80
80
80
00
C0
C0
C0
ENDCHAR
STARTCHAR 0022
ENCODING 34
SWIDTH 565 0
DWIDTH 11 0
BBX 7 5 2 7
BITMAP
E6
66
46
46
44
ENDCHAR
STARTCHAR 0023
ENCODING 35
SWIDTH 565 0
DWIDTH 11 0
BBX 10 11 1 0
BITMAP
0900
1900
1100
FFC0
3200
2200
FF80
2400
6400
4400
4400
ENDCHAR
STARTCHAR 0024
ENCODING 36
SWIDTH 565 0
DWIDTH 11 0
BBX 8 13 2 -1
BITMAP
10
10
7A
D6
92
7C
92
93
D3
FE
10
10
10
ENDCHAR
STARTCHAR 0025
ENCODING 37
SWIDTH 565 0
DWIDTH 11 0
BBX 11 11 0 0
BITMAP
7800
4840
CCC0
7980
0300
0600
09C0
3360
6220
4360
01C0
ENDCHAR
STARTCHAR 0026
ENCODING 38
SWIDTH 565 0
DWIDTH 11 0
BBX 10 11 1 0
BITMAP
3E00
3600
6200
6000
2000
7180
4900
C700
C600
6F00
39C0
ENDCHAR
STARTCHAR 0027
ENCODING 39
SWIDTH 565 0
DWIDTH 11 0
BBX 2 5 5 7
BITMAP
C0
C0
C0
80
80
ENDCHAR
STARTCHAR 0028
ENCODING 40
SWIDTH 565 0
DWIDTH 11 0
BBX 5 16 3 -4
BITMAP
18
30
60
40
C0
80
80
80
80
80
C0
C0
60
20
30
08
ENDCHAR
STARTCHAR 0029
ENCODING 41
SWIDTH 565 0
DWIDTH 11 0
BBX 6 16 3 -4
BITMAP
C0
60
30
10
18
08
0C
0C
0C
0C
08
08
18
30
60
C0
ENDCHAR
STARTCHAR 002A
ENCODING 42
SWIDTH 565 0
DWIDTH 11 0
BBX 8 7 2 4
BITMAP
18
10
D3
FE
18
2C
64
ENDCHAR
STARTCHAR 002B
ENCODING 43
SWIDTH 565 0
DWIDTH 11 0
BBX 8 8 2 1
BITMAP
10
10
10
FF
10
10
10
10
ENDCHAR
STARTCHAR 002C
ENCODING 44
SWIDTH 565 0
DWIDTH 11 0
BBX 4 6 3 -3
BITMAP
70
70
60
60
40
C0
ENDCHAR
STARTCHAR 002D
ENCODING 45
SWIDTH 565 0
DWIDTH 11 0
BBX 8 1 2 5
BITMAP
FF
ENDCHAR
STARTCHAR 002E
ENCODING 46
SWIDTH 565 0
DWIDTH 11 0
BBX 3 3 4 0
BITMAP
E0
E0
E0
ENDCHAR
STARTCHAR 002F
ENCODING 47
SWIDTH 565 0
DWIDTH 11 0
BBX 8 16 2 -4
BITMAP
03
02
06
04
0C
0C
08
18
10
30
20
60
60
40
C0
80
ENDCHAR
STARTCHAR 0030
ENCODING 48
SWIDTH 565 0
DWIDTH 11 0
BBX 8 11 2 0
BITMAP
3C
6E
C6
82
83
83
83
82
C6
6E
3C
ENDCHAR
STARTCHAR 0031
ENCODING 49
SWIDTH 565 0
DWIDTH 11 0
BBX 8 11 2 0
BITMAP
18
38
D8
18
18
18
18
18
18
18
FF
ENDCHAR
STARTCHAR 0032
ENCODING 50
SWIDTH 565 0
DWIDTH 11 0
BBX 7 11 2 0
BITMAP
7C
EE
86
06
06
0C
18
30
62
C2
FE
ENDCHAR
STARTCHAR 0033
ENCODING 51
SWIDTH 565 0
DWIDTH 11 0
BBX 7 11 2 0
BITMAP
7C
CE
82
06
3C
06
02
02
82
EE
7C
ENDCHAR
STARTCHAR 0034
ENCODING 52
SWIDTH 565 0
DWIDTH 11 0
BBX 9 11 1 0
BITMAP
0600
0E00
1E00
1600
2600
6600
FF80
0600
0600
0600
1F80
ENDCHAR
STARTCHAR 0035
ENCODING 53
SWIDTH 565 0
DWIDTH 11 0
BBX 7 11 2 0
BITMAP
7E
40
C0
FC
C6
02
02
02
82
EE
78
ENDCHAR
STARTCHAR 0036
ENCODING 54
SWIDTH 565 0
DWIDTH 11 0
BBX 8 11 2 0
BITMAP
0E
38
60
C0
BC
E6
C3
83
C2
66
3C
ENDCHAR
STARTCHAR 0037
ENCODING 55
SWIDTH 565 0
DWIDTH 11 0
BBX 8 11 2 0
BITMAP
FF
C2
C6
04
04
0C
08
18
10
30
30
ENDCHAR
STARTCHAR 0038
ENCODING 56
SWIDTH 565 0
DWIDTH 11 0
BBX 7 11 2 0
BITMAP
3C
66
C2
46
3C
66
C2
82
C2
6E
3C
ENDCHAR
STARTCHAR 0039
ENCODING 57
SWIDTH 565 0
DWIDTH 11 0
BBX 8 11 2 0
BITMAP
7C
EE
82
82
C7
7E
02
06
0C
38
F0
ENDCHAR
STARTCHAR 003A
ENCODING 58
SWIDTH 565 0
DWIDTH 11 0
BBX 3 9 4 0
BITMAP
E0
E0
E0
00
00
00
E0
E0
E0
ENDCHAR
STARTCHAR 003B
ENCODING 59
SWIDTH 565 0
DWIDTH 11 0
BBX 3 12 4 -3
BITMAP
E0
E0
E0
00
00
00
60
E0
C0
C0
C0
80
ENDCHAR
STARTCHAR 003C
ENCODING 60
SWIDTH 565 0
DWIDTH 11 0
BBX 9 9 1 1
BITMAP
0180
0700
1C00
7000
C000
7000
1C00
0700
0180
ENDCHAR
STARTCHAR 003D
ENCODING 61
SWIDTH 565 0
DWIDTH 11 0
BBX 8 5 2 3
BITMAP
FF
00
00
00
FF
ENDCHAR
STARTCHAR 003E
ENCODING 62
SWIDTH 565 0
DWIDTH 11 0
BBX 8 9 2 1
BITMAP
80
E0
38
0E
03
0E
38
E0
80
ENDCHAR
STARTCHAR 003F
ENCODING 63
SWIDTH 565 0
DWIDTH 11 0
BBX 7 12 2 0
BITMAP
7C
EE
C6
06
06
18
10
10
00
00
30
30
ENDCHAR
STARTCHAR 0040
ENCODING 64
SWIDTH 565 0
DWIDTH 11 0
BBX 11 11 0 -1
BITMAP
0F80
38C0
6740
4B20
5920
5320
D360
5DC0
4000
6000
3F00
ENDCHAR
STARTCHAR 0041
ENCODING 65
SWIDTH 565 0
DWIDTH 11 0
BBX 11 11 0 0
BITMAP
3E00
0A00
0B00
1900
1100
1180
3F80
2080
20C0
6040
F1E0
ENDCHAR
STARTCHAR 0042
ENCODING 66
SWIDTH 565 0
DWIDTH 11 0
BBX 9 11 1 0
BITMAP
FE00
6300
6100
6100
6300
7E00
6180
6080
6080
6380
FF00
ENDCHAR
STARTCHAR 0043
ENCODING 67
SWIDTH 565 0
DWIDTH 11 0
BBX 9 11 1 0
BITMAP
1E80
7380
6180
C080
C000
C000
C000
C000
4080
7380
1F00
ENDCHAR
STARTCHAR 0044
ENCODING 68
SWIDTH 565 0
DWIDTH 11 0
BBX 10 11 1 0
BITMAP
FE00
6700
6180
6080
60C0
60C0
60C0
6080
6180
6700
FE00
ENDCHAR
STARTCHAR 0045
ENCODING 69
SWIDTH 565 0
DWIDTH 11 0
BBX 9 11 1 0
BITMAP
FF80
6080
6080
6400
6400
7C00
6400
6080
6080
6080
FF80
ENDCHAR
STARTCHAR 0046
ENCODING 70
SWIDTH 565 0
DWIDTH 11 0
BBX 9 11 1 0
BITMAP
FF80
2080
2080
2600
2600
3E00
2600
2000
2000
2000
FC00
ENDCHAR
STARTCHAR 0047
ENCODING 71
SWIDTH 565 0
DWIDTH 11 0
BBX 10 11 1 0
BITMAP
1F80
7380
4180
C180
8000
8000
87C0
C080
4080
7380
1F00
ENDCHAR
STARTCHAR 0048
ENCODING 72
SWIDTH 565 0
DWIDTH 11 0
BBX 10 11 1 0
BITMAP
F3C0
4100
4100
4100
4100
7F00
4100
4100
4100
4100
F3C0
ENDCHAR
STARTCHAR 0049
ENCODING 73
SWIDTH 565 0
DWIDTH 11 0
BBX 8 11 2 0
BITMAP
FE
10
10
10
10
10
10
10
10
10
FF
ENDCHAR
STARTCHAR 004A
ENCODING 74
SWIDTH 565 0
DWIDTH 11 0
BBX 10 11 1 0
BITMAP
3FC0
0200
0200
0200
0200
0200
8200
8200
8200
E600
7C00
ENDCHAR
STARTCHAR 004B
ENCODING 75
SWIDTH 565 0
DWIDTH 11 0
BBX 10 11 1 0
BITMAP
F3C0
6100
6200
6400
7800
7E00
7600
6300
6100
6180
F8C0
ENDCHAR
STARTCHAR 004C
ENCODING 76
SWIDTH 565 0
DWIDTH 11 0
BBX 9 11 1 0
BITMAP
FC00
2000
2000
2000
2000
2000
2080
2080
2080
2080
FF80
ENDCHAR
STARTCHAR 004D
ENCODING 77
SWIDTH 565 0
DWIDTH 11 0
BBX 11 11 0 0
BITMAP
70E0
31C0
31C0
39C0
2BC0
6E40
6640
6440
6040
6040
F1E0
ENDCHAR
STARTCHAR 004E
ENCODING 78
SWIDTH 565 0
DWIDTH 11 0
BBX 10 11 1 0
BITMAP
E3C0
7180
7180
5980
4980
4D80
4580
4780
4380
4180
F180
ENDCHAR
STARTCHAR 004F
ENCODING 79
SWIDTH 565 0
DWIDTH 11 0
BBX 10 11 1 0
BITMAP
3E00
7300
C180
C080
80C0
80C0
80C0
C080
C180
7300
3E00
ENDCHAR
STARTCHAR 0050
ENCODING 80
SWIDTH 565 0
DWIDTH 11 0
BBX 9 11 1 0
BITMAP
FF00
2380
2080
2080
2080
2180
3F00
2000
2000
2000
FC00
ENDCHAR
STARTCHAR 0051
ENCODING 81
SWIDTH 565 0
DWIDTH 11 0
BBX 10 13 1 -2
BITMAP
3E00
7300
C180
C080
80C0
80C0
80C0
C080
C180
7300
3E00
3000
7F80
ENDCHAR
STARTCHAR 0052
ENCODING 82
SWIDTH 565 0
DWIDTH 11 0
BBX 10 11 1 0
BITMAP
FE00
6300
6180
6180
6100
7E00
6600
6300
6300
6180
F8C0
ENDCHAR
STARTCHAR 0053
ENCODING 83
SWIDTH 565 0
DWIDTH 11 0
BBX 9 11 1 0
BITMAP
3D00
6700
4100
4000
7000
1F00
0180
C180
C180
F300
DE00
ENDCHAR
STARTCHAR 0054
ENCODING 84
SWIDTH 565 0
DWIDTH 11 0
BBX 9 11 1 0
BITMAP
FF80
C880
C880
C880
8880
0800
0800
0800
0800
0800
7F00
ENDCHAR
STARTCHAR 0055
ENCODING 85
SWIDTH 565 0
DWIDTH 11 0
BBX 10 11 1 0
BITMAP
F3C0
4180
4180
4180
4180
4180
4180
4180
4100
7300
3E00
ENDCHAR
STARTCHAR 0056
ENCODING 86
SWIDTH 565 0
DWIDTH 11 0
BBX 11 11 0 0
BITMAP
F9E0
6040
20C0
3080
1180
1100
1900
0B00
0A00
0E00
0600
ENDCHAR
STARTCHAR 0057
ENCODING 87
SWIDTH 565 0
DWIDTH 11 0
BBX 11 11 0 0
BITMAP
F1E0
4040
4440
6640
6E40
2AC0
2BC0
39C0
3180
3180
3180
ENDCHAR
STARTCHAR 0058
ENCODING 88
SWIDTH 565 0
DWIDTH 11 0
BBX 11 11 0 0
BITMAP
79E0
3080
1180
0B00
0E00
0600
0E00
1900
3180
20C0
FBE0
ENDCHAR
STARTCHAR 0059
ENCODING 89
SWIDTH 565 0
DWIDTH 11 0
BBX 10 11 1 0
BITMAP
F3C0
4180
6300
3200
1600
1C00
0800
0800
0800
0800
7F00
ENDCHAR
STARTCHAR 005A
ENCODING 90
SWIDTH 565 0
DWIDTH 11 0
BBX 8 11 2 0
BITMAP
FF
82
86
8C
08
10
30
63
43
C3
FF
ENDCHAR
STARTCHAR 005B
ENCODING 91
SWIDTH 565 0
DWIDTH 11 0
BBX 5 16 3 -3
BITMAP
F8
80
80
80
80
80
80
80
80
80
80
80
80
80
80
F8
ENDCHAR
STARTCHAR 005C
ENCODING 92
SWIDTH 565 0
DWIDTH 11 0
BBX 8 16 2 -4
BITMAP
80
C0
40
60
60
20
30
10
18
08
0C
0C
04
06
02
03
ENDCHAR
STARTCHAR 005D
ENCODING 93
SWIDTH 565 0
DWIDTH 11 0
BBX 5 16 3 -3
BITMAP
F8
08
08
08
08
08
08
08
08
08
08
08
08
08
08
F8
ENDCHAR
STARTCHAR 005E
ENCODING 94
SWIDTH 565 0
DWIDTH 11 0
BBX 7 7 2 5
BITMAP
10
18
38
2C
64
46
C2
ENDCHAR
STARTCHAR 005F
ENCODING 95
SWIDTH 565 0
DWIDTH 11 0
BBX 12 1 0 -3
BITMAP
FFF0
ENDCHAR
STARTCHAR 0060
ENCODING 96
SWIDTH 565 0
DWIDTH 11 0
BBX 5 4 3 10
BITMAP
80
C0
70
18
ENDCHAR
STARTCHAR 0061
ENCODING 97
SWIDTH 565 0
DWIDTH 11 0
BBX 10 9 1 0
BITMAP
3E00
7300
0100
0100
7F00
E300
C100
E700
7DC0
ENDCHAR
STARTCHAR 0062
ENCODING 98
SWIDTH 565 0
DWIDTH 11 0
BBX 10 12 0 0
BITMAP
E000
2000
2000
2F00
3980
30C0
2040
2040
2040
30C0
3980
6F00
ENDCHAR
STARTCHAR 0063
ENCODING 99
SWIDTH 565 0
DWIDTH 11 0
BBX 9 9 1 0
BITMAP
3F80
7380
4180
C180
C000
C000
4080
7380
3E00
ENDCHAR
STARTCHAR 0064
ENCODING 100
SWIDTH 565 0
DWIDTH 11 0
BBX 10 12 1 0
BITMAP
0780
0180
0180
3D80
7780
4180
C180
C180
C180
4180
7780
3DC0
ENDCHAR
STARTCHAR 0065
ENCODING 101
SWIDTH 565 0
DWIDTH 11 0
BBX 9 9 1 0
BITMAP
1E00
7300
4180
C180
FF80
C000
4000
7380
3F00
ENDCHAR
STARTCHAR 0066
ENCODING 102
SWIDTH 565 0
DWIDTH 11 0
BBX 8 12 2 0
BITMAP
1F
3B
30
30
FE
30
30
30
30
30
30
FE
ENDCHAR
STARTCHAR 0067
ENCODING 103
SWIDTH 565 0
DWIDTH 11 0
BBX 10 13 1 -4
BITMAP
3DC0
7780
4180
C180
C180
C180
4180
7780
3D80
0180
0100
6700
7E00
ENDCHAR
STARTCHAR 0068
ENCODING 104
SWIDTH 565 0
DWIDTH 11 0
BBX 10 12 1 0
BITMAP
E000
6000
6000
6E00
7B00
6100
6100
6100
6100
6100
6100
F3C0
ENDCHAR
STARTCHAR 0069
ENCODING 105
SWIDTH 565 0
DWIDTH 11 0
BBX 8 12 2 0
BITMAP
18
18
00
F8
18
18
18
18
18
18
18
FF
ENDCHAR
STARTCHAR 006A
ENCODING 106
SWIDTH 565 0
DWIDTH 11 0
BBX 6 16 2 -4
BITMAP
04
04
00
FC
04
04
04
04
04
04
04
04
04
04
EC
78
ENDCHAR
STARTCHAR 006B
ENCODING 107
SWIDTH 565 0
DWIDTH 11 0
BBX 10 12 1 0
BITMAP
E000
6000
6000
6780
6300
6600
6C00
7C00
7600
6300
6180
F3C0
ENDCHAR
STARTCHAR 006C
ENCODING 108
SWIDTH 565 0
DWIDTH 11 0
BBX 8 12 2 0
BITMAP
F8
18
18
18
18
18
18
18
18
18
18
FF
ENDCHAR
STARTCHAR 006D
ENCODING 109
SWIDTH 565 0
DWIDTH 11 0
BBX 12 9 0 0
BITMAP
FDC0
7540
6640
6640
6640
6640
6640
6640
F770
ENDCHAR
STARTCHAR 006E
ENCODING 110
SWIDTH 565 0
DWIDTH 11 0
BBX 10 9 1 0
BITMAP
EE00
7B00
6100
6180
6180
6180
6180
6180
F3C0
ENDCHAR
STARTCHAR 006F
ENCODING 111
SWIDTH 565 0
DWIDTH 11 0
BBX 9 9 1 0
BITMAP
1E00
7300
4180
C080
C080
C080
4180
7300
1E00
ENDCHAR
STARTCHAR 0070
ENCODING 112
SWIDTH 565 0
DWIDTH 11 0
BBX 10 13 0 -4
BITMAP
6F00
3980
30C0
2040
2040
2040
30C0
3980
2F00
2000
2000
2000
F800
ENDCHAR
STARTCHAR 0071
ENCODING 113
SWIDTH 565 0
DWIDTH 11 0
BBX 10 13 1 -4
BITMAP
3DC0
7780
4180
C180
C180
C180
4180
7780
3D80
0180
0180
0180
07C0
ENDCHAR
STARTCHAR 0072
ENCODING 114
SWIDTH 565 0
DWIDTH 11 0
BBX 9 9 1 0
BITMAP
7380
3680
3800
3000
3000
3000
3000
3000
FF00
ENDCHAR
STARTCHAR 0073
ENCODING 115
SWIDTH 565 0
DWIDTH 11 0
BBX 8 9 2 0
BITMAP
7A
CE
82
C0
7E
03
83
E6
BC
ENDCHAR
STARTCHAR 0074
ENCODING 116
SWIDTH 565 0
DWIDTH 11 0
BBX 9 11 1 0
BITMAP
1000
1000
1000
FF00
1000
1000
1000
1000
1000
1B80
0F00
ENDCHAR
STARTCHAR 0075
ENCODING 117
SWIDTH 565 0
DWIDTH 11 0
BBX 10 9 1 0
BITMAP
C700
4100
4100
4100
4100
4100
4300
6700
3DC0
ENDCHAR
STARTCHAR 0076
ENCODING 118
SWIDTH 565 0
DWIDTH 11 0
BBX 11 9 0 0
BITMAP
F9E0
20C0
3080
1180
1100
1900
0B00
0E00
0600
ENDCHAR
STARTCHAR 0077
ENCODING 119
SWIDTH 565 0
DWIDTH 11 0
BBX 11 9 0 0
BITMAP
F0E0
4060
4440
6640
6E40
2AC0
2B80
3980
3180
ENDCHAR
STARTCHAR 0078
ENCODING 120
SWIDTH 565 0
DWIDTH 11 0
BBX 10 9 1 0
BITMAP
F3C0
6100
3200
1E00
0C00
1600
2300
6180
F7C0
ENDCHAR
STARTCHAR 0079
ENCODING 121
SWIDTH 565 0
DWIDTH 11 0
BBX 11 13 0 -4
BITMAP
F9E0
20C0
3080
1180
1900
0B00
0E00
0600
0400
0400
0800
3800
7000
ENDCHAR
STARTCHAR 007A
ENCODING 122
SWIDTH 565 0
DWIDTH 11 0
BBX 8 9 2 0
BITMAP
FF
86
8C
08
18
31
63
C3
FF
ENDCHAR
STARTCHAR 007B
ENCODING 123
SWIDTH 565 0
DWIDTH 11 0
BBX 7 16 2 -4
BITMAP
0E
1C
10
10
10
10
30
C0
20
10
10
10
10
10
18
0E
ENDCHAR
STARTCHAR 007C
ENCODING 124
SWIDTH 565 0
DWIDTH 11 0
BBX 1 16 5 -4
BITMAP
80
80
80
80
80
80
80
80
80
80
80
80
80
80
80
80
ENDCHAR
STARTCHAR 007D
ENCODING 125
SWIDTH 565 0
DWIDTH 11 0
BBX 8 16 2 -4
BITMAP
E0
30
18
18
18
18
08
07
0C
18
18
18
18
18
30
F0
ENDCHAR
STARTCHAR 007E
ENCODING 126
SWIDTH 565 0
DWIDTH 11 0
BBX 9 2 1 4
BITMAP
7880
CF00
ENDCHAR
STARTCHAR 00A0
ENCODING 160
SWIDTH 565 0
DWIDTH 11 0
BBX 0 0 0 0
BITMAP
ENDCHAR
STARTCHAR 00A1
ENCODING 161
SWIDTH 565 0
DWIDTH 11 0
BBX 2 13 5 -4
BITMAP
C0
C0
C0
00
00
80
80
80
80
80
C0
C0
C0
ENDCHAR
STARTCHAR 00A2
ENCODING 162
SWIDTH 565 0
DWIDTH 11 0
BBX 9 13 1 -1
BITMAP
0800
0800
1D80
7F80
4980
C980
C800
C800
4880
7F80
1E00
0800
0800
ENDCHAR
STARTCHAR 00A3
ENCODING 163
SWIDTH 565 0
DWIDTH 11 0
BBX 8 11 2 0
BITMAP
3C
66
42
40
60
FC
20
20
60
43
FE
ENDCHAR
STARTCHAR 00A4
ENCODING 164
SWIDTH 565 0
DWIDTH 11 0
BBX 9 10 1 1
BITMAP
8080
5F80
3300
6100
4100
4180
6100
6300
7F80
C080
ENDCHAR
STARTCHAR 00A5
ENCODING 165
SWIDTH 565 0
DWIDTH 11 0
BBX 10 11 1 0
BITMAP
F3C0
4180
2300
F380
1C00
0C00
7F80
0800
0800
0800
7F00
ENDCHAR
STARTCHAR 00A6
ENCODING 166
SWIDTH 565 0
DWIDTH 11 0
BBX 1 16 5 -4
BITMAP
80
80
80
80
80
80
80
00
00
80
80
80
80
80
80
80
ENDCHAR
STARTCHAR 00A7
ENCODING 167
SWIDTH 565 0
DWIDTH 11 0
BBX 8 13 2 -2
BITMAP
3E
62
42
60
F0
9C
C6
73
1B
0E
C6
C6
FC
ENDCHAR
STARTCHAR 00A8
ENCODING 168
SWIDTH 565 0
DWIDTH 11 0
BBX 6 2 3 10
BITMAP
CC
CC
ENDCHAR
STARTCHAR 00A9
ENCODING 169
SWIDTH 565 0
DWIDTH 11 0
BBX 11 11 0 0
BITMAP
1F00
31C0
6F40
5960
D020
9020
D020
5920
4F40
30C0
1F80
ENDCHAR
STARTCHAR 00AA
ENCODING 170
SWIDTH 565 0
DWIDTH 11 0
BBX 8 7 2 4
BITMAP
7C
44
06
7E
C6
CE
7B
ENDCHAR
STARTCHAR 00AB
ENCODING 171
SWIDTH 565 0
DWIDTH 11 0
BBX 9 7 1 2
BITMAP
1180
3100
6200
C600
6200
3100
1180
ENDCHAR
STARTCHAR 00AC
ENCODING 172
SWIDTH 565 0
DWIDTH 11 0
BBX 9 5 1 3
BITMAP
FF80
0080
0080
0080
0080
ENDCHAR
STARTCHAR 00AD
ENCODING 173
SWIDTH 565 0
DWIDTH 11 0
BBX 7 1 2 4
BITMAP
FE
ENDCHAR
STARTCHAR 00AE
ENCODING 174
SWIDTH 565 0
DWIDTH 11 0
BBX 9 10 1 3
BITMAP
1E00
6300
4180
9C80
9280
9C80
9480
5380
6300
3E00
ENDCHAR
STARTCHAR 00AF
ENCODING 175
SWIDTH 565 0
DWIDTH 11 0
BBX 6 1 3 11
BITMAP
FC
ENDCHAR
STARTCHAR 00B0
ENCODING 176
SWIDTH 565 0
DWIDTH 11 0
BBX 5 5 2 6
BITMAP
78
48
C8
C8
78
ENDCHAR
STARTCHAR 00B1
ENCODING 177
SWIDTH 565 0
DWIDTH 11 0
BBX 8 9 2 1
BITMAP
10
10
10
FF
10
10
10
00
FF
ENDCHAR
STARTCHAR 00B2
ENCODING 178
SWIDTH 565 0
DWIDTH 11 0
BBX 6 8 3 4
BITMAP
70
88
88
08
10
60
C4
FC
ENDCHAR
STARTCHAR 00B3
ENCODING 179
SWIDTH 565 0
DWIDTH 11 0
BBX 6 8 3 4
BITMAP
F8
88
08
30
08
0C
88
F8
ENDCHAR
STARTCHAR 00B4
ENCODING 180
SWIDTH 565 0
DWIDTH 11 0
BBX 4 4 4 10
BITMAP
10
30
60
C0
ENDCHAR
STARTCHAR 00B5
ENCODING 181
SWIDTH 565 0
DWIDTH 11 0
BBX 7 13 2 -4
BITMAP
82
82
82
82
82
82
C6
CE
FA
80
80
80
80
ENDCHAR
STARTCHAR 00B6
ENCODING 182
SWIDTH 565 0
DWIDTH 11 0
BBX 9 15 1 -4
BITMAP
3F80
7900
F900
F900
F900
7900
0900
0900
0900
0900
0900
0900
0900
0900
0900
ENDCHAR
STARTCHAR 00B7
ENCODING 183
SWIDTH 565 0
DWIDTH 11 0
BBX 3 3 4 4
BITMAP
E0
E0
E0
ENDCHAR
STARTCHAR 00B8
ENCODING 184
SWIDTH 565 0
DWIDTH 11 0
BBX 5 4 3 -4
BITMAP
20
38
08
F8
ENDCHAR
STARTCHAR 00B9
ENCODING 185
SWIDTH 565 0
DWIDTH 11 0
BBX 6 8 3 4
BITMAP
30
F0
B0
30
30
30
30
FC
ENDCHAR
STARTCHAR 00BA
ENCODING 186
SWIDTH 565 0
DWIDTH 11 0
BBX 7 7 2 4
BITMAP
3C
66
C2
82
C2
66
3C
ENDCHAR
STARTCHAR 00BB
ENCODING 187
SWIDTH 565 0
DWIDTH 11 0
BBX 9 7 1 2
BITMAP
C400
6600
3300
1980
3300
6600
C400
ENDCHAR
STARTCHAR 00BC
ENCODING 188
SWIDTH 565 0
DWIDTH 11 0
BBX 11 15 0 -2
BITMAP
6000
A000
2000
2000
2000
F840
0180
0600
0840
30C0
4140
0240
03E0
0040
0040
ENDCHAR
STARTCHAR 00BD
ENCODING 189
SWIDTH 565 0
DWIDTH 11 0
BBX 11 15 0 -2
BITMAP
6000
A000
2000
2000
2040
F8C0
0300
0400
19C0
6220
4220
0060
00C0
0120
03E0
ENDCHAR
STARTCHAR 00BE
ENCODING 190
SWIDTH 565 0
DWIDTH 11 0
BBX 11 15 0 -2
BITMAP
F000
8800
3000
0800
8840
F8C0
0300
0600
1840
30C0
4140
0240
03E0
0040
0040
ENDCHAR
STARTCHAR 00BF
ENCODING 191
SWIDTH 565 0
DWIDTH 11 0
BBX 7 13 2 -4
BITMAP
18
18
00
00
18
18
18
70
40
C0
42
66
3C
ENDCHAR
STARTCHAR 00C0
ENCODING 192
SWIDTH 565 0
DWIDTH 11 0
BBX 11 17 0 0
BITMAP
1000
1800
0C00
0200
0000
0000
3E00
0A00
0B00
1900
1100
1180
3F80
2080
20C0
6040
F1E0
ENDCHAR
STARTCHAR 00C1
ENCODING 193
SWIDTH 565 0
DWIDTH 11 0
BBX 11 17 0 0
BITMAP
0100
0700
0E00
1800
0000
0000
3E00
0A00
0B00
1900
1100
1180
3F80
2080
20C0
6040
F1E0
ENDCHAR
STARTCHAR 00C2
ENCODING 194
SWIDTH 565 0
DWIDTH 11 0
BBX 11 17 0 0
BITMAP
0400
0E00
1B00
1100
0000
0000
3E00
0A00
0B00
1900
1100
1180
3F80
2080
20C0
6040
F1E0
ENDCHAR
STARTCHAR 00C3
ENCODING 195
SWIDTH 565 0
DWIDTH 11 0
BBX 11 16 0 0
BITMAP
1D80
3700
0000
0000
0000
3E00
0A00
0B00
1900
1100
1180
3F80
2080
20C0
6040
F1E0
ENDCHAR
STARTCHAR 00C4
ENCODING 196
SWIDTH 565 0
DWIDTH 11 0
BBX 11 15 0 0
BITMAP
1100
1100
0000
0000
3E00
0A00
0B00
1900
1100
1180
3F80
2080
20C0
6040
F1E0
ENDCHAR
STARTCHAR 00C5
ENCODING 197
SWIDTH 565 0
DWIDTH 11 0
BBX 11 17 0 0
BITMAP
0E00
1B00
1300
0E00
0000
0000
3E00
0A00
0B00
1900
1100
1180
3F80
2080
20C0
6040
F1E0
ENDCHAR
STARTCHAR 00C6
ENCODING 198
SWIDTH 565 0
DWIDTH 11 0
BBX 11 11 0 0
BITMAP
3FC0
0E40
1E40
1640
1600
3780
3E00
2660
6660
6660
F7E0
ENDCHAR
STARTCHAR 00C7
ENCODING 199
SWIDTH 565 0
DWIDTH 11 0
BBX 9 15 1 -4
BITMAP
1E80
7380
6180
C080
C000
C000
C000
C000
4000
6180
3F00
0800
0E00
0200
1E00
ENDCHAR
STARTCHAR 00C8
ENCODING 200
SWIDTH 565 0
DWIDTH 11 0
BBX 9 17 1 0
BITMAP
1000
3800
1C00
0600
0000
0000
FF80
6080
6080
6400
6400
7C00
6400
6080
6080
6080
FF80
ENDCHAR
STARTCHAR 00C9
ENCODING 201
SWIDTH 565 0
DWIDTH 11 0
BBX 9 17 1 0
BITMAP
0200
0600
1C00
1000
0000
0000
FF80
6080
6080
6400
6400
7C00
6400
6080
6080
6080
FF80
ENDCHAR
STARTCHAR 00CA
ENCODING 202
SWIDTH 565 0
DWIDTH 11 0
BBX 9 17 1 0
BITMAP
0800
0C00
1E00
2100
0000
0000
FF80
6080
6080
6400
6400
7C00
6400
6080
6080
6080
FF80
ENDCHAR
STARTCHAR 00CB
ENCODING 203
SWIDTH 565 0
DWIDTH 11 0
BBX 9 15 1 0
BITMAP
3300
3300
0000
0000
FF80
6080
6080
6400
6400
7C00
6400
6080
6080
6080
FF80
ENDCHAR
STARTCHAR 00CC
ENCODING 204
SWIDTH 565 0
DWIDTH 11 0
BBX 8 17 2 0
BITMAP
40
60
38
0C
00
00
FE
10
10
10
10
10
10
10
10
10
FF
ENDCHAR
STARTCHAR 00CD
ENCODING 205
SWIDTH 565 0
DWIDTH 11 0
BBX 8 17 2 0
BITMAP
04
0C
18
30
00
00
FE
10
10
10
10
10
10
10
10
10
FF
ENDCHAR
STARTCHAR 00CE
ENCODING 206
SWIDTH 565 0
DWIDTH 11 0
BBX 8 17 2 0
BITMAP
10
38
6C
46
00
00
FE
10
10
10
10
10
10
10
10
10
FF
ENDCHAR
STARTCHAR 00CF
ENCODING 207
SWIDTH 565 0
DWIDTH 11 0
BBX 8 15 2 0
BITMAP
66
66
00
00
FE
10
10
10
10
10
10
10
10
10
FF
ENDCHAR
STARTCHAR 00D0
ENCODING 208
SWIDTH 565 0
DWIDTH 11 0
BBX 11 11 0 0
BITMAP
7F00
3380
30C0
3040
3060
FC60
3060
3040
30C0
3380
7F00
ENDCHAR
STARTCHAR 00D1
ENCODING 209
SWIDTH 565 0
DWIDTH 11 0
BBX 10 16 1 0
BITMAP
3900
6E00
0000
0000
0000
E3C0
7180
7180
5980
4980
4D80
4580
4780
4380
4180
F180
ENDCHAR
STARTCHAR 00D2
ENCODING 210
SWIDTH 565 0
DWIDTH 11 0
BBX 10 17 1 0
BITMAP
2000
3800
1C00
0600
0000
0000
3E00
7300
C180
C080
80C0
80C0
80C0
C080
C180
7300
3E00
ENDCHAR
STARTCHAR 00D3
ENCODING 211
SWIDTH 565 0
DWIDTH 11 0
BBX 10 17 1 0
BITMAP
0200
0600
1C00
1000
0000
0000
3E00
7300
C180
C080
80C0
80C0
80C0
C080
C180
7300
3E00
ENDCHAR
STARTCHAR 00D4
ENCODING 212
SWIDTH 565 0
DWIDTH 11 0
BBX 10 17 1 0
BITMAP
0800
1C00
3600
2300
0000
0000
3E00
7300
C180
C080
80C0
80C0
80C0
C080
C180
7300
3E00
ENDCHAR
STARTCHAR 00D5
ENCODING 213
SWIDTH 565 0
DWIDTH 11 0
BBX 10 16 1 0
BITMAP
3900
6E00
0000
0000
0000
3E00
7300
C180
C080
80C0
80C0
80C0
C080
C180
7300
3E00
ENDCHAR
STARTCHAR 00D6
ENCODING 214
SWIDTH 565 0
DWIDTH 11 0
BBX 10 15 1 0
BITMAP
3300
3300
0000
0000
3E00
7300
C180
C080
80C0
80C0
80C0
C080
C180
7300
3E00
ENDCHAR
STARTCHAR 00D7
ENCODING 215
SWIDTH 565 0
DWIDTH 11 0
BBX 7 7 2 2
BITMAP
C2
66
3C
18
3C
66
C2
ENDCHAR
STARTCHAR 00D8
ENCODING 216
SWIDTH 565 0
DWIDTH 11 0
BBX 10 12 1 0
BITMAP
0080
3F80
7700
C380
C680
8480
8CC0
98C0
F080
6180
7300
FE00
ENDCHAR
STARTCHAR 00D9
ENCODING 217
SWIDTH 565 0
DWIDTH 11 0
BBX 10 17 1 0
BITMAP
2000
3000
1C00
0600
0000
0000
F3C0
4180
4180
4180
4180
4180
4180
4180
4100
7300
3E00
ENDCHAR
STARTCHAR 00DA
ENCODING 218
SWIDTH 565 0
DWIDTH 11 0
BBX 10 17 1 0
BITMAP
0200
0600
0C00
1800
0000
0000
F3C0
4180
4180
4180
4180
4180
4180
4180
4100
7300
3E00
ENDCHAR
STARTCHAR 00DB
ENCODING 219
SWIDTH 565 0
DWIDTH 11 0
BBX 10 17 1 0
BITMAP
0800
1C00
3600
2300
0000
0000
F3C0
4180
4180
4180
4180
4180
4180
4180
4100
7300
3E00
ENDCHAR
STARTCHAR 00DC
ENCODING 220
SWIDTH 565 0
DWIDTH 11 0
BBX 10 15 1 0
BITMAP
3300
3300
0000
0000
F3C0
4180
4180
4180
4180
4180
4180
4180
4100
7300
3E00
ENDCHAR
STARTCHAR 00DD
ENCODING 221
SWIDTH 565 0
DWIDTH 11 0
BBX 10 17 1 0
BITMAP
0200
0700
0C00
1800
0000
0000
F3C0
4180
6300
3200
1600
1C00
0800
0800
0800
0800
7F00
ENDCHAR
STARTCHAR 00DE
ENCODING 222
SWIDTH 565 0
DWIDTH 11 0
BBX 9 11 1 0
BITMAP
FC00
2000
3F00
2380
2180
2180
2180
3F00
2000
2000
FC00
ENDCHAR
STARTCHAR 00DF
ENCODING 223
SWIDTH 565 0
DWIDTH 11 0
BBX 10 12 0 0
BITMAP
0F00
1B80
3080
3080
3180
3700
3180
30C0
30C0
30C0
3180
F700
ENDCHAR
STARTCHAR 00E0
ENCODING 224
SWIDTH 565 0
DWIDTH 11 0
BBX 10 14 1 0
BITMAP
1000
3800
0C00
0600
0000
3E00
7300
0100
0100
7F00
E300
C100
E700
7DC0
ENDCHAR
STARTCHAR 00E1
ENCODING 225
SWIDTH 565 0
DWIDTH 11 0
BBX 10 14 1 0
BITMAP
0200
0E00
1C00
3000
0000
3E00
7300
0100
0100
7F00
E300
C100
E700
7DC0
ENDCHAR
STARTCHAR 00E2
ENCODING 226
SWIDTH 565 0
DWIDTH 11 0
BBX 10 14 1 0
BITMAP
0800
1C00
3600
2300
0000
3E00
7300
0100
0100
7F00
E300
C100
E700
7DC0
ENDCHAR
STARTCHAR 00E3
ENCODING 227
SWIDTH 565 0
DWIDTH 11 0
BBX 10 13 1 0
BITMAP
3900
6E00
0000
0000
3E00
7300
0100
0100
7F00
E300
C100
E700
7DC0
ENDCHAR
STARTCHAR 00E4
ENCODING 228
SWIDTH 565 0
DWIDTH 11 0
BBX 10 12 1 0
BITMAP
3300
3300
0000
3E00
7300
0100
0100
7F00
E300
C100
E700
7DC0
ENDCHAR
STARTCHAR 00E5
ENCODING 229
SWIDTH 565 0
DWIDTH 11 0
BBX 10 14 1 0
BITMAP
1C00
1200
3200
1E00
0000
3E00
7300
0100
0100
7F00
E300
C100
E700
7DC0
ENDCHAR
STARTCHAR 00E6
ENCODING 230
SWIDTH 565 0
DWIDTH 11 0
BBX 10 9 1 0
BITMAP
7780
DD80
0CC0
7FC0
C800
8800
8C00
DDC0
7780
ENDCHAR
STARTCHAR 00E7
ENCODING 231
SWIDTH 565 0
DWIDTH 11 0
BBX 9 13 1 -4
BITMAP
1F80
7380
4180
C180
C000
C000
C000
6180
3F00
0800
0E00
0200
3E00
ENDCHAR
STARTCHAR 00E8
ENCODING 232
SWIDTH 565 0
DWIDTH 11 0
BBX 9 14 1 0
BITMAP
1000
3800
0C00
0600
0000
1E00
7300
4180
C180
FF80
C000
4000
7380
3F00
ENDCHAR
STARTCHAR 00E9
ENCODING 233
SWIDTH 565 0
DWIDTH 11 0
BBX 9 14 1 0
BITMAP
0200
0600
1C00
1000
0000
1E00
7300
4180
C180
FF80
C000
4000
7380
3F00
ENDCHAR
STARTCHAR 00EA
ENCODING 234
SWIDTH 565 0
DWIDTH 11 0
BBX 9 14 1 0
BITMAP
0800
0C00
1600
2300
0000
1E00
7300
4180
C180
FF80
C000
4000
7380
3F00
ENDCHAR
STARTCHAR 00EB
ENCODING 235
SWIDTH 565 0
DWIDTH 11 0
BBX 9 12 1 0
BITMAP
3300
3300
0000
1E00
7300
4180
C180
FF80
C000
4000
7380
3F00
ENDCHAR
STARTCHAR 00EC
ENCODING 236
SWIDTH 565 0
DWIDTH 11 0
BBX 8 14 2 0
BITMAP
40
60
30
08
00
F8
18
18
18
18
18
18
18
FF
ENDCHAR
STARTCHAR 00ED
ENCODING 237
SWIDTH 565 0
DWIDTH 11 0
BBX 8 14 2 0
BITMAP
04
1C
38
60
00
F8
18
18
18
18
18
18
18
FF
ENDCHAR
STARTCHAR 00EE
ENCODING 238
SWIDTH 565 0
DWIDTH 11 0
BBX 8 14 2 0
BITMAP
10
38
6C
46
00
F8
18
18
18
18
18
18
18
FF
ENDCHAR
STARTCHAR 00EF
ENCODING 239
SWIDTH 565 0
DWIDTH 11 0
BBX 8 12 2 0
BITMAP
66
66
00
F8
18
18
18
18
18
18
18
FF
ENDCHAR
STARTCHAR 00F0
ENCODING 240
SWIDTH 565 0
DWIDTH 11 0
BBX 9 12 1 0
BITMAP
3B00
1C00
2200
1F00
7380
4180
C080
C080
C080
4180
7300
1E00
ENDCHAR
STARTCHAR 00F1
ENCODING 241
SWIDTH 565 0
DWIDTH 11 0
BBX 10 13 1 0
BITMAP
3900
6E00
0000
0000
EE00
7B00
6100
6180
6180
6180
6180
6180
F3C0
ENDCHAR
STARTCHAR 00F2
ENCODING 242
SWIDTH 565 0
DWIDTH 11 0
BBX 9 14 1 0
BITMAP
2000
3800
1C00
0600
0000
1E00
7300
4180
C080
C080
C080
4180
7300
1E00
ENDCHAR
STARTCHAR 00F3
ENCODING 243
SWIDTH 565 0
DWIDTH 11 0
BBX 9 14 1 0
BITMAP
0200
0600
1C00
1000
0000
1E00
7300
4180
C080
C080
C080
4180
7300
1E00
ENDCHAR
STARTCHAR 00F4
ENCODING 244
SWIDTH 565 0
DWIDTH 11 0
BBX 9 14 1 0
BITMAP
0800
1C00
3600
2300
0000
1E00
7300
4180
C080
C080
C080
4180
7300
1E00
ENDCHAR
STARTCHAR 00F5
ENCODING 245
SWIDTH 565 0
DWIDTH 11 0
BBX 9 13 1 0
BITMAP
3900
6E00
0000
0000
1E00
7300
4180
C080
C080
C080
4180
7300
1E00
ENDCHAR
STARTCHAR 00F6
ENCODING 246
SWIDTH 565 0
DWIDTH 11 0
BBX 9 12 1 0
BITMAP
3300
3300
0000
1E00
7300
4180
C080
C080
C080
4180
7300
1E00
ENDCHAR
STARTCHAR 00F7
ENCODING 247
SWIDTH 565 0
DWIDTH 11 0
BBX 8 9 2 1
BITMAP
18
18
00
00
FF
00
00
18
18
ENDCHAR
STARTCHAR 00F8
ENCODING 248
SWIDTH 565 0
DWIDTH 11 0
BBX 10 9 1 0
BITMAP
1EC0
7780
4380
C680
CC80
D880
7180
7300
9E00
ENDCHAR
STARTCHAR 00F9
ENCODING 249
SWIDTH 565 0
DWIDTH 11 0
BBX 10 14 1 0
BITMAP
2000
3000
1C00
0600
0000
C700
4100
4100
4100
4100
4100
4300
6700
3DC0
ENDCHAR
STARTCHAR 00FA
ENCODING 250
SWIDTH 565 0
DWIDTH 11 0
BBX 10 14 1 0
BITMAP
0200
0600
0C00
1000
0000
C700
4100
4100
4100
4100
4100
4300
6700
3DC0
ENDCHAR
STARTCHAR 00FB
ENCODING 251
SWIDTH 565 0
DWIDTH 11 0
BBX 10 14 1 0
BITMAP
0800
1C00
3600
2300
0000
C700
4100
4100
4100
4100
4100
4300
6700
3DC0
ENDCHAR
STARTCHAR 00FC
ENCODING 252
SWIDTH 565 0
DWIDTH 11 0
BBX 10 12 1 0
BITMAP
2200
2200
0000
C700
4100
4100
4100
4100
4100
4300
6700
3DC0
ENDCHAR
STARTCHAR 00FD
ENCODING 253
SWIDTH 565 0
DWIDTH 11 0
BBX 11 18 0 -4
BITMAP
0100
0300
0600
0C00
0000
F9E0
20C0
3080
1180
1900
0B00
0E00
0600
0400
0400
0800
3800
7000
ENDCHAR
STARTCHAR 00FE
ENCODING 254
SWIDTH 565 0
DWIDTH 11 0
BBX 10 16 0 -4
BITMAP
6000
2000
2000
2F00
3980
30C0
2040
2040
2040
30C0
3980
2F00
2000
2000
2000
F800
ENDCHAR
STARTCHAR 00FF
ENCODING 255
SWIDTH 565 0
DWIDTH 11 0
BBX 11 16 0 -4
BITMAP
1980
1980
0000
F9E0
20C0
3080
1180
1900
0B00
0E00
0600
0400
0400
0800
3800
7000
ENDCHAR
STARTCHAR 0152
ENCODING 140
SWIDTH 565 0
DWIDTH 11 0
BBX 10 11 1 0
BITMAP
3F80
6C80
CC80
8C80
8C00
8F00
8C00
8CC0
CCC0
6CC0
3FC0
ENDCHAR
STARTCHAR 0153
ENCODING 156
SWIDTH 565 0
DWIDTH 11 0
BBX 10 9 1 0
BITMAP
7780
DD80
8CC0
8FC0
8800
8800
8C00
DDC0
7780
ENDCHAR
STARTCHAR 0160
ENCODING 138
SWIDTH 565 0
DWIDTH 11 0
BBX 9 17 1 0
BITMAP
2200
6600
1C00
0800
0000
0000
3D00
6700
4100
4000
7000
1F00
0180
C180
C180
F300
DE00
ENDCHAR
STARTCHAR 0161
ENCODING 154
SWIDTH 565 0
DWIDTH 11 0
BBX 8 14 2 0
BITMAP
44
66
38
10
00
7A
CE
82
C0
7E
03
83
E6
BC
ENDCHAR
STARTCHAR 0178
ENCODING 159
SWIDTH 565 0
DWIDTH 11 0
BBX 10 15 1 0
BITMAP
3300
3300
0000
0000
F3C0
4180
6300
3200
1600
1C00
0800
0800
0800
0800
7F00
ENDCHAR
STARTCHAR 017D
ENCODING 142
SWIDTH 565 0
DWIDTH 11 0
BBX 8 17 2 0
BITMAP
42
66
3C
18
00
00
FF
82
86
8C
08
10
30
63
43
C3
FF
ENDCHAR
STARTCHAR 017E
ENCODING 158
SWIDTH 565 0
DWIDTH 11 0
BBX 8 14 2 0
BITMAP
42
66
3C
18
00
FF
86
8C
08
18
31
63
C3
FF
ENDCHAR
STARTCHAR 0192
ENCODING 131
SWIDTH 565 0
DWIDTH 11 0
BBX 11 15 0 -3
BITMAP
01E0
0340
0600
0600
0600
1F80
0400
0400
0400
0400
0400
0C00
0C00
0800
F800
ENDCHAR
STARTCHAR 02C6
ENCODING 136
SWIDTH 565 0
DWIDTH 11 0
BBX 6 4 3 10
BITMAP
20
70
D8
8C
ENDCHAR
STARTCHAR 02DC
ENCODING 152
SWIDTH 565 0
DWIDTH 11 0
BBX 7 2 2 11
BITMAP
72
DC
ENDCHAR
STARTCHAR 2013
ENCODING 150
SWIDTH 565 0
DWIDTH 11 0
BBX 8 1 2 5
BITMAP
FF
ENDCHAR
STARTCHAR 2014
ENCODING 151
SWIDTH 565 0
DWIDTH 11 0
BBX 12 1 0 5
BITMAP
FFF0
ENDCHAR
STARTCHAR 2018
ENCODING 145
SWIDTH 565 0
DWIDTH 11 0
BBX 3 5 4 7
BITMAP
20
20
60
60
C0
ENDCHAR
STARTCHAR 2019
ENCODING 146
SWIDTH 565 0
DWIDTH 11 0
BBX 3 5 4 7
BITMAP
60
60
60
C0
C0
ENDCHAR
STARTCHAR 201A
ENCODING 130
SWIDTH 565 0
DWIDTH 11 0
BBX 3 5 4 -2
BITMAP
60
60
60
C0
C0
ENDCHAR
STARTCHAR 201C
ENCODING 147
SWIDTH 565 0
DWIDTH 11 0
BBX 8 5 2 7
BITMAP
23
62
66
C6
CE
ENDCHAR
STARTCHAR 201D
ENCODING 148
SWIDTH 565 0
DWIDTH 11 0
BBX 8 5 2 7
BITMAP
67
66
C6
C4
8C
ENDCHAR
STARTCHAR 201E
ENCODING 132
SWIDTH 565 0
DWIDTH 11 0
BBX 8 5 2 -2
BITMAP
67
66
C6
C4
8C
ENDCHAR
STARTCHAR 2020
ENCODING 134
SWIDTH 565 0
DWIDTH 11 0
BBX 6 9 3 2
BITMAP
20
20
FC
20
20
20
20
20
20
ENDCHAR
STARTCHAR 2021
ENCODING 135
SWIDTH 565 0
DWIDTH 11 0
BBX 6 9 3 2
BITMAP
20
20
FC
20
20
20
FC
20
20
ENDCHAR
STARTCHAR 2022
ENCODING 149
SWIDTH 565 0
DWIDTH 11 0
BBX 4 5 4 3
BITMAP
F0
F0
F0
F0
F0
ENDCHAR
STARTCHAR 2026
ENCODING 133
SWIDTH 565 0
DWIDTH 11 0
BBX 9 2 1 0
BITMAP
CD80
CD80
ENDCHAR
STARTCHAR 2030
ENCODING 137
SWIDTH 565 0
DWIDTH 11 0
BBX 15 11 0 0
BITMAP
7800
4840
CCC0
7980
0300
0600
09DC
3376
6222
4376
01DC
ENDCHAR
STARTCHAR 2039
ENCODING 139
SWIDTH 565 0
DWIDTH 11 0
BBX 4 7 4 2
BITMAP
30
60
C0
80
C0
60
30
ENDCHAR
STARTCHAR 203A
ENCODING 155
SWIDTH 565 0
DWIDTH 11 0
BBX 4 7 4 2
BITMAP
80
C0
60
30
60
C0
80
ENDCHAR
STARTCHAR 20AC
ENCODING 128
SWIDTH 565 0
DWIDTH 11 0
BBX 9 11 1 0
BITMAP
1E80
3380
6080
FC80
6000
6000
FC00
6000
2080
3B80
1F00
ENDCHAR
STARTCHAR 2122
ENCODING 153
SWIDTH 565 0
DWIDTH 11 0
BBX 11 5 1 7
BITMAP
F660
4660
45A0
45A0
4420
ENDCHAR
ENDFONT
