STARTFONT 2.1
COMMENT
COMMENT Converted from OpenType font "CourierPrime-Bold.ttf" by "otf2bdf 3.0".
COMMENT
FONT -FreeType-courier prime-Bold-R-Normal--14-100-100-100-P-70-Windows-cp1252
SIZE 10 100 100
FONTBOUNDINGBOX 11 18 0 -4
STARTPROPERTIES 19
FOUNDRY "FreeType"
FAMILY_NAME "courier prime"
WEIGHT_NAME "Bold"
SLANT "R"
SETWIDTH_NAME "Normal"
ADD_STYLE_NAME ""
PIXEL_SIZE 14
POINT_SIZE 100
RESOLUTION_X 100
RESOLUTION_Y 100
SPACING "P"
AVERAGE_WIDTH 70
CHARSET_REGISTRY "Windows"
CHARSET_ENCODING "cp1252"
FONT_ASCENT 10
FONT_DESCENT 4
COPYRIGHT "Copyright 2015 The Courier Prime Project Authors (https://github.com/quoteunquoteapps/CourierPrime)."
_OTF_FONTFILE "CourierPrime-Bold.ttf"
_OTF_PSNAME "CourierPrime-Bold"
ENDPROPERTIES
CHARS 219
STARTCHAR 000D
ENCODING 13
SWIDTH 576 0
DWIDTH 8 0
BBX 0 0 0 0
BITMAP
ENDCHAR
STARTCHAR 0020
ENCODING 32
SWIDTH 576 0
DWIDTH 8 0
BBX 0 0 0 0
BITMAP
ENDCHAR
STARTCHAR 0021
ENCODING 33
SWIDTH 576 0
DWIDTH 8 0
BBX 2 10 3 0
BITMAP
C0
C0
C0
C0
C0
40
00
00
C0
C0
ENDCHAR
STARTCHAR 0022
ENCODING 34
SWIDTH 576 0
DWIDTH 8 0
BBX 6 4 1 6
BITMAP
CC
CC
4C
4C
ENDCHAR
STARTCHAR 0023
ENCODING 35
SWIDTH 576 0
DWIDTH 8 0
BBX 8 9 0 0
BITMAP
12
12
7F
7F
24
FE
FE
6C
48
ENDCHAR
STARTCHAR 0024
ENCODING 36
SWIDTH 576 0
DWIDTH 8 0
BBX 6 11 1 -1
BITMAP
10
10
7C
FC
D4
7C
9C
FC
FC
10
10
ENDCHAR
STARTCHAR 0025
ENCODING 37
SWIDTH 576 0
DWIDTH 8 0
BBX 8 9 0 0
BITMAP
60
F3
F6
6C
18
36
6F
4F
06
ENDCHAR
STARTCHAR 0026
ENCODING 38
SWIDTH 576 0
DWIDTH 8 0
BBX 7 9 1 0
BITMAP
78
7C
CC
40
6E
FE
98
FE
76
ENDCHAR
STARTCHAR 0027
ENCODING 39
SWIDTH 576 0
DWIDTH 8 0
BBX 2 4 3 6
BITMAP
C0
C0
C0
40
ENDCHAR
STARTCHAR 0028
ENCODING 40
SWIDTH 576 0
DWIDTH 8 0
BBX 4 13 2 -3
BITMAP
10
30
60
C0
C0
C0
80
C0
C0
C0
60
30
10
ENDCHAR
STARTCHAR 0029
ENCODING 41
SWIDTH 576 0
DWIDTH 8 0
BBX 5 13 2 -3
BITMAP
C0
E0
70
30
10
18
18
18
10
30
70
E0
C0
ENDCHAR
STARTCHAR 002A
ENCODING 42
SWIDTH 576 0
DWIDTH 8 0
BBX 6 6 1 3
BITMAP
30
30
DC
FC
38
68
ENDCHAR
STARTCHAR 002B
ENCODING 43
SWIDTH 576 0
DWIDTH 8 0
BBX 6 7 1 1
BITMAP
30
30
30
FC
FC
30
30
ENDCHAR
STARTCHAR 002C
ENCODING 44
SWIDTH 576 0
DWIDTH 8 0
BBX 3 5 2 -2
BITMAP
60
60
60
40
C0
ENDCHAR
STARTCHAR 002D
ENCODING 45
SWIDTH 576 0
DWIDTH 8 0
BBX 6 2 1 3
BITMAP
FC
FC
ENDCHAR
STARTCHAR 002E
ENCODING 46
SWIDTH 576 0
DWIDTH 8 0
BBX 2 3 3 0
BITMAP
C0
C0
C0
ENDCHAR
STARTCHAR 002F
ENCODING 47
SWIDTH 576 0
DWIDTH 8 0
BBX 6 13 1 -3
BITMAP
04
0C
0C
18
18
10
30
30
20
60
60
C0
C0
ENDCHAR
STARTCHAR 0030
ENCODING 48
SWIDTH 576 0
DWIDTH 8 0
BBX 6 9 1 0
BITMAP
38
7C
CC
C4
C4
C4
CC
7C
38
ENDCHAR
STARTCHAR 0031
ENCODING 49
SWIDTH 576 0
DWIDTH 8 0
BBX 6 9 1 0
BITMAP
10
70
F0
10
10
10
10
7C
FC
ENDCHAR
STARTCHAR 0032
ENCODING 50
SWIDTH 576 0
DWIDTH 8 0
BBX 6 9 1 0
BITMAP
78
FC
CC
0C
18
38
74
FC
FC
ENDCHAR
STARTCHAR 0033
ENCODING 51
SWIDTH 576 0
DWIDTH 8 0
BBX 6 9 1 0
BITMAP
78
FC
4C
3C
3C
0C
0C
FC
78
ENDCHAR
STARTCHAR 0034
ENCODING 52
SWIDTH 576 0
DWIDTH 8 0
BBX 7 9 1 0
BITMAP
18
38
38
78
D8
FE
FC
3C
3C
ENDCHAR
STARTCHAR 0035
ENCODING 53
SWIDTH 576 0
DWIDTH 8 0
BBX 6 9 1 0
BITMAP
7C
7C
40
78
FC
0C
0C
FC
78
ENDCHAR
STARTCHAR 0036
ENCODING 54
SWIDTH 576 0
DWIDTH 8 0
BBX 6 9 1 0
BITMAP
1C
7C
60
D8
FC
CC
C4
7C
38
ENDCHAR
STARTCHAR 0037
ENCODING 55
SWIDTH 576 0
DWIDTH 8 0
BBX 6 9 1 0
BITMAP
FC
FC
CC
48
18
18
30
30
30
ENDCHAR
STARTCHAR 0038
ENCODING 56
SWIDTH 576 0
DWIDTH 8 0
BBX 6 9 1 0
BITMAP
78
7C
CC
7C
78
CC
CC
FC
78
ENDCHAR
STARTCHAR 0039
ENCODING 57
SWIDTH 576 0
DWIDTH 8 0
BBX 6 9 1 0
BITMAP
78
FC
CC
CC
FC
3C
0C
78
70
ENDCHAR
STARTCHAR 003A
ENCODING 58
SWIDTH 576 0
DWIDTH 8 0
BBX 2 7 3 0
BITMAP
C0
C0
00
00
00
C0
C0
ENDCHAR
STARTCHAR 003B
ENCODING 59
SWIDTH 576 0
DWIDTH 8 0
BBX 3 10 3 -3
BITMAP
C0
C0
C0
00
00
E0
C0
C0
80
80
ENDCHAR
STARTCHAR 003C
ENCODING 60
SWIDTH 576 0
DWIDTH 8 0
BBX 6 7 1 1
BITMAP
04
1C
70
C0
70
1C
04
ENDCHAR
STARTCHAR 003D
ENCODING 61
SWIDTH 576 0
DWIDTH 8 0
BBX 6 5 1 2
BITMAP
FC
FC
00
FC
FC
ENDCHAR
STARTCHAR 003E
ENCODING 62
SWIDTH 576 0
DWIDTH 8 0
BBX 7 7 1 1
BITMAP
C0
F0
3C
0E
3C
F0
C0
ENDCHAR
STARTCHAR 003F
ENCODING 63
SWIDTH 576 0
DWIDTH 8 0
BBX 6 10 1 0
BITMAP
78
FC
CC
0C
3C
38
30
00
30
30
ENDCHAR
STARTCHAR 0040
ENCODING 64
SWIDTH 576 0
DWIDTH 8 0
BBX 8 9 0 -1
BITMAP
1C
62
5D
D5
A5
AD
DE
40
3C
ENDCHAR
STARTCHAR 0041
ENCODING 65
SWIDTH 576 0
DWIDTH 8 0
BBX 8 9 0 0
BITMAP
78
7C
3C
34
26
7E
7E
E7
F7
ENDCHAR
STARTCHAR 0042
ENCODING 66
SWIDTH 576 0
DWIDTH 8 0
BBX 8 9 0 0
BITMAP
FC
7E
22
26
3C
3E
23
7F
FE
ENDCHAR
STARTCHAR 0043
ENCODING 67
SWIDTH 576 0
DWIDTH 8 0
BBX 7 9 1 0
BITMAP
3E
7E
C6
C6
C0
C0
C0
7E
3C
ENDCHAR
STARTCHAR 0044
ENCODING 68
SWIDTH 576 0
DWIDTH 8 0
BBX 8 9 0 0
BITMAP
FC
7E
63
63
63
63
63
7E
FC
ENDCHAR
STARTCHAR 0045
ENCODING 69
SWIDTH 576 0
DWIDTH 8 0
BBX 8 9 0 0
BITMAP
FF
7F
63
78
78
63
63
7F
FF
ENDCHAR
STARTCHAR 0046
ENCODING 70
SWIDTH 576 0
DWIDTH 8 0
BBX 8 9 0 0
BITMAP
FF
7F
23
20
3C
3C
20
78
F8
ENDCHAR
STARTCHAR 0047
ENCODING 71
SWIDTH 576 0
DWIDTH 8 0
BBX 8 9 0 0
BITMAP
3E
7E
62
40
CF
4F
62
7E
3E
ENDCHAR
STARTCHAR 0048
ENCODING 72
SWIDTH 576 0
DWIDTH 8 0
BBX 8 9 0 0
BITMAP
F7
F7
62
7E
7E
62
62
F7
F7
ENDCHAR
STARTCHAR 0049
ENCODING 73
SWIDTH 576 0
DWIDTH 8 0
BBX 6 9 1 0
BITMAP
FC
FC
30
30
30
30
30
FC
FC
ENDCHAR
STARTCHAR 004A
ENCODING 74
SWIDTH 576 0
DWIDTH 8 0
BBX 7 9 1 0
BITMAP
7E
7E
08
08
08
88
88
F8
70
ENDCHAR
STARTCHAR 004B
ENCODING 75
SWIDTH 576 0
DWIDTH 8 0
BBX 8 9 0 0
BITMAP
F7
F7
66
6C
7C
7E
66
F3
F3
ENDCHAR
STARTCHAR 004C
ENCODING 76
SWIDTH 576 0
DWIDTH 8 0
BBX 8 9 0 0
BITMAP
F8
78
30
30
30
33
33
7F
FF
ENDCHAR
STARTCHAR 004D
ENCODING 77
SWIDTH 576 0
DWIDTH 8 0
BBX 8 9 0 0
BITMAP
E7
E7
76
5E
5A
5A
42
E7
E7
ENDCHAR
STARTCHAR 004E
ENCODING 78
SWIDTH 576 0
DWIDTH 8 0
BBX 8 9 0 0
BITMAP
E7
F7
72
7A
6A
6E
66
F6
F2
ENDCHAR
STARTCHAR 004F
ENCODING 79
SWIDTH 576 0
DWIDTH 8 0
BBX 8 9 0 0
BITMAP
3C
7E
63
43
C3
43
63
7E
3C
ENDCHAR
STARTCHAR 0050
ENCODING 80
SWIDTH 576 0
DWIDTH 8 0
BBX 8 9 0 0
BITMAP
FE
7E
33
33
3E
3E
30
78
F8
ENDCHAR
STARTCHAR 0051
ENCODING 81
SWIDTH 576 0
DWIDTH 8 0
BBX 8 11 0 -2
BITMAP
3C
7E
63
C3
C3
43
67
7E
18
3E
7F
ENDCHAR
STARTCHAR 0052
ENCODING 82
SWIDTH 576 0
DWIDTH 8 0
BBX 8 9 0 0
BITMAP
FC
7E
22
22
3E
3C
26
77
F3
ENDCHAR
STARTCHAR 0053
ENCODING 83
SWIDTH 576 0
DWIDTH 8 0
BBX 6 9 1 0
BITMAP
7C
FC
C4
F0
7C
0C
C4
FC
F8
ENDCHAR
STARTCHAR 0054
ENCODING 84
SWIDTH 576 0
DWIDTH 8 0
BBX 7 9 1 0
BITMAP
FE
FE
B6
B6
30
30
30
7C
FC
ENDCHAR
STARTCHAR 0055
ENCODING 85
SWIDTH 576 0
DWIDTH 8 0
BBX 8 9 0 0
BITMAP
F7
F7
62
62
62
62
66
7E
3C
ENDCHAR
STARTCHAR 0056
ENCODING 86
SWIDTH 576 0
DWIDTH 8 0
BBX 8 9 0 0
BITMAP
F7
F7
66
26
36
3C
1C
18
18
ENDCHAR
STARTCHAR 0057
ENCODING 87
SWIDTH 576 0
DWIDTH 8 0
BBX 9 9 0 0
BITMAP
E780
E700
4B00
5B00
5A00
7E00
7600
6600
6600
ENDCHAR
STARTCHAR 0058
ENCODING 88
SWIDTH 576 0
DWIDTH 8 0
BBX 8 9 0 0
BITMAP
F7
77
36
3C
18
3C
36
F7
F7
ENDCHAR
STARTCHAR 0059
ENCODING 89
SWIDTH 576 0
DWIDTH 8 0
BBX 8 9 0 0
BITMAP
F7
F7
26
3C
1C
18
18
3E
3E
ENDCHAR
STARTCHAR 005A
ENCODING 90
SWIDTH 576 0
DWIDTH 8 0
BBX 6 9 1 0
BITMAP
FC
FC
DC
D8
30
74
64
FC
FC
ENDCHAR
STARTCHAR 005B
ENCODING 91
SWIDTH 576 0
DWIDTH 8 0
BBX 4 13 2 -2
BITMAP
F0
F0
C0
C0
C0
C0
C0
C0
C0
C0
C0
F0
F0
ENDCHAR
STARTCHAR 005C
ENCODING 92
SWIDTH 576 0
DWIDTH 8 0
BBX 6 13 1 -3
BITMAP
C0
C0
60
60
20
30
30
10
18
18
0C
0C
04
ENDCHAR
STARTCHAR 005D
ENCODING 93
SWIDTH 576 0
DWIDTH 8 0
BBX 4 13 2 -2
BITMAP
F0
F0
10
10
10
10
10
10
10
10
10
F0
F0
ENDCHAR
STARTCHAR 005E
ENCODING 94
SWIDTH 576 0
DWIDTH 8 0
BBX 6 6 1 3
BITMAP
10
30
38
78
4C
CC
ENDCHAR
STARTCHAR 005F
ENCODING 95
SWIDTH 576 0
DWIDTH 8 0
BBX 9 2 0 -4
BITMAP
FF80
FF80
ENDCHAR
STARTCHAR 0060
ENCODING 96
SWIDTH 576 0
DWIDTH 8 0
BBX 4 3 2 8
BITMAP
C0
E0
30
ENDCHAR
STARTCHAR 0061
ENCODING 97
SWIDTH 576 0
DWIDTH 8 0
BBX 7 7 1 0
BITMAP
F8
FC
7C
FC
CC
FE
76
ENDCHAR
STARTCHAR 0062
ENCODING 98
SWIDTH 576 0
DWIDTH 8 0
BBX 8 10 0 0
BITMAP
E0
E0
60
7C
7E
63
63
63
FE
FC
ENDCHAR
STARTCHAR 0063
ENCODING 99
SWIDTH 576 0
DWIDTH 8 0
BBX 6 7 1 0
BITMAP
74
FC
C4
C0
C0
FC
78
ENDCHAR
STARTCHAR 0064
ENCODING 100
SWIDTH 576 0
DWIDTH 8 0
BBX 7 10 1 0
BITMAP
1C
1C
0C
7C
FC
CC
CC
CC
FE
76
ENDCHAR
STARTCHAR 0065
ENCODING 101
SWIDTH 576 0
DWIDTH 8 0
BBX 7 7 1 0
BITMAP
78
FC
FC
FE
C0
FC
7C
ENDCHAR
STARTCHAR 0066
ENCODING 102
SWIDTH 576 0
DWIDTH 8 0
BBX 7 10 1 0
BITMAP
1C
3E
30
FC
FC
30
30
30
FC
FC
ENDCHAR
STARTCHAR 0067
ENCODING 103
SWIDTH 576 0
DWIDTH 8 0
BBX 7 10 1 -3
BITMAP
76
FE
CC
CC
CC
FC
7C
0C
FC
F8
ENDCHAR
STARTCHAR 0068
ENCODING 104
SWIDTH 576 0
DWIDTH 8 0
BBX 8 10 0 0
BITMAP
E0
E0
60
6C
7E
76
66
66
77
F7
ENDCHAR
STARTCHAR 0069
ENCODING 105
SWIDTH 576 0
DWIDTH 8 0
BBX 7 10 1 0
BITMAP
30
30
00
70
70
30
30
30
FC
FE
ENDCHAR
STARTCHAR 006A
ENCODING 106
SWIDTH 576 0
DWIDTH 8 0
BBX 5 13 1 -3
BITMAP
08
08
00
78
78
08
08
08
08
08
08
F8
70
ENDCHAR
STARTCHAR 006B
ENCODING 107
SWIDTH 576 0
DWIDTH 8 0
BBX 8 10 0 0
BITMAP
E0
E0
60
6F
6F
6C
7C
7E
77
73
ENDCHAR
STARTCHAR 006C
ENCODING 108
SWIDTH 576 0
DWIDTH 8 0
BBX 6 10 1 0
BITMAP
F0
F0
30
30
30
30
30
30
FC
FC
ENDCHAR
STARTCHAR 006D
ENCODING 109
SWIDTH 576 0
DWIDTH 8 0
BBX 8 7 0 0
BITMAP
DB
FF
7B
5B
5B
5B
5B
ENDCHAR
STARTCHAR 006E
ENCODING 110
SWIDTH 576 0
DWIDTH 8 0
BBX 8 7 0 0
BITMAP
EE
FE
72
62
62
77
77
ENDCHAR
STARTCHAR 006F
ENCODING 111
SWIDTH 576 0
DWIDTH 8 0
BBX 7 7 1 0
BITMAP
78
FC
C6
C6
C6
FC
78
ENDCHAR
STARTCHAR 0070
ENCODING 112
SWIDTH 576 0
DWIDTH 8 0
BBX 8 10 0 -3
BITMAP
FC
FE
63
63
63
7E
7C
60
F0
F8
ENDCHAR
STARTCHAR 0071
ENCODING 113
SWIDTH 576 0
DWIDTH 8 0
BBX 7 10 1 -3
BITMAP
76
FE
CC
CC
CC
FC
7C
0C
1E
1E
ENDCHAR
STARTCHAR 0072
ENCODING 114
SWIDTH 576 0
DWIDTH 8 0
BBX 7 7 1 0
BITMAP
EE
FE
70
60
60
F8
F8
ENDCHAR
STARTCHAR 0073
ENCODING 115
SWIDTH 576 0
DWIDTH 8 0
BBX 6 7 1 0
BITMAP
7C
FC
C4
7C
8C
FC
FC
ENDCHAR
STARTCHAR 0074
ENCODING 116
SWIDTH 576 0
DWIDTH 8 0
BBX 7 9 1 0
BITMAP
60
60
FC
FC
60
60
60
3E
3C
ENDCHAR
STARTCHAR 0075
ENCODING 117
SWIDTH 576 0
DWIDTH 8 0
BBX 8 7 0 0
BITMAP
EE
EE
66
66
66
7F
3B
ENDCHAR
STARTCHAR 0076
ENCODING 118
SWIDTH 576 0
DWIDTH 8 0
BBX 8 7 0 0
BITMAP
F7
F7
66
34
3C
1C
18
ENDCHAR
STARTCHAR 0077
ENCODING 119
SWIDTH 576 0
DWIDTH 8 0
BBX 9 7 0 0
BITMAP
E780
E700
5B00
5A00
7E00
7600
6600
ENDCHAR
STARTCHAR 0078
ENCODING 120
SWIDTH 576 0
DWIDTH 8 0
BBX 8 7 0 0
BITMAP
77
77
3C
18
3C
77
FF
ENDCHAR
STARTCHAR 0079
ENCODING 121
SWIDTH 576 0
DWIDTH 8 0
BBX 8 10 0 -3
BITMAP
F7
F7
26
34
3C
1C
18
18
70
60
ENDCHAR
STARTCHAR 007A
ENCODING 122
SWIDTH 576 0
DWIDTH 8 0
BBX 6 7 1 0
BITMAP
FC
FC
D8
30
64
FC
FC
ENDCHAR
STARTCHAR 007B
ENCODING 123
SWIDTH 576 0
DWIDTH 8 0
BBX 6 13 1 -3
BITMAP
1C
3C
30
30
30
E0
E0
30
30
30
30
3C
0C
ENDCHAR
STARTCHAR 007C
ENCODING 124
SWIDTH 576 0
DWIDTH 8 0
BBX 2 13 3 -3
BITMAP
C0
C0
C0
C0
C0
C0
C0
C0
C0
C0
C0
C0
C0
ENDCHAR
STARTCHAR 007D
ENCODING 125
SWIDTH 576 0
DWIDTH 8 0
BBX 5 13 2 -3
BITMAP
C0
E0
20
20
20
38
38
30
20
20
60
E0
C0
ENDCHAR
STARTCHAR 007E
ENCODING 126
SWIDTH 576 0
DWIDTH 8 0
BBX 7 3 1 3
BITMAP
60
FE
9C
ENDCHAR
STARTCHAR 00A0
ENCODING 160
SWIDTH 576 0
DWIDTH 8 0
BBX 0 0 0 0
BITMAP
ENDCHAR
STARTCHAR 00A1
ENCODING 161
SWIDTH 576 0
DWIDTH 8 0
BBX 2 10 3 -3
BITMAP
C0
C0
C0
00
40
C0
C0
C0
C0
C0
ENDCHAR
STARTCHAR 00A2
ENCODING 162
SWIDTH 576 0
DWIDTH 8 0
BBX 6 11 1 -1
BITMAP
10
10
74
FC
D4
D0
D4
FC
7C
10
10
ENDCHAR
STARTCHAR 00A3
ENCODING 163
SWIDTH 576 0
DWIDTH 8 0
BBX 6 9 1 0
BITMAP
38
7C
4C
60
F8
F8
60
FC
FC
ENDCHAR
STARTCHAR 00A4
ENCODING 164
SWIDTH 576 0
DWIDTH 8 0
BBX 7 8 1 1
BITMAP
84
F6
FC
CC
CC
7C
FE
84
ENDCHAR
STARTCHAR 00A5
ENCODING 165
SWIDTH 576 0
DWIDTH 8 0
BBX 8 9 0 0
BITMAP
F7
F7
66
7F
1C
7E
7E
3E
3E
ENDCHAR
STARTCHAR 00A6
ENCODING 166
SWIDTH 576 0
DWIDTH 8 0
BBX 2 13 3 -3
BITMAP
C0
C0
C0
C0
C0
C0
00
C0
C0
C0
C0
C0
C0
ENDCHAR
STARTCHAR 00A7
ENCODING 167
SWIDTH 576 0
DWIDTH 8 0
BBX 6 11 1 -2
BITMAP
7C
7C
6C
F0
DC
EC
7C
1C
CC
F8
78
ENDCHAR
STARTCHAR 00A8
ENCODING 168
SWIDTH 576 0
DWIDTH 8 0
BBX 5 2 2 8
BITMAP
90
D8
ENDCHAR
STARTCHAR 00A9
ENCODING 169
SWIDTH 576 0
DWIDTH 8 0
BBX 8 9 0 0
BITMAP
3C
62
5D
BD
A1
BD
5D
62
3C
ENDCHAR
STARTCHAR 00AA
ENCODING 170
SWIDTH 576 0
DWIDTH 8 0
BBX 5 5 2 3
BITMAP
F0
90
F0
90
F8
ENDCHAR
STARTCHAR 00AB
ENCODING 171
SWIDTH 576 0
DWIDTH 8 0
BBX 7 6 1 1
BITMAP
66
6C
D8
D8
6C
66
ENDCHAR
STARTCHAR 00AC
ENCODING 172
SWIDTH 576 0
DWIDTH 8 0
BBX 7 5 1 2
BITMAP
FC
FE
06
06
06
ENDCHAR
STARTCHAR 00AD
ENCODING 173
SWIDTH 576 0
DWIDTH 8 0
BBX 6 2 1 2
BITMAP
FC
FC
ENDCHAR
STARTCHAR 00AE
ENCODING 174
SWIDTH 576 0
DWIDTH 8 0
BBX 7 8 1 2
BITMAP
38
44
BC
AA
BA
AC
44
38
ENDCHAR
STARTCHAR 00AF
ENCODING 175
SWIDTH 576 0
DWIDTH 8 0
BBX 4 2 2 8
BITMAP
F0
F0
ENDCHAR
STARTCHAR 00B0
ENCODING 176
SWIDTH 576 0
DWIDTH 8 0
BBX 5 5 1 4
BITMAP
30
78
D8
78
70
ENDCHAR
STARTCHAR 00B1
ENCODING 177
SWIDTH 576 0
DWIDTH 8 0
BBX 6 8 1 0
BITMAP
30
30
FC
FC
30
30
FC
FC
ENDCHAR
STARTCHAR 00B2
ENCODING 178
SWIDTH 576 0
DWIDTH 8 0
BBX 5 6 2 3
BITMAP
F0
90
10
30
D8
F8
ENDCHAR
STARTCHAR 00B3
ENCODING 179
SWIDTH 576 0
DWIDTH 8 0
BBX 5 6 2 3
BITMAP
F0
90
70
10
98
F0
ENDCHAR
STARTCHAR 00B4
ENCODING 180
SWIDTH 576 0
DWIDTH 8 0
BBX 4 3 3 8
BITMAP
20
F0
80
ENDCHAR
STARTCHAR 00B5
ENCODING 181
SWIDTH 576 0
DWIDTH 8 0
BBX 6 10 1 -3
BITMAP
C4
C4
C4
CC
CC
FC
F4
C0
C0
C0
ENDCHAR
STARTCHAR 00B6
ENCODING 182
SWIDTH 576 0
DWIDTH 8 0
BBX 7 12 1 -3
BITMAP
7E
FE
EC
EC
EC
6C
2C
2C
2C
2C
2C
2C
ENDCHAR
STARTCHAR 00B7
ENCODING 183
SWIDTH 576 0
DWIDTH 8 0
BBX 2 3 3 3
BITMAP
C0
C0
C0
ENDCHAR
STARTCHAR 00B8
ENCODING 184
SWIDTH 576 0
DWIDTH 8 0
BBX 4 3 2 -3
BITMAP
60
70
F0
ENDCHAR
STARTCHAR 00B9
ENCODING 185
SWIDTH 576 0
DWIDTH 8 0
BBX 5 6 2 3
BITMAP
60
E0
20
20
20
F8
ENDCHAR
STARTCHAR 00BA
ENCODING 186
SWIDTH 576 0
DWIDTH 8 0
BBX 5 5 2 3
BITMAP
F0
98
98
98
70
ENDCHAR
STARTCHAR 00BB
ENCODING 187
SWIDTH 576 0
DWIDTH 8 0
BBX 7 6 1 1
BITMAP
98
CC
64
66
CC
98
ENDCHAR
STARTCHAR 00BC
ENCODING 188
SWIDTH 576 0
DWIDTH 8 0
BBX 9 12 0 -2
BITMAP
4000
C000
4000
4000
F300
0600
1800
3300
4300
0500
0F80
0100
ENDCHAR
STARTCHAR 00BD
ENCODING 189
SWIDTH 576 0
DWIDTH 8 0
BBX 9 12 0 -1
BITMAP
4000
C000
4000
4000
F300
0400
1800
6700
4500
0100
0700
0F80
ENDCHAR
STARTCHAR 00BE
ENCODING 190
SWIDTH 576 0
DWIDTH 8 0
BBX 9 12 0 -2
BITMAP
E000
9000
6000
1000
E300
0400
1800
3300
4300
0500
0F80
0100
ENDCHAR
STARTCHAR 00BF
ENCODING 191
SWIDTH 576 0
DWIDTH 8 0
BBX 5 10 2 -3
BITMAP
60
60
00
20
60
E0
80
98
F8
70
ENDCHAR
STARTCHAR 00C0
ENCODING 192
SWIDTH 576 0
DWIDTH 8 0
BBX 8 13 0 0
BITMAP
20
38
08
00
78
7C
3C
34
26
7E
7E
E7
F7
ENDCHAR
STARTCHAR 00C1
ENCODING 193
SWIDTH 576 0
DWIDTH 8 0
BBX 8 13 0 0
BITMAP
0C
1C
30
00
78
7C
3C
34
26
7E
7E
E7
F7
ENDCHAR
STARTCHAR 00C2
ENCODING 194
SWIDTH 576 0
DWIDTH 8 0
BBX 8 13 0 0
BITMAP
18
3C
26
00
78
7C
3C
34
26
7E
7E
E7
F7
ENDCHAR
STARTCHAR 00C3
ENCODING 195
SWIDTH 576 0
DWIDTH 8 0
BBX 8 12 0 0
BITMAP
3E
7C
00
78
7C
3C
34
26
7E
7E
E7
F7
ENDCHAR
STARTCHAR 00C4
ENCODING 196
SWIDTH 576 0
DWIDTH 8 0
BBX 8 12 0 0
BITMAP
24
24
00
78
7C
3C
34
26
7E
7E
E7
F7
ENDCHAR
STARTCHAR 00C5
ENCODING 197
SWIDTH 576 0
DWIDTH 8 0
BBX 8 14 0 0
BITMAP
18
3C
3C
18
00
78
7C
3C
34
26
7E
7E
E7
F7
ENDCHAR
STARTCHAR 00C6
ENCODING 198
SWIDTH 576 0
DWIDTH 8 0
BBX 8 9 0 0
BITMAP
7F
7F
29
2C
6E
78
79
EF
EF
ENDCHAR
STARTCHAR 00C7
ENCODING 199
SWIDTH 576 0
DWIDTH 8 0
BBX 7 12 1 -3
BITMAP
3E
7E
C6
C6
C0
C0
C0
C4
7E
10
18
38
ENDCHAR
STARTCHAR 00C8
ENCODING 200
SWIDTH 576 0
DWIDTH 8 0
BBX 8 13 0 0
BITMAP
30
38
0C
00
FF
7F
63
78
78
63
63
7F
FF
ENDCHAR
STARTCHAR 00C9
ENCODING 201
SWIDTH 576 0
DWIDTH 8 0
BBX 8 13 0 0
BITMAP
04
1C
10
00
FF
7F
63
78
78
63
63
7F
FF
ENDCHAR
STARTCHAR 00CA
ENCODING 202
SWIDTH 576 0
DWIDTH 8 0
BBX 8 13 0 0
BITMAP
08
1C
26
00
FF
7F
63
78
78
63
63
7F
FF
ENDCHAR
STARTCHAR 00CB
ENCODING 203
SWIDTH 576 0
DWIDTH 8 0
BBX 8 12 0 0
BITMAP
36
36
00
FF
7F
63
78
78
63
63
7F
FF
ENDCHAR
STARTCHAR 00CC
ENCODING 204
SWIDTH 576 0
DWIDTH 8 0
BBX 6 13 1 0
BITMAP
60
70
18
00
FC
FC
30
30
30
30
30
FC
FC
ENDCHAR
STARTCHAR 00CD
ENCODING 205
SWIDTH 576 0
DWIDTH 8 0
BBX 6 13 1 0
BITMAP
08
3C
20
00
FC
FC
30
30
30
30
30
FC
FC
ENDCHAR
STARTCHAR 00CE
ENCODING 206
SWIDTH 576 0
DWIDTH 8 0
BBX 6 13 1 0
BITMAP
30
78
4C
00
FC
FC
30
30
30
30
30
FC
FC
ENDCHAR
STARTCHAR 00CF
ENCODING 207
SWIDTH 576 0
DWIDTH 8 0
BBX 6 12 1 0
BITMAP
48
6C
00
FC
FC
30
30
30
30
30
FC
FC
ENDCHAR
STARTCHAR 00D0
ENCODING 208
SWIDTH 576 0
DWIDTH 8 0
BBX 8 9 0 0
BITMAP
FC
7E
63
63
FB
F3
63
7E
FC
ENDCHAR
STARTCHAR 00D1
ENCODING 209
SWIDTH 576 0
DWIDTH 8 0
BBX 8 12 0 0
BITMAP
3E
3C
00
E7
F7
72
7A
6A
6E
66
F6
F2
ENDCHAR
STARTCHAR 00D2
ENCODING 210
SWIDTH 576 0
DWIDTH 8 0
BBX 8 13 0 0
BITMAP
30
38
0C
00
3C
7E
63
43
C3
43
63
7E
3C
ENDCHAR
STARTCHAR 00D3
ENCODING 211
SWIDTH 576 0
DWIDTH 8 0
BBX 8 13 0 0
BITMAP
04
1C
10
00
3C
7E
63
43
C3
43
63
7E
3C
ENDCHAR
STARTCHAR 00D4
ENCODING 212
SWIDTH 576 0
DWIDTH 8 0
BBX 8 13 0 0
BITMAP
18
3C
26
00
3C
7E
63
43
C3
43
63
7E
3C
ENDCHAR
STARTCHAR 00D5
ENCODING 213
SWIDTH 576 0
DWIDTH 8 0
BBX 8 12 0 0
BITMAP
3E
3C
00
3C
7E
63
43
C3
43
63
7E
3C
ENDCHAR
STARTCHAR 00D6
ENCODING 214
SWIDTH 576 0
DWIDTH 8 0
BBX 8 12 0 0
BITMAP
24
36
00
3C
7E
63
43
C3
43
63
7E
3C
ENDCHAR
STARTCHAR 00D7
ENCODING 215
SWIDTH 576 0
DWIDTH 8 0
BBX 6 6 1 1
BITMAP
4C
EC
38
38
FC
4C
ENDCHAR
STARTCHAR 00D8
ENCODING 216
SWIDTH 576 0
DWIDTH 8 0
BBX 8 10 0 0
BITMAP
03
3E
7E
67
4F
DB
53
73
7E
7C
ENDCHAR
STARTCHAR 00D9
ENCODING 217
SWIDTH 576 0
DWIDTH 8 0
BBX 8 13 0 0
BITMAP
30
38
0C
00
F7
F7
62
62
62
62
66
7E
3C
ENDCHAR
STARTCHAR 00DA
ENCODING 218
SWIDTH 576 0
DWIDTH 8 0
BBX 8 13 0 0
BITMAP
04
1E
10
00
F7
F7
62
62
62
62
66
7E
3C
ENDCHAR
STARTCHAR 00DB
ENCODING 219
SWIDTH 576 0
DWIDTH 8 0
BBX 8 13 0 0
BITMAP
18
3C
26
00
F7
F7
62
62
62
62
66
7E
3C
ENDCHAR
STARTCHAR 00DC
ENCODING 220
SWIDTH 576 0
DWIDTH 8 0
BBX 8 12 0 0
BITMAP
24
36
00
F7
F7
62
62
62
62
66
7E
3C
ENDCHAR
STARTCHAR 00DD
ENCODING 221
SWIDTH 576 0
DWIDTH 8 0
BBX 8 13 0 0
BITMAP
04
1E
10
00
F7
F7
26
3C
1C
18
18
3E
3E
ENDCHAR
STARTCHAR 00DE
ENCODING 222
SWIDTH 576 0
DWIDTH 8 0
BBX 6 9 1 0
BITMAP
F8
F8
7C
7C
64
7C
7C
F8
F8
ENDCHAR
STARTCHAR 00DF
ENCODING 223
SWIDTH 576 0
DWIDTH 8 0
BBX 7 10 0 0
BITMAP
1C
3E
66
66
6C
6E
62
62
EE
EC
ENDCHAR
STARTCHAR 00E0
ENCODING 224
SWIDTH 576 0
DWIDTH 8 0
BBX 7 11 1 0
BITMAP
20
70
18
00
F8
FC
7C
FC
CC
FE
76
ENDCHAR
STARTCHAR 00E1
ENCODING 225
SWIDTH 576 0
DWIDTH 8 0
BBX 7 11 1 0
BITMAP
18
38
60
00
F8
FC
7C
FC
CC
FE
76
ENDCHAR
STARTCHAR 00E2
ENCODING 226
SWIDTH 576 0
DWIDTH 8 0
BBX 7 11 1 0
BITMAP
30
78
4C
00
F8
FC
7C
FC
CC
FE
76
ENDCHAR
STARTCHAR 00E3
ENCODING 227
SWIDTH 576 0
DWIDTH 8 0
BBX 7 10 1 0
BITMAP
7C
78
00
F8
FC
7C
FC
CC
FE
76
ENDCHAR
STARTCHAR 00E4
ENCODING 228
SWIDTH 576 0
DWIDTH 8 0
BBX 7 10 1 0
BITMAP
48
6C
00
F8
FC
7C
FC
CC
FE
76
ENDCHAR
STARTCHAR 00E5
ENCODING 229
SWIDTH 576 0
DWIDTH 8 0
BBX 7 12 1 0
BITMAP
30
38
78
30
00
F8
FC
7C
FC
CC
FE
76
ENDCHAR
STARTCHAR 00E6
ENCODING 230
SWIDTH 576 0
DWIDTH 8 0
BBX 8 7 0 0
BITMAP
76
FF
3F
FF
D8
FF
7F
ENDCHAR
STARTCHAR 00E7
ENCODING 231
SWIDTH 576 0
DWIDTH 8 0
BBX 6 10 1 -3
BITMAP
74
FC
C4
C0
C4
7C
30
38
08
78
ENDCHAR
STARTCHAR 00E8
ENCODING 232
SWIDTH 576 0
DWIDTH 8 0
BBX 7 11 1 0
BITMAP
20
70
18
00
78
FC
FC
FE
C0
FC
7C
ENDCHAR
STARTCHAR 00E9
ENCODING 233
SWIDTH 576 0
DWIDTH 8 0
BBX 7 11 1 0
BITMAP
08
38
20
00
78
FC
FC
FE
C0
FC
7C
ENDCHAR
STARTCHAR 00EA
ENCODING 234
SWIDTH 576 0
DWIDTH 8 0
BBX 7 11 1 0
BITMAP
30
78
4C
00
78
FC
FC
FE
C0
FC
7C
ENDCHAR
STARTCHAR 00EB
ENCODING 235
SWIDTH 576 0
DWIDTH 8 0
BBX 7 10 1 0
BITMAP
48
6C
00
78
FC
FC
FE
C0
FC
7C
ENDCHAR
STARTCHAR 00EC
ENCODING 236
SWIDTH 576 0
DWIDTH 8 0
BBX 7 11 1 0
BITMAP
40
70
10
00
70
70
30
30
30
FC
FE
ENDCHAR
STARTCHAR 00ED
ENCODING 237
SWIDTH 576 0
DWIDTH 8 0
BBX 7 11 1 0
BITMAP
18
38
60
00
70
70
30
30
30
FC
FE
ENDCHAR
STARTCHAR 00EE
ENCODING 238
SWIDTH 576 0
DWIDTH 8 0
BBX 7 11 1 0
BITMAP
30
78
4C
00
70
70
30
30
30
FC
FE
ENDCHAR
STARTCHAR 00EF
ENCODING 239
SWIDTH 576 0
DWIDTH 8 0
BBX 7 10 1 0
BITMAP
48
6C
00
70
70
30
30
30
FC
FE
ENDCHAR
STARTCHAR 00F0
ENCODING 240
SWIDTH 576 0
DWIDTH 8 0
BBX 7 10 1 0
BITMAP
28
7C
78
3C
FC
CE
C6
C4
FC
78
ENDCHAR
STARTCHAR 00F1
ENCODING 241
SWIDTH 576 0
DWIDTH 8 0
BBX 8 10 0 0
BITMAP
3E
3C
00
EE
FE
72
62
62
77
77
ENDCHAR
STARTCHAR 00F2
ENCODING 242
SWIDTH 576 0
DWIDTH 8 0
BBX 7 11 1 0
BITMAP
60
70
18
00
78
FC
C6
C6
C6
FC
78
ENDCHAR
STARTCHAR 00F3
ENCODING 243
SWIDTH 576 0
DWIDTH 8 0
BBX 7 11 1 0
BITMAP
08
38
20
00
78
FC
C6
C6
C6
FC
78
ENDCHAR
STARTCHAR 00F4
ENCODING 244
SWIDTH 576 0
DWIDTH 8 0
BBX 7 11 1 0
BITMAP
30
78
4C
00
78
FC
C6
C6
C6
FC
78
ENDCHAR
STARTCHAR 00F5
ENCODING 245
SWIDTH 576 0
DWIDTH 8 0
BBX 7 10 1 0
BITMAP
7C
78
00
78
FC
C6
C6
C6
FC
78
ENDCHAR
STARTCHAR 00F6
ENCODING 246
SWIDTH 576 0
DWIDTH 8 0
BBX 7 10 1 0
BITMAP
48
6C
00
78
FC
C6
C6
C6
FC
78
ENDCHAR
STARTCHAR 00F7
ENCODING 247
SWIDTH 576 0
DWIDTH 8 0
BBX 6 8 1 1
BITMAP
30
30
00
FC
FC
00
30
30
ENDCHAR
STARTCHAR 00F8
ENCODING 248
SWIDTH 576 0
DWIDTH 8 0
BBX 7 8 1 0
BITMAP
02
7E
FC
DE
F6
E6
FC
F8
ENDCHAR
STARTCHAR 00F9
ENCODING 249
SWIDTH 576 0
DWIDTH 8 0
BBX 8 11 0 0
BITMAP
30
38
0C
00
EE
EE
66
66
66
7F
3B
ENDCHAR
STARTCHAR 00FA
ENCODING 250
SWIDTH 576 0
DWIDTH 8 0
BBX 8 11 0 0
BITMAP
04
1E
10
00
EE
EE
66
66
66
7F
3B
ENDCHAR
STARTCHAR 00FB
ENCODING 251
SWIDTH 576 0
DWIDTH 8 0
BBX 8 11 0 0
BITMAP
18
3C
26
00
EE
EE
66
66
66
7F
3B
ENDCHAR
STARTCHAR 00FC
ENCODING 252
SWIDTH 576 0
DWIDTH 8 0
BBX 8 10 0 0
BITMAP
24
24
00
EE
EE
66
66
66
7F
3B
ENDCHAR
STARTCHAR 00FD
ENCODING 253
SWIDTH 576 0
DWIDTH 8 0
BBX 8 14 0 -3
BITMAP
04
1E
10
00
F7
F7
26
34
3C
1C
18
18
70
60
ENDCHAR
STARTCHAR 00FE
ENCODING 254
SWIDTH 576 0
DWIDTH 8 0
BBX 8 13 0 -3
BITMAP
E0
E0
60
7C
7E
63
63
63
7E
7C
60
F0
F8
ENDCHAR
STARTCHAR 00FF
ENCODING 255
SWIDTH 576 0
DWIDTH 8 0
BBX 8 13 0 -3
BITMAP
24
36
00
F7
F7
26
34
3C
1C
18
18
70
60
ENDCHAR
STARTCHAR 0152
ENCODING 140
SWIDTH 576 0
DWIDTH 8 0
BBX 8 9 0 0
BITMAP
3F
7F
4B
CC
CC
C8
4B
7F
3F
ENDCHAR
STARTCHAR 0153
ENCODING 156
SWIDTH 576 0
DWIDTH 8 0
BBX 8 7 0 0
BITMAP
76
FF
DF
DF
D8
FF
7F
ENDCHAR
STARTCHAR 0160
ENCODING 138
SWIDTH 576 0
DWIDTH 8 0
BBX 6 13 1 0
BITMAP
4C
78
30
00
7C
FC
C4
F0
7C
0C
C4
FC
F8
ENDCHAR
STARTCHAR 0161
ENCODING 154
SWIDTH 576 0
DWIDTH 8 0
BBX 6 11 1 0
BITMAP
4C
78
30
00
7C
FC
C4
7C
8C
FC
FC
ENDCHAR
STARTCHAR 0178
ENCODING 159
SWIDTH 576 0
DWIDTH 8 0
BBX 8 12 0 0
BITMAP
24
36
00
F7
F7
26
3C
1C
18
18
3E
3E
ENDCHAR
STARTCHAR 017D
ENCODING 142
SWIDTH 576 0
DWIDTH 8 0
BBX 6 13 1 0
BITMAP
4C
78
30
00
FC
FC
DC
D8
30
74
64
FC
FC
ENDCHAR
STARTCHAR 017E
ENCODING 158
SWIDTH 576 0
DWIDTH 8 0
BBX 6 11 1 0
BITMAP
4C
78
30
00
FC
FC
D8
30
64
FC
FC
ENDCHAR
STARTCHAR 0192
ENCODING 131
SWIDTH 576 0
DWIDTH 8 0
BBX 8 12 0 -2
BITMAP
0F
0F
18
7E
3E
18
18
18
18
10
F0
60
ENDCHAR
STARTCHAR 02C6
ENCODING 136
SWIDTH 576 0
DWIDTH 8 0
BBX 5 3 2 8
BITMAP
60
F0
98
ENDCHAR
STARTCHAR 02DC
ENCODING 152
SWIDTH 576 0
DWIDTH 8 0
BBX 5 2 2 8
BITMAP
F8
F0
ENDCHAR
STARTCHAR 2013
ENCODING 150
SWIDTH 576 0
DWIDTH 8 0
BBX 6 2 1 3
BITMAP
FC
FC
ENDCHAR
STARTCHAR 2014
ENCODING 151
SWIDTH 576 0
DWIDTH 8 0
BBX 9 2 0 3
BITMAP
FF80
FF80
ENDCHAR
STARTCHAR 2018
ENCODING 145
SWIDTH 576 0
DWIDTH 8 0
BBX 2 4 3 6
BITMAP
40
40
C0
C0
ENDCHAR
STARTCHAR 2019
ENCODING 146
SWIDTH 576 0
DWIDTH 8 0
BBX 3 4 3 6
BITMAP
E0
C0
C0
80
ENDCHAR
STARTCHAR 201A
ENCODING 130
SWIDTH 576 0
DWIDTH 8 0
BBX 3 4 3 -1
BITMAP
E0
C0
C0
80
ENDCHAR
STARTCHAR 201C
ENCODING 147
SWIDTH 576 0
DWIDTH 8 0
BBX 6 4 1 6
BITMAP
64
4C
CC
CC
ENDCHAR
STARTCHAR 201D
ENCODING 148
SWIDTH 576 0
DWIDTH 8 0
BBX 7 4 1 6
BITMAP
EE
CC
CC
88
ENDCHAR
STARTCHAR 201E
ENCODING 132
SWIDTH 576 0
DWIDTH 8 0
BBX 7 4 1 -1
BITMAP
EE
CC
CC
88
ENDCHAR
STARTCHAR 2020
ENCODING 134
SWIDTH 576 0
DWIDTH 8 0
BBX 5 7 2 2
BITMAP
60
60
F8
F8
60
60
60
ENDCHAR
STARTCHAR 2021
ENCODING 135
SWIDTH 576 0
DWIDTH 8 0
BBX 5 8 2 1
BITMAP
60
60
F8
F8
60
F8
F8
60
ENDCHAR
STARTCHAR 2022
ENCODING 149
SWIDTH 576 0
DWIDTH 8 0
BBX 4 4 2 2
BITMAP
70
F0
F0
70
ENDCHAR
STARTCHAR 2026
ENCODING 133
SWIDTH 576 0
DWIDTH 8 0
BBX 7 2 1 0
BITMAP
B6
B6
ENDCHAR
STARTCHAR 2030
ENCODING 137
SWIDTH 576 0
DWIDTH 8 0
BBX 11 9 0 0
BITMAP
6000
F300
F600
6C00
1800
36C0
6FC0
4FE0
06C0
ENDCHAR
STARTCHAR 2039
ENCODING 139
SWIDTH 576 0
DWIDTH 8 0
BBX 4 6 2 1
BITMAP
30
60
60
E0
60
30
ENDCHAR
STARTCHAR 203A
ENCODING 155
SWIDTH 576 0
DWIDTH 8 0
BBX 3 6 3 1
BITMAP
80
C0
60
60
C0
80
ENDCHAR
STARTCHAR 20AC
ENCODING 128
SWIDTH 576 0
DWIDTH 8 0
BBX 8 9 0 0
BITMAP
1F
3F
7B
FB
60
F8
78
3F
1E
ENDCHAR
STARTCHAR 2122
ENCODING 153
SWIDTH 576 0
DWIDTH 8 0
BBX 9 4 0 5
BITMAP
FD80
2D80
2A80
2880
ENDCHAR
ENDFONT
