STARTFONT 2.1
COMMENT
COMMENT Converted from OpenType font "CourierPrime-Bold.ttf" by "otf2bdf 3.0".
COMMENT
FONT -FreeType-courier prime cp1252-Bold-R-Normal--33-240-100-100-P-156-ISO10646-1
SIZE 24 100 100
FONTBOUNDINGBOX 26 36 -1 -8
STARTPROPERTIES 19
FOUNDRY "FreeType"
FAMILY_NAME "courier prime cp1252"
WEIGHT_NAME "Bold"
SLANT "R"
SETWIDTH_NAME "Normal"
ADD_STYLE_NAME ""
PIXEL_SIZE 33
POINT_SIZE 240
RESOLUTION_X 100
RESOLUTION_Y 100
SPACING "P"
AVERAGE_WIDTH 156
CHARSET_REGISTRY "ISO10646"
CHARSET_ENCODING "1"
FONT_ASCENT 25
FONT_DESCENT 11
COPYRIGHT "Copyright 2015 The Courier Prime Project Authors (https://github.com/quoteunquoteapps/CourierPrime)."
_OTF_FONTFILE "CourierPrime-Bold.ttf"
_OTF_PSNAME "CourierPrime-Bold"
ENDPROPERTIES
CHARS 219
STARTCHAR 000D
ENCODING 13
SWIDTH 600 0
DWIDTH 20 0
BBX 0 0 0 0
BITMAP
ENDCHAR
STARTCHAR 0020
ENCODING 32
SWIDTH 600 0
DWIDTH 20 0
BBX 0 0 0 0
BITMAP
ENDCHAR
STARTCHAR 0021
ENCODING 33
SWIDTH 600 0
DWIDTH 20 0
BBX 5 20 7 0
BITMAP
F8
F8
78
78
78
78
78
78
78
78
78
70
00
00
00
78
F8
F8
F8
78
ENDCHAR
STARTCHAR 0022
ENCODING 34
SWIDTH 600 0
DWIDTH 20 0
BBX 14 9 3 11
BITMAP
F87C
F87C
F87C
F878
F878
7078
7078
7038
7038
ENDCHAR
STARTCHAR 0023
ENCODING 35
SWIDTH 600 0
DWIDTH 20 0
BBX 18 19 1 0
BITMAP
038700
038700
038700
078F00
7FFFC0
7FFFC0
7FFFC0
3FFFC0
0E1C00
0E1C00
0E3C00
FFFF00
FFFF80
FFFF80
FFFF00
387000
387000
38F000
386000
ENDCHAR
STARTCHAR 0024
ENCODING 36
SWIDTH 600 0
DWIDTH 20 0
BBX 14 23 3 -2
BITMAP
0700
0700
0700
0700
3F38
7FFC
FFFC
F77C
F718
FF80
FFF0
3FF8
07FC
E73C
F73C
FF7C
FFFC
FFF8
E7E0
0700
0700
0700
0700
ENDCHAR
STARTCHAR 0025
ENCODING 37
SWIDTH 600 0
DWIDTH 20 0
BBX 18 19 1 0
BITMAP
3C0000
7F0000
FF0380
E78780
E78F80
FF1F00
7F3C00
3C7800
00F000
03E000
07CF00
0FBF80
1F3FC0
3E79C0
7C71C0
F879C0
603FC0
003F80
000F00
ENDCHAR
STARTCHAR 0026
ENCODING 38
SWIDTH 600 0
DWIDTH 20 0
BBX 16 19 2 0
BITMAP
07C0
1FF8
3FF8
7FF8
7C38
7838
7C00
3C00
3E1F
3F1F
7FBF
FFFF
F3F8
F1F8
F0F8
FFFF
FFFF
7FDF
1F0F
ENDCHAR
STARTCHAR 0027
ENCODING 39
SWIDTH 600 0
DWIDTH 20 0
BBX 6 9 7 11
BITMAP
FC
F8
F8
78
78
78
78
70
30
ENDCHAR
STARTCHAR 0028
ENCODING 40
SWIDTH 600 0
DWIDTH 20 0
BBX 11 27 4 -5
BITMAP
00C0
03E0
07E0
0FC0
1F80
3F00
3E00
7C00
7800
7800
F800
F000
F000
F000
F000
F000
F800
7800
7800
7C00
3E00
3F00
1F80
0FC0
07E0
03E0
00C0
ENDCHAR
STARTCHAR 0029
ENCODING 41
SWIDTH 600 0
DWIDTH 20 0
BBX 11 27 5 -5
BITMAP
6000
F000
FC00
7E00
3F00
1F00
0F80
0780
07C0
03C0
03C0
03E0
01E0
01E0
01E0
03E0
03C0
03C0
07C0
0780
0F80
1F00
3F00
7E00
FC00
F000
6000
ENDCHAR
STARTCHAR 002A
ENCODING 42
SWIDTH 600 0
DWIDTH 20 0
BBX 14 13 3 6
BITMAP
0700
0780
0780
4710
F338
FFFC
FFF8
0F80
0FC0
1FE0
3CF0
3CF0
1860
ENDCHAR
STARTCHAR 002B
ENCODING 43
SWIDTH 600 0
DWIDTH 20 0
BBX 14 14 3 2
BITMAP
0780
0780
0780
0780
0780
FFFC
FFFC
FFFC
FFFC
0780
0780
0780
0780
0780
ENDCHAR
STARTCHAR 002C
ENCODING 44
SWIDTH 600 0
DWIDTH 20 0
BBX 7 10 6 -5
BITMAP
7E
7C
7C
78
78
F0
F0
F0
E0
E0
ENDCHAR
STARTCHAR 002D
ENCODING 45
SWIDTH 600 0
DWIDTH 20 0
BBX 14 4 3 7
BITMAP
FFF8
FFFC
FFFC
FFFC
ENDCHAR
STARTCHAR 002E
ENCODING 46
SWIDTH 600 0
DWIDTH 20 0
BBX 6 6 7 0
BITMAP
F8
FC
FC
FC
FC
F8
ENDCHAR
STARTCHAR 002F
ENCODING 47
SWIDTH 600 0
DWIDTH 20 0
BBX 14 28 3 -6
BITMAP
003C
003C
003C
0078
0078
00F8
00F0
00F0
01E0
01E0
03C0
03C0
07C0
0780
0780
0F00
0F00
1F00
1E00
1E00
3C00
3C00
7800
7800
F800
F000
F000
E000
ENDCHAR
STARTCHAR 0030
ENCODING 48
SWIDTH 600 0
DWIDTH 20 0
BBX 16 19 2 0
BITMAP
07E0
1FF0
3FF8
3FFC
7C3E
781E
F81E
F81F
F01F
F01F
F01F
F81F
F81E
781E
7C3E
3FFC
3FF8
1FF0
07E0
ENDCHAR
STARTCHAR 0031
ENCODING 49
SWIDTH 600 0
DWIDTH 20 0
BBX 14 19 3 0
BITMAP
0180
0780
1F80
7F80
FF80
FF80
6780
0780
0780
0780
0780
0780
0780
0780
0780
7FFC
FFFC
FFFC
7FFC
ENDCHAR
STARTCHAR 0032
ENCODING 50
SWIDTH 600 0
DWIDTH 20 0
BBX 14 19 3 0
BITMAP
1FC0
7FF0
FFF0
FFF8
F078
F078
F078
0078
00F8
01F0
03E0
07C0
0F80
1F3C
7E3C
FFFC
FFFC
FFFC
FFFC
ENDCHAR
STARTCHAR 0033
ENCODING 51
SWIDTH 600 0
DWIDTH 20 0
BBX 14 19 3 0
BITMAP
1FC0
FFF0
FFF8
FFF8
F078
6078
0078
0FF0
0FE0
0FF0
07F8
007C
007C
007C
407C
FFF8
FFF8
FFF0
3FC0
ENDCHAR
STARTCHAR 0034
ENCODING 52
SWIDTH 600 0
DWIDTH 20 0
BBX 16 19 2 0
BITMAP
00F0
01F0
01F0
03F0
07F0
0FF0
1EF0
3CF0
38F0
7FFE
FFFF
FFFF
FFFF
00F0
00F0
07FE
0FFE
0FFE
0FFE
ENDCHAR
STARTCHAR 0035
ENCODING 53
SWIDTH 600 0
DWIDTH 20 0
BBX 14 19 3 0
BITMAP
7FF8
7FF8
7FF8
7FF0
7800
7800
7FC0
7FF0
7FF8
FFF8
007C
007C
003C
007C
407C
FFF8
FFF8
FFF0
1FC0
ENDCHAR
STARTCHAR 0036
ENCODING 54
SWIDTH 600 0
DWIDTH 20 0
BBX 14 19 3 0
BITMAP
00F8
07FC
1FFC
3FF8
7E00
7C00
F800
F3E0
FFF0
FFF8
FFFC
F83C
F03C
F03C
F83C
7FFC
7FF8
3FF0
0FC0
ENDCHAR
STARTCHAR 0037
ENCODING 55
SWIDTH 600 0
DWIDTH 20 0
BBX 14 19 3 0
BITMAP
FFFC
FFFC
FFFC
FFFC
F07C
F078
F0F8
40F0
01F0
01E0
01E0
03C0
03C0
07C0
0780
0F80
0F00
1F00
0E00
ENDCHAR
STARTCHAR 0038
ENCODING 56
SWIDTH 600 0
DWIDTH 20 0
BBX 14 19 3 0
BITMAP
0FC0
3FF0
7FF8
7FF8
F878
F078
7878
7FF8
3FE0
3FF0
7FF8
F87C
F03C
F03C
F87C
FFFC
7FF8
3FF0
0FC0
ENDCHAR
STARTCHAR 0039
ENCODING 57
SWIDTH 600 0
DWIDTH 20 0
BBX 15 19 2 0
BITMAP
07E0
1FF0
3FF8
7FFC
783E
F81E
F81E
783E
7FFE
7FFE
3FFE
0F9E
003E
003C
00FC
1FF8
3FF0
3FC0
3F00
ENDCHAR
STARTCHAR 003A
ENCODING 58
SWIDTH 600 0
DWIDTH 20 0
BBX 6 15 7 0
BITMAP
F8
FC
FC
FC
F8
00
00
00
00
00
F8
FC
FC
FC
F8
ENDCHAR
STARTCHAR 003B
ENCODING 59
SWIDTH 600 0
DWIDTH 20 0
BBX 7 19 6 -4
BITMAP
7C
7E
7E
7E
7C
00
00
00
00
3E
7E
7C
7C
78
78
F0
F0
E0
E0
ENDCHAR
STARTCHAR 003C
ENCODING 60
SWIDTH 600 0
DWIDTH 20 0
BBX 15 16 2 1
BITMAP
0006
001E
007E
01FE
07F8
1FE0
7F80
FE00
FC00
7F00
1FC0
07F8
01FE
007E
001E
0006
ENDCHAR
STARTCHAR 003D
ENCODING 61
SWIDTH 600 0
DWIDTH 20 0
BBX 14 11 3 4
BITMAP
FFFC
FFFC
FFFC
FFFC
0000
0000
0000
FFF8
FFFC
FFFC
FFFC
ENDCHAR
STARTCHAR 003E
ENCODING 62
SWIDTH 600 0
DWIDTH 20 0
BBX 16 16 2 1
BITMAP
6000
7800
FE00
7F80
1FE0
07F8
01FE
007F
003F
01FE
07F8
1FE0
7F80
FE00
7800
6000
ENDCHAR
STARTCHAR 003F
ENCODING 63
SWIDTH 600 0
DWIDTH 20 0
BBX 13 21 3 0
BITMAP
0200
3FE0
FFF0
FFF8
F0F8
F078
7078
0078
01F8
07F0
07E0
0700
0700
0700
0000
0000
0F80
0F80
0F80
0F80
0F80
ENDCHAR
STARTCHAR 0040
ENCODING 64
SWIDTH 600 0
DWIDTH 20 0
BBX 18 19 1 -2
BITMAP
03F800
0FFE00
1E0F00
380380
71E180
73FDC0
E7BDC0
E738C0
CE38C0
CE39C0
CE39C0
CE7980
C7FF80
E79F00
E00000
700000
3C1800
1FF800
07F000
ENDCHAR
STARTCHAR 0041
ENCODING 65
SWIDTH 600 0
DWIDTH 20 0
BBX 20 19 0 0
BITMAP
1FF800
1FF800
1FF800
1FFC00
03BC00
039C00
079E00
079E00
071E00
0F0F00
0FFF00
0FFF00
1FFF80
1FFF80
1E0780
FF0FE0
FF1FF0
FF1FF0
FF1FF0
ENDCHAR
STARTCHAR 0042
ENCODING 66
SWIDTH 600 0
DWIDTH 20 0
BBX 17 19 1 0
BITMAP
FFF800
FFFE00
FFFF00
7FFF00
1E0F00
1E0F00
1E0F00
1FFE00
1FFC00
1FFE00
1FFF00
1E0F80
1E0780
1E0780
1E0780
7FFF80
FFFF80
FFFF00
FFFC00
ENDCHAR
STARTCHAR 0043
ENCODING 67
SWIDTH 600 0
DWIDTH 20 0
BBX 16 19 2 0
BITMAP
07EF
1FFF
3FFF
7FFF
7C1F
F80F
F00F
F00F
F000
F000
F000
F000
F000
F800
7C07
7FFF
3FFF
1FFE
07F0
ENDCHAR
STARTCHAR 0044
ENCODING 68
SWIDTH 600 0
DWIDTH 20 0
BBX 18 19 1 0
BITMAP
FFF000
FFFC00
FFFE00
7FFF00
1E1F80
1E0F80
1E0780
1E0780
1E07C0
1E07C0
1E07C0
1E0780
1E0780
1E0F80
1E1F80
FFFF00
FFFE00
FFFC00
FFF000
ENDCHAR
STARTCHAR 0045
ENCODING 69
SWIDTH 600 0
DWIDTH 20 0
BBX 17 19 1 0
BITMAP
FFFF80
FFFF80
FFFF80
7FFF80
1E0780
1E0780
1E0700
1FE000
1FE000
1FF000
1FE000
1E0300
1E0780
1E0780
1E0780
FFFF80
FFFF80
FFFF80
FFFF80
ENDCHAR
STARTCHAR 0046
ENCODING 70
SWIDTH 600 0
DWIDTH 20 0
BBX 17 19 1 0
BITMAP
FFFF80
FFFF80
FFFF80
7FFF80
1E0780
1E0780
1E0780
1E0000
1FF000
1FF800
1FF800
1FF800
1E0000
1E0000
1E0000
FFE000
FFF000
FFF000
FFE000
ENDCHAR
STARTCHAR 0047
ENCODING 71
SWIDTH 600 0
DWIDTH 20 0
BBX 18 19 1 0
BITMAP
03E700
0FF700
1FFF00
3FFF00
7C0F00
780F00
F80700
F80000
F80000
F87FC0
F8FFC0
F8FFC0
F87FC0
780780
7C0780
3FFF80
1FFF80
0FFF00
03F800
ENDCHAR
STARTCHAR 0048
ENCODING 72
SWIDTH 600 0
DWIDTH 20 0
BBX 18 19 1 0
BITMAP
FF3FC0
FF3FC0
FF3FC0
FE3F80
3C0F00
3C0F00
3C0F00
3FFF00
3FFF00
3FFF00
3FFF00
3C0F00
3C0F00
3C0F00
3C0F00
FE1F80
FF3FC0
FF3FC0
FF3FC0
ENDCHAR
STARTCHAR 0049
ENCODING 73
SWIDTH 600 0
DWIDTH 20 0
BBX 14 19 3 0
BITMAP
FFFC
FFFC
FFFC
7FF8
0780
0780
0780
0780
0780
0780
0780
0780
0780
0780
0780
FFF8
FFFC
FFFC
FFFC
ENDCHAR
STARTCHAR 004A
ENCODING 74
SWIDTH 600 0
DWIDTH 20 0
BBX 17 19 2 0
BITMAP
1FFF80
1FFF80
1FFF80
0FFF00
007800
007800
007800
007800
007800
007800
F07800
F07800
F07800
F07800
F0F800
FFF800
FFF000
7FE000
1FC000
ENDCHAR
STARTCHAR 004B
ENCODING 75
SWIDTH 600 0
DWIDTH 20 0
BBX 19 19 1 0
BITMAP
FF3FC0
FF3FC0
FF3FC0
FF3FC0
1E1F00
1E3C00
1E7800
1EF000
1FE000
1FF800
1FFC00
1F7E00
1E3E00
1E1F00
1E0F00
FF8FC0
FF8FE0
FF87E0
FF83E0
ENDCHAR
STARTCHAR 004C
ENCODING 76
SWIDTH 600 0
DWIDTH 20 0
BBX 17 19 1 0
BITMAP
FFF000
FFF000
FFF000
7FE000
1E0000
1E0000
1E0000
1E0000
1E0000
1E0000
1E0780
1E0780
1E0780
1E0780
1E0780
FFFF80
FFFF80
FFFF80
FFFF80
ENDCHAR
STARTCHAR 004D
ENCODING 77
SWIDTH 600 0
DWIDTH 20 0
BBX 20 19 0 0
BITMAP
7E07E0
FE0FE0
7F0FE0
7F0FE0
3F1F80
3F9F80
3F9F80
3FFF80
3DFBC0
3DFBC0
3DF3C0
3CF3C0
3CF3C0
3C43C0
3C03C0
7F0FE0
FF0FF0
FF0FF0
FF0FE0
ENDCHAR
STARTCHAR 004E
ENCODING 78
SWIDTH 600 0
DWIDTH 20 0
BBX 18 19 1 0
BITMAP
FC3FC0
FE3FC0
FE3FC0
FF1FC0
3F0700
3F8700
3FC700
3FC700
3DE700
3DF700
3CF700
3C7F00
3C7F00
3C3F00
3C1F00
FF1F00
FF0F00
FF0F00
FF0700
ENDCHAR
STARTCHAR 004F
ENCODING 79
SWIDTH 600 0
DWIDTH 20 0
BBX 18 19 1 0
BITMAP
03F000
0FFC00
3FFE00
3FFF00
7C0F80
780780
F80780
F807C0
F007C0
F007C0
F007C0
F007C0
F80780
780780
7C0F80
3FFF00
3FFE00
0FFC00
03F000
ENDCHAR
STARTCHAR 0050
ENCODING 80
SWIDTH 600 0
DWIDTH 20 0
BBX 17 19 1 0
BITMAP
FFF800
FFFE00
FFFF00
7FFF80
1E0F80
1E0780
1E0780
1E0780
1E0F80
1FFF80
1FFF00
1FFE00
1FF800
1E0000
1E0000
FFE000
FFF000
FFF000
FFF000
ENDCHAR
STARTCHAR 0051
ENCODING 81
SWIDTH 600 0
DWIDTH 20 0
BBX 18 24 1 -5
BITMAP
03F000
0FFC00
3FFE00
3FFF00
7C0F80
780780
F80780
F007C0
F007C0
F007C0
F007C0
F807C0
780780
7C0F80
3FFF00
3FFE00
0FFC00
07F000
0F0000
1EC180
3FFF80
3FFF80
3FFF80
180C00
ENDCHAR
STARTCHAR 0052
ENCODING 82
SWIDTH 600 0
DWIDTH 20 0
BBX 18 19 1 0
BITMAP
FFF800
FFFE00
FFFF00
7FFF00
1E0F00
1E0F80
1E0F00
1E1F00
1FFF00
1FFE00
1FF800
1FFC00
1E3E00
1E1E00
1E1F00
FF8FC0
FF8FC0
FF87C0
FF83C0
ENDCHAR
STARTCHAR 0053
ENCODING 83
SWIDTH 600 0
DWIDTH 20 0
BBX 16 19 2 0
BITMAP
0F9E
3FFE
7FFE
7FFE
F81E
F80E
F800
7F80
7FF8
1FFC
07FE
003E
601E
701F
781E
7FFE
7FFE
7FFC
73F0
ENDCHAR
STARTCHAR 0054
ENCODING 84
SWIDTH 600 0
DWIDTH 20 0
BBX 16 19 2 0
BITMAP
FFFF
FFFF
FFFF
FFFF
E3C7
E3C7
E3C7
E3C7
E3C7
03C0
03C0
03C0
03C0
03C0
03C0
3FFC
7FFC
7FFC
3FFC
ENDCHAR
STARTCHAR 0055
ENCODING 85
SWIDTH 600 0
DWIDTH 20 0
BBX 18 19 1 0
BITMAP
FF3FC0
FF3FC0
FF3FC0
FE3F80
3C0F00
3C0F00
3C0F00
3C0F00
3C0F00
3C0F00
3C0F00
3C0F00
3C0F00
3C0F00
3C1F00
3FFF00
1FFE00
0FFC00
03F000
ENDCHAR
STARTCHAR 0056
ENCODING 86
SWIDTH 600 0
DWIDTH 20 0
BBX 20 19 0 0
BITMAP
FF8FF0
FF9FF0
FF9FF0
FF0FE0
3E0780
1E0780
1E0F80
0F0F00
0F0F00
0F9E00
079E00
07BE00
03FC00
03FC00
03F800
01F800
01F800
00F000
00F000
ENDCHAR
STARTCHAR 0057
ENCODING 87
SWIDTH 600 0
DWIDTH 20 0
BBX 20 19 0 0
BITMAP
FF0FF0
FF0FF0
FF0FF0
FF07F0
3801C0
3861C0
38F3C0
3CF3C0
3DF3C0
3DFBC0
3DFB80
3FFB80
3FBF80
1F9F80
1F9F80
1F1F80
1F0F80
1E0F80
1E0700
ENDCHAR
STARTCHAR 0058
ENCODING 88
SWIDTH 600 0
DWIDTH 20 0
BBX 19 19 0 0
BITMAP
7F9FE0
7F9FE0
7F9FE0
3F9FC0
0F0F00
0F9F00
07FE00
03FC00
01F800
01F800
03FC00
07FC00
07BE00
0F9F00
1F0F80
7F1FE0
FF9FE0
FF9FE0
7F9FE0
ENDCHAR
STARTCHAR 0059
ENCODING 89
SWIDTH 600 0
DWIDTH 20 0
BBX 18 19 1 0
BITMAP
FF3FC0
FF3FC0
FF3FC0
FF1FC0
3E1F00
1E1E00
1F3C00
0FFC00
07F800
07F000
03F000
01E000
01E000
01E000
01E000
1FFC00
1FFE00
1FFE00
1FFE00
ENDCHAR
STARTCHAR 005A
ENCODING 90
SWIDTH 600 0
DWIDTH 20 0
BBX 15 19 2 0
BITMAP
7FFE
7FFE
7FFE
7FFE
707C
70F8
70F0
71F0
03E0
07C0
0780
0F8E
1F0E
3E0E
3C0E
7FFE
FFFE
FFFE
FFFE
ENDCHAR
STARTCHAR 005B
ENCODING 91
SWIDTH 600 0
DWIDTH 20 0
BBX 10 27 5 -5
BITMAP
FFC0
FFC0
FFC0
FF80
F000
F000
F000
F000
F000
F000
F000
F000
F000
F000
F000
F000
F000
F000
F000
F000
F000
F000
F000
FF80
FFC0
FFC0
FFC0
ENDCHAR
STARTCHAR 005C
ENCODING 92
SWIDTH 600 0
DWIDTH 20 0
BBX 14 28 3 -6
BITMAP
E000
F000
F000
F800
7800
7800
3C00
3C00
3E00
1E00
1F00
0F00
0F00
0780
0780
07C0
03C0
03C0
01E0
01E0
01F0
00F0
00F8
0078
0078
003C
003C
003C
ENDCHAR
STARTCHAR 005D
ENCODING 93
SWIDTH 600 0
DWIDTH 20 0
BBX 10 27 5 -5
BITMAP
FFC0
FFC0
FFC0
7FC0
03C0
03C0
03C0
03C0
03C0
03C0
03C0
03C0
03C0
03C0
03C0
03C0
03C0
03C0
03C0
03C0
03C0
03C0
03C0
7FC0
FFC0
FFC0
FFC0
ENDCHAR
STARTCHAR 005E
ENCODING 94
SWIDTH 600 0
DWIDTH 20 0
BBX 14 12 3 7
BITMAP
0200
0780
0780
0FC0
1FC0
1FE0
3DE0
3CF0
78F0
7878
F07C
7038
ENDCHAR
STARTCHAR 005F
ENCODING 95
SWIDTH 600 0
DWIDTH 20 0
BBX 21 4 -1 -8
BITMAP
7FFFF8
FFFFF8
FFFFF8
FFFFF8
ENDCHAR
STARTCHAR 0060
ENCODING 96
SWIDTH 600 0
DWIDTH 20 0
BBX 9 7 4 16
BITMAP
2000
7000
7C00
FE00
3F80
0F80
0180
ENDCHAR
STARTCHAR 0061
ENCODING 97
SWIDTH 600 0
DWIDTH 20 0
BBX 17 15 2 0
BITMAP
1FE000
7FF800
7FFC00
7FFC00
003C00
1FFC00
7FFC00
FFFC00
FFFC00
F03C00
F03C00
FFFF80
FFFF80
7FFF80
1F0F80
ENDCHAR
STARTCHAR 0062
ENCODING 98
SWIDTH 600 0
DWIDTH 20 0
BBX 18 22 0 0
BITMAP
7C0000
FE0000
FE0000
7E0000
1E0000
1E0000
1E0000
1E7C00
1FFF00
1FFF80
1FFF80
1F07C0
1E03C0
1E03C0
1E03C0
1E03C0
1E03C0
1F07C0
7FFF80
7FFF80
7DFF00
7C7C00
ENDCHAR
STARTCHAR 0063
ENCODING 99
SWIDTH 600 0
DWIDTH 20 0
BBX 15 15 2 0
BITMAP
07CE
1FFE
3FFE
7FFE
7C1E
F81E
F01E
F000
F000
F800
7C0E
7FFE
3FFE
1FFC
07F0
ENDCHAR
STARTCHAR 0064
ENCODING 100
SWIDTH 600 0
DWIDTH 20 0
BBX 17 22 2 0
BITMAP
00FC00
01FE00
01FE00
00FE00
001E00
001E00
001E00
0F9E00
3FDE00
7FFE00
FFFE00
F83E00
F03E00
F01E00
F01E00
F01E00
F03E00
F83E00
FFFF80
7FFF80
3FDF80
0F9F80
ENDCHAR
STARTCHAR 0065
ENCODING 101
SWIDTH 600 0
DWIDTH 20 0
BBX 16 15 2 0
BITMAP
07E0
1FF8
3FFC
7FFE
781E
FFFE
FFFF
FFFF
FFFF
F800
7800
7FFE
3FFE
1FFE
07F0
ENDCHAR
STARTCHAR 0066
ENCODING 102
SWIDTH 600 0
DWIDTH 20 0
BBX 15 21 3 0
BITMAP
01F8
07FE
0FFE
0FFE
0F00
0F00
0F00
FFFC
FFFC
FFFC
FFF8
0F00
0F00
0F00
0F00
0F00
0F00
FFF8
FFF8
FFF8
FFF8
ENDCHAR
STARTCHAR 0067
ENCODING 103
SWIDTH 600 0
DWIDTH 20 0
BBX 17 21 2 -6
BITMAP
0F9F80
3FFF80
7FFF80
FFFF80
F83E00
F03E00
F01E00
F01E00
F01E00
F03E00
F83E00
FFFE00
7FFE00
3FDE00
0F9E00
001E00
003E00
7FFC00
FFFC00
FFF800
1FE000
ENDCHAR
STARTCHAR 0068
ENCODING 104
SWIDTH 600 0
DWIDTH 20 0
BBX 18 21 1 0
BITMAP
FC0000
FC0000
FC0000
FC0000
3C0000
3C0000
3C7800
3CFE00
3DFE00
3FFF00
3F0F00
3E0F00
3E0F00
3E0F00
3C0F00
3C0F00
3C0F00
7F1FC0
FF3FC0
FF3FC0
FF3FC0
ENDCHAR
STARTCHAR 0069
ENCODING 105
SWIDTH 600 0
DWIDTH 20 0
BBX 15 22 3 0
BITMAP
0780
0780
0780
0780
0780
0000
0000
7F80
7F80
7F80
7F80
0780
0780
0780
0780
0780
0780
0780
FFFC
FFFE
FFFE
FFFE
ENDCHAR
STARTCHAR 006A
ENCODING 106
SWIDTH 600 0
DWIDTH 20 0
BBX 12 28 3 -6
BITMAP
00F0
00F0
00F0
00F0
00F0
0000
0000
7FF0
7FF0
7FF0
7FF0
00F0
00F0
00F0
00F0
00F0
00F0
00F0
00F0
00F0
00F0
00F0
00F0
C1F0
FFF0
FFE0
FFC0
1F80
ENDCHAR
STARTCHAR 006B
ENCODING 107
SWIDTH 600 0
DWIDTH 20 0
BBX 18 21 1 0
BITMAP
FC0000
FE0000
FE0000
FE0000
3E0000
3E0000
3E7F80
3E7FC0
3E7F80
3E3E00
3E7C00
3EF800
3FF000
3FF800
3FFC00
3E7C00
3E3E00
7F1F80
FF8FC0
FF8FC0
FF87C0
ENDCHAR
STARTCHAR 006C
ENCODING 108
SWIDTH 600 0
DWIDTH 20 0
BBX 15 21 3 0
BITMAP
FF80
FF80
FF80
7F80
0780
0780
0780
0780
0780
0780
0780
0780
0780
0780
0780
0780
0780
FFFC
FFFC
FFFE
FFFC
ENDCHAR
STARTCHAR 006D
ENCODING 109
SWIDTH 600 0
DWIDTH 20 0
BBX 19 15 0 0
BITMAP
F9C380
FBE7C0
FFFFC0
FFFFE0
3CF9E0
3CF1E0
3CF1E0
3CF1E0
3CF1E0
3CF1E0
3CF1E0
3CF1E0
3CF1E0
3CF1E0
3CF1E0
ENDCHAR
STARTCHAR 006E
ENCODING 110
SWIDTH 600 0
DWIDTH 20 0
BBX 18 15 1 0
BITMAP
FC7800
FCFE00
FDFF00
FFFF00
3F0F00
3E0F00
3E0F00
3E0F00
3E0F00
3E0F00
3E0F00
7F1FC0
FF3FC0
FF3FC0
FF3FC0
ENDCHAR
STARTCHAR 006F
ENCODING 111
SWIDTH 600 0
DWIDTH 20 0
BBX 16 15 2 0
BITMAP
07E0
1FF8
3FFC
7FFE
F83E
F81F
F00F
F00F
F00F
F81F
F83E
7FFE
3FFC
1FF8
07E0
ENDCHAR
STARTCHAR 0070
ENCODING 112
SWIDTH 600 0
DWIDTH 20 0
BBX 17 21 1 -6
BITMAP
F8F800
FBFE00
FFFF00
FFFF00
3E0F80
3C0780
3C0780
3C0780
3C0780
3C0780
3E0F80
3FFF00
3FFF00
3FFE00
3CF800
3C0000
3C0000
FF8000
FFC000
FFC000
FFC000
ENDCHAR
STARTCHAR 0071
ENCODING 113
SWIDTH 600 0
DWIDTH 20 0
BBX 17 21 2 -6
BITMAP
0F9F80
3FDF80
7FFF80
FFFF80
F83E00
F03E00
F01E00
F01E00
F01E00
F03E00
F83E00
FFFE00
7FFE00
3FDE00
0F9E00
001E00
001E00
00FF80
01FF80
01FF80
01FF80
ENDCHAR
STARTCHAR 0072
ENCODING 114
SWIDTH 600 0
DWIDTH 20 0
BBX 16 15 2 0
BITMAP
7E1E
7E7F
7EFF
7EFF
1FC2
1F80
1F00
1F00
1F00
1E00
1E00
7FF0
FFF8
FFF8
FFF8
ENDCHAR
STARTCHAR 0073
ENCODING 115
SWIDTH 600 0
DWIDTH 20 0
BBX 14 15 3 0
BITMAP
1F38
7FFC
FFFC
FFFC
F038
F800
FFE0
7FF8
0FFC
E03C
F03C
FFFC
FFFC
FFF8
E7E0
ENDCHAR
STARTCHAR 0074
ENCODING 116
SWIDTH 600 0
DWIDTH 20 0
BBX 16 19 2 0
BITMAP
0F00
0F00
0F00
0F00
0F00
FFFE
FFFE
FFFE
FFFC
0F00
0F00
0F00
0F00
0F00
0F06
0FFF
0FFF
07FE
01F0
ENDCHAR
STARTCHAR 0075
ENCODING 117
SWIDTH 600 0
DWIDTH 20 0
BBX 18 15 1 0
BITMAP
FC7F00
FC7F00
FC7F00
FC7F00
3C0F00
3C0F00
3C0F00
3C1F00
3C1F00
3C1F00
3C3F00
3FFF80
1FEFC0
1FEFC0
078FC0
ENDCHAR
STARTCHAR 0076
ENCODING 118
SWIDTH 600 0
DWIDTH 20 0
BBX 18 15 1 0
BITMAP
FF3FC0
FF3FC0
FF3FC0
FF3FC0
3C1F00
1E1E00
1E1E00
1F3C00
0F3C00
0FF800
07F800
07F000
03F000
03F000
01E000
ENDCHAR
STARTCHAR 0077
ENCODING 119
SWIDTH 600 0
DWIDTH 20 0
BBX 20 15 0 0
BITMAP
FE07F0
FE07F0
FE07F0
FE47F0
78F1C0
38F3C0
39F3C0
3DFBC0
3DFB80
1FBF80
1F9F80
1F9F80
1F1F00
1F0F00
0E0F00
ENDCHAR
STARTCHAR 0078
ENCODING 120
SWIDTH 600 0
DWIDTH 20 0
BBX 18 15 1 0
BITMAP
FF3F80
FF3FC0
FF3F80
7F3F80
1F3E00
0FFC00
07F800
03F000
07F800
0F7C00
1E3E00
7E3F80
FF7FC0
FF7FC0
FF3F80
ENDCHAR
STARTCHAR 0079
ENCODING 121
SWIDTH 600 0
DWIDTH 20 0
BBX 18 21 1 -6
BITMAP
FF3FC0
FF3FC0
FF3FC0
FF3FC0
3E1F00
1E1E00
1F3E00
0F3C00
0FFC00
07F800
07F800
03F000
03F000
01E000
03E000
07C000
078000
3F8000
7F0000
7E0000
7C0000
ENDCHAR
STARTCHAR 007A
ENCODING 122
SWIDTH 600 0
DWIDTH 20 0
BBX 15 15 2 0
BITMAP
7FFE
7FFE
7FFE
7FFC
70F8
71F0
03E0
07C0
0F80
1F0E
3E0E
7FFE
FFFE
FFFE
FFFE
ENDCHAR
STARTCHAR 007B
ENCODING 123
SWIDTH 600 0
DWIDTH 20 0
BBX 13 27 3 -5
BITMAP
00F8
03F8
07F8
0FF8
0F80
0F00
0F00
0F00
0F00
0F00
0F00
FE00
FC00
F800
FE00
1F00
0F00
0F00
0F00
0F00
0F00
0F00
0F80
0FF8
07F8
03F8
00F8
ENDCHAR
STARTCHAR 007C
ENCODING 124
SWIDTH 600 0
DWIDTH 20 0
BBX 4 28 8 -6
BITMAP
F0
F0
F0
F0
F0
F0
F0
F0
F0
F0
F0
F0
F0
F0
F0
F0
F0
F0
F0
F0
F0
F0
F0
F0
F0
F0
F0
F0
ENDCHAR
STARTCHAR 007D
ENCODING 125
SWIDTH 600 0
DWIDTH 20 0
BBX 13 27 4 -5
BITMAP
F800
FE00
FF00
FF00
0F80
0F80
0780
0780
0F00
0780
0780
07F8
01F8
00F8
03F8
07C0
0780
0F00
0700
0780
0780
0780
0F80
FF00
FF00
FE00
F800
ENDCHAR
STARTCHAR 007E
ENCODING 126
SWIDTH 600 0
DWIDTH 20 0
BBX 16 6 2 6
BITMAP
0C00
3F06
7FFF
FFFE
61FE
0078
ENDCHAR
STARTCHAR 00A0
ENCODING 160
SWIDTH 600 0
DWIDTH 20 0
BBX 0 0 0 0
BITMAP
ENDCHAR
STARTCHAR 00A1
ENCODING 161
SWIDTH 600 0
DWIDTH 20 0
BBX 5 20 7 -5
BITMAP
78
F8
F8
F8
78
00
00
00
70
78
78
78
78
78
78
78
78
78
F8
F8
ENDCHAR
STARTCHAR 00A2
ENCODING 162
SWIDTH 600 0
DWIDTH 20 0
BBX 15 23 2 -2
BITMAP
0180
0380
0380
0380
07CE
1FFE
3FFE
7FFE
7F9E
FB9E
F39E
F380
F380
FB80
7B86
7FBE
3FFE
1FFE
0FF0
0380
0380
0380
0180
ENDCHAR
STARTCHAR 00A3
ENCODING 163
SWIDTH 600 0
DWIDTH 20 0
BBX 15 19 2 0
BITMAP
07E0
1FFC
1FFC
3FFC
3C3C
3C3C
3C18
3E00
7FF0
FFF8
FFF8
7FF8
0F00
0F00
1E00
3DFE
7FFE
7FFE
3FF8
ENDCHAR
STARTCHAR 00A4
ENCODING 164
SWIDTH 600 0
DWIDTH 20 0
BBX 16 16 2 1
BITMAP
6006
F18F
FFFF
7FFE
3FFC
3C3C
781C
781C
781E
781C
3C3C
3FFC
7FFE
FFFF
F18F
6006
ENDCHAR
STARTCHAR 00A5
ENCODING 165
SWIDTH 600 0
DWIDTH 20 0
BBX 18 19 1 0
BITMAP
FF3FC0
FF3FC0
FF3FC0
FF1FC0
3C1F00
1E1E00
7F3F80
7F7F80
7FFF80
07F800
03F000
7FFF00
7FFF80
7FFF00
01E000
1FFC00
1FFE00
1FFE00
1FFE00
ENDCHAR
STARTCHAR 00A6
ENCODING 166
SWIDTH 600 0
DWIDTH 20 0
BBX 4 28 8 -6
BITMAP
F0
F0
F0
F0
F0
F0
F0
F0
F0
F0
F0
F0
00
00
00
00
F0
F0
F0
F0
F0
F0
F0
F0
F0
F0
F0
F0
ENDCHAR
STARTCHAR 00A7
ENCODING 167
SWIDTH 600 0
DWIDTH 20 0
BBX 14 23 3 -4
BITMAP
0FF8
3FF8
3FF8
7FF8
7838
7838
7E18
FF80
FFE0
F7F8
F1F8
F87C
FE3C
7FBC
1FFC
07FC
21F8
F0F8
F078
FFF8
FFF0
FFF0
7FC0
ENDCHAR
STARTCHAR 00A8
ENCODING 168
SWIDTH 600 0
DWIDTH 20 0
BBX 11 5 4 17
BITMAP
F0E0
F1E0
F1E0
F1E0
70E0
ENDCHAR
STARTCHAR 00A9
ENCODING 169
SWIDTH 600 0
DWIDTH 20 0
BBX 19 19 0 0
BITMAP
03F800
0FFE00
1E0780
380380
30F9C0
73FCE0
63FCE0
678060
E70060
E70060
E70060
678060
63FCE0
71FCC0
38F1C0
3C0380
1F0F00
07FE00
01F800
ENDCHAR
STARTCHAR 00AA
ENCODING 170
SWIDTH 600 0
DWIDTH 20 0
BBX 13 12 4 8
BITMAP
3F80
7FC0
7FE0
00E0
3FE0
7FE0
FFE0
E0E0
E1E0
FFF8
FF78
3E78
ENDCHAR
STARTCHAR 00AB
ENCODING 171
SWIDTH 600 0
DWIDTH 20 0
BBX 16 13 2 2
BITMAP
0C0C
1E0E
3E1F
3C3E
7C7C
F8F8
F0F0
F8F8
787C
3C3E
3E1E
1E0F
0C0C
ENDCHAR
STARTCHAR 00AC
ENCODING 172
SWIDTH 600 0
DWIDTH 20 0
BBX 16 10 2 4
BITMAP
FFFE
FFFF
FFFF
FFFF
000F
000F
000F
000F
000F
000F
ENDCHAR
STARTCHAR 00AD
ENCODING 173
SWIDTH 600 0
DWIDTH 20 0
BBX 14 4 3 5
BITMAP
7FF8
FFFC
FFFC
FFF8
ENDCHAR
STARTCHAR 00AE
ENCODING 174
SWIDTH 600 0
DWIDTH 20 0
BBX 16 16 2 5
BITMAP
07E0
1FF8
383C
700C
67E6
E7E6
C673
C673
C7E3
C7C7
E6E6
6676
700C
383C
1FF8
07E0
ENDCHAR
STARTCHAR 00AF
ENCODING 175
SWIDTH 600 0
DWIDTH 20 0
BBX 10 4 5 17
BITMAP
FFC0
FFC0
FFC0
FFC0
ENDCHAR
STARTCHAR 00B0
ENCODING 176
SWIDTH 600 0
DWIDTH 20 0
BBX 10 11 4 9
BITMAP
0C00
3F00
7F80
FF80
E3C0
E3C0
E3C0
FFC0
FF80
7F00
3E00
ENDCHAR
STARTCHAR 00B1
ENCODING 177
SWIDTH 600 0
DWIDTH 20 0
BBX 14 18 3 0
BITMAP
0780
0780
0780
0780
FFF8
FFFC
FFFC
FFFC
0780
0780
0780
0780
0000
0000
FFF8
FFFC
FFFC
FFFC
ENDCHAR
STARTCHAR 00B2
ENCODING 178
SWIDTH 600 0
DWIDTH 20 0
BBX 12 14 4 8
BITMAP
1F80
7FC0
7FE0
70E0
70E0
20E0
01E0
07C0
0F80
1E00
3C70
7FF0
FFF0
7FF0
ENDCHAR
STARTCHAR 00B3
ENCODING 179
SWIDTH 600 0
DWIDTH 20 0
BBX 10 14 5 8
BITMAP
3F00
FF80
FFC0
E1C0
E1C0
03C0
1F80
1F80
1FC0
01C0
81C0
FFC0
FFC0
7F00
ENDCHAR
STARTCHAR 00B4
ENCODING 180
SWIDTH 600 0
DWIDTH 20 0
BBX 8 7 7 16
BITMAP
02
0F
1F
7F
FC
F0
C0
ENDCHAR
STARTCHAR 00B5
ENCODING 181
SWIDTH 600 0
DWIDTH 20 0
BBX 14 21 3 -6
BITMAP
F03C
F03C
F03C
F03C
F03C
F03C
F03C
F03C
F03C
F07C
F8FC
FFFC
FFDC
FF9C
FE1C
F000
F000
F000
F000
F000
F000
ENDCHAR
STARTCHAR 00B6
ENCODING 182
SWIDTH 600 0
DWIDTH 20 0
BBX 16 25 2 -6
BITMAP
1FFF
3FFF
7FFF
FFFF
FF1C
FF1C
FF1C
FF1C
FF1C
7F1C
3F1C
1F1C
071C
071C
071C
071C
071C
071C
071C
071C
071C
071C
071C
071C
071C
ENDCHAR
STARTCHAR 00B7
ENCODING 183
SWIDTH 600 0
DWIDTH 20 0
BBX 6 6 7 6
BITMAP
F8
FC
FC
FC
FC
F8
ENDCHAR
STARTCHAR 00B8
ENCODING 184
SWIDTH 600 0
DWIDTH 20 0
BBX 9 8 6 -7
BITMAP
3800
3800
3F00
3F00
0780
FF80
FF00
FE00
ENDCHAR
STARTCHAR 00B9
ENCODING 185
SWIDTH 600 0
DWIDTH 20 0
BBX 11 14 5 8
BITMAP
0E00
3E00
FE00
FE00
EE00
0E00
0E00
0E00
0E00
0E00
0E00
FFC0
FFE0
FFE0
ENDCHAR
STARTCHAR 00BA
ENCODING 186
SWIDTH 600 0
DWIDTH 20 0
BBX 12 12 4 8
BITMAP
1F80
3FC0
7FE0
F0F0
E070
E070
E070
E070
F0F0
7FE0
3FC0
1F80
ENDCHAR
STARTCHAR 00BB
ENCODING 187
SWIDTH 600 0
DWIDTH 20 0
BBX 16 13 2 2
BITMAP
6030
F078
F8F8
7C7C
3C3E
1E1F
0F0F
1E1F
3E3E
7C3C
F878
F0F8
6030
ENDCHAR
STARTCHAR 00BC
ENCODING 188
SWIDTH 600 0
DWIDTH 20 0
BBX 20 26 0 -3
BITMAP
080000
3C0000
FC0000
FC0000
9C0000
1C0000
1C0000
1C0000
1C0000
1C00C0
FF83C0
FF8FC0
001F00
007C00
01F800
07E1C0
0F83C0
3E03C0
7806C0
200EC0
001CC0
003FF0
003FF0
0000C0
0000C0
0000C0
ENDCHAR
STARTCHAR 00BD
ENCODING 189
SWIDTH 600 0
DWIDTH 20 0
BBX 20 26 0 -3
BITMAP
080000
3C0000
FC0000
FC0000
9C0000
1C0000
1C0000
1C0000
1C0040
1C01C0
FF87C0
FF9F80
007E00
00F800
03E000
0F8FC0
3E1FE0
781C60
201C70
0000E0
0001E0
0003C0
000F20
001E30
001FF0
001FF0
ENDCHAR
STARTCHAR 00BE
ENCODING 190
SWIDTH 600 0
DWIDTH 20 0
BBX 20 25 0 -3
BITMAP
FE0000
FF0000
C38000
038000
1F0000
1F0000
038000
038000
C380C0
FF03C0
7E0FC0
001F00
007C00
01F000
07C1C0
1F03C0
7C03C0
3006C0
000EC0
001CC0
003FF0
003FF0
0000C0
0000C0
0000C0
ENDCHAR
STARTCHAR 00BF
ENCODING 191
SWIDTH 600 0
DWIDTH 20 0
BBX 12 21 4 -6
BITMAP
0F80
0F80
0F80
0F80
0F80
0000
0000
0700
0700
0700
3F00
7F00
FC00
F000
F070
F070
F070
FFF0
7FF0
3FE0
0E00
ENDCHAR
STARTCHAR 00C0
ENCODING 192
SWIDTH 600 0
DWIDTH 20 0
BBX 20 27 0 0
BITMAP
020000
070000
0F8000
0FE000
03F000
00F800
003000
000000
1FF800
1FF800
1FF800
1FFC00
03BC00
039C00
079E00
079E00
071E00
0F0F00
0FFF00
0FFF00
1FFF80
1FFF80
1E0780
FF0FE0
FF1FF0
FF1FF0
FF1FF0
ENDCHAR
STARTCHAR 00C1
ENCODING 193
SWIDTH 600 0
DWIDTH 20 0
BBX 20 27 0 0
BITMAP
000800
003C00
007C00
01FC00
03F000
03C000
030000
000000
1FF800
1FF800
1FF800
1FFC00
03BC00
039C00
079E00
079E00
071E00
0F0F00
0FFF00
0FFF00
1FFF80
1FFF80
1E0780
FF0FE0
FF1FF0
FF1FF0
FF1FF0
ENDCHAR
STARTCHAR 00C2
ENCODING 194
SWIDTH 600 0
DWIDTH 20 0
BBX 20 26 0 0
BITMAP
00E000
01F000
03F800
0FFE00
0F1E00
0C0600
000000
1FF800
1FF800
1FF800
1FFC00
03BC00
039C00
079E00
079E00
071E00
0F0F00
0FFF00
0FFF00
1FFF80
1FFF80
1E0780
FF0FE0
FF1FF0
FF1FF0
FF1FF0
ENDCHAR
STARTCHAR 00C3
ENCODING 195
SWIDTH 600 0
DWIDTH 20 0
BBX 20 26 0 0
BITMAP
078600
0FFE00
1FFE00
1FFC00
087800
000000
000000
1FF800
1FF800
1FF800
1FFC00
03BC00
039C00
079E00
079E00
071E00
0F0F00
0FFF00
0FFF00
1FFF80
1FFF80
1E0780
FF0FE0
FF1FF0
FF1FF0
FF1FF0
ENDCHAR
STARTCHAR 00C4
ENCODING 196
SWIDTH 600 0
DWIDTH 20 0
BBX 20 26 0 0
BITMAP
0F1E00
0F1E00
0F1E00
0F1E00
0F1E00
000000
000000
1FF800
1FF800
1FF800
1FFC00
03BC00
039C00
079E00
079E00
071E00
0F0F00
0FFF00
0FFF00
1FFF80
1FFF80
1E0780
FF0FE0
FF1FF0
FF1FF0
FF1FF0
ENDCHAR
STARTCHAR 00C5
ENCODING 197
SWIDTH 600 0
DWIDTH 20 0
BBX 20 28 0 0
BITMAP
01F000
03F800
03F800
071C00
071C00
03FC00
03F800
01F000
000000
1FF800
1FF800
1FF800
1FFC00
03BC00
039C00
079E00
079E00
071E00
0F0F00
0FFF00
0FFF00
1FFF80
1FFF80
1E0780
FF0FE0
FF1FF0
FF1FF0
FF1FF0
ENDCHAR
STARTCHAR 00C6
ENCODING 198
SWIDTH 600 0
DWIDTH 20 0
BBX 19 19 0 0
BITMAP
3FFFE0
3FFFE0
3FFFE0
3FFFE0
0F79E0
0F79E0
0E7880
0E7E00
1E7E00
1E7E00
1FFE00
3FF800
3FF8E0
3FF9E0
3879E0
FC7FE0
FE7FE0
FE7FE0
FE7FE0
ENDCHAR
STARTCHAR 00C7
ENCODING 199
SWIDTH 600 0
DWIDTH 20 0
BBX 16 27 2 -8
BITMAP
07EF
1FFF
3FFF
7FFF
7C1F
F80F
F80F
F00F
F000
F000
F000
F000
F000
F800
F802
7E0F
3FFF
3FFF
0FFE
03E0
01C0
01F0
01F8
0078
0FF8
0FF0
01C0
ENDCHAR
STARTCHAR 00C8
ENCODING 200
SWIDTH 600 0
DWIDTH 20 0
BBX 17 27 1 0
BITMAP
020000
070000
0F8000
0FE000
03F000
00F800
003000
000000
FFFF80
FFFF80
FFFF80
7FFF80
1E0780
1E0780
1E0700
1FE000
1FE000
1FF000
1FE000
1E0300
1E0780
1E0780
1E0780
FFFF80
FFFF80
FFFF80
FFFF80
ENDCHAR
STARTCHAR 00C9
ENCODING 201
SWIDTH 600 0
DWIDTH 20 0
BBX 17 27 1 0
BITMAP
001000
003800
00FC00
01FC00
03F000
07C000
030000
000000
FFFF80
FFFF80
FFFF80
7FFF80
1E0780
1E0780
1E0700
1FE000
1FE000
1FF000
1FE000
1E0300
1E0780
1E0780
1E0780
FFFF80
FFFF80
FFFF80
FFFF80
ENDCHAR
STARTCHAR 00CA
ENCODING 202
SWIDTH 600 0
DWIDTH 20 0
BBX 17 26 1 0
BITMAP
00E000
01F000
03F800
0FFC00
0F1E00
0C0600
000000
FFFF80
FFFF80
FFFF80
7FFF80
1E0780
1E0780
1E0700
1FE000
1FE000
1FF000
1FE000
1E0300
1E0780
1E0780
1E0780
FFFF80
FFFF80
FFFF80
FFFF80
ENDCHAR
STARTCHAR 00CB
ENCODING 203
SWIDTH 600 0
DWIDTH 20 0
BBX 17 26 1 0
BITMAP
0F1E00
0F1E00
0F1E00
0F1E00
0F1E00
000000
000000
FFFF80
FFFF80
FFFF80
7FFF80
1E0780
1E0780
1E0700
1FE000
1FE000
1FF000
1FE000
1E0300
1E0780
1E0780
1E0780
FFFF80
FFFF80
FFFF80
FFFF80
ENDCHAR
STARTCHAR 00CC
ENCODING 204
SWIDTH 600 0
DWIDTH 20 0
BBX 14 27 3 0
BITMAP
1000
3800
3E00
7F00
1FC0
07C0
00C0
0000
FFFC
FFFC
FFFC
7FF8
0780
0780
0780
0780
0780
0780
0780
0780
0780
0780
0780
FFF8
FFFC
FFFC
FFFC
ENDCHAR
STARTCHAR 00CD
ENCODING 205
SWIDTH 600 0
DWIDTH 20 0
BBX 14 27 3 0
BITMAP
0020
00F0
01F0
07F0
0FC0
0F00
0C00
0000
FFFC
FFFC
FFFC
7FF8
0780
0780
0780
0780
0780
0780
0780
0780
0780
0780
0780
FFF8
FFFC
FFFC
FFFC
ENDCHAR
STARTCHAR 00CE
ENCODING 206
SWIDTH 600 0
DWIDTH 20 0
BBX 14 26 3 0
BITMAP
0300
0F80
1FE0
3FF0
7CF8
3030
0000
FFFC
FFFC
FFFC
7FF8
0780
0780
0780
0780
0780
0780
0780
0780
0780
0780
0780
FFF8
FFFC
FFFC
FFFC
ENDCHAR
STARTCHAR 00CF
ENCODING 207
SWIDTH 600 0
DWIDTH 20 0
BBX 14 26 3 0
BITMAP
7870
78F0
78F0
78F0
3870
0000
0000
FFFC
FFFC
FFFC
7FF8
0780
0780
0780
0780
0780
0780
0780
0780
0780
0780
0780
FFF8
FFFC
FFFC
FFFC
ENDCHAR
STARTCHAR 00D0
ENCODING 208
SWIDTH 600 0
DWIDTH 20 0
BBX 18 19 1 0
BITMAP
FFF000
FFFC00
FFFE00
7FFF00
1E1F80
1E0F80
1E0780
FF8780
FFC7C0
FFC7C0
FFC7C0
1E0780
1E0780
1E0F80
1E1F80
FFFF00
FFFE00
FFFC00
FFF000
ENDCHAR
STARTCHAR 00D1
ENCODING 209
SWIDTH 600 0
DWIDTH 20 0
BBX 18 26 1 0
BITMAP
078400
0FFE00
1FFE00
1FFC00
187800
000000
000000
FC3FC0
FE3FC0
FE3FC0
FF1FC0
3F0700
3F8700
3FC700
3FC700
3DE700
3DF700
3CF700
3C7F00
3C7F00
3C3F00
3C1F00
FF1F00
FF0F00
FF0F00
FF0700
ENDCHAR
STARTCHAR 00D2
ENCODING 210
SWIDTH 600 0
DWIDTH 20 0
BBX 18 27 1 0
BITMAP
020000
070000
0F8000
0FE000
03F000
00F800
003000
000000
03F000
0FFC00
3FFE00
3FFF00
7C0F80
780780
F80780
F807C0
F007C0
F007C0
F007C0
F007C0
F80780
780780
7C0F80
3FFF00
3FFE00
0FFC00
03F000
ENDCHAR
STARTCHAR 00D3
ENCODING 211
SWIDTH 600 0
DWIDTH 20 0
BBX 18 27 1 0
BITMAP
001000
003800
007C00
01FC00
03F000
07C000
030000
000000
03F000
0FFC00
3FFE00
3FFF00
7C0F80
780780
F80780
F807C0
F007C0
F007C0
F007C0
F007C0
F80780
780780
7C0F80
3FFF00
3FFE00
0FFC00
03F000
ENDCHAR
STARTCHAR 00D4
ENCODING 212
SWIDTH 600 0
DWIDTH 20 0
BBX 18 26 1 0
BITMAP
00C000
03E000
07F800
0FFC00
1F3E00
0C0C00
000000
03F000
0FFC00
3FFE00
3FFF00
7C0F80
780780
F80780
F807C0
F007C0
F007C0
F007C0
F007C0
F80780
780780
7C0F80
3FFF00
3FFE00
0FFC00
03F000
ENDCHAR
STARTCHAR 00D5
ENCODING 213
SWIDTH 600 0
DWIDTH 20 0
BBX 18 26 1 0
BITMAP
078400
0FFE00
1FFE00
1FFC00
187800
000000
000000
03F000
0FFC00
3FFE00
3FFF00
7C0F80
780780
F80780
F807C0
F007C0
F007C0
F007C0
F007C0
F80780
780780
7C0F80
3FFF00
3FFE00
0FFC00
03F000
ENDCHAR
STARTCHAR 00D6
ENCODING 214
SWIDTH 600 0
DWIDTH 20 0
BBX 18 26 1 0
BITMAP
1E1C00
1E3C00
1E3C00
1E3C00
0E1C00
000000
000000
03F000
0FFC00
3FFE00
3FFF00
7C0F80
780780
F80780
F807C0
F007C0
F007C0
F007C0
F007C0
F80780
780780
7C0F80
3FFF00
3FFE00
0FFC00
03F000
ENDCHAR
STARTCHAR 00D7
ENCODING 215
SWIDTH 600 0
DWIDTH 20 0
BBX 13 13 3 3
BITMAP
3030
7078
F8F8
7DF0
3FF0
1FE0
0FC0
1FC0
3FE0
7FF0
FCF8
7878
3030
ENDCHAR
STARTCHAR 00D8
ENCODING 216
SWIDTH 600 0
DWIDTH 20 0
BBX 18 22 1 -1
BITMAP
000100
000380
03F380
0FFF80
3FFF00
3FFF00
7C1F80
783F80
F87F80
F877C0
F0F7C0
F1E7C0
F3C7C0
F387C0
FF8780
7F0780
7E0F80
3FFF00
3FFE00
7FFC00
73F000
600000
ENDCHAR
STARTCHAR 00D9
ENCODING 217
SWIDTH 600 0
DWIDTH 20 0
BBX 18 27 1 0
BITMAP
040000
0E0000
0F8000
1FC000
07F000
01F000
003000
000000
FF3FC0
FF3FC0
FF3FC0
FE3F80
3C0F00
3C0F00
3C0F00
3C0F00
3C0F00
3C0F00
3C0F00
3C0F00
3C0F00
3C0F00
3C1F00
3FFF00
1FFE00
0FFC00
03F000
ENDCHAR
STARTCHAR 00DA
ENCODING 218
SWIDTH 600 0
DWIDTH 20 0
BBX 18 27 1 0
BITMAP
000800
003C00
007C00
01FC00
03F000
03C000
030000
000000
FF3FC0
FF3FC0
FF3FC0
FE3F80
3C0F00
3C0F00
3C0F00
3C0F00
3C0F00
3C0F00
3C0F00
3C0F00
3C0F00
3C0F00
3C1F00
3FFF00
1FFE00
0FFC00
03F000
ENDCHAR
STARTCHAR 00DB
ENCODING 219
SWIDTH 600 0
DWIDTH 20 0
BBX 18 26 1 0
BITMAP
00C000
03E000
07F800
0FFC00
1F3E00
0C0C00
000000
FF3FC0
FF3FC0
FF3FC0
FE3F80
3C0F00
3C0F00
3C0F00
3C0F00
3C0F00
3C0F00
3C0F00
3C0F00
3C0F00
3C0F00
3C1F00
3FFF00
1FFE00
0FFC00
03F000
ENDCHAR
STARTCHAR 00DC
ENCODING 220
SWIDTH 600 0
DWIDTH 20 0
BBX 18 26 1 0
BITMAP
1E1C00
1E3C00
1E3C00
1E3C00
0E1C00
000000
000000
FF3FC0
FF3FC0
FF3FC0
FE3F80
3C0F00
3C0F00
3C0F00
3C0F00
3C0F00
3C0F00
3C0F00
3C0F00
3C0F00
3C0F00
3C1F00
3FFF00
1FFE00
0FFC00
03F000
ENDCHAR
STARTCHAR 00DD
ENCODING 221
SWIDTH 600 0
DWIDTH 20 0
BBX 18 27 1 0
BITMAP
000800
003C00
007C00
01FC00
03F000
03C000
030000
000000
FF3FC0
FF3FC0
FF3FC0
FF1FC0
3E1F00
1E1E00
1F3C00
0FFC00
07F800
07F000
03F000
01E000
01E000
01E000
01E000
1FFC00
1FFE00
1FFE00
1FFE00
ENDCHAR
STARTCHAR 00DE
ENCODING 222
SWIDTH 600 0
DWIDTH 20 0
BBX 16 19 2 0
BITMAP
FFE0
FFE0
FFE0
FFE0
1FC0
1FFC
1FFE
1FFE
1E1E
1E1F
1E1E
1FFE
1FFE
1FFC
1FC0
FFE0
FFE0
FFE0
FFE0
ENDCHAR
STARTCHAR 00DF
ENCODING 223
SWIDTH 600 0
DWIDTH 20 0
BBX 18 21 0 0
BITMAP
01F800
07FE00
07FF00
0FFF00
0F0F00
1F0780
1E0780
1E0F00
1E3F00
1E7E00
1E7E00
1E7F00
1E0F80
1E0780
1E07C0
1E07C0
1E0780
7E3F80
FE7F80
FE7F00
7E7C00
ENDCHAR
STARTCHAR 00E0
ENCODING 224
SWIDTH 600 0
DWIDTH 20 0
BBX 17 23 2 0
BITMAP
040000
0E0000
0F8000
1FC000
07F000
01F000
003000
000000
1FE000
7FF800
7FFC00
7FFC00
003C00
1FFC00
7FFC00
FFFC00
FFFC00
F03C00
F03C00
FFFF80
FFFF80
7FFF80
1F0F80
ENDCHAR
STARTCHAR 00E1
ENCODING 225
SWIDTH 600 0
DWIDTH 20 0
BBX 17 23 2 0
BITMAP
002000
00F000
01F000
07F000
0FC000
0F0000
0C0000
000000
1FE000
7FF800
7FFC00
7FFC00
003C00
1FFC00
7FFC00
FFFC00
FFFC00
F03C00
F03C00
FFFF80
FFFF80
7FFF80
1F0F80
ENDCHAR
STARTCHAR 00E2
ENCODING 226
SWIDTH 600 0
DWIDTH 20 0
BBX 17 22 2 0
BITMAP
018000
07C000
0FF000
1FF800
3E7C00
181800
000000
1FE000
7FF800
7FFC00
7FFC00
003C00
1FFC00
7FFC00
FFFC00
FFFC00
F03C00
F03C00
FFFF80
FFFF80
7FFF80
1F0F80
ENDCHAR
STARTCHAR 00E3
ENCODING 227
SWIDTH 600 0
DWIDTH 20 0
BBX 17 22 2 0
BITMAP
0F0800
1FFC00
3FFC00
3FF800
30F000
000000
000000
1FE000
7FF800
7FFC00
7FFC00
003C00
1FFC00
7FFC00
FFFC00
FFFC00
F03C00
F03C00
FFFF80
FFFF80
7FFF80
1F0F80
ENDCHAR
STARTCHAR 00E4
ENCODING 228
SWIDTH 600 0
DWIDTH 20 0
BBX 17 22 2 0
BITMAP
3C3800
3C7800
3C7800
3C7800
1C3800
000000
000000
1FE000
7FF800
7FFC00
7FFC00
003C00
1FFC00
7FFC00
FFFC00
FFFC00
F03C00
F03C00
FFFF80
FFFF80
7FFF80
1F0F80
ENDCHAR
STARTCHAR 00E5
ENCODING 229
SWIDTH 600 0
DWIDTH 20 0
BBX 17 24 2 0
BITMAP
03C000
07E000
0FF000
0E7000
0E7000
0FF000
07E000
03C000
000000
1FE000
7FF800
7FFC00
7FFC00
003C00
1FFC00
7FFC00
FFFC00
FFFC00
F03C00
F03C00
FFFF80
FFFF80
7FFF80
1F0F80
ENDCHAR
STARTCHAR 00E6
ENCODING 230
SWIDTH 600 0
DWIDTH 20 0
BBX 18 15 1 0
BITMAP
3F1E00
FFFF80
FFFF80
FFFFC0
01E3C0
1FFFC0
7FFFC0
FFFFC0
FFFFC0
E1E000
E1E000
FFFFC0
FFFFC0
7F7FC0
3E3F00
ENDCHAR
STARTCHAR 00E7
ENCODING 231
SWIDTH 600 0
DWIDTH 20 0
BBX 15 23 2 -8
BITMAP
07CE
1FFE
3FFE
7FFE
7C1E
F81E
F81E
F000
F000
F800
F804
7C1E
7FFE
3FFE
1FFC
03E0
0380
03F0
03F0
0078
0FF8
0FF0
0080
ENDCHAR
STARTCHAR 00E8
ENCODING 232
SWIDTH 600 0
DWIDTH 20 0
BBX 16 23 2 0
BITMAP
0400
0E00
1F80
1FC0
07F0
01F0
0060
0000
07E0
1FF8
3FFC
7FFE
781E
FFFE
FFFF
FFFF
FFFF
F800
7800
7FFE
3FFE
1FFE
07F0
ENDCHAR
STARTCHAR 00E9
ENCODING 233
SWIDTH 600 0
DWIDTH 20 0
BBX 16 23 2 0
BITMAP
0020
0070
01F8
03F8
07E0
0F80
0600
0000
07E0
1FF8
3FFC
7FFE
781E
FFFE
FFFF
FFFF
FFFF
F800
7800
7FFE
3FFE
1FFE
07F0
ENDCHAR
STARTCHAR 00EA
ENCODING 234
SWIDTH 600 0
DWIDTH 20 0
BBX 16 22 2 0
BITMAP
0180
07E0
0FF0
1FF8
3E7C
1818
0000
07E0
1FF8
3FFC
7FFE
781E
FFFE
FFFF
FFFF
FFFF
F800
7800
7FFE
3FFE
1FFE
07F0
ENDCHAR
STARTCHAR 00EB
ENCODING 235
SWIDTH 600 0
DWIDTH 20 0
BBX 16 22 2 0
BITMAP
3C38
3C78
3C78
3C78
1C38
0000
0000
07E0
1FF8
3FFC
7FFE
781E
FFFE
FFFF
FFFF
FFFF
F800
7800
7FFE
3FFE
1FFE
07F0
ENDCHAR
STARTCHAR 00EC
ENCODING 236
SWIDTH 600 0
DWIDTH 20 0
BBX 15 23 3 0
BITMAP
1000
3800
7C00
7F00
1F80
07C0
0180
0000
7F80
7F80
7F80
7F80
0780
0780
0780
0780
0780
0780
0780
FFFC
FFFE
FFFE
FFFE
ENDCHAR
STARTCHAR 00ED
ENCODING 237
SWIDTH 600 0
DWIDTH 20 0
BBX 15 23 3 0
BITMAP
0040
01E0
03E0
0FE0
1F80
1E00
1800
0000
7F80
7F80
7F80
7F80
0780
0780
0780
0780
0780
0780
0780
FFFC
FFFE
FFFE
FFFE
ENDCHAR
STARTCHAR 00EE
ENCODING 238
SWIDTH 600 0
DWIDTH 20 0
BBX 15 22 3 0
BITMAP
0300
0F80
1FE0
3FF0
7CF8
3030
0000
7F80
7F80
7F80
7F80
0780
0780
0780
0780
0780
0780
0780
FFFC
FFFE
FFFE
FFFE
ENDCHAR
STARTCHAR 00EF
ENCODING 239
SWIDTH 600 0
DWIDTH 20 0
BBX 15 22 3 0
BITMAP
7870
78F0
78F0
78F0
3870
0000
0000
7F80
7F80
7F80
7F80
0780
0780
0780
0780
0780
0780
0780
FFFC
FFFE
FFFE
FFFE
ENDCHAR
STARTCHAR 00F0
ENCODING 240
SWIDTH 600 0
DWIDTH 20 0
BBX 16 22 2 0
BITMAP
0608
0F38
0FFC
0FF8
0FF0
0FF8
0EFC
087C
0FFE
1FFE
7FFE
7FFF
F83F
F81F
F01F
F01F
F81F
F83E
7FFE
3FFC
1FF8
07E0
ENDCHAR
STARTCHAR 00F1
ENCODING 241
SWIDTH 600 0
DWIDTH 20 0
BBX 18 22 1 0
BITMAP
078400
0FFE00
1FFE00
1FFC00
187800
000000
000000
FC7800
FCFE00
FDFF00
FFFF00
3F0F00
3E0F00
3E0F00
3E0F00
3E0F00
3E0F00
3E0F00
7F1FC0
FF3FC0
FF3FC0
FF3FC0
ENDCHAR
STARTCHAR 00F2
ENCODING 242
SWIDTH 600 0
DWIDTH 20 0
BBX 16 23 2 0
BITMAP
0400
0E00
1F00
1FC0
07E0
01F0
0060
0000
07E0
1FF8
3FFC
7FFE
F83E
F81F
F00F
F00F
F00F
F81F
F83E
7FFE
3FFC
1FF8
07E0
ENDCHAR
STARTCHAR 00F3
ENCODING 243
SWIDTH 600 0
DWIDTH 20 0
BBX 16 23 2 0
BITMAP
0020
0070
00F8
03F8
07E0
0F80
0600
0000
07E0
1FF8
3FFC
7FFE
F83E
F81F
F00F
F00F
F00F
F81F
F83E
7FFE
3FFC
1FF8
07E0
ENDCHAR
STARTCHAR 00F4
ENCODING 244
SWIDTH 600 0
DWIDTH 20 0
BBX 16 22 2 0
BITMAP
0180
07C0
0FF0
1FF8
3E7C
1818
0000
07E0
1FF8
3FFC
7FFE
F83E
F81F
F00F
F00F
F00F
F81F
F83E
7FFE
3FFC
1FF8
07E0
ENDCHAR
STARTCHAR 00F5
ENCODING 245
SWIDTH 600 0
DWIDTH 20 0
BBX 16 22 2 0
BITMAP
0F08
1FFC
3FFC
3FF8
30F0
0000
0000
07E0
1FF8
3FFC
7FFE
F83E
F81F
F00F
F00F
F00F
F81F
F83E
7FFE
3FFC
1FF8
07E0
ENDCHAR
STARTCHAR 00F6
ENCODING 246
SWIDTH 600 0
DWIDTH 20 0
BBX 16 22 2 0
BITMAP
3C38
3C78
3C78
3C78
1C38
0000
0000
07E0
1FF8
3FFC
7FFE
F83E
F81F
F00F
F00F
F00F
F81F
F83E
7FFE
3FFC
1FF8
07E0
ENDCHAR
STARTCHAR 00F7
ENCODING 247
SWIDTH 600 0
DWIDTH 20 0
BBX 14 16 3 1
BITMAP
0780
0780
0780
0780
0000
0000
FFFC
FFFC
FFFC
FFFC
0000
0000
0780
0780
0780
0780
ENDCHAR
STARTCHAR 00F8
ENCODING 248
SWIDTH 600 0
DWIDTH 20 0
BBX 17 18 1 -1
BITMAP
000100
000180
03F380
0FFF80
1FFF00
3FFF00
7C3F00
7C7F80
78F780
79E780
7BC780
7F8F80
7F1F00
3FFF00
3FFE00
7FFC00
F3F000
600000
ENDCHAR
STARTCHAR 00F9
ENCODING 249
SWIDTH 600 0
DWIDTH 20 0
BBX 18 23 1 0
BITMAP
040000
0F0000
0F8000
0FE000
03F000
00F000
003000
000000
FC7F00
FC7F00
FC7F00
FC7F00
3C0F00
3C0F00
3C0F00
3C1F00
3C1F00
3C1F00
3C3F00
3FFF80
1FEFC0
1FEFC0
078FC0
ENDCHAR
STARTCHAR 00FA
ENCODING 250
SWIDTH 600 0
DWIDTH 20 0
BBX 18 23 1 0
BITMAP
001000
003C00
007C00
01FC00
03F000
03C000
030000
000000
FC7F00
FC7F00
FC7F00
FC7F00
3C0F00
3C0F00
3C0F00
3C1F00
3C1F00
3C1F00
3C3F00
3FFF80
1FEFC0
1FEFC0
078FC0
ENDCHAR
STARTCHAR 00FB
ENCODING 251
SWIDTH 600 0
DWIDTH 20 0
BBX 18 22 1 0
BITMAP
01C000
03E000
07F800
0FFC00
1E3E00
1C0C00
000000
FC7F00
FC7F00
FC7F00
FC7F00
3C0F00
3C0F00
3C0F00
3C1F00
3C1F00
3C1F00
3C3F00
3FFF80
1FEFC0
1FEFC0
078FC0
ENDCHAR
STARTCHAR 00FC
ENCODING 252
SWIDTH 600 0
DWIDTH 20 0
BBX 18 22 1 0
BITMAP
1E3C00
1E3C00
1E3C00
1E3C00
1E3C00
000000
000000
FC7F00
FC7F00
FC7F00
FC7F00
3C0F00
3C0F00
3C0F00
3C1F00
3C1F00
3C1F00
3C3F00
3FFF80
1FEFC0
1FEFC0
078FC0
ENDCHAR
STARTCHAR 00FD
ENCODING 253
SWIDTH 600 0
DWIDTH 20 0
BBX 18 29 1 -6
BITMAP
000800
003C00
007C00
01FC00
03F000
03C000
030000
000000
FF3FC0
FF3FC0
FF3FC0
FF3FC0
3E1F00
1E1E00
1F3E00
0F3C00
0FFC00
07F800
07F800
03F000
03F000
01E000
03E000
07C000
078000
3F8000
7F0000
7E0000
7C0000
ENDCHAR
STARTCHAR 00FE
ENCODING 254
SWIDTH 600 0
DWIDTH 20 0
BBX 17 27 1 -6
BITMAP
FC0000
FC0000
FC0000
FC0000
3C0000
3C0000
3CF800
3FFE00
3FFF00
3FFF00
3E0F80
3C0780
3C0780
3C0780
3C0780
3C0780
3E0F80
3FFF00
3FFF00
3FFE00
3CF800
3C0000
3C0000
FF8000
FFC000
FFC000
FFC000
ENDCHAR
STARTCHAR 00FF
ENCODING 255
SWIDTH 600 0
DWIDTH 20 0
BBX 18 28 1 -6
BITMAP
1E1C00
1E3C00
1E3C00
1E3C00
0E1C00
000000
000000
FF3FC0
FF3FC0
FF3FC0
FF3FC0
3E1F00
1E1E00
1F3E00
0F3C00
0FFC00
07F800
07F800
03F000
03F000
01E000
03E000
07C000
078000
3F8000
7F0000
7E0000
7C0000
ENDCHAR
STARTCHAR 0152
ENCODING 140
SWIDTH 600 0
DWIDTH 20 0
BBX 18 19 1 0
BITMAP
07FF80
1FFFC0
3FFFC0
7FFFC0
7CE3C0
78E3C0
F0E100
F0F800
F0FC00
F0FC00
F0FC00
F0E000
F0E3C0
78E3C0
7CE3C0
7FFFC0
3FFFC0
1FFFC0
07FFC0
ENDCHAR
STARTCHAR 0153
ENCODING 156
SWIDTH 600 0
DWIDTH 20 0
BBX 19 15 0 0
BITMAP
0F0F00
3FFFC0
3FFFC0
7FFFE0
78F1E0
70FFE0
F0FFE0
F0FFE0
F0FFE0
70F000
78F000
7FFFE0
3FFFE0
3FFFE0
0F1F80
ENDCHAR
STARTCHAR 0160
ENCODING 138
SWIDTH 600 0
DWIDTH 20 0
BBX 16 26 2 0
BITMAP
1818
3C7C
1FF8
0FF0
07C0
0380
0000
0F9E
3FFE
7FFE
7FFE
F81E
F80E
F800
7F80
7FF8
1FFC
07FE
003E
601E
701F
781E
7FFE
7FFE
7FFC
73F0
ENDCHAR
STARTCHAR 0161
ENCODING 154
SWIDTH 600 0
DWIDTH 20 0
BBX 14 22 3 0
BITMAP
3030
78F8
3FF0
1FE0
0F80
0700
0000
1F38
7FFC
FFFC
FFFC
F038
F800
FFE0
7FF8
0FFC
E03C
F03C
FFFC
FFFC
FFF8
E7E0
ENDCHAR
STARTCHAR 0178
ENCODING 159
SWIDTH 600 0
DWIDTH 20 0
BBX 18 26 1 0
BITMAP
1E1C00
1E3C00
1E3C00
1E3C00
0E1C00
000000
000000
FF3FC0
FF3FC0
FF3FC0
FF1FC0
3E1F00
1E1E00
1F3C00
0FFC00
07F800
07F000
03F000
01E000
01E000
01E000
01E000
1FFC00
1FFE00
1FFE00
1FFE00
ENDCHAR
STARTCHAR 017D
ENCODING 142
SWIDTH 600 0
DWIDTH 20 0
BBX 15 26 2 0
BITMAP
1818
3E7C
1FF8
0FF0
07E0
0180
0000
7FFE
7FFE
7FFE
7FFE
707C
70F8
70F0
71F0
03E0
07C0
0780
0F8E
1F0E
3E0E
3C0E
7FFE
FFFE
FFFE
FFFE
ENDCHAR
STARTCHAR 017E
ENCODING 158
SWIDTH 600 0
DWIDTH 20 0
BBX 15 22 2 0
BITMAP
1818
3E7C
1FF8
0FF0
07E0
0180
0000
7FFE
7FFE
7FFE
7FFC
70F8
71F0
03E0
07C0
0F80
1F0E
3E0E
7FFE
FFFE
FFFE
FFFE
ENDCHAR
STARTCHAR 0192
ENCODING 131
SWIDTH 600 0
DWIDTH 20 0
BBX 19 26 0 -4
BITMAP
000300
003FE0
007FE0
007FC0
00F800
00F000
00F000
00F000
1FFF80
1FFF80
1FFF80
0FFF00
01E000
01E000
01E000
01E000
01E000
01E000
01E000
01E000
01E000
03E000
7FC000
FFC000
FF8000
7E0000
ENDCHAR
STARTCHAR 02C6
ENCODING 136
SWIDTH 600 0
DWIDTH 20 0
BBX 12 6 4 16
BITMAP
0600
1F00
3FC0
7FE0
F9F0
6060
ENDCHAR
STARTCHAR 02DC
ENCODING 152
SWIDTH 600 0
DWIDTH 20 0
BBX 12 5 4 17
BITMAP
3C20
7FF0
FFF0
FFE0
C3C0
ENDCHAR
STARTCHAR 2013
ENCODING 150
SWIDTH 600 0
DWIDTH 20 0
BBX 14 4 3 7
BITMAP
FFF8
FFFC
FFFC
FFFC
ENDCHAR
STARTCHAR 2014
ENCODING 151
SWIDTH 600 0
DWIDTH 20 0
BBX 20 4 0 7
BITMAP
FFFFF0
FFFFF0
FFFFF0
FFFFF0
ENDCHAR
STARTCHAR 2018
ENCODING 145
SWIDTH 600 0
DWIDTH 20 0
BBX 7 9 6 11
BITMAP
0E
1E
1E
3C
3C
7C
7C
FC
F8
ENDCHAR
STARTCHAR 2019
ENCODING 146
SWIDTH 600 0
DWIDTH 20 0
BBX 6 9 7 11
BITMAP
7C
7C
7C
78
F8
F0
F0
E0
E0
ENDCHAR
STARTCHAR 201A
ENCODING 130
SWIDTH 600 0
DWIDTH 20 0
BBX 6 9 7 -5
BITMAP
7C
7C
7C
78
F8
F0
F0
E0
E0
ENDCHAR
STARTCHAR 201C
ENCODING 147
SWIDTH 600 0
DWIDTH 20 0
BBX 15 9 2 11
BITMAP
1C0E
1C0E
3C1E
3C1E
7C3E
7C3E
F87C
F87C
F87C
ENDCHAR
STARTCHAR 201D
ENCODING 148
SWIDTH 600 0
DWIDTH 20 0
BBX 16 9 2 11
BITMAP
3E1F
7E3F
7C3E
7C3E
783C
783C
F078
F078
E070
ENDCHAR
STARTCHAR 201E
ENCODING 132
SWIDTH 600 0
DWIDTH 20 0
BBX 16 9 2 -5
BITMAP
3E1F
7E3F
7C3E
7C3E
783C
783C
F078
F078
E070
ENDCHAR
STARTCHAR 2020
ENCODING 134
SWIDTH 600 0
DWIDTH 20 0
BBX 12 15 4 4
BITMAP
0F00
0F00
0F00
0F00
FFF0
FFF0
FFF0
7FE0
0F00
0F00
0F00
0F00
0F00
0F00
0F00
ENDCHAR
STARTCHAR 2021
ENCODING 135
SWIDTH 600 0
DWIDTH 20 0
BBX 12 17 4 2
BITMAP
0F00
0F00
0F00
0F00
FFF0
FFF0
FFF0
7FE0
0F00
0F00
FFF0
FFF0
FFF0
7FE0
0F00
0F00
0F00
ENDCHAR
STARTCHAR 2022
ENCODING 149
SWIDTH 600 0
DWIDTH 20 0
BBX 8 9 6 5
BITMAP
7E
FF
FF
FF
FF
FF
FF
FF
7E
ENDCHAR
STARTCHAR 2026
ENCODING 133
SWIDTH 600 0
DWIDTH 20 0
BBX 17 5 1 0
BITMAP
71E380
F1E780
F1E780
F1E780
71E380
ENDCHAR
STARTCHAR 2030
ENCODING 137
SWIDTH 600 0
DWIDTH 20 0
BBX 24 19 1 0
BITMAP
3C0000
7F0000
FF0380
E78780
E78F80
FF1F00
7F3C00
3C7800
00F000
03E000
07CE78
0FBFFE
1F3FFE
3E79CF
7C71C7
F879CF
603FFE
003FFE
000E78
ENDCHAR
STARTCHAR 2039
ENCODING 139
SWIDTH 600 0
DWIDTH 20 0
BBX 8 13 6 2
BITMAP
0C
1E
1F
3E
7C
F8
F0
F8
7C
3C
1E
1F
0C
ENDCHAR
STARTCHAR 203A
ENCODING 155
SWIDTH 600 0
DWIDTH 20 0
BBX 8 13 6 2
BITMAP
30
F0
F8
7C
3E
1E
0F
1F
3E
7C
F8
F0
30
ENDCHAR
STARTCHAR 20AC
ENCODING 128
SWIDTH 600 0
DWIDTH 20 0
BBX 17 19 1 0
BITMAP
01F380
07FF80
0FFF80
1FFF80
1E0F80
FFE780
FFE780
FFE780
3C0000
3C0000
FFE000
FFE000
FFE000
1E0000
1F0380
0FFF80
0FFF80
07FF00
01F800
ENDCHAR
STARTCHAR 2122
ENCODING 153
SWIDTH 600 0
DWIDTH 20 0
BBX 20 9 1 13
BITMAP
FF3060
FF38E0
FF38E0
187DE0
187DE0
187FF0
187770
187770
187070
ENDCHAR
ENDFONT
