STARTFONT 2.1
COMMENT
COMMENT Converted from OpenType font "CourierPrime-Bold.ttf" by "otf2bdf 3.0".
COMMENT
FONT -FreeType-courier prime-Bold-R-Normal--28-200-100-100-P-133-Windows-cp1252
SIZE 20 100 100
FONTBOUNDINGBOX 22 32 -1 -7
STARTPROPERTIES 19
FOUNDRY "FreeType"
FAMILY_NAME "courier prime"
WEIGHT_NAME "Bold"
SLANT "R"
SETWIDTH_NAME "Normal"
ADD_STYLE_NAME ""
PIXEL_SIZE 28
POINT_SIZE 200
RESOLUTION_X 100
RESOLUTION_Y 100
SPACING "P"
AVERAGE_WIDTH 133
CHARSET_REGISTRY "Windows"
CHARSET_ENCODING "cp1252"
FONT_ASCENT 21
FONT_DESCENT 9
COPYRIGHT "Copyright 2015 The Courier Prime Project Authors (https://github.com/quoteunquoteapps/CourierPrime)."
_OTF_FONTFILE "CourierPrime-Bold.ttf"
_OTF_PSNAME "CourierPrime-Bold"
ENDPROPERTIES
CHARS 219
STARTCHAR 000D
ENCODING 13
SWIDTH 612 0
DWIDTH 17 0
BBX 0 0 0 0
BITMAP
ENDCHAR
STARTCHAR 0020
ENCODING 32
SWIDTH 612 0
DWIDTH 17 0
BBX 0 0 0 0
BITMAP
ENDCHAR
STARTCHAR 0021
ENCODING 33
SWIDTH 612 0
DWIDTH 17 0
BBX 5 18 6 0
BITMAP
F8
F0
F0
F0
70
70
70
70
70
70
70
00
00
F0
F8
F8
F8
F0
ENDCHAR
STARTCHAR 0022
ENCODING 34
SWIDTH 612 0
DWIDTH 17 0
BBX 12 8 2 9
BITMAP
F8F0
78F0
78F0
78F0
70F0
7070
7060
3060
ENDCHAR
STARTCHAR 0023
ENCODING 35
SWIDTH 612 0
DWIDTH 17 0
BBX 15 16 1 0
BITMAP
071C
0718
0E38
7FFE
7FFE
7FFE
1C70
1C70
1C60
FFFC
FFFC
FFFC
38C0
31C0
71C0
71C0
ENDCHAR
STARTCHAR 0024
ENCODING 36
SWIDTH 612 0
DWIDTH 17 0
BBX 13 20 2 -2
BITMAP
0700
0700
0700
1F70
7FF0
7FF0
F7F0
F730
FF00
7FE0
3FF0
0FF8
E778
F778
FFF0
FFF0
F7C0
0700
0700
0700
ENDCHAR
STARTCHAR 0025
ENCODING 37
SWIDTH 612 0
DWIDTH 17 0
BBX 15 16 1 0
BITMAP
7800
FC00
FE0C
C61E
FE7C
FEF0
79E0
03C0
07B8
1FFC
3CFE
78CE
F0CE
60FE
00FC
0038
ENDCHAR
STARTCHAR 0026
ENCODING 38
SWIDTH 612 0
DWIDTH 17 0
BBX 15 16 1 0
BITMAP
0FC0
1FF0
3FF0
3C70
3870
3800
3C00
1E3C
7F3C
7FFC
73F0
F1F0
71F0
7FFE
3FFE
1F3E
ENDCHAR
STARTCHAR 0027
ENCODING 39
SWIDTH 612 0
DWIDTH 17 0
BBX 5 8 6 9
BITMAP
F8
F8
F0
70
70
70
70
70
ENDCHAR
STARTCHAR 0028
ENCODING 40
SWIDTH 612 0
DWIDTH 17 0
BBX 9 25 4 -6
BITMAP
0200
0700
0F80
1F00
3E00
7C00
7800
F000
F000
E000
E000
E000
E000
E000
E000
E000
F000
F000
7800
7C00
3E00
1F00
0F80
0700
0200
ENDCHAR
STARTCHAR 0029
ENCODING 41
SWIDTH 612 0
DWIDTH 17 0
BBX 9 25 4 -6
BITMAP
4000
7000
F800
7C00
3E00
1E00
0F00
0700
0780
0780
0380
0380
0380
0380
0380
0780
0780
0700
0F00
1E00
3E00
7C00
F800
7000
4000
ENDCHAR
STARTCHAR 002A
ENCODING 42
SWIDTH 612 0
DWIDTH 17 0
BBX 11 11 3 5
BITMAP
0E00
0E00
0E00
CEE0
FDE0
FFE0
3F80
1F00
3B80
7BC0
71C0
ENDCHAR
STARTCHAR 002B
ENCODING 43
SWIDTH 612 0
DWIDTH 17 0
BBX 12 12 2 2
BITMAP
0700
0700
0700
0700
FFF0
FFF0
FFF0
0700
0700
0700
0700
0700
ENDCHAR
STARTCHAR 002C
ENCODING 44
SWIDTH 612 0
DWIDTH 17 0
BBX 6 9 5 -4
BITMAP
7C
78
78
78
F0
F0
E0
E0
C0
ENDCHAR
STARTCHAR 002D
ENCODING 45
SWIDTH 612 0
DWIDTH 17 0
BBX 12 3 2 6
BITMAP
FFF0
FFF0
FFF0
ENDCHAR
STARTCHAR 002E
ENCODING 46
SWIDTH 612 0
DWIDTH 17 0
BBX 5 5 6 0
BITMAP
F8
F8
F8
F8
F8
ENDCHAR
STARTCHAR 002F
ENCODING 47
SWIDTH 612 0
DWIDTH 17 0
BBX 13 24 2 -5
BITMAP
0070
0078
0070
00F0
00E0
01E0
01E0
03C0
03C0
0380
0780
0700
0F00
0F00
0E00
1E00
1C00
3C00
3C00
3800
7800
7000
F000
E000
ENDCHAR
STARTCHAR 0030
ENCODING 48
SWIDTH 612 0
DWIDTH 17 0
BBX 13 16 2 0
BITMAP
0F80
3FE0
7FE0
78F0
F070
F078
F078
E078
E078
F078
F078
F070
78F0
7FE0
3FE0
0F80
ENDCHAR
STARTCHAR 0031
ENCODING 49
SWIDTH 612 0
DWIDTH 17 0
BBX 12 16 3 0
BITMAP
0600
1F00
3F00
FF00
FF00
CF00
0F00
0F00
0F00
0F00
0F00
0F00
0F00
FFE0
FFF0
FFF0
ENDCHAR
STARTCHAR 0032
ENCODING 50
SWIDTH 612 0
DWIDTH 17 0
BBX 13 16 2 0
BITMAP
1F80
7FE0
7FE0
70F0
70F0
70F0
00F0
01E0
03C0
0780
0F00
1E70
7C78
FFF8
FFF8
FFF0
ENDCHAR
STARTCHAR 0033
ENCODING 51
SWIDTH 612 0
DWIDTH 17 0
BBX 12 16 2 0
BITMAP
1F80
7FE0
7FE0
70F0
70F0
00F0
0FE0
0FC0
0FE0
00F0
0070
0070
60F0
7FF0
FFE0
3F80
ENDCHAR
STARTCHAR 0034
ENCODING 52
SWIDTH 612 0
DWIDTH 17 0
BBX 13 16 2 0
BITMAP
01C0
03C0
07C0
0FC0
1FC0
3DC0
39C0
71C0
FFF8
FFF8
FFF8
03C0
03C0
1FF0
1FF8
1FF8
ENDCHAR
STARTCHAR 0035
ENCODING 53
SWIDTH 612 0
DWIDTH 17 0
BBX 12 16 2 0
BITMAP
7FE0
7FE0
7FE0
7800
7000
7FC0
7FE0
7FF0
70F0
00F0
0070
00F0
71F0
FFF0
7FE0
1F80
ENDCHAR
STARTCHAR 0036
ENCODING 54
SWIDTH 612 0
DWIDTH 17 0
BBX 13 16 2 0
BITMAP
01F0
0FF0
1FF0
3F00
7800
77C0
FFE0
FFF0
F8F0
F078
F078
7078
78F0
7FF0
3FE0
0F80
ENDCHAR
STARTCHAR 0037
ENCODING 55
SWIDTH 612 0
DWIDTH 17 0
BBX 12 16 3 0
BITMAP
FFF0
FFF0
FFF0
E0E0
E1E0
E1C0
03C0
0380
0780
0780
0F00
0F00
1E00
1E00
3C00
1C00
ENDCHAR
STARTCHAR 0038
ENCODING 56
SWIDTH 612 0
DWIDTH 17 0
BBX 12 16 2 0
BITMAP
0F80
3FE0
7FE0
78F0
7070
78F0
3FE0
1FC0
7FE0
78F0
F070
F070
78F0
7FF0
3FE0
1F80
ENDCHAR
STARTCHAR 0039
ENCODING 57
SWIDTH 612 0
DWIDTH 17 0
BBX 13 16 2 0
BITMAP
1F80
3FC0
7FE0
F8F0
F070
F070
F0F8
7FF8
7FF8
1F70
00F0
01F0
07E0
7FC0
7F80
3C00
ENDCHAR
STARTCHAR 003A
ENCODING 58
SWIDTH 612 0
DWIDTH 17 0
BBX 5 13 6 0
BITMAP
F8
F8
F8
F8
F8
00
00
00
F8
F8
F8
F8
F8
ENDCHAR
STARTCHAR 003B
ENCODING 59
SWIDTH 612 0
DWIDTH 17 0
BBX 6 17 5 -4
BITMAP
7C
7C
7C
7C
7C
00
00
00
3C
7C
78
78
70
70
E0
E0
E0
ENDCHAR
STARTCHAR 003C
ENCODING 60
SWIDTH 612 0
DWIDTH 17 0
BBX 13 14 2 1
BITMAP
0030
00F8
03F8
0FE0
1F80
7E00
F800
F800
7E00
1F80
0FE0
03F8
00F8
0030
ENDCHAR
STARTCHAR 003D
ENCODING 61
SWIDTH 612 0
DWIDTH 17 0
BBX 12 9 2 4
BITMAP
FFF0
FFF0
FFF0
0000
0000
0000
FFF0
FFF0
FFF0
ENDCHAR
STARTCHAR 003E
ENCODING 62
SWIDTH 612 0
DWIDTH 17 0
BBX 13 14 2 1
BITMAP
6000
F800
FC00
7F00
1FC0
07F0
01F8
00F8
03F0
0FC0
3F00
FC00
F000
6000
ENDCHAR
STARTCHAR 003F
ENCODING 63
SWIDTH 612 0
DWIDTH 17 0
BBX 11 18 3 0
BITMAP
3F00
FF80
FFC0
E3C0
E1E0
E1E0
01C0
0FC0
1F80
0F00
0C00
0C00
0000
0000
1E00
1E00
1E00
1E00
ENDCHAR
STARTCHAR 0040
ENCODING 64
SWIDTH 612 0
DWIDTH 17 0
BBX 16 17 0 -2
BITMAP
03F0
0FFC
1E1E
3806
31C7
73DB
6773
6633
E633
EE73
EE77
67BE
67BC
7000
3810
1FF0
07E0
ENDCHAR
STARTCHAR 0041
ENCODING 65
SWIDTH 612 0
DWIDTH 17 0
BBX 17 16 0 0
BITMAP
3FE000
3FE000
3FE000
077000
077000
0E7000
0E3800
0E3800
1FF800
1FFC00
1FFC00
3C1C00
381E00
FE7F80
FE7F80
FE3F80
ENDCHAR
STARTCHAR 0042
ENCODING 66
SWIDTH 612 0
DWIDTH 17 0
BBX 15 16 1 0
BITMAP
FFE0
FFF8
FFF8
3C38
3C3C
3C38
3FF8
3FF0
3FFC
3C3C
3C1E
3C1E
3C3C
FFFC
FFF8
FFF0
ENDCHAR
STARTCHAR 0043
ENCODING 67
SWIDTH 612 0
DWIDTH 17 0
BBX 14 16 1 0
BITMAP
07DC
1FFC
3FFC
7C7C
783C
701C
F01C
F000
F000
F000
7800
7800
7C1C
3FFC
1FFC
07E0
ENDCHAR
STARTCHAR 0044
ENCODING 68
SWIDTH 612 0
DWIDTH 17 0
BBX 15 16 1 0
BITMAP
FFC0
FFF0
FFF8
387C
383C
381E
381E
381E
381E
381E
381E
383C
387C
FFF8
FFF0
FFC0
ENDCHAR
STARTCHAR 0045
ENCODING 69
SWIDTH 612 0
DWIDTH 17 0
BBX 14 16 1 0
BITMAP
FFFC
FFFC
FFFC
381C
381C
3808
3F80
3FC0
3FC0
380C
381C
381C
381C
FFFC
FFFC
FFFC
ENDCHAR
STARTCHAR 0046
ENCODING 70
SWIDTH 612 0
DWIDTH 17 0
BBX 14 16 1 0
BITMAP
FFFC
FFFC
FFFC
3C1C
3C1C
3C1C
3C00
3FE0
3FE0
3FE0
3C00
3C00
3C00
FFC0
FFC0
FFC0
ENDCHAR
STARTCHAR 0047
ENCODING 71
SWIDTH 612 0
DWIDTH 17 0
BBX 15 16 1 0
BITMAP
0F9C
1FFC
3FFC
7C7C
783C
F03C
F000
F1FE
F1FE
F1FE
F01C
781C
7C3C
3FFC
1FFC
07E0
ENDCHAR
STARTCHAR 0048
ENCODING 72
SWIDTH 612 0
DWIDTH 17 0
BBX 15 16 1 0
BITMAP
FCFE
FEFE
FCFE
7838
7838
7838
7FF8
7FF8
7FF8
7838
7838
7838
7838
FCFE
FEFE
FCFE
ENDCHAR
STARTCHAR 0049
ENCODING 73
SWIDTH 612 0
DWIDTH 17 0
BBX 12 16 2 0
BITMAP
7FF0
7FF0
7FF0
0700
0700
0700
0700
0700
0700
0700
0700
0700
0700
FFF0
FFF0
FFF0
ENDCHAR
STARTCHAR 004A
ENCODING 74
SWIDTH 612 0
DWIDTH 17 0
BBX 15 16 1 0
BITMAP
1FFE
1FFE
1FFE
00F0
00F0
00F0
00F0
00F0
60F0
F0F0
F0F0
F0F0
F1F0
FFE0
7FE0
1F80
ENDCHAR
STARTCHAR 004B
ENCODING 75
SWIDTH 612 0
DWIDTH 17 0
BBX 16 16 1 0
BITMAP
FEFE
FEFE
FEFE
3878
38F0
39E0
3BC0
3F80
3FE0
3FF0
3C78
3878
383C
FF3F
FF1F
FF0F
ENDCHAR
STARTCHAR 004C
ENCODING 76
SWIDTH 612 0
DWIDTH 17 0
BBX 14 16 1 0
BITMAP
FFC0
FFC0
FFC0
1C00
1C00
1C00
1C00
1C00
1C1C
1C1C
1C1C
1C1C
1C1C
FFFC
FFFC
FFFC
ENDCHAR
STARTCHAR 004D
ENCODING 77
SWIDTH 612 0
DWIDTH 17 0
BBX 17 16 0 0
BITMAP
7C1F00
FC3F00
FE3F00
3E3E00
3E7E00
3F7E00
3F6E00
3BEE00
3BEE00
39CE00
39CE00
380E00
380E00
FE3F80
FE3F80
FE3F80
ENDCHAR
STARTCHAR 004E
ENCODING 78
SWIDTH 612 0
DWIDTH 17 0
BBX 15 16 1 0
BITMAP
F87E
FC7E
FC7E
7E1C
7E1C
7F1C
7F9C
7B9C
7BDC
79FC
78FC
78FC
787C
FE3C
FE3C
FE1C
ENDCHAR
STARTCHAR 004F
ENCODING 79
SWIDTH 612 0
DWIDTH 17 0
BBX 15 16 1 0
BITMAP
0FC0
1FF0
3FF8
7C7C
F03C
F01E
F01E
F01E
F01E
F01E
F01E
F03C
7C7C
3FF8
1FF0
0FC0
ENDCHAR
STARTCHAR 0050
ENCODING 80
SWIDTH 612 0
DWIDTH 17 0
BBX 15 16 1 0
BITMAP
FFE0
FFF8
FFFC
1C3C
1C1C
1C1E
1C1C
1C3C
1FFC
1FF8
1FE0
1C00
1C00
FFC0
FFC0
FFC0
ENDCHAR
STARTCHAR 0051
ENCODING 81
SWIDTH 612 0
DWIDTH 17 0
BBX 15 21 1 -5
BITMAP
0FC0
1FF0
3FF8
7C7C
F03C
F01E
F01E
F01E
F01E
F01E
F01E
F03C
7C7C
3FF8
1FF0
0FC0
1C00
3FFC
3FFE
3FFC
2000
ENDCHAR
STARTCHAR 0052
ENCODING 82
SWIDTH 612 0
DWIDTH 17 0
BBX 16 16 1 0
BITMAP
FFE0
FFF8
FFF8
3C7C
3C3C
3C3C
3C7C
3FF8
3FF0
3FE0
3CF0
3C78
3C7C
FF3E
FF1F
FF1E
ENDCHAR
STARTCHAR 0053
ENCODING 83
SWIDTH 612 0
DWIDTH 17 0
BBX 13 16 2 0
BITMAP
1F70
7FF0
7FF0
F0F0
F030
F000
FF00
7FE0
1FF0
01F8
E078
E078
F8F8
FFF0
FFF0
E7C0
ENDCHAR
STARTCHAR 0054
ENCODING 84
SWIDTH 612 0
DWIDTH 17 0
BBX 14 16 1 0
BITMAP
FFFC
FFFC
FFFC
E38C
E38C
E38C
E38C
0380
0380
0380
0380
0380
0380
3FF8
3FF8
3FF8
ENDCHAR
STARTCHAR 0055
ENCODING 85
SWIDTH 612 0
DWIDTH 17 0
BBX 15 16 1 0
BITMAP
FCFE
FEFE
FCFE
783C
783C
783C
783C
783C
783C
783C
783C
783C
7C78
3FF8
1FF0
07C0
ENDCHAR
STARTCHAR 0056
ENCODING 86
SWIDTH 612 0
DWIDTH 17 0
BBX 17 16 0 0
BITMAP
FE3F80
FF3F80
FE3F80
3C1E00
3C1E00
1C1C00
1E3C00
0E3800
0E7800
0F7800
077000
07F000
07E000
03E000
03C000
01C000
ENDCHAR
STARTCHAR 0057
ENCODING 87
SWIDTH 612 0
DWIDTH 17 0
BBX 17 16 0 0
BITMAP
FE3F80
FE3F80
FE3F80
700E00
788E00
39CE00
39CE00
3BEE00
3BEE00
3FEE00
3F7E00
3E7C00
3E3C00
3E3C00
1C3C00
1C1C00
ENDCHAR
STARTCHAR 0058
ENCODING 88
SWIDTH 612 0
DWIDTH 17 0
BBX 16 16 0 0
BITMAP
7F7F
7F7F
7F7F
1E3C
0F78
0F78
07F0
03E0
03E0
07F0
0F78
1E3C
3C3C
FE7F
FE7F
7E7F
ENDCHAR
STARTCHAR 0059
ENCODING 89
SWIDTH 612 0
DWIDTH 17 0
BBX 15 16 1 0
BITMAP
FE7E
FEFE
FEFE
783C
3C78
1EF0
1EE0
0FE0
07C0
0380
0380
0380
0380
3FF8
3FF8
3FF8
ENDCHAR
STARTCHAR 005A
ENCODING 90
SWIDTH 612 0
DWIDTH 17 0
BBX 13 16 2 0
BITMAP
FFF8
FFF8
FFF8
E0F0
E1E0
E3C0
07C0
0780
0F00
1E38
3E38
3C38
7838
FFF8
FFF8
FFF8
ENDCHAR
STARTCHAR 005B
ENCODING 91
SWIDTH 612 0
DWIDTH 17 0
BBX 9 23 4 -5
BITMAP
FF80
FF80
FF80
E000
E000
E000
E000
E000
E000
E000
E000
E000
E000
E000
E000
E000
E000
E000
E000
E000
FF80
FF80
FF80
ENDCHAR
STARTCHAR 005C
ENCODING 92
SWIDTH 612 0
DWIDTH 17 0
BBX 13 24 2 -5
BITMAP
6000
F000
7000
7800
7800
3800
3C00
1C00
1E00
0E00
0F00
0F00
0700
0780
0380
03C0
03C0
01C0
01E0
00E0
00F0
0070
0078
0070
ENDCHAR
STARTCHAR 005D
ENCODING 93
SWIDTH 612 0
DWIDTH 17 0
BBX 9 23 4 -5
BITMAP
FF80
FF80
FF80
0780
0780
0780
0780
0780
0780
0780
0780
0780
0780
0780
0780
0780
0780
0780
0780
0780
FF80
FF80
FF80
ENDCHAR
STARTCHAR 005E
ENCODING 94
SWIDTH 612 0
DWIDTH 17 0
BBX 11 10 3 6
BITMAP
0E00
0E00
1F00
3F00
3F80
7B80
73C0
F1C0
E1E0
E0E0
ENDCHAR
STARTCHAR 005F
ENCODING 95
SWIDTH 612 0
DWIDTH 17 0
BBX 18 3 -1 -7
BITMAP
FFFFC0
FFFFC0
7FFFC0
ENDCHAR
STARTCHAR 0060
ENCODING 96
SWIDTH 612 0
DWIDTH 17 0
BBX 7 6 4 14
BITMAP
60
F0
F8
7E
1E
06
ENDCHAR
STARTCHAR 0061
ENCODING 97
SWIDTH 612 0
DWIDTH 17 0
BBX 15 13 1 0
BITMAP
1FC0
7FF0
3FF0
3078
0078
1FF8
7FF8
7FF8
F038
70F8
7FFE
7FFE
1F1E
ENDCHAR
STARTCHAR 0062
ENCODING 98
SWIDTH 612 0
DWIDTH 17 0
BBX 15 18 0 0
BITMAP
7C00
FC00
FC00
1C00
1C00
1DF0
1FFC
1FFC
1F3E
1C1E
1C0E
1C0E
1C0E
1C1E
1E3E
7FFC
7BFC
79F0
ENDCHAR
STARTCHAR 0063
ENCODING 99
SWIDTH 612 0
DWIDTH 17 0
BBX 13 13 2 0
BITMAP
0F70
3FF8
7FF8
F8F8
F078
F070
E000
F000
F010
F870
7FF8
3FF0
0FC0
ENDCHAR
STARTCHAR 0064
ENCODING 100
SWIDTH 612 0
DWIDTH 17 0
BBX 15 18 1 0
BITMAP
01F8
01F8
01F8
0038
0038
0F38
3FF8
7FF8
78F8
7078
F038
F038
F038
7078
78F8
7FFE
3FFE
0F3E
ENDCHAR
STARTCHAR 0065
ENCODING 101
SWIDTH 612 0
DWIDTH 17 0
BBX 13 13 2 0
BITMAP
0F80
3FE0
7FF0
F8F0
F078
FFF8
FFF8
FFF8
F000
F830
7FF8
3FF8
0FC0
ENDCHAR
STARTCHAR 0066
ENCODING 102
SWIDTH 612 0
DWIDTH 17 0
BBX 13 18 2 0
BITMAP
03F0
07F8
0FF8
0F18
0E00
0E00
FFF0
FFF0
FFF0
0E00
0E00
0E00
0E00
0E00
0E00
FFF0
FFF0
FFF0
ENDCHAR
STARTCHAR 0067
ENCODING 103
SWIDTH 612 0
DWIDTH 17 0
BBX 15 18 1 -5
BITMAP
0FBE
3FFE
7FFE
78F8
7078
F038
F038
F038
7078
78F8
7FF8
3FF8
0F38
0038
3078
7FF8
7FF0
1FC0
ENDCHAR
STARTCHAR 0068
ENCODING 104
SWIDTH 612 0
DWIDTH 17 0
BBX 15 18 1 0
BITMAP
F800
F800
F800
3800
3800
39E0
3BF0
3FF8
3E78
3C38
3C38
3838
3838
3838
3838
FEFE
FEFE
FE7E
ENDCHAR
STARTCHAR 0069
ENCODING 105
SWIDTH 612 0
DWIDTH 17 0
BBX 13 19 2 0
BITMAP
0700
0700
0700
0700
0000
0000
7F00
7F00
7F00
0700
0700
0700
0700
0700
0700
0700
FFF8
FFF8
FFF8
ENDCHAR
STARTCHAR 006A
ENCODING 106
SWIDTH 612 0
DWIDTH 17 0
BBX 11 24 2 -5
BITMAP
01E0
01E0
01E0
01E0
0000
0000
7FE0
7FE0
7FE0
01E0
01E0
01E0
01E0
01E0
01E0
01E0
01E0
01E0
01E0
01E0
71C0
FFC0
7FC0
1F00
ENDCHAR
STARTCHAR 006B
ENCODING 107
SWIDTH 612 0
DWIDTH 17 0
BBX 15 18 1 0
BITMAP
F800
F800
F800
3800
3800
38FE
39FE
39FE
38F8
39F0
3BC0
3FE0
3FE0
3CF0
3878
FE7E
FE3E
FE1E
ENDCHAR
STARTCHAR 006C
ENCODING 108
SWIDTH 612 0
DWIDTH 17 0
BBX 13 18 2 0
BITMAP
7F00
7F00
7F00
0700
0700
0700
0700
0700
0700
0700
0700
0700
0700
0700
0700
FFF8
FFF8
FFF8
ENDCHAR
STARTCHAR 006D
ENCODING 109
SWIDTH 612 0
DWIDTH 17 0
BBX 16 13 0 0
BITMAP
F38E
F7DE
FFFF
7DEF
79EF
79CF
79CF
79CF
79CF
79CF
79CF
79CF
79C7
ENDCHAR
STARTCHAR 006E
ENCODING 110
SWIDTH 612 0
DWIDTH 17 0
BBX 15 13 1 0
BITMAP
F9E0
FBF8
FFF8
3E78
3C38
3C38
3C38
3838
3838
3838
FE7E
FE7E
FE7E
ENDCHAR
STARTCHAR 006F
ENCODING 111
SWIDTH 612 0
DWIDTH 17 0
BBX 13 13 2 0
BITMAP
0F80
3FE0
7FF0
F8F8
F078
E078
E038
E078
F078
F8F8
7FF0
3FE0
1F80
ENDCHAR
STARTCHAR 0070
ENCODING 112
SWIDTH 612 0
DWIDTH 17 0
BBX 15 18 0 -5
BITMAP
79F0
FBFC
7FFC
1F3E
1C1E
1C0E
1C0E
1C0E
1C1E
1E3E
1FFC
1FFC
1DF0
1C00
1C00
7F80
FF80
7F80
ENDCHAR
STARTCHAR 0071
ENCODING 113
SWIDTH 612 0
DWIDTH 17 0
BBX 15 18 1 -5
BITMAP
0F3E
3FFE
7FFE
78F8
7078
F038
F038
F038
7078
78F8
7FF8
3FF8
0F38
0038
0038
01FE
01FE
01FE
ENDCHAR
STARTCHAR 0072
ENCODING 114
SWIDTH 612 0
DWIDTH 17 0
BBX 13 13 2 0
BITMAP
FC78
FDF8
FFF8
1F90
1E00
1E00
1C00
1C00
1C00
1C00
FFE0
FFE0
FFE0
ENDCHAR
STARTCHAR 0073
ENCODING 115
SWIDTH 612 0
DWIDTH 17 0
BBX 13 13 2 0
BITMAP
1F70
7FF0
FFF0
F0F0
F030
7F80
3FE0
07F0
E078
F878
FFF0
FFF0
F7C0
ENDCHAR
STARTCHAR 0074
ENCODING 116
SWIDTH 612 0
DWIDTH 17 0
BBX 14 16 1 0
BITMAP
0E00
0E00
0E00
0E00
FFF8
FFF8
FFF8
0E00
0E00
0E00
0E00
0E00
0F1C
0FFC
07FC
03F0
ENDCHAR
STARTCHAR 0075
ENCODING 117
SWIDTH 612 0
DWIDTH 17 0
BBX 15 13 1 0
BITMAP
F9F8
F9F8
F9F8
3838
3838
3838
3838
3878
3878
3CF8
3FFE
3FBE
0F3E
ENDCHAR
STARTCHAR 0076
ENCODING 118
SWIDTH 612 0
DWIDTH 17 0
BBX 15 13 1 0
BITMAP
FEFE
FEFE
FEFE
7838
3C78
3C70
1CF0
1EF0
0EE0
0FE0
07C0
07C0
0380
ENDCHAR
STARTCHAR 0077
ENCODING 119
SWIDTH 612 0
DWIDTH 17 0
BBX 17 13 0 0
BITMAP
FC1F80
FC1F80
FC1F80
71C700
71CE00
3BCE00
3BEE00
3FEE00
3F7C00
3F7C00
1E3C00
1E3C00
1C3800
ENDCHAR
STARTCHAR 0078
ENCODING 120
SWIDTH 612 0
DWIDTH 17 0
BBX 15 13 1 0
BITMAP
FEFE
FEFE
FEFE
3C78
1EF0
0FE0
07C0
0FE0
1FF0
3C78
FCFE
FEFE
FCFE
ENDCHAR
STARTCHAR 0079
ENCODING 121
SWIDTH 612 0
DWIDTH 17 0
BBX 15 18 1 -5
BITMAP
FEFE
FEFE
FEFE
3838
3C78
1C70
1EF0
0EE0
0FE0
07C0
07C0
0380
0780
0F00
1F00
7E00
7C00
7800
ENDCHAR
STARTCHAR 007A
ENCODING 122
SWIDTH 612 0
DWIDTH 17 0
BBX 13 13 2 0
BITMAP
FFF8
FFF8
FFF0
E1E0
E3E0
07C0
0F80
1F00
3E38
7C38
FFF8
FFF8
FFF8
ENDCHAR
STARTCHAR 007B
ENCODING 123
SWIDTH 612 0
DWIDTH 17 0
BBX 12 24 2 -5
BITMAP
0020
03F0
07F0
0FE0
0F00
0F00
0E00
0F00
0F00
0E00
1E00
FC00
F800
FE00
1E00
0F00
0F00
0F00
0E00
0F00
0F00
0FF0
07F0
01F0
ENDCHAR
STARTCHAR 007C
ENCODING 124
SWIDTH 612 0
DWIDTH 17 0
BBX 3 24 7 -5
BITMAP
40
E0
E0
E0
E0
E0
E0
E0
E0
E0
E0
E0
E0
E0
E0
E0
E0
E0
E0
E0
E0
E0
E0
E0
ENDCHAR
STARTCHAR 007D
ENCODING 125
SWIDTH 612 0
DWIDTH 17 0
BBX 12 24 3 -5
BITMAP
8000
FC00
FE00
FE00
0F00
0F00
0F00
0F00
0F00
0F00
0780
03E0
01F0
07E0
0F80
0F00
0F00
0F00
0F00
0F00
1F00
FE00
FE00
F800
ENDCHAR
STARTCHAR 007E
ENCODING 126
SWIDTH 612 0
DWIDTH 17 0
BBX 13 5 2 5
BITMAP
3C00
7F38
FFF8
E7F0
01E0
ENDCHAR
STARTCHAR 00A0
ENCODING 160
SWIDTH 612 0
DWIDTH 17 0
BBX 0 0 0 0
BITMAP
ENDCHAR
STARTCHAR 00A1
ENCODING 161
SWIDTH 612 0
DWIDTH 17 0
BBX 5 18 6 -5
BITMAP
F0
F8
F8
F8
F0
00
00
00
70
70
70
70
70
70
70
F0
F0
F8
ENDCHAR
STARTCHAR 00A2
ENCODING 162
SWIDTH 612 0
DWIDTH 17 0
BBX 13 20 2 -2
BITMAP
0700
0700
0700
0F70
3FF8
7FF8
FFF8
F778
F770
E700
E700
F700
FF30
7FF8
7FF8
1FE0
0700
0700
0700
0700
ENDCHAR
STARTCHAR 00A3
ENCODING 163
SWIDTH 612 0
DWIDTH 17 0
BBX 13 16 2 0
BITMAP
0F80
3FF0
3FF0
7870
7870
3800
3C00
FFE0
FFE0
FFE0
1C00
1C00
3C00
7FF0
FFF8
7FE0
ENDCHAR
STARTCHAR 00A4
ENCODING 164
SWIDTH 612 0
DWIDTH 17 0
BBX 14 14 1 1
BITMAP
6008
FFFC
7FFC
3FF8
3C78
3838
3838
3838
3838
3C78
3FF8
7FFC
F7FC
6008
ENDCHAR
STARTCHAR 00A5
ENCODING 165
SWIDTH 612 0
DWIDTH 17 0
BBX 15 16 1 0
BITMAP
FE7E
FEFE
FEFE
3838
7C7C
7EFC
7FFC
0FE0
07C0
7FFC
7FFC
7FFC
0380
3FF8
3FF8
3FF8
ENDCHAR
STARTCHAR 00A6
ENCODING 166
SWIDTH 612 0
DWIDTH 17 0
BBX 3 24 7 -5
BITMAP
40
E0
E0
E0
E0
E0
E0
E0
E0
E0
40
00
00
00
E0
E0
E0
E0
E0
E0
E0
E0
E0
E0
ENDCHAR
STARTCHAR 00A7
ENCODING 167
SWIDTH 612 0
DWIDTH 17 0
BBX 13 20 2 -4
BITMAP
1FF0
3FF0
3FF0
3870
3870
3C70
7F00
FFC0
F7E0
F1F0
7C70
7F78
1FF0
07F0
61E0
70E0
70E0
7FE0
7FE0
7FC0
ENDCHAR
STARTCHAR 00A8
ENCODING 168
SWIDTH 612 0
DWIDTH 17 0
BBX 9 4 4 15
BITMAP
E380
E380
E380
E380
ENDCHAR
STARTCHAR 00A9
ENCODING 169
SWIDTH 612 0
DWIDTH 17 0
BBX 16 17 0 0
BITMAP
03E0
0FF8
1C1C
300E
71E7
67F3
6723
EE03
CE03
EE03
6603
67F3
73E6
380E
1C1C
0FF8
03E0
ENDCHAR
STARTCHAR 00AA
ENCODING 170
SWIDTH 612 0
DWIDTH 17 0
BBX 11 10 3 7
BITMAP
3F00
7F80
63C0
01C0
7FC0
FFC0
E1C0
E3C0
7FE0
3CE0
ENDCHAR
STARTCHAR 00AB
ENCODING 171
SWIDTH 612 0
DWIDTH 17 0
BBX 14 11 1 2
BITMAP
0C18
1E3C
3C3C
3C78
78F0
F1E0
78F0
3C78
3C3C
1E3C
0C18
ENDCHAR
STARTCHAR 00AC
ENCODING 172
SWIDTH 612 0
DWIDTH 17 0
BBX 13 8 2 4
BITMAP
FFF8
FFF8
FFF8
0038
0038
0038
0038
0038
ENDCHAR
STARTCHAR 00AD
ENCODING 173
SWIDTH 612 0
DWIDTH 17 0
BBX 11 3 3 4
BITMAP
FFE0
FFE0
FFE0
ENDCHAR
STARTCHAR 00AE
ENCODING 174
SWIDTH 612 0
DWIDTH 17 0
BBX 13 14 2 4
BITMAP
0F80
3FE0
7070
6F30
CF98
CCD8
8CD8
8F98
CF18
CD98
68B0
7070
3FE0
0F80
ENDCHAR
STARTCHAR 00AF
ENCODING 175
SWIDTH 612 0
DWIDTH 17 0
BBX 9 3 4 15
BITMAP
FF80
FF80
FF80
ENDCHAR
STARTCHAR 00B0
ENCODING 176
SWIDTH 612 0
DWIDTH 17 0
BBX 9 9 3 8
BITMAP
3C00
7F00
FF00
E780
E380
E780
FF00
7F00
3C00
ENDCHAR
STARTCHAR 00B1
ENCODING 177
SWIDTH 612 0
DWIDTH 17 0
BBX 12 16 2 0
BITMAP
0700
0700
0700
0700
FFF0
FFF0
FFF0
0700
0700
0700
0700
0000
0000
FFF0
FFF0
FFF0
ENDCHAR
STARTCHAR 00B2
ENCODING 178
SWIDTH 612 0
DWIDTH 17 0
BBX 9 11 4 7
BITMAP
3E00
FF00
E780
E380
0380
0700
1E00
3880
7180
FF80
FF80
ENDCHAR
STARTCHAR 00B3
ENCODING 179
SWIDTH 612 0
DWIDTH 17 0
BBX 9 11 4 7
BITMAP
7E00
FF00
C380
4380
1F00
1F00
0380
0380
C380
FF00
7E00
ENDCHAR
STARTCHAR 00B4
ENCODING 180
SWIDTH 612 0
DWIDTH 17 0
BBX 7 6 6 14
BITMAP
0C
1E
3E
FC
F0
C0
ENDCHAR
STARTCHAR 00B5
ENCODING 181
SWIDTH 612 0
DWIDTH 17 0
BBX 11 18 3 -5
BITMAP
E0E0
E0E0
E0E0
E0E0
E0E0
E0E0
E0E0
E0E0
E1E0
E3E0
FFE0
FF60
FC60
E000
E000
E000
E000
E000
ENDCHAR
STARTCHAR 00B6
ENCODING 182
SWIDTH 612 0
DWIDTH 17 0
BBX 15 21 1 -5
BITMAP
1FFC
3FFE
7FFC
7F38
FF38
FF38
FF38
7F38
7F38
1F38
0738
0738
0738
0738
0738
0738
0738
0738
0738
0738
0738
ENDCHAR
STARTCHAR 00B7
ENCODING 183
SWIDTH 612 0
DWIDTH 17 0
BBX 5 5 6 5
BITMAP
F8
F8
F8
F8
F8
ENDCHAR
STARTCHAR 00B8
ENCODING 184
SWIDTH 612 0
DWIDTH 17 0
BBX 7 7 5 -6
BITMAP
30
38
3E
0E
8E
FE
FC
ENDCHAR
STARTCHAR 00B9
ENCODING 185
SWIDTH 612 0
DWIDTH 17 0
BBX 9 11 4 7
BITMAP
0C00
3C00
FC00
FC00
1C00
1C00
1C00
1C00
1C00
FF80
FF80
ENDCHAR
STARTCHAR 00BA
ENCODING 186
SWIDTH 612 0
DWIDTH 17 0
BBX 11 10 3 7
BITMAP
1F00
7F80
71C0
E0E0
E0E0
E0E0
E0E0
71C0
7F80
1F00
ENDCHAR
STARTCHAR 00BB
ENCODING 187
SWIDTH 612 0
DWIDTH 17 0
BBX 14 11 2 2
BITMAP
60C0
E1E0
F1E0
78F0
3C78
1C3C
3C78
78F0
F1E0
E1E0
60C0
ENDCHAR
STARTCHAR 00BC
ENCODING 188
SWIDTH 612 0
DWIDTH 17 0
BBX 17 22 0 -3
BITMAP
180000
780000
F80000
980000
180000
180000
180000
180200
FE0600
FE1F00
007C00
01F000
07C600
1F0E00
3C1E00
701E00
203600
007600
007F80
007F80
000600
000600
ENDCHAR
STARTCHAR 00BD
ENCODING 189
SWIDTH 612 0
DWIDTH 17 0
BBX 17 22 0 -3
BITMAP
180000
780000
F80000
980000
180000
180000
180000
180600
FE1F00
FE3C00
00F000
03C000
0F3E00
3E7F00
786380
206380
000300
000E00
001C00
003980
007F80
007F80
ENDCHAR
STARTCHAR 00BE
ENCODING 190
SWIDTH 612 0
DWIDTH 17 0
BBX 17 22 0 -3
BITMAP
7C0000
FE0000
C60000
060000
3E0000
3E0000
070000
870200
FE0F00
7C1E00
007800
01E000
078600
1F0E00
7C1E00
701E00
003600
007600
007F80
007F80
000600
000600
ENDCHAR
STARTCHAR 00BF
ENCODING 191
SWIDTH 612 0
DWIDTH 17 0
BBX 11 17 3 -4
BITMAP
0F00
0F00
0F00
0F00
0000
0000
0E00
0E00
3E00
7E00
F800
F000
F0E0
F0E0
7FE0
7FE0
1F80
ENDCHAR
STARTCHAR 00C0
ENCODING 192
SWIDTH 612 0
DWIDTH 17 0
BBX 17 24 0 0
BITMAP
0C0000
0E0000
1F8000
07C000
03E000
00C000
000000
000000
3FE000
3FE000
3FE000
077000
077000
0E7000
0E3800
0E3800
1FF800
1FFC00
1FFC00
3C1C00
381E00
FE7F80
FE7F80
FE3F80
ENDCHAR
STARTCHAR 00C1
ENCODING 193
SWIDTH 612 0
DWIDTH 17 0
BBX 17 24 0 0
BITMAP
006000
00F000
01F000
07E000
078000
060000
000000
000000
3FE000
3FE000
3FE000
077000
077000
0E7000
0E3800
0E3800
1FF800
1FFC00
1FFC00
3C1C00
381E00
FE7F80
FE7F80
FE3F80
ENDCHAR
STARTCHAR 00C2
ENCODING 194
SWIDTH 612 0
DWIDTH 17 0
BBX 17 24 0 0
BITMAP
008000
03C000
07E000
0FF000
1E7800
081800
000000
000000
3FE000
3FE000
3FE000
077000
077000
0E7000
0E3800
0E3800
1FF800
1FFC00
1FFC00
3C1C00
381E00
FE7F80
FE7F80
FE3F80
ENDCHAR
STARTCHAR 00C3
ENCODING 195
SWIDTH 612 0
DWIDTH 17 0
BBX 17 23 0 0
BITMAP
0F1800
1FF800
1FF800
18E000
000000
000000
000000
3FE000
3FE000
3FE000
077000
077000
0E7000
0E3800
0E3800
1FF800
1FFC00
1FFC00
3C1C00
381E00
FE7F80
FE7F80
FE3F80
ENDCHAR
STARTCHAR 00C4
ENCODING 196
SWIDTH 612 0
DWIDTH 17 0
BBX 17 23 0 0
BITMAP
1E7800
1E7800
1E7800
1E7800
000000
000000
000000
3FE000
3FE000
3FE000
077000
077000
0E7000
0E3800
0E3800
1FF800
1FFC00
1FFC00
3C1C00
381E00
FE7F80
FE7F80
FE3F80
ENDCHAR
STARTCHAR 00C5
ENCODING 197
SWIDTH 612 0
DWIDTH 17 0
BBX 17 25 0 0
BITMAP
03C000
07E000
067000
067000
067000
07E000
03C000
000000
000000
3FE000
3FE000
3FE000
077000
077000
0E7000
0E3800
0E3800
1FF800
1FFC00
1FFC00
3C1C00
381E00
FE7F80
FE7F80
FE3F80
ENDCHAR
STARTCHAR 00C6
ENCODING 198
SWIDTH 612 0
DWIDTH 17 0
BBX 16 16 0 0
BITMAP
3FFF
3FFF
3FFF
0EE7
1CE7
1CE0
1CF8
1CF8
3FF8
3FE0
3FE7
38E7
70E7
FCFF
FCFF
FCFF
ENDCHAR
STARTCHAR 00C7
ENCODING 199
SWIDTH 612 0
DWIDTH 17 0
BBX 14 23 1 -7
BITMAP
07DC
1FFC
3FFC
3C7C
783C
781C
701C
F000
F000
F000
7000
7800
7800
3C1C
3FFC
1FFC
07F0
0380
03E0
03F0
0070
0FF0
07E0
ENDCHAR
STARTCHAR 00C8
ENCODING 200
SWIDTH 612 0
DWIDTH 17 0
BBX 14 24 1 0
BITMAP
0C00
1E00
1F80
07C0
03E0
00C0
0000
0000
FFFC
FFFC
FFFC
381C
381C
3808
3F80
3FC0
3FC0
380C
381C
381C
381C
FFFC
FFFC
FFFC
ENDCHAR
STARTCHAR 00C9
ENCODING 201
SWIDTH 612 0
DWIDTH 17 0
BBX 14 24 1 0
BITMAP
0060
01E0
03F0
07C0
0F00
0600
0000
0000
FFFC
FFFC
FFFC
381C
381C
3808
3F80
3FC0
3FC0
380C
381C
381C
381C
FFFC
FFFC
FFFC
ENDCHAR
STARTCHAR 00CA
ENCODING 202
SWIDTH 612 0
DWIDTH 17 0
BBX 14 24 1 0
BITMAP
0100
03C0
07E0
0FF0
1E78
1830
0000
0000
FFFC
FFFC
FFFC
381C
381C
3808
3F80
3FC0
3FC0
380C
381C
381C
381C
FFFC
FFFC
FFFC
ENDCHAR
STARTCHAR 00CB
ENCODING 203
SWIDTH 612 0
DWIDTH 17 0
BBX 14 23 1 0
BITMAP
1C70
1E78
1E78
1C70
0000
0000
0000
FFFC
FFFC
FFFC
381C
381C
3808
3F80
3FC0
3FC0
380C
381C
381C
381C
FFFC
FFFC
FFFC
ENDCHAR
STARTCHAR 00CC
ENCODING 204
SWIDTH 612 0
DWIDTH 17 0
BBX 12 24 2 0
BITMAP
1800
3C00
3E00
1F80
0780
0180
0000
0000
7FF0
7FF0
7FF0
0700
0700
0700
0700
0700
0700
0700
0700
0700
0700
FFF0
FFF0
FFF0
ENDCHAR
STARTCHAR 00CD
ENCODING 205
SWIDTH 612 0
DWIDTH 17 0
BBX 12 24 2 0
BITMAP
00C0
01E0
03E0
0FC0
0F00
0C00
0000
0000
7FF0
7FF0
7FF0
0700
0700
0700
0700
0700
0700
0700
0700
0700
0700
FFF0
FFF0
FFF0
ENDCHAR
STARTCHAR 00CE
ENCODING 206
SWIDTH 612 0
DWIDTH 17 0
BBX 12 24 2 0
BITMAP
0200
0700
1F80
3FC0
79E0
3060
0000
0000
7FF0
7FF0
7FF0
0700
0700
0700
0700
0700
0700
0700
0700
0700
0700
FFF0
FFF0
FFF0
ENDCHAR
STARTCHAR 00CF
ENCODING 207
SWIDTH 612 0
DWIDTH 17 0
BBX 12 23 2 0
BITMAP
38E0
38E0
38E0
38E0
0000
0000
0000
7FF0
7FF0
7FF0
0700
0700
0700
0700
0700
0700
0700
0700
0700
0700
FFF0
FFF0
FFF0
ENDCHAR
STARTCHAR 00D0
ENCODING 208
SWIDTH 612 0
DWIDTH 17 0
BBX 15 16 1 0
BITMAP
FFC0
FFF0
FFF8
387C
383C
381E
FF1E
FF1E
FF1E
381E
381E
383C
387C
FFF8
FFF0
FFC0
ENDCHAR
STARTCHAR 00D1
ENCODING 209
SWIDTH 612 0
DWIDTH 17 0
BBX 15 23 1 0
BITMAP
0F30
1FF8
3FF0
11E0
0000
0000
0000
F87E
FC7E
FC7E
7E1C
7E1C
7F1C
7F9C
7B9C
7BDC
79FC
78FC
78FC
787C
FE3C
FE3C
FE1C
ENDCHAR
STARTCHAR 00D2
ENCODING 210
SWIDTH 612 0
DWIDTH 17 0
BBX 15 24 1 0
BITMAP
0C00
1E00
1F80
0FC0
03E0
00C0
0000
0000
0FC0
1FF0
3FF8
7C7C
F03C
F01E
F01E
F01E
F01E
F01E
F01E
F03C
7C7C
3FF8
1FF0
0FC0
ENDCHAR
STARTCHAR 00D3
ENCODING 211
SWIDTH 612 0
DWIDTH 17 0
BBX 15 24 1 0
BITMAP
0060
00E0
03F0
07C0
0F80
0600
0000
0000
0FC0
1FF0
3FF8
7C7C
F03C
F01E
F01E
F01E
F01E
F01E
F01E
F03C
7C7C
3FF8
1FF0
0FC0
ENDCHAR
STARTCHAR 00D4
ENCODING 212
SWIDTH 612 0
DWIDTH 17 0
BBX 15 24 1 0
BITMAP
0100
0380
0FC0
1FE0
3CF0
1830
0000
0000
0FC0
1FF0
3FF8
7C7C
F03C
F01E
F01E
F01E
F01E
F01E
F01E
F03C
7C7C
3FF8
1FF0
0FC0
ENDCHAR
STARTCHAR 00D5
ENCODING 213
SWIDTH 612 0
DWIDTH 17 0
BBX 15 23 1 0
BITMAP
0F30
1FF8
3FF0
11E0
0000
0000
0000
0FC0
1FF0
3FF8
7C7C
F03C
F01E
F01E
F01E
F01E
F01E
F01E
F03C
7C7C
3FF8
1FF0
0FC0
ENDCHAR
STARTCHAR 00D6
ENCODING 214
SWIDTH 612 0
DWIDTH 17 0
BBX 15 23 1 0
BITMAP
1C70
1C70
1C70
1C70
0000
0000
0000
0FC0
1FF0
3FF8
7C7C
F03C
F01E
F01E
F01E
F01E
F01E
F01E
F03C
7C7C
3FF8
1FF0
0FC0
ENDCHAR
STARTCHAR 00D7
ENCODING 215
SWIDTH 612 0
DWIDTH 17 0
BBX 11 11 3 3
BITMAP
60C0
F1E0
FBE0
7FC0
3F80
1F00
3F80
7FC0
FBE0
F1E0
60C0
ENDCHAR
STARTCHAR 00D8
ENCODING 216
SWIDTH 612 0
DWIDTH 17 0
BBX 15 19 1 -1
BITMAP
000C
000C
0FDC
1FFC
3FF8
7C7C
F07C
F0FE
F1DE
F39E
F79E
F71E
FE1E
FC3C
7C7C
3FF8
7FF0
EFC0
6000
ENDCHAR
STARTCHAR 00D9
ENCODING 217
SWIDTH 612 0
DWIDTH 17 0
BBX 15 24 1 0
BITMAP
0C00
1E00
1F00
0FC0
03C0
00C0
0000
0000
FCFE
FEFE
FCFE
783C
783C
783C
783C
783C
783C
783C
783C
783C
7C78
3FF8
1FF0
07C0
ENDCHAR
STARTCHAR 00DA
ENCODING 218
SWIDTH 612 0
DWIDTH 17 0
BBX 15 24 1 0
BITMAP
0060
00F0
01F0
07E0
0780
0600
0000
0000
FCFE
FEFE
FCFE
783C
783C
783C
783C
783C
783C
783C
783C
783C
7C78
3FF8
1FF0
07C0
ENDCHAR
STARTCHAR 00DB
ENCODING 219
SWIDTH 612 0
DWIDTH 17 0
BBX 15 24 1 0
BITMAP
0100
0380
0FC0
1FE0
3CF0
1830
0000
0000
FCFE
FEFE
FCFE
783C
783C
783C
783C
783C
783C
783C
783C
783C
7C78
3FF8
1FF0
07C0
ENDCHAR
STARTCHAR 00DC
ENCODING 220
SWIDTH 612 0
DWIDTH 17 0
BBX 15 23 1 0
BITMAP
1C70
1C70
1C70
1C70
0000
0000
0000
FCFE
FEFE
FCFE
783C
783C
783C
783C
783C
783C
783C
783C
783C
7C78
3FF8
1FF0
07C0
ENDCHAR
STARTCHAR 00DD
ENCODING 221
SWIDTH 612 0
DWIDTH 17 0
BBX 15 24 1 0
BITMAP
0060
00F0
01F0
07E0
0780
0600
0000
0000
FE7E
FEFE
FEFE
783C
3C78
1EF0
1EE0
0FE0
07C0
0380
0380
0380
0380
3FF8
3FF8
3FF8
ENDCHAR
STARTCHAR 00DE
ENCODING 222
SWIDTH 612 0
DWIDTH 17 0
BBX 13 16 2 0
BITMAP
FF80
FF80
FF80
1C00
1FE0
1FF0
1FF8
1C78
1C78
1FF8
1FF0
1FE0
1C00
FF80
FF80
FF80
ENDCHAR
STARTCHAR 00DF
ENCODING 223
SWIDTH 612 0
DWIDTH 17 0
BBX 15 18 0 0
BITMAP
03E0
0FF8
0FF8
1E3C
1C1C
1C1C
1C3C
1CF8
1CF0
1CF8
1C3C
1C1E
1C1E
1C1E
1C3E
FCFC
FCF8
FCF0
ENDCHAR
STARTCHAR 00E0
ENCODING 224
SWIDTH 612 0
DWIDTH 17 0
BBX 15 20 1 0
BITMAP
0400
0F00
0F80
07C0
01E0
0060
0000
1FC0
7FF0
3FF0
3078
0078
1FF8
7FF8
7FF8
F038
70F8
7FFE
7FFE
1F1E
ENDCHAR
STARTCHAR 00E1
ENCODING 225
SWIDTH 612 0
DWIDTH 17 0
BBX 15 20 1 0
BITMAP
00C0
01E0
03E0
0FC0
0F00
0C00
0000
1FC0
7FF0
3FF0
3078
0078
1FF8
7FF8
7FF8
F038
70F8
7FFE
7FFE
1F1E
ENDCHAR
STARTCHAR 00E2
ENCODING 226
SWIDTH 612 0
DWIDTH 17 0
BBX 15 20 1 0
BITMAP
0100
0380
0FC0
1FE0
3CF0
1830
0000
1FC0
7FF0
3FF0
3078
0078
1FF8
7FF8
7FF8
F038
70F8
7FFE
7FFE
1F1E
ENDCHAR
STARTCHAR 00E3
ENCODING 227
SWIDTH 612 0
DWIDTH 17 0
BBX 15 19 1 0
BITMAP
0F30
1FF8
3FF0
11E0
0000
0000
1FC0
7FF0
3FF0
3078
0078
1FF8
7FF8
7FF8
F038
70F8
7FFE
7FFE
1F1E
ENDCHAR
STARTCHAR 00E4
ENCODING 228
SWIDTH 612 0
DWIDTH 17 0
BBX 15 19 1 0
BITMAP
1C70
1C70
1C70
1C70
0000
0000
1FC0
7FF0
3FF0
3078
0078
1FF8
7FF8
7FF8
F038
70F8
7FFE
7FFE
1F1E
ENDCHAR
STARTCHAR 00E5
ENCODING 229
SWIDTH 612 0
DWIDTH 17 0
BBX 15 21 1 0
BITMAP
07C0
0FE0
0EE0
0C60
0EE0
07C0
0380
0000
1FC0
7FF0
3FF0
3078
0078
1FF8
7FF8
7FF8
F038
70F8
7FFE
7FFE
1F1E
ENDCHAR
STARTCHAR 00E6
ENCODING 230
SWIDTH 612 0
DWIDTH 17 0
BBX 16 13 0 0
BITMAP
1F3C
7FFE
7FFF
63E7
01C7
1FFF
7FFF
7FFF
F1C0
F3E3
7FFF
7FFF
3E7E
ENDCHAR
STARTCHAR 00E7
ENCODING 231
SWIDTH 612 0
DWIDTH 17 0
BBX 13 19 2 -6
BITMAP
0F70
3FF8
7FF8
F8F8
F078
F070
E000
E000
F000
F870
7FF8
3FF0
1FE0
0600
0780
07C0
01C0
1FC0
1F80
ENDCHAR
STARTCHAR 00E8
ENCODING 232
SWIDTH 612 0
DWIDTH 17 0
BBX 13 20 2 0
BITMAP
0800
1E00
3F00
0F80
03C0
0080
0000
0F80
3FE0
7FF0
F8F0
F078
FFF8
FFF8
FFF8
F000
F830
7FF8
3FF8
0FC0
ENDCHAR
STARTCHAR 00E9
ENCODING 233
SWIDTH 612 0
DWIDTH 17 0
BBX 13 20 2 0
BITMAP
00C0
03C0
07E0
0F80
1E00
0C00
0000
0F80
3FE0
7FF0
F8F0
F078
FFF8
FFF8
FFF8
F000
F830
7FF8
3FF8
0FC0
ENDCHAR
STARTCHAR 00EA
ENCODING 234
SWIDTH 612 0
DWIDTH 17 0
BBX 13 20 2 0
BITMAP
0200
0700
0F80
3FE0
3DE0
3060
0000
0F80
3FE0
7FF0
F8F0
F078
FFF8
FFF8
FFF8
F000
F830
7FF8
3FF8
0FC0
ENDCHAR
STARTCHAR 00EB
ENCODING 235
SWIDTH 612 0
DWIDTH 17 0
BBX 13 19 2 0
BITMAP
38E0
38E0
38E0
38E0
0000
0000
0F80
3FE0
7FF0
F8F0
F078
FFF8
FFF8
FFF8
F000
F830
7FF8
3FF8
0FC0
ENDCHAR
STARTCHAR 00EC
ENCODING 236
SWIDTH 612 0
DWIDTH 17 0
BBX 13 20 2 0
BITMAP
3000
3800
7E00
1F00
0F80
0300
0000
7F00
7F00
7F00
0700
0700
0700
0700
0700
0700
0700
FFF8
FFF8
FFF8
ENDCHAR
STARTCHAR 00ED
ENCODING 237
SWIDTH 612 0
DWIDTH 17 0
BBX 13 20 2 0
BITMAP
0180
03C0
07C0
1F80
1E00
1800
0000
7F00
7F00
7F00
0700
0700
0700
0700
0700
0700
0700
FFF8
FFF8
FFF8
ENDCHAR
STARTCHAR 00EE
ENCODING 238
SWIDTH 612 0
DWIDTH 17 0
BBX 13 20 2 0
BITMAP
0200
0700
1F80
3FC0
79E0
3060
0000
7F00
7F00
7F00
0700
0700
0700
0700
0700
0700
0700
FFF8
FFF8
FFF8
ENDCHAR
STARTCHAR 00EF
ENCODING 239
SWIDTH 612 0
DWIDTH 17 0
BBX 13 19 2 0
BITMAP
38E0
38E0
38E0
38E0
0000
0000
7F00
7F00
7F00
0700
0700
0700
0700
0700
0700
0700
FFF8
FFF8
FFF8
ENDCHAR
STARTCHAR 00F0
ENCODING 240
SWIDTH 612 0
DWIDTH 17 0
BBX 13 19 2 0
BITMAP
0800
1C60
1FE0
1FC0
1FC0
1DE0
10F0
1FF0
7FF0
7FF8
F8F8
F078
E078
E078
F078
F8F8
7FF0
3FE0
1F80
ENDCHAR
STARTCHAR 00F1
ENCODING 241
SWIDTH 612 0
DWIDTH 17 0
BBX 15 19 1 0
BITMAP
0F30
1FF8
3FF0
11E0
0000
0000
F9E0
FBF8
FFF8
3E78
3C38
3C38
3C38
3838
3838
3838
FE7E
FE7E
FE7E
ENDCHAR
STARTCHAR 00F2
ENCODING 242
SWIDTH 612 0
DWIDTH 17 0
BBX 13 20 2 0
BITMAP
1800
3C00
3F00
1F80
07C0
0180
0000
0F80
3FE0
7FF0
F8F8
F078
E078
E038
E078
F078
F8F8
7FF0
3FE0
1F80
ENDCHAR
STARTCHAR 00F3
ENCODING 243
SWIDTH 612 0
DWIDTH 17 0
BBX 13 20 2 0
BITMAP
00C0
01C0
07E0
0F80
1F00
0C00
0000
0F80
3FE0
7FF0
F8F8
F078
E078
E038
E078
F078
F8F8
7FF0
3FE0
1F80
ENDCHAR
STARTCHAR 00F4
ENCODING 244
SWIDTH 612 0
DWIDTH 17 0
BBX 13 20 2 0
BITMAP
0200
0700
1F80
3FC0
79E0
3060
0000
0F80
3FE0
7FF0
F8F8
F078
E078
E038
E078
F078
F8F8
7FF0
3FE0
1F80
ENDCHAR
STARTCHAR 00F5
ENCODING 245
SWIDTH 612 0
DWIDTH 17 0
BBX 13 19 2 0
BITMAP
1E60
3FF0
7FE0
23C0
0000
0000
0F80
3FE0
7FF0
F8F8
F078
E078
E038
E078
F078
F8F8
7FF0
3FE0
1F80
ENDCHAR
STARTCHAR 00F6
ENCODING 246
SWIDTH 612 0
DWIDTH 17 0
BBX 13 19 2 0
BITMAP
38E0
38E0
38E0
38E0
0000
0000
0F80
3FE0
7FF0
F8F8
F078
E078
E038
E078
F078
F8F8
7FF0
3FE0
1F80
ENDCHAR
STARTCHAR 00F7
ENCODING 247
SWIDTH 612 0
DWIDTH 17 0
BBX 12 14 2 1
BITMAP
0700
0700
0700
0000
0000
FFF0
FFF0
FFF0
0000
0000
0000
0700
0700
0700
ENDCHAR
STARTCHAR 00F8
ENCODING 248
SWIDTH 612 0
DWIDTH 17 0
BBX 15 15 1 -1
BITMAP
000C
07CE
1FFC
3FF8
7C7C
78FC
71FC
739C
773C
7E3C
7C7C
3FF8
7FF0
EFC0
4000
ENDCHAR
STARTCHAR 00F9
ENCODING 249
SWIDTH 612 0
DWIDTH 17 0
BBX 15 20 1 0
BITMAP
0C00
1E00
1F00
0FC0
03C0
00C0
0000
F9F8
F9F8
F9F8
3838
3838
3838
3838
3878
3878
3CF8
3FFE
3FBE
0F3E
ENDCHAR
STARTCHAR 00FA
ENCODING 250
SWIDTH 612 0
DWIDTH 17 0
BBX 15 20 1 0
BITMAP
0060
00F0
03F0
07E0
0780
0600
0000
F9F8
F9F8
F9F8
3838
3838
3838
3838
3878
3878
3CF8
3FFE
3FBE
0F3E
ENDCHAR
STARTCHAR 00FB
ENCODING 251
SWIDTH 612 0
DWIDTH 17 0
BBX 15 20 1 0
BITMAP
0100
0780
0FC0
1FE0
3CF0
1830
0000
F9F8
F9F8
F9F8
3838
3838
3838
3838
3878
3878
3CF8
3FFE
3FBE
0F3E
ENDCHAR
STARTCHAR 00FC
ENCODING 252
SWIDTH 612 0
DWIDTH 17 0
BBX 15 19 1 0
BITMAP
3CF0
3CF0
3CF0
3CF0
0000
0000
F9F8
F9F8
F9F8
3838
3838
3838
3838
3878
3878
3CF8
3FFE
3FBE
0F3E
ENDCHAR
STARTCHAR 00FD
ENCODING 253
SWIDTH 612 0
DWIDTH 17 0
BBX 15 25 1 -5
BITMAP
0060
00F0
01F0
07E0
0780
0600
0000
FEFE
FEFE
FEFE
3838
3C78
1C70
1EF0
0EE0
0FE0
07C0
07C0
0380
0780
0F00
1F00
7E00
7C00
7800
ENDCHAR
STARTCHAR 00FE
ENCODING 254
SWIDTH 612 0
DWIDTH 17 0
BBX 15 23 0 -5
BITMAP
7C00
FC00
7C00
1C00
1C00
1DF0
1FFC
1FFC
1F3E
1C1E
1C0E
1C0E
1C0E
1C1E
1E3E
1FFC
1FFC
1DF0
1C00
1C00
7F80
FF80
7F80
ENDCHAR
STARTCHAR 00FF
ENCODING 255
SWIDTH 612 0
DWIDTH 17 0
BBX 15 24 1 -5
BITMAP
1C70
1C70
1C70
1C70
0000
0000
FEFE
FEFE
FEFE
3838
3C78
1C70
1EF0
0EE0
0FE0
07C0
07C0
0380
0780
0F00
1F00
7E00
7C00
7800
ENDCHAR
STARTCHAR 0152
ENCODING 140
SWIDTH 612 0
DWIDTH 17 0
BBX 15 16 1 0
BITMAP
0FFE
3FFE
7FFE
7BCE
F3CE
E3C0
E3F0
E3F0
E3F0
E3C0
E3CE
F3CE
7BCE
7FFE
3FFE
0FFE
ENDCHAR
STARTCHAR 0153
ENCODING 156
SWIDTH 612 0
DWIDTH 17 0
BBX 16 13 0 0
BITMAP
1E3C
3FFE
7FFF
73E7
71C7
F1FF
F1FF
F1FF
71C0
73E3
7FFF
3FFF
1E3E
ENDCHAR
STARTCHAR 0160
ENCODING 138
SWIDTH 612 0
DWIDTH 17 0
BBX 13 24 2 0
BITMAP
2020
70E0
3FE0
1FC0
0F80
0700
0000
0000
1F70
7FF0
7FF0
F0F0
F030
F000
FF00
7FE0
1FF0
01F8
E078
E078
F8F8
FFF0
FFF0
E7C0
ENDCHAR
STARTCHAR 0161
ENCODING 154
SWIDTH 612 0
DWIDTH 17 0
BBX 13 20 2 0
BITMAP
2020
70E0
3FE0
1FC0
0F80
0600
0000
1F70
7FF0
FFF0
F0F0
F030
7F80
3FE0
07F0
E078
F878
FFF0
FFF0
F7C0
ENDCHAR
STARTCHAR 0178
ENCODING 159
SWIDTH 612 0
DWIDTH 17 0
BBX 15 23 1 0
BITMAP
1C70
1C70
1C70
1C70
0000
0000
0000
FE7E
FEFE
FEFE
783C
3C78
1EF0
1EE0
0FE0
07C0
0380
0380
0380
0380
3FF8
3FF8
3FF8
ENDCHAR
STARTCHAR 017D
ENCODING 142
SWIDTH 612 0
DWIDTH 17 0
BBX 13 24 2 0
BITMAP
2020
38E0
3DE0
1FC0
0F80
0700
0000
0000
FFF8
FFF8
FFF8
E0F0
E1E0
E3C0
07C0
0780
0F00
1E38
3E38
3C38
7838
FFF8
FFF8
FFF8
ENDCHAR
STARTCHAR 017E
ENCODING 158
SWIDTH 612 0
DWIDTH 17 0
BBX 13 20 2 0
BITMAP
2020
38E0
3DE0
1FC0
0F80
0700
0000
FFF8
FFF8
FFF0
E1E0
E3E0
07C0
0F80
1F00
3E38
7C38
FFF8
FFF8
FFF8
ENDCHAR
STARTCHAR 0192
ENCODING 131
SWIDTH 612 0
DWIDTH 17 0
BBX 16 22 0 -4
BITMAP
003E
00FF
01FF
01E0
01C0
01C0
1FFC
1FFC
1FFC
03C0
03C0
03C0
03C0
0380
0380
0380
0380
0380
0780
FF00
FF00
7C00
ENDCHAR
STARTCHAR 02C6
ENCODING 136
SWIDTH 612 0
DWIDTH 17 0
BBX 10 6 3 14
BITMAP
0400
0E00
3F00
7F80
F3C0
60C0
ENDCHAR
STARTCHAR 02DC
ENCODING 152
SWIDTH 612 0
DWIDTH 17 0
BBX 11 4 3 15
BITMAP
3CC0
7FE0
FFC0
4780
ENDCHAR
STARTCHAR 2013
ENCODING 150
SWIDTH 612 0
DWIDTH 17 0
BBX 12 3 2 6
BITMAP
FFF0
FFF0
FFF0
ENDCHAR
STARTCHAR 2014
ENCODING 151
SWIDTH 612 0
DWIDTH 17 0
BBX 17 3 0 6
BITMAP
FFFF80
FFFF80
FFFF80
ENDCHAR
STARTCHAR 2018
ENCODING 145
SWIDTH 612 0
DWIDTH 17 0
BBX 6 8 5 10
BITMAP
1C
1C
3C
38
78
78
78
F8
ENDCHAR
STARTCHAR 2019
ENCODING 146
SWIDTH 612 0
DWIDTH 17 0
BBX 5 8 6 9
BITMAP
78
78
F8
F0
F0
E0
E0
C0
ENDCHAR
STARTCHAR 201A
ENCODING 130
SWIDTH 612 0
DWIDTH 17 0
BBX 5 8 6 -4
BITMAP
78
78
F8
F0
F0
E0
E0
C0
ENDCHAR
STARTCHAR 201C
ENCODING 147
SWIDTH 612 0
DWIDTH 17 0
BBX 14 8 1 10
BITMAP
0C1C
1C1C
1C3C
3C38
3878
7878
78F8
F8F8
ENDCHAR
STARTCHAR 201D
ENCODING 148
SWIDTH 612 0
DWIDTH 17 0
BBX 13 8 2 9
BITMAP
7C78
7878
78F0
F0F0
F0F0
E0E0
E0E0
C1C0
ENDCHAR
STARTCHAR 201E
ENCODING 132
SWIDTH 612 0
DWIDTH 17 0
BBX 13 8 2 -4
BITMAP
7C78
7878
78F0
F0F0
F0F0
E0E0
E0E0
C1C0
ENDCHAR
STARTCHAR 2020
ENCODING 134
SWIDTH 612 0
DWIDTH 17 0
BBX 10 13 3 3
BITMAP
0E00
0E00
0E00
7FC0
FFC0
FFC0
0E00
0E00
0E00
0E00
0E00
0E00
0E00
ENDCHAR
STARTCHAR 2021
ENCODING 135
SWIDTH 612 0
DWIDTH 17 0
BBX 10 14 3 2
BITMAP
0E00
0E00
0E00
FFC0
FFC0
7FC0
0E00
0E00
7FC0
FFC0
FFC0
0E00
0E00
0E00
ENDCHAR
STARTCHAR 2022
ENCODING 149
SWIDTH 612 0
DWIDTH 17 0
BBX 7 8 5 4
BITMAP
7C
FE
FE
FE
FE
FE
FE
FC
ENDCHAR
STARTCHAR 2026
ENCODING 133
SWIDTH 612 0
DWIDTH 17 0
BBX 15 4 1 0
BITMAP
F39C
F39E
F39E
F39C
ENDCHAR
STARTCHAR 2030
ENCODING 137
SWIDTH 612 0
DWIDTH 17 0
BBX 20 16 1 0
BITMAP
780000
FC0000
FE0C00
C61E00
FE7C00
FEF000
79E000
03C000
07B9C0
1FFFE0
3CFFF0
78CE70
F0CE70
60FFF0
00FFE0
0039C0
ENDCHAR
STARTCHAR 2039
ENCODING 139
SWIDTH 612 0
DWIDTH 17 0
BBX 6 11 5 2
BITMAP
0C
1C
3C
78
F0
E0
F0
78
3C
1C
0C
ENDCHAR
STARTCHAR 203A
ENCODING 155
SWIDTH 612 0
DWIDTH 17 0
BBX 7 11 5 2
BITMAP
60
F0
78
3C
1C
1E
1C
3C
78
F0
60
ENDCHAR
STARTCHAR 20AC
ENCODING 128
SWIDTH 612 0
DWIDTH 17 0
BBX 15 16 1 0
BITMAP
07DC
0FFC
1FFC
3C3C
FF9C
FF9C
FF9C
3800
FF80
FF80
FF80
3C04
3E1C
1FFE
0FFC
03F0
ENDCHAR
STARTCHAR 2122
ENCODING 153
SWIDTH 612 0
DWIDTH 17 0
BBX 17 8 1 11
BITMAP
004100
FEC300
FEE700
30F700
30FF00
30FF00
30DB80
30CB80
ENDCHAR
ENDFONT
