STARTFONT 2.1
COMMENT
COMMENT Converted from OpenType font "CourierPrime-Regular.ttf" by "otf2bdf 3.0".
COMMENT
FONT -FreeType-courier prime cp1252-Medium-R-Normal--28-200-100-100-P-128-ISO10646-1
SIZE 20 100 100
FONTBOUNDINGBOX 22 33 0 -7
STARTPROPERTIES 19
FOUNDRY "FreeType"
FAMILY_NAME "courier prime cp1252"
WEIGHT_NAME "Medium"
SLANT "R"
SETWIDTH_NAME "Normal"
ADD_STYLE_NAME ""
PIXEL_SIZE 28
POINT_SIZE 200
RESOLUTION_X 100
RESOLUTION_Y 100
SPACING "P"
AVERAGE_WIDTH 128
CHARSET_REGISTRY "ISO10646"
CHARSET_ENCODING "1"
FONT_ASCENT 21
FONT_DESCENT 9
COPYRIGHT "Copyright 2015 The Courier Prime Project Authors (https://github.com/quoteunquoteapps/CourierPrime)."
_OTF_FONTFILE "CourierPrime-Regular.ttf"
_OTF_PSNAME "CourierPrime-Regular"
ENDPROPERTIES
CHARS 219
STARTCHAR 000D
ENCODING 13
SWIDTH 612 0
DWIDTH 17 0
BBX 0 0 0 0
BITMAP
ENDCHAR
STARTCHAR 0020
ENCODING 32
SWIDTH 612 0
DWIDTH 17 0
BBX 0 0 0 0
BITMAP
ENDCHAR
STARTCHAR 0021
ENCODING 33
SWIDTH 612 0
DWIDTH 17 0
BBX 3 18 7 0
BITMAP
E0
E0
E0
E0
E0
E0
C0
C0
C0
40
40
00
00
00
E0
E0
E0
E0
ENDCHAR
STARTCHAR 0022
ENCODING 34
SWIDTH 612 0
DWIDTH 17 0
BBX 9 8 4 10
BITMAP
E380
E380
E380
E380
E380
C380
C180
C100
ENDCHAR
STARTCHAR 0023
ENCODING 35
SWIDTH 612 0
DWIDTH 17 0
BBX 15 16 1 0
BITMAP
0318
0618
0610
0630
7FFE
7FFE
0C60
0C60
0860
FFFC
FFFC
18C0
30C0
3080
3180
3180
ENDCHAR
STARTCHAR 0024
ENCODING 36
SWIDTH 612 0
DWIDTH 17 0
BBX 12 20 2 -2
BITMAP
0600
0600
0600
0600
1F30
7FF0
6670
6630
6600
7F80
1FE0
06F0
C630
E630
F670
FFE0
CFC0
0600
0600
0600
ENDCHAR
STARTCHAR 0025
ENCODING 37
SWIDTH 612 0
DWIDTH 17 0
BBX 15 16 1 0
BITMAP
7800
FC00
C60C
861C
C638
FE70
78E0
0180
0738
0EFC
1CC6
3886
7086
C0C6
00FC
0038
ENDCHAR
STARTCHAR 0026
ENCODING 38
SWIDTH 612 0
DWIDTH 17 0
BBX 13 16 2 0
BITMAP
1F80
3FC0
30C0
70C0
6000
3000
3800
3C38
7E78
E760
C3E0
C1C0
C1C0
E3E0
7F78
3E38
ENDCHAR
STARTCHAR 0027
ENCODING 39
SWIDTH 612 0
DWIDTH 17 0
BBX 3 8 7 10
BITMAP
E0
E0
E0
E0
E0
E0
C0
40
ENDCHAR
STARTCHAR 0028
ENCODING 40
SWIDTH 612 0
DWIDTH 17 0
BBX 8 24 4 -5
BITMAP
02
07
0E
1C
38
30
60
60
60
C0
C0
C0
C0
C0
C0
C0
60
60
30
38
18
0E
07
03
ENDCHAR
STARTCHAR 0029
ENCODING 41
SWIDTH 612 0
DWIDTH 17 0
BBX 8 24 5 -5
BITMAP
80
E0
70
38
18
0C
0C
06
06
06
03
03
03
03
03
06
06
06
0C
1C
38
70
E0
C0
ENDCHAR
STARTCHAR 002A
ENCODING 42
SWIDTH 612 0
DWIDTH 17 0
BBX 11 11 3 5
BITMAP
0C00
0E00
0C00
C460
F5E0
7FC0
0E00
1B00
3B80
71C0
2180
ENDCHAR
STARTCHAR 002B
ENCODING 43
SWIDTH 612 0
DWIDTH 17 0
BBX 12 12 2 2
BITMAP
0600
0600
0600
0600
0600
FFF0
FFF0
0600
0600
0600
0600
0200
ENDCHAR
STARTCHAR 002C
ENCODING 44
SWIDTH 612 0
DWIDTH 17 0
BBX 5 8 5 -4
BITMAP
78
78
70
70
70
E0
E0
C0
ENDCHAR
STARTCHAR 002D
ENCODING 45
SWIDTH 612 0
DWIDTH 17 0
BBX 12 2 2 7
BITMAP
FFF0
FFF0
ENDCHAR
STARTCHAR 002E
ENCODING 46
SWIDTH 612 0
DWIDTH 17 0
BBX 3 4 7 0
BITMAP
E0
E0
E0
E0
ENDCHAR
STARTCHAR 002F
ENCODING 47
SWIDTH 612 0
DWIDTH 17 0
BBX 11 24 3 -5
BITMAP
0040
0060
00E0
00C0
01C0
0180
0180
0380
0300
0700
0600
0600
0E00
0C00
1C00
1800
3800
3000
3000
7000
6000
E000
C000
C000
ENDCHAR
STARTCHAR 0030
ENCODING 48
SWIDTH 612 0
DWIDTH 17 0
BBX 11 16 3 0
BITMAP
1F00
3F80
71C0
E0C0
C0E0
C060
C060
C060
C060
C060
C060
C0E0
E0C0
71C0
3F80
1F00
ENDCHAR
STARTCHAR 0031
ENCODING 49
SWIDTH 612 0
DWIDTH 17 0
BBX 11 16 3 0
BITMAP
0600
1E00
3E00
F600
C600
0600
0600
0600
0600
0600
0600
0600
0600
0600
FFE0
FFE0
ENDCHAR
STARTCHAR 0032
ENCODING 50
SWIDTH 612 0
DWIDTH 17 0
BBX 11 16 3 0
BITMAP
3F00
FF80
E1C0
C0C0
C0C0
00C0
00C0
0180
0300
0700
0E00
1800
3060
6060
FFE0
FFE0
ENDCHAR
STARTCHAR 0033
ENCODING 51
SWIDTH 612 0
DWIDTH 17 0
BBX 11 16 3 0
BITMAP
3F00
FF80
C1C0
C0C0
00C0
01C0
1F80
1F80
01C0
00E0
0060
0060
80E0
E1C0
FF80
3F00
ENDCHAR
STARTCHAR 0034
ENCODING 52
SWIDTH 612 0
DWIDTH 17 0
BBX 13 16 2 0
BITMAP
0180
0380
0780
0780
0D80
1D80
3980
3180
6180
FFF0
FFF8
0180
0180
0180
07F0
07F0
ENDCHAR
STARTCHAR 0035
ENCODING 53
SWIDTH 612 0
DWIDTH 17 0
BBX 11 16 3 0
BITMAP
7FC0
7FC0
6000
6000
6000
7F00
7F80
E1C0
00E0
0060
0060
0060
80C0
E1C0
FF80
3F00
ENDCHAR
STARTCHAR 0036
ENCODING 54
SWIDTH 612 0
DWIDTH 17 0
BBX 11 16 3 0
BITMAP
03C0
0FC0
3C00
7000
6000
E000
CF00
FFC0
F0E0
C060
C060
C060
E060
70E0
3FC0
1F00
ENDCHAR
STARTCHAR 0037
ENCODING 55
SWIDTH 612 0
DWIDTH 17 0
BBX 11 16 3 0
BITMAP
FFE0
FFE0
C0E0
C0C0
C0C0
0180
0180
0300
0300
0700
0600
0600
0C00
0C00
1C00
1800
ENDCHAR
STARTCHAR 0038
ENCODING 56
SWIDTH 612 0
DWIDTH 17 0
BBX 11 16 3 0
BITMAP
1F00
7F80
61C0
E0C0
E0C0
61C0
3F80
3F80
61C0
C0E0
C060
C060
C0E0
E1C0
7F80
1F00
ENDCHAR
STARTCHAR 0039
ENCODING 57
SWIDTH 612 0
DWIDTH 17 0
BBX 11 16 3 0
BITMAP
1F00
7F80
E1C0
C0C0
C060
C060
C0E0
E1E0
7FE0
1E60
00C0
01C0
0380
0F00
FE00
7800
ENDCHAR
STARTCHAR 003A
ENCODING 58
SWIDTH 612 0
DWIDTH 17 0
BBX 3 13 7 0
BITMAP
E0
E0
E0
E0
00
00
00
00
00
E0
E0
E0
E0
ENDCHAR
STARTCHAR 003B
ENCODING 59
SWIDTH 612 0
DWIDTH 17 0
BBX 6 17 5 -4
BITMAP
38
38
38
38
00
00
00
00
00
3C
78
78
70
70
60
60
C0
ENDCHAR
STARTCHAR 003C
ENCODING 60
SWIDTH 612 0
DWIDTH 17 0
BBX 12 13 2 2
BITMAP
0030
00F0
03E0
0F80
3E00
F800
E000
F800
3E00
0F80
03E0
00F0
0030
ENDCHAR
STARTCHAR 003D
ENCODING 61
SWIDTH 612 0
DWIDTH 17 0
BBX 12 7 2 4
BITMAP
FFF0
FFF0
0000
0000
0000
FFF0
FFF0
ENDCHAR
STARTCHAR 003E
ENCODING 62
SWIDTH 612 0
DWIDTH 17 0
BBX 13 13 2 2
BITMAP
6000
F000
3E00
0F00
03C0
00F0
0038
00F0
03C0
0F00
3C00
F800
6000
ENDCHAR
STARTCHAR 003F
ENCODING 63
SWIDTH 612 0
DWIDTH 17 0
BBX 10 18 3 0
BITMAP
3F00
7F80
E1C0
E0C0
40C0
00C0
01C0
0780
0F00
0C00
0C00
0C00
0000
0000
0000
1C00
1C00
1C00
ENDCHAR
STARTCHAR 0040
ENCODING 64
SWIDTH 612 0
DWIDTH 17 0
BBX 15 17 1 -2
BITMAP
07E0
1FF0
3C38
700C
63A4
C7A6
CE66
CC66
8846
98C6
99CC
CF7C
CE38
6000
7000
3FE0
0FC0
ENDCHAR
STARTCHAR 0041
ENCODING 65
SWIDTH 612 0
DWIDTH 17 0
BBX 17 16 0 0
BITMAP
1FC000
1FC000
036000
036000
062000
063000
063000
0C1800
0C1800
1FF800
1FFC00
180C00
300C00
300600
FC3F80
FC3F80
ENDCHAR
STARTCHAR 0042
ENCODING 66
SWIDTH 612 0
DWIDTH 17 0
BBX 14 16 1 0
BITMAP
FFC0
FFF0
1830
1818
1818
1838
1830
1FE0
1FF8
1818
180C
180C
180C
183C
FFF8
FFE0
ENDCHAR
STARTCHAR 0043
ENCODING 67
SWIDTH 612 0
DWIDTH 17 0
BBX 13 16 2 0
BITMAP
0F98
3FD8
7878
6038
E018
C018
C000
C000
C000
C000
C000
E000
6010
7878
3FF0
0FC0
ENDCHAR
STARTCHAR 0044
ENCODING 68
SWIDTH 612 0
DWIDTH 17 0
BBX 15 16 1 0
BITMAP
FFC0
FFF0
3878
381C
380C
380C
380C
380E
380E
380C
380C
380C
381C
3878
FFF0
FFC0
ENDCHAR
STARTCHAR 0045
ENCODING 69
SWIDTH 612 0
DWIDTH 17 0
BBX 14 16 1 0
BITMAP
FFFC
FFFC
300C
300C
300C
30C0
30C0
3FC0
3FC0
30C0
30CC
300C
300C
300C
FFFC
FFFC
ENDCHAR
STARTCHAR 0046
ENCODING 70
SWIDTH 612 0
DWIDTH 17 0
BBX 14 16 1 0
BITMAP
FFFC
FFFC
180C
180C
180C
18C0
18C0
1FC0
1FC0
18C0
18C0
1800
1800
1800
FF80
FF80
ENDCHAR
STARTCHAR 0047
ENCODING 71
SWIDTH 612 0
DWIDTH 17 0
BBX 15 16 1 0
BITMAP
07D8
1FFC
3C3C
701C
601C
6008
E000
E000
E1FE
E1FE
600C
600C
700C
381C
1FF8
07E0
ENDCHAR
STARTCHAR 0048
ENCODING 72
SWIDTH 612 0
DWIDTH 17 0
BBX 15 16 1 0
BITMAP
FC7E
FC7E
3018
3018
3018
3018
3018
3FF8
3FF8
3018
3018
3018
3018
3018
FC7E
FC7E
ENDCHAR
STARTCHAR 0049
ENCODING 73
SWIDTH 612 0
DWIDTH 17 0
BBX 11 16 3 0
BITMAP
FFE0
FFE0
0C00
0C00
0C00
0C00
0C00
0C00
0C00
0C00
0C00
0C00
0C00
0C00
FFE0
FFE0
ENDCHAR
STARTCHAR 004A
ENCODING 74
SWIDTH 612 0
DWIDTH 17 0
BBX 14 16 2 0
BITMAP
1FFC
1FFC
00C0
00C0
00C0
00C0
00C0
00C0
00C0
C0C0
C0C0
C0C0
C0C0
C1C0
FF80
3F00
ENDCHAR
STARTCHAR 004B
ENCODING 75
SWIDTH 612 0
DWIDTH 17 0
BBX 15 16 1 0
BITMAP
FE7E
FE7E
3838
3860
38C0
3980
3B00
3FC0
3FE0
38E0
3870
3830
3838
3818
FF1E
FF0E
ENDCHAR
STARTCHAR 004C
ENCODING 76
SWIDTH 612 0
DWIDTH 17 0
BBX 14 16 1 0
BITMAP
FF80
FF80
1800
1800
1800
1800
1800
1800
1800
180C
180C
180C
180C
180C
FFFC
FFFC
ENDCHAR
STARTCHAR 004D
ENCODING 77
SWIDTH 612 0
DWIDTH 17 0
BBX 16 16 0 0
BITMAP
781F
7C1F
3C1C
3C3C
363C
363E
3366
3366
33E6
31C6
31C6
3086
3006
3006
FC3F
FC3F
ENDCHAR
STARTCHAR 004E
ENCODING 78
SWIDTH 612 0
DWIDTH 17 0
BBX 15 16 1 0
BITMAP
F87E
F87E
3C18
3C18
3618
3718
3318
3398
3198
30D8
30D8
3078
3078
3038
FE18
FE18
ENDCHAR
STARTCHAR 004F
ENCODING 79
SWIDTH 612 0
DWIDTH 17 0
BBX 15 16 1 0
BITMAP
07C0
1FF0
3838
701C
600C
E00C
C00C
C00E
C00E
C00C
E00C
600C
701C
3838
1FF0
07C0
ENDCHAR
STARTCHAR 0050
ENCODING 80
SWIDTH 612 0
DWIDTH 17 0
BBX 14 16 1 0
BITMAP
FFE0
FFF8
183C
180C
180C
180C
180C
181C
1FF8
1FE0
1800
1800
1800
1800
FF80
FF80
ENDCHAR
STARTCHAR 0051
ENCODING 81
SWIDTH 612 0
DWIDTH 17 0
BBX 15 20 1 -4
BITMAP
07C0
1FF0
3838
701C
600C
E00C
C00C
C00E
C00E
C00C
E00C
600C
701C
3838
1FF0
07C0
0C00
1B8C
3FFC
1870
ENDCHAR
STARTCHAR 0052
ENCODING 82
SWIDTH 612 0
DWIDTH 17 0
BBX 15 16 1 0
BITMAP
FFE0
FFF0
1838
1818
1818
1818
1838
1FF0
1FC0
18E0
1860
1830
1830
1818
FE1E
FE0E
ENDCHAR
STARTCHAR 0053
ENCODING 83
SWIDTH 612 0
DWIDTH 17 0
BBX 13 16 2 0
BITMAP
1F30
7FF0
70F0
E070
C030
E000
7800
3FC0
03E0
0070
C030
C038
E030
F070
DFE0
CFC0
ENDCHAR
STARTCHAR 0054
ENCODING 84
SWIDTH 612 0
DWIDTH 17 0
BBX 13 16 2 0
BITMAP
FFF8
FFF8
C618
C618
C618
C618
C618
0600
0600
0600
0600
0600
0600
0600
7FF0
7FE0
ENDCHAR
STARTCHAR 0055
ENCODING 85
SWIDTH 612 0
DWIDTH 17 0
BBX 15 16 1 0
BITMAP
FC7E
FC7E
3018
3018
3018
3018
3018
3018
3018
3018
3018
3018
3018
3838
1FF0
0FC0
ENDCHAR
STARTCHAR 0056
ENCODING 86
SWIDTH 612 0
DWIDTH 17 0
BBX 17 16 0 0
BITMAP
FE3F80
FE3F80
300E00
180C00
180C00
181800
0C1800
0C1800
0E3000
063000
067000
036000
036000
03C000
01C000
01C000
ENDCHAR
STARTCHAR 0057
ENCODING 87
SWIDTH 612 0
DWIDTH 17 0
BBX 17 16 0 0
BITMAP
FC1F80
FC1F80
700600
300600
308600
31C600
31C600
33C600
336C00
336C00
1E6C00
1E3C00
1E3C00
1C3C00
1C1C00
1C1800
ENDCHAR
STARTCHAR 0058
ENCODING 88
SWIDTH 612 0
DWIDTH 17 0
BBX 15 16 1 0
BITMAP
FC7E
FE7E
3838
1870
0C60
0EC0
07C0
0380
0380
06C0
0CE0
1C70
1830
3018
FC7E
FC7E
ENDCHAR
STARTCHAR 0059
ENCODING 89
SWIDTH 612 0
DWIDTH 17 0
BBX 15 16 1 0
BITMAP
FC7E
FC7E
3018
1830
1C70
0C60
06C0
07C0
0380
0300
0300
0300
0300
0300
3FF0
3FF0
ENDCHAR
STARTCHAR 005A
ENCODING 90
SWIDTH 612 0
DWIDTH 17 0
BBX 12 16 2 0
BITMAP
7FF0
7FF0
6060
60E0
60C0
6180
0380
0700
0600
0C00
1C30
1830
3030
7030
FFF0
FFF0
ENDCHAR
STARTCHAR 005B
ENCODING 91
SWIDTH 612 0
DWIDTH 17 0
BBX 7 23 5 -5
BITMAP
FE
FE
C0
C0
C0
C0
C0
C0
C0
C0
C0
C0
C0
C0
C0
C0
C0
C0
C0
C0
C0
FE
FE
ENDCHAR
STARTCHAR 005C
ENCODING 92
SWIDTH 612 0
DWIDTH 17 0
BBX 11 24 3 -5
BITMAP
8000
C000
C000
6000
6000
7000
3000
3800
1800
1800
1C00
0C00
0E00
0600
0600
0300
0300
0380
0180
01C0
00C0
00C0
0060
0060
ENDCHAR
STARTCHAR 005D
ENCODING 93
SWIDTH 612 0
DWIDTH 17 0
BBX 7 23 5 -5
BITMAP
FE
FE
06
06
06
06
06
06
06
06
06
06
06
06
06
06
06
06
06
06
06
FE
FE
ENDCHAR
STARTCHAR 005E
ENCODING 94
SWIDTH 612 0
DWIDTH 17 0
BBX 11 10 3 7
BITMAP
0400
0E00
0E00
1F00
1B00
3180
3180
60C0
E0C0
C060
ENDCHAR
STARTCHAR 005F
ENCODING 95
SWIDTH 612 0
DWIDTH 17 0
BBX 17 2 0 -5
BITMAP
FFFF80
FFFF80
ENDCHAR
STARTCHAR 0060
ENCODING 96
SWIDTH 612 0
DWIDTH 17 0
BBX 7 5 4 14
BITMAP
60
F0
78
1E
06
ENDCHAR
STARTCHAR 0061
ENCODING 97
SWIDTH 612 0
DWIDTH 17 0
BBX 14 13 2 0
BITMAP
1F80
7FE0
70E0
0070
0030
3FB0
7FF0
E070
C030
C070
E1F0
7FBC
3E1C
ENDCHAR
STARTCHAR 0062
ENCODING 98
SWIDTH 612 0
DWIDTH 17 0
BBX 15 18 0 0
BITMAP
7800
F800
1800
1800
1800
19F0
1BF8
1E1C
1C0C
180E
1806
1806
1806
1806
1C0C
1E1C
7FF8
79F0
ENDCHAR
STARTCHAR 0063
ENCODING 99
SWIDTH 612 0
DWIDTH 17 0
BBX 12 13 2 0
BITMAP
0FB0
3FF0
7070
E030
C030
C030
C000
C000
C000
E010
7070
3FF0
0FC0
ENDCHAR
STARTCHAR 0064
ENCODING 100
SWIDTH 612 0
DWIDTH 17 0
BBX 14 18 2 0
BITMAP
01F0
01F0
0030
0030
0030
1F30
3FB0
70F0
E070
C030
C030
C030
C030
C030
E070
70F0
3FBC
1F3C
ENDCHAR
STARTCHAR 0065
ENCODING 101
SWIDTH 612 0
DWIDTH 17 0
BBX 13 13 2 0
BITMAP
0F80
3FE0
7070
6030
C018
FFF8
FFF8
C000
C000
6000
7078
3FF0
0FC0
ENDCHAR
STARTCHAR 0066
ENCODING 102
SWIDTH 612 0
DWIDTH 17 0
BBX 12 18 3 0
BITMAP
07E0
0FF0
1C10
1800
1800
1800
FFE0
FFE0
1800
1800
1800
1800
1800
1800
1800
1800
FFE0
FFE0
ENDCHAR
STARTCHAR 0067
ENCODING 103
SWIDTH 612 0
DWIDTH 17 0
BBX 14 18 2 -5
BITMAP
1F3C
3FBC
70F0
E070
C030
C030
C030
C030
C030
E070
70F0
3FB0
1F30
0030
0030
4060
FFE0
3F80
ENDCHAR
STARTCHAR 0068
ENCODING 104
SWIDTH 612 0
DWIDTH 17 0
BBX 15 18 1 0
BITMAP
F000
F000
3000
3000
3000
31E0
37F0
3E38
3C18
3818
3018
3018
3018
3018
3018
3018
FC7E
FC7E
ENDCHAR
STARTCHAR 0069
ENCODING 105
SWIDTH 612 0
DWIDTH 17 0
BBX 12 19 3 0
BITMAP
0E00
0E00
0E00
0E00
0000
0000
FE00
FE00
0600
0600
0600
0600
0600
0600
0600
0600
0600
FFF0
FFF0
ENDCHAR
STARTCHAR 006A
ENCODING 106
SWIDTH 612 0
DWIDTH 17 0
BBX 9 24 3 -5
BITMAP
0180
0180
0180
0180
0000
0000
7F80
7F80
0180
0180
0180
0180
0180
0180
0180
0180
0180
0180
0180
0180
0180
E380
FF80
3E00
ENDCHAR
STARTCHAR 006B
ENCODING 107
SWIDTH 612 0
DWIDTH 17 0
BBX 15 18 1 0
BITMAP
F800
F800
1800
1800
1800
18FC
18FC
1870
18E0
19C0
1B80
1F80
1CC0
18E0
1870
1838
FC7E
FC7E
ENDCHAR
STARTCHAR 006C
ENCODING 108
SWIDTH 612 0
DWIDTH 17 0
BBX 13 18 2 0
BITMAP
7F00
7F00
0300
0300
0300
0300
0300
0300
0300
0300
0300
0300
0300
0300
0300
0300
FFF8
FFF8
ENDCHAR
STARTCHAR 006D
ENCODING 109
SWIDTH 612 0
DWIDTH 17 0
BBX 17 13 0 0
BITMAP
F71C00
FFBE00
39E600
38C600
30C600
30C600
30C600
30C600
30C600
30C600
30C600
FCE780
F8E780
ENDCHAR
STARTCHAR 006E
ENCODING 110
SWIDTH 612 0
DWIDTH 17 0
BBX 15 13 1 0
BITMAP
F1E0
F7F0
3638
3C18
3818
3818
3018
3018
3018
3018
3018
FC7E
FC7E
ENDCHAR
STARTCHAR 006F
ENCODING 111
SWIDTH 612 0
DWIDTH 17 0
BBX 13 13 2 0
BITMAP
0F80
3FE0
70F0
E030
C038
C018
C018
C018
C038
E030
70F0
3FE0
0F80
ENDCHAR
STARTCHAR 0070
ENCODING 112
SWIDTH 612 0
DWIDTH 17 0
BBX 15 18 0 -5
BITMAP
79F0
7FF8
1E1C
1C0C
180E
1806
1806
1806
1806
1C0C
1E1C
1FF8
19F0
1800
1800
1800
FF00
7F00
ENDCHAR
STARTCHAR 0071
ENCODING 113
SWIDTH 612 0
DWIDTH 17 0
BBX 14 18 2 -5
BITMAP
1F3C
3FBC
70F0
E070
C030
C030
C030
C030
C030
E070
70F0
3FB0
1F30
0030
0030
0030
01FC
01FC
ENDCHAR
STARTCHAR 0072
ENCODING 114
SWIDTH 612 0
DWIDTH 17 0
BBX 13 13 2 0
BITMAP
F8F8
F9F8
1B88
1E00
1C00
1C00
1800
1800
1800
1800
1800
FFE0
FFC0
ENDCHAR
STARTCHAR 0073
ENCODING 115
SWIDTH 612 0
DWIDTH 17 0
BBX 12 13 2 0
BITMAP
1F30
7FF0
6070
6030
6000
7F00
3FE0
00F0
C030
E030
F070
FFE0
CFC0
ENDCHAR
STARTCHAR 0074
ENCODING 116
SWIDTH 612 0
DWIDTH 17 0
BBX 13 16 2 0
BITMAP
1800
1800
1800
1800
FFF0
FFF0
1800
1800
1800
1800
1800
1800
1808
0C38
0FF0
07C0
ENDCHAR
STARTCHAR 0075
ENCODING 117
SWIDTH 612 0
DWIDTH 17 0
BBX 15 13 1 0
BITMAP
F0F8
F0F8
3018
3018
3018
3018
3018
3038
3038
3078
38F8
1FDE
0F1E
ENDCHAR
STARTCHAR 0076
ENCODING 118
SWIDTH 612 0
DWIDTH 17 0
BBX 15 13 1 0
BITMAP
FC7E
FC7E
3018
3018
3830
1830
1C60
0C60
0CE0
06C0
06C0
0780
0380
ENDCHAR
STARTCHAR 0077
ENCODING 119
SWIDTH 612 0
DWIDTH 17 0
BBX 17 13 0 0
BITMAP
FC0F80
FC1F80
600300
618600
31C600
31C600
33C600
336C00
1B6C00
1E3C00
1E3800
1C3800
0C1800
ENDCHAR
STARTCHAR 0078
ENCODING 120
SWIDTH 612 0
DWIDTH 17 0
BBX 15 13 1 0
BITMAP
FC7E
FE7E
3838
1C70
0EE0
07C0
0380
07C0
0CE0
1870
3038
FCFE
FCFE
ENDCHAR
STARTCHAR 0079
ENCODING 121
SWIDTH 612 0
DWIDTH 17 0
BBX 15 18 1 -5
BITMAP
FC7E
FC7E
3018
3038
1830
1870
0C60
0CE0
06C0
07C0
0380
0380
0300
0700
0600
0C00
7C00
7000
ENDCHAR
STARTCHAR 007A
ENCODING 122
SWIDTH 612 0
DWIDTH 17 0
BBX 12 13 2 0
BITMAP
7FF0
7FF0
60E0
60C0
6180
0380
0700
0E00
1C30
3830
7030
7FF0
FFF0
ENDCHAR
STARTCHAR 007B
ENCODING 123
SWIDTH 612 0
DWIDTH 17 0
BBX 12 24 2 -5
BITMAP
0020
01F0
03E0
0700
0600
0600
0600
0600
0600
0600
0C00
F800
F800
0C00
0600
0600
0600
0600
0600
0600
0600
0700
03F0
00E0
ENDCHAR
STARTCHAR 007C
ENCODING 124
SWIDTH 612 0
DWIDTH 17 0
BBX 2 24 7 -5
BITMAP
40
C0
C0
C0
C0
C0
C0
C0
C0
C0
C0
C0
C0
C0
C0
C0
C0
C0
C0
C0
C0
C0
C0
C0
ENDCHAR
STARTCHAR 007D
ENCODING 125
SWIDTH 612 0
DWIDTH 17 0
BBX 11 24 3 -5
BITMAP
4000
F800
7C00
0E00
0600
0600
0600
0600
0600
0600
0300
01E0
01E0
0300
0600
0600
0600
0600
0600
0600
0E00
1C00
FC00
F000
ENDCHAR
STARTCHAR 007E
ENCODING 126
SWIDTH 612 0
DWIDTH 17 0
BBX 13 4 2 6
BITMAP
3C00
7F38
C7F0
01E0
ENDCHAR
STARTCHAR 00A0
ENCODING 160
SWIDTH 612 0
DWIDTH 17 0
BBX 0 0 0 0
BITMAP
ENDCHAR
STARTCHAR 00A1
ENCODING 161
SWIDTH 612 0
DWIDTH 17 0
BBX 3 18 7 -5
BITMAP
E0
E0
E0
E0
00
00
00
40
40
C0
C0
C0
E0
E0
E0
E0
E0
E0
ENDCHAR
STARTCHAR 00A2
ENCODING 162
SWIDTH 612 0
DWIDTH 17 0
BBX 12 20 2 -2
BITMAP
0600
0600
0600
0FB0
3FF0
7EF0
6630
C630
C630
C600
C600
C600
E600
6630
7EF0
3FE0
0700
0600
0600
0600
ENDCHAR
STARTCHAR 00A3
ENCODING 163
SWIDTH 612 0
DWIDTH 17 0
BBX 11 16 3 0
BITMAP
1F00
3FC0
70C0
60C0
6000
6000
3000
FF80
FF80
1800
1800
3000
3000
6000
FFE0
FFC0
ENDCHAR
STARTCHAR 00A4
ENCODING 164
SWIDTH 612 0
DWIDTH 17 0
BBX 13 14 2 1
BITMAP
8018
C018
EFB8
7FF0
38E0
6070
6030
6030
6030
6070
38E0
7FF0
EFB8
C018
ENDCHAR
STARTCHAR 00A5
ENCODING 165
SWIDTH 612 0
DWIDTH 17 0
BBX 15 16 1 0
BITMAP
FC7E
FC7E
3018
1830
1C70
7C7C
7EFC
07C0
0380
7FF8
7FF8
0300
0300
0300
3FF0
3FF0
ENDCHAR
STARTCHAR 00A6
ENCODING 166
SWIDTH 612 0
DWIDTH 17 0
BBX 2 24 7 -5
BITMAP
40
C0
C0
C0
C0
C0
C0
C0
C0
C0
40
00
00
00
C0
C0
C0
C0
C0
C0
C0
C0
C0
C0
ENDCHAR
STARTCHAR 00A7
ENCODING 167
SWIDTH 612 0
DWIDTH 17 0
BBX 12 20 2 -4
BITMAP
0FE0
1FF0
3870
3070
3020
3800
7E00
EF00
E3C0
61E0
7870
1E30
0F30
03F0
01E0
60E0
6060
60E0
7FC0
7F80
ENDCHAR
STARTCHAR 00A8
ENCODING 168
SWIDTH 612 0
DWIDTH 17 0
BBX 9 4 4 15
BITMAP
E300
E380
E380
E300
ENDCHAR
STARTCHAR 00A9
ENCODING 169
SWIDTH 612 0
DWIDTH 17 0
BBX 16 17 0 0
BITMAP
03E0
0FF8
1C1C
3006
63E6
67F3
4603
4C01
CC01
4C01
4603
67F3
63E6
3006
1C1C
0FF8
03E0
ENDCHAR
STARTCHAR 00AA
ENCODING 170
SWIDTH 612 0
DWIDTH 17 0
BBX 11 10 3 7
BITMAP
3F00
7F80
4180
00C0
3FC0
7FC0
C0C0
E1C0
7FE0
3CE0
ENDCHAR
STARTCHAR 00AB
ENCODING 171
SWIDTH 612 0
DWIDTH 17 0
BBX 13 11 2 2
BITMAP
0C10
1C38
3870
30E0
61C0
E180
61C0
30E0
3870
1C38
0C10
ENDCHAR
STARTCHAR 00AC
ENCODING 172
SWIDTH 612 0
DWIDTH 17 0
BBX 13 7 2 5
BITMAP
FFF8
FFF8
0018
0018
0018
0018
0018
ENDCHAR
STARTCHAR 00AD
ENCODING 173
SWIDTH 612 0
DWIDTH 17 0
BBX 11 2 3 5
BITMAP
FFE0
FFE0
ENDCHAR
STARTCHAR 00AE
ENCODING 174
SWIDTH 612 0
DWIDTH 17 0
BBX 13 14 2 5
BITMAP
0F80
38E0
6020
4F10
C998
8898
8888
8F88
8B18
C998
4890
6030
3060
1F80
ENDCHAR
STARTCHAR 00AF
ENCODING 175
SWIDTH 612 0
DWIDTH 17 0
BBX 9 2 4 15
BITMAP
FF80
FF80
ENDCHAR
STARTCHAR 00B0
ENCODING 176
SWIDTH 612 0
DWIDTH 17 0
BBX 8 8 3 9
BITMAP
3C
7E
67
C3
C3
67
7E
3C
ENDCHAR
STARTCHAR 00B1
ENCODING 177
SWIDTH 612 0
DWIDTH 17 0
BBX 12 14 2 2
BITMAP
0600
0600
0600
0600
FFF0
FFF0
0600
0600
0600
0600
0200
0000
FFF0
FFF0
ENDCHAR
STARTCHAR 00B2
ENCODING 178
SWIDTH 612 0
DWIDTH 17 0
BBX 9 11 4 7
BITMAP
3E00
FF00
C300
C300
0300
0600
0C00
1800
7180
FF80
FF80
ENDCHAR
STARTCHAR 00B3
ENCODING 179
SWIDTH 612 0
DWIDTH 17 0
BBX 9 11 4 7
BITMAP
7E00
FF00
C300
0300
1E00
1F00
0300
0180
8380
FF00
7E00
ENDCHAR
STARTCHAR 00B4
ENCODING 180
SWIDTH 612 0
DWIDTH 17 0
BBX 7 5 6 14
BITMAP
0C
1E
78
F0
C0
ENDCHAR
STARTCHAR 00B5
ENCODING 181
SWIDTH 612 0
DWIDTH 17 0
BBX 11 19 3 -6
BITMAP
C060
C060
C060
C060
C060
C060
C060
C060
C0E0
C1E0
E3E0
FF60
FC60
C000
C000
C000
C000
C000
C000
ENDCHAR
STARTCHAR 00B6
ENCODING 182
SWIDTH 612 0
DWIDTH 17 0
BBX 13 21 2 -5
BITMAP
1FF8
7FF8
FE60
FE60
FE60
FE60
FE60
7E60
3E60
0660
0660
0660
0660
0660
0660
0660
0660
0660
0660
0660
0660
ENDCHAR
STARTCHAR 00B7
ENCODING 183
SWIDTH 612 0
DWIDTH 17 0
BBX 3 4 7 6
BITMAP
E0
E0
E0
E0
ENDCHAR
STARTCHAR 00B8
ENCODING 184
SWIDTH 612 0
DWIDTH 17 0
BBX 7 7 5 -6
BITMAP
30
30
3C
06
06
FE
7C
ENDCHAR
STARTCHAR 00B9
ENCODING 185
SWIDTH 612 0
DWIDTH 17 0
BBX 9 11 4 7
BITMAP
0C00
3C00
EC00
0C00
0C00
0C00
0C00
0C00
0C00
FF80
FF80
ENDCHAR
STARTCHAR 00BA
ENCODING 186
SWIDTH 612 0
DWIDTH 17 0
BBX 11 10 3 7
BITMAP
1F00
3F80
61C0
E0C0
C060
C060
E0C0
61C0
3F80
1F00
ENDCHAR
STARTCHAR 00BB
ENCODING 187
SWIDTH 612 0
DWIDTH 17 0
BBX 13 11 2 2
BITMAP
C180
E180
70C0
3860
1870
0C38
1870
3860
70C0
E180
C180
ENDCHAR
STARTCHAR 00BC
ENCODING 188
SWIDTH 612 0
DWIDTH 17 0
BBX 17 22 0 -3
BITMAP
100000
700000
D00000
100000
100000
100000
100000
100200
FE0600
FE1C00
007000
00C000
038600
0E0E00
1C0A00
301A00
003200
006200
007F80
007F80
000200
000200
ENDCHAR
STARTCHAR 00BD
ENCODING 189
SWIDTH 612 0
DWIDTH 17 0
BBX 17 22 0 -3
BITMAP
100000
700000
D00000
100000
100000
100000
100000
100200
100E00
FE1C00
007000
01C000
038000
0E3E00
187700
306100
000300
000300
000E00
001880
003180
007F80
ENDCHAR
STARTCHAR 00BE
ENCODING 190
SWIDTH 612 0
DWIDTH 17 0
BBX 17 22 0 -3
BITMAP
7C0000
FE0000
C60000
060000
1C0000
1E0000
020000
020200
FE0E00
7C1800
007000
01C000
030600
0E0E00
180A00
301A00
003200
006200
007F80
007F80
000200
000200
ENDCHAR
STARTCHAR 00BF
ENCODING 191
SWIDTH 612 0
DWIDTH 17 0
BBX 9 17 4 -4
BITMAP
1C00
1E00
1C00
0000
0000
0000
0C00
0C00
1C00
7C00
E000
C000
C080
C180
E180
FF80
3E00
ENDCHAR
STARTCHAR 00C0
ENCODING 192
SWIDTH 612 0
DWIDTH 17 0
BBX 17 23 0 0
BITMAP
0C0000
0E0000
078000
01E000
00C000
000000
000000
1FC000
1FC000
036000
036000
062000
063000
063000
0C1800
0C1800
1FF800
1FFC00
180C00
300C00
300600
FC3F80
FC3F80
ENDCHAR
STARTCHAR 00C1
ENCODING 193
SWIDTH 612 0
DWIDTH 17 0
BBX 17 23 0 0
BITMAP
006000
00F000
01C000
078000
060000
000000
000000
1FC000
1FC000
036000
036000
062000
063000
063000
0C1800
0C1800
1FF800
1FFC00
180C00
300C00
300600
FC3F80
FC3F80
ENDCHAR
STARTCHAR 00C2
ENCODING 194
SWIDTH 612 0
DWIDTH 17 0
BBX 17 23 0 0
BITMAP
018000
03C000
07E000
0E7000
0C1000
000000
000000
1FC000
1FC000
036000
036000
062000
063000
063000
0C1800
0C1800
1FF800
1FFC00
180C00
300C00
300600
FC3F80
FC3F80
ENDCHAR
STARTCHAR 00C3
ENCODING 195
SWIDTH 612 0
DWIDTH 17 0
BBX 17 22 0 0
BITMAP
071800
1FF000
18E000
000000
000000
000000
1FC000
1FC000
036000
036000
062000
063000
063000
0C1800
0C1800
1FF800
1FFC00
180C00
300C00
300600
FC3F80
FC3F80
ENDCHAR
STARTCHAR 00C4
ENCODING 196
SWIDTH 612 0
DWIDTH 17 0
BBX 17 23 0 0
BITMAP
0C3000
0E3000
0E3000
0C3000
000000
000000
000000
1FC000
1FC000
036000
036000
062000
063000
063000
0C1800
0C1800
1FF800
1FFC00
180C00
300C00
300600
FC3F80
FC3F80
ENDCHAR
STARTCHAR 00C5
ENCODING 197
SWIDTH 612 0
DWIDTH 17 0
BBX 17 26 0 0
BITMAP
03C000
07E000
066000
0C6000
066000
07E000
03C000
000000
000000
000000
1FC000
1FC000
036000
036000
062000
063000
063000
0C1800
0C1800
1FF800
1FFC00
180C00
300C00
300600
FC3F80
FC3F80
ENDCHAR
STARTCHAR 00C6
ENCODING 198
SWIDTH 612 0
DWIDTH 17 0
BBX 16 16 0 0
BITMAP
1FFE
1FFE
06C6
06C6
06C6
0CC0
0CC0
0CF8
18F8
1FC0
1FC2
30C3
30C3
30C3
FCFF
FCFF
ENDCHAR
STARTCHAR 00C7
ENCODING 199
SWIDTH 612 0
DWIDTH 17 0
BBX 13 23 2 -7
BITMAP
0F98
3FD8
7878
6038
E018
C018
C000
C000
C000
C000
C000
E000
6010
7038
3FF0
0FC0
0200
0300
03C0
00C0
08C0
1FC0
0700
ENDCHAR
STARTCHAR 00C8
ENCODING 200
SWIDTH 612 0
DWIDTH 17 0
BBX 14 23 1 0
BITMAP
0C00
0E00
0780
01E0
00C0
0000
0000
FFFC
FFFC
300C
300C
300C
30C0
30C0
3FC0
3FC0
30C0
30CC
300C
300C
300C
FFFC
FFFC
ENDCHAR
STARTCHAR 00C9
ENCODING 201
SWIDTH 612 0
DWIDTH 17 0
BBX 14 23 1 0
BITMAP
0060
01E0
03C0
0700
0C00
0000
0000
FFFC
FFFC
300C
300C
300C
30C0
30C0
3FC0
3FC0
30C0
30CC
300C
300C
300C
FFFC
FFFC
ENDCHAR
STARTCHAR 00CA
ENCODING 202
SWIDTH 612 0
DWIDTH 17 0
BBX 14 23 1 0
BITMAP
0180
03C0
07E0
0C70
1830
0000
0000
FFFC
FFFC
300C
300C
300C
30C0
30C0
3FC0
3FC0
30C0
30CC
300C
300C
300C
FFFC
FFFC
ENDCHAR
STARTCHAR 00CB
ENCODING 203
SWIDTH 612 0
DWIDTH 17 0
BBX 14 23 1 0
BITMAP
0C70
0C70
0C70
0C70
0000
0000
0000
FFFC
FFFC
300C
300C
300C
30C0
30C0
3FC0
3FC0
30C0
30CC
300C
300C
300C
FFFC
FFFC
ENDCHAR
STARTCHAR 00CC
ENCODING 204
SWIDTH 612 0
DWIDTH 17 0
BBX 11 23 3 0
BITMAP
3000
7800
3C00
0F00
0300
0000
0000
FFE0
FFE0
0C00
0C00
0C00
0C00
0C00
0C00
0C00
0C00
0C00
0C00
0C00
0C00
FFE0
FFE0
ENDCHAR
STARTCHAR 00CD
ENCODING 205
SWIDTH 612 0
DWIDTH 17 0
BBX 11 23 3 0
BITMAP
0180
03C0
0F00
1E00
1800
0000
0000
FFE0
FFE0
0C00
0C00
0C00
0C00
0C00
0C00
0C00
0C00
0C00
0C00
0C00
0C00
FFE0
FFE0
ENDCHAR
STARTCHAR 00CE
ENCODING 206
SWIDTH 612 0
DWIDTH 17 0
BBX 11 23 3 0
BITMAP
0C00
1E00
3F00
7180
60C0
0000
0000
FFE0
FFE0
0C00
0C00
0C00
0C00
0C00
0C00
0C00
0C00
0C00
0C00
0C00
0C00
FFE0
FFE0
ENDCHAR
STARTCHAR 00CF
ENCODING 207
SWIDTH 612 0
DWIDTH 17 0
BBX 11 23 3 0
BITMAP
7180
71C0
71C0
7180
0000
0000
0000
FFE0
FFE0
0C00
0C00
0C00
0C00
0C00
0C00
0C00
0C00
0C00
0C00
0C00
0C00
FFE0
FFE0
ENDCHAR
STARTCHAR 00D0
ENCODING 208
SWIDTH 612 0
DWIDTH 17 0
BBX 15 16 1 0
BITMAP
FFC0
FFF0
3878
381C
380C
380C
380C
FF0E
FF0E
380C
380C
380C
381C
3878
FFF0
FFC0
ENDCHAR
STARTCHAR 00D1
ENCODING 209
SWIDTH 612 0
DWIDTH 17 0
BBX 15 22 1 0
BITMAP
0F30
1FF0
11E0
0000
0000
0000
F87E
F87E
3C18
3C18
3618
3718
3318
3398
3198
30D8
30D8
3078
3078
3038
FE18
FE18
ENDCHAR
STARTCHAR 00D2
ENCODING 210
SWIDTH 612 0
DWIDTH 17 0
BBX 15 23 1 0
BITMAP
0C00
0E00
0780
01C0
00C0
0000
0000
07C0
1FF0
3838
701C
600C
E00C
C00C
C00E
C00E
C00C
E00C
600C
701C
3838
1FF0
07C0
ENDCHAR
STARTCHAR 00D3
ENCODING 211
SWIDTH 612 0
DWIDTH 17 0
BBX 15 23 1 0
BITMAP
0060
00E0
03C0
0700
0C00
0000
0000
07C0
1FF0
3838
701C
600C
E00C
C00C
C00E
C00E
C00C
E00C
600C
701C
3838
1FF0
07C0
ENDCHAR
STARTCHAR 00D4
ENCODING 212
SWIDTH 612 0
DWIDTH 17 0
BBX 15 23 1 0
BITMAP
0300
0780
0FC0
1C60
1830
0000
0000
07C0
1FF0
3838
701C
600C
E00C
C00C
C00E
C00E
C00C
E00C
600C
701C
3838
1FF0
07C0
ENDCHAR
STARTCHAR 00D5
ENCODING 213
SWIDTH 612 0
DWIDTH 17 0
BBX 15 22 1 0
BITMAP
0F30
1FF0
11E0
0000
0000
0000
07C0
1FF0
3838
701C
600C
E00C
C00C
C00E
C00E
C00C
E00C
600C
701C
3838
1FF0
07C0
ENDCHAR
STARTCHAR 00D6
ENCODING 214
SWIDTH 612 0
DWIDTH 17 0
BBX 15 23 1 0
BITMAP
1C60
1C70
1C70
1C60
0000
0000
0000
07C0
1FF0
3838
701C
600C
E00C
C00C
C00E
C00E
C00C
E00C
600C
701C
3838
1FF0
07C0
ENDCHAR
STARTCHAR 00D7
ENCODING 215
SWIDTH 612 0
DWIDTH 17 0
BBX 11 10 3 3
BITMAP
C040
E0E0
7180
3B00
0E00
0E00
1B00
7180
E0E0
C040
ENDCHAR
STARTCHAR 00D8
ENCODING 216
SWIDTH 612 0
DWIDTH 17 0
BBX 15 19 1 -1
BITMAP
0008
000C
07CC
1FF8
3878
7038
606C
E0CC
C1CC
C18E
C30E
C60C
6E0C
6C0C
781C
3838
7FF0
67C0
4000
ENDCHAR
STARTCHAR 00D9
ENCODING 217
SWIDTH 612 0
DWIDTH 17 0
BBX 15 23 1 0
BITMAP
0C00
1E00
0F00
03C0
00C0
0000
0000
FC7E
FC7E
3018
3018
3018
3018
3018
3018
3018
3018
3018
3018
3018
3838
1FF0
0FC0
ENDCHAR
STARTCHAR 00DA
ENCODING 218
SWIDTH 612 0
DWIDTH 17 0
BBX 15 23 1 0
BITMAP
0060
00F0
03C0
0780
0600
0000
0000
FC7E
FC7E
3018
3018
3018
3018
3018
3018
3018
3018
3018
3018
3018
3838
1FF0
0FC0
ENDCHAR
STARTCHAR 00DB
ENCODING 219
SWIDTH 612 0
DWIDTH 17 0
BBX 15 23 1 0
BITMAP
0300
0780
0FC0
1C60
1830
0000
0000
FC7E
FC7E
3018
3018
3018
3018
3018
3018
3018
3018
3018
3018
3018
3838
1FF0
0FC0
ENDCHAR
STARTCHAR 00DC
ENCODING 220
SWIDTH 612 0
DWIDTH 17 0
BBX 15 23 1 0
BITMAP
1C60
1C70
1C70
1C60
0000
0000
0000
FC7E
FC7E
3018
3018
3018
3018
3018
3018
3018
3018
3018
3018
3018
3838
1FF0
0FC0
ENDCHAR
STARTCHAR 00DD
ENCODING 221
SWIDTH 612 0
DWIDTH 17 0
BBX 15 23 1 0
BITMAP
0060
00F0
01C0
0780
0600
0000
0000
FC7E
FC7E
3018
1830
1C70
0C60
06C0
07C0
0380
0300
0300
0300
0300
0300
3FF0
3FF0
ENDCHAR
STARTCHAR 00DE
ENCODING 222
SWIDTH 612 0
DWIDTH 17 0
BBX 14 16 1 0
BITMAP
7F80
FF80
1C00
1FE0
1FF8
1C38
1C1C
1C1C
1C1C
1C38
1FF8
1FE0
1C00
1C00
FF80
7F80
ENDCHAR
STARTCHAR 00DF
ENCODING 223
SWIDTH 612 0
DWIDTH 17 0
BBX 13 18 1 0
BITMAP
07C0
0FE0
1C70
1830
3038
3038
3030
30E0
31E0
30F0
3038
3018
3018
3018
3018
3038
F1F0
F1C0
ENDCHAR
STARTCHAR 00E0
ENCODING 224
SWIDTH 612 0
DWIDTH 17 0
BBX 14 19 2 0
BITMAP
0800
1E00
0F00
03C0
00C0
0000
1F80
7FE0
70E0
0070
0030
3FB0
7FF0
E070
C030
C070
E1F0
7FBC
3E1C
ENDCHAR
STARTCHAR 00E1
ENCODING 225
SWIDTH 612 0
DWIDTH 17 0
BBX 14 19 2 0
BITMAP
0180
03C0
0700
1E00
1800
0000
1F80
7FE0
70E0
0070
0030
3FB0
7FF0
E070
C030
C070
E1F0
7FBC
3E1C
ENDCHAR
STARTCHAR 00E2
ENCODING 226
SWIDTH 612 0
DWIDTH 17 0
BBX 14 19 2 0
BITMAP
0600
0F00
1F80
38C0
3060
0000
1F80
7FE0
70E0
0070
0030
3FB0
7FF0
E070
C030
C070
E1F0
7FBC
3E1C
ENDCHAR
STARTCHAR 00E3
ENCODING 227
SWIDTH 612 0
DWIDTH 17 0
BBX 14 18 2 0
BITMAP
1E60
3FE0
23C0
0000
0000
1F80
7FE0
70E0
0070
0030
3FB0
7FF0
E070
C030
C070
E1F0
7FBC
3E1C
ENDCHAR
STARTCHAR 00E4
ENCODING 228
SWIDTH 612 0
DWIDTH 17 0
BBX 14 19 2 0
BITMAP
38C0
38E0
38E0
38C0
0000
0000
1F80
7FE0
70E0
0070
0030
3FB0
7FF0
E070
C030
C070
E1F0
7FBC
3E1C
ENDCHAR
STARTCHAR 00E5
ENCODING 229
SWIDTH 612 0
DWIDTH 17 0
BBX 14 22 2 0
BITMAP
0700
0F80
18C0
18C0
18C0
0F80
0700
0000
0000
1F80
7FE0
70E0
0070
0030
3FB0
7FF0
E070
C030
C070
E1F0
7FBC
3E1C
ENDCHAR
STARTCHAR 00E6
ENCODING 230
SWIDTH 612 0
DWIDTH 17 0
BBX 15 13 1 0
BITMAP
3E78
7FFC
638C
038C
0386
1FFE
7FFE
F300
C380
C380
C78E
7EFC
3C78
ENDCHAR
STARTCHAR 00E7
ENCODING 231
SWIDTH 612 0
DWIDTH 17 0
BBX 12 20 2 -7
BITMAP
0FB0
3FF0
7070
E030
C030
C030
C000
C000
C000
E010
7070
3FF0
1FC0
0600
0600
0780
00C0
10C0
1F80
0700
ENDCHAR
STARTCHAR 00E8
ENCODING 232
SWIDTH 612 0
DWIDTH 17 0
BBX 13 19 2 0
BITMAP
0800
1E00
0F00
03C0
00C0
0000
0F80
3FE0
7070
6030
C018
FFF8
FFF8
C000
C000
6000
7078
3FF0
0FC0
ENDCHAR
STARTCHAR 00E9
ENCODING 233
SWIDTH 612 0
DWIDTH 17 0
BBX 13 19 2 0
BITMAP
00C0
01C0
0780
0E00
1800
0000
0F80
3FE0
7070
6030
C018
FFF8
FFF8
C000
C000
6000
7078
3FF0
0FC0
ENDCHAR
STARTCHAR 00EA
ENCODING 234
SWIDTH 612 0
DWIDTH 17 0
BBX 13 19 2 0
BITMAP
0300
0780
0FC0
18E0
3060
0000
0F80
3FE0
7070
6030
C018
FFF8
FFF8
C000
C000
6000
7078
3FF0
0FC0
ENDCHAR
STARTCHAR 00EB
ENCODING 235
SWIDTH 612 0
DWIDTH 17 0
BBX 13 19 2 0
BITMAP
38E0
38E0
38E0
38E0
0000
0000
0F80
3FE0
7070
6030
C018
FFF8
FFF8
C000
C000
6000
7078
3FF0
0FC0
ENDCHAR
STARTCHAR 00EC
ENCODING 236
SWIDTH 612 0
DWIDTH 17 0
BBX 12 19 3 0
BITMAP
6000
7000
3C00
0F00
0600
0000
FE00
FE00
0600
0600
0600
0600
0600
0600
0600
0600
0600
FFF0
FFF0
ENDCHAR
STARTCHAR 00ED
ENCODING 237
SWIDTH 612 0
DWIDTH 17 0
BBX 12 19 3 0
BITMAP
0300
0780
0E00
3C00
3000
0000
FE00
FE00
0600
0600
0600
0600
0600
0600
0600
0600
0600
FFF0
FFF0
ENDCHAR
STARTCHAR 00EE
ENCODING 238
SWIDTH 612 0
DWIDTH 17 0
BBX 12 19 3 0
BITMAP
0C00
1E00
3F00
7180
60C0
0000
FE00
FE00
0600
0600
0600
0600
0600
0600
0600
0600
0600
FFF0
FFF0
ENDCHAR
STARTCHAR 00EF
ENCODING 239
SWIDTH 612 0
DWIDTH 17 0
BBX 12 19 3 0
BITMAP
7180
71C0
71C0
7180
0000
0000
FE00
FE00
0600
0600
0600
0600
0600
0600
0600
0600
0600
FFF0
FFF0
ENDCHAR
STARTCHAR 00F0
ENCODING 240
SWIDTH 612 0
DWIDTH 17 0
BBX 13 18 2 0
BITMAP
1820
1FF0
07C0
3FC0
38C0
0060
0FF0
3FF0
7070
E038
C038
C018
C018
C038
E030
7070
3FE0
0F80
ENDCHAR
STARTCHAR 00F1
ENCODING 241
SWIDTH 612 0
DWIDTH 17 0
BBX 15 18 1 0
BITMAP
0F30
1FF0
11E0
0000
0000
F1E0
F7F0
3638
3C18
3818
3818
3018
3018
3018
3018
3018
FC7E
FC7E
ENDCHAR
STARTCHAR 00F2
ENCODING 242
SWIDTH 612 0
DWIDTH 17 0
BBX 13 19 2 0
BITMAP
1800
1C00
0F00
0380
0180
0000
0F80
3FE0
70F0
E030
C038
C018
C018
C018
C038
E030
70F0
3FE0
0F80
ENDCHAR
STARTCHAR 00F3
ENCODING 243
SWIDTH 612 0
DWIDTH 17 0
BBX 13 19 2 0
BITMAP
00C0
01C0
0780
0E00
1800
0000
0F80
3FE0
70F0
E030
C038
C018
C018
C018
C038
E030
70F0
3FE0
0F80
ENDCHAR
STARTCHAR 00F4
ENCODING 244
SWIDTH 612 0
DWIDTH 17 0
BBX 13 19 2 0
BITMAP
0600
0F00
1F80
38C0
3060
0000
0F80
3FE0
70F0
E030
C038
C018
C018
C018
C038
E030
70F0
3FE0
0F80
ENDCHAR
STARTCHAR 00F5
ENCODING 245
SWIDTH 612 0
DWIDTH 17 0
BBX 13 18 2 0
BITMAP
1E60
3FE0
23C0
0000
0000
0F80
3FE0
70F0
E030
C038
C018
C018
C018
C038
E030
70F0
3FE0
0F80
ENDCHAR
STARTCHAR 00F6
ENCODING 246
SWIDTH 612 0
DWIDTH 17 0
BBX 13 19 2 0
BITMAP
38C0
38E0
38E0
38C0
0000
0000
0F80
3FE0
70F0
E030
C038
C018
C018
C018
C038
E030
70F0
3FE0
0F80
ENDCHAR
STARTCHAR 00F7
ENCODING 247
SWIDTH 612 0
DWIDTH 17 0
BBX 12 13 2 2
BITMAP
0700
0700
0700
0000
0000
0000
FFF0
FFF0
0000
0000
0700
0700
0700
ENDCHAR
STARTCHAR 00F8
ENCODING 248
SWIDTH 612 0
DWIDTH 17 0
BBX 15 13 1 0
BITMAP
07C6
1FFC
3878
7078
60FC
61CC
638C
670C
6E1C
7C18
3838
7FF0
C7C0
ENDCHAR
STARTCHAR 00F9
ENCODING 249
SWIDTH 612 0
DWIDTH 17 0
BBX 15 19 1 0
BITMAP
0C00
1E00
0780
03C0
00C0
0000
F0F8
F0F8
3018
3018
3018
3018
3018
3038
3038
3078
38F8
1FDE
0F1E
ENDCHAR
STARTCHAR 00FA
ENCODING 250
SWIDTH 612 0
DWIDTH 17 0
BBX 15 19 1 0
BITMAP
0060
00E0
03C0
0700
0600
0000
F0F8
F0F8
3018
3018
3018
3018
3018
3038
3038
3078
38F8
1FDE
0F1E
ENDCHAR
STARTCHAR 00FB
ENCODING 251
SWIDTH 612 0
DWIDTH 17 0
BBX 15 19 1 0
BITMAP
0300
0780
0FC0
1C70
1820
0000
F0F8
F0F8
3018
3018
3018
3018
3018
3038
3038
3078
38F8
1FDE
0F1E
ENDCHAR
STARTCHAR 00FC
ENCODING 252
SWIDTH 612 0
DWIDTH 17 0
BBX 15 19 1 0
BITMAP
1860
1C60
1C60
1860
0000
0000
F0F8
F0F8
3018
3018
3018
3018
3018
3038
3038
3078
38F8
1FDE
0F1E
ENDCHAR
STARTCHAR 00FD
ENCODING 253
SWIDTH 612 0
DWIDTH 17 0
BBX 15 24 1 -5
BITMAP
0060
00F0
03C0
0780
0600
0000
FC7E
FC7E
3018
3038
1830
1870
0C60
0CE0
06C0
07C0
0380
0380
0300
0700
0600
0C00
7C00
7000
ENDCHAR
STARTCHAR 00FE
ENCODING 254
SWIDTH 612 0
DWIDTH 17 0
BBX 15 23 0 -5
BITMAP
7800
7800
1800
1800
1800
19F0
1BF8
1E1C
1C0C
180E
1806
1806
1806
1806
1C0C
1E1C
1FF8
19F0
1800
1800
1800
FF00
7F00
ENDCHAR
STARTCHAR 00FF
ENCODING 255
SWIDTH 612 0
DWIDTH 17 0
BBX 15 24 1 -5
BITMAP
1C60
1C70
1C70
1C60
0000
0000
FC7E
FC7E
3018
3038
1830
1870
0C60
0CE0
06C0
07C0
0380
0380
0300
0700
0600
0C00
7C00
7000
ENDCHAR
STARTCHAR 0152
ENCODING 140
SWIDTH 612 0
DWIDTH 17 0
BBX 15 16 1 0
BITMAP
0FFC
3FFC
718C
618C
E18C
C180
C180
C1F0
C1F0
C180
C184
E186
6186
7186
3FFE
0FFE
ENDCHAR
STARTCHAR 0153
ENCODING 156
SWIDTH 612 0
DWIDTH 17 0
BBX 15 13 1 0
BITMAP
3C78
7EFC
678C
C38C
C386
C3FE
C3FE
C300
C380
C380
678E
7EFC
3C78
ENDCHAR
STARTCHAR 0160
ENCODING 138
SWIDTH 612 0
DWIDTH 17 0
BBX 13 23 2 0
BITMAP
2040
39C0
1F80
0F00
0600
0000
0000
1F30
7FF0
70F0
E070
C030
E000
7800
3FC0
03E0
0070
C030
C038
E030
F070
DFE0
CFC0
ENDCHAR
STARTCHAR 0161
ENCODING 154
SWIDTH 612 0
DWIDTH 17 0
BBX 12 19 2 0
BITMAP
3040
38E0
1F80
0F00
0600
0000
1F30
7FF0
6070
6030
6000
7F00
3FE0
00F0
C030
E030
F070
FFE0
CFC0
ENDCHAR
STARTCHAR 0178
ENCODING 159
SWIDTH 612 0
DWIDTH 17 0
BBX 15 23 1 0
BITMAP
1C60
1C70
1C70
1C60
0000
0000
0000
FC7E
FC7E
3018
1830
1C70
0C60
06C0
07C0
0380
0300
0300
0300
0300
0300
3FF0
3FF0
ENDCHAR
STARTCHAR 017D
ENCODING 142
SWIDTH 612 0
DWIDTH 17 0
BBX 12 23 2 0
BITMAP
3060
38E0
1DC0
0F80
0700
0000
0000
7FF0
7FF0
6060
60E0
60C0
6180
0380
0700
0600
0C00
1C30
1830
3030
7030
FFF0
FFF0
ENDCHAR
STARTCHAR 017E
ENCODING 158
SWIDTH 612 0
DWIDTH 17 0
BBX 12 19 2 0
BITMAP
3060
38E0
1DC0
0F80
0300
0000
7FF0
7FF0
60E0
60C0
6180
0380
0700
0E00
1C30
3830
7030
7FF0
FFF0
ENDCHAR
STARTCHAR 0192
ENCODING 131
SWIDTH 612 0
DWIDTH 17 0
BBX 16 22 0 -4
BITMAP
003E
007F
00E0
00C0
00C0
00C0
0FFC
0FFC
0180
0180
0180
0180
0180
0180
0180
0180
0180
0300
0300
0700
FE00
7C00
ENDCHAR
STARTCHAR 02C6
ENCODING 136
SWIDTH 612 0
DWIDTH 17 0
BBX 9 5 4 14
BITMAP
1800
3C00
7E00
E300
C180
ENDCHAR
STARTCHAR 02DC
ENCODING 152
SWIDTH 612 0
DWIDTH 17 0
BBX 9 3 4 15
BITMAP
7980
FF80
8F00
ENDCHAR
STARTCHAR 2013
ENCODING 150
SWIDTH 612 0
DWIDTH 17 0
BBX 12 2 2 7
BITMAP
FFF0
FFF0
ENDCHAR
STARTCHAR 2014
ENCODING 151
SWIDTH 612 0
DWIDTH 17 0
BBX 17 2 0 7
BITMAP
FFFF80
FFFF80
ENDCHAR
STARTCHAR 2018
ENCODING 145
SWIDTH 612 0
DWIDTH 17 0
BBX 5 7 6 11
BITMAP
18
38
30
70
70
F0
E0
ENDCHAR
STARTCHAR 2019
ENCODING 146
SWIDTH 612 0
DWIDTH 17 0
BBX 5 8 6 10
BITMAP
38
78
70
70
60
E0
C0
C0
ENDCHAR
STARTCHAR 201A
ENCODING 130
SWIDTH 612 0
DWIDTH 17 0
BBX 5 8 6 -3
BITMAP
38
78
70
70
60
E0
C0
C0
ENDCHAR
STARTCHAR 201C
ENCODING 147
SWIDTH 612 0
DWIDTH 17 0
BBX 12 7 2 11
BITMAP
0830
1830
1870
3870
38E0
70E0
F1E0
ENDCHAR
STARTCHAR 201D
ENCODING 148
SWIDTH 612 0
DWIDTH 17 0
BBX 11 8 3 10
BITMAP
30E0
78E0
71E0
E1C0
E1C0
C180
C380
8300
ENDCHAR
STARTCHAR 201E
ENCODING 132
SWIDTH 612 0
DWIDTH 17 0
BBX 11 8 3 -3
BITMAP
30E0
78E0
71E0
E1C0
E1C0
C180
C380
8300
ENDCHAR
STARTCHAR 2020
ENCODING 134
SWIDTH 612 0
DWIDTH 17 0
BBX 9 13 4 3
BITMAP
1800
1800
1800
FF80
FF80
1800
1800
1800
1800
1800
1800
1800
0800
ENDCHAR
STARTCHAR 2021
ENCODING 135
SWIDTH 612 0
DWIDTH 17 0
BBX 9 14 4 2
BITMAP
0800
1800
1800
1800
FF80
FF80
1800
1800
1800
FF80
FF80
1800
1800
0800
ENDCHAR
STARTCHAR 2022
ENCODING 149
SWIDTH 612 0
DWIDTH 17 0
BBX 7 7 5 5
BITMAP
7C
FE
FE
FE
FE
FE
7C
ENDCHAR
STARTCHAR 2026
ENCODING 133
SWIDTH 612 0
DWIDTH 17 0
BBX 14 3 1 0
BITMAP
639C
E39C
639C
ENDCHAR
STARTCHAR 2030
ENCODING 137
SWIDTH 612 0
DWIDTH 17 0
BBX 21 16 1 0
BITMAP
780000
FC0000
C60C00
861C00
C63800
FE7000
78E000
018000
0739E0
0EFFF0
1CC738
388618
708618
C0C738
00FFF0
0039E0
ENDCHAR
STARTCHAR 2039
ENCODING 139
SWIDTH 612 0
DWIDTH 17 0
BBX 6 11 5 2
BITMAP
0C
0C
18
38
70
E0
70
38
18
0C
0C
ENDCHAR
STARTCHAR 203A
ENCODING 155
SWIDTH 612 0
DWIDTH 17 0
BBX 6 11 5 2
BITMAP
40
E0
70
38
1C
0C
1C
38
70
E0
40
ENDCHAR
STARTCHAR 20AC
ENCODING 128
SWIDTH 612 0
DWIDTH 17 0
BBX 14 16 1 0
BITMAP
07CC
0FFC
1C3C
381C
FF8C
FF8C
3000
3000
3000
FF80
FF80
3800
1804
1C1C
0FFC
03E0
ENDCHAR
STARTCHAR 2122
ENCODING 153
SWIDTH 612 0
DWIDTH 17 0
BBX 16 8 1 10
BITMAP
FE43
FEE3
30E7
30F7
30FD
30DD
30D9
30C1
ENDCHAR
ENDFONT
