STARTFONT 2.1
COMMENT
COMMENT Converted from OpenType font "UbuntuMono-Bold.ttf" by "otf2bdf 3.0".
COMMENT
FONT -FreeType-ubuntu mono-Bold-R-Normal--19-140-100-100-P-77-Windows-cp1252
SIZE 14 100 100
FONTBOUNDINGBOX 10 19 0 -3
STARTPROPERTIES 19
FOUNDRY "FreeType"
FAMILY_NAME "ubuntu mono"
WEIGHT_NAME "Bold"
SLANT "R"
SETWIDTH_NAME "Normal"
ADD_STYLE_NAME ""
PIXEL_SIZE 19
POINT_SIZE 140
RESOLUTION_X 100
RESOLUTION_Y 100
SPACING "P"
AVERAGE_WIDTH 77
CHARSET_REGISTRY "Windows"
CHARSET_ENCODING "cp1252"
FONT_ASCENT 15
FONT_DESCENT 3
COPYRIGHT "Copyright 2011 Canonical Ltd.  Licensed under the Ubuntu Font Licence 1.0"
_OTF_FONTFILE "UbuntuMono-Bold.ttf"
_OTF_PSNAME "UbuntuMono-Bold"
ENDPROPERTIES
CHARS 223
STARTCHAR 0000
ENCODING 157
SWIDTH 514 0
DWIDTH 10 0
BBX 0 0 0 0
BITMAP
ENDCHAR
STARTCHAR 0008
ENCODING 8
SWIDTH 514 0
DWIDTH 10 0
BBX 0 0 0 0
BITMAP
ENDCHAR
STARTCHAR 0009
ENCODING 9
SWIDTH 514 0
DWIDTH 10 0
BBX 0 0 0 0
BITMAP
ENDCHAR
STARTCHAR 000D
ENCODING 13
SWIDTH 514 0
DWIDTH 10 0
BBX 0 0 0 0
BITMAP
ENDCHAR
STARTCHAR 001D
ENCODING 29
SWIDTH 514 0
DWIDTH 10 0
BBX 0 0 0 0
BITMAP
ENDCHAR
STARTCHAR 0020
ENCODING 32
SWIDTH 514 0
DWIDTH 10 0
BBX 0 0 0 0
BITMAP
ENDCHAR
STARTCHAR 0021
ENCODING 33
SWIDTH 514 0
DWIDTH 10 0
BBX 3 12 3 0
BITMAP
E0
E0
E0
E0
E0
E0
60
60
60
00
E0
E0
ENDCHAR
STARTCHAR 0022
ENCODING 34
SWIDTH 514 0
DWIDTH 10 0
BBX 6 5 2 8
BITMAP
DC
DC
CC
CC
C8
ENDCHAR
STARTCHAR 0023
ENCODING 35
SWIDTH 514 0
DWIDTH 10 0
BBX 9 12 0 0
BITMAP
1900
1B00
1B00
FF80
FF80
3300
3600
FF80
FF80
6600
6600
6C00
ENDCHAR
STARTCHAR 0024
ENCODING 36
SWIDTH 514 0
DWIDTH 10 0
BBX 8 15 1 -2
BITMAP
18
18
7E
FE
E0
E0
F8
7E
0F
07
87
FE
FC
18
18
ENDCHAR
STARTCHAR 0025
ENCODING 37
SWIDTH 514 0
DWIDTH 10 0
BBX 9 12 0 0
BITMAP
7180
F180
F300
D200
F600
7C00
0B80
1F80
3680
2780
6780
C380
ENDCHAR
STARTCHAR 0026
ENCODING 38
SWIDTH 514 0
DWIDTH 10 0
BBX 9 12 0 0
BITMAP
3C00
3E00
6600
6600
3C00
3980
7D80
6D00
C700
6700
7F80
3D80
ENDCHAR
STARTCHAR 0027
ENCODING 39
SWIDTH 514 0
DWIDTH 10 0
BBX 2 6 4 7
BITMAP
C0
C0
C0
C0
C0
C0
ENDCHAR
STARTCHAR 0028
ENCODING 40
SWIDTH 514 0
DWIDTH 10 0
BBX 6 16 2 -3
BITMAP
08
18
30
60
E0
C0
C0
C0
C0
C0
C0
E0
60
30
1C
08
ENDCHAR
STARTCHAR 0029
ENCODING 41
SWIDTH 514 0
DWIDTH 10 0
BBX 6 16 2 -3
BITMAP
C0
E0
30
38
18
18
1C
0C
0C
1C
18
18
38
70
E0
C0
ENDCHAR
STARTCHAR 002A
ENCODING 42
SWIDTH 514 0
DWIDTH 10 0
BBX 8 7 1 5
BITMAP
18
18
D6
FF
38
6E
24
ENDCHAR
STARTCHAR 002B
ENCODING 43
SWIDTH 514 0
DWIDTH 10 0
BBX 8 8 1 1
BITMAP
18
18
18
FF
FF
18
18
18
ENDCHAR
STARTCHAR 002C
ENCODING 44
SWIDTH 514 0
DWIDTH 10 0
BBX 5 6 2 -3
BITMAP
30
78
38
30
F0
40
ENDCHAR
STARTCHAR 002D
ENCODING 45
SWIDTH 514 0
DWIDTH 10 0
BBX 5 2 2 4
BITMAP
F8
F8
ENDCHAR
STARTCHAR 002E
ENCODING 46
SWIDTH 514 0
DWIDTH 10 0
BBX 3 3 3 0
BITMAP
E0
E0
E0
ENDCHAR
STARTCHAR 002F
ENCODING 47
SWIDTH 514 0
DWIDTH 10 0
BBX 7 16 1 -3
BITMAP
06
06
0E
0C
0C
1C
18
18
38
30
30
70
60
60
E0
C0
ENDCHAR
STARTCHAR 0030
ENCODING 48
SWIDTH 514 0
DWIDTH 10 0
BBX 8 12 1 0
BITMAP
3C
7E
E6
C7
C3
DB
DB
C3
C7
E6
7E
3C
ENDCHAR
STARTCHAR 0031
ENCODING 49
SWIDTH 514 0
DWIDTH 10 0
BBX 8 12 1 0
BITMAP
18
38
F8
F8
18
18
18
18
18
18
7F
7F
ENDCHAR
STARTCHAR 0032
ENCODING 50
SWIDTH 514 0
DWIDTH 10 0
BBX 8 12 1 0
BITMAP
7C
FE
C6
06
06
0C
1C
38
70
E0
FF
FF
ENDCHAR
STARTCHAR 0033
ENCODING 51
SWIDTH 514 0
DWIDTH 10 0
BBX 8 12 1 0
BITMAP
78
FE
0E
06
0E
3C
3E
06
07
86
FE
FC
ENDCHAR
STARTCHAR 0034
ENCODING 52
SWIDTH 514 0
DWIDTH 10 0
BBX 8 12 1 0
BITMAP
0E
1E
1E
3E
6E
EE
CE
FF
FF
0E
0E
0E
ENDCHAR
STARTCHAR 0035
ENCODING 53
SWIDTH 514 0
DWIDTH 10 0
BBX 7 12 1 0
BITMAP
7E
7E
60
60
78
7E
0E
06
06
06
FE
F8
ENDCHAR
STARTCHAR 0036
ENCODING 54
SWIDTH 514 0
DWIDTH 10 0
BBX 8 12 1 0
BITMAP
0E
3E
70
60
F8
FE
C6
C7
C7
E6
7E
3C
ENDCHAR
STARTCHAR 0037
ENCODING 55
SWIDTH 514 0
DWIDTH 10 0
BBX 8 12 1 0
BITMAP
FF
FF
06
0E
0C
1C
18
38
38
30
30
30
ENDCHAR
STARTCHAR 0038
ENCODING 56
SWIDTH 514 0
DWIDTH 10 0
BBX 8 12 1 0
BITMAP
3C
7E
E6
C6
E6
7E
7C
CE
C3
C7
FE
7C
ENDCHAR
STARTCHAR 0039
ENCODING 57
SWIDTH 514 0
DWIDTH 10 0
BBX 8 12 1 0
BITMAP
3C
7E
E6
C7
C7
E7
7F
3E
0E
1C
78
70
ENDCHAR
STARTCHAR 003A
ENCODING 58
SWIDTH 514 0
DWIDTH 10 0
BBX 3 9 3 0
BITMAP
E0
E0
E0
00
00
00
E0
E0
E0
ENDCHAR
STARTCHAR 003B
ENCODING 59
SWIDTH 514 0
DWIDTH 10 0
BBX 4 12 2 -3
BITMAP
70
70
70
00
00
00
70
70
70
30
F0
C0
ENDCHAR
STARTCHAR 003C
ENCODING 60
SWIDTH 514 0
DWIDTH 10 0
BBX 8 8 1 1
BITMAP
02
1F
7C
F0
F0
7C
1F
02
ENDCHAR
STARTCHAR 003D
ENCODING 61
SWIDTH 514 0
DWIDTH 10 0
BBX 8 6 1 2
BITMAP
FF
FF
00
00
FF
FF
ENDCHAR
STARTCHAR 003E
ENCODING 62
SWIDTH 514 0
DWIDTH 10 0
BBX 8 8 1 1
BITMAP
C0
F0
7E
0F
0F
7E
F0
C0
ENDCHAR
STARTCHAR 003F
ENCODING 63
SWIDTH 514 0
DWIDTH 10 0
BBX 6 12 2 0
BITMAP
F8
FC
0C
0C
1C
3C
38
70
60
00
70
70
ENDCHAR
STARTCHAR 0040
ENCODING 64
SWIDTH 514 0
DWIDTH 10 0
BBX 9 15 0 -3
BITMAP
1E00
3F00
7380
6180
4F80
CF80
D980
D980
D980
D980
4F80
6780
7000
3F00
0F80
ENDCHAR
STARTCHAR 0041
ENCODING 65
SWIDTH 514 0
DWIDTH 10 0
BBX 9 12 0 0
BITMAP
1C00
1E00
1E00
3600
3600
3300
3300
7F00
7F00
6380
6180
E180
ENDCHAR
STARTCHAR 0042
ENCODING 66
SWIDTH 514 0
DWIDTH 10 0
BBX 8 12 1 0
BITMAP
FC
FE
C6
C6
C6
FC
FE
C7
C3
C7
FE
FC
ENDCHAR
STARTCHAR 0043
ENCODING 67
SWIDTH 514 0
DWIDTH 10 0
BBX 8 12 1 0
BITMAP
3E
7F
E1
C0
C0
C0
C0
C0
C0
E1
7F
3E
ENDCHAR
STARTCHAR 0044
ENCODING 68
SWIDTH 514 0
DWIDTH 10 0
BBX 8 12 1 0
BITMAP
F8
FE
C6
C7
C7
C3
C3
C7
C7
CE
FE
F8
ENDCHAR
STARTCHAR 0045
ENCODING 69
SWIDTH 514 0
DWIDTH 10 0
BBX 8 12 1 0
BITMAP
FE
FE
E0
E0
E0
FE
FE
E0
E0
E0
FF
FF
ENDCHAR
STARTCHAR 0046
ENCODING 70
SWIDTH 514 0
DWIDTH 10 0
BBX 7 12 1 0
BITMAP
FE
FE
E0
E0
E0
FE
FE
E0
E0
E0
E0
E0
ENDCHAR
STARTCHAR 0047
ENCODING 71
SWIDTH 514 0
DWIDTH 10 0
BBX 8 12 1 0
BITMAP
3F
7F
E2
C0
C0
C0
C7
C7
C7
E7
7F
3F
ENDCHAR
STARTCHAR 0048
ENCODING 72
SWIDTH 514 0
DWIDTH 10 0
BBX 8 12 1 0
BITMAP
C7
C7
C7
C7
C7
FF
FF
C7
C7
C7
C7
C7
ENDCHAR
STARTCHAR 0049
ENCODING 73
SWIDTH 514 0
DWIDTH 10 0
BBX 8 12 1 0
BITMAP
FF
FF
18
18
18
18
18
18
18
18
FF
FF
ENDCHAR
STARTCHAR 004A
ENCODING 74
SWIDTH 514 0
DWIDTH 10 0
BBX 7 12 1 0
BITMAP
7E
7E
06
06
06
06
06
06
06
8E
FE
78
ENDCHAR
STARTCHAR 004B
ENCODING 75
SWIDTH 514 0
DWIDTH 10 0
BBX 8 12 1 0
BITMAP
C7
CE
CC
DC
D8
F0
F8
DC
CE
CE
C7
C7
ENDCHAR
STARTCHAR 004C
ENCODING 76
SWIDTH 514 0
DWIDTH 10 0
BBX 8 12 1 0
BITMAP
E0
E0
E0
E0
E0
E0
E0
E0
E0
E0
FF
FF
ENDCHAR
STARTCHAR 004D
ENCODING 77
SWIDTH 514 0
DWIDTH 10 0
BBX 9 12 0 0
BITMAP
6300
7300
7380
5780
7780
7D80
7D80
6D80
6180
6180
E180
E180
ENDCHAR
STARTCHAR 004E
ENCODING 78
SWIDTH 514 0
DWIDTH 10 0
BBX 8 12 1 0
BITMAP
C3
E3
E3
F3
F3
DB
DB
CF
CF
C7
C7
C3
ENDCHAR
STARTCHAR 004F
ENCODING 79
SWIDTH 514 0
DWIDTH 10 0
BBX 8 12 1 0
BITMAP
3C
7E
E6
C7
C3
C3
C3
C3
C7
E6
7E
3C
ENDCHAR
STARTCHAR 0050
ENCODING 80
SWIDTH 514 0
DWIDTH 10 0
BBX 8 12 1 0
BITMAP
FC
FE
C7
C3
C3
C7
FE
FC
C0
C0
C0
C0
ENDCHAR
STARTCHAR 0051
ENCODING 81
SWIDTH 514 0
DWIDTH 10 0
BBX 8 15 1 -3
BITMAP
3C
7E
E6
C7
C3
C3
C3
C3
C7
E6
7E
3C
18
1F
07
ENDCHAR
STARTCHAR 0052
ENCODING 82
SWIDTH 514 0
DWIDTH 10 0
BBX 8 12 1 0
BITMAP
FC
FE
C6
C6
C7
C6
FE
FC
CC
C6
C7
C3
ENDCHAR
STARTCHAR 0053
ENCODING 83
SWIDTH 514 0
DWIDTH 10 0
BBX 8 12 1 0
BITMAP
3C
FE
E2
C0
E0
7C
3E
07
07
87
FE
7C
ENDCHAR
STARTCHAR 0054
ENCODING 84
SWIDTH 514 0
DWIDTH 10 0
BBX 9 12 0 0
BITMAP
FF80
FF80
0C00
0C00
0C00
0C00
0C00
0C00
0C00
0C00
0C00
0C00
ENDCHAR
STARTCHAR 0055
ENCODING 85
SWIDTH 514 0
DWIDTH 10 0
BBX 8 12 1 0
BITMAP
C7
C7
C7
C7
C7
C7
C7
C7
C7
C7
FE
7C
ENDCHAR
STARTCHAR 0056
ENCODING 86
SWIDTH 514 0
DWIDTH 10 0
BBX 9 12 0 0
BITMAP
E180
6180
6380
6300
7300
3300
3300
3600
3600
1E00
1C00
1C00
ENDCHAR
STARTCHAR 0057
ENCODING 87
SWIDTH 514 0
DWIDTH 10 0
BBX 9 12 0 0
BITMAP
E180
E180
6180
6180
6D80
6D80
7D80
5F80
5780
7380
7380
6300
ENDCHAR
STARTCHAR 0058
ENCODING 88
SWIDTH 514 0
DWIDTH 10 0
BBX 9 12 0 0
BITMAP
6380
7300
3700
3E00
1E00
1C00
1E00
3E00
3700
7300
6380
E180
ENDCHAR
STARTCHAR 0059
ENCODING 89
SWIDTH 514 0
DWIDTH 10 0
BBX 9 12 0 0
BITMAP
E180
6380
7300
3300
3600
1E00
1C00
0C00
0C00
0C00
0C00
0C00
ENDCHAR
STARTCHAR 005A
ENCODING 90
SWIDTH 514 0
DWIDTH 10 0
BBX 8 12 1 0
BITMAP
FE
FE
0E
0C
1C
18
38
70
60
E0
FF
FF
ENDCHAR
STARTCHAR 005B
ENCODING 91
SWIDTH 514 0
DWIDTH 10 0
BBX 5 16 2 -3
BITMAP
F8
F8
C0
C0
C0
C0
C0
C0
C0
C0
C0
C0
C0
C0
F8
F8
ENDCHAR
STARTCHAR 005C
ENCODING 92
SWIDTH 514 0
DWIDTH 10 0
BBX 7 16 1 -3
BITMAP
C0
E0
60
60
70
30
30
38
18
18
1C
0C
0C
0E
06
06
ENDCHAR
STARTCHAR 005D
ENCODING 93
SWIDTH 514 0
DWIDTH 10 0
BBX 5 16 2 -3
BITMAP
F8
F8
18
18
18
18
18
18
18
18
18
18
18
18
F8
F8
ENDCHAR
STARTCHAR 005E
ENCODING 94
SWIDTH 514 0
DWIDTH 10 0
BBX 8 6 1 6
BITMAP
38
3C
7E
E6
C7
C2
ENDCHAR
STARTCHAR 005F
ENCODING 95
SWIDTH 514 0
DWIDTH 10 0
BBX 9 2 0 -3
BITMAP
FF80
FF80
ENDCHAR
STARTCHAR 0060
ENCODING 96
SWIDTH 514 0
DWIDTH 10 0
BBX 4 3 3 10
BITMAP
40
E0
30
ENDCHAR
STARTCHAR 0061
ENCODING 97
SWIDTH 514 0
DWIDTH 10 0
BBX 7 9 1 0
BITMAP
7C
7E
06
7E
FE
C6
C6
FE
7E
ENDCHAR
STARTCHAR 0062
ENCODING 98
SWIDTH 514 0
DWIDTH 10 0
BBX 8 13 1 0
BITMAP
E0
E0
E0
E0
FC
FE
E7
E7
E3
E7
E7
FE
FC
ENDCHAR
STARTCHAR 0063
ENCODING 99
SWIDTH 514 0
DWIDTH 10 0
BBX 8 9 1 0
BITMAP
3F
7E
E0
C0
C0
C0
E0
7F
3F
ENDCHAR
STARTCHAR 0064
ENCODING 100
SWIDTH 514 0
DWIDTH 10 0
BBX 7 13 1 0
BITMAP
06
06
06
06
7E
FE
C6
C6
C6
C6
E6
FE
7E
ENDCHAR
STARTCHAR 0065
ENCODING 101
SWIDTH 514 0
DWIDTH 10 0
BBX 8 9 1 0
BITMAP
3C
7E
E6
C3
FF
FF
C0
7E
3E
ENDCHAR
STARTCHAR 0066
ENCODING 102
SWIDTH 514 0
DWIDTH 10 0
BBX 8 13 1 0
BITMAP
1F
3F
30
30
FF
FF
30
30
30
30
30
30
30
ENDCHAR
STARTCHAR 0067
ENCODING 103
SWIDTH 514 0
DWIDTH 10 0
BBX 7 12 1 -3
BITMAP
3E
FE
E6
C6
C6
C6
FE
7E
06
8E
FE
FC
ENDCHAR
STARTCHAR 0068
ENCODING 104
SWIDTH 514 0
DWIDTH 10 0
BBX 7 13 1 0
BITMAP
E0
E0
E0
E0
FC
FE
E6
E6
E6
E6
E6
E6
E6
ENDCHAR
STARTCHAR 0069
ENCODING 105
SWIDTH 514 0
DWIDTH 10 0
BBX 8 13 1 0
BITMAP
30
30
00
F0
F0
30
30
30
30
30
38
1F
1F
ENDCHAR
STARTCHAR 006A
ENCODING 106
SWIDTH 514 0
DWIDTH 10 0
BBX 7 16 1 -3
BITMAP
0C
0C
00
7E
7E
0E
0E
0E
0E
0E
0E
0E
0E
8C
FC
78
ENDCHAR
STARTCHAR 006B
ENCODING 107
SWIDTH 514 0
DWIDTH 10 0
BBX 8 13 1 0
BITMAP
E0
E0
E0
E0
E7
EE
FC
F8
F8
FC
EE
E6
E7
ENDCHAR
STARTCHAR 006C
ENCODING 108
SWIDTH 514 0
DWIDTH 10 0
BBX 8 13 1 0
BITMAP
F0
F0
30
30
30
30
30
30
30
30
38
1F
1F
ENDCHAR
STARTCHAR 006D
ENCODING 109
SWIDTH 514 0
DWIDTH 10 0
BBX 8 9 1 0
BITMAP
FE
FF
9B
9B
9B
9B
83
83
83
ENDCHAR
STARTCHAR 006E
ENCODING 110
SWIDTH 514 0
DWIDTH 10 0
BBX 7 9 1 0
BITMAP
FC
FE
E6
E6
E6
E6
E6
E6
E6
ENDCHAR
STARTCHAR 006F
ENCODING 111
SWIDTH 514 0
DWIDTH 10 0
BBX 8 9 1 0
BITMAP
3C
FE
E7
C7
C3
C7
C7
7E
3C
ENDCHAR
STARTCHAR 0070
ENCODING 112
SWIDTH 514 0
DWIDTH 10 0
BBX 8 12 1 -3
BITMAP
FC
FE
E7
E7
E3
E7
E7
FE
FC
E0
E0
E0
ENDCHAR
STARTCHAR 0071
ENCODING 113
SWIDTH 514 0
DWIDTH 10 0
BBX 7 12 1 -3
BITMAP
3E
FE
E6
C6
C6
C6
C6
FE
7E
06
06
06
ENDCHAR
STARTCHAR 0072
ENCODING 114
SWIDTH 514 0
DWIDTH 10 0
BBX 7 9 2 0
BITMAP
FE
FC
C0
C0
C0
C0
C0
C0
C0
ENDCHAR
STARTCHAR 0073
ENCODING 115
SWIDTH 514 0
DWIDTH 10 0
BBX 7 9 1 0
BITMAP
3E
7E
E0
F0
7C
0E
86
FE
7C
ENDCHAR
STARTCHAR 0074
ENCODING 116
SWIDTH 514 0
DWIDTH 10 0
BBX 8 12 1 0
BITMAP
30
30
30
FF
FF
30
30
30
30
30
3F
1F
ENDCHAR
STARTCHAR 0075
ENCODING 117
SWIDTH 514 0
DWIDTH 10 0
BBX 7 9 1 0
BITMAP
C6
C6
C6
C6
C6
E6
E6
7E
3E
ENDCHAR
STARTCHAR 0076
ENCODING 118
SWIDTH 514 0
DWIDTH 10 0
BBX 9 9 0 0
BITMAP
E180
6380
6300
7300
3700
3600
1E00
1C00
1C00
ENDCHAR
STARTCHAR 0077
ENCODING 119
SWIDTH 514 0
DWIDTH 10 0
BBX 9 9 0 0
BITMAP
C180
C180
CD80
4D80
5D80
7F80
7700
7300
7300
ENDCHAR
STARTCHAR 0078
ENCODING 120
SWIDTH 514 0
DWIDTH 10 0
BBX 8 9 1 0
BITMAP
C7
E6
7C
3C
38
3C
6E
E6
C7
ENDCHAR
STARTCHAR 0079
ENCODING 121
SWIDTH 514 0
DWIDTH 10 0
BBX 9 12 0 -3
BITMAP
6380
7380
7300
3300
3300
1E00
1E00
1E00
0C00
1C00
7800
F000
ENDCHAR
STARTCHAR 007A
ENCODING 122
SWIDTH 514 0
DWIDTH 10 0
BBX 7 9 1 0
BITMAP
FE
FE
0E
1C
38
30
60
FE
FE
ENDCHAR
STARTCHAR 007B
ENCODING 123
SWIDTH 514 0
DWIDTH 10 0
BBX 7 16 1 -3
BITMAP
1E
1E
38
30
30
30
30
F0
F0
30
30
30
30
38
1E
1E
ENDCHAR
STARTCHAR 007C
ENCODING 124
SWIDTH 514 0
DWIDTH 10 0
BBX 2 16 4 -3
BITMAP
C0
C0
C0
C0
C0
C0
C0
C0
C0
C0
C0
C0
C0
C0
C0
C0
ENDCHAR
STARTCHAR 007D
ENCODING 125
SWIDTH 514 0
DWIDTH 10 0
BBX 7 16 1 -3
BITMAP
F0
F8
18
18
18
18
18
0E
0E
18
18
18
18
18
F8
F0
ENDCHAR
STARTCHAR 007E
ENCODING 126
SWIDTH 514 0
DWIDTH 10 0
BBX 9 3 0 4
BITMAP
3980
7F80
C700
ENDCHAR
STARTCHAR 00A0
ENCODING 160
SWIDTH 514 0
DWIDTH 10 0
BBX 0 0 0 0
BITMAP
ENDCHAR
STARTCHAR 00A1
ENCODING 161
SWIDTH 514 0
DWIDTH 10 0
BBX 3 12 3 -3
BITMAP
E0
E0
00
60
60
60
E0
E0
E0
E0
E0
E0
ENDCHAR
STARTCHAR 00A2
ENCODING 162
SWIDTH 514 0
DWIDTH 10 0
BBX 8 13 1 -1
BITMAP
1C
1C
3E
7E
E0
C0
C0
C0
E0
7E
3F
1C
1C
ENDCHAR
STARTCHAR 00A3
ENCODING 163
SWIDTH 514 0
DWIDTH 10 0
BBX 8 12 1 0
BITMAP
1E
3E
72
60
60
FC
FC
60
60
60
7F
7F
ENDCHAR
STARTCHAR 00A4
ENCODING 164
SWIDTH 514 0
DWIDTH 10 0
BBX 9 8 0 2
BITMAP
4100
FF80
3F00
7300
7300
3F00
FF80
4100
ENDCHAR
STARTCHAR 00A5
ENCODING 165
SWIDTH 514 0
DWIDTH 10 0
BBX 9 12 0 0
BITMAP
E180
6380
7300
3300
1E00
7F80
7F80
0C00
7F80
7F80
0C00
0C00
ENDCHAR
STARTCHAR 00A6
ENCODING 166
SWIDTH 514 0
DWIDTH 10 0
BBX 2 16 4 -3
BITMAP
C0
C0
C0
C0
C0
C0
C0
00
00
C0
C0
C0
C0
C0
C0
C0
ENDCHAR
STARTCHAR 00A7
ENCODING 167
SWIDTH 514 0
DWIDTH 10 0
BBX 7 14 1 -2
BITMAP
3E
7E
62
60
7C
CE
C6
C6
76
3C
0E
86
FE
7C
ENDCHAR
STARTCHAR 00A8
ENCODING 168
SWIDTH 514 0
DWIDTH 10 0
BBX 6 3 2 10
BITMAP
CC
DC
CC
ENDCHAR
STARTCHAR 00A9
ENCODING 169
SWIDTH 514 0
DWIDTH 10 0
BBX 9 9 0 0
BITMAP
1E00
6300
4D80
5080
D080
5080
5D80
6300
1E00
ENDCHAR
STARTCHAR 00AA
ENCODING 170
SWIDTH 514 0
DWIDTH 10 0
BBX 6 7 2 5
BITMAP
78
7C
0C
FC
CC
FC
7C
ENDCHAR
STARTCHAR 00AB
ENCODING 171
SWIDTH 514 0
DWIDTH 10 0
BBX 7 8 1 1
BITMAP
22
26
66
CC
CC
66
26
22
ENDCHAR
STARTCHAR 00AC
ENCODING 172
SWIDTH 514 0
DWIDTH 10 0
BBX 8 6 1 1
BITMAP
FF
FF
03
03
03
03
ENDCHAR
STARTCHAR 00AD
ENCODING 173
SWIDTH 514 0
DWIDTH 10 0
BBX 5 2 2 4
BITMAP
F8
F8
ENDCHAR
STARTCHAR 00AE
ENCODING 174
SWIDTH 514 0
DWIDTH 10 0
BBX 9 9 0 0
BITMAP
1E00
6300
5D80
5280
DC80
5480
5780
6300
1E00
ENDCHAR
STARTCHAR 00AF
ENCODING 175
SWIDTH 514 0
DWIDTH 10 0
BBX 6 2 2 10
BITMAP
FC
FC
ENDCHAR
STARTCHAR 00B0
ENCODING 176
SWIDTH 514 0
DWIDTH 10 0
BBX 6 6 2 7
BITMAP
70
F8
CC
CC
F8
70
ENDCHAR
STARTCHAR 00B1
ENCODING 177
SWIDTH 514 0
DWIDTH 10 0
BBX 8 11 1 0
BITMAP
18
18
18
FF
FF
18
18
18
00
FF
FF
ENDCHAR
STARTCHAR 00B2
ENCODING 178
SWIDTH 514 0
DWIDTH 10 0
BBX 5 7 2 5
BITMAP
78
F8
58
38
60
78
F8
ENDCHAR
STARTCHAR 00B3
ENCODING 179
SWIDTH 514 0
DWIDTH 10 0
BBX 5 7 2 5
BITMAP
70
F8
58
38
B8
F8
F0
ENDCHAR
STARTCHAR 00B4
ENCODING 180
SWIDTH 514 0
DWIDTH 10 0
BBX 4 3 3 10
BITMAP
20
F0
C0
ENDCHAR
STARTCHAR 00B5
ENCODING 181
SWIDTH 514 0
DWIDTH 10 0
BBX 7 12 1 -3
BITMAP
C6
C6
C6
C6
C6
C6
E6
FE
FE
C0
C0
C0
ENDCHAR
STARTCHAR 00B6
ENCODING 182
SWIDTH 514 0
DWIDTH 10 0
BBX 9 15 0 -3
BITMAP
3F80
7F80
7980
F980
F980
7980
3980
1980
1980
1980
1980
1980
1980
1980
1980
ENDCHAR
STARTCHAR 00B7
ENCODING 183
SWIDTH 514 0
DWIDTH 10 0
BBX 3 3 3 4
BITMAP
E0
E0
E0
ENDCHAR
STARTCHAR 00B8
ENCODING 184
SWIDTH 514 0
DWIDTH 10 0
BBX 4 3 3 -3
BITMAP
60
30
E0
ENDCHAR
STARTCHAR 00B9
ENCODING 185
SWIDTH 514 0
DWIDTH 10 0
BBX 5 7 3 5
BITMAP
60
E0
A0
20
20
F8
F8
ENDCHAR
STARTCHAR 00BA
ENCODING 186
SWIDTH 514 0
DWIDTH 10 0
BBX 7 7 1 5
BITMAP
3C
7E
66
C6
66
7E
3C
ENDCHAR
STARTCHAR 00BB
ENCODING 187
SWIDTH 514 0
DWIDTH 10 0
BBX 7 8 1 1
BITMAP
88
CC
66
66
66
66
CC
C8
ENDCHAR
STARTCHAR 00BC
ENCODING 188
SWIDTH 514 0
DWIDTH 10 0
BBX 9 12 0 0
BITMAP
6300
E300
A600
2600
2C00
0C00
1800
1B80
3380
3580
6780
6180
ENDCHAR
STARTCHAR 00BD
ENCODING 189
SWIDTH 514 0
DWIDTH 10 0
BBX 9 12 0 0
BITMAP
6300
E300
2600
2600
2C00
0C00
1800
1B80
3280
3180
6300
6780
ENDCHAR
STARTCHAR 00BE
ENCODING 190
SWIDTH 514 0
DWIDTH 10 0
BBX 9 12 0 0
BITMAP
F180
1300
7300
1600
F600
0C00
0C00
1B80
1B80
3580
3780
6180
ENDCHAR
STARTCHAR 00BF
ENCODING 191
SWIDTH 514 0
DWIDTH 10 0
BBX 7 12 1 -3
BITMAP
1C
1C
00
18
18
38
70
E0
E0
E2
7E
3C
ENDCHAR
STARTCHAR 00C0
ENCODING 192
SWIDTH 514 0
DWIDTH 10 0
BBX 9 16 0 0
BITMAP
1800
1C00
0400
0000
1C00
1E00
1E00
3600
3600
3300
3300
7F00
7F00
6380
6180
E180
ENDCHAR
STARTCHAR 00C1
ENCODING 193
SWIDTH 514 0
DWIDTH 10 0
BBX 9 16 0 0
BITMAP
0400
1E00
1800
0000
1C00
1E00
1E00
3600
3600
3300
3300
7F00
7F00
6380
6180
E180
ENDCHAR
STARTCHAR 00C2
ENCODING 194
SWIDTH 514 0
DWIDTH 10 0
BBX 9 16 0 0
BITMAP
0800
1E00
1200
0000
1C00
1E00
1E00
3600
3600
3300
3300
7F00
7F00
6380
6180
E180
ENDCHAR
STARTCHAR 00C3
ENCODING 195
SWIDTH 514 0
DWIDTH 10 0
BBX 9 16 0 0
BITMAP
1A00
3F00
2600
0000
1C00
1E00
1E00
3600
3600
3300
3300
7F00
7F00
6380
6180
E180
ENDCHAR
STARTCHAR 00C4
ENCODING 196
SWIDTH 514 0
DWIDTH 10 0
BBX 9 16 0 0
BITMAP
3300
3700
3300
0000
1C00
1E00
1E00
3600
3600
3300
3300
7F00
7F00
6380
6180
E180
ENDCHAR
STARTCHAR 00C5
ENCODING 197
SWIDTH 514 0
DWIDTH 10 0
BBX 9 15 0 0
BITMAP
1C00
1600
1600
1C00
1C00
1E00
1E00
3600
3300
3300
7F00
7F00
6380
6180
E180
ENDCHAR
STARTCHAR 00C6
ENCODING 198
SWIDTH 514 0
DWIDTH 10 0
BBX 9 12 0 0
BITMAP
0F80
1F80
1E00
1600
3600
3780
3780
7E00
7E00
6600
6780
E780
ENDCHAR
STARTCHAR 00C7
ENCODING 199
SWIDTH 514 0
DWIDTH 10 0
BBX 8 15 1 -3
BITMAP
3E
7F
E1
C0
C0
C0
C0
C0
C0
E0
7F
3E
18
0C
38
ENDCHAR
STARTCHAR 00C8
ENCODING 200
SWIDTH 514 0
DWIDTH 10 0
BBX 8 16 1 0
BITMAP
30
38
08
00
FE
FE
E0
E0
E0
FE
FE
E0
E0
E0
FF
FF
ENDCHAR
STARTCHAR 00C9
ENCODING 201
SWIDTH 514 0
DWIDTH 10 0
BBX 8 16 1 0
BITMAP
08
3C
30
00
FE
FE
E0
E0
E0
FE
FE
E0
E0
E0
FF
FF
ENDCHAR
STARTCHAR 00CA
ENCODING 202
SWIDTH 514 0
DWIDTH 10 0
BBX 8 16 1 0
BITMAP
10
3C
24
00
FE
FE
E0
E0
E0
FE
FE
E0
E0
E0
FF
FF
ENDCHAR
STARTCHAR 00CB
ENCODING 203
SWIDTH 514 0
DWIDTH 10 0
BBX 8 16 1 0
BITMAP
66
6E
66
00
FE
FE
E0
E0
E0
FE
FE
E0
E0
E0
FF
FF
ENDCHAR
STARTCHAR 00CC
ENCODING 204
SWIDTH 514 0
DWIDTH 10 0
BBX 8 16 1 0
BITMAP
30
38
08
00
FF
FF
18
18
18
18
18
18
18
18
FF
FF
ENDCHAR
STARTCHAR 00CD
ENCODING 205
SWIDTH 514 0
DWIDTH 10 0
BBX 8 16 1 0
BITMAP
08
3C
30
00
FF
FF
18
18
18
18
18
18
18
18
FF
FF
ENDCHAR
STARTCHAR 00CE
ENCODING 206
SWIDTH 514 0
DWIDTH 10 0
BBX 8 16 1 0
BITMAP
10
3C
24
00
FF
FF
18
18
18
18
18
18
18
18
FF
FF
ENDCHAR
STARTCHAR 00CF
ENCODING 207
SWIDTH 514 0
DWIDTH 10 0
BBX 8 16 1 0
BITMAP
66
6E
66
00
FF
FF
18
18
18
18
18
18
18
18
FF
FF
ENDCHAR
STARTCHAR 00D0
ENCODING 208
SWIDTH 514 0
DWIDTH 10 0
BBX 9 12 0 0
BITMAP
7C00
7F00
7300
7380
7180
F980
F980
7380
7380
7300
7F00
7C00
ENDCHAR
STARTCHAR 00D1
ENCODING 209
SWIDTH 514 0
DWIDTH 10 0
BBX 8 16 1 0
BITMAP
34
7E
4C
00
C3
E3
E3
F3
F3
DB
DB
CF
CF
C7
C7
C3
ENDCHAR
STARTCHAR 00D2
ENCODING 210
SWIDTH 514 0
DWIDTH 10 0
BBX 8 16 1 0
BITMAP
30
38
08
00
3C
7E
E6
C7
C3
C3
C3
C3
C7
E6
7E
3C
ENDCHAR
STARTCHAR 00D3
ENCODING 211
SWIDTH 514 0
DWIDTH 10 0
BBX 8 16 1 0
BITMAP
08
3C
30
00
3C
7E
E6
C7
C3
C3
C3
C3
C7
E6
7E
3C
ENDCHAR
STARTCHAR 00D4
ENCODING 212
SWIDTH 514 0
DWIDTH 10 0
BBX 8 16 1 0
BITMAP
10
3C
24
00
3C
7E
E6
C7
C3
C3
C3
C3
C7
E6
7E
3C
ENDCHAR
STARTCHAR 00D5
ENCODING 213
SWIDTH 514 0
DWIDTH 10 0
BBX 8 16 1 0
BITMAP
34
7E
4C
00
3C
7E
E6
C7
C3
C3
C3
C3
C7
E6
7E
3C
ENDCHAR
STARTCHAR 00D6
ENCODING 214
SWIDTH 514 0
DWIDTH 10 0
BBX 8 16 1 0
BITMAP
66
6E
66
00
3C
7E
E6
C7
C3
C3
C3
C3
C7
E6
7E
3C
ENDCHAR
STARTCHAR 00D7
ENCODING 215
SWIDTH 514 0
DWIDTH 10 0
BBX 7 8 1 1
BITMAP
42
E6
7C
38
3C
6E
C6
40
ENDCHAR
STARTCHAR 00D8
ENCODING 216
SWIDTH 514 0
DWIDTH 10 0
BBX 8 14 1 -1
BITMAP
02
3E
7E
EE
CF
DB
DB
F3
F3
E7
E6
FE
FC
40
ENDCHAR
STARTCHAR 00D9
ENCODING 217
SWIDTH 514 0
DWIDTH 10 0
BBX 8 16 1 0
BITMAP
20
78
08
00
C7
C7
C7
C7
C7
C7
C7
C7
C7
C7
FE
7C
ENDCHAR
STARTCHAR 00DA
ENCODING 218
SWIDTH 514 0
DWIDTH 10 0
BBX 8 16 1 0
BITMAP
08
1C
30
00
C7
C7
C7
C7
C7
C7
C7
C7
C7
C7
FE
7C
ENDCHAR
STARTCHAR 00DB
ENCODING 219
SWIDTH 514 0
DWIDTH 10 0
BBX 8 16 1 0
BITMAP
10
3C
24
00
C7
C7
C7
C7
C7
C7
C7
C7
C7
C7
FE
7C
ENDCHAR
STARTCHAR 00DC
ENCODING 220
SWIDTH 514 0
DWIDTH 10 0
BBX 8 16 1 0
BITMAP
66
6E
66
00
C7
C7
C7
C7
C7
C7
C7
C7
C7
C7
FE
7C
ENDCHAR
STARTCHAR 00DD
ENCODING 221
SWIDTH 514 0
DWIDTH 10 0
BBX 9 16 0 0
BITMAP
0400
0E00
1800
0000
E180
6380
7300
3300
3600
1E00
1C00
0C00
0C00
0C00
0C00
0C00
ENDCHAR
STARTCHAR 00DE
ENCODING 222
SWIDTH 514 0
DWIDTH 10 0
BBX 8 12 1 0
BITMAP
C0
C0
FC
FE
C7
C3
C3
C7
FE
FC
C0
C0
ENDCHAR
STARTCHAR 00DF
ENCODING 223
SWIDTH 514 0
DWIDTH 10 0
BBX 8 13 1 0
BITMAP
7C
FC
CE
CE
CC
DC
DC
DC
CF
C3
D3
DF
DE
ENDCHAR
STARTCHAR 00E0
ENCODING 224
SWIDTH 514 0
DWIDTH 10 0
BBX 7 13 1 0
BITMAP
30
38
08
00
7C
7E
06
7E
FE
C6
C6
FE
7E
ENDCHAR
STARTCHAR 00E1
ENCODING 225
SWIDTH 514 0
DWIDTH 10 0
BBX 7 13 1 0
BITMAP
08
3C
30
00
7C
7E
06
7E
FE
C6
C6
FE
7E
ENDCHAR
STARTCHAR 00E2
ENCODING 226
SWIDTH 514 0
DWIDTH 10 0
BBX 7 13 1 0
BITMAP
10
3C
24
00
7C
7E
06
7E
FE
C6
C6
FE
7E
ENDCHAR
STARTCHAR 00E3
ENCODING 227
SWIDTH 514 0
DWIDTH 10 0
BBX 7 13 1 0
BITMAP
34
7E
4C
00
7C
7E
06
7E
FE
C6
C6
FE
7E
ENDCHAR
STARTCHAR 00E4
ENCODING 228
SWIDTH 514 0
DWIDTH 10 0
BBX 7 13 1 0
BITMAP
66
6E
66
00
7C
7E
06
7E
FE
C6
C6
FE
7E
ENDCHAR
STARTCHAR 00E5
ENCODING 229
SWIDTH 514 0
DWIDTH 10 0
BBX 7 14 1 0
BITMAP
38
2C
2C
38
00
7C
7E
06
7E
FE
C6
C6
FE
7E
ENDCHAR
STARTCHAR 00E6
ENCODING 230
SWIDTH 514 0
DWIDTH 10 0
BBX 9 9 0 0
BITMAP
7B00
7F80
0D80
7C80
7F80
CC00
CC00
7F80
3B80
ENDCHAR
STARTCHAR 00E7
ENCODING 231
SWIDTH 514 0
DWIDTH 10 0
BBX 8 12 1 -3
BITMAP
3F
7E
E0
C0
C0
C0
E0
7F
3F
18
0C
38
ENDCHAR
STARTCHAR 00E8
ENCODING 232
SWIDTH 514 0
DWIDTH 10 0
BBX 8 13 1 0
BITMAP
30
38
08
00
3C
7E
E6
C3
FF
FF
C0
7E
3E
ENDCHAR
STARTCHAR 00E9
ENCODING 233
SWIDTH 514 0
DWIDTH 10 0
BBX 8 13 1 0
BITMAP
08
1C
10
00
3C
7E
E6
C3
FF
FF
C0
7E
3E
ENDCHAR
STARTCHAR 00EA
ENCODING 234
SWIDTH 514 0
DWIDTH 10 0
BBX 8 13 1 0
BITMAP
18
3C
24
00
3C
7E
E6
C3
FF
FF
C0
7E
3E
ENDCHAR
STARTCHAR 00EB
ENCODING 235
SWIDTH 514 0
DWIDTH 10 0
BBX 8 13 1 0
BITMAP
66
6E
66
00
3C
7E
E6
C3
FF
FF
C0
7E
3E
ENDCHAR
STARTCHAR 00EC
ENCODING 236
SWIDTH 514 0
DWIDTH 10 0
BBX 8 13 1 0
BITMAP
20
78
18
00
F0
F0
30
30
30
30
39
1F
1E
ENDCHAR
STARTCHAR 00ED
ENCODING 237
SWIDTH 514 0
DWIDTH 10 0
BBX 8 13 1 0
BITMAP
08
3C
30
00
F0
F0
30
30
30
30
39
1F
1E
ENDCHAR
STARTCHAR 00EE
ENCODING 238
SWIDTH 514 0
DWIDTH 10 0
BBX 8 13 1 0
BITMAP
10
78
6C
00
F0
F0
30
30
30
30
39
1F
1E
ENDCHAR
STARTCHAR 00EF
ENCODING 239
SWIDTH 514 0
DWIDTH 10 0
BBX 8 13 1 0
BITMAP
6C
EE
6C
00
F0
F0
30
30
30
30
39
1F
1E
ENDCHAR
STARTCHAR 00F0
ENCODING 240
SWIDTH 514 0
DWIDTH 10 0
BBX 8 13 1 0
BITMAP
18
1F
3E
3E
06
1E
7F
E7
C7
C6
E6
FE
3C
ENDCHAR
STARTCHAR 00F1
ENCODING 241
SWIDTH 514 0
DWIDTH 10 0
BBX 7 13 1 0
BITMAP
34
7E
4C
00
FC
FE
E6
E6
E6
E6
E6
E6
E6
ENDCHAR
STARTCHAR 00F2
ENCODING 242
SWIDTH 514 0
DWIDTH 10 0
BBX 8 13 1 0
BITMAP
30
38
08
00
3C
FE
E7
C7
C3
C7
C7
7E
3C
ENDCHAR
STARTCHAR 00F3
ENCODING 243
SWIDTH 514 0
DWIDTH 10 0
BBX 8 13 1 0
BITMAP
08
3C
30
00
3C
FE
E7
C7
C3
C7
C7
7E
3C
ENDCHAR
STARTCHAR 00F4
ENCODING 244
SWIDTH 514 0
DWIDTH 10 0
BBX 8 13 1 0
BITMAP
10
3C
24
00
3C
FE
E7
C7
C3
C7
C7
7E
3C
ENDCHAR
STARTCHAR 00F5
ENCODING 245
SWIDTH 514 0
DWIDTH 10 0
BBX 8 13 1 0
BITMAP
34
7E
4C
00
3C
FE
E7
C7
C3
C7
C7
7E
3C
ENDCHAR
STARTCHAR 00F6
ENCODING 246
SWIDTH 514 0
DWIDTH 10 0
BBX 8 13 1 0
BITMAP
66
6E
66
00
3C
FE
E7
C7
C3
C7
C7
7E
3C
ENDCHAR
STARTCHAR 00F7
ENCODING 247
SWIDTH 514 0
DWIDTH 10 0
BBX 8 10 1 0
BITMAP
18
38
18
00
FF
FF
00
18
38
18
ENDCHAR
STARTCHAR 00F8
ENCODING 248
SWIDTH 514 0
DWIDTH 10 0
BBX 8 9 1 0
BITMAP
3F
FE
EF
CB
DB
F7
E7
FE
FC
ENDCHAR
STARTCHAR 00F9
ENCODING 249
SWIDTH 514 0
DWIDTH 10 0
BBX 7 13 1 0
BITMAP
30
38
08
00
C6
C6
C6
C6
C6
E6
E6
7E
3E
ENDCHAR
STARTCHAR 00FA
ENCODING 250
SWIDTH 514 0
DWIDTH 10 0
BBX 7 13 1 0
BITMAP
08
3C
30
00
C6
C6
C6
C6
C6
E6
E6
7E
3E
ENDCHAR
STARTCHAR 00FB
ENCODING 251
SWIDTH 514 0
DWIDTH 10 0
BBX 7 13 1 0
BITMAP
10
3C
24
00
C6
C6
C6
C6
C6
E6
E6
7E
3E
ENDCHAR
STARTCHAR 00FC
ENCODING 252
SWIDTH 514 0
DWIDTH 10 0
BBX 7 13 1 0
BITMAP
66
6E
66
00
C6
C6
C6
C6
C6
E6
E6
7E
3E
ENDCHAR
STARTCHAR 00FD
ENCODING 253
SWIDTH 514 0
DWIDTH 10 0
BBX 9 16 0 -3
BITMAP
0400
1E00
1800
0000
6380
7380
7300
3300
3300
1E00
1E00
1E00
0C00
1C00
7800
F000
ENDCHAR
STARTCHAR 00FE
ENCODING 254
SWIDTH 514 0
DWIDTH 10 0
BBX 8 16 1 -3
BITMAP
E0
E0
E0
E0
FC
FE
E7
E7
E3
E7
E7
FE
FC
E0
E0
E0
ENDCHAR
STARTCHAR 00FF
ENCODING 255
SWIDTH 514 0
DWIDTH 10 0
BBX 9 16 0 -3
BITMAP
3300
3700
3300
0000
6380
7380
7300
3300
3300
1E00
1E00
1E00
0C00
1C00
7800
F000
ENDCHAR
STARTCHAR 0152
ENCODING 140
SWIDTH 514 0
DWIDTH 10 0
BBX 9 12 0 0
BITMAP
3F80
7F80
6600
6600
E600
E780
E780
E600
6600
6600
7F80
3F80
ENDCHAR
STARTCHAR 0153
ENCODING 156
SWIDTH 514 0
DWIDTH 10 0
BBX 9 9 0 0
BITMAP
3300
7F80
4D80
CC80
CF80
CF80
6C00
7F80
3380
ENDCHAR
STARTCHAR 0160
ENCODING 138
SWIDTH 514 0
DWIDTH 10 0
BBX 8 16 1 0
BITMAP
24
3C
10
00
3C
FE
E2
C0
E0
7C
3E
07
07
87
FE
7C
ENDCHAR
STARTCHAR 0161
ENCODING 154
SWIDTH 514 0
DWIDTH 10 0
BBX 7 13 1 0
BITMAP
24
3C
10
00
3E
7E
E0
F0
7C
0E
86
FE
7C
ENDCHAR
STARTCHAR 0178
ENCODING 159
SWIDTH 514 0
DWIDTH 10 0
BBX 9 16 0 0
BITMAP
3300
3700
3300
0000
E180
6380
7300
3300
3600
1E00
1C00
0C00
0C00
0C00
0C00
0C00
ENDCHAR
STARTCHAR 017D
ENCODING 142
SWIDTH 514 0
DWIDTH 10 0
BBX 8 16 1 0
BITMAP
24
3C
10
00
FE
FE
0E
0C
1C
18
38
70
60
E0
FF
FF
ENDCHAR
STARTCHAR 017E
ENCODING 158
SWIDTH 514 0
DWIDTH 10 0
BBX 7 13 1 0
BITMAP
24
3C
10
00
FE
FE
0E
1C
38
30
60
FE
FE
ENDCHAR
STARTCHAR 0192
ENCODING 131
SWIDTH 514 0
DWIDTH 10 0
BBX 9 16 0 -3
BITMAP
0F80
1F80
1800
1800
7F80
7F80
1800
1800
1800
1800
1800
1800
1800
3800
F800
F000
ENDCHAR
STARTCHAR 02C6
ENCODING 136
SWIDTH 514 0
DWIDTH 10 0
BBX 4 3 3 10
BITMAP
40
F0
90
ENDCHAR
STARTCHAR 02DC
ENCODING 152
SWIDTH 514 0
DWIDTH 10 0
BBX 6 3 2 10
BITMAP
68
FC
98
ENDCHAR
STARTCHAR 2013
ENCODING 150
SWIDTH 514 0
DWIDTH 10 0
BBX 8 2 1 4
BITMAP
FF
FF
ENDCHAR
STARTCHAR 2014
ENCODING 151
SWIDTH 514 0
DWIDTH 10 0
BBX 10 2 0 4
BITMAP
FFC0
FFC0
ENDCHAR
STARTCHAR 2018
ENCODING 145
SWIDTH 514 0
DWIDTH 10 0
BBX 4 6 3 7
BITMAP
30
70
C0
E0
E0
E0
ENDCHAR
STARTCHAR 2019
ENCODING 146
SWIDTH 514 0
DWIDTH 10 0
BBX 4 6 3 8
BITMAP
60
70
70
30
E0
C0
ENDCHAR
STARTCHAR 201A
ENCODING 130
SWIDTH 514 0
DWIDTH 10 0
BBX 5 6 2 -3
BITMAP
30
78
38
30
F0
40
ENDCHAR
STARTCHAR 201C
ENCODING 147
SWIDTH 514 0
DWIDTH 10 0
BBX 8 5 1 8
BITMAP
23
C6
CC
EE
C6
ENDCHAR
STARTCHAR 201D
ENCODING 148
SWIDTH 514 0
DWIDTH 10 0
BBX 8 5 1 8
BITMAP
67
67
63
66
CC
ENDCHAR
STARTCHAR 201E
ENCODING 132
SWIDTH 514 0
DWIDTH 10 0
BBX 9 5 0 -3
BITMAP
3300
7380
3300
3300
C600
ENDCHAR
STARTCHAR 2020
ENCODING 134
SWIDTH 514 0
DWIDTH 10 0
BBX 7 14 1 -2
BITMAP
18
18
18
FE
FE
18
18
18
18
18
18
18
18
18
ENDCHAR
STARTCHAR 2021
ENCODING 135
SWIDTH 514 0
DWIDTH 10 0
BBX 7 14 1 -2
BITMAP
18
18
18
FE
FE
18
18
18
FE
FE
18
18
18
10
ENDCHAR
STARTCHAR 2022
ENCODING 149
SWIDTH 514 0
DWIDTH 10 0
BBX 5 5 2 4
BITMAP
70
F8
F8
F8
70
ENDCHAR
STARTCHAR 2026
ENCODING 133
SWIDTH 514 0
DWIDTH 10 0
BBX 8 2 1 0
BITMAP
DB
DB
ENDCHAR
STARTCHAR 2030
ENCODING 137
SWIDTH 514 0
DWIDTH 10 0
BBX 9 12 0 0
BITMAP
6000
F000
D000
F180
6600
1800
6000
3B80
2A80
6A80
2A80
3B80
ENDCHAR
STARTCHAR 2039
ENCODING 139
SWIDTH 514 0
DWIDTH 10 0
BBX 4 9 3 0
BITMAP
20
70
60
E0
C0
E0
60
70
20
ENDCHAR
STARTCHAR 203A
ENCODING 155
SWIDTH 514 0
DWIDTH 10 0
BBX 5 9 3 1
BITMAP
40
E0
60
70
38
70
60
E0
40
ENDCHAR
STARTCHAR 20AC
ENCODING 128
SWIDTH 514 0
DWIDTH 10 0
BBX 8 12 1 0
BITMAP
1F
3E
70
60
FE
FE
60
FC
FC
70
3F
1F
ENDCHAR
STARTCHAR 2122
ENCODING 153
SWIDTH 514 0
DWIDTH 10 0
BBX 9 5 0 7
BITMAP
F580
2580
2B80
2A80
2880
ENDCHAR
ENDFONT
