STARTFONT 2.1
COMMENT
COMMENT Converted from OpenType font "UbuntuMono-Bold.ttf" by "otf2bdf 3.0".
COMMENT
FONT -FreeType-ubuntu mono-Bold-R-Normal--33-240-100-100-P-131-Windows-cp1252
SIZE 24 100 100
FONTBOUNDINGBOX 17 34 0 -6
STARTPROPERTIES 19
FOUNDRY "FreeType"
FAMILY_NAME "ubuntu mono"
WEIGHT_NAME "Bold"
SLANT "R"
SETWIDTH_NAME "Normal"
ADD_STYLE_NAME ""
PIXEL_SIZE 33
POINT_SIZE 240
RESOLUTION_X 100
RESOLUTION_Y 100
SPACING "P"
AVERAGE_WIDTH 131
CHARSET_REGISTRY "Windows"
CHARSET_ENCODING "cp1252"
FONT_ASCENT 27
FONT_DESCENT 5
COPYRIGHT "Copyright 2011 Canonical Ltd.  Licensed under the Ubuntu Font Licence 1.0"
_OTF_FONTFILE "UbuntuMono-Bold.ttf"
_OTF_PSNAME "UbuntuMono-Bold"
ENDPROPERTIES
CHARS 223
STARTCHAR 0000
ENCODING 157
SWIDTH 510 0
DWIDTH 17 0
BBX 0 0 0 0
BITMAP
ENDCHAR
STARTCHAR 0008
ENCODING 8
SWIDTH 510 0
DWIDTH 17 0
BBX 0 0 0 0
BITMAP
ENDCHAR
STARTCHAR 0009
ENCODING 9
SWIDTH 510 0
DWIDTH 17 0
BBX 0 0 0 0
BITMAP
ENDCHAR
STARTCHAR 000D
ENCODING 13
SWIDTH 510 0
DWIDTH 17 0
BBX 0 0 0 0
BITMAP
ENDCHAR
STARTCHAR 001D
ENCODING 29
SWIDTH 510 0
DWIDTH 17 0
BBX 0 0 0 0
BITMAP
ENDCHAR
STARTCHAR 0020
ENCODING 32
SWIDTH 510 0
DWIDTH 17 0
BBX 0 0 0 0
BITMAP
ENDCHAR
STARTCHAR 0021
ENCODING 33
SWIDTH 510 0
DWIDTH 17 0
BBX 5 20 6 0
BITMAP
F8
F8
F8
F8
F8
F8
F8
F8
F0
F0
F0
F0
70
00
00
70
F8
F8
F8
70
ENDCHAR
STARTCHAR 0022
ENCODING 34
SWIDTH 510 0
DWIDTH 17 0
BBX 11 9 3 14
BITMAP
33E0
F3E0
F3E0
F3E0
F1C0
F1C0
F1C0
71C0
61C0
ENDCHAR
STARTCHAR 0023
ENCODING 35
SWIDTH 510 0
DWIDTH 17 0
BBX 15 20 1 0
BITMAP
0F3C
0F3C
0E38
0E38
0E38
FFFE
FFFE
FFFE
1C70
1C70
3CF0
3CF0
FFFE
FFFE
FFFE
79E0
79E0
71C0
71C0
71C0
ENDCHAR
STARTCHAR 0024
ENCODING 36
SWIDTH 510 0
DWIDTH 17 0
BBX 14 26 1 -3
BITMAP
0780
0780
0780
0FF8
3FFC
3FF8
7C18
7800
7800
7C00
7F00
3FC0
1FF0
07F8
00FC
003C
003C
003C
707C
7FFC
FFF8
3FF0
0780
0780
0780
0780
ENDCHAR
STARTCHAR 0025
ENCODING 37
SWIDTH 510 0
DWIDTH 17 0
BBX 16 20 0 0
BITMAP
3C07
7E0E
7E0E
E71C
E738
E738
E770
7EE0
7EE0
3DC0
039C
03BE
077F
0E77
0E67
1C67
3877
387F
703E
E01C
ENDCHAR
STARTCHAR 0026
ENCODING 38
SWIDTH 510 0
DWIDTH 17 0
BBX 15 20 1 0
BITMAP
0F80
1FC0
3FE0
78E0
78E0
78E0
79E0
3BC0
3FC0
1F10
3F1C
7F9C
F7FC
E3FC
E1F8
E0F8
F0F8
FFFC
7FFC
1F1E
ENDCHAR
STARTCHAR 0027
ENCODING 39
SWIDTH 510 0
DWIDTH 17 0
BBX 4 10 6 13
BITMAP
F0
F0
F0
F0
F0
F0
70
70
70
70
ENDCHAR
STARTCHAR 0028
ENCODING 40
SWIDTH 510 0
DWIDTH 17 0
BBX 10 28 3 -5
BITMAP
0080
03C0
07C0
0FC0
1F80
1E00
3E00
7C00
7800
7800
F000
F000
F000
F000
F000
F000
F000
F000
7000
7800
7800
3C00
3E00
1F00
0F80
07C0
03C0
0080
ENDCHAR
STARTCHAR 0029
ENCODING 41
SWIDTH 510 0
DWIDTH 17 0
BBX 10 28 3 -5
BITMAP
6000
7000
F800
7C00
3E00
1F00
0F80
0780
0780
03C0
03C0
03C0
01C0
01C0
01C0
01C0
01C0
03C0
03C0
03C0
0780
0780
0F00
1E00
3E00
F800
7000
6000
ENDCHAR
STARTCHAR 002A
ENCODING 42
SWIDTH 510 0
DWIDTH 17 0
BBX 13 13 2 7
BITMAP
0F00
0F00
4710
F770
FEF8
FFF8
7FE0
0F80
1FC0
3DE0
7DF0
38E0
1080
ENDCHAR
STARTCHAR 002B
ENCODING 43
SWIDTH 510 0
DWIDTH 17 0
BBX 14 15 1 1
BITMAP
0780
0780
0780
0780
0780
0780
FFFC
FFFC
FFFC
0780
0780
0780
0780
0780
0780
ENDCHAR
STARTCHAR 002C
ENCODING 44
SWIDTH 510 0
DWIDTH 17 0
BBX 7 11 4 -5
BITMAP
1C
3E
3E
3E
3E
1E
0E
1C
FC
F8
60
ENDCHAR
STARTCHAR 002D
ENCODING 45
SWIDTH 510 0
DWIDTH 17 0
BBX 9 4 4 6
BITMAP
FF80
FF80
FF80
FF80
ENDCHAR
STARTCHAR 002E
ENCODING 46
SWIDTH 510 0
DWIDTH 17 0
BBX 6 6 5 0
BITMAP
38
7C
FC
FC
7C
38
ENDCHAR
STARTCHAR 002F
ENCODING 47
SWIDTH 510 0
DWIDTH 17 0
BBX 13 28 2 -5
BITMAP
0078
00F0
00F0
00F0
01F0
01E0
01E0
03E0
03C0
03C0
07C0
0780
0780
0F80
0F00
0F00
1F00
1E00
1E00
3E00
3C00
3C00
7C00
7800
7800
F800
F000
F000
ENDCHAR
STARTCHAR 0030
ENCODING 48
SWIDTH 510 0
DWIDTH 17 0
BBX 14 20 1 0
BITMAP
07C0
1FF0
3FF8
7C78
783C
703C
F03C
F01C
F31C
F79C
F79C
F39C
F01C
F03C
703C
783C
7C78
3FF8
1FF0
07C0
ENDCHAR
STARTCHAR 0031
ENCODING 49
SWIDTH 510 0
DWIDTH 17 0
BBX 13 20 2 0
BITMAP
0380
0780
1F80
7F80
FF80
FF80
F780
0780
0780
0780
0780
0780
0780
0780
0780
0780
0780
7FF8
7FF8
7FF8
ENDCHAR
STARTCHAR 0032
ENCODING 50
SWIDTH 510 0
DWIDTH 17 0
BBX 14 20 1 0
BITMAP
0FC0
3FE0
FFF0
70F8
2078
0078
0078
00F8
00F8
01F0
07E0
0FC0
1F80
1F00
3E00
7C00
7C00
7FFC
7FFC
7FFC
ENDCHAR
STARTCHAR 0033
ENCODING 51
SWIDTH 510 0
DWIDTH 17 0
BBX 14 20 1 0
BITMAP
1FC0
7FE0
7FF0
30F8
0078
0078
0078
00F0
0FE0
0FF0
0FF8
00F8
007C
003C
003C
007C
60F8
7FF8
FFF0
3FC0
ENDCHAR
STARTCHAR 0034
ENCODING 52
SWIDTH 510 0
DWIDTH 17 0
BBX 15 20 1 0
BITMAP
00F0
01F0
01F0
03F0
07F0
0FF0
1EF0
1CF0
3CF0
78F0
78F0
F0F0
FFFE
FFFE
FFFE
00F0
00F0
00F0
00F0
00F0
ENDCHAR
STARTCHAR 0035
ENCODING 53
SWIDTH 510 0
DWIDTH 17 0
BBX 14 20 1 0
BITMAP
1FF8
3FF8
3FF8
3C00
3C00
3C00
3C00
3F80
3FE0
3FF0
01F8
0078
007C
003C
003C
0078
40F8
7FF0
FFE0
3F80
ENDCHAR
STARTCHAR 0036
ENCODING 54
SWIDTH 510 0
DWIDTH 17 0
BBX 13 20 2 0
BITMAP
00F0
07F0
1FF0
3F80
3E00
7800
F800
F780
FFE0
FFF0
F0F0
F078
F078
F078
F078
F078
F8F0
7FF0
3FE0
1F80
ENDCHAR
STARTCHAR 0037
ENCODING 55
SWIDTH 510 0
DWIDTH 17 0
BBX 13 20 2 0
BITMAP
FFF8
FFF8
FFF8
00F8
01F0
01E0
03E0
03C0
07C0
0780
0780
0F00
0F00
0F00
1E00
1E00
1E00
1E00
3E00
3E00
ENDCHAR
STARTCHAR 0038
ENCODING 56
SWIDTH 510 0
DWIDTH 17 0
BBX 14 20 1 0
BITMAP
0FC0
1FF0
3FF8
7C7C
783C
783C
7838
7C78
3FF0
1FE0
3FF0
79F8
787C
F03C
F03C
F03C
787C
7FF8
3FF0
0FC0
ENDCHAR
STARTCHAR 0039
ENCODING 57
SWIDTH 510 0
DWIDTH 17 0
BBX 14 20 1 0
BITMAP
0FC0
1FF0
3FF0
7C78
787C
783C
F03C
783C
783C
7C7C
3FFC
1FFC
0FF8
0078
00F8
01F0
07E0
3FC0
3F80
3C00
ENDCHAR
STARTCHAR 003A
ENCODING 58
SWIDTH 510 0
DWIDTH 17 0
BBX 6 16 5 0
BITMAP
38
7C
FC
FC
7C
38
00
00
00
00
38
7C
FC
FC
7C
38
ENDCHAR
STARTCHAR 003B
ENCODING 59
SWIDTH 510 0
DWIDTH 17 0
BBX 7 21 4 -5
BITMAP
1C
3E
7E
7E
3E
1C
00
00
00
00
1C
3E
7E
7E
3E
1E
0E
3C
F8
F0
C0
ENDCHAR
STARTCHAR 003C
ENCODING 60
SWIDTH 510 0
DWIDTH 17 0
BBX 14 15 1 1
BITMAP
0008
003C
01FC
07FC
1FF0
7FC0
FF00
F800
FF00
7FC0
1FF0
07FC
01FC
003C
0008
ENDCHAR
STARTCHAR 003D
ENCODING 61
SWIDTH 510 0
DWIDTH 17 0
BBX 14 9 1 4
BITMAP
FFFC
FFFC
FFFC
0000
0000
0000
FFFC
FFFC
FFFC
ENDCHAR
STARTCHAR 003E
ENCODING 62
SWIDTH 510 0
DWIDTH 17 0
BBX 14 15 1 1
BITMAP
6000
7800
7E00
FF80
3FF0
07FC
01FC
003C
01FC
07FC
3FF0
FF80
7E00
7800
6000
ENDCHAR
STARTCHAR 003F
ENCODING 63
SWIDTH 510 0
DWIDTH 17 0
BBX 12 20 2 0
BITMAP
3F80
FFE0
7FF0
61F0
00F0
00F0
01F0
03E0
07E0
0FC0
0F80
0F00
1E00
0000
0000
0E00
1F00
1F00
1F00
0E00
ENDCHAR
STARTCHAR 0040
ENCODING 64
SWIDTH 510 0
DWIDTH 17 0
BBX 14 24 1 -4
BITMAP
07E0
1FF0
3FF8
7C3C
701C
701C
E1FC
E3FC
E7FC
E79C
E71C
EF1C
EF1C
E71C
E71C
E79C
E7FC
E3FC
70FC
7800
3E00
1FFC
0FFC
03FC
ENDCHAR
STARTCHAR 0041
ENCODING 65
SWIDTH 510 0
DWIDTH 17 0
BBX 16 20 0 0
BITMAP
03E0
03E0
07E0
07F0
07F0
0F70
0E78
0E78
1E78
1E38
1E3C
1C3C
3FFC
3FFE
3FFE
781E
781E
781F
780F
F80F
ENDCHAR
STARTCHAR 0042
ENCODING 66
SWIDTH 510 0
DWIDTH 17 0
BBX 13 20 2 0
BITMAP
FF80
FFE0
FFF0
F0F0
F0F0
F070
F0F0
F1F0
FFE0
FFE0
FFF0
F0F8
F078
F078
F078
F078
F0F8
FFF0
FFE0
FF80
ENDCHAR
STARTCHAR 0043
ENCODING 67
SWIDTH 510 0
DWIDTH 17 0
BBX 14 20 1 0
BITMAP
03F8
0FFC
1FFC
3E0C
7C00
7800
F000
F000
F000
F000
F000
F000
F000
F000
7800
7800
7E0C
3FFC
1FFC
07F8
ENDCHAR
STARTCHAR 0044
ENCODING 68
SWIDTH 510 0
DWIDTH 17 0
BBX 14 20 2 0
BITMAP
FF00
FFC0
FFE0
F1F0
F0F8
F078
F078
F078
F07C
F07C
F07C
F07C
F078
F078
F078
F0F8
F1F0
FFE0
FFC0
FF00
ENDCHAR
STARTCHAR 0045
ENCODING 69
SWIDTH 510 0
DWIDTH 17 0
BBX 13 20 2 0
BITMAP
FFF0
FFF0
FFF0
F000
F000
F000
F000
F000
FFE0
FFE0
FFE0
F000
F000
F000
F000
F000
F000
FFF8
FFF8
FFF8
ENDCHAR
STARTCHAR 0046
ENCODING 70
SWIDTH 510 0
DWIDTH 17 0
BBX 13 20 2 0
BITMAP
FFF8
FFF8
FFF8
F000
F000
F000
F000
F000
FFF0
FFF0
FFF0
F000
F000
F000
F000
F000
F000
F000
F000
F000
ENDCHAR
STARTCHAR 0047
ENCODING 71
SWIDTH 510 0
DWIDTH 17 0
BBX 14 20 1 0
BITMAP
03FC
0FFC
1FFC
3E08
7C00
7800
F000
F000
F000
F03C
F03C
F03C
F03C
F03C
783C
783C
7C3C
3FFC
1FFC
07FC
ENDCHAR
STARTCHAR 0048
ENCODING 72
SWIDTH 510 0
DWIDTH 17 0
BBX 14 20 1 0
BITMAP
F83C
F83C
F83C
F83C
F83C
F83C
F83C
F83C
FFFC
FFFC
FFFC
F83C
F83C
F83C
F83C
F83C
F83C
F83C
F83C
F83C
ENDCHAR
STARTCHAR 0049
ENCODING 73
SWIDTH 510 0
DWIDTH 17 0
BBX 13 20 2 0
BITMAP
FFF8
FFF8
FFF8
0F00
0F00
0F00
0F00
0F00
0F00
0F00
0F00
0F00
0F00
0F00
0F00
0F00
0F00
FFF8
FFF8
FFF8
ENDCHAR
STARTCHAR 004A
ENCODING 74
SWIDTH 510 0
DWIDTH 17 0
BBX 12 20 2 0
BITMAP
3FF0
3FF0
3FF0
00F0
00F0
00F0
00F0
00F0
00F0
00F0
00F0
00F0
00F0
00F0
00F0
40F0
E1F0
FFE0
FFC0
3F00
ENDCHAR
STARTCHAR 004B
ENCODING 75
SWIDTH 510 0
DWIDTH 17 0
BBX 15 20 1 0
BITMAP
F83C
F87C
F878
F8F0
F9F0
F9E0
FBC0
FFC0
FF80
FF00
FF80
FFC0
FBE0
F9F0
F8F0
F8F8
F87C
F87C
F83E
F83E
ENDCHAR
STARTCHAR 004C
ENCODING 76
SWIDTH 510 0
DWIDTH 17 0
BBX 13 20 2 0
BITMAP
F000
F000
F000
F000
F000
F000
F000
F000
F000
F000
F000
F000
F000
F000
F000
F000
F000
FFF8
FFF8
FFF8
ENDCHAR
STARTCHAR 004D
ENCODING 77
SWIDTH 510 0
DWIDTH 17 0
BBX 15 20 1 0
BITMAP
703C
783C
787C
787C
7C7C
ECFC
ECFC
EEDC
EFDC
E7DC
E79C
E79C
E39C
E01C
E01E
E01E
E01E
E01E
E01E
E01E
ENDCHAR
STARTCHAR 004E
ENCODING 78
SWIDTH 510 0
DWIDTH 17 0
BBX 13 20 2 0
BITMAP
E078
F078
F078
F878
F878
FC78
FC78
EE78
EE78
E778
E778
E3F8
E3F8
E1F8
E1F8
E0F8
E0F8
E078
E078
E078
ENDCHAR
STARTCHAR 004F
ENCODING 79
SWIDTH 510 0
DWIDTH 17 0
BBX 15 20 1 0
BITMAP
0FC0
1FF0
3FF8
7C78
783C
F83C
F03C
F03C
F03E
F03E
F03E
F03E
F03C
F03C
F83C
783C
7C78
3FF8
1FF0
07C0
ENDCHAR
STARTCHAR 0050
ENCODING 80
SWIDTH 510 0
DWIDTH 17 0
BBX 14 20 2 0
BITMAP
FF80
FFE0
FFF0
F0F8
F078
F07C
F07C
F07C
F078
F0F8
FFF0
FFE0
FF80
F000
F000
F000
F000
F000
F000
F000
ENDCHAR
STARTCHAR 0051
ENCODING 81
SWIDTH 510 0
DWIDTH 17 0
BBX 15 25 1 -5
BITMAP
0FC0
1FF0
3FF8
7C78
783C
F83C
F03C
F03C
F03E
F03E
F03E
F03E
F03C
F03C
F03C
783C
7C78
3FF8
1FF0
0FC0
0380
03F0
01FC
00FC
001C
ENDCHAR
STARTCHAR 0052
ENCODING 82
SWIDTH 510 0
DWIDTH 17 0
BBX 14 20 2 0
BITMAP
FF80
FFE0
FFF0
F1F0
F0F8
F078
F078
F0F8
F1F0
FFF0
FFE0
FFC0
F3E0
F1E0
F1F0
F0F0
F0F8
F078
F07C
F03C
ENDCHAR
STARTCHAR 0053
ENCODING 83
SWIDTH 510 0
DWIDTH 17 0
BBX 14 20 1 0
BITMAP
0FE0
3FF8
3FF8
7C10
7800
7800
7800
7C00
7F80
3FE0
0FF8
01F8
007C
003C
003C
003C
607C
7FF8
FFF0
3FE0
ENDCHAR
STARTCHAR 0054
ENCODING 84
SWIDTH 510 0
DWIDTH 17 0
BBX 15 20 1 0
BITMAP
FFFE
FFFE
FFFE
0780
0780
0780
0780
0780
0780
0780
0780
0780
0780
0780
0780
0780
0780
0780
0780
0780
ENDCHAR
STARTCHAR 0055
ENCODING 85
SWIDTH 510 0
DWIDTH 17 0
BBX 14 20 1 0
BITMAP
F03C
F03C
F03C
F03C
F03C
F03C
F03C
F03C
F03C
F03C
F03C
F03C
F03C
F03C
F03C
783C
787C
7FF8
3FF0
0FE0
ENDCHAR
STARTCHAR 0056
ENCODING 86
SWIDTH 510 0
DWIDTH 17 0
BBX 15 20 1 0
BITMAP
F01E
F01E
F03E
F03C
F03C
783C
783C
7878
3878
3C78
3C70
3CF0
1CF0
1EF0
1EE0
0FE0
0FE0
0FC0
07C0
07C0
ENDCHAR
STARTCHAR 0057
ENCODING 87
SWIDTH 510 0
DWIDTH 17 0
BBX 15 20 1 0
BITMAP
F01E
E01E
E01E
E01E
E01E
E01E
E01C
E39C
E79C
E79C
E7DC
EFDC
EEDC
EEFC
ECFC
7C7C
787C
787C
783C
783C
ENDCHAR
STARTCHAR 0058
ENCODING 88
SWIDTH 510 0
DWIDTH 17 0
BBX 15 20 1 0
BITMAP
F03E
783C
7878
3C78
3CF0
1EF0
1FE0
0FE0
0FC0
07C0
0FC0
0FE0
1FE0
1EF0
3CF8
3C78
787C
783C
F03E
F01E
ENDCHAR
STARTCHAR 0059
ENCODING 89
SWIDTH 510 0
DWIDTH 17 0
BBX 15 20 1 0
BITMAP
F01E
F03E
F83C
783C
7878
3C78
3C70
1EF0
1EE0
0FE0
0FC0
07C0
0780
0780
0780
0780
0780
0780
0780
0780
ENDCHAR
STARTCHAR 005A
ENCODING 90
SWIDTH 510 0
DWIDTH 17 0
BBX 13 20 2 0
BITMAP
FFF8
FFF8
FFF8
01F0
01F0
03E0
03C0
07C0
0780
0F80
1F00
1E00
3E00
3C00
7C00
7800
F000
FFF8
FFF8
FFF8
ENDCHAR
STARTCHAR 005B
ENCODING 91
SWIDTH 510 0
DWIDTH 17 0
BBX 9 28 4 -5
BITMAP
FF80
FF80
FF80
F000
F000
F000
F000
F000
F000
F000
F000
F000
F000
F000
F000
F000
F000
F000
F000
F000
F000
F000
F000
F000
F000
FF80
FF80
FF80
ENDCHAR
STARTCHAR 005C
ENCODING 92
SWIDTH 510 0
DWIDTH 17 0
BBX 13 28 2 -5
BITMAP
F000
F000
F800
7800
7800
7C00
3C00
3C00
3E00
1E00
1E00
1F00
0F00
0F00
0F80
0780
0780
07C0
03C0
03C0
03E0
01E0
01E0
01F0
00F0
00F0
00F8
0078
ENDCHAR
STARTCHAR 005D
ENCODING 93
SWIDTH 510 0
DWIDTH 17 0
BBX 9 28 4 -5
BITMAP
FF80
FF80
FF80
0780
0780
0780
0780
0780
0780
0780
0780
0780
0780
0780
0780
0780
0780
0780
0780
0780
0780
0780
0780
0780
0780
FF80
FF80
FF80
ENDCHAR
STARTCHAR 005E
ENCODING 94
SWIDTH 510 0
DWIDTH 17 0
BBX 15 10 1 10
BITMAP
0780
07C0
0FE0
1EF0
3CF0
3C78
787C
F83C
F01E
3018
ENDCHAR
STARTCHAR 005F
ENCODING 95
SWIDTH 510 0
DWIDTH 17 0
BBX 16 3 0 -5
BITMAP
FFFF
FFFF
FFFF
ENDCHAR
STARTCHAR 0060
ENCODING 96
SWIDTH 510 0
DWIDTH 17 0
BBX 7 6 5 17
BITMAP
20
70
FC
7E
1E
04
ENDCHAR
STARTCHAR 0061
ENCODING 97
SWIDTH 510 0
DWIDTH 17 0
BBX 14 16 1 0
BITMAP
3FC0
3FF0
3FF8
2078
0078
003C
0FFC
3FFC
7FFC
783C
F03C
F03C
783C
7FFC
3FFC
0FF0
ENDCHAR
STARTCHAR 0062
ENCODING 98
SWIDTH 510 0
DWIDTH 17 0
BBX 14 23 2 0
BITMAP
F000
F000
F000
F000
F000
F000
F000
F7C0
FFE0
FFF0
F8F8
F078
F078
F078
F078
F07C
F078
F078
F078
F0F0
FFF0
FFE0
7F80
ENDCHAR
STARTCHAR 0063
ENCODING 99
SWIDTH 510 0
DWIDTH 17 0
BBX 14 16 1 0
BITMAP
03F8
0FFC
3FFC
3E00
7C00
7800
7800
F800
F800
7800
7800
7C00
3E04
3FFC
0FFC
03FC
ENDCHAR
STARTCHAR 0064
ENCODING 100
SWIDTH 510 0
DWIDTH 17 0
BBX 13 23 1 0
BITMAP
0078
0078
0078
0078
0078
0078
0078
0F78
3FF8
7FF8
78F8
F878
F078
F078
F078
F078
F078
F078
F878
7C78
7FF8
3FF8
0FF0
ENDCHAR
STARTCHAR 0065
ENCODING 101
SWIDTH 510 0
DWIDTH 17 0
BBX 14 16 1 0
BITMAP
07C0
1FF0
3FF8
7C78
783C
F83C
F03C
FFFC
FFFC
FFFC
F000
7800
7C08
3FF8
1FF8
07F0
ENDCHAR
STARTCHAR 0066
ENCODING 102
SWIDTH 510 0
DWIDTH 17 0
BBX 15 23 1 0
BITMAP
01FC
07FE
07FE
0F86
0F00
0F00
0F00
FFFC
FFFC
FFFC
0F00
0F00
0F00
0F00
0F00
0F00
0F00
0F00
0F00
0F00
0F00
0F00
0F00
ENDCHAR
STARTCHAR 0067
ENCODING 103
SWIDTH 510 0
DWIDTH 17 0
BBX 13 21 1 -5
BITMAP
07F0
1FF8
3FF8
7C78
7878
F078
F078
F078
F078
F078
F878
7878
7FF8
3FF8
0FF8
0078
0078
60F8
7FF0
7FE0
3F80
ENDCHAR
STARTCHAR 0068
ENCODING 104
SWIDTH 510 0
DWIDTH 17 0
BBX 13 23 2 0
BITMAP
F000
F000
F000
F000
F000
F000
F000
FF80
FFE0
FFF0
F0F0
F0F0
F0F0
F0F8
F0F8
F0F8
F0F8
F0F8
F0F8
F0F8
F0F8
F0F8
F0F8
ENDCHAR
STARTCHAR 0069
ENCODING 105
SWIDTH 510 0
DWIDTH 17 0
BBX 14 23 1 0
BITMAP
0E00
1F00
1F00
1F00
0E00
0000
0000
FF80
FF80
FF80
0F80
0F80
0F80
0F80
0F80
0F80
0F80
0780
0780
0784
07FC
03FC
01F8
ENDCHAR
STARTCHAR 006A
ENCODING 106
SWIDTH 510 0
DWIDTH 17 0
BBX 11 28 2 -5
BITMAP
01C0
03E0
03E0
03E0
01C0
0000
0000
7FE0
7FE0
7FE0
01E0
01E0
01E0
01E0
01E0
01E0
01E0
01E0
01E0
01E0
01E0
01E0
01E0
01E0
43E0
FFC0
FFC0
3F00
ENDCHAR
STARTCHAR 006B
ENCODING 107
SWIDTH 510 0
DWIDTH 17 0
BBX 14 23 2 0
BITMAP
F000
F000
F000
F000
F000
F000
F000
F0F8
F0F0
F1E0
F3E0
F3C0
F780
FF00
FF00
FF80
F7C0
F3E0
F1E0
F1F0
F0F8
F078
F07C
ENDCHAR
STARTCHAR 006C
ENCODING 108
SWIDTH 510 0
DWIDTH 17 0
BBX 14 23 1 0
BITMAP
FF80
FF80
FF80
0F80
0F80
0F80
0F80
0F80
0F80
0F80
0F80
0F80
0F80
0F80
0F80
0F80
0F80
0780
0780
0784
07FC
03FC
01F8
ENDCHAR
STARTCHAR 006D
ENCODING 109
SWIDTH 510 0
DWIDTH 17 0
BBX 15 16 1 0
BITMAP
7EF8
FFFC
FFFC
E79C
E79C
E39E
E39E
E39E
E39E
E39E
E01E
E01E
E01E
E01E
E01E
E01E
ENDCHAR
STARTCHAR 006E
ENCODING 110
SWIDTH 510 0
DWIDTH 17 0
BBX 13 16 2 0
BITMAP
3F80
FFE0
FFF0
F0F0
F0F0
F0F0
F0F8
F0F8
F0F8
F0F8
F0F8
F0F8
F0F8
F0F8
F0F8
F0F8
ENDCHAR
STARTCHAR 006F
ENCODING 111
SWIDTH 510 0
DWIDTH 17 0
BBX 15 16 1 0
BITMAP
07C0
1FF0
3FF8
7C7C
783C
F03C
F03C
F03E
F03E
F03C
F03C
783C
7C78
3FF8
1FF0
07C0
ENDCHAR
STARTCHAR 0070
ENCODING 112
SWIDTH 510 0
DWIDTH 17 0
BBX 13 21 2 -5
BITMAP
7F80
FFE0
FFF0
F0F0
F078
F078
F078
F078
F078
F078
F078
F078
F0F8
FFF0
FFE0
F7C0
F000
F000
F000
F000
F000
ENDCHAR
STARTCHAR 0071
ENCODING 113
SWIDTH 510 0
DWIDTH 17 0
BBX 13 21 1 -5
BITMAP
07F0
1FF8
3FF8
7C78
7878
F878
F078
F078
F078
F078
F078
F878
7C78
7FF8
3FF8
0F78
0078
0078
0078
0078
0078
ENDCHAR
STARTCHAR 0072
ENCODING 114
SWIDTH 510 0
DWIDTH 17 0
BBX 12 16 3 0
BITMAP
1FF0
FFF0
FFF0
F000
F000
F000
F000
F000
F000
F000
F000
F000
F000
F000
F000
F000
ENDCHAR
STARTCHAR 0073
ENCODING 115
SWIDTH 510 0
DWIDTH 17 0
BBX 13 16 2 0
BITMAP
1FE0
3FF0
7FF0
F820
F000
F800
FF00
7FC0
3FE0
07F0
00F8
0078
E0F0
FFF0
FFE0
3F80
ENDCHAR
STARTCHAR 0074
ENCODING 116
SWIDTH 510 0
DWIDTH 17 0
BBX 14 21 1 0
BITMAP
0300
0F00
0F00
0F00
0F00
FFFC
FFFC
FFFC
0F00
0F00
0F00
0F00
0F00
0F00
0F00
0F00
0F00
0F04
0FFC
07FC
03FC
ENDCHAR
STARTCHAR 0075
ENCODING 117
SWIDTH 510 0
DWIDTH 17 0
BBX 12 16 2 0
BITMAP
F0F0
F0F0
F0F0
F0F0
F0F0
F0F0
F0F0
F0F0
F0F0
F0F0
F0F0
F0F0
F8F0
7FF0
3FF0
1FE0
ENDCHAR
STARTCHAR 0076
ENCODING 118
SWIDTH 510 0
DWIDTH 17 0
BBX 15 16 1 0
BITMAP
F01E
F03E
F03C
783C
787C
7878
3C78
3CF8
3CF0
1EF0
1FE0
1FE0
0FC0
0FC0
07C0
0780
ENDCHAR
STARTCHAR 0077
ENCODING 119
SWIDTH 510 0
DWIDTH 17 0
BBX 16 16 0 0
BITMAP
F007
F007
7007
71C7
73CF
73CF
73EE
73EE
73EE
77EE
3F7E
3E7E
3E7C
3E3C
3C3C
1C3C
ENDCHAR
STARTCHAR 0078
ENCODING 120
SWIDTH 510 0
DWIDTH 17 0
BBX 15 16 1 0
BITMAP
F03C
783C
7C78
3CF0
1EF0
0FE0
0FC0
07C0
07C0
0FE0
1FF0
3EF0
3C78
787C
F83C
F03E
ENDCHAR
STARTCHAR 0079
ENCODING 121
SWIDTH 510 0
DWIDTH 17 0
BBX 14 21 1 -5
BITMAP
F83C
783C
783C
783C
7C78
3C78
3C78
3E70
1EF0
1EF0
0FE0
0FE0
0FE0
07C0
07C0
0380
0780
8F80
FF00
FE00
FC00
ENDCHAR
STARTCHAR 007A
ENCODING 122
SWIDTH 510 0
DWIDTH 17 0
BBX 12 16 2 0
BITMAP
7FF0
7FF0
7FF0
01F0
03E0
07C0
0780
0F80
1F00
1E00
3E00
7C00
7800
FFF0
FFF0
FFF0
ENDCHAR
STARTCHAR 007B
ENCODING 123
SWIDTH 510 0
DWIDTH 17 0
BBX 12 28 2 -5
BITMAP
03F0
07F0
0FF0
0F00
0F00
0F00
0F00
0F00
0F00
0F00
0E00
0E00
1E00
FC00
F000
FC00
1E00
0E00
0E00
0F00
0F00
0F00
0F00
0F00
0F00
0FF0
07F0
03F0
ENDCHAR
STARTCHAR 007C
ENCODING 124
SWIDTH 510 0
DWIDTH 17 0
BBX 4 28 6 -5
BITMAP
F0
F0
F0
F0
F0
F0
F0
F0
F0
F0
F0
F0
F0
F0
F0
F0
F0
F0
F0
F0
F0
F0
F0
F0
F0
F0
F0
F0
ENDCHAR
STARTCHAR 007D
ENCODING 125
SWIDTH 510 0
DWIDTH 17 0
BBX 12 28 2 -5
BITMAP
FC00
FF00
FF00
0F80
0780
0780
0780
0780
0780
0780
0780
0780
0780
03F0
00F0
03F0
0780
0780
0780
0780
0780
0780
0780
0780
0F80
FF00
FF00
FC00
ENDCHAR
STARTCHAR 007E
ENCODING 126
SWIDTH 510 0
DWIDTH 17 0
BBX 15 6 1 6
BITMAP
3C0C
7F9E
7FFE
FFFC
E3FC
60F0
ENDCHAR
STARTCHAR 00A0
ENCODING 160
SWIDTH 510 0
DWIDTH 17 0
BBX 0 0 0 0
BITMAP
ENDCHAR
STARTCHAR 00A1
ENCODING 161
SWIDTH 510 0
DWIDTH 17 0
BBX 5 20 6 -5
BITMAP
70
F8
F8
F8
70
00
00
F0
F0
F0
F0
F0
F8
F8
F8
F8
F8
F8
F8
F8
ENDCHAR
STARTCHAR 00A2
ENCODING 162
SWIDTH 510 0
DWIDTH 17 0
BBX 13 23 2 -3
BITMAP
03C0
03C0
03C0
03C0
0FF8
3FF8
7FF0
FC10
F000
F000
F000
F000
F000
F000
F800
FC00
7FF8
3FF8
0FF8
03C0
03C0
03C0
03C0
ENDCHAR
STARTCHAR 00A3
ENCODING 163
SWIDTH 510 0
DWIDTH 17 0
BBX 14 20 1 0
BITMAP
03F8
07FC
0FF8
1F08
1E00
1E00
1E00
1E00
1E00
FFF0
FFF0
FFF0
1E00
1E00
1E00
1E00
3C00
3FFC
3FFC
3FFC
ENDCHAR
STARTCHAR 00A4
ENCODING 164
SWIDTH 510 0
DWIDTH 17 0
BBX 15 15 1 2
BITMAP
2008
701C
FFFE
FFFC
7FF8
7C78
7838
7838
7838
7C78
7FF8
FFFC
FFFE
701C
2008
ENDCHAR
STARTCHAR 00A5
ENCODING 165
SWIDTH 510 0
DWIDTH 17 0
BBX 15 20 1 0
BITMAP
F01E
F03C
F83C
783C
3878
3C78
1CF0
1EF0
0FE0
7FFC
7FFC
7FFC
0780
0780
7FFC
7FFC
7FFC
0780
0780
0780
ENDCHAR
STARTCHAR 00A6
ENCODING 166
SWIDTH 510 0
DWIDTH 17 0
BBX 4 28 6 -5
BITMAP
F0
F0
F0
F0
F0
F0
F0
F0
F0
F0
F0
F0
00
00
00
00
F0
F0
F0
F0
F0
F0
F0
F0
F0
F0
F0
F0
ENDCHAR
STARTCHAR 00A7
ENCODING 167
SWIDTH 510 0
DWIDTH 17 0
BBX 13 23 2 -3
BITMAP
0FE0
3FF0
7FF0
7830
7800
7C00
7F80
3FE0
7FF0
F3F0
F0F8
E078
F078
FCF0
7FE0
3FE0
0FF0
01F0
00F0
C0F0
FFF0
FFE0
3FC0
ENDCHAR
STARTCHAR 00A8
ENCODING 168
SWIDTH 510 0
DWIDTH 17 0
BBX 11 4 3 19
BITMAP
F1C0
F3E0
F3E0
F1C0
ENDCHAR
STARTCHAR 00A9
ENCODING 169
SWIDTH 510 0
DWIDTH 17 0
BBX 15 16 1 0
BITMAP
0FC0
1FF0
3878
701C
E3CC
CF8C
CC0E
CC0E
CC0E
CC0E
CF8C
E7CC
701C
3878
1FF0
0FC0
ENDCHAR
STARTCHAR 00AA
ENCODING 170
SWIDTH 510 0
DWIDTH 17 0
BBX 10 11 3 9
BITMAP
3F00
3FC0
3FC0
01C0
3FC0
7FC0
F1C0
F1C0
7FC0
7FC0
3FC0
ENDCHAR
STARTCHAR 00AB
ENCODING 171
SWIDTH 510 0
DWIDTH 17 0
BBX 13 14 2 2
BITMAP
0830
1C38
1C70
38F0
78E0
71E0
E1C0
E1C0
71E0
78E0
3870
1C70
1C38
0830
ENDCHAR
STARTCHAR 00AC
ENCODING 172
SWIDTH 510 0
DWIDTH 17 0
BBX 14 10 1 2
BITMAP
FFFC
FFFC
FFFC
003C
003C
003C
003C
003C
003C
003C
ENDCHAR
STARTCHAR 00AD
ENCODING 173
SWIDTH 510 0
DWIDTH 17 0
BBX 9 4 4 6
BITMAP
FF80
FF80
FF80
FF80
ENDCHAR
STARTCHAR 00AE
ENCODING 174
SWIDTH 510 0
DWIDTH 17 0
BBX 15 16 1 0
BITMAP
0FC0
1FF0
3878
701C
EF8C
CFCC
CCCE
CCCE
CFCE
CF8E
CCCC
EC4C
701C
3878
1FF0
0FC0
ENDCHAR
STARTCHAR 00AF
ENCODING 175
SWIDTH 510 0
DWIDTH 17 0
BBX 9 3 4 18
BITMAP
FF80
FF80
FF80
ENDCHAR
STARTCHAR 00B0
ENCODING 176
SWIDTH 510 0
DWIDTH 17 0
BBX 9 10 4 13
BITMAP
3E00
7F00
FF80
E380
E380
E380
E380
FF80
7F00
3E00
ENDCHAR
STARTCHAR 00B1
ENCODING 177
SWIDTH 510 0
DWIDTH 17 0
BBX 14 17 1 0
BITMAP
0780
0780
0780
0780
0780
FFFC
FFFC
FFFC
0780
0780
0780
0780
0780
0000
FFFC
FFFC
FFFC
ENDCHAR
STARTCHAR 00B2
ENCODING 178
SWIDTH 510 0
DWIDTH 17 0
BBX 9 12 4 9
BITMAP
3E00
FF00
FF00
4700
0700
0F00
1E00
3C00
7800
7F80
FF80
FF80
ENDCHAR
STARTCHAR 00B3
ENCODING 179
SWIDTH 510 0
DWIDTH 17 0
BBX 9 13 4 8
BITMAP
3E00
FF00
FF00
4700
0700
3E00
3F00
3F00
0780
8780
FF00
FF00
7C00
ENDCHAR
STARTCHAR 00B4
ENCODING 180
SWIDTH 510 0
DWIDTH 17 0
BBX 7 6 5 17
BITMAP
04
1C
3E
FE
78
60
ENDCHAR
STARTCHAR 00B5
ENCODING 181
SWIDTH 510 0
DWIDTH 17 0
BBX 12 21 2 -5
BITMAP
F0F0
F0F0
F0F0
F0F0
F0F0
F0F0
F0F0
F0F0
F0F0
F0F0
F0F0
F0F0
F8F0
FFF0
FFF0
FFE0
F000
F000
F000
F000
F000
ENDCHAR
STARTCHAR 00B6
ENCODING 182
SWIDTH 510 0
DWIDTH 17 0
BBX 14 25 1 -5
BITMAP
0FF8
3FFC
7FFC
FF1C
FF1C
FF1C
FF1C
FF1C
FF1C
FF1C
7F1C
1F1C
071C
071C
071C
071C
071C
071C
071C
071C
071C
071C
071C
071C
071C
ENDCHAR
STARTCHAR 00B7
ENCODING 183
SWIDTH 510 0
DWIDTH 17 0
BBX 6 6 5 6
BITMAP
38
7C
FC
FC
7C
38
ENDCHAR
STARTCHAR 00B8
ENCODING 184
SWIDTH 510 0
DWIDTH 17 0
BBX 7 5 5 -5
BITMAP
18
3C
0E
7E
FC
ENDCHAR
STARTCHAR 00B9
ENCODING 185
SWIDTH 510 0
DWIDTH 17 0
BBX 10 12 4 8
BITMAP
0E00
3E00
FE00
7E00
4E00
0E00
0E00
0E00
0E00
7FC0
7FC0
7FC0
ENDCHAR
STARTCHAR 00BA
ENCODING 186
SWIDTH 510 0
DWIDTH 17 0
BBX 12 12 2 9
BITMAP
0F80
3FC0
7FE0
78F0
70F0
F070
F070
70F0
78F0
7FE0
3FC0
0F80
ENDCHAR
STARTCHAR 00BB
ENCODING 187
SWIDTH 510 0
DWIDTH 17 0
BBX 13 14 2 2
BITMAP
4080
E380
E1C0
71E0
78E0
3870
3C78
3C78
3870
78E0
71E0
E1C0
E380
4080
ENDCHAR
STARTCHAR 00BC
ENCODING 188
SWIDTH 510 0
DWIDTH 17 0
BBX 16 20 0 0
BITMAP
1C1E
7C1C
FC38
5C38
1C70
1C70
1CE0
1CE0
01C0
01C0
0380
0780
071E
0F1E
0E3E
1E7E
1C6E
3CFF
38FF
780E
ENDCHAR
STARTCHAR 00BD
ENCODING 189
SWIDTH 510 0
DWIDTH 17 0
BBX 16 20 0 0
BITMAP
1C1E
7C1C
FC38
DC38
1C70
1C70
1CE0
1CE0
01C0
01C0
0380
07BE
077F
0F27
0E07
1E0F
1C1E
3C38
387F
787F
ENDCHAR
STARTCHAR 00BE
ENCODING 190
SWIDTH 510 0
DWIDTH 17 0
BBX 15 20 1 0
BITMAP
F81C
FC3C
9C38
7C78
7C70
0EF0
FEE0
FDC0
01C0
0380
0380
0700
073C
0E3C
1E7C
1CFC
3CDC
39FE
79FE
701C
ENDCHAR
STARTCHAR 00BF
ENCODING 191
SWIDTH 510 0
DWIDTH 17 0
BBX 12 21 2 -5
BITMAP
0780
0FC0
0FC0
0FC0
0780
0000
0000
0780
0780
0F80
1F00
3F00
7E00
7C00
F800
F800
F800
7820
7FF0
3FF0
0FC0
ENDCHAR
STARTCHAR 00C0
ENCODING 192
SWIDTH 510 0
DWIDTH 17 0
BBX 16 28 0 0
BITMAP
0200
0380
07C0
07E0
01E0
0060
0000
0000
03E0
03E0
07E0
07F0
07F0
0F70
0E78
0E78
1E78
1E38
1E3C
1C3C
3FFC
3FFE
3FFE
781E
781E
781F
780F
F80F
ENDCHAR
STARTCHAR 00C1
ENCODING 193
SWIDTH 510 0
DWIDTH 17 0
BBX 16 28 0 0
BITMAP
0040
00E0
03E0
07E0
0780
0200
0000
0000
03E0
03E0
07E0
07F0
07F0
0F70
0E78
0E78
1E78
1E38
1E3C
1C3C
3FFC
3FFE
3FFE
781E
781E
781F
780F
F80F
ENDCHAR
STARTCHAR 00C2
ENCODING 194
SWIDTH 510 0
DWIDTH 17 0
BBX 16 28 0 0
BITMAP
0080
01C0
07E0
0F70
0E38
0410
0000
0000
03E0
03E0
07E0
07F0
07F0
0F70
0E78
0E78
1E78
1E38
1E3C
1C3C
3FFC
3FFE
3FFE
781E
781E
781F
780F
F80F
ENDCHAR
STARTCHAR 00C3
ENCODING 195
SWIDTH 510 0
DWIDTH 17 0
BBX 16 27 0 0
BITMAP
0718
0FF8
1FF8
08F0
0000
0000
0000
03E0
03E0
07E0
07F0
07F0
0F70
0E78
0E78
1E78
1E38
1E3C
1C3C
3FFC
3FFE
3FFE
781E
781E
781F
780F
F80F
ENDCHAR
STARTCHAR 00C4
ENCODING 196
SWIDTH 510 0
DWIDTH 17 0
BBX 16 28 0 0
BITMAP
1E38
1E7C
1E7C
1E38
0000
0000
0000
0000
03E0
03E0
07E0
07F0
07F0
0F70
0E78
0E78
1E78
1E38
1E3C
1C3C
3FFC
3FFE
3FFE
781E
781E
781F
780F
F80F
ENDCHAR
STARTCHAR 00C5
ENCODING 197
SWIDTH 510 0
DWIDTH 17 0
BBX 16 26 0 0
BITMAP
03C0
07E0
0670
0630
0670
07E0
03E0
07E0
07E0
07F0
07F0
0F70
0F78
0E78
1E78
1E3C
1E3C
3C3C
3FFC
3FFE
3FFE
781E
781E
781F
780F
F80F
ENDCHAR
STARTCHAR 00C6
ENCODING 198
SWIDTH 510 0
DWIDTH 17 0
BBX 16 20 0 0
BITMAP
03FF
03FF
03FF
07F0
07F0
07F0
0EF0
0EF0
0EFE
1EFE
1CFE
1CF0
3FF0
3FF0
3FF0
78F0
78F0
78FF
78FF
F8FF
ENDCHAR
STARTCHAR 00C7
ENCODING 199
SWIDTH 510 0
DWIDTH 17 0
BBX 14 26 1 -6
BITMAP
03F8
0FFC
1FFC
3E0C
7C00
7800
F000
F000
F000
F000
F000
F000
F000
F000
F800
7800
7E0C
3FFC
1FFC
07F8
0380
03C0
00E0
00E0
0FC0
0F80
ENDCHAR
STARTCHAR 00C8
ENCODING 200
SWIDTH 510 0
DWIDTH 17 0
BBX 13 28 2 0
BITMAP
0800
0E00
1F00
1F80
0780
0180
0000
0000
FFF0
FFF0
FFF0
F000
F000
F000
F000
F000
FFE0
FFE0
FFE0
F000
F000
F000
F000
F000
F000
FFF8
FFF8
FFF8
ENDCHAR
STARTCHAR 00C9
ENCODING 201
SWIDTH 510 0
DWIDTH 17 0
BBX 13 28 2 0
BITMAP
0100
0380
0F80
1F80
1E00
0800
0000
0000
FFF0
FFF0
FFF0
F000
F000
F000
F000
F000
FFE0
FFE0
FFE0
F000
F000
F000
F000
F000
F000
FFF8
FFF8
FFF8
ENDCHAR
STARTCHAR 00CA
ENCODING 202
SWIDTH 510 0
DWIDTH 17 0
BBX 13 28 2 0
BITMAP
0200
0700
1F80
3DC0
38E0
1040
0000
0000
FFF0
FFF0
FFF0
F000
F000
F000
F000
F000
FFE0
FFE0
FFE0
F000
F000
F000
F000
F000
F000
FFF8
FFF8
FFF8
ENDCHAR
STARTCHAR 00CB
ENCODING 203
SWIDTH 510 0
DWIDTH 17 0
BBX 13 28 2 0
BITMAP
78E0
79F0
79F0
78E0
0000
0000
0000
0000
FFF0
FFF0
FFF0
F000
F000
F000
F000
F000
FFE0
FFE0
FFE0
F000
F000
F000
F000
F000
F000
FFF8
FFF8
FFF8
ENDCHAR
STARTCHAR 00CC
ENCODING 204
SWIDTH 510 0
DWIDTH 17 0
BBX 13 28 2 0
BITMAP
0800
0E00
1F00
1F80
0780
0180
0000
0000
FFF8
FFF8
FFF8
0F00
0F00
0F00
0F00
0F00
0F00
0F00
0F00
0F00
0F00
0F00
0F00
0F00
0F00
FFF8
FFF8
FFF8
ENDCHAR
STARTCHAR 00CD
ENCODING 205
SWIDTH 510 0
DWIDTH 17 0
BBX 13 28 2 0
BITMAP
0100
0380
0F80
1F80
1E00
0800
0000
0000
FFF8
FFF8
FFF8
0F00
0F00
0F00
0F00
0F00
0F00
0F00
0F00
0F00
0F00
0F00
0F00
0F00
0F00
FFF8
FFF8
FFF8
ENDCHAR
STARTCHAR 00CE
ENCODING 206
SWIDTH 510 0
DWIDTH 17 0
BBX 13 28 2 0
BITMAP
0200
0700
1F80
3DC0
38E0
1040
0000
0000
FFF8
FFF8
FFF8
0F00
0F00
0F00
0F00
0F00
0F00
0F00
0F00
0F00
0F00
0F00
0F00
0F00
0F00
FFF8
FFF8
FFF8
ENDCHAR
STARTCHAR 00CF
ENCODING 207
SWIDTH 510 0
DWIDTH 17 0
BBX 13 28 2 0
BITMAP
78E0
79F0
79F0
78E0
0000
0000
0000
0000
FFF8
FFF8
FFF8
0F00
0F00
0F00
0F00
0F00
0F00
0F00
0F00
0F00
0F00
0F00
0F00
0F00
0F00
FFF8
FFF8
FFF8
ENDCHAR
STARTCHAR 00D0
ENCODING 208
SWIDTH 510 0
DWIDTH 17 0
BBX 15 20 1 0
BITMAP
7F80
7FE0
7FF0
78F8
787C
783C
783C
783C
FF3E
FF3E
FF3E
783E
783C
783C
783C
787C
78F8
7FF0
7FE0
7F80
ENDCHAR
STARTCHAR 00D1
ENCODING 209
SWIDTH 510 0
DWIDTH 17 0
BBX 13 27 2 0
BITMAP
1C60
3FE0
7FE0
23C0
0000
0000
0000
E078
F078
F078
F878
F878
FC78
FC78
EE78
EE78
E778
E778
E3F8
E3F8
E1F8
E1F8
E0F8
E0F8
E078
E078
E078
ENDCHAR
STARTCHAR 00D2
ENCODING 210
SWIDTH 510 0
DWIDTH 17 0
BBX 15 28 1 0
BITMAP
0400
0700
0F80
0FC0
03C0
00C0
0000
0000
0FC0
1FF0
3FF8
7C78
783C
F83C
F03C
F03C
F03E
F03E
F03E
F03E
F03C
F03C
F83C
783C
7C78
3FF8
1FF0
07C0
ENDCHAR
STARTCHAR 00D3
ENCODING 211
SWIDTH 510 0
DWIDTH 17 0
BBX 15 28 1 0
BITMAP
0080
01C0
07C0
0FC0
0F00
0400
0000
0000
0FC0
1FF0
3FF8
7C78
783C
F83C
F03C
F03C
F03E
F03E
F03E
F03E
F03C
F03C
F83C
783C
7C78
3FF8
1FF0
07C0
ENDCHAR
STARTCHAR 00D4
ENCODING 212
SWIDTH 510 0
DWIDTH 17 0
BBX 15 28 1 0
BITMAP
0100
0380
0FC0
1EE0
1C70
0820
0000
0000
0FC0
1FF0
3FF8
7C78
783C
F83C
F03C
F03C
F03E
F03E
F03E
F03E
F03C
F03C
F83C
783C
7C78
3FF8
1FF0
07C0
ENDCHAR
STARTCHAR 00D5
ENCODING 213
SWIDTH 510 0
DWIDTH 17 0
BBX 15 27 1 0
BITMAP
0E30
1FF0
3FF0
11E0
0000
0000
0000
0FC0
1FF0
3FF8
7C78
783C
F83C
F03C
F03C
F03E
F03E
F03E
F03E
F03C
F03C
F83C
783C
7C78
3FF8
1FF0
07C0
ENDCHAR
STARTCHAR 00D6
ENCODING 214
SWIDTH 510 0
DWIDTH 17 0
BBX 15 28 1 0
BITMAP
3C70
3CF8
3CF8
3C70
0000
0000
0000
0000
0FC0
1FF0
3FF8
7C78
783C
F83C
F03C
F03C
F03E
F03E
F03E
F03E
F03C
F03C
F83C
783C
7C78
3FF8
1FF0
07C0
ENDCHAR
STARTCHAR 00D7
ENCODING 215
SWIDTH 510 0
DWIDTH 17 0
BBX 13 13 2 2
BITMAP
2020
7070
F8F8
7DF0
3FE0
1FC0
0F80
1FC0
3FE0
79F0
F0F8
6070
0020
ENDCHAR
STARTCHAR 00D8
ENCODING 216
SWIDTH 510 0
DWIDTH 17 0
BBX 15 23 1 -1
BITMAP
0010
0018
07F8
1FF8
3FF8
7CF8
78FC
F8FC
F1FC
F1FC
F3FE
F3BE
F7BE
F73E
FF3C
FE3C
FE3C
7C3C
7C78
3FF8
7FF0
7FC0
2000
ENDCHAR
STARTCHAR 00D9
ENCODING 217
SWIDTH 510 0
DWIDTH 17 0
BBX 14 28 1 0
BITMAP
0400
0E00
0F80
0FC0
03C0
0080
0000
0000
F03C
F03C
F03C
F03C
F03C
F03C
F03C
F03C
F03C
F03C
F03C
F03C
F03C
F03C
F03C
783C
787C
7FF8
3FF0
0FE0
ENDCHAR
STARTCHAR 00DA
ENCODING 218
SWIDTH 510 0
DWIDTH 17 0
BBX 14 28 1 0
BITMAP
0040
01C0
03E0
0FE0
0780
0600
0000
0000
F03C
F03C
F03C
F03C
F03C
F03C
F03C
F03C
F03C
F03C
F03C
F03C
F03C
F03C
F03C
783C
787C
7FF8
3FF0
0FE0
ENDCHAR
STARTCHAR 00DB
ENCODING 219
SWIDTH 510 0
DWIDTH 17 0
BBX 14 28 1 0
BITMAP
0100
0380
0FC0
1EE0
1C70
0820
0000
0000
F03C
F03C
F03C
F03C
F03C
F03C
F03C
F03C
F03C
F03C
F03C
F03C
F03C
F03C
F03C
783C
787C
7FF8
3FF0
0FE0
ENDCHAR
STARTCHAR 00DC
ENCODING 220
SWIDTH 510 0
DWIDTH 17 0
BBX 14 28 1 0
BITMAP
3C70
3CF8
3CF8
3C70
0000
0000
0000
0000
F03C
F03C
F03C
F03C
F03C
F03C
F03C
F03C
F03C
F03C
F03C
F03C
F03C
F03C
F03C
783C
787C
7FF8
3FF0
0FE0
ENDCHAR
STARTCHAR 00DD
ENCODING 221
SWIDTH 510 0
DWIDTH 17 0
BBX 15 28 1 0
BITMAP
0040
01C0
03E0
0FE0
0780
0600
0000
0000
F01E
F03E
F83C
783C
7878
3C78
3C70
1EF0
1EE0
0FE0
0FC0
07C0
0780
0780
0780
0780
0780
0780
0780
0780
ENDCHAR
STARTCHAR 00DE
ENCODING 222
SWIDTH 510 0
DWIDTH 17 0
BBX 14 20 2 0
BITMAP
F000
F000
F000
FF80
FFE0
FFF0
F0F8
F078
F07C
F07C
F07C
F078
F0F8
FFF0
FFE0
FF80
F000
F000
F000
F000
ENDCHAR
STARTCHAR 00DF
ENCODING 223
SWIDTH 510 0
DWIDTH 17 0
BBX 15 23 1 0
BITMAP
0FC0
3FE0
7FF0
78F0
F070
F070
F0F0
F0F0
F1E0
F1E0
F3C0
F3C0
F3E0
F1F0
F1FC
F0FE
F03E
F01E
F01E
F21E
F3FE
F3FC
F3F8
ENDCHAR
STARTCHAR 00E0
ENCODING 224
SWIDTH 510 0
DWIDTH 17 0
BBX 14 23 1 0
BITMAP
0400
0F00
0F80
0FC0
03C0
00C0
0000
3FC0
3FF0
3FF8
2078
0078
003C
0FFC
3FFC
7FFC
783C
F03C
F03C
783C
7FFC
3FFC
0FF0
ENDCHAR
STARTCHAR 00E1
ENCODING 225
SWIDTH 510 0
DWIDTH 17 0
BBX 14 23 1 0
BITMAP
0040
01C0
03E0
0FE0
0780
0600
0000
3FC0
3FF0
3FF8
2078
0078
003C
0FFC
3FFC
7FFC
783C
F03C
F03C
783C
7FFC
3FFC
0FF0
ENDCHAR
STARTCHAR 00E2
ENCODING 226
SWIDTH 510 0
DWIDTH 17 0
BBX 14 23 1 0
BITMAP
0100
0380
0FC0
1EE0
1C70
0820
0000
3FC0
3FF0
3FF8
2078
0078
003C
0FFC
3FFC
7FFC
783C
F03C
F03C
783C
7FFC
3FFC
0FF0
ENDCHAR
STARTCHAR 00E3
ENCODING 227
SWIDTH 510 0
DWIDTH 17 0
BBX 14 22 1 0
BITMAP
0E30
1FF8
3FF0
11E0
0000
0000
3FC0
3FF0
3FF8
2078
0078
003C
0FFC
3FFC
7FFC
783C
F03C
F03C
783C
7FFC
3FFC
0FF0
ENDCHAR
STARTCHAR 00E4
ENCODING 228
SWIDTH 510 0
DWIDTH 17 0
BBX 14 23 1 0
BITMAP
3C70
3CF8
3CF8
3C70
0000
0000
0000
3FC0
3FF0
3FF8
2078
0078
003C
0FFC
3FFC
7FFC
783C
F03C
F03C
783C
7FFC
3FFC
0FF0
ENDCHAR
STARTCHAR 00E5
ENCODING 229
SWIDTH 510 0
DWIDTH 17 0
BBX 14 24 1 0
BITMAP
0780
0FC0
0CE0
0C60
0CE0
0FC0
0780
0000
3FC0
3FF0
3FF8
2078
0078
003C
0FFC
3FFC
7FFC
783C
F03C
F03C
783C
7FFC
3FFC
0FF0
ENDCHAR
STARTCHAR 00E6
ENCODING 230
SWIDTH 510 0
DWIDTH 17 0
BBX 15 16 1 0
BITMAP
3C78
7FFC
7FFC
47DE
038E
038E
3F8E
7FFE
FFFE
E380
E380
E3C0
E3C0
FFFC
7FFC
3E7C
ENDCHAR
STARTCHAR 00E7
ENCODING 231
SWIDTH 510 0
DWIDTH 17 0
BBX 14 22 1 -6
BITMAP
03F8
0FFC
3FFC
3E08
7C00
7800
7800
F800
F800
7800
7800
7C00
7E04
3FFC
1FFC
07FC
0380
03C0
00E0
00E0
07C0
0F80
ENDCHAR
STARTCHAR 00E8
ENCODING 232
SWIDTH 510 0
DWIDTH 17 0
BBX 14 23 1 0
BITMAP
0400
0F00
0F80
0FC0
03C0
00C0
0000
07C0
1FF0
3FF8
7C78
783C
F83C
F03C
FFFC
FFFC
FFFC
F000
7800
7C08
3FF8
1FF8
07F0
ENDCHAR
STARTCHAR 00E9
ENCODING 233
SWIDTH 510 0
DWIDTH 17 0
BBX 14 23 1 0
BITMAP
0040
01C0
03E0
07E0
0780
0600
0000
07C0
1FF0
3FF8
7C78
783C
F83C
F03C
FFFC
FFFC
FFFC
F000
7800
7C08
3FF8
1FF8
07F0
ENDCHAR
STARTCHAR 00EA
ENCODING 234
SWIDTH 510 0
DWIDTH 17 0
BBX 14 23 1 0
BITMAP
0100
0380
07C0
1EE0
1C70
0820
0000
07C0
1FF0
3FF8
7C78
783C
F83C
F03C
FFFC
FFFC
FFFC
F000
7800
7C08
3FF8
1FF8
07F0
ENDCHAR
STARTCHAR 00EB
ENCODING 235
SWIDTH 510 0
DWIDTH 17 0
BBX 14 23 1 0
BITMAP
3C70
3CF8
3CF8
3C70
0000
0000
0000
07C0
1FF0
3FF8
7C78
783C
F83C
F03C
FFFC
FFFC
FFFC
F000
7800
7C08
3FF8
1FF8
07F0
ENDCHAR
STARTCHAR 00EC
ENCODING 236
SWIDTH 510 0
DWIDTH 17 0
BBX 14 23 1 0
BITMAP
0400
0E00
1F00
1FC0
03C0
0080
0000
FF80
FF80
FF80
0F80
0F80
0F80
0F80
0F80
0F80
0F80
0780
0780
0784
07FC
03FC
01F8
ENDCHAR
STARTCHAR 00ED
ENCODING 237
SWIDTH 510 0
DWIDTH 17 0
BBX 14 23 1 0
BITMAP
0080
01C0
07C0
0FC0
0F00
0400
0000
FF80
FF80
FF80
0F80
0F80
0F80
0F80
0F80
0F80
0F80
0780
0780
0784
07FC
03FC
01F8
ENDCHAR
STARTCHAR 00EE
ENCODING 238
SWIDTH 510 0
DWIDTH 17 0
BBX 14 23 1 0
BITMAP
0200
0700
0FC0
1DE0
18E0
1040
0000
FF80
FF80
FF80
0F80
0F80
0F80
0F80
0F80
0F80
0F80
0780
0780
0784
07FC
03FC
01F8
ENDCHAR
STARTCHAR 00EF
ENCODING 239
SWIDTH 510 0
DWIDTH 17 0
BBX 14 23 1 0
BITMAP
38F0
7CF0
7CF0
38F0
0000
0000
0000
FF80
FF80
FF80
0F80
0F80
0F80
0F80
0F80
0F80
0F80
0780
0780
0784
07FC
03FC
01F8
ENDCHAR
STARTCHAR 00F0
ENCODING 240
SWIDTH 510 0
DWIDTH 17 0
BBX 15 23 1 0
BITMAP
0100
0380
07C4
07FC
03FE
0FF8
07F0
07F8
0078
0278
1FFC
3FFC
7FFC
783C
F83C
F83C
F03C
F87C
7878
7CF8
3FF0
1FF0
0FC0
ENDCHAR
STARTCHAR 00F1
ENCODING 241
SWIDTH 510 0
DWIDTH 17 0
BBX 13 22 2 0
BITMAP
1C60
3FF0
7FE0
23C0
0000
0000
3F80
FFE0
FFF0
F0F0
F0F0
F0F0
F0F8
F0F8
F0F8
F0F8
F0F8
F0F8
F0F8
F0F8
F0F8
F0F8
ENDCHAR
STARTCHAR 00F2
ENCODING 242
SWIDTH 510 0
DWIDTH 17 0
BBX 15 23 1 0
BITMAP
0400
0F00
0F80
0FC0
03C0
00C0
0000
07C0
1FF0
3FF8
7C7C
783C
F03C
F03C
F03E
F03E
F03C
F03C
783C
7C78
3FF8
1FF0
07C0
ENDCHAR
STARTCHAR 00F3
ENCODING 243
SWIDTH 510 0
DWIDTH 17 0
BBX 15 23 1 0
BITMAP
0080
01C0
07E0
0FC0
0F00
0400
0000
07C0
1FF0
3FF8
7C7C
783C
F03C
F03C
F03E
F03E
F03C
F03C
783C
7C78
3FF8
1FF0
07C0
ENDCHAR
STARTCHAR 00F4
ENCODING 244
SWIDTH 510 0
DWIDTH 17 0
BBX 15 23 1 0
BITMAP
0100
0380
0FC0
1EE0
1C70
0820
0000
07C0
1FF0
3FF8
7C7C
783C
F03C
F03C
F03E
F03E
F03C
F03C
783C
7C78
3FF8
1FF0
07C0
ENDCHAR
STARTCHAR 00F5
ENCODING 245
SWIDTH 510 0
DWIDTH 17 0
BBX 15 22 1 0
BITMAP
0E30
1FF8
3FF0
11E0
0000
0000
07C0
1FF0
3FF8
7C7C
783C
F03C
F03C
F03E
F03E
F03C
F03C
783C
7C78
3FF8
1FF0
07C0
ENDCHAR
STARTCHAR 00F6
ENCODING 246
SWIDTH 510 0
DWIDTH 17 0
BBX 15 23 1 0
BITMAP
3C70
3CF8
3CF8
3C70
0000
0000
0000
07C0
1FF0
3FF8
7C7C
783C
F03C
F03C
F03E
F03E
F03C
F03C
783C
7C78
3FF8
1FF0
07C0
ENDCHAR
STARTCHAR 00F7
ENCODING 247
SWIDTH 510 0
DWIDTH 17 0
BBX 14 17 1 0
BITMAP
0380
0780
07C0
0780
0380
0000
0000
FFFC
FFFC
FFFC
0000
0000
0380
0780
07C0
0780
0380
ENDCHAR
STARTCHAR 00F8
ENCODING 248
SWIDTH 510 0
DWIDTH 17 0
BBX 15 17 1 -1
BITMAP
0008
07DC
1FFC
3FF8
7C78
78FC
F1FC
F3FC
F3FE
F7BE
FF3C
FE3C
7E3C
7C78
3FF8
7FF0
6FC0
ENDCHAR
STARTCHAR 00F9
ENCODING 249
SWIDTH 510 0
DWIDTH 17 0
BBX 12 23 2 0
BITMAP
0800
1E00
1F00
1F80
0780
0180
0000
F0F0
F0F0
F0F0
F0F0
F0F0
F0F0
F0F0
F0F0
F0F0
F0F0
F0F0
F0F0
F8F0
7FF0
3FF0
1FE0
ENDCHAR
STARTCHAR 00FA
ENCODING 250
SWIDTH 510 0
DWIDTH 17 0
BBX 12 23 2 0
BITMAP
0100
0380
0F80
1F80
1E00
0800
0000
F0F0
F0F0
F0F0
F0F0
F0F0
F0F0
F0F0
F0F0
F0F0
F0F0
F0F0
F0F0
F8F0
7FF0
3FF0
1FE0
ENDCHAR
STARTCHAR 00FB
ENCODING 251
SWIDTH 510 0
DWIDTH 17 0
BBX 12 23 2 0
BITMAP
0200
0700
1F80
3DC0
38E0
1040
0000
F0F0
F0F0
F0F0
F0F0
F0F0
F0F0
F0F0
F0F0
F0F0
F0F0
F0F0
F0F0
F8F0
7FF0
3FF0
1FE0
ENDCHAR
STARTCHAR 00FC
ENCODING 252
SWIDTH 510 0
DWIDTH 17 0
BBX 12 23 2 0
BITMAP
78E0
79F0
79F0
78E0
0000
0000
0000
F0F0
F0F0
F0F0
F0F0
F0F0
F0F0
F0F0
F0F0
F0F0
F0F0
F0F0
F0F0
F8F0
7FF0
3FF0
1FE0
ENDCHAR
STARTCHAR 00FD
ENCODING 253
SWIDTH 510 0
DWIDTH 17 0
BBX 14 28 1 -5
BITMAP
0080
01C0
07C0
0FC0
0F00
0400
0000
F83C
783C
783C
783C
7C78
3C78
3C78
3E70
1EF0
1EF0
0FE0
0FE0
0FE0
07C0
07C0
0380
0780
8F80
FF00
FE00
FC00
ENDCHAR
STARTCHAR 00FE
ENCODING 254
SWIDTH 510 0
DWIDTH 17 0
BBX 13 28 2 -5
BITMAP
F000
F000
F000
F000
F000
F000
F000
FF80
FFE0
FFF0
F0F0
F078
F078
F078
F078
F078
F078
F078
F078
F0F8
FFF0
FFE0
F7C0
F000
F000
F000
F000
F000
ENDCHAR
STARTCHAR 00FF
ENCODING 255
SWIDTH 510 0
DWIDTH 17 0
BBX 14 28 1 -5
BITMAP
3C70
3CF8
3CF8
3C70
0000
0000
0000
F83C
783C
783C
783C
7C78
3C78
3C78
3E70
1EF0
1EF0
0FE0
0FE0
0FE0
07C0
07C0
0380
0780
8F80
FF00
FE00
FC00
ENDCHAR
STARTCHAR 0152
ENCODING 140
SWIDTH 510 0
DWIDTH 17 0
BBX 15 20 1 0
BITMAP
0FFE
3FFE
7FFE
79E0
F1E0
F1E0
F1E0
F1E0
E1FC
E1FC
E1FC
E1E0
E1E0
F1E0
F1E0
F1E0
79E0
7FFE
3FFE
0FFE
ENDCHAR
STARTCHAR 0153
ENCODING 156
SWIDTH 510 0
DWIDTH 17 0
BBX 15 16 1 0
BITMAP
3C78
7EFC
7FFC
F7DE
E38E
E38E
E38E
E3FE
E3FE
E3FE
E380
E380
F7C4
7FFC
7EFC
3C7C
ENDCHAR
STARTCHAR 0160
ENCODING 138
SWIDTH 510 0
DWIDTH 17 0
BBX 14 28 1 0
BITMAP
0820
1C60
1EE0
0FC0
0380
0100
0000
0000
0FE0
3FF8
3FF8
7C10
7800
7800
7800
7C00
7F80
3FE0
0FF8
01F8
007C
003C
003C
003C
607C
7FF8
FFF0
3FE0
ENDCHAR
STARTCHAR 0161
ENCODING 154
SWIDTH 510 0
DWIDTH 17 0
BBX 13 23 2 0
BITMAP
1040
38C0
3DC0
1F80
0700
0200
0000
1FE0
3FF0
7FF0
F820
F000
F800
FF00
7FC0
3FE0
07F0
00F8
0078
E0F0
FFF0
FFE0
3F80
ENDCHAR
STARTCHAR 0178
ENCODING 159
SWIDTH 510 0
DWIDTH 17 0
BBX 15 28 1 0
BITMAP
3C70
3CF8
3CF8
3C70
0000
0000
0000
0000
F01E
F03E
F83C
783C
7878
3C78
3C70
1EF0
1EE0
0FE0
0FC0
07C0
0780
0780
0780
0780
0780
0780
0780
0780
ENDCHAR
STARTCHAR 017D
ENCODING 142
SWIDTH 510 0
DWIDTH 17 0
BBX 13 28 2 0
BITMAP
1040
38C0
3DC0
1F80
0700
0200
0000
0000
FFF8
FFF8
FFF8
01F0
01F0
03E0
03C0
07C0
0780
0F80
1F00
1E00
3E00
3C00
7C00
7800
F000
FFF8
FFF8
FFF8
ENDCHAR
STARTCHAR 017E
ENCODING 158
SWIDTH 510 0
DWIDTH 17 0
BBX 12 23 2 0
BITMAP
1040
38C0
3DC0
1F80
0700
0200
0000
7FF0
7FF0
7FF0
01F0
03E0
07C0
0780
0F80
1F00
1E00
3E00
7C00
7800
FFF0
FFF0
FFF0
ENDCHAR
STARTCHAR 0192
ENCODING 131
SWIDTH 510 0
DWIDTH 17 0
BBX 16 28 0 -5
BITMAP
00FE
03FF
03FF
07C3
0780
0780
0780
7FFE
7FFE
7FFE
0780
0780
0780
0780
0780
0780
0780
0780
0780
0780
0780
0780
0780
0F00
0F00
7F00
FE00
F800
ENDCHAR
STARTCHAR 02C6
ENCODING 136
SWIDTH 510 0
DWIDTH 17 0
BBX 9 6 4 17
BITMAP
0800
1C00
7E00
F700
E380
4100
ENDCHAR
STARTCHAR 02DC
ENCODING 152
SWIDTH 510 0
DWIDTH 17 0
BBX 11 4 3 18
BITMAP
38C0
7FE0
FFC0
4780
ENDCHAR
STARTCHAR 2013
ENCODING 150
SWIDTH 510 0
DWIDTH 17 0
BBX 13 3 2 7
BITMAP
FFF8
FFF8
FFF8
ENDCHAR
STARTCHAR 2014
ENCODING 151
SWIDTH 510 0
DWIDTH 17 0
BBX 17 3 0 7
BITMAP
FFFF80
FFFF80
FFFF80
ENDCHAR
STARTCHAR 2018
ENCODING 145
SWIDTH 510 0
DWIDTH 17 0
BBX 7 11 5 12
BITMAP
0E
1E
3E
70
E0
F8
F8
FC
FC
F8
70
ENDCHAR
STARTCHAR 2019
ENCODING 146
SWIDTH 510 0
DWIDTH 17 0
BBX 7 11 5 13
BITMAP
3C
7E
7E
7E
7E
3E
0E
1C
F8
F0
C0
ENDCHAR
STARTCHAR 201A
ENCODING 130
SWIDTH 510 0
DWIDTH 17 0
BBX 7 11 4 -5
BITMAP
1C
3E
3E
3E
3E
1E
0E
3C
FC
F8
60
ENDCHAR
STARTCHAR 201C
ENCODING 147
SWIDTH 510 0
DWIDTH 17 0
BBX 15 9 1 13
BITMAP
0E0C
1E3E
3C78
7060
70E0
F8F8
F8F8
78F8
7070
ENDCHAR
STARTCHAR 201D
ENCODING 148
SWIDTH 510 0
DWIDTH 17 0
BBX 14 9 1 14
BITMAP
1C3C
3C3C
3E3C
3E3C
1C1C
1C1C
7878
F0F0
E0C0
ENDCHAR
STARTCHAR 201E
ENCODING 132
SWIDTH 510 0
DWIDTH 17 0
BBX 14 9 1 -5
BITMAP
3838
7C7C
7C7C
7C7C
3C3C
1818
7878
F1F0
C0C0
ENDCHAR
STARTCHAR 2020
ENCODING 134
SWIDTH 510 0
DWIDTH 17 0
BBX 13 24 2 -4
BITMAP
0F00
0F00
0F00
0F00
0F00
0F00
FFF8
FFF8
FFF8
0F00
0F00
0F00
0F00
0F00
0F00
0F00
0F00
0F00
0700
0700
0700
0700
0700
0700
ENDCHAR
STARTCHAR 2021
ENCODING 135
SWIDTH 510 0
DWIDTH 17 0
BBX 12 24 2 -4
BITMAP
0F00
0F00
0F00
0F00
0F00
0F00
FFF0
FFF0
FFF0
0F00
0F00
0F00
0F00
FFF0
FFF0
FFF0
0F00
0F00
0F00
0F00
0700
0700
0700
0600
ENDCHAR
STARTCHAR 2022
ENCODING 149
SWIDTH 510 0
DWIDTH 17 0
BBX 9 9 4 7
BITMAP
3C00
7F00
FF00
FF80
FF80
FF80
FF00
7F00
3C00
ENDCHAR
STARTCHAR 2026
ENCODING 133
SWIDTH 510 0
DWIDTH 17 0
BBX 15 3 1 0
BITMAP
E39C
F79E
E39C
ENDCHAR
STARTCHAR 2030
ENCODING 137
SWIDTH 510 0
DWIDTH 17 0
BBX 16 20 0 0
BITMAP
3800
7C00
6E00
EE00
EE03
6E0E
7C38
7CE0
0380
1E00
7000
4E1E
1F3F
1BB3
19B3
19B3
19B3
1BB3
1F3F
0E1E
ENDCHAR
STARTCHAR 2039
ENCODING 139
SWIDTH 510 0
DWIDTH 17 0
BBX 7 16 5 0
BITMAP
08
1E
1E
3E
7C
7C
F8
F8
F8
F8
7C
7C
3E
1E
1E
08
ENDCHAR
STARTCHAR 203A
ENCODING 155
SWIDTH 510 0
DWIDTH 17 0
BBX 8 16 5 1
BITMAP
30
70
F8
7C
7C
3E
3E
1F
1F
3E
3E
7C
7C
F8
70
30
ENDCHAR
STARTCHAR 20AC
ENCODING 128
SWIDTH 510 0
DWIDTH 17 0
BBX 15 20 1 0
BITMAP
01FC
07FC
0FFC
1F04
1E00
3E00
FFF0
FFF0
FFF0
3C00
3C00
FFF0
FFE0
FFE0
3E00
1E00
1F04
0FFC
07FE
01FC
ENDCHAR
STARTCHAR 2122
ENCODING 153
SWIDTH 510 0
DWIDTH 17 0
BBX 15 8 1 12
BITMAP
FD8C
FDCC
315C
3154
3174
3126
3306
3306
ENDCHAR
ENDFONT
