STARTFONT 2.1
COMMENT
COMMENT Converted from OpenType font "UbuntuMono-Bold.ttf" by "otf2bdf 3.0".
COMMENT
FONT -FreeType-ubuntu mono-Bold-R-Normal--14-100-100-100-P-57-Windows-cp1252
SIZE 10 100 100
FONTBOUNDINGBOX 7 15 0 -2
STARTPROPERTIES 19
FOUNDRY "FreeType"
FAMILY_NAME "ubuntu mono"
WEIGHT_NAME "Bold"
SLANT "R"
SETWIDTH_NAME "Normal"
ADD_STYLE_NAME ""
PIXEL_SIZE 14
POINT_SIZE 100
RESOLUTION_X 100
RESOLUTION_Y 100
SPACING "P"
AVERAGE_WIDTH 57
CHARSET_REGISTRY "Windows"
CHARSET_ENCODING "cp1252"
FONT_ASCENT 11
FONT_DESCENT 2
COPYRIGHT "Copyright 2011 Canonical Ltd.  Licensed under the Ubuntu Font Licence 1.0"
_OTF_FONTFILE "UbuntuMono-Bold.ttf"
_OTF_PSNAME "UbuntuMono-Bold"
ENDPROPERTIES
CHARS 223
STARTCHAR 0000
ENCODING 157
SWIDTH 504 0
DWIDTH 7 0
BBX 0 0 0 0
BITMAP
ENDCHAR
STARTCHAR 0008
ENCODING 8
SWIDTH 504 0
DWIDTH 7 0
BBX 0 0 0 0
BITMAP
ENDCHAR
STARTCHAR 0009
ENCODING 9
SWIDTH 504 0
DWIDTH 7 0
BBX 0 0 0 0
BITMAP
ENDCHAR
STARTCHAR 000D
ENCODING 13
SWIDTH 504 0
DWIDTH 7 0
BBX 0 0 0 0
BITMAP
ENDCHAR
STARTCHAR 001D
ENCODING 29
SWIDTH 504 0
DWIDTH 7 0
BBX 0 0 0 0
BITMAP
ENDCHAR
STARTCHAR 0020
ENCODING 32
SWIDTH 504 0
DWIDTH 7 0
BBX 0 0 0 0
BITMAP
ENDCHAR
STARTCHAR 0021
ENCODING 33
SWIDTH 504 0
DWIDTH 7 0
BBX 3 9 2 0
BITMAP
E0
E0
E0
40
40
40
00
E0
E0
ENDCHAR
STARTCHAR 0022
ENCODING 34
SWIDTH 504 0
DWIDTH 7 0
BBX 5 4 1 6
BITMAP
D8
D8
D8
50
ENDCHAR
STARTCHAR 0023
ENCODING 35
SWIDTH 504 0
DWIDTH 7 0
BBX 7 9 0 0
BITMAP
34
24
FE
FE
28
FE
FE
48
58
ENDCHAR
STARTCHAR 0024
ENCODING 36
SWIDTH 504 0
DWIDTH 7 0
BBX 5 11 1 -1
BITMAP
20
70
F8
C0
E0
F8
38
08
F8
E0
20
ENDCHAR
STARTCHAR 0025
ENCODING 37
SWIDTH 504 0
DWIDTH 7 0
BBX 7 9 0 0
BITMAP
66
A4
A8
68
10
2C
2A
4A
CC
ENDCHAR
STARTCHAR 0026
ENCODING 38
SWIDTH 504 0
DWIDTH 7 0
BBX 7 9 0 0
BITMAP
38
78
48
70
74
DC
CC
FC
76
ENDCHAR
STARTCHAR 0027
ENCODING 39
SWIDTH 504 0
DWIDTH 7 0
BBX 1 4 3 6
BITMAP
80
80
80
80
ENDCHAR
STARTCHAR 0028
ENCODING 40
SWIDTH 504 0
DWIDTH 7 0
BBX 4 12 1 -2
BITMAP
10
30
60
40
C0
C0
C0
C0
40
60
30
10
ENDCHAR
STARTCHAR 0029
ENCODING 41
SWIDTH 504 0
DWIDTH 7 0
BBX 4 12 2 -2
BITMAP
80
C0
60
20
30
30
30
30
20
60
C0
80
ENDCHAR
STARTCHAR 002A
ENCODING 42
SWIDTH 504 0
DWIDTH 7 0
BBX 5 5 1 4
BITMAP
20
A8
F8
50
50
ENDCHAR
STARTCHAR 002B
ENCODING 43
SWIDTH 504 0
DWIDTH 7 0
BBX 5 6 1 1
BITMAP
20
20
F8
F8
20
20
ENDCHAR
STARTCHAR 002C
ENCODING 44
SWIDTH 504 0
DWIDTH 7 0
BBX 3 5 2 -2
BITMAP
60
E0
60
40
80
ENDCHAR
STARTCHAR 002D
ENCODING 45
SWIDTH 504 0
DWIDTH 7 0
BBX 3 2 2 2
BITMAP
E0
E0
ENDCHAR
STARTCHAR 002E
ENCODING 46
SWIDTH 504 0
DWIDTH 7 0
BBX 3 3 2 0
BITMAP
40
E0
40
ENDCHAR
STARTCHAR 002F
ENCODING 47
SWIDTH 504 0
DWIDTH 7 0
BBX 5 12 1 -2
BITMAP
18
18
18
30
30
30
60
60
60
C0
C0
C0
ENDCHAR
STARTCHAR 0030
ENCODING 48
SWIDTH 504 0
DWIDTH 7 0
BBX 7 9 0 0
BITMAP
38
7C
6C
54
D6
44
6C
7C
38
ENDCHAR
STARTCHAR 0031
ENCODING 49
SWIDTH 504 0
DWIDTH 7 0
BBX 5 9 1 0
BITMAP
30
F0
F0
30
30
30
30
F8
F8
ENDCHAR
STARTCHAR 0032
ENCODING 50
SWIDTH 504 0
DWIDTH 7 0
BBX 5 9 1 0
BITMAP
70
F8
98
18
30
60
C0
F8
F8
ENDCHAR
STARTCHAR 0033
ENCODING 51
SWIDTH 504 0
DWIDTH 7 0
BBX 5 9 1 0
BITMAP
F0
F8
18
78
78
18
18
F8
F0
ENDCHAR
STARTCHAR 0034
ENCODING 52
SWIDTH 504 0
DWIDTH 7 0
BBX 7 9 0 0
BITMAP
0C
1C
3C
6C
4C
FE
FE
0C
0C
ENDCHAR
STARTCHAR 0035
ENCODING 53
SWIDTH 504 0
DWIDTH 7 0
BBX 5 9 1 0
BITMAP
F8
F8
C0
F0
F8
18
18
F8
F0
ENDCHAR
STARTCHAR 0036
ENCODING 54
SWIDTH 504 0
DWIDTH 7 0
BBX 5 9 1 0
BITMAP
38
78
C0
F0
F8
98
C8
F8
70
ENDCHAR
STARTCHAR 0037
ENCODING 55
SWIDTH 504 0
DWIDTH 7 0
BBX 5 9 1 0
BITMAP
F8
F8
18
10
30
20
60
60
60
ENDCHAR
STARTCHAR 0038
ENCODING 56
SWIDTH 504 0
DWIDTH 7 0
BBX 5 9 1 0
BITMAP
70
F8
88
D8
70
98
88
F8
F0
ENDCHAR
STARTCHAR 0039
ENCODING 57
SWIDTH 504 0
DWIDTH 7 0
BBX 5 9 1 0
BITMAP
70
F8
88
C8
F8
78
38
F0
E0
ENDCHAR
STARTCHAR 003A
ENCODING 58
SWIDTH 504 0
DWIDTH 7 0
BBX 3 7 2 0
BITMAP
40
E0
40
00
40
E0
40
ENDCHAR
STARTCHAR 003B
ENCODING 59
SWIDTH 504 0
DWIDTH 7 0
BBX 3 9 2 -2
BITMAP
40
E0
40
00
40
E0
60
40
80
ENDCHAR
STARTCHAR 003C
ENCODING 60
SWIDTH 504 0
DWIDTH 7 0
BBX 5 9 1 1
BITMAP
08
18
78
E0
C0
E0
78
18
08
ENDCHAR
STARTCHAR 003D
ENCODING 61
SWIDTH 504 0
DWIDTH 7 0
BBX 5 5 1 1
BITMAP
F8
F8
00
F8
F8
ENDCHAR
STARTCHAR 003E
ENCODING 62
SWIDTH 504 0
DWIDTH 7 0
BBX 5 9 1 1
BITMAP
80
C0
F0
38
18
38
F0
C0
80
ENDCHAR
STARTCHAR 003F
ENCODING 63
SWIDTH 504 0
DWIDTH 7 0
BBX 5 9 1 0
BITMAP
F0
F8
18
18
30
60
00
60
60
ENDCHAR
STARTCHAR 0040
ENCODING 64
SWIDTH 504 0
DWIDTH 7 0
BBX 7 11 0 -2
BITMAP
38
64
5E
DE
F6
F6
F6
DE
5C
60
3C
ENDCHAR
STARTCHAR 0041
ENCODING 65
SWIDTH 504 0
DWIDTH 7 0
BBX 7 9 0 0
BITMAP
38
38
28
28
6C
7C
7C
C6
C6
ENDCHAR
STARTCHAR 0042
ENCODING 66
SWIDTH 504 0
DWIDTH 7 0
BBX 6 9 1 0
BITMAP
F0
F8
98
F8
F8
88
8C
F8
F0
ENDCHAR
STARTCHAR 0043
ENCODING 67
SWIDTH 504 0
DWIDTH 7 0
BBX 6 9 0 0
BITMAP
3C
7C
64
C0
C0
C0
64
7C
3C
ENDCHAR
STARTCHAR 0044
ENCODING 68
SWIDTH 504 0
DWIDTH 7 0
BBX 6 9 1 0
BITMAP
F0
F8
98
8C
8C
8C
98
F8
F0
ENDCHAR
STARTCHAR 0045
ENCODING 69
SWIDTH 504 0
DWIDTH 7 0
BBX 5 9 1 0
BITMAP
F8
F8
C0
F8
F8
C0
C0
F8
F8
ENDCHAR
STARTCHAR 0046
ENCODING 70
SWIDTH 504 0
DWIDTH 7 0
BBX 5 9 1 0
BITMAP
F8
F8
C0
C0
F8
F8
C0
C0
C0
ENDCHAR
STARTCHAR 0047
ENCODING 71
SWIDTH 504 0
DWIDTH 7 0
BBX 6 9 0 0
BITMAP
3C
7C
64
C0
C4
C4
64
7C
3C
ENDCHAR
STARTCHAR 0048
ENCODING 72
SWIDTH 504 0
DWIDTH 7 0
BBX 5 9 1 0
BITMAP
88
88
88
F8
F8
88
88
88
88
ENDCHAR
STARTCHAR 0049
ENCODING 73
SWIDTH 504 0
DWIDTH 7 0
BBX 5 9 1 0
BITMAP
F8
F8
20
20
20
20
20
F8
F8
ENDCHAR
STARTCHAR 004A
ENCODING 74
SWIDTH 504 0
DWIDTH 7 0
BBX 5 9 1 0
BITMAP
F8
F8
18
18
18
18
98
F8
F0
ENDCHAR
STARTCHAR 004B
ENCODING 75
SWIDTH 504 0
DWIDTH 7 0
BBX 6 9 1 0
BITMAP
98
98
B0
A0
E0
B0
98
98
8C
ENDCHAR
STARTCHAR 004C
ENCODING 76
SWIDTH 504 0
DWIDTH 7 0
BBX 5 9 1 0
BITMAP
C0
C0
C0
C0
C0
C0
C0
F8
F8
ENDCHAR
STARTCHAR 004D
ENCODING 77
SWIDTH 504 0
DWIDTH 7 0
BBX 7 9 0 0
BITMAP
44
6C
6C
6C
7C
D6
C6
C6
C6
ENDCHAR
STARTCHAR 004E
ENCODING 78
SWIDTH 504 0
DWIDTH 7 0
BBX 5 9 1 0
BITMAP
88
C8
C8
E8
A8
B8
98
98
88
ENDCHAR
STARTCHAR 004F
ENCODING 79
SWIDTH 504 0
DWIDTH 7 0
BBX 7 9 0 0
BITMAP
38
7C
44
C6
C6
C6
44
7C
38
ENDCHAR
STARTCHAR 0050
ENCODING 80
SWIDTH 504 0
DWIDTH 7 0
BBX 6 9 1 0
BITMAP
F0
F8
8C
8C
F8
F0
80
80
80
ENDCHAR
STARTCHAR 0051
ENCODING 81
SWIDTH 504 0
DWIDTH 7 0
BBX 7 11 0 -2
BITMAP
38
7C
44
C6
C6
C6
44
7C
38
1C
0C
ENDCHAR
STARTCHAR 0052
ENCODING 82
SWIDTH 504 0
DWIDTH 7 0
BBX 6 9 1 0
BITMAP
F0
F8
98
98
F8
F0
98
98
8C
ENDCHAR
STARTCHAR 0053
ENCODING 83
SWIDTH 504 0
DWIDTH 7 0
BBX 5 9 1 0
BITMAP
78
F8
80
E0
F8
38
88
F8
F0
ENDCHAR
STARTCHAR 0054
ENCODING 84
SWIDTH 504 0
DWIDTH 7 0
BBX 7 9 0 0
BITMAP
FE
FE
10
10
10
10
10
10
10
ENDCHAR
STARTCHAR 0055
ENCODING 85
SWIDTH 504 0
DWIDTH 7 0
BBX 5 9 1 0
BITMAP
88
88
88
88
88
88
88
F8
70
ENDCHAR
STARTCHAR 0056
ENCODING 86
SWIDTH 504 0
DWIDTH 7 0
BBX 7 9 0 0
BITMAP
C6
C6
44
6C
6C
28
28
38
38
ENDCHAR
STARTCHAR 0057
ENCODING 87
SWIDTH 504 0
DWIDTH 7 0
BBX 7 9 0 0
BITMAP
C6
C6
C6
D6
D4
6C
6C
6C
44
ENDCHAR
STARTCHAR 0058
ENCODING 88
SWIDTH 504 0
DWIDTH 7 0
BBX 7 9 0 0
BITMAP
44
6C
28
38
38
38
6C
6C
C6
ENDCHAR
STARTCHAR 0059
ENCODING 89
SWIDTH 504 0
DWIDTH 7 0
BBX 7 9 0 0
BITMAP
C6
64
6C
28
38
10
10
10
10
ENDCHAR
STARTCHAR 005A
ENCODING 90
SWIDTH 504 0
DWIDTH 7 0
BBX 5 9 1 0
BITMAP
F8
F8
10
30
20
40
C0
F8
F8
ENDCHAR
STARTCHAR 005B
ENCODING 91
SWIDTH 504 0
DWIDTH 7 0
BBX 3 12 2 -2
BITMAP
E0
E0
80
80
80
80
80
80
80
80
E0
E0
ENDCHAR
STARTCHAR 005C
ENCODING 92
SWIDTH 504 0
DWIDTH 7 0
BBX 5 12 1 -2
BITMAP
C0
C0
40
60
60
60
30
30
30
18
18
18
ENDCHAR
STARTCHAR 005D
ENCODING 93
SWIDTH 504 0
DWIDTH 7 0
BBX 3 12 2 -2
BITMAP
E0
E0
20
20
20
20
20
20
20
20
E0
E0
ENDCHAR
STARTCHAR 005E
ENCODING 94
SWIDTH 504 0
DWIDTH 7 0
BBX 5 5 1 4
BITMAP
30
70
D8
D8
88
ENDCHAR
STARTCHAR 005F
ENCODING 95
SWIDTH 504 0
DWIDTH 7 0
BBX 7 2 0 -2
BITMAP
FE
FE
ENDCHAR
STARTCHAR 0060
ENCODING 96
SWIDTH 504 0
DWIDTH 7 0
BBX 2 2 3 8
BITMAP
80
C0
ENDCHAR
STARTCHAR 0061
ENCODING 97
SWIDTH 504 0
DWIDTH 7 0
BBX 5 7 1 0
BITMAP
F0
F8
18
F8
88
F8
F8
ENDCHAR
STARTCHAR 0062
ENCODING 98
SWIDTH 504 0
DWIDTH 7 0
BBX 6 10 1 0
BITMAP
C0
C0
C0
F0
F8
CC
CC
C8
F8
F0
ENDCHAR
STARTCHAR 0063
ENCODING 99
SWIDTH 504 0
DWIDTH 7 0
BBX 6 7 1 0
BITMAP
78
F8
C0
80
C0
F8
7C
ENDCHAR
STARTCHAR 0064
ENCODING 100
SWIDTH 504 0
DWIDTH 7 0
BBX 6 10 0 0
BITMAP
0C
0C
0C
7C
7C
CC
CC
CC
7C
3C
ENDCHAR
STARTCHAR 0065
ENCODING 101
SWIDTH 504 0
DWIDTH 7 0
BBX 7 7 0 0
BITMAP
38
7C
44
FE
40
7C
3C
ENDCHAR
STARTCHAR 0066
ENCODING 102
SWIDTH 504 0
DWIDTH 7 0
BBX 7 10 0 0
BITMAP
1E
3E
30
FC
FC
30
30
30
30
30
ENDCHAR
STARTCHAR 0067
ENCODING 103
SWIDTH 504 0
DWIDTH 7 0
BBX 6 9 0 -2
BITMAP
3C
7C
4C
CC
7C
7C
0C
7C
78
ENDCHAR
STARTCHAR 0068
ENCODING 104
SWIDTH 504 0
DWIDTH 7 0
BBX 5 10 1 0
BITMAP
C0
C0
C0
F0
F8
D8
D8
D8
D8
D8
ENDCHAR
STARTCHAR 0069
ENCODING 105
SWIDTH 504 0
DWIDTH 7 0
BBX 7 10 0 0
BITMAP
30
30
00
F0
F0
30
30
30
3C
1E
ENDCHAR
STARTCHAR 006A
ENCODING 106
SWIDTH 504 0
DWIDTH 7 0
BBX 5 12 1 -2
BITMAP
30
30
00
F8
F8
18
18
18
18
98
F0
F0
ENDCHAR
STARTCHAR 006B
ENCODING 107
SWIDTH 504 0
DWIDTH 7 0
BBX 6 10 1 0
BITMAP
C0
C0
C0
D8
D0
F0
E0
F0
D8
CC
ENDCHAR
STARTCHAR 006C
ENCODING 108
SWIDTH 504 0
DWIDTH 7 0
BBX 7 10 0 0
BITMAP
F0
F0
30
30
30
30
30
30
3C
1E
ENDCHAR
STARTCHAR 006D
ENCODING 109
SWIDTH 504 0
DWIDTH 7 0
BBX 7 7 0 0
BITMAP
FC
FE
D6
D6
C6
C6
C6
ENDCHAR
STARTCHAR 006E
ENCODING 110
SWIDTH 504 0
DWIDTH 7 0
BBX 5 7 1 0
BITMAP
F0
F8
D8
D8
D8
D8
D8
ENDCHAR
STARTCHAR 006F
ENCODING 111
SWIDTH 504 0
DWIDTH 7 0
BBX 7 7 0 0
BITMAP
38
7C
46
C6
46
7C
38
ENDCHAR
STARTCHAR 0070
ENCODING 112
SWIDTH 504 0
DWIDTH 7 0
BBX 6 9 1 -2
BITMAP
F0
F8
C8
CC
C8
F8
F0
C0
C0
ENDCHAR
STARTCHAR 0071
ENCODING 113
SWIDTH 504 0
DWIDTH 7 0
BBX 6 9 0 -2
BITMAP
3C
7C
4C
CC
4C
7C
3C
0C
0C
ENDCHAR
STARTCHAR 0072
ENCODING 114
SWIDTH 504 0
DWIDTH 7 0
BBX 5 7 1 0
BITMAP
F8
F8
C0
C0
C0
C0
C0
ENDCHAR
STARTCHAR 0073
ENCODING 115
SWIDTH 504 0
DWIDTH 7 0
BBX 5 7 1 0
BITMAP
78
F8
C0
70
18
F8
F0
ENDCHAR
STARTCHAR 0074
ENCODING 116
SWIDTH 504 0
DWIDTH 7 0
BBX 7 9 0 0
BITMAP
30
30
FC
FC
30
30
30
3C
1E
ENDCHAR
STARTCHAR 0075
ENCODING 117
SWIDTH 504 0
DWIDTH 7 0
BBX 5 7 1 0
BITMAP
D8
D8
D8
D8
D8
F8
78
ENDCHAR
STARTCHAR 0076
ENCODING 118
SWIDTH 504 0
DWIDTH 7 0
BBX 7 7 0 0
BITMAP
C6
44
6C
6C
38
38
30
ENDCHAR
STARTCHAR 0077
ENCODING 119
SWIDTH 504 0
DWIDTH 7 0
BBX 7 7 0 0
BITMAP
C6
D6
D6
7C
6C
6C
6C
ENDCHAR
STARTCHAR 0078
ENCODING 120
SWIDTH 504 0
DWIDTH 7 0
BBX 5 7 1 0
BITMAP
88
D8
70
30
70
D8
88
ENDCHAR
STARTCHAR 0079
ENCODING 121
SWIDTH 504 0
DWIDTH 7 0
BBX 6 9 0 -2
BITMAP
44
64
6C
2C
38
38
18
30
E0
ENDCHAR
STARTCHAR 007A
ENCODING 122
SWIDTH 504 0
DWIDTH 7 0
BBX 5 7 1 0
BITMAP
F8
F8
30
20
40
F8
F8
ENDCHAR
STARTCHAR 007B
ENCODING 123
SWIDTH 504 0
DWIDTH 7 0
BBX 5 12 1 -2
BITMAP
38
78
60
60
60
E0
E0
60
60
60
78
38
ENDCHAR
STARTCHAR 007C
ENCODING 124
SWIDTH 504 0
DWIDTH 7 0
BBX 1 12 3 -2
BITMAP
80
80
80
80
80
80
80
80
80
80
80
80
ENDCHAR
STARTCHAR 007D
ENCODING 125
SWIDTH 504 0
DWIDTH 7 0
BBX 5 12 1 -2
BITMAP
E0
F0
30
30
30
38
38
30
30
30
F0
E0
ENDCHAR
STARTCHAR 007E
ENCODING 126
SWIDTH 504 0
DWIDTH 7 0
BBX 7 3 0 2
BITMAP
76
7E
DC
ENDCHAR
STARTCHAR 00A0
ENCODING 160
SWIDTH 504 0
DWIDTH 7 0
BBX 0 0 0 0
BITMAP
ENDCHAR
STARTCHAR 00A1
ENCODING 161
SWIDTH 504 0
DWIDTH 7 0
BBX 3 9 2 -2
BITMAP
E0
E0
00
40
40
40
E0
E0
E0
ENDCHAR
STARTCHAR 00A2
ENCODING 162
SWIDTH 504 0
DWIDTH 7 0
BBX 5 11 1 -2
BITMAP
30
30
78
F8
C0
80
C0
F8
78
30
30
ENDCHAR
STARTCHAR 00A3
ENCODING 163
SWIDTH 504 0
DWIDTH 7 0
BBX 5 9 1 0
BITMAP
38
78
48
40
F0
F0
40
F8
F8
ENDCHAR
STARTCHAR 00A4
ENCODING 164
SWIDTH 504 0
DWIDTH 7 0
BBX 5 6 1 1
BITMAP
88
F8
D8
D8
F8
88
ENDCHAR
STARTCHAR 00A5
ENCODING 165
SWIDTH 504 0
DWIDTH 7 0
BBX 7 9 0 0
BITMAP
C6
64
6C
28
7C
10
7C
10
10
ENDCHAR
STARTCHAR 00A6
ENCODING 166
SWIDTH 504 0
DWIDTH 7 0
BBX 1 12 3 -2
BITMAP
80
80
80
80
80
00
00
80
80
80
80
80
ENDCHAR
STARTCHAR 00A7
ENCODING 167
SWIDTH 504 0
DWIDTH 7 0
BBX 5 10 1 -1
BITMAP
78
F8
C0
F0
98
C8
78
18
F8
F0
ENDCHAR
STARTCHAR 00A8
ENCODING 168
SWIDTH 504 0
DWIDTH 7 0
BBX 5 2 1 8
BITMAP
D8
D8
ENDCHAR
STARTCHAR 00A9
ENCODING 169
SWIDTH 504 0
DWIDTH 7 0
BBX 7 7 0 0
BITMAP
38
44
B2
A2
BA
44
38
ENDCHAR
STARTCHAR 00AA
ENCODING 170
SWIDTH 504 0
DWIDTH 7 0
BBX 5 5 1 4
BITMAP
70
18
78
D8
78
ENDCHAR
STARTCHAR 00AB
ENCODING 171
SWIDTH 504 0
DWIDTH 7 0
BBX 5 6 1 1
BITMAP
48
58
90
90
58
48
ENDCHAR
STARTCHAR 00AC
ENCODING 172
SWIDTH 504 0
DWIDTH 7 0
BBX 5 5 1 0
BITMAP
F8
F8
08
08
08
ENDCHAR
STARTCHAR 00AD
ENCODING 173
SWIDTH 504 0
DWIDTH 7 0
BBX 3 2 2 2
BITMAP
E0
E0
ENDCHAR
STARTCHAR 00AE
ENCODING 174
SWIDTH 504 0
DWIDTH 7 0
BBX 7 7 0 0
BITMAP
38
44
BA
BA
AA
44
38
ENDCHAR
STARTCHAR 00AF
ENCODING 175
SWIDTH 504 0
DWIDTH 7 0
BBX 4 1 2 8
BITMAP
F0
ENDCHAR
STARTCHAR 00B0
ENCODING 176
SWIDTH 504 0
DWIDTH 7 0
BBX 3 4 2 6
BITMAP
E0
A0
A0
E0
ENDCHAR
STARTCHAR 00B1
ENCODING 177
SWIDTH 504 0
DWIDTH 7 0
BBX 5 9 1 0
BITMAP
20
20
F8
F8
20
20
00
F8
F8
ENDCHAR
STARTCHAR 00B2
ENCODING 178
SWIDTH 504 0
DWIDTH 7 0
BBX 3 5 2 4
BITMAP
E0
A0
60
C0
E0
ENDCHAR
STARTCHAR 00B3
ENCODING 179
SWIDTH 504 0
DWIDTH 7 0
BBX 3 5 2 4
BITMAP
E0
A0
60
20
E0
ENDCHAR
STARTCHAR 00B4
ENCODING 180
SWIDTH 504 0
DWIDTH 7 0
BBX 3 2 2 8
BITMAP
60
C0
ENDCHAR
STARTCHAR 00B5
ENCODING 181
SWIDTH 504 0
DWIDTH 7 0
BBX 5 9 1 -2
BITMAP
D8
D8
D8
D8
D8
F8
F8
C0
C0
ENDCHAR
STARTCHAR 00B6
ENCODING 182
SWIDTH 504 0
DWIDTH 7 0
BBX 6 11 0 -2
BITMAP
7C
FC
F4
F4
74
34
34
34
34
34
34
ENDCHAR
STARTCHAR 00B7
ENCODING 183
SWIDTH 504 0
DWIDTH 7 0
BBX 3 3 2 3
BITMAP
40
E0
40
ENDCHAR
STARTCHAR 00B8
ENCODING 184
SWIDTH 504 0
DWIDTH 7 0
BBX 3 2 2 -2
BITMAP
40
E0
ENDCHAR
STARTCHAR 00B9
ENCODING 185
SWIDTH 504 0
DWIDTH 7 0
BBX 4 5 2 4
BITMAP
60
E0
60
60
F0
ENDCHAR
STARTCHAR 00BA
ENCODING 186
SWIDTH 504 0
DWIDTH 7 0
BBX 5 7 1 2
BITMAP
70
F8
D8
98
D8
F8
70
ENDCHAR
STARTCHAR 00BB
ENCODING 187
SWIDTH 504 0
DWIDTH 7 0
BBX 5 6 1 1
BITMAP
90
D0
48
48
D0
90
ENDCHAR
STARTCHAR 00BC
ENCODING 188
SWIDTH 504 0
DWIDTH 7 0
BBX 6 9 1 0
BITMAP
88
98
90
B0
20
68
58
DC
88
ENDCHAR
STARTCHAR 00BD
ENCODING 189
SWIDTH 504 0
DWIDTH 7 0
BBX 7 9 0 0
BITMAP
44
CC
48
58
10
3E
22
6C
4E
ENDCHAR
STARTCHAR 00BE
ENCODING 190
SWIDTH 504 0
DWIDTH 7 0
BBX 7 9 0 0
BITMAP
E4
6C
28
F8
10
34
2C
6E
44
ENDCHAR
STARTCHAR 00BF
ENCODING 191
SWIDTH 504 0
DWIDTH 7 0
BBX 5 9 1 -2
BITMAP
30
30
00
30
60
C0
C8
F8
70
ENDCHAR
STARTCHAR 00C0
ENCODING 192
SWIDTH 504 0
DWIDTH 7 0
BBX 7 12 0 0
BITMAP
30
18
00
38
38
28
28
6C
7C
7C
C6
C6
ENDCHAR
STARTCHAR 00C1
ENCODING 193
SWIDTH 504 0
DWIDTH 7 0
BBX 7 12 0 0
BITMAP
18
30
00
38
38
28
28
6C
7C
7C
C6
C6
ENDCHAR
STARTCHAR 00C2
ENCODING 194
SWIDTH 504 0
DWIDTH 7 0
BBX 7 13 0 0
BITMAP
10
38
28
00
38
38
28
28
6C
7C
7C
C6
C6
ENDCHAR
STARTCHAR 00C3
ENCODING 195
SWIDTH 504 0
DWIDTH 7 0
BBX 7 12 0 0
BITMAP
34
48
00
38
38
28
28
6C
7C
7C
C6
C6
ENDCHAR
STARTCHAR 00C4
ENCODING 196
SWIDTH 504 0
DWIDTH 7 0
BBX 7 12 0 0
BITMAP
6C
6C
00
38
38
28
28
6C
7C
7C
C6
C6
ENDCHAR
STARTCHAR 00C5
ENCODING 197
SWIDTH 504 0
DWIDTH 7 0
BBX 7 11 0 0
BITMAP
38
28
38
38
28
28
6C
7C
7C
C6
C6
ENDCHAR
STARTCHAR 00C6
ENCODING 198
SWIDTH 504 0
DWIDTH 7 0
BBX 7 9 0 0
BITMAP
1E
2E
28
2C
6C
78
78
CE
CE
ENDCHAR
STARTCHAR 00C7
ENCODING 199
SWIDTH 504 0
DWIDTH 7 0
BBX 6 11 0 -2
BITMAP
3C
7C
64
C0
C0
C0
60
7C
3C
18
38
ENDCHAR
STARTCHAR 00C8
ENCODING 200
SWIDTH 504 0
DWIDTH 7 0
BBX 5 12 1 0
BITMAP
60
30
00
F8
F8
C0
F8
F8
C0
C0
F8
F8
ENDCHAR
STARTCHAR 00C9
ENCODING 201
SWIDTH 504 0
DWIDTH 7 0
BBX 5 12 1 0
BITMAP
30
60
00
F8
F8
C0
F8
F8
C0
C0
F8
F8
ENDCHAR
STARTCHAR 00CA
ENCODING 202
SWIDTH 504 0
DWIDTH 7 0
BBX 5 13 1 0
BITMAP
20
70
50
00
F8
F8
C0
F8
F8
C0
C0
F8
F8
ENDCHAR
STARTCHAR 00CB
ENCODING 203
SWIDTH 504 0
DWIDTH 7 0
BBX 5 12 1 0
BITMAP
D8
D8
00
F8
F8
C0
F8
F8
C0
C0
F8
F8
ENDCHAR
STARTCHAR 00CC
ENCODING 204
SWIDTH 504 0
DWIDTH 7 0
BBX 5 12 1 0
BITMAP
60
30
00
F8
F8
20
20
20
20
20
F8
F8
ENDCHAR
STARTCHAR 00CD
ENCODING 205
SWIDTH 504 0
DWIDTH 7 0
BBX 5 12 1 0
BITMAP
30
60
00
F8
F8
20
20
20
20
20
F8
F8
ENDCHAR
STARTCHAR 00CE
ENCODING 206
SWIDTH 504 0
DWIDTH 7 0
BBX 5 13 1 0
BITMAP
20
70
50
00
F8
F8
20
20
20
20
20
F8
F8
ENDCHAR
STARTCHAR 00CF
ENCODING 207
SWIDTH 504 0
DWIDTH 7 0
BBX 5 12 1 0
BITMAP
D8
D8
00
F8
F8
20
20
20
20
20
F8
F8
ENDCHAR
STARTCHAR 00D0
ENCODING 208
SWIDTH 504 0
DWIDTH 7 0
BBX 7 9 0 0
BITMAP
78
7C
6C
66
F6
66
6C
7C
78
ENDCHAR
STARTCHAR 00D1
ENCODING 209
SWIDTH 504 0
DWIDTH 7 0
BBX 5 12 1 0
BITMAP
68
90
00
88
C8
C8
E8
A8
B8
98
98
88
ENDCHAR
STARTCHAR 00D2
ENCODING 210
SWIDTH 504 0
DWIDTH 7 0
BBX 7 12 0 0
BITMAP
30
18
00
38
7C
44
C6
C6
C6
44
7C
38
ENDCHAR
STARTCHAR 00D3
ENCODING 211
SWIDTH 504 0
DWIDTH 7 0
BBX 7 12 0 0
BITMAP
18
30
00
38
7C
44
C6
C6
C6
44
7C
38
ENDCHAR
STARTCHAR 00D4
ENCODING 212
SWIDTH 504 0
DWIDTH 7 0
BBX 7 13 0 0
BITMAP
10
38
28
00
38
7C
44
C6
C6
C6
44
7C
38
ENDCHAR
STARTCHAR 00D5
ENCODING 213
SWIDTH 504 0
DWIDTH 7 0
BBX 7 12 0 0
BITMAP
34
48
00
38
7C
44
C6
C6
C6
44
7C
38
ENDCHAR
STARTCHAR 00D6
ENCODING 214
SWIDTH 504 0
DWIDTH 7 0
BBX 7 12 0 0
BITMAP
6C
6C
00
38
7C
44
C6
C6
C6
44
7C
38
ENDCHAR
STARTCHAR 00D7
ENCODING 215
SWIDTH 504 0
DWIDTH 7 0
BBX 5 5 1 1
BITMAP
88
78
30
78
88
ENDCHAR
STARTCHAR 00D8
ENCODING 216
SWIDTH 504 0
DWIDTH 7 0
BBX 7 10 0 -1
BITMAP
3C
7C
4C
DE
D6
F6
64
7C
78
40
ENDCHAR
STARTCHAR 00D9
ENCODING 217
SWIDTH 504 0
DWIDTH 7 0
BBX 5 12 1 0
BITMAP
60
30
00
88
88
88
88
88
88
88
F8
70
ENDCHAR
STARTCHAR 00DA
ENCODING 218
SWIDTH 504 0
DWIDTH 7 0
BBX 5 12 1 0
BITMAP
10
60
00
88
88
88
88
88
88
88
F8
70
ENDCHAR
STARTCHAR 00DB
ENCODING 219
SWIDTH 504 0
DWIDTH 7 0
BBX 5 13 1 0
BITMAP
20
70
50
00
88
88
88
88
88
88
88
F8
70
ENDCHAR
STARTCHAR 00DC
ENCODING 220
SWIDTH 504 0
DWIDTH 7 0
BBX 5 12 1 0
BITMAP
D8
D8
00
88
88
88
88
88
88
88
F8
70
ENDCHAR
STARTCHAR 00DD
ENCODING 221
SWIDTH 504 0
DWIDTH 7 0
BBX 7 12 0 0
BITMAP
08
30
00
C6
64
6C
28
38
10
10
10
10
ENDCHAR
STARTCHAR 00DE
ENCODING 222
SWIDTH 504 0
DWIDTH 7 0
BBX 6 9 1 0
BITMAP
80
F0
F8
8C
8C
F8
F0
80
80
ENDCHAR
STARTCHAR 00DF
ENCODING 223
SWIDTH 504 0
DWIDTH 7 0
BBX 7 10 0 0
BITMAP
78
7C
CC
C8
D8
D8
CC
D6
DE
DC
ENDCHAR
STARTCHAR 00E0
ENCODING 224
SWIDTH 504 0
DWIDTH 7 0
BBX 5 10 1 0
BITMAP
60
30
00
F0
F8
18
F8
88
F8
F8
ENDCHAR
STARTCHAR 00E1
ENCODING 225
SWIDTH 504 0
DWIDTH 7 0
BBX 5 10 1 0
BITMAP
30
60
00
F0
F8
18
F8
88
F8
F8
ENDCHAR
STARTCHAR 00E2
ENCODING 226
SWIDTH 504 0
DWIDTH 7 0
BBX 5 11 1 0
BITMAP
20
70
50
00
F0
F8
18
F8
88
F8
F8
ENDCHAR
STARTCHAR 00E3
ENCODING 227
SWIDTH 504 0
DWIDTH 7 0
BBX 5 10 1 0
BITMAP
68
90
00
F0
F8
18
F8
88
F8
F8
ENDCHAR
STARTCHAR 00E4
ENCODING 228
SWIDTH 504 0
DWIDTH 7 0
BBX 5 10 1 0
BITMAP
D8
D8
00
F0
F8
18
F8
88
F8
F8
ENDCHAR
STARTCHAR 00E5
ENCODING 229
SWIDTH 504 0
DWIDTH 7 0
BBX 5 11 1 0
BITMAP
70
50
70
00
F0
F8
18
F8
88
F8
F8
ENDCHAR
STARTCHAR 00E6
ENCODING 230
SWIDTH 504 0
DWIDTH 7 0
BBX 7 7 0 0
BITMAP
7C
7E
16
7E
D0
FC
7E
ENDCHAR
STARTCHAR 00E7
ENCODING 231
SWIDTH 504 0
DWIDTH 7 0
BBX 6 9 1 -2
BITMAP
78
F8
C0
80
C0
F8
7C
30
70
ENDCHAR
STARTCHAR 00E8
ENCODING 232
SWIDTH 504 0
DWIDTH 7 0
BBX 7 10 0 0
BITMAP
30
18
00
38
7C
44
FE
40
7C
3C
ENDCHAR
STARTCHAR 00E9
ENCODING 233
SWIDTH 504 0
DWIDTH 7 0
BBX 7 10 0 0
BITMAP
08
30
00
38
7C
44
FE
40
7C
3C
ENDCHAR
STARTCHAR 00EA
ENCODING 234
SWIDTH 504 0
DWIDTH 7 0
BBX 7 11 0 0
BITMAP
10
38
28
00
38
7C
44
FE
40
7C
3C
ENDCHAR
STARTCHAR 00EB
ENCODING 235
SWIDTH 504 0
DWIDTH 7 0
BBX 7 10 0 0
BITMAP
6C
6C
00
38
7C
44
FE
40
7C
3C
ENDCHAR
STARTCHAR 00EC
ENCODING 236
SWIDTH 504 0
DWIDTH 7 0
BBX 6 10 0 0
BITMAP
20
10
00
F0
F0
30
30
30
3C
1C
ENDCHAR
STARTCHAR 00ED
ENCODING 237
SWIDTH 504 0
DWIDTH 7 0
BBX 6 10 0 0
BITMAP
18
30
00
F0
F0
30
30
30
3C
1C
ENDCHAR
STARTCHAR 00EE
ENCODING 238
SWIDTH 504 0
DWIDTH 7 0
BBX 6 11 0 0
BITMAP
10
38
28
00
F0
F0
30
30
30
3C
1C
ENDCHAR
STARTCHAR 00EF
ENCODING 239
SWIDTH 504 0
DWIDTH 7 0
BBX 6 10 0 0
BITMAP
6C
6C
00
F0
F0
30
30
30
3C
1C
ENDCHAR
STARTCHAR 00F0
ENCODING 240
SWIDTH 504 0
DWIDTH 7 0
BBX 6 10 1 0
BITMAP
20
3C
78
18
78
F8
88
98
F8
70
ENDCHAR
STARTCHAR 00F1
ENCODING 241
SWIDTH 504 0
DWIDTH 7 0
BBX 5 10 1 0
BITMAP
68
90
00
F0
F8
D8
D8
D8
D8
D8
ENDCHAR
STARTCHAR 00F2
ENCODING 242
SWIDTH 504 0
DWIDTH 7 0
BBX 7 10 0 0
BITMAP
30
18
00
38
7C
46
C6
46
7C
38
ENDCHAR
STARTCHAR 00F3
ENCODING 243
SWIDTH 504 0
DWIDTH 7 0
BBX 7 10 0 0
BITMAP
18
30
00
38
7C
46
C6
46
7C
38
ENDCHAR
STARTCHAR 00F4
ENCODING 244
SWIDTH 504 0
DWIDTH 7 0
BBX 7 11 0 0
BITMAP
10
38
28
00
38
7C
46
C6
46
7C
38
ENDCHAR
STARTCHAR 00F5
ENCODING 245
SWIDTH 504 0
DWIDTH 7 0
BBX 7 10 0 0
BITMAP
34
48
00
38
7C
46
C6
46
7C
38
ENDCHAR
STARTCHAR 00F6
ENCODING 246
SWIDTH 504 0
DWIDTH 7 0
BBX 7 10 0 0
BITMAP
6C
6C
00
38
7C
46
C6
46
7C
38
ENDCHAR
STARTCHAR 00F7
ENCODING 247
SWIDTH 504 0
DWIDTH 7 0
BBX 5 7 1 0
BITMAP
20
20
00
F8
00
20
20
ENDCHAR
STARTCHAR 00F8
ENCODING 248
SWIDTH 504 0
DWIDTH 7 0
BBX 7 7 0 0
BITMAP
3C
7C
6E
D6
6E
7C
78
ENDCHAR
STARTCHAR 00F9
ENCODING 249
SWIDTH 504 0
DWIDTH 7 0
BBX 5 10 1 0
BITMAP
60
30
00
D8
D8
D8
D8
D8
F8
78
ENDCHAR
STARTCHAR 00FA
ENCODING 250
SWIDTH 504 0
DWIDTH 7 0
BBX 5 10 1 0
BITMAP
30
60
00
D8
D8
D8
D8
D8
F8
78
ENDCHAR
STARTCHAR 00FB
ENCODING 251
SWIDTH 504 0
DWIDTH 7 0
BBX 5 11 1 0
BITMAP
20
70
50
00
D8
D8
D8
D8
D8
F8
78
ENDCHAR
STARTCHAR 00FC
ENCODING 252
SWIDTH 504 0
DWIDTH 7 0
BBX 5 10 1 0
BITMAP
D8
D8
00
D8
D8
D8
D8
D8
F8
78
ENDCHAR
STARTCHAR 00FD
ENCODING 253
SWIDTH 504 0
DWIDTH 7 0
BBX 6 12 0 -2
BITMAP
18
30
00
44
64
6C
2C
38
38
18
30
E0
ENDCHAR
STARTCHAR 00FE
ENCODING 254
SWIDTH 504 0
DWIDTH 7 0
BBX 6 12 1 -2
BITMAP
C0
C0
C0
F0
F8
C8
CC
C8
F8
F0
C0
C0
ENDCHAR
STARTCHAR 00FF
ENCODING 255
SWIDTH 504 0
DWIDTH 7 0
BBX 6 12 0 -2
BITMAP
6C
6C
00
44
64
6C
2C
38
38
18
30
E0
ENDCHAR
STARTCHAR 0152
ENCODING 140
SWIDTH 504 0
DWIDTH 7 0
BBX 7 9 0 0
BITMAP
3E
7E
C8
C8
CC
CC
C8
7E
3E
ENDCHAR
STARTCHAR 0153
ENCODING 156
SWIDTH 504 0
DWIDTH 7 0
BBX 7 7 0 0
BITMAP
6C
7E
D6
DE
D0
7C
6E
ENDCHAR
STARTCHAR 0160
ENCODING 138
SWIDTH 504 0
DWIDTH 7 0
BBX 5 13 1 0
BITMAP
50
70
20
00
78
F8
80
E0
F8
38
88
F8
F0
ENDCHAR
STARTCHAR 0161
ENCODING 154
SWIDTH 504 0
DWIDTH 7 0
BBX 5 11 1 0
BITMAP
50
70
20
00
78
F8
C0
70
18
F8
F0
ENDCHAR
STARTCHAR 0178
ENCODING 159
SWIDTH 504 0
DWIDTH 7 0
BBX 7 12 0 0
BITMAP
6C
6C
00
C6
64
6C
28
38
10
10
10
10
ENDCHAR
STARTCHAR 017D
ENCODING 142
SWIDTH 504 0
DWIDTH 7 0
BBX 5 13 1 0
BITMAP
50
70
20
00
F8
F8
10
30
20
40
C0
F8
F8
ENDCHAR
STARTCHAR 017E
ENCODING 158
SWIDTH 504 0
DWIDTH 7 0
BBX 5 11 1 0
BITMAP
50
70
20
00
F8
F8
30
20
40
F8
F8
ENDCHAR
STARTCHAR 0192
ENCODING 131
SWIDTH 504 0
DWIDTH 7 0
BBX 7 12 0 -2
BITMAP
1E
3E
30
30
FC
FC
30
30
30
30
F0
E0
ENDCHAR
STARTCHAR 02C6
ENCODING 136
SWIDTH 504 0
DWIDTH 7 0
BBX 3 3 2 7
BITMAP
40
E0
A0
ENDCHAR
STARTCHAR 02DC
ENCODING 152
SWIDTH 504 0
DWIDTH 7 0
BBX 5 2 1 7
BITMAP
68
90
ENDCHAR
STARTCHAR 2013
ENCODING 150
SWIDTH 504 0
DWIDTH 7 0
BBX 5 1 1 3
BITMAP
F8
ENDCHAR
STARTCHAR 2014
ENCODING 151
SWIDTH 504 0
DWIDTH 7 0
BBX 7 1 0 3
BITMAP
FE
ENDCHAR
STARTCHAR 2018
ENCODING 145
SWIDTH 504 0
DWIDTH 7 0
BBX 3 4 2 6
BITMAP
60
C0
C0
C0
ENDCHAR
STARTCHAR 2019
ENCODING 146
SWIDTH 504 0
DWIDTH 7 0
BBX 3 4 2 6
BITMAP
60
60
20
C0
ENDCHAR
STARTCHAR 201A
ENCODING 130
SWIDTH 504 0
DWIDTH 7 0
BBX 3 4 2 -2
BITMAP
60
E0
60
C0
ENDCHAR
STARTCHAR 201C
ENCODING 147
SWIDTH 504 0
DWIDTH 7 0
BBX 6 4 1 6
BITMAP
4C
90
D8
D8
ENDCHAR
STARTCHAR 201D
ENCODING 148
SWIDTH 504 0
DWIDTH 7 0
BBX 6 4 1 6
BITMAP
C8
CC
48
90
ENDCHAR
STARTCHAR 201E
ENCODING 132
SWIDTH 504 0
DWIDTH 7 0
BBX 6 4 0 -2
BITMAP
6C
6C
24
C8
ENDCHAR
STARTCHAR 2020
ENCODING 134
SWIDTH 504 0
DWIDTH 7 0
BBX 5 11 1 -2
BITMAP
20
20
20
F8
F8
20
20
20
20
20
20
ENDCHAR
STARTCHAR 2021
ENCODING 135
SWIDTH 504 0
DWIDTH 7 0
BBX 5 11 1 -2
BITMAP
20
20
F8
F8
20
20
F8
F8
20
20
20
ENDCHAR
STARTCHAR 2022
ENCODING 149
SWIDTH 504 0
DWIDTH 7 0
BBX 3 4 2 3
BITMAP
E0
E0
E0
E0
ENDCHAR
STARTCHAR 2026
ENCODING 133
SWIDTH 504 0
DWIDTH 7 0
BBX 7 2 0 0
BITMAP
D6
D6
ENDCHAR
STARTCHAR 2030
ENCODING 137
SWIDTH 504 0
DWIDTH 7 0
BBX 7 9 0 0
BITMAP
60
A0
A6
58
60
64
5A
5A
6C
ENDCHAR
STARTCHAR 2039
ENCODING 139
SWIDTH 504 0
DWIDTH 7 0
BBX 3 7 2 0
BITMAP
20
60
E0
C0
E0
60
20
ENDCHAR
STARTCHAR 203A
ENCODING 155
SWIDTH 504 0
DWIDTH 7 0
BBX 2 6 3 1
BITMAP
80
C0
C0
C0
C0
80
ENDCHAR
STARTCHAR 20AC
ENCODING 128
SWIDTH 504 0
DWIDTH 7 0
BBX 7 9 0 0
BITMAP
1C
3C
20
FC
60
F8
60
3C
1E
ENDCHAR
STARTCHAR 2122
ENCODING 153
SWIDTH 504 0
DWIDTH 7 0
BBX 7 4 0 5
BITMAP
F4
5C
5A
52
ENDCHAR
ENDFONT
