STARTFONT 2.1
COMMENT
COMMENT Converted from OpenType font "UbuntuMono-Bold.ttf" by "otf2bdf 3.0".
COMMENT
FONT -FreeType-ubuntu mono cp1252-Bold-R-Normal--22-160-100-100-P-88-ISO10646-1
SIZE 16 100 100
FONTBOUNDINGBOX 11 23 0 -4
STARTPROPERTIES 19
FOUNDRY "FreeType"
FAMILY_NAME "ubuntu mono cp1252"
WEIGHT_NAME "Bold"
SLANT "R"
SETWIDTH_NAME "Normal"
ADD_STYLE_NAME ""
PIXEL_SIZE 22
POINT_SIZE 160
RESOLUTION_X 100
RESOLUTION_Y 100
SPACING "P"
AVERAGE_WIDTH 88
CHARSET_REGISTRY "ISO10646"
CHARSET_ENCODING "1"
FONT_ASCENT 18
FONT_DESCENT 3
COPYRIGHT "Copyright 2011 Canonical Ltd.  Licensed under the Ubuntu Font Licence 1.0"
_OTF_FONTFILE "UbuntuMono-Bold.ttf"
_OTF_PSNAME "UbuntuMono-Bold"
ENDPROPERTIES
CHARS 223
STARTCHAR 0000
ENCODING 157
SWIDTH 495 0
DWIDTH 11 0
BBX 0 0 0 0
BITMAP
ENDCHAR
STARTCHAR 0008
ENCODING 8
SWIDTH 495 0
DWIDTH 11 0
BBX 0 0 0 0
BITMAP
ENDCHAR
STARTCHAR 0009
ENCODING 9
SWIDTH 495 0
DWIDTH 11 0
BBX 0 0 0 0
BITMAP
ENDCHAR
STARTCHAR 000D
ENCODING 13
SWIDTH 495 0
DWIDTH 11 0
BBX 0 0 0 0
BITMAP
ENDCHAR
STARTCHAR 001D
ENCODING 29
SWIDTH 495 0
DWIDTH 11 0
BBX 0 0 0 0
BITMAP
ENDCHAR
STARTCHAR 0020
ENCODING 32
SWIDTH 495 0
DWIDTH 11 0
BBX 0 0 0 0
BITMAP
ENDCHAR
STARTCHAR 0021
ENCODING 33
SWIDTH 495 0
DWIDTH 11 0
BBX 3 14 4 0
BITMAP
E0
E0
E0
E0
E0
E0
E0
E0
E0
00
00
E0
E0
E0
ENDCHAR
STARTCHAR 0022
ENCODING 34
SWIDTH 495 0
DWIDTH 11 0
BBX 7 6 2 9
BITMAP
EE
EE
EE
EE
C6
C6
ENDCHAR
STARTCHAR 0023
ENCODING 35
SWIDTH 495 0
DWIDTH 11 0
BBX 11 14 0 0
BITMAP
0CC0
1DC0
1980
FFE0
FFE0
1980
3B80
3B80
3300
FFE0
FFE0
3300
7700
6600
ENDCHAR
STARTCHAR 0024
ENCODING 36
SWIDTH 495 0
DWIDTH 11 0
BBX 9 17 1 -2
BITMAP
1C00
1C00
3F80
7F80
E000
E000
F000
7C00
3F00
0F80
0380
0380
C380
FF00
7E00
1C00
1C00
ENDCHAR
STARTCHAR 0025
ENCODING 37
SWIDTH 495 0
DWIDTH 11 0
BBX 11 14 0 0
BITMAP
7060
78C0
F980
D980
DB00
7E00
7600
0DC0
0FC0
1B60
3360
3360
63C0
C1C0
ENDCHAR
STARTCHAR 0026
ENCODING 38
SWIDTH 495 0
DWIDTH 11 0
BBX 10 14 0 0
BITMAP
1E00
3F00
7300
7300
3700
3E00
3CC0
7CC0
6EC0
67C0
E380
6380
7FC0
3EC0
ENDCHAR
STARTCHAR 0027
ENCODING 39
SWIDTH 495 0
DWIDTH 11 0
BBX 3 7 4 8
BITMAP
E0
E0
E0
E0
E0
60
40
ENDCHAR
STARTCHAR 0028
ENCODING 40
SWIDTH 495 0
DWIDTH 11 0
BBX 7 20 2 -4
BITMAP
04
0E
1C
38
70
70
60
E0
E0
E0
E0
E0
E0
60
60
70
38
1C
0E
04
ENDCHAR
STARTCHAR 0029
ENCODING 41
SWIDTH 495 0
DWIDTH 11 0
BBX 7 20 2 -4
BITMAP
40
E0
70
38
1C
1C
0C
0E
0E
0E
0E
0E
0E
0E
0C
1C
38
70
E0
40
ENDCHAR
STARTCHAR 002A
ENCODING 42
SWIDTH 495 0
DWIDTH 11 0
BBX 9 8 1 6
BITMAP
1C00
5D00
EB80
FF80
1C00
3600
7700
2200
ENDCHAR
STARTCHAR 002B
ENCODING 43
SWIDTH 495 0
DWIDTH 11 0
BBX 9 10 1 0
BITMAP
1C00
1C00
1C00
1C00
FF80
FF80
1C00
1C00
1C00
1C00
ENDCHAR
STARTCHAR 002C
ENCODING 44
SWIDTH 495 0
DWIDTH 11 0
BBX 5 8 3 -4
BITMAP
70
78
78
78
30
70
E0
C0
ENDCHAR
STARTCHAR 002D
ENCODING 45
SWIDTH 495 0
DWIDTH 11 0
BBX 7 3 2 4
BITMAP
FE
FE
FE
ENDCHAR
STARTCHAR 002E
ENCODING 46
SWIDTH 495 0
DWIDTH 11 0
BBX 3 4 4 0
BITMAP
E0
E0
E0
E0
ENDCHAR
STARTCHAR 002F
ENCODING 47
SWIDTH 495 0
DWIDTH 11 0
BBX 9 19 1 -4
BITMAP
0380
0300
0700
0700
0700
0E00
0E00
0E00
1C00
1C00
1C00
3800
3800
3800
7000
7000
7000
6000
E000
ENDCHAR
STARTCHAR 0030
ENCODING 48
SWIDTH 495 0
DWIDTH 11 0
BBX 9 14 1 0
BITMAP
3E00
7F00
6300
E380
C180
C980
DD80
C980
C180
C180
E380
6300
7F00
3E00
ENDCHAR
STARTCHAR 0031
ENCODING 49
SWIDTH 495 0
DWIDTH 11 0
BBX 9 14 1 0
BITMAP
0C00
1C00
7C00
FC00
6C00
0C00
0C00
0C00
0C00
0C00
0C00
0C00
7F80
7F80
ENDCHAR
STARTCHAR 0032
ENCODING 50
SWIDTH 495 0
DWIDTH 11 0
BBX 9 14 1 0
BITMAP
3C00
FF00
4700
0380
0380
0700
0F00
1E00
3C00
7800
7000
E000
FF80
FF80
ENDCHAR
STARTCHAR 0033
ENCODING 51
SWIDTH 495 0
DWIDTH 11 0
BBX 9 14 1 0
BITMAP
7C00
FF00
4700
0300
0300
0700
3E00
3F00
0780
0380
0380
8380
FF00
FE00
ENDCHAR
STARTCHAR 0034
ENCODING 52
SWIDTH 495 0
DWIDTH 11 0
BBX 9 14 1 0
BITMAP
0700
0F00
0F00
1F00
3F00
3700
6700
E700
C700
FF80
FF80
0700
0700
0700
ENDCHAR
STARTCHAR 0035
ENCODING 53
SWIDTH 495 0
DWIDTH 11 0
BBX 9 14 1 0
BITMAP
7F00
7F00
7000
7000
6000
7C00
7F00
0700
0380
0380
0380
8700
FF00
FC00
ENDCHAR
STARTCHAR 0036
ENCODING 54
SWIDTH 495 0
DWIDTH 11 0
BBX 9 14 1 0
BITMAP
0700
1F00
3C00
7000
6000
FE00
FF00
E380
E380
E380
E380
6380
7F00
3E00
ENDCHAR
STARTCHAR 0037
ENCODING 55
SWIDTH 495 0
DWIDTH 11 0
BBX 9 14 1 0
BITMAP
FF80
FF80
0380
0700
0600
0E00
0C00
1C00
1C00
1800
3800
3800
3800
3800
ENDCHAR
STARTCHAR 0038
ENCODING 56
SWIDTH 495 0
DWIDTH 11 0
BBX 9 14 1 0
BITMAP
3E00
7F00
E380
E380
E380
F300
7F00
7F00
E780
E380
C180
E380
7F00
3E00
ENDCHAR
STARTCHAR 0039
ENCODING 57
SWIDTH 495 0
DWIDTH 11 0
BBX 9 14 1 0
BITMAP
3E00
7F00
E300
E380
E380
E380
E380
7F80
3F80
0300
0700
1E00
7C00
7000
ENDCHAR
STARTCHAR 003A
ENCODING 58
SWIDTH 495 0
DWIDTH 11 0
BBX 3 11 4 0
BITMAP
E0
E0
E0
E0
00
00
00
E0
E0
E0
E0
ENDCHAR
STARTCHAR 003B
ENCODING 59
SWIDTH 495 0
DWIDTH 11 0
BBX 4 15 3 -4
BITMAP
70
70
70
70
00
00
00
70
70
70
70
30
70
E0
C0
ENDCHAR
STARTCHAR 003C
ENCODING 60
SWIDTH 495 0
DWIDTH 11 0
BBX 9 9 1 1
BITMAP
0180
0780
3F00
FC00
E000
FC00
3F00
0780
0180
ENDCHAR
STARTCHAR 003D
ENCODING 61
SWIDTH 495 0
DWIDTH 11 0
BBX 9 6 1 3
BITMAP
FF80
FF80
0000
0000
FF80
FF80
ENDCHAR
STARTCHAR 003E
ENCODING 62
SWIDTH 495 0
DWIDTH 11 0
BBX 9 9 1 1
BITMAP
C000
F000
7E00
1F80
0380
1F80
7E00
F000
C000
ENDCHAR
STARTCHAR 003F
ENCODING 63
SWIDTH 495 0
DWIDTH 11 0
BBX 8 14 2 0
BITMAP
FC
FE
8E
07
0E
1E
3C
38
30
00
00
30
78
30
ENDCHAR
STARTCHAR 0040
ENCODING 64
SWIDTH 495 0
DWIDTH 11 0
BBX 10 17 0 -3
BITMAP
0F00
3F80
31C0
60C0
67C0
6FC0
CCC0
CCC0
CCC0
CCC0
CCC0
6FC0
67C0
7000
3800
1FC0
0FC0
ENDCHAR
STARTCHAR 0041
ENCODING 65
SWIDTH 495 0
DWIDTH 11 0
BBX 11 14 0 0
BITMAP
0E00
0E00
1F00
1B00
1B00
3B80
3B80
3180
3180
7FC0
7FC0
71C0
60C0
E0E0
ENDCHAR
STARTCHAR 0042
ENCODING 66
SWIDTH 495 0
DWIDTH 11 0
BBX 9 14 1 0
BITMAP
FE00
FF00
E300
E380
E380
E700
FF00
FF00
E380
E180
E180
E380
FF00
FE00
ENDCHAR
STARTCHAR 0043
ENCODING 67
SWIDTH 495 0
DWIDTH 11 0
BBX 9 14 1 0
BITMAP
1F00
3F80
7080
E000
E000
C000
C000
C000
C000
E000
E000
7080
7F80
1F00
ENDCHAR
STARTCHAR 0044
ENCODING 68
SWIDTH 495 0
DWIDTH 11 0
BBX 9 14 1 0
BITMAP
FC00
FF00
E700
E380
E380
E180
E180
E180
E180
E380
E380
E700
FF00
FC00
ENDCHAR
STARTCHAR 0045
ENCODING 69
SWIDTH 495 0
DWIDTH 11 0
BBX 9 14 1 0
BITMAP
FF80
FF80
E000
E000
E000
E000
FF00
FF00
E000
E000
E000
E000
FF80
FF80
ENDCHAR
STARTCHAR 0046
ENCODING 70
SWIDTH 495 0
DWIDTH 11 0
BBX 9 14 1 0
BITMAP
FF80
FF80
E000
E000
E000
E000
FF00
FF00
E000
E000
E000
E000
E000
E000
ENDCHAR
STARTCHAR 0047
ENCODING 71
SWIDTH 495 0
DWIDTH 11 0
BBX 9 14 1 0
BITMAP
1F80
3F80
7080
E000
E000
C000
C380
C380
C380
E380
E380
7380
7F80
1F80
ENDCHAR
STARTCHAR 0048
ENCODING 72
SWIDTH 495 0
DWIDTH 11 0
BBX 9 14 1 0
BITMAP
E380
E380
E380
E380
E380
E380
FF80
FF80
E380
E380
E380
E380
E380
E380
ENDCHAR
STARTCHAR 0049
ENCODING 73
SWIDTH 495 0
DWIDTH 11 0
BBX 9 14 1 0
BITMAP
FF80
FF80
1C00
1C00
1C00
1C00
1C00
1C00
1C00
1C00
1C00
1C00
FF80
FF80
ENDCHAR
STARTCHAR 004A
ENCODING 74
SWIDTH 495 0
DWIDTH 11 0
BBX 9 14 1 0
BITMAP
7F80
7F80
0380
0380
0380
0380
0380
0380
0380
0380
0380
4700
FF00
7C00
ENDCHAR
STARTCHAR 004B
ENCODING 75
SWIDTH 495 0
DWIDTH 11 0
BBX 10 14 1 0
BITMAP
E380
E300
E700
EE00
EE00
FC00
F800
FC00
EE00
EF00
E700
E380
E380
E1C0
ENDCHAR
STARTCHAR 004C
ENCODING 76
SWIDTH 495 0
DWIDTH 11 0
BBX 8 14 2 0
BITMAP
C0
C0
C0
C0
C0
C0
C0
C0
C0
C0
C0
C0
FF
FF
ENDCHAR
STARTCHAR 004D
ENCODING 77
SWIDTH 495 0
DWIDTH 11 0
BBX 9 14 1 0
BITMAP
E380
E380
E380
F780
F780
D580
DD80
DD80
DD80
C180
C180
C180
C180
C180
ENDCHAR
STARTCHAR 004E
ENCODING 78
SWIDTH 495 0
DWIDTH 11 0
BBX 9 14 1 0
BITMAP
C180
E180
F180
F180
F980
D980
DD80
CD80
CD80
C780
C780
C380
C380
C180
ENDCHAR
STARTCHAR 004F
ENCODING 79
SWIDTH 495 0
DWIDTH 11 0
BBX 9 14 1 0
BITMAP
3E00
7F00
E380
E380
C180
C180
C180
C180
C180
C180
E380
E380
7F00
3E00
ENDCHAR
STARTCHAR 0050
ENCODING 80
SWIDTH 495 0
DWIDTH 11 0
BBX 9 14 1 0
BITMAP
FE00
FF00
E380
E180
E180
E380
E380
FF00
FE00
E000
E000
E000
E000
E000
ENDCHAR
STARTCHAR 0051
ENCODING 81
SWIDTH 495 0
DWIDTH 11 0
BBX 9 18 1 -4
BITMAP
3E00
7F00
E380
E380
C180
C180
C180
C180
C180
C180
E380
E380
7F00
3E00
1C00
0F00
0780
0180
ENDCHAR
STARTCHAR 0052
ENCODING 82
SWIDTH 495 0
DWIDTH 11 0
BBX 10 14 1 0
BITMAP
FE00
FF00
E780
E380
E380
E780
FF00
FE00
E600
E700
E300
E380
E380
E1C0
ENDCHAR
STARTCHAR 0053
ENCODING 83
SWIDTH 495 0
DWIDTH 11 0
BBX 9 14 1 0
BITMAP
3F00
7F00
E100
E000
E000
F000
7E00
1F00
0780
0380
0380
C380
FF00
7E00
ENDCHAR
STARTCHAR 0054
ENCODING 84
SWIDTH 495 0
DWIDTH 11 0
BBX 9 14 1 0
BITMAP
FF80
FF80
1C00
1C00
1C00
1C00
1C00
1C00
1C00
1C00
1C00
1C00
1C00
1C00
ENDCHAR
STARTCHAR 0055
ENCODING 85
SWIDTH 495 0
DWIDTH 11 0
BBX 9 14 1 0
BITMAP
E380
E380
E380
E380
E380
E380
E380
E380
E380
E380
E380
E380
7F00
3E00
ENDCHAR
STARTCHAR 0056
ENCODING 86
SWIDTH 495 0
DWIDTH 11 0
BBX 11 14 0 0
BITMAP
E0E0
60C0
71C0
71C0
71C0
3180
3180
3B80
3B80
1B00
1B00
1F00
0E00
0E00
ENDCHAR
STARTCHAR 0057
ENCODING 87
SWIDTH 495 0
DWIDTH 11 0
BBX 9 14 1 0
BITMAP
C180
C180
C180
C180
C180
DD80
DD80
DD80
D580
F780
F780
E380
E380
E380
ENDCHAR
STARTCHAR 0058
ENCODING 88
SWIDTH 495 0
DWIDTH 11 0
BBX 11 14 0 0
BITMAP
70C0
71C0
3980
3B80
1F00
1F00
0E00
0F00
1F00
3B80
3B80
71C0
71C0
E0E0
ENDCHAR
STARTCHAR 0059
ENCODING 89
SWIDTH 495 0
DWIDTH 11 0
BBX 11 14 0 0
BITMAP
E0E0
71C0
71C0
3180
3B80
1B80
1F00
0F00
0E00
0E00
0E00
0E00
0E00
0E00
ENDCHAR
STARTCHAR 005A
ENCODING 90
SWIDTH 495 0
DWIDTH 11 0
BBX 9 14 1 0
BITMAP
FF80
FF80
0700
0700
0E00
0E00
1C00
3C00
3800
7000
7000
E000
FF80
FF80
ENDCHAR
STARTCHAR 005B
ENCODING 91
SWIDTH 495 0
DWIDTH 11 0
BBX 7 19 2 -4
BITMAP
FE
FE
E0
E0
E0
E0
E0
E0
E0
E0
E0
E0
E0
E0
E0
E0
E0
FE
FE
ENDCHAR
STARTCHAR 005C
ENCODING 92
SWIDTH 495 0
DWIDTH 11 0
BBX 9 19 1 -4
BITMAP
E000
6000
7000
7000
3000
3800
3800
1800
1C00
1C00
1C00
0E00
0E00
0E00
0700
0700
0700
0380
0380
ENDCHAR
STARTCHAR 005D
ENCODING 93
SWIDTH 495 0
DWIDTH 11 0
BBX 7 19 2 -4
BITMAP
FE
FE
0E
0E
0E
0E
0E
0E
0E
0E
0E
0E
0E
0E
0E
0E
0E
FE
FE
ENDCHAR
STARTCHAR 005E
ENCODING 94
SWIDTH 495 0
DWIDTH 11 0
BBX 9 7 1 7
BITMAP
1C00
3E00
3600
7700
E380
E180
4180
ENDCHAR
STARTCHAR 005F
ENCODING 95
SWIDTH 495 0
DWIDTH 11 0
BBX 11 2 0 -4
BITMAP
FFE0
FFE0
ENDCHAR
STARTCHAR 0060
ENCODING 96
SWIDTH 495 0
DWIDTH 11 0
BBX 4 4 4 11
BITMAP
80
E0
F0
30
ENDCHAR
STARTCHAR 0061
ENCODING 97
SWIDTH 495 0
DWIDTH 11 0
BBX 9 10 1 0
BITMAP
7E00
7F00
0380
0380
3F80
FF80
E380
E380
FF80
7F80
ENDCHAR
STARTCHAR 0062
ENCODING 98
SWIDTH 495 0
DWIDTH 11 0
BBX 9 15 1 0
BITMAP
E000
E000
E000
E000
E000
FE00
FF00
E380
E380
E180
E180
E380
E380
FF00
7E00
ENDCHAR
STARTCHAR 0063
ENCODING 99
SWIDTH 495 0
DWIDTH 11 0
BBX 9 10 1 0
BITMAP
1F80
7F80
7000
E000
E000
E000
E000
7000
7F80
1F80
ENDCHAR
STARTCHAR 0064
ENCODING 100
SWIDTH 495 0
DWIDTH 11 0
BBX 8 15 1 0
BITMAP
03
03
03
03
03
3F
7F
E3
E3
C3
C3
E3
E3
7F
3F
ENDCHAR
STARTCHAR 0065
ENCODING 101
SWIDTH 495 0
DWIDTH 11 0
BBX 9 10 1 0
BITMAP
3E00
7F00
E380
E180
FF80
FF80
E000
E100
7F00
3F00
ENDCHAR
STARTCHAR 0066
ENCODING 102
SWIDTH 495 0
DWIDTH 11 0
BBX 10 15 1 0
BITMAP
0FC0
1FC0
3800
3800
3800
FF80
FF80
3800
3800
3800
3800
3800
3800
3800
3800
ENDCHAR
STARTCHAR 0067
ENCODING 103
SWIDTH 495 0
DWIDTH 11 0
BBX 9 14 1 -4
BITMAP
3F00
7F80
E380
E380
C380
C380
E380
E380
7F80
3F80
0380
8700
FF00
FC00
ENDCHAR
STARTCHAR 0068
ENCODING 104
SWIDTH 495 0
DWIDTH 11 0
BBX 9 15 1 0
BITMAP
E000
E000
E000
E000
E000
FE00
FF00
E300
E380
E380
E380
E380
E380
E380
E380
ENDCHAR
STARTCHAR 0069
ENCODING 105
SWIDTH 495 0
DWIDTH 11 0
BBX 9 15 1 0
BITMAP
3800
3800
3800
0000
F800
F800
1800
1800
1800
1800
1800
1800
1C80
1F80
0F80
ENDCHAR
STARTCHAR 006A
ENCODING 106
SWIDTH 495 0
DWIDTH 11 0
BBX 8 19 1 -4
BITMAP
0E
0E
0E
00
7F
7F
07
07
07
07
07
07
07
07
07
07
47
FE
7C
ENDCHAR
STARTCHAR 006B
ENCODING 107
SWIDTH 495 0
DWIDTH 11 0
BBX 9 15 1 0
BITMAP
E000
E000
E000
E000
E000
E380
E700
EE00
FC00
F800
FC00
EE00
E700
E380
E380
ENDCHAR
STARTCHAR 006C
ENCODING 108
SWIDTH 495 0
DWIDTH 11 0
BBX 9 15 1 0
BITMAP
F800
F800
1800
1800
1800
1800
1800
1800
1800
1800
1800
1800
1C80
1F80
0F80
ENDCHAR
STARTCHAR 006D
ENCODING 109
SWIDTH 495 0
DWIDTH 11 0
BBX 9 10 1 0
BITMAP
F700
FF80
DD80
DD80
DD80
DD80
C180
C180
C180
C180
ENDCHAR
STARTCHAR 006E
ENCODING 110
SWIDTH 495 0
DWIDTH 11 0
BBX 9 10 1 0
BITMAP
FE00
FF00
E300
E380
E380
E380
E380
E380
E380
E380
ENDCHAR
STARTCHAR 006F
ENCODING 111
SWIDTH 495 0
DWIDTH 11 0
BBX 9 10 1 0
BITMAP
3E00
7F00
E380
E380
C180
C180
E380
E380
7F00
3E00
ENDCHAR
STARTCHAR 0070
ENCODING 112
SWIDTH 495 0
DWIDTH 11 0
BBX 9 14 1 -4
BITMAP
7E00
FF00
E380
E380
E180
E180
E380
E380
FF00
FE00
E000
E000
E000
E000
ENDCHAR
STARTCHAR 0071
ENCODING 113
SWIDTH 495 0
DWIDTH 11 0
BBX 9 14 1 -4
BITMAP
3F00
7F80
E380
E380
C380
C380
E380
E380
7F80
3F80
0380
0380
0380
0380
ENDCHAR
STARTCHAR 0072
ENCODING 114
SWIDTH 495 0
DWIDTH 11 0
BBX 8 10 2 0
BITMAP
7F
FF
E0
E0
E0
E0
E0
E0
E0
E0
ENDCHAR
STARTCHAR 0073
ENCODING 115
SWIDTH 495 0
DWIDTH 11 0
BBX 9 10 1 0
BITMAP
3F00
7F00
E100
F000
7E00
3F00
0780
4380
FF00
7E00
ENDCHAR
STARTCHAR 0074
ENCODING 116
SWIDTH 495 0
DWIDTH 11 0
BBX 9 13 1 0
BITMAP
3800
3800
3800
FF80
FF80
3800
3800
3800
3800
3800
3800
1F80
1F80
ENDCHAR
STARTCHAR 0075
ENCODING 117
SWIDTH 495 0
DWIDTH 11 0
BBX 9 10 1 0
BITMAP
E380
E380
E380
E380
E380
E380
E380
6380
7F80
3F00
ENDCHAR
STARTCHAR 0076
ENCODING 118
SWIDTH 495 0
DWIDTH 11 0
BBX 11 10 0 0
BITMAP
E0E0
70C0
71C0
7180
3380
3B80
1B00
1F00
0E00
0E00
ENDCHAR
STARTCHAR 0077
ENCODING 119
SWIDTH 495 0
DWIDTH 11 0
BBX 11 10 0 0
BITMAP
E0E0
E0E0
EEE0
6EC0
6EC0
6AC0
7BC0
7BC0
7180
3180
ENDCHAR
STARTCHAR 0078
ENCODING 120
SWIDTH 495 0
DWIDTH 11 0
BBX 9 10 1 0
BITMAP
E380
6300
7700
3E00
1C00
1E00
3600
7700
E380
C380
ENDCHAR
STARTCHAR 0079
ENCODING 121
SWIDTH 495 0
DWIDTH 11 0
BBX 10 14 0 -4
BITMAP
70C0
71C0
31C0
3980
3980
1B80
1F00
1F00
0F00
0E00
0E00
0C00
7C00
F800
ENDCHAR
STARTCHAR 007A
ENCODING 122
SWIDTH 495 0
DWIDTH 11 0
BBX 9 10 1 0
BITMAP
7F00
7F00
0700
0E00
1C00
3C00
3800
7000
FF80
FF80
ENDCHAR
STARTCHAR 007B
ENCODING 123
SWIDTH 495 0
DWIDTH 11 0
BBX 9 19 1 -4
BITMAP
0F80
1F80
1C00
1800
1800
1800
1800
1800
1800
F000
F000
1800
1800
1800
1800
1800
1C00
1F80
0F80
ENDCHAR
STARTCHAR 007C
ENCODING 124
SWIDTH 495 0
DWIDTH 11 0
BBX 3 19 4 -4
BITMAP
E0
E0
E0
E0
E0
E0
E0
E0
E0
E0
E0
E0
E0
E0
E0
E0
E0
E0
E0
ENDCHAR
STARTCHAR 007D
ENCODING 125
SWIDTH 495 0
DWIDTH 11 0
BBX 9 19 1 -4
BITMAP
F800
FC00
1C00
0C00
0C00
0C00
0C00
0C00
0C00
0780
0780
0C00
0C00
0C00
0C00
0C00
1C00
FC00
F800
ENDCHAR
STARTCHAR 007E
ENCODING 126
SWIDTH 495 0
DWIDTH 11 0
BBX 10 5 1 3
BITMAP
7080
F9C0
FF80
CF80
0700
ENDCHAR
STARTCHAR 00A0
ENCODING 160
SWIDTH 495 0
DWIDTH 11 0
BBX 0 0 0 0
BITMAP
ENDCHAR
STARTCHAR 00A1
ENCODING 161
SWIDTH 495 0
DWIDTH 11 0
BBX 3 14 4 -4
BITMAP
E0
E0
E0
00
00
E0
E0
E0
E0
E0
E0
E0
E0
E0
ENDCHAR
STARTCHAR 00A2
ENCODING 162
SWIDTH 495 0
DWIDTH 11 0
BBX 9 16 1 -2
BITMAP
0E00
0E00
0E00
1F80
7F00
7000
E000
E000
E000
E000
7000
7F80
1F80
0E00
0E00
0E00
ENDCHAR
STARTCHAR 00A3
ENCODING 163
SWIDTH 495 0
DWIDTH 11 0
BBX 9 14 1 0
BITMAP
1F00
3F80
3900
3000
3000
3000
FE00
FE00
3000
7000
7000
7000
7F80
7F80
ENDCHAR
STARTCHAR 00A4
ENCODING 164
SWIDTH 495 0
DWIDTH 11 0
BBX 9 10 1 2
BITMAP
4100
FF80
FF80
6300
E380
E380
6300
FF80
FF80
4100
ENDCHAR
STARTCHAR 00A5
ENCODING 165
SWIDTH 495 0
DWIDTH 11 0
BBX 11 14 0 0
BITMAP
E0E0
71C0
71C0
3180
1B80
1B00
7FC0
7FC0
0E00
7FC0
7FC0
0E00
0E00
0E00
ENDCHAR
STARTCHAR 00A6
ENCODING 166
SWIDTH 495 0
DWIDTH 11 0
BBX 3 19 4 -4
BITMAP
E0
E0
E0
E0
E0
E0
E0
E0
00
00
00
E0
E0
E0
E0
E0
E0
E0
E0
ENDCHAR
STARTCHAR 00A7
ENCODING 167
SWIDTH 495 0
DWIDTH 11 0
BBX 9 16 1 -2
BITMAP
1F00
7F00
7100
7000
7E00
7F00
6780
E380
E380
F300
7F00
1F00
0780
4380
FF00
7E00
ENDCHAR
STARTCHAR 00A8
ENCODING 168
SWIDTH 495 0
DWIDTH 11 0
BBX 7 3 2 12
BITMAP
E6
EE
E6
ENDCHAR
STARTCHAR 00A9
ENCODING 169
SWIDTH 495 0
DWIDTH 11 0
BBX 9 10 1 0
BITMAP
3E00
6300
DD80
B080
B080
B080
B080
DD80
6300
3E00
ENDCHAR
STARTCHAR 00AA
ENCODING 170
SWIDTH 495 0
DWIDTH 11 0
BBX 7 8 2 6
BITMAP
7C
7E
06
3E
66
E6
FE
7E
ENDCHAR
STARTCHAR 00AB
ENCODING 171
SWIDTH 495 0
DWIDTH 11 0
BBX 9 9 1 1
BITMAP
1100
3380
7300
6600
C600
6600
7300
3180
1100
ENDCHAR
STARTCHAR 00AC
ENCODING 172
SWIDTH 495 0
DWIDTH 11 0
BBX 9 7 1 1
BITMAP
FF80
FF80
0180
0180
0180
0180
0180
ENDCHAR
STARTCHAR 00AD
ENCODING 173
SWIDTH 495 0
DWIDTH 11 0
BBX 7 3 2 4
BITMAP
FE
FE
FE
ENDCHAR
STARTCHAR 00AE
ENCODING 174
SWIDTH 495 0
DWIDTH 11 0
BBX 9 10 1 0
BITMAP
3E00
6300
DD80
9680
9480
9C80
9680
C180
6300
3E00
ENDCHAR
STARTCHAR 00AF
ENCODING 175
SWIDTH 495 0
DWIDTH 11 0
BBX 7 2 2 12
BITMAP
FE
FE
ENDCHAR
STARTCHAR 00B0
ENCODING 176
SWIDTH 495 0
DWIDTH 11 0
BBX 7 6 2 9
BITMAP
38
7C
C6
C6
7C
38
ENDCHAR
STARTCHAR 00B1
ENCODING 177
SWIDTH 495 0
DWIDTH 11 0
BBX 9 11 1 0
BITMAP
1C00
1C00
1C00
FF80
FF80
1C00
1C00
1C00
0000
FF80
FF80
ENDCHAR
STARTCHAR 00B2
ENCODING 178
SWIDTH 495 0
DWIDTH 11 0
BBX 5 8 3 6
BITMAP
70
F8
98
18
70
60
F8
F8
ENDCHAR
STARTCHAR 00B3
ENCODING 179
SWIDTH 495 0
DWIDTH 11 0
BBX 5 8 3 6
BITMAP
F0
F8
98
70
78
98
F8
F0
ENDCHAR
STARTCHAR 00B4
ENCODING 180
SWIDTH 495 0
DWIDTH 11 0
BBX 5 4 3 11
BITMAP
10
38
F0
40
ENDCHAR
STARTCHAR 00B5
ENCODING 181
SWIDTH 495 0
DWIDTH 11 0
BBX 9 14 1 -4
BITMAP
E380
E380
E380
E380
E380
E380
E380
E380
FF80
FF00
E000
E000
E000
E000
ENDCHAR
STARTCHAR 00B6
ENCODING 182
SWIDTH 495 0
DWIDTH 11 0
BBX 10 18 0 -4
BITMAP
1FC0
3FC0
7CC0
7CC0
FCC0
FCC0
7CC0
7CC0
3CC0
0CC0
0CC0
0CC0
0CC0
0CC0
0CC0
0CC0
0CC0
0CC0
ENDCHAR
STARTCHAR 00B7
ENCODING 183
SWIDTH 495 0
DWIDTH 11 0
BBX 3 4 4 4
BITMAP
E0
E0
E0
E0
ENDCHAR
STARTCHAR 00B8
ENCODING 184
SWIDTH 495 0
DWIDTH 11 0
BBX 4 4 4 -4
BITMAP
60
70
30
E0
ENDCHAR
STARTCHAR 00B9
ENCODING 185
SWIDTH 495 0
DWIDTH 11 0
BBX 6 8 3 6
BITMAP
30
F0
F0
30
30
30
FC
FC
ENDCHAR
STARTCHAR 00BA
ENCODING 186
SWIDTH 495 0
DWIDTH 11 0
BBX 7 8 2 6
BITMAP
7C
FE
C6
C6
C6
C6
FE
7C
ENDCHAR
STARTCHAR 00BB
ENCODING 187
SWIDTH 495 0
DWIDTH 11 0
BBX 9 9 1 1
BITMAP
4400
E600
6700
3300
3980
3300
6700
E600
4400
ENDCHAR
STARTCHAR 00BC
ENCODING 188
SWIDTH 495 0
DWIDTH 11 0
BBX 11 14 0 0
BITMAP
31C0
7180
B380
3300
3700
3600
0E00
0C00
1DC0
19C0
3BC0
32C0
73E0
60C0
ENDCHAR
STARTCHAR 00BD
ENCODING 189
SWIDTH 495 0
DWIDTH 11 0
BBX 11 14 0 0
BITMAP
31C0
F180
B380
3300
3700
3600
0E00
0C00
1DC0
1BE0
3960
30C0
7380
63E0
ENDCHAR
STARTCHAR 00BE
ENCODING 190
SWIDTH 495 0
DWIDTH 11 0
BBX 11 14 0 0
BITMAP
F0C0
19C0
7180
1B80
FB00
0700
0600
0E00
0DC0
1DC0
1BC0
3AE0
33E0
70C0
ENDCHAR
STARTCHAR 00BF
ENCODING 191
SWIDTH 495 0
DWIDTH 11 0
BBX 7 14 2 -4
BITMAP
18
3C
18
00
00
18
38
78
F0
E0
C0
E2
FE
7E
ENDCHAR
STARTCHAR 00C0
ENCODING 192
SWIDTH 495 0
DWIDTH 11 0
BBX 11 19 0 0
BITMAP
0800
1C00
0F00
0200
0000
0E00
0E00
1F00
1B00
1B00
3B80
3B80
3180
3180
7FC0
7FC0
71C0
60C0
E0E0
ENDCHAR
STARTCHAR 00C1
ENCODING 193
SWIDTH 495 0
DWIDTH 11 0
BBX 11 19 0 0
BITMAP
0200
0F00
1E00
0800
0000
0E00
0E00
1F00
1B00
1B00
3B80
3B80
3180
3180
7FC0
7FC0
71C0
60C0
E0E0
ENDCHAR
STARTCHAR 00C2
ENCODING 194
SWIDTH 495 0
DWIDTH 11 0
BBX 11 19 0 0
BITMAP
0400
0E00
1B00
1100
0000
0E00
0E00
1F00
1B00
1B00
3B80
3B80
3180
3180
7FC0
7FC0
71C0
60C0
E0E0
ENDCHAR
STARTCHAR 00C3
ENCODING 195
SWIDTH 495 0
DWIDTH 11 0
BBX 11 18 0 0
BITMAP
1C80
3F80
1300
0000
0E00
0E00
1F00
1B00
1B00
3B80
3B80
3180
3180
7FC0
7FC0
71C0
60C0
E0E0
ENDCHAR
STARTCHAR 00C4
ENCODING 196
SWIDTH 495 0
DWIDTH 11 0
BBX 11 18 0 0
BITMAP
3980
3B80
3980
0000
0E00
0E00
1F00
1B00
1B00
3B80
3B80
3180
3180
7FC0
7FC0
71C0
60C0
E0E0
ENDCHAR
STARTCHAR 00C5
ENCODING 197
SWIDTH 495 0
DWIDTH 11 0
BBX 11 17 0 0
BITMAP
0E00
1B00
1B00
0E00
0E00
1F00
1F00
1B00
3B80
3B80
3380
3180
7FC0
7FC0
71C0
60C0
E0E0
ENDCHAR
STARTCHAR 00C6
ENCODING 198
SWIDTH 495 0
DWIDTH 11 0
BBX 11 14 0 0
BITMAP
0FE0
0FE0
1B00
1B00
1B00
3BC0
3BC0
3300
3300
7F00
7F00
7300
63E0
E3E0
ENDCHAR
STARTCHAR 00C7
ENCODING 199
SWIDTH 495 0
DWIDTH 11 0
BBX 9 18 1 -4
BITMAP
1F00
3F80
7080
E000
E000
C000
C000
C000
C000
E000
E000
7080
7F80
1F00
0C00
0E00
0600
1C00
ENDCHAR
STARTCHAR 00C8
ENCODING 200
SWIDTH 495 0
DWIDTH 11 0
BBX 9 19 1 0
BITMAP
1000
3800
1E00
0400
0000
FF80
FF80
E000
E000
E000
E000
FF00
FF00
E000
E000
E000
E000
FF80
FF80
ENDCHAR
STARTCHAR 00C9
ENCODING 201
SWIDTH 495 0
DWIDTH 11 0
BBX 9 19 1 0
BITMAP
0400
1E00
3C00
1000
0000
FF80
FF80
E000
E000
E000
E000
FF00
FF00
E000
E000
E000
E000
FF80
FF80
ENDCHAR
STARTCHAR 00CA
ENCODING 202
SWIDTH 495 0
DWIDTH 11 0
BBX 9 19 1 0
BITMAP
0800
1C00
3600
2200
0000
FF80
FF80
E000
E000
E000
E000
FF00
FF00
E000
E000
E000
E000
FF80
FF80
ENDCHAR
STARTCHAR 00CB
ENCODING 203
SWIDTH 495 0
DWIDTH 11 0
BBX 9 18 1 0
BITMAP
7300
7700
7300
0000
FF80
FF80
E000
E000
E000
E000
FF00
FF00
E000
E000
E000
E000
FF80
FF80
ENDCHAR
STARTCHAR 00CC
ENCODING 204
SWIDTH 495 0
DWIDTH 11 0
BBX 9 19 1 0
BITMAP
1000
3800
1E00
0400
0000
FF80
FF80
1C00
1C00
1C00
1C00
1C00
1C00
1C00
1C00
1C00
1C00
FF80
FF80
ENDCHAR
STARTCHAR 00CD
ENCODING 205
SWIDTH 495 0
DWIDTH 11 0
BBX 9 19 1 0
BITMAP
0400
1E00
3C00
1000
0000
FF80
FF80
1C00
1C00
1C00
1C00
1C00
1C00
1C00
1C00
1C00
1C00
FF80
FF80
ENDCHAR
STARTCHAR 00CE
ENCODING 206
SWIDTH 495 0
DWIDTH 11 0
BBX 9 19 1 0
BITMAP
0800
1C00
3600
2200
0000
FF80
FF80
1C00
1C00
1C00
1C00
1C00
1C00
1C00
1C00
1C00
1C00
FF80
FF80
ENDCHAR
STARTCHAR 00CF
ENCODING 207
SWIDTH 495 0
DWIDTH 11 0
BBX 9 18 1 0
BITMAP
7300
7700
7300
0000
FF80
FF80
1C00
1C00
1C00
1C00
1C00
1C00
1C00
1C00
1C00
1C00
FF80
FF80
ENDCHAR
STARTCHAR 00D0
ENCODING 208
SWIDTH 495 0
DWIDTH 11 0
BBX 10 14 0 0
BITMAP
3E00
3F80
3380
31C0
31C0
30C0
FCC0
FCC0
30C0
31C0
31C0
3380
3F80
3E00
ENDCHAR
STARTCHAR 00D1
ENCODING 209
SWIDTH 495 0
DWIDTH 11 0
BBX 9 18 1 0
BITMAP
3900
7F00
2600
0000
C180
E180
F180
F180
F980
D980
DD80
CD80
CD80
C780
C780
C380
C380
C180
ENDCHAR
STARTCHAR 00D2
ENCODING 210
SWIDTH 495 0
DWIDTH 11 0
BBX 9 19 1 0
BITMAP
1000
3800
1E00
0400
0000
3E00
7F00
E380
E380
C180
C180
C180
C180
C180
C180
E380
E380
7F00
3E00
ENDCHAR
STARTCHAR 00D3
ENCODING 211
SWIDTH 495 0
DWIDTH 11 0
BBX 9 19 1 0
BITMAP
0400
1E00
3C00
1000
0000
3E00
7F00
E380
E380
C180
C180
C180
C180
C180
C180
E380
E380
7F00
3E00
ENDCHAR
STARTCHAR 00D4
ENCODING 212
SWIDTH 495 0
DWIDTH 11 0
BBX 9 19 1 0
BITMAP
0800
1C00
3600
2200
0000
3E00
7F00
E380
E380
C180
C180
C180
C180
C180
C180
E380
E380
7F00
3E00
ENDCHAR
STARTCHAR 00D5
ENCODING 213
SWIDTH 495 0
DWIDTH 11 0
BBX 9 18 1 0
BITMAP
3900
7F00
2600
0000
3E00
7F00
E380
E380
C180
C180
C180
C180
C180
C180
E380
E380
7F00
3E00
ENDCHAR
STARTCHAR 00D6
ENCODING 214
SWIDTH 495 0
DWIDTH 11 0
BBX 9 18 1 0
BITMAP
7300
7700
7300
0000
3E00
7F00
E380
E380
C180
C180
C180
C180
C180
C180
E380
E380
7F00
3E00
ENDCHAR
STARTCHAR 00D7
ENCODING 215
SWIDTH 495 0
DWIDTH 11 0
BBX 9 8 1 2
BITMAP
4100
E380
7F00
3E00
1E00
3F00
7380
6300
ENDCHAR
STARTCHAR 00D8
ENCODING 216
SWIDTH 495 0
DWIDTH 11 0
BBX 9 16 1 -1
BITMAP
0100
3F80
7F00
E780
E780
C780
CD80
CD80
D980
D980
F180
F380
E380
7F00
FE00
4000
ENDCHAR
STARTCHAR 00D9
ENCODING 217
SWIDTH 495 0
DWIDTH 11 0
BBX 9 19 1 0
BITMAP
1000
3800
1E00
0400
0000
E380
E380
E380
E380
E380
E380
E380
E380
E380
E380
E380
E380
7F00
3E00
ENDCHAR
STARTCHAR 00DA
ENCODING 218
SWIDTH 495 0
DWIDTH 11 0
BBX 9 19 1 0
BITMAP
0400
0E00
3C00
1000
0000
E380
E380
E380
E380
E380
E380
E380
E380
E380
E380
E380
E380
7F00
3E00
ENDCHAR
STARTCHAR 00DB
ENCODING 219
SWIDTH 495 0
DWIDTH 11 0
BBX 9 19 1 0
BITMAP
0800
1C00
3600
2200
0000
E380
E380
E380
E380
E380
E380
E380
E380
E380
E380
E380
E380
7F00
3E00
ENDCHAR
STARTCHAR 00DC
ENCODING 220
SWIDTH 495 0
DWIDTH 11 0
BBX 9 18 1 0
BITMAP
7300
7700
7300
0000
E380
E380
E380
E380
E380
E380
E380
E380
E380
E380
E380
E380
7F00
3E00
ENDCHAR
STARTCHAR 00DD
ENCODING 221
SWIDTH 495 0
DWIDTH 11 0
BBX 11 19 0 0
BITMAP
0200
0700
1E00
0800
0000
E0E0
71C0
71C0
3180
3B80
1B80
1F00
0F00
0E00
0E00
0E00
0E00
0E00
0E00
ENDCHAR
STARTCHAR 00DE
ENCODING 222
SWIDTH 495 0
DWIDTH 11 0
BBX 9 14 1 0
BITMAP
E000
E000
FE00
FF00
E380
E380
E180
E380
E380
FF00
FE00
E000
E000
E000
ENDCHAR
STARTCHAR 00DF
ENCODING 223
SWIDTH 495 0
DWIDTH 11 0
BBX 10 15 1 0
BITMAP
3C00
7F00
E700
C700
C700
C600
CE00
CE00
CE00
C780
C3C0
C1C0
C9C0
CF80
CF00
ENDCHAR
STARTCHAR 00E0
ENCODING 224
SWIDTH 495 0
DWIDTH 11 0
BBX 9 15 1 0
BITMAP
1000
3800
1E00
0400
0000
7E00
7F00
0380
0380
3F80
FF80
E380
E380
FF80
7F80
ENDCHAR
STARTCHAR 00E1
ENCODING 225
SWIDTH 495 0
DWIDTH 11 0
BBX 9 15 1 0
BITMAP
0400
0E00
3C00
1000
0000
7E00
7F00
0380
0380
3F80
FF80
E380
E380
FF80
7F80
ENDCHAR
STARTCHAR 00E2
ENCODING 226
SWIDTH 495 0
DWIDTH 11 0
BBX 9 15 1 0
BITMAP
0800
1C00
3600
2200
0000
7E00
7F00
0380
0380
3F80
FF80
E380
E380
FF80
7F80
ENDCHAR
STARTCHAR 00E3
ENCODING 227
SWIDTH 495 0
DWIDTH 11 0
BBX 9 15 1 0
BITMAP
3900
7F00
2600
0000
0000
7E00
7F00
0380
0380
3F80
FF80
E380
E380
FF80
7F80
ENDCHAR
STARTCHAR 00E4
ENCODING 228
SWIDTH 495 0
DWIDTH 11 0
BBX 9 15 1 0
BITMAP
7300
7700
7300
0000
0000
7E00
7F00
0380
0380
3F80
FF80
E380
E380
FF80
7F80
ENDCHAR
STARTCHAR 00E5
ENCODING 229
SWIDTH 495 0
DWIDTH 11 0
BBX 9 16 1 0
BITMAP
1C00
3600
3600
1C00
0000
0000
7E00
7F00
0380
0380
3F80
FF80
E380
E380
FF80
7F80
ENDCHAR
STARTCHAR 00E6
ENCODING 230
SWIDTH 495 0
DWIDTH 11 0
BBX 10 10 1 0
BITMAP
F300
FF80
1DC0
0CC0
7FC0
FFC0
CC00
CC00
FF80
7380
ENDCHAR
STARTCHAR 00E7
ENCODING 231
SWIDTH 495 0
DWIDTH 11 0
BBX 9 14 1 -4
BITMAP
1F80
7F80
7000
E000
E000
E000
E000
F000
7F80
3F80
0C00
0E00
0600
1C00
ENDCHAR
STARTCHAR 00E8
ENCODING 232
SWIDTH 495 0
DWIDTH 11 0
BBX 9 15 1 0
BITMAP
1000
3800
1E00
0400
0000
3E00
7F00
E380
E180
FF80
FF80
E000
E100
7F00
3F00
ENDCHAR
STARTCHAR 00E9
ENCODING 233
SWIDTH 495 0
DWIDTH 11 0
BBX 9 15 1 0
BITMAP
0400
0E00
1E00
1800
0000
3E00
7F00
E380
E180
FF80
FF80
E000
E100
7F00
3F00
ENDCHAR
STARTCHAR 00EA
ENCODING 234
SWIDTH 495 0
DWIDTH 11 0
BBX 9 15 1 0
BITMAP
0800
1C00
3600
2200
0000
3E00
7F00
E380
E180
FF80
FF80
E000
E100
7F00
3F00
ENDCHAR
STARTCHAR 00EB
ENCODING 235
SWIDTH 495 0
DWIDTH 11 0
BBX 9 15 1 0
BITMAP
7300
7700
7300
0000
0000
3E00
7F00
E380
E180
FF80
FF80
E000
E100
7F00
3F00
ENDCHAR
STARTCHAR 00EC
ENCODING 236
SWIDTH 495 0
DWIDTH 11 0
BBX 9 15 1 0
BITMAP
1000
3800
3C00
0C00
0000
F800
F800
1800
1800
1800
1800
1800
1C80
1F80
0F80
ENDCHAR
STARTCHAR 00ED
ENCODING 237
SWIDTH 495 0
DWIDTH 11 0
BBX 9 15 1 0
BITMAP
0400
1E00
3C00
1000
0000
F800
F800
1800
1800
1800
1800
1800
1C80
1F80
0F80
ENDCHAR
STARTCHAR 00EE
ENCODING 238
SWIDTH 495 0
DWIDTH 11 0
BBX 9 15 1 0
BITMAP
0800
3C00
7600
2200
0000
F800
F800
1800
1800
1800
1800
1800
1C80
1F80
0F80
ENDCHAR
STARTCHAR 00EF
ENCODING 239
SWIDTH 495 0
DWIDTH 11 0
BBX 9 15 1 0
BITMAP
6700
E700
6700
0000
0000
F800
F800
1800
1800
1800
1800
1800
1C80
1F80
0F80
ENDCHAR
STARTCHAR 00F0
ENCODING 240
SWIDTH 495 0
DWIDTH 11 0
BBX 9 15 1 0
BITMAP
1800
1F80
1F80
1F00
1700
0380
3F80
7F80
E380
E380
E380
E380
E700
7F00
3E00
ENDCHAR
STARTCHAR 00F1
ENCODING 241
SWIDTH 495 0
DWIDTH 11 0
BBX 9 15 1 0
BITMAP
3900
7F00
2600
0000
0000
FE00
FF00
E300
E380
E380
E380
E380
E380
E380
E380
ENDCHAR
STARTCHAR 00F2
ENCODING 242
SWIDTH 495 0
DWIDTH 11 0
BBX 9 15 1 0
BITMAP
1000
3800
1E00
0400
0000
3E00
7F00
E380
E380
C180
C180
E380
E380
7F00
3E00
ENDCHAR
STARTCHAR 00F3
ENCODING 243
SWIDTH 495 0
DWIDTH 11 0
BBX 9 15 1 0
BITMAP
0400
0E00
3C00
1000
0000
3E00
7F00
E380
E380
C180
C180
E380
E380
7F00
3E00
ENDCHAR
STARTCHAR 00F4
ENCODING 244
SWIDTH 495 0
DWIDTH 11 0
BBX 9 15 1 0
BITMAP
0800
1C00
3600
2200
0000
3E00
7F00
E380
E380
C180
C180
E380
E380
7F00
3E00
ENDCHAR
STARTCHAR 00F5
ENCODING 245
SWIDTH 495 0
DWIDTH 11 0
BBX 9 15 1 0
BITMAP
3900
7F00
2600
0000
0000
3E00
7F00
E380
E380
C180
C180
E380
E380
7F00
3E00
ENDCHAR
STARTCHAR 00F6
ENCODING 246
SWIDTH 495 0
DWIDTH 11 0
BBX 9 15 1 0
BITMAP
7300
7700
7300
0000
0000
3E00
7F00
E380
E380
C180
C180
E380
E380
7F00
3E00
ENDCHAR
STARTCHAR 00F7
ENCODING 247
SWIDTH 495 0
DWIDTH 11 0
BBX 9 11 1 0
BITMAP
1C00
1C00
1C00
0000
0000
FF80
FF80
0000
1C00
1C00
1C00
ENDCHAR
STARTCHAR 00F8
ENCODING 248
SWIDTH 495 0
DWIDTH 11 0
BBX 9 10 1 -1
BITMAP
3F80
7F00
E780
E780
CD80
D980
F380
F380
7F00
FE00
ENDCHAR
STARTCHAR 00F9
ENCODING 249
SWIDTH 495 0
DWIDTH 11 0
BBX 9 15 1 0
BITMAP
1000
3800
1E00
0400
0000
E380
E380
E380
E380
E380
E380
E380
6380
7F80
3F00
ENDCHAR
STARTCHAR 00FA
ENCODING 250
SWIDTH 495 0
DWIDTH 11 0
BBX 9 15 1 0
BITMAP
0400
1E00
3C00
1000
0000
E380
E380
E380
E380
E380
E380
E380
6380
7F80
3F00
ENDCHAR
STARTCHAR 00FB
ENCODING 251
SWIDTH 495 0
DWIDTH 11 0
BBX 9 15 1 0
BITMAP
0800
1C00
3600
2200
0000
E380
E380
E380
E380
E380
E380
E380
6380
7F80
3F00
ENDCHAR
STARTCHAR 00FC
ENCODING 252
SWIDTH 495 0
DWIDTH 11 0
BBX 9 15 1 0
BITMAP
7300
7700
7300
0000
0000
E380
E380
E380
E380
E380
E380
E380
6380
7F80
3F00
ENDCHAR
STARTCHAR 00FD
ENCODING 253
SWIDTH 495 0
DWIDTH 11 0
BBX 10 19 0 -4
BITMAP
0200
0F00
1E00
0800
0000
70C0
71C0
31C0
3980
3980
1B80
1F00
1F00
0F00
0E00
0E00
0C00
7C00
F800
ENDCHAR
STARTCHAR 00FE
ENCODING 254
SWIDTH 495 0
DWIDTH 11 0
BBX 9 19 1 -4
BITMAP
E000
E000
E000
E000
FE00
FF00
E380
E380
E380
E180
E180
E380
E380
FF00
FE00
E000
E000
E000
E000
ENDCHAR
STARTCHAR 00FF
ENCODING 255
SWIDTH 495 0
DWIDTH 11 0
BBX 10 19 0 -4
BITMAP
3980
3B80
3980
0000
0000
70C0
71C0
31C0
3980
3980
1B80
1F00
1F00
0F00
0E00
0E00
0C00
7C00
F800
ENDCHAR
STARTCHAR 0152
ENCODING 140
SWIDTH 495 0
DWIDTH 11 0
BBX 11 14 0 0
BITMAP
1FE0
3FE0
7300
6300
6300
E3C0
E3C0
E300
E300
6300
6300
7300
3FE0
1FE0
ENDCHAR
STARTCHAR 0153
ENCODING 156
SWIDTH 495 0
DWIDTH 11 0
BBX 11 10 0 0
BITMAP
3980
7FC0
6EE0
6660
E7E0
E7E0
6600
6E00
7FC0
39C0
ENDCHAR
STARTCHAR 0160
ENCODING 138
SWIDTH 495 0
DWIDTH 11 0
BBX 9 19 1 0
BITMAP
3600
3E00
1C00
0800
0000
3F00
7F00
E100
E000
E000
F000
7E00
1F00
0780
0380
0380
C380
FF00
7E00
ENDCHAR
STARTCHAR 0161
ENCODING 154
SWIDTH 495 0
DWIDTH 11 0
BBX 9 15 1 0
BITMAP
3600
3E00
1C00
0800
0000
3F00
7F00
E100
F000
7E00
3F00
0780
4380
FF00
7E00
ENDCHAR
STARTCHAR 0178
ENCODING 159
SWIDTH 495 0
DWIDTH 11 0
BBX 11 18 0 0
BITMAP
3980
3B80
3980
0000
E0E0
71C0
71C0
3180
3B80
1B80
1F00
0F00
0E00
0E00
0E00
0E00
0E00
0E00
ENDCHAR
STARTCHAR 017D
ENCODING 142
SWIDTH 495 0
DWIDTH 11 0
BBX 9 19 1 0
BITMAP
3600
3E00
1C00
0800
0000
FF80
FF80
0700
0700
0E00
0E00
1C00
3C00
3800
7000
7000
E000
FF80
FF80
ENDCHAR
STARTCHAR 017E
ENCODING 158
SWIDTH 495 0
DWIDTH 11 0
BBX 9 15 1 0
BITMAP
3600
3E00
1C00
0800
0000
7F00
7F00
0700
0E00
1C00
3C00
3800
7000
FF80
FF80
ENDCHAR
STARTCHAR 0192
ENCODING 131
SWIDTH 495 0
DWIDTH 11 0
BBX 11 19 0 -4
BITMAP
07E0
0FE0
1C00
1C00
1C00
7FC0
7FC0
1C00
1C00
1C00
1C00
1C00
1C00
1C00
1C00
1C00
1C00
F800
F000
ENDCHAR
STARTCHAR 02C6
ENCODING 136
SWIDTH 495 0
DWIDTH 11 0
BBX 5 4 3 11
BITMAP
20
70
D8
88
ENDCHAR
STARTCHAR 02DC
ENCODING 152
SWIDTH 495 0
DWIDTH 11 0
BBX 7 3 2 12
BITMAP
72
FE
4C
ENDCHAR
STARTCHAR 2013
ENCODING 150
SWIDTH 495 0
DWIDTH 11 0
BBX 9 2 1 5
BITMAP
FF80
FF80
ENDCHAR
STARTCHAR 2014
ENCODING 151
SWIDTH 495 0
DWIDTH 11 0
BBX 11 2 0 5
BITMAP
FFE0
FFE0
ENDCHAR
STARTCHAR 2018
ENCODING 145
SWIDTH 495 0
DWIDTH 11 0
BBX 5 7 3 9
BITMAP
18
78
60
E0
F0
F0
60
ENDCHAR
STARTCHAR 2019
ENCODING 146
SWIDTH 495 0
DWIDTH 11 0
BBX 5 7 3 9
BITMAP
30
78
78
38
38
F0
C0
ENDCHAR
STARTCHAR 201A
ENCODING 130
SWIDTH 495 0
DWIDTH 11 0
BBX 5 7 3 -4
BITMAP
70
78
78
30
30
E0
C0
ENDCHAR
STARTCHAR 201C
ENCODING 147
SWIDTH 495 0
DWIDTH 11 0
BBX 9 6 1 9
BITMAP
3180
7380
C600
E700
E700
E300
ENDCHAR
STARTCHAR 201D
ENCODING 148
SWIDTH 495 0
DWIDTH 11 0
BBX 9 6 1 10
BITMAP
7380
7380
7380
3180
E700
C600
ENDCHAR
STARTCHAR 201E
ENCODING 132
SWIDTH 495 0
DWIDTH 11 0
BBX 10 6 0 -4
BITMAP
1080
79C0
39C0
18C0
3180
E300
ENDCHAR
STARTCHAR 2020
ENCODING 134
SWIDTH 495 0
DWIDTH 11 0
BBX 9 17 1 -3
BITMAP
1C00
1C00
1C00
1C00
FF80
FF80
1C00
1C00
1C00
1C00
1C00
1C00
1C00
1C00
1C00
0800
0800
ENDCHAR
STARTCHAR 2021
ENCODING 135
SWIDTH 495 0
DWIDTH 11 0
BBX 9 17 1 -3
BITMAP
1C00
1C00
1C00
1C00
FF80
FF80
1C00
1C00
1C00
FF80
FF80
1C00
1C00
1C00
1800
1800
0800
ENDCHAR
STARTCHAR 2022
ENCODING 149
SWIDTH 495 0
DWIDTH 11 0
BBX 5 6 3 4
BITMAP
70
F8
F8
F8
F8
70
ENDCHAR
STARTCHAR 2026
ENCODING 133
SWIDTH 495 0
DWIDTH 11 0
BBX 9 2 1 0
BITMAP
DD80
DD80
ENDCHAR
STARTCHAR 2030
ENCODING 137
SWIDTH 495 0
DWIDTH 11 0
BBX 11 14 0 0
BITMAP
7000
D000
D000
D060
5180
2600
1800
6000
39C0
2D60
2D60
2D60
2D60
39C0
ENDCHAR
STARTCHAR 2039
ENCODING 139
SWIDTH 495 0
DWIDTH 11 0
BBX 5 10 3 0
BITMAP
10
38
38
70
F0
F0
70
38
38
10
ENDCHAR
STARTCHAR 203A
ENCODING 155
SWIDTH 495 0
DWIDTH 11 0
BBX 5 10 4 1
BITMAP
40
E0
E0
70
78
78
70
E0
E0
40
ENDCHAR
STARTCHAR 20AC
ENCODING 128
SWIDTH 495 0
DWIDTH 11 0
BBX 9 14 1 0
BITMAP
0F80
3F80
3800
7000
FF00
FF00
7000
FE00
FE00
7000
7000
3880
1F80
0F80
ENDCHAR
STARTCHAR 2122
ENCODING 153
SWIDTH 495 0
DWIDTH 11 0
BBX 10 6 0 8
BITMAP
F640
26C0
25C0
2540
2440
2440
ENDCHAR
ENDFONT
