STARTFONT 2.1
COMMENT
COMMENT Converted from OpenType font "UbuntuMono-Bold.ttf" by "otf2bdf 3.0".
COMMENT
FONT -FreeType-ubuntu mono cp1252-Bold-R-Normal--25-180-100-100-P-100-ISO10646-1
SIZE 18 100 100
FONTBOUNDINGBOX 13 25 0 -4
STARTPROPERTIES 19
FOUNDRY "FreeType"
FAMILY_NAME "ubuntu mono cp1252"
WEIGHT_NAME "Bold"
SLANT "R"
SETWIDTH_NAME "Normal"
ADD_STYLE_NAME ""
PIXEL_SIZE 25
POINT_SIZE 180
RESOLUTION_X 100
RESOLUTION_Y 100
SPACING "P"
AVERAGE_WIDTH 100
CHARSET_REGISTRY "ISO10646"
CHARSET_ENCODING "1"
FONT_ASCENT 20
FONT_DESCENT 4
COPYRIGHT "Copyright 2011 Canonical Ltd.  Licensed under the Ubuntu Font Licence 1.0"
_OTF_FONTFILE "UbuntuMono-Bold.ttf"
_OTF_PSNAME "UbuntuMono-Bold"
ENDPROPERTIES
CHARS 223
STARTCHAR 0000
ENCODING 157
SWIDTH 520 0
DWIDTH 13 0
BBX 0 0 0 0
BITMAP
ENDCHAR
STARTCHAR 0008
ENCODING 8
SWIDTH 520 0
DWIDTH 13 0
BBX 0 0 0 0
BITMAP
ENDCHAR
STARTCHAR 0009
ENCODING 9
SWIDTH 520 0
DWIDTH 13 0
BBX 0 0 0 0
BITMAP
ENDCHAR
STARTCHAR 000D
ENCODING 13
SWIDTH 520 0
DWIDTH 13 0
BBX 0 0 0 0
BITMAP
ENDCHAR
STARTCHAR 001D
ENCODING 29
SWIDTH 520 0
DWIDTH 13 0
BBX 0 0 0 0
BITMAP
ENDCHAR
STARTCHAR 0020
ENCODING 32
SWIDTH 520 0
DWIDTH 13 0
BBX 0 0 0 0
BITMAP
ENDCHAR
STARTCHAR 0021
ENCODING 33
SWIDTH 520 0
DWIDTH 13 0
BBX 4 15 4 0
BITMAP
F0
F0
F0
F0
F0
F0
70
70
70
70
00
00
70
F0
70
ENDCHAR
STARTCHAR 0022
ENCODING 34
SWIDTH 520 0
DWIDTH 13 0
BBX 8 7 2 10
BITMAP
E7
E7
E7
E7
E7
63
63
ENDCHAR
STARTCHAR 0023
ENCODING 35
SWIDTH 520 0
DWIDTH 13 0
BBX 12 15 0 0
BITMAP
0E60
0CE0
0CE0
0CE0
FFF0
FFF0
FFF0
19C0
FFF0
FFF0
FFF0
3380
3380
7380
7300
ENDCHAR
STARTCHAR 0024
ENCODING 36
SWIDTH 520 0
DWIDTH 13 0
BBX 11 19 1 -2
BITMAP
0E00
0E00
3F00
7FC0
7FC0
F040
F000
7E00
7F80
3FC0
07C0
01E0
41E0
FFC0
FFC0
3F80
0E00
0E00
0E00
ENDCHAR
STARTCHAR 0025
ENCODING 37
SWIDTH 520 0
DWIDTH 13 0
BBX 12 15 0 0
BITMAP
7830
7C60
CC60
CCC0
CD80
7F80
7B00
0600
0EE0
0DF0
19B0
39B0
31B0
61F0
E0E0
ENDCHAR
STARTCHAR 0026
ENCODING 38
SWIDTH 520 0
DWIDTH 13 0
BBX 11 15 1 0
BITMAP
3E00
7F00
7F00
6300
7700
7E00
38C0
7CC0
EEC0
C7C0
C3C0
E380
FFC0
FFC0
3CE0
ENDCHAR
STARTCHAR 0027
ENCODING 39
SWIDTH 520 0
DWIDTH 13 0
BBX 3 7 5 10
BITMAP
E0
E0
E0
E0
E0
C0
C0
ENDCHAR
STARTCHAR 0028
ENCODING 40
SWIDTH 520 0
DWIDTH 13 0
BBX 8 22 2 -4
BITMAP
02
07
0F
1C
3C
38
70
70
60
E0
E0
E0
E0
60
70
70
78
38
1C
0E
07
02
ENDCHAR
STARTCHAR 0029
ENCODING 41
SWIDTH 520 0
DWIDTH 13 0
BBX 8 22 2 -4
BITMAP
40
F0
78
3C
1C
0E
0E
07
07
07
07
07
07
07
07
0E
0E
1E
3C
78
70
60
ENDCHAR
STARTCHAR 002A
ENCODING 42
SWIDTH 520 0
DWIDTH 13 0
BBX 10 9 1 6
BITMAP
0E00
0E00
4CC0
7DC0
FFC0
1E00
3B80
7B80
1100
ENDCHAR
STARTCHAR 002B
ENCODING 43
SWIDTH 520 0
DWIDTH 13 0
BBX 11 11 1 1
BITMAP
0E00
0E00
0E00
0E00
FFE0
FFE0
FFE0
0E00
0E00
0E00
0E00
ENDCHAR
STARTCHAR 002C
ENCODING 44
SWIDTH 520 0
DWIDTH 13 0
BBX 6 8 3 -4
BITMAP
38
7C
7C
3C
18
38
F0
E0
ENDCHAR
STARTCHAR 002D
ENCODING 45
SWIDTH 520 0
DWIDTH 13 0
BBX 7 3 3 5
BITMAP
FE
FE
FE
ENDCHAR
STARTCHAR 002E
ENCODING 46
SWIDTH 520 0
DWIDTH 13 0
BBX 4 4 4 0
BITMAP
70
F0
F0
70
ENDCHAR
STARTCHAR 002F
ENCODING 47
SWIDTH 520 0
DWIDTH 13 0
BBX 10 21 1 -4
BITMAP
01C0
01C0
03C0
0380
0380
0780
0700
0700
0F00
0E00
0E00
1E00
1C00
1C00
3C00
3800
3800
7800
7000
7000
F000
ENDCHAR
STARTCHAR 0030
ENCODING 48
SWIDTH 520 0
DWIDTH 13 0
BBX 11 15 1 0
BITMAP
1F00
3F80
7FC0
F1C0
E1C0
ECE0
EEE0
ECE0
E0E0
E0E0
E1C0
F1C0
7FC0
3F80
1F00
ENDCHAR
STARTCHAR 0031
ENCODING 49
SWIDTH 520 0
DWIDTH 13 0
BBX 10 15 1 0
BITMAP
0600
1E00
7E00
FE00
6E00
0E00
0E00
0E00
0E00
0E00
0E00
0E00
7FC0
7FC0
7FC0
ENDCHAR
STARTCHAR 0032
ENCODING 50
SWIDTH 520 0
DWIDTH 13 0
BBX 11 15 1 0
BITMAP
1F00
7F80
FFC0
63C0
01C0
01C0
0380
0700
0E00
1C00
3800
7000
7FE0
FFE0
FFE0
ENDCHAR
STARTCHAR 0033
ENCODING 51
SWIDTH 520 0
DWIDTH 13 0
BBX 10 15 1 0
BITMAP
3E00
FF80
7F80
43C0
01C0
0380
1F80
1F80
1FC0
03C0
01C0
01C0
FFC0
FF80
7F00
ENDCHAR
STARTCHAR 0034
ENCODING 52
SWIDTH 520 0
DWIDTH 13 0
BBX 11 15 1 0
BITMAP
0380
0780
0F80
1F80
3B80
3380
7380
E380
FFE0
FFE0
FFE0
0380
0380
0380
0380
ENDCHAR
STARTCHAR 0035
ENCODING 53
SWIDTH 520 0
DWIDTH 13 0
BBX 10 15 1 0
BITMAP
3FC0
3FC0
3FC0
7000
7000
7E00
7F80
7FC0
07C0
01C0
01C0
83C0
FFC0
FF80
7E00
ENDCHAR
STARTCHAR 0036
ENCODING 54
SWIDTH 520 0
DWIDTH 13 0
BBX 10 15 1 0
BITMAP
03C0
0FC0
3FC0
3C00
7800
7400
FF80
FFC0
F3C0
E1C0
E1C0
F1C0
7FC0
3F80
1F00
ENDCHAR
STARTCHAR 0037
ENCODING 55
SWIDTH 520 0
DWIDTH 13 0
BBX 10 15 1 0
BITMAP
FFC0
FFC0
FFC0
03C0
0380
0780
0700
0F00
0E00
0E00
1C00
1C00
1C00
3C00
3800
ENDCHAR
STARTCHAR 0038
ENCODING 56
SWIDTH 520 0
DWIDTH 13 0
BBX 11 15 1 0
BITMAP
1F00
7F80
7FC0
F1C0
E1C0
71C0
7F80
3F80
73C0
E1C0
E0E0
E1E0
FFC0
7FC0
3F00
ENDCHAR
STARTCHAR 0039
ENCODING 57
SWIDTH 520 0
DWIDTH 13 0
BBX 10 15 1 0
BITMAP
1F00
7F80
7FC0
F1C0
E1C0
E1C0
F9C0
7FC0
3FC0
0DC0
03C0
0F80
7F00
7E00
7800
ENDCHAR
STARTCHAR 003A
ENCODING 58
SWIDTH 520 0
DWIDTH 13 0
BBX 4 12 4 0
BITMAP
70
F0
F0
70
00
00
00
00
70
F0
F0
70
ENDCHAR
STARTCHAR 003B
ENCODING 59
SWIDTH 520 0
DWIDTH 13 0
BBX 5 16 3 -4
BITMAP
38
78
78
38
00
00
00
00
38
78
78
38
18
38
F0
C0
ENDCHAR
STARTCHAR 003C
ENCODING 60
SWIDTH 520 0
DWIDTH 13 0
BBX 11 11 1 1
BITMAP
0040
03C0
0FE0
7F80
FC00
F000
FC00
7F80
0FE0
03C0
0040
ENDCHAR
STARTCHAR 003D
ENCODING 61
SWIDTH 520 0
DWIDTH 13 0
BBX 11 8 1 2
BITMAP
FFE0
FFE0
FFE0
0000
0000
FFE0
FFE0
FFE0
ENDCHAR
STARTCHAR 003E
ENCODING 62
SWIDTH 520 0
DWIDTH 13 0
BBX 10 11 1 1
BITMAP
4000
F000
FE00
3F80
0FC0
01C0
0FC0
3F80
FE00
F000
4000
ENDCHAR
STARTCHAR 003F
ENCODING 63
SWIDTH 520 0
DWIDTH 13 0
BBX 9 15 2 0
BITMAP
7E00
FF00
FF80
C780
0380
0700
0F00
1E00
3C00
3800
0000
0000
3800
3C00
3800
ENDCHAR
STARTCHAR 0040
ENCODING 64
SWIDTH 520 0
DWIDTH 13 0
BBX 12 18 0 -3
BITMAP
0F80
1FC0
38E0
7060
63F0
67F0
67F0
EE70
EE70
EE70
EE70
6E70
67F0
67F0
33E0
3800
1FE0
07E0
ENDCHAR
STARTCHAR 0041
ENCODING 65
SWIDTH 520 0
DWIDTH 13 0
BBX 12 15 0 0
BITMAP
0F00
0F00
0F80
1F80
1D80
1DC0
19C0
39C0
38E0
3FE0
7FE0
7FE0
70F0
7070
F070
ENDCHAR
STARTCHAR 0042
ENCODING 66
SWIDTH 520 0
DWIDTH 13 0
BBX 11 15 1 0
BITMAP
FF00
FF80
FFC0
E1C0
E1C0
E3C0
FF80
FF80
FFC0
E1E0
E0E0
E1E0
FFC0
FFC0
FF00
ENDCHAR
STARTCHAR 0043
ENCODING 67
SWIDTH 520 0
DWIDTH 13 0
BBX 11 15 1 0
BITMAP
0FC0
3FE0
7FC0
7840
F000
E000
E000
E000
E000
E000
F000
F840
7FC0
3FE0
1FC0
ENDCHAR
STARTCHAR 0044
ENCODING 68
SWIDTH 520 0
DWIDTH 13 0
BBX 11 15 1 0
BITMAP
FE00
FF80
FFC0
E3C0
E1C0
E1E0
E0E0
E0E0
E0E0
E1E0
E1C0
E3C0
FF80
FF80
FE00
ENDCHAR
STARTCHAR 0045
ENCODING 69
SWIDTH 520 0
DWIDTH 13 0
BBX 10 15 2 0
BITMAP
FF80
FF80
FF80
E000
E000
FF00
FF00
FF00
E000
E000
E000
E000
FFC0
FFC0
FFC0
ENDCHAR
STARTCHAR 0046
ENCODING 70
SWIDTH 520 0
DWIDTH 13 0
BBX 9 15 2 0
BITMAP
FF80
FF80
FF80
E000
E000
E000
FF00
FF00
FF00
E000
E000
E000
E000
E000
E000
ENDCHAR
STARTCHAR 0047
ENCODING 71
SWIDTH 520 0
DWIDTH 13 0
BBX 11 15 1 0
BITMAP
0FE0
3FC0
7FC0
7840
F000
E000
E000
E1E0
E1E0
E1E0
E1E0
F1E0
7FE0
3FE0
1FE0
ENDCHAR
STARTCHAR 0048
ENCODING 72
SWIDTH 520 0
DWIDTH 13 0
BBX 10 15 1 0
BITMAP
E1C0
E1C0
E1C0
E1C0
E1C0
FFC0
FFC0
FFC0
E1C0
E1C0
E1C0
E1C0
E1C0
E1C0
E1C0
ENDCHAR
STARTCHAR 0049
ENCODING 73
SWIDTH 520 0
DWIDTH 13 0
BBX 10 15 1 0
BITMAP
FFC0
FFC0
FFC0
0E00
0E00
0E00
0E00
0E00
0E00
0E00
0E00
0E00
FFC0
FFC0
FFC0
ENDCHAR
STARTCHAR 004A
ENCODING 74
SWIDTH 520 0
DWIDTH 13 0
BBX 10 15 1 0
BITMAP
3FC0
3FC0
3FC0
01C0
01C0
01C0
01C0
01C0
01C0
01C0
01C0
43C0
7F80
FF80
3E00
ENDCHAR
STARTCHAR 004B
ENCODING 75
SWIDTH 520 0
DWIDTH 13 0
BBX 11 15 1 0
BITMAP
E1C0
E3C0
E380
E780
EF00
EE00
FC00
FE00
EE00
EF00
E780
E3C0
E1C0
E1E0
E0E0
ENDCHAR
STARTCHAR 004C
ENCODING 76
SWIDTH 520 0
DWIDTH 13 0
BBX 10 15 2 0
BITMAP
E000
E000
E000
E000
E000
E000
E000
E000
E000
E000
E000
E000
FFC0
FFC0
FFC0
ENDCHAR
STARTCHAR 004D
ENCODING 77
SWIDTH 520 0
DWIDTH 13 0
BBX 11 15 1 0
BITMAP
E1C0
F1C0
F1C0
F3C0
D3C0
DBC0
DEE0
DEE0
CEE0
CEE0
C0E0
C0E0
C0E0
C0E0
C0E0
ENDCHAR
STARTCHAR 004E
ENCODING 78
SWIDTH 520 0
DWIDTH 13 0
BBX 10 15 1 0
BITMAP
E0C0
F0C0
F0C0
F8C0
F8C0
FCC0
ECC0
EEC0
E6C0
E7C0
E3C0
E3C0
E1C0
E1C0
E0C0
ENDCHAR
STARTCHAR 004F
ENCODING 79
SWIDTH 520 0
DWIDTH 13 0
BBX 11 15 1 0
BITMAP
1F00
7F80
7FC0
F1C0
E1E0
E0E0
E0E0
E0E0
E0E0
E0E0
E1E0
F1C0
7FC0
7F80
1F00
ENDCHAR
STARTCHAR 0050
ENCODING 80
SWIDTH 520 0
DWIDTH 13 0
BBX 11 15 1 0
BITMAP
FF00
FFC0
FFC0
E1E0
E0E0
E0E0
E1E0
FFC0
FFC0
FF00
E000
E000
E000
E000
E000
ENDCHAR
STARTCHAR 0051
ENCODING 81
SWIDTH 520 0
DWIDTH 13 0
BBX 11 19 1 -4
BITMAP
1F00
7F80
7FC0
F1C0
E1E0
E0E0
E0E0
E0E0
E0E0
E0E0
E1E0
F1C0
7FC0
7F80
1F00
0E00
0FE0
07C0
01C0
ENDCHAR
STARTCHAR 0052
ENCODING 82
SWIDTH 520 0
DWIDTH 13 0
BBX 11 15 1 0
BITMAP
FE00
FF80
FFC0
E3C0
E1C0
E1C0
E3C0
FFC0
FF80
FF00
E780
E380
E1C0
E1C0
E0E0
ENDCHAR
STARTCHAR 0053
ENCODING 83
SWIDTH 520 0
DWIDTH 13 0
BBX 10 15 1 0
BITMAP
1F00
7FC0
7F80
F080
E000
F800
7F00
3F80
0FC0
03C0
01C0
41C0
FFC0
FF80
3F00
ENDCHAR
STARTCHAR 0054
ENCODING 84
SWIDTH 520 0
DWIDTH 13 0
BBX 11 15 1 0
BITMAP
FFE0
FFE0
FFE0
0E00
0E00
0E00
0E00
0E00
0E00
0E00
0E00
0E00
0E00
0E00
0E00
ENDCHAR
STARTCHAR 0055
ENCODING 85
SWIDTH 520 0
DWIDTH 13 0
BBX 11 15 1 0
BITMAP
E1E0
E1E0
E1E0
E1E0
E1E0
E1E0
E1E0
E1E0
E1E0
E1E0
E1C0
F1C0
FFC0
7F80
3F00
ENDCHAR
STARTCHAR 0056
ENCODING 86
SWIDTH 520 0
DWIDTH 13 0
BBX 12 15 0 0
BITMAP
F070
7070
70F0
70E0
70E0
38E0
38E0
39C0
19C0
1DC0
1D80
1F80
0F80
0F00
0F00
ENDCHAR
STARTCHAR 0057
ENCODING 87
SWIDTH 520 0
DWIDTH 13 0
BBX 11 15 1 0
BITMAP
C0E0
C0E0
C0E0
C0E0
C0E0
CCE0
CEE0
DEE0
DEE0
DBE0
DBC0
F3C0
F1C0
F1C0
E1C0
ENDCHAR
STARTCHAR 0058
ENCODING 88
SWIDTH 520 0
DWIDTH 13 0
BBX 12 15 0 0
BITMAP
7070
78E0
38E0
1DC0
1F80
0F80
0F00
0F00
0F80
1FC0
1DC0
39E0
78E0
70F0
F070
ENDCHAR
STARTCHAR 0059
ENCODING 89
SWIDTH 520 0
DWIDTH 13 0
BBX 11 15 1 0
BITMAP
E0E0
E1E0
E1C0
71C0
7380
3B80
3F00
1F00
1E00
0E00
0E00
0E00
0E00
0E00
0E00
ENDCHAR
STARTCHAR 005A
ENCODING 90
SWIDTH 520 0
DWIDTH 13 0
BBX 10 15 1 0
BITMAP
FFC0
FFC0
FFC0
0380
0700
0700
0E00
0C00
1C00
3800
3800
7000
7FC0
FFC0
FFC0
ENDCHAR
STARTCHAR 005B
ENCODING 91
SWIDTH 520 0
DWIDTH 13 0
BBX 7 21 3 -4
BITMAP
FE
FE
FE
E0
E0
E0
E0
E0
E0
E0
E0
E0
E0
E0
E0
E0
E0
E0
FE
FE
FE
ENDCHAR
STARTCHAR 005C
ENCODING 92
SWIDTH 520 0
DWIDTH 13 0
BBX 10 21 1 -4
BITMAP
F000
7000
7000
7800
3800
3800
3C00
1C00
1C00
1E00
0E00
0E00
0F00
0700
0700
0780
0380
0380
03C0
01C0
01C0
ENDCHAR
STARTCHAR 005D
ENCODING 93
SWIDTH 520 0
DWIDTH 13 0
BBX 7 21 3 -4
BITMAP
FE
FE
FE
0E
0E
0E
0E
0E
0E
0E
0E
0E
0E
0E
0E
0E
0E
0E
FE
FE
FE
ENDCHAR
STARTCHAR 005E
ENCODING 94
SWIDTH 520 0
DWIDTH 13 0
BBX 11 8 1 7
BITMAP
0E00
1F00
3F00
3B80
73C0
F1C0
E0E0
60C0
ENDCHAR
STARTCHAR 005F
ENCODING 95
SWIDTH 520 0
DWIDTH 13 0
BBX 12 3 0 -4
BITMAP
FFF0
FFF0
FFF0
ENDCHAR
STARTCHAR 0060
ENCODING 96
SWIDTH 520 0
DWIDTH 13 0
BBX 5 4 4 13
BITMAP
40
F0
78
18
ENDCHAR
STARTCHAR 0061
ENCODING 97
SWIDTH 520 0
DWIDTH 13 0
BBX 10 12 1 0
BITMAP
3F00
7F80
7FC0
01C0
3FC0
7FC0
FFC0
E1C0
E1C0
FFC0
7FC0
3FC0
ENDCHAR
STARTCHAR 0062
ENCODING 98
SWIDTH 520 0
DWIDTH 13 0
BBX 10 17 2 0
BITMAP
E000
E000
E000
E000
E000
FE00
FF00
FF80
E380
E3C0
E1C0
E1C0
E3C0
E380
FF80
FF00
FE00
ENDCHAR
STARTCHAR 0063
ENCODING 99
SWIDTH 520 0
DWIDTH 13 0
BBX 11 12 1 0
BITMAP
0FC0
3FC0
7FC0
7800
F000
E000
E000
F000
7800
7FC0
3FE0
0FC0
ENDCHAR
STARTCHAR 0064
ENCODING 100
SWIDTH 520 0
DWIDTH 13 0
BBX 10 17 1 0
BITMAP
01C0
01C0
01C0
01C0
01C0
3DC0
7FC0
FFC0
F3C0
E1C0
E1C0
E1C0
E1C0
F1C0
FFC0
7FC0
1F80
ENDCHAR
STARTCHAR 0065
ENCODING 101
SWIDTH 520 0
DWIDTH 13 0
BBX 11 12 1 0
BITMAP
1F00
3F80
7FC0
F1C0
E0C0
FFE0
FFE0
FFE0
E0C0
7FC0
7FC0
1F80
ENDCHAR
STARTCHAR 0066
ENCODING 102
SWIDTH 520 0
DWIDTH 13 0
BBX 11 17 1 0
BITMAP
07E0
1FE0
1FE0
1C20
3C00
FFC0
FFC0
FFC0
3C00
3C00
3C00
3C00
3C00
3C00
3C00
3C00
3C00
ENDCHAR
STARTCHAR 0067
ENCODING 103
SWIDTH 520 0
DWIDTH 13 0
BBX 10 16 1 -4
BITMAP
1FC0
7FC0
7FC0
F1C0
E1C0
E1C0
E1C0
F1C0
FFC0
7FC0
3FC0
01C0
43C0
FF80
FF80
7E00
ENDCHAR
STARTCHAR 0068
ENCODING 104
SWIDTH 520 0
DWIDTH 13 0
BBX 9 17 2 0
BITMAP
E000
E000
E000
E000
E000
FE00
FF00
FF80
E780
E380
E380
E380
E380
E380
E380
E380
E380
ENDCHAR
STARTCHAR 0069
ENCODING 105
SWIDTH 520 0
DWIDTH 13 0
BBX 11 17 1 0
BITMAP
1800
3C00
3C00
1800
0000
FC00
FC00
FC00
1C00
1C00
1C00
1C00
1C00
1E40
1FC0
0FE0
07C0
ENDCHAR
STARTCHAR 006A
ENCODING 106
SWIDTH 520 0
DWIDTH 13 0
BBX 9 21 1 -4
BITMAP
0700
0780
0780
0700
0000
7F80
7F80
7F80
0380
0380
0380
0380
0380
0380
0380
0380
0380
4380
7F80
FF00
3E00
ENDCHAR
STARTCHAR 006B
ENCODING 107
SWIDTH 520 0
DWIDTH 13 0
BBX 10 17 2 0
BITMAP
E000
E000
E000
E000
E000
E380
E780
EF00
EE00
FC00
F800
FC00
EE00
EF00
E780
E380
E3C0
ENDCHAR
STARTCHAR 006C
ENCODING 108
SWIDTH 520 0
DWIDTH 13 0
BBX 11 17 1 0
BITMAP
FC00
FC00
FC00
1C00
1C00
1C00
1C00
1C00
1C00
1C00
1C00
1C00
1C00
1E40
1FC0
0FE0
07C0
ENDCHAR
STARTCHAR 006D
ENCODING 109
SWIDTH 520 0
DWIDTH 13 0
BBX 11 12 1 0
BITMAP
FBC0
FFC0
FFE0
CCE0
CCE0
CEE0
CEE0
C0E0
C0E0
C0E0
C0E0
C0E0
ENDCHAR
STARTCHAR 006E
ENCODING 110
SWIDTH 520 0
DWIDTH 13 0
BBX 9 12 2 0
BITMAP
FE00
FF00
FF80
E780
E380
E380
E380
E380
E380
E380
E380
E380
ENDCHAR
STARTCHAR 006F
ENCODING 111
SWIDTH 520 0
DWIDTH 13 0
BBX 11 12 1 0
BITMAP
1F00
7F80
7FC0
F1C0
E1E0
E0E0
E0E0
E1E0
F1C0
7FC0
7F80
1F00
ENDCHAR
STARTCHAR 0070
ENCODING 112
SWIDTH 520 0
DWIDTH 13 0
BBX 10 16 2 -4
BITMAP
FE00
FF00
FF80
E380
E3C0
E1C0
E1C0
E3C0
E380
FF80
FF00
FE00
E000
E000
E000
E000
ENDCHAR
STARTCHAR 0071
ENCODING 113
SWIDTH 520 0
DWIDTH 13 0
BBX 10 16 1 -4
BITMAP
1FC0
7FC0
7FC0
F1C0
E1C0
E1C0
E1C0
E1C0
F1C0
FFC0
7FC0
3FC0
01C0
01C0
01C0
01C0
ENDCHAR
STARTCHAR 0072
ENCODING 114
SWIDTH 520 0
DWIDTH 13 0
BBX 9 12 2 0
BITMAP
3F80
FF80
FF80
E000
E000
E000
E000
E000
E000
E000
E000
E000
ENDCHAR
STARTCHAR 0073
ENCODING 115
SWIDTH 520 0
DWIDTH 13 0
BBX 10 12 1 0
BITMAP
1F80
7F80
7F80
7080
7000
7E00
1F80
03C0
41C0
7FC0
FF80
3F00
ENDCHAR
STARTCHAR 0074
ENCODING 116
SWIDTH 520 0
DWIDTH 13 0
BBX 11 15 1 0
BITMAP
0C00
1C00
1C00
FFE0
FFE0
FFE0
1C00
1C00
1C00
1C00
1C00
1C00
1FE0
1FE0
0FC0
ENDCHAR
STARTCHAR 0075
ENCODING 117
SWIDTH 520 0
DWIDTH 13 0
BBX 10 12 1 0
BITMAP
F1C0
F1C0
F1C0
F1C0
F1C0
F1C0
F1C0
F1C0
71C0
7FC0
7FC0
1F80
ENDCHAR
STARTCHAR 0076
ENCODING 118
SWIDTH 520 0
DWIDTH 13 0
BBX 12 12 0 0
BITMAP
F070
7070
70E0
78E0
38E0
39C0
3DC0
1F80
1F80
0F80
0F00
0700
ENDCHAR
STARTCHAR 0077
ENCODING 119
SWIDTH 520 0
DWIDTH 13 0
BBX 12 12 0 0
BITMAP
E030
E030
6770
6770
6770
6F70
6F60
6DE0
7DE0
79E0
38E0
38E0
ENDCHAR
STARTCHAR 0078
ENCODING 120
SWIDTH 520 0
DWIDTH 13 0
BBX 11 12 1 0
BITMAP
E1E0
71C0
7B80
3F80
1F00
1E00
1F00
3F00
3B80
73C0
E1C0
E0E0
ENDCHAR
STARTCHAR 0079
ENCODING 121
SWIDTH 520 0
DWIDTH 13 0
BBX 11 16 1 -4
BITMAP
E0E0
F1C0
71C0
71C0
71C0
3B80
3B80
3B80
1F00
1F00
0F00
0E00
1E00
FC00
F800
F000
ENDCHAR
STARTCHAR 007A
ENCODING 122
SWIDTH 520 0
DWIDTH 13 0
BBX 9 12 2 0
BITMAP
FF80
FF80
FF00
0E00
0E00
1C00
3800
7000
7000
FF80
FF80
FF80
ENDCHAR
STARTCHAR 007B
ENCODING 123
SWIDTH 520 0
DWIDTH 13 0
BBX 9 21 2 -4
BITMAP
0F80
1F80
3F80
3800
3800
3800
3800
3800
3800
F800
E000
F800
3800
3800
3800
3800
3800
3800
3F80
1F80
0F80
ENDCHAR
STARTCHAR 007C
ENCODING 124
SWIDTH 520 0
DWIDTH 13 0
BBX 3 21 5 -4
BITMAP
E0
E0
E0
E0
E0
E0
E0
E0
E0
E0
E0
E0
E0
E0
E0
E0
E0
E0
E0
E0
E0
ENDCHAR
STARTCHAR 007D
ENCODING 125
SWIDTH 520 0
DWIDTH 13 0
BBX 9 21 2 -4
BITMAP
F800
FC00
FC00
1C00
1C00
1C00
1C00
1C00
1C00
0F80
0380
0F80
1C00
1C00
1C00
1C00
1C00
1C00
FC00
FC00
F800
ENDCHAR
STARTCHAR 007E
ENCODING 126
SWIDTH 520 0
DWIDTH 13 0
BBX 11 5 1 4
BITMAP
7860
7CE0
FFE0
CFC0
C380
ENDCHAR
STARTCHAR 00A0
ENCODING 160
SWIDTH 520 0
DWIDTH 13 0
BBX 0 0 0 0
BITMAP
ENDCHAR
STARTCHAR 00A1
ENCODING 161
SWIDTH 520 0
DWIDTH 13 0
BBX 4 16 4 -4
BITMAP
70
F0
70
00
00
70
70
70
70
F0
F0
F0
F0
F0
F0
F0
ENDCHAR
STARTCHAR 00A2
ENCODING 162
SWIDTH 520 0
DWIDTH 13 0
BBX 10 18 1 -3
BITMAP
0700
0700
0700
1FC0
3FC0
7FC0
7000
F000
E000
E000
F000
7800
7FC0
3FC0
1FC0
0700
0700
0700
ENDCHAR
STARTCHAR 00A3
ENCODING 163
SWIDTH 520 0
DWIDTH 13 0
BBX 10 15 1 0
BITMAP
0F80
1FC0
3FC0
3C40
3800
3800
3800
FF80
FF80
FF80
3800
3800
3FC0
7FC0
7FC0
ENDCHAR
STARTCHAR 00A4
ENCODING 164
SWIDTH 520 0
DWIDTH 13 0
BBX 11 11 1 2
BITMAP
4080
FFE0
FFE0
7F80
71C0
61C0
71C0
7FC0
FFE0
FFE0
4080
ENDCHAR
STARTCHAR 00A5
ENCODING 165
SWIDTH 520 0
DWIDTH 13 0
BBX 12 15 0 0
BITMAP
F070
7070
78E0
38E0
39C0
1DC0
0F80
7FE0
7FE0
0700
0700
7FE0
7FE0
0700
0700
ENDCHAR
STARTCHAR 00A6
ENCODING 166
SWIDTH 520 0
DWIDTH 13 0
BBX 3 21 5 -4
BITMAP
E0
E0
E0
E0
E0
E0
E0
E0
E0
00
00
00
E0
E0
E0
E0
E0
E0
E0
E0
E0
ENDCHAR
STARTCHAR 00A7
ENCODING 167
SWIDTH 520 0
DWIDTH 13 0
BBX 10 17 1 -2
BITMAP
1F80
3FC0
7FC0
7080
7800
3F00
7F80
E3C0
E1C0
79C0
7FC0
1F80
03C0
41C0
7FC0
FF80
3F00
ENDCHAR
STARTCHAR 00A8
ENCODING 168
SWIDTH 520 0
DWIDTH 13 0
BBX 8 3 2 14
BITMAP
67
F7
E7
ENDCHAR
STARTCHAR 00A9
ENCODING 169
SWIDTH 520 0
DWIDTH 13 0
BBX 11 12 1 0
BITMAP
1F00
7F80
61C0
CEC0
DE60
9060
9060
DE60
CEC0
61C0
7F80
1F00
ENDCHAR
STARTCHAR 00AA
ENCODING 170
SWIDTH 520 0
DWIDTH 13 0
BBX 7 8 3 7
BITMAP
FC
7E
0E
3E
E6
C6
FE
7E
ENDCHAR
STARTCHAR 00AB
ENCODING 171
SWIDTH 520 0
DWIDTH 13 0
BBX 10 11 1 1
BITMAP
1080
18C0
39C0
7380
6300
E700
6300
3180
39C0
18C0
1080
ENDCHAR
STARTCHAR 00AC
ENCODING 172
SWIDTH 520 0
DWIDTH 13 0
BBX 10 8 1 1
BITMAP
FFC0
FFC0
FFC0
00C0
00C0
00C0
00C0
00C0
ENDCHAR
STARTCHAR 00AD
ENCODING 173
SWIDTH 520 0
DWIDTH 13 0
BBX 7 3 3 5
BITMAP
FE
FE
FE
ENDCHAR
STARTCHAR 00AE
ENCODING 174
SWIDTH 520 0
DWIDTH 13 0
BBX 11 12 1 0
BITMAP
1F00
7F80
61C0
DEC0
DF60
9B60
9E60
DE60
DBC0
61C0
7F80
1F00
ENDCHAR
STARTCHAR 00AF
ENCODING 175
SWIDTH 520 0
DWIDTH 13 0
BBX 7 2 3 14
BITMAP
FE
FE
ENDCHAR
STARTCHAR 00B0
ENCODING 176
SWIDTH 520 0
DWIDTH 13 0
BBX 7 7 3 10
BITMAP
78
FC
CE
C6
CE
FC
78
ENDCHAR
STARTCHAR 00B1
ENCODING 177
SWIDTH 520 0
DWIDTH 13 0
BBX 11 15 1 0
BITMAP
0E00
0E00
0E00
0E00
FFE0
FFE0
FFE0
0E00
0E00
0E00
0E00
0000
FFE0
FFE0
FFE0
ENDCHAR
STARTCHAR 00B2
ENCODING 178
SWIDTH 520 0
DWIDTH 13 0
BBX 7 9 3 7
BITMAP
78
FC
4C
0C
1C
38
70
FE
FE
ENDCHAR
STARTCHAR 00B3
ENCODING 179
SWIDTH 520 0
DWIDTH 13 0
BBX 7 9 3 7
BITMAP
78
FC
4C
0C
38
3C
8E
FC
F8
ENDCHAR
STARTCHAR 00B4
ENCODING 180
SWIDTH 520 0
DWIDTH 13 0
BBX 5 4 4 13
BITMAP
10
78
F0
40
ENDCHAR
STARTCHAR 00B5
ENCODING 181
SWIDTH 520 0
DWIDTH 13 0
BBX 10 16 1 -4
BITMAP
F1C0
F1C0
F1C0
F1C0
F1C0
F1C0
F1C0
F1C0
F1C0
FFC0
FFC0
FF80
E000
F000
F000
F000
ENDCHAR
STARTCHAR 00B6
ENCODING 182
SWIDTH 520 0
DWIDTH 13 0
BBX 11 19 0 -4
BITMAP
1FE0
3FE0
7FE0
7E60
FE60
7E60
7E60
7E60
1E60
0E60
0E60
0E60
0E60
0E60
0E60
0E60
0E60
0E60
0E60
ENDCHAR
STARTCHAR 00B7
ENCODING 183
SWIDTH 520 0
DWIDTH 13 0
BBX 4 4 4 5
BITMAP
70
F0
F0
70
ENDCHAR
STARTCHAR 00B8
ENCODING 184
SWIDTH 520 0
DWIDTH 13 0
BBX 5 4 4 -4
BITMAP
30
18
F8
F0
ENDCHAR
STARTCHAR 00B9
ENCODING 185
SWIDTH 520 0
DWIDTH 13 0
BBX 8 9 3 6
BITMAP
1C
7C
FC
5C
1C
1C
1C
FF
FF
ENDCHAR
STARTCHAR 00BA
ENCODING 186
SWIDTH 520 0
DWIDTH 13 0
BBX 9 11 2 5
BITMAP
3C00
7E00
FF00
E700
E380
C380
E380
E700
FF00
7E00
3C00
ENDCHAR
STARTCHAR 00BB
ENCODING 187
SWIDTH 520 0
DWIDTH 13 0
BBX 9 10 2 2
BITMAP
8400
C600
E700
6300
7380
7380
6300
E700
C600
8400
ENDCHAR
STARTCHAR 00BC
ENCODING 188
SWIDTH 520 0
DWIDTH 13 0
BBX 12 15 0 0
BITMAP
30E0
70C0
B1C0
3180
3380
3300
0700
0600
0E00
0C60
1CE0
1960
39F0
33F0
7060
ENDCHAR
STARTCHAR 00BD
ENCODING 189
SWIDTH 520 0
DWIDTH 13 0
BBX 12 15 0 0
BITMAP
30E0
F0C0
F1C0
3180
3380
3300
0700
0600
0E00
0CE0
1DF0
1930
3870
31C0
71F0
ENDCHAR
STARTCHAR 00BE
ENCODING 190
SWIDTH 520 0
DWIDTH 13 0
BBX 12 15 0 0
BITMAP
7860
78E0
38C0
39C0
0D80
7F80
FB00
0700
0600
0E60
0CE0
1D60
19F0
3BF0
7060
ENDCHAR
STARTCHAR 00BF
ENCODING 191
SWIDTH 520 0
DWIDTH 13 0
BBX 9 16 2 -4
BITMAP
1C00
1E00
1C00
0000
0000
0C00
1C00
3C00
7800
F000
E000
E000
E100
FF00
7F80
3E00
ENDCHAR
STARTCHAR 00C0
ENCODING 192
SWIDTH 520 0
DWIDTH 13 0
BBX 12 20 0 0
BITMAP
0400
0E00
0F80
0100
0000
0F00
0F00
0F80
1F80
1D80
1DC0
19C0
39C0
38E0
3FE0
7FE0
7FE0
70F0
7070
F070
ENDCHAR
STARTCHAR 00C1
ENCODING 193
SWIDTH 520 0
DWIDTH 13 0
BBX 12 20 0 0
BITMAP
0100
0780
1F00
0C00
0000
0F00
0F00
0F80
1F80
1D80
1DC0
19C0
39C0
38E0
3FE0
7FE0
7FE0
70F0
7070
F070
ENDCHAR
STARTCHAR 00C2
ENCODING 194
SWIDTH 520 0
DWIDTH 13 0
BBX 12 21 0 0
BITMAP
0200
0700
0F80
1DC0
0880
0000
0F00
0F00
0F80
1F80
1D80
1DC0
19C0
39C0
38E0
3FE0
7FE0
7FE0
70F0
7070
F070
ENDCHAR
STARTCHAR 00C3
ENCODING 195
SWIDTH 520 0
DWIDTH 13 0
BBX 12 20 0 0
BITMAP
1CC0
1FC0
1380
0000
0000
0F00
0F00
0F80
1F80
1D80
1DC0
19C0
39C0
38E0
3FE0
7FE0
7FE0
70F0
7070
F070
ENDCHAR
STARTCHAR 00C4
ENCODING 196
SWIDTH 520 0
DWIDTH 13 0
BBX 12 20 0 0
BITMAP
19C0
3DC0
39C0
0000
0000
0F00
0F00
0F80
1F80
1D80
1DC0
19C0
39C0
38E0
3FE0
7FE0
7FE0
70F0
7070
F070
ENDCHAR
STARTCHAR 00C5
ENCODING 197
SWIDTH 520 0
DWIDTH 13 0
BBX 12 20 0 0
BITMAP
0600
0F80
0980
0980
0F00
0F00
0F80
0F80
1F80
1D80
1DC0
39C0
39C0
38E0
3FE0
7FE0
7FE0
70F0
7070
F070
ENDCHAR
STARTCHAR 00C6
ENCODING 198
SWIDTH 520 0
DWIDTH 13 0
BBX 12 15 0 0
BITMAP
07F0
0FF0
0FF0
0F80
1F80
1F80
1BE0
3BE0
3BE0
3F80
7F80
7F80
73F0
73F0
F3F0
ENDCHAR
STARTCHAR 00C7
ENCODING 199
SWIDTH 520 0
DWIDTH 13 0
BBX 11 19 1 -4
BITMAP
0FC0
3FE0
7FC0
7840
F000
E000
E000
E000
E000
E000
F000
F800
7FC0
3FE0
1FC0
0E00
0300
1F00
1E00
ENDCHAR
STARTCHAR 00C8
ENCODING 200
SWIDTH 520 0
DWIDTH 13 0
BBX 10 20 2 0
BITMAP
1000
3800
3E00
0400
0000
FF80
FF80
FF80
E000
E000
FF00
FF00
FF00
E000
E000
E000
E000
FFC0
FFC0
FFC0
ENDCHAR
STARTCHAR 00C9
ENCODING 201
SWIDTH 520 0
DWIDTH 13 0
BBX 10 20 2 0
BITMAP
0400
1E00
7C00
3000
0000
FF80
FF80
FF80
E000
E000
FF00
FF00
FF00
E000
E000
E000
E000
FFC0
FFC0
FFC0
ENDCHAR
STARTCHAR 00CA
ENCODING 202
SWIDTH 520 0
DWIDTH 13 0
BBX 10 21 2 0
BITMAP
0800
1C00
3E00
7700
2200
0000
FF80
FF80
FF80
E000
E000
FF00
FF00
FF00
E000
E000
E000
E000
FFC0
FFC0
FFC0
ENDCHAR
STARTCHAR 00CB
ENCODING 203
SWIDTH 520 0
DWIDTH 13 0
BBX 10 20 2 0
BITMAP
6700
F700
E700
0000
0000
FF80
FF80
FF80
E000
E000
FF00
FF00
FF00
E000
E000
E000
E000
FFC0
FFC0
FFC0
ENDCHAR
STARTCHAR 00CC
ENCODING 204
SWIDTH 520 0
DWIDTH 13 0
BBX 10 20 1 0
BITMAP
0800
1C00
1F00
0200
0000
FFC0
FFC0
FFC0
0E00
0E00
0E00
0E00
0E00
0E00
0E00
0E00
0E00
FFC0
FFC0
FFC0
ENDCHAR
STARTCHAR 00CD
ENCODING 205
SWIDTH 520 0
DWIDTH 13 0
BBX 10 20 1 0
BITMAP
0200
0F00
3E00
1800
0000
FFC0
FFC0
FFC0
0E00
0E00
0E00
0E00
0E00
0E00
0E00
0E00
0E00
FFC0
FFC0
FFC0
ENDCHAR
STARTCHAR 00CE
ENCODING 206
SWIDTH 520 0
DWIDTH 13 0
BBX 10 21 1 0
BITMAP
0400
0E00
1F00
3B80
1100
0000
FFC0
FFC0
FFC0
0E00
0E00
0E00
0E00
0E00
0E00
0E00
0E00
0E00
FFC0
FFC0
FFC0
ENDCHAR
STARTCHAR 00CF
ENCODING 207
SWIDTH 520 0
DWIDTH 13 0
BBX 10 20 1 0
BITMAP
3380
7B80
7380
0000
0000
FFC0
FFC0
FFC0
0E00
0E00
0E00
0E00
0E00
0E00
0E00
0E00
0E00
FFC0
FFC0
FFC0
ENDCHAR
STARTCHAR 00D0
ENCODING 208
SWIDTH 520 0
DWIDTH 13 0
BBX 12 15 0 0
BITMAP
3F00
3FC0
3FE0
39E0
38E0
3870
FE70
FE70
3870
38F0
38E0
39E0
3FE0
3FC0
3F00
ENDCHAR
STARTCHAR 00D1
ENCODING 209
SWIDTH 520 0
DWIDTH 13 0
BBX 10 20 1 0
BITMAP
3980
3F80
2700
0000
0000
E0C0
F0C0
F0C0
F8C0
F8C0
FCC0
ECC0
EEC0
E6C0
E7C0
E3C0
E3C0
E1C0
E1C0
E0C0
ENDCHAR
STARTCHAR 00D2
ENCODING 210
SWIDTH 520 0
DWIDTH 13 0
BBX 11 20 1 0
BITMAP
0800
1C00
1F00
0200
0000
1F00
7F80
7FC0
F1C0
E1E0
E0E0
E0E0
E0E0
E0E0
E0E0
E1E0
F1C0
7FC0
7F80
1F00
ENDCHAR
STARTCHAR 00D3
ENCODING 211
SWIDTH 520 0
DWIDTH 13 0
BBX 11 20 1 0
BITMAP
0200
0F00
3E00
1800
0000
1F00
7F80
7FC0
F1C0
E1E0
E0E0
E0E0
E0E0
E0E0
E0E0
E1E0
F1C0
7FC0
7F80
1F00
ENDCHAR
STARTCHAR 00D4
ENCODING 212
SWIDTH 520 0
DWIDTH 13 0
BBX 11 21 1 0
BITMAP
0400
0E00
1F00
3B80
1100
0000
1F00
7F80
7FC0
F1C0
E1E0
E0E0
E0E0
E0E0
E0E0
E0E0
E1E0
F1C0
7FC0
7F80
1F00
ENDCHAR
STARTCHAR 00D5
ENCODING 213
SWIDTH 520 0
DWIDTH 13 0
BBX 11 20 1 0
BITMAP
3980
3F80
2700
0000
0000
1F00
7F80
7FC0
F1C0
E1E0
E0E0
E0E0
E0E0
E0E0
E0E0
E1E0
F1C0
7FC0
7F80
1F00
ENDCHAR
STARTCHAR 00D6
ENCODING 214
SWIDTH 520 0
DWIDTH 13 0
BBX 11 20 1 0
BITMAP
3380
7B80
7380
0000
0000
1F00
7F80
7FC0
F1C0
E1E0
E0E0
E0E0
E0E0
E0E0
E0E0
E1E0
F1C0
7FC0
7F80
1F00
ENDCHAR
STARTCHAR 00D7
ENCODING 215
SWIDTH 520 0
DWIDTH 13 0
BBX 10 10 1 2
BITMAP
2000
7080
71C0
3F80
1F00
1E00
3F00
7B80
F1C0
6080
ENDCHAR
STARTCHAR 00D8
ENCODING 216
SWIDTH 520 0
DWIDTH 13 0
BBX 11 17 1 -1
BITMAP
0080
1FC0
7F80
7FC0
F3C0
E7E0
E7E0
EEE0
ECE0
FCE0
F8E0
F9E0
F1C0
7FC0
7F80
FF00
4000
ENDCHAR
STARTCHAR 00D9
ENCODING 217
SWIDTH 520 0
DWIDTH 13 0
BBX 11 20 1 0
BITMAP
1800
1C00
1F00
0600
0000
E1E0
E1E0
E1E0
E1E0
E1E0
E1E0
E1E0
E1E0
E1E0
E1E0
E1C0
F1C0
FFC0
7F80
3F00
ENDCHAR
STARTCHAR 00DA
ENCODING 218
SWIDTH 520 0
DWIDTH 13 0
BBX 11 20 1 0
BITMAP
0200
0F00
1E00
0800
0000
E1E0
E1E0
E1E0
E1E0
E1E0
E1E0
E1E0
E1E0
E1E0
E1E0
E1C0
F1C0
FFC0
7F80
3F00
ENDCHAR
STARTCHAR 00DB
ENCODING 219
SWIDTH 520 0
DWIDTH 13 0
BBX 11 21 1 0
BITMAP
0400
0E00
1F00
3B80
1100
0000
E1E0
E1E0
E1E0
E1E0
E1E0
E1E0
E1E0
E1E0
E1E0
E1E0
E1C0
F1C0
FFC0
7F80
3F00
ENDCHAR
STARTCHAR 00DC
ENCODING 220
SWIDTH 520 0
DWIDTH 13 0
BBX 11 20 1 0
BITMAP
3380
7B80
7380
0000
0000
E1E0
E1E0
E1E0
E1E0
E1E0
E1E0
E1E0
E1E0
E1E0
E1E0
E1C0
F1C0
FFC0
7F80
3F00
ENDCHAR
STARTCHAR 00DD
ENCODING 221
SWIDTH 520 0
DWIDTH 13 0
BBX 11 20 1 0
BITMAP
0200
0F00
1E00
0800
0000
E0E0
E1E0
E1C0
71C0
7380
3B80
3F00
1F00
1E00
0E00
0E00
0E00
0E00
0E00
0E00
ENDCHAR
STARTCHAR 00DE
ENCODING 222
SWIDTH 520 0
DWIDTH 13 0
BBX 11 15 1 0
BITMAP
E000
E000
FF00
FF80
FFC0
E1E0
E0E0
E0E0
E1E0
E1E0
FFC0
FF80
FF00
E000
E000
ENDCHAR
STARTCHAR 00DF
ENCODING 223
SWIDTH 520 0
DWIDTH 13 0
BBX 11 17 1 0
BITMAP
3E00
7F80
FF80
E380
E380
E380
E700
E700
E700
E700
E7C0
E1E0
E0E0
E8E0
EFE0
EFE0
E7C0
ENDCHAR
STARTCHAR 00E0
ENCODING 224
SWIDTH 520 0
DWIDTH 13 0
BBX 10 17 1 0
BITMAP
0800
1C00
1F00
0200
0000
3F00
7F80
7FC0
01C0
3FC0
7FC0
FFC0
E1C0
E1C0
FFC0
7FC0
3FC0
ENDCHAR
STARTCHAR 00E1
ENCODING 225
SWIDTH 520 0
DWIDTH 13 0
BBX 10 17 1 0
BITMAP
0200
0F00
1E00
0800
0000
3F00
7F80
7FC0
01C0
3FC0
7FC0
FFC0
E1C0
E1C0
FFC0
7FC0
3FC0
ENDCHAR
STARTCHAR 00E2
ENCODING 226
SWIDTH 520 0
DWIDTH 13 0
BBX 10 18 1 0
BITMAP
0400
0E00
1F00
3B80
1100
0000
3F00
7F80
7FC0
01C0
3FC0
7FC0
FFC0
E1C0
E1C0
FFC0
7FC0
3FC0
ENDCHAR
STARTCHAR 00E3
ENCODING 227
SWIDTH 520 0
DWIDTH 13 0
BBX 10 17 1 0
BITMAP
3880
3F80
2700
0000
0000
3F00
7F80
7FC0
01C0
3FC0
7FC0
FFC0
E1C0
E1C0
FFC0
7FC0
3FC0
ENDCHAR
STARTCHAR 00E4
ENCODING 228
SWIDTH 520 0
DWIDTH 13 0
BBX 10 17 1 0
BITMAP
3380
7B80
7380
0000
0000
3F00
7F80
7FC0
01C0
3FC0
7FC0
FFC0
E1C0
E1C0
FFC0
7FC0
3FC0
ENDCHAR
STARTCHAR 00E5
ENCODING 229
SWIDTH 520 0
DWIDTH 13 0
BBX 10 19 1 0
BITMAP
0E00
1F00
1300
1300
1F00
0E00
0000
3F00
7F80
7FC0
01C0
3FC0
7FC0
FFC0
E1C0
E1C0
FFC0
7FC0
3FC0
ENDCHAR
STARTCHAR 00E6
ENCODING 230
SWIDTH 520 0
DWIDTH 13 0
BBX 11 12 1 0
BITMAP
7980
7FC0
7FE0
0E60
0E60
7FE0
FFE0
CE00
CE00
FFE0
FFE0
79E0
ENDCHAR
STARTCHAR 00E7
ENCODING 231
SWIDTH 520 0
DWIDTH 13 0
BBX 10 16 1 -4
BITMAP
0FC0
3FC0
7FC0
7800
F000
E000
E000
F000
F800
7FC0
3FC0
1FC0
0E00
0300
1F00
1E00
ENDCHAR
STARTCHAR 00E8
ENCODING 232
SWIDTH 520 0
DWIDTH 13 0
BBX 11 17 1 0
BITMAP
0800
1C00
1F00
0200
0000
1F00
3F80
7FC0
F1C0
E0C0
FFE0
FFE0
FFE0
E0C0
7FC0
7FC0
1F80
ENDCHAR
STARTCHAR 00E9
ENCODING 233
SWIDTH 520 0
DWIDTH 13 0
BBX 11 17 1 0
BITMAP
0200
0700
1F00
0800
0000
1F00
3F80
7FC0
F1C0
E0C0
FFE0
FFE0
FFE0
E0C0
7FC0
7FC0
1F80
ENDCHAR
STARTCHAR 00EA
ENCODING 234
SWIDTH 520 0
DWIDTH 13 0
BBX 11 18 1 0
BITMAP
0400
0E00
1F00
3B80
1100
0000
1F00
3F80
7FC0
F1C0
E0C0
FFE0
FFE0
FFE0
E0C0
7FC0
7FC0
1F80
ENDCHAR
STARTCHAR 00EB
ENCODING 235
SWIDTH 520 0
DWIDTH 13 0
BBX 11 17 1 0
BITMAP
3380
7B80
7380
0000
0000
1F00
3F80
7FC0
F1C0
E0C0
FFE0
FFE0
FFE0
E0C0
7FC0
7FC0
1F80
ENDCHAR
STARTCHAR 00EC
ENCODING 236
SWIDTH 520 0
DWIDTH 13 0
BBX 11 17 1 0
BITMAP
1000
3C00
1E00
0600
0000
FC00
FC00
FC00
1C00
1C00
1C00
1C00
1C00
1E40
1FC0
0FE0
07C0
ENDCHAR
STARTCHAR 00ED
ENCODING 237
SWIDTH 520 0
DWIDTH 13 0
BBX 11 17 1 0
BITMAP
0200
0F00
3E00
1800
0000
FC00
FC00
FC00
1C00
1C00
1C00
1C00
1C00
1E40
1FC0
0FE0
07C0
ENDCHAR
STARTCHAR 00EE
ENCODING 238
SWIDTH 520 0
DWIDTH 13 0
BBX 11 18 1 0
BITMAP
0800
1C00
3E00
7700
2100
0000
FC00
FC00
FC00
1C00
1C00
1C00
1C00
1C00
1E40
1FC0
0FE0
07C0
ENDCHAR
STARTCHAR 00EF
ENCODING 239
SWIDTH 520 0
DWIDTH 13 0
BBX 11 17 1 0
BITMAP
7380
7380
7380
0000
0000
FC00
FC00
FC00
1C00
1C00
1C00
1C00
1C00
1E40
1FC0
0FE0
07C0
ENDCHAR
STARTCHAR 00F0
ENCODING 240
SWIDTH 520 0
DWIDTH 13 0
BBX 11 17 1 0
BITMAP
0400
0E00
0FE0
0FC0
1F80
0B80
01C0
3FC0
7FC0
FFC0
F1C0
E1C0
E1C0
F3C0
7FC0
7F80
1F00
ENDCHAR
STARTCHAR 00F1
ENCODING 241
SWIDTH 520 0
DWIDTH 13 0
BBX 9 17 2 0
BITMAP
7100
7F00
4E00
0000
0000
FE00
FF00
FF80
E780
E380
E380
E380
E380
E380
E380
E380
E380
ENDCHAR
STARTCHAR 00F2
ENCODING 242
SWIDTH 520 0
DWIDTH 13 0
BBX 11 17 1 0
BITMAP
0800
1C00
1F00
0200
0000
1F00
7F80
7FC0
F1C0
E1E0
E0E0
E0E0
E1E0
F1C0
7FC0
7F80
1F00
ENDCHAR
STARTCHAR 00F3
ENCODING 243
SWIDTH 520 0
DWIDTH 13 0
BBX 11 17 1 0
BITMAP
0200
0F00
1E00
1800
0000
1F00
7F80
7FC0
F1C0
E1E0
E0E0
E0E0
E1E0
F1C0
7FC0
7F80
1F00
ENDCHAR
STARTCHAR 00F4
ENCODING 244
SWIDTH 520 0
DWIDTH 13 0
BBX 11 18 1 0
BITMAP
0400
0E00
1F00
3B80
1100
0000
1F00
7F80
7FC0
F1C0
E1E0
E0E0
E0E0
E1E0
F1C0
7FC0
7F80
1F00
ENDCHAR
STARTCHAR 00F5
ENCODING 245
SWIDTH 520 0
DWIDTH 13 0
BBX 11 17 1 0
BITMAP
3880
3F80
2700
0000
0000
1F00
7F80
7FC0
F1C0
E1E0
E0E0
E0E0
E1E0
F1C0
7FC0
7F80
1F00
ENDCHAR
STARTCHAR 00F6
ENCODING 246
SWIDTH 520 0
DWIDTH 13 0
BBX 11 17 1 0
BITMAP
3380
7B80
7380
0000
0000
1F00
7F80
7FC0
F1C0
E1E0
E0E0
E0E0
E1E0
F1C0
7FC0
7F80
1F00
ENDCHAR
STARTCHAR 00F7
ENCODING 247
SWIDTH 520 0
DWIDTH 13 0
BBX 11 13 1 0
BITMAP
0C00
0E00
0E00
0E00
0000
FFE0
FFE0
FFE0
0000
0C00
0E00
0E00
0C00
ENDCHAR
STARTCHAR 00F8
ENCODING 248
SWIDTH 520 0
DWIDTH 13 0
BBX 11 13 1 0
BITMAP
1FC0
7FC0
7FC0
F3C0
E2E0
E4E0
ECE0
F9E0
F1C0
7FC0
7F80
DF00
4000
ENDCHAR
STARTCHAR 00F9
ENCODING 249
SWIDTH 520 0
DWIDTH 13 0
BBX 10 17 1 0
BITMAP
0800
1C00
1F00
0200
0000
F1C0
F1C0
F1C0
F1C0
F1C0
F1C0
F1C0
F1C0
71C0
7FC0
7FC0
1F80
ENDCHAR
STARTCHAR 00FA
ENCODING 250
SWIDTH 520 0
DWIDTH 13 0
BBX 10 17 1 0
BITMAP
0200
0F00
3E00
1800
0000
F1C0
F1C0
F1C0
F1C0
F1C0
F1C0
F1C0
F1C0
71C0
7FC0
7FC0
1F80
ENDCHAR
STARTCHAR 00FB
ENCODING 251
SWIDTH 520 0
DWIDTH 13 0
BBX 10 18 1 0
BITMAP
0400
0E00
1F00
3B80
1100
0000
F1C0
F1C0
F1C0
F1C0
F1C0
F1C0
F1C0
F1C0
71C0
7FC0
7FC0
1F80
ENDCHAR
STARTCHAR 00FC
ENCODING 252
SWIDTH 520 0
DWIDTH 13 0
BBX 10 17 1 0
BITMAP
3380
7B80
7380
0000
0000
F1C0
F1C0
F1C0
F1C0
F1C0
F1C0
F1C0
F1C0
71C0
7FC0
7FC0
1F80
ENDCHAR
STARTCHAR 00FD
ENCODING 253
SWIDTH 520 0
DWIDTH 13 0
BBX 11 21 1 -4
BITMAP
0200
0F00
3E00
1800
0000
E0E0
F1C0
71C0
71C0
71C0
3B80
3B80
3B80
1F00
1F00
0F00
0E00
1E00
FC00
F800
F000
ENDCHAR
STARTCHAR 00FE
ENCODING 254
SWIDTH 520 0
DWIDTH 13 0
BBX 10 21 2 -4
BITMAP
E000
E000
E000
E000
E000
FE00
FF00
FF80
E380
E3C0
E1C0
E1C0
E3C0
E380
FF80
FF00
FE00
E000
E000
E000
E000
ENDCHAR
STARTCHAR 00FF
ENCODING 255
SWIDTH 520 0
DWIDTH 13 0
BBX 11 21 1 -4
BITMAP
3380
7B80
7380
0000
0000
E0E0
F1C0
71C0
71C0
71C0
3B80
3B80
3B80
1F00
1F00
0F00
0E00
1E00
FC00
F800
F000
ENDCHAR
STARTCHAR 0152
ENCODING 140
SWIDTH 520 0
DWIDTH 13 0
BBX 12 15 0 0
BITMAP
1FF0
3FF0
7FF0
7380
7380
6380
E3E0
E3E0
E3E0
6380
7380
7380
7FF0
3FF0
1FF0
ENDCHAR
STARTCHAR 0153
ENCODING 156
SWIDTH 520 0
DWIDTH 13 0
BBX 11 12 1 0
BITMAP
7980
FFC0
FFE0
CE60
CE60
CFE0
CFE0
CE00
CE00
FFC0
FFE0
79E0
ENDCHAR
STARTCHAR 0160
ENCODING 138
SWIDTH 520 0
DWIDTH 13 0
BBX 10 21 1 0
BITMAP
1100
3B80
1F00
0E00
0400
0000
1F00
7FC0
7F80
F080
E000
F800
7F00
3F80
0FC0
03C0
01C0
41C0
FFC0
FF80
3F00
ENDCHAR
STARTCHAR 0161
ENCODING 154
SWIDTH 520 0
DWIDTH 13 0
BBX 10 18 1 0
BITMAP
1100
3B80
1F00
0E00
0400
0000
1F80
7F80
7F80
7080
7000
7E00
1F80
03C0
41C0
7FC0
FF80
3F00
ENDCHAR
STARTCHAR 0178
ENCODING 159
SWIDTH 520 0
DWIDTH 13 0
BBX 11 20 1 0
BITMAP
3380
7B80
7380
0000
0000
E0E0
E1E0
E1C0
71C0
7380
3B80
3F00
1F00
1E00
0E00
0E00
0E00
0E00
0E00
0E00
ENDCHAR
STARTCHAR 017D
ENCODING 142
SWIDTH 520 0
DWIDTH 13 0
BBX 10 21 1 0
BITMAP
1100
3B80
1F00
0E00
0400
0000
FFC0
FFC0
FFC0
0380
0700
0700
0E00
0C00
1C00
3800
3800
7000
7FC0
FFC0
FFC0
ENDCHAR
STARTCHAR 017E
ENCODING 158
SWIDTH 520 0
DWIDTH 13 0
BBX 9 18 2 0
BITMAP
2200
7700
3E00
1C00
0800
0000
FF80
FF80
FF00
0E00
0E00
1C00
3800
7000
7000
FF80
FF80
FF80
ENDCHAR
STARTCHAR 0192
ENCODING 131
SWIDTH 520 0
DWIDTH 13 0
BBX 12 21 0 -4
BITMAP
03F0
07F0
0FF0
0E10
1E00
1E00
7FE0
7FE0
7FE0
1E00
1E00
1E00
1E00
1E00
1E00
1E00
1E00
1E00
7C00
FC00
F000
ENDCHAR
STARTCHAR 02C6
ENCODING 136
SWIDTH 520 0
DWIDTH 13 0
BBX 7 5 3 13
BITMAP
10
38
7C
EE
44
ENDCHAR
STARTCHAR 02DC
ENCODING 152
SWIDTH 520 0
DWIDTH 13 0
BBX 7 3 3 14
BITMAP
E2
FE
9C
ENDCHAR
STARTCHAR 2013
ENCODING 150
SWIDTH 520 0
DWIDTH 13 0
BBX 10 2 1 6
BITMAP
FFC0
FFC0
ENDCHAR
STARTCHAR 2014
ENCODING 151
SWIDTH 520 0
DWIDTH 13 0
BBX 13 2 0 6
BITMAP
FFF8
FFF8
ENDCHAR
STARTCHAR 2018
ENCODING 145
SWIDTH 520 0
DWIDTH 13 0
BBX 5 8 4 10
BITMAP
18
78
E0
C0
F0
F0
F0
E0
ENDCHAR
STARTCHAR 2019
ENCODING 146
SWIDTH 520 0
DWIDTH 13 0
BBX 5 8 4 10
BITMAP
70
78
78
78
18
30
E0
C0
ENDCHAR
STARTCHAR 201A
ENCODING 130
SWIDTH 520 0
DWIDTH 13 0
BBX 6 8 3 -4
BITMAP
38
7C
7C
3C
18
38
F0
E0
ENDCHAR
STARTCHAR 201C
ENCODING 147
SWIDTH 520 0
DWIDTH 13 0
BBX 11 7 1 10
BITMAP
1860
79E0
6180
E300
F3C0
F3C0
6180
ENDCHAR
STARTCHAR 201D
ENCODING 148
SWIDTH 520 0
DWIDTH 13 0
BBX 11 7 1 11
BITMAP
31C0
79E0
79E0
38E0
30C0
E380
C300
ENDCHAR
STARTCHAR 201E
ENCODING 132
SWIDTH 520 0
DWIDTH 13 0
BBX 11 7 0 -4
BITMAP
38E0
38E0
38E0
1860
38C0
F3C0
4100
ENDCHAR
STARTCHAR 2020
ENCODING 134
SWIDTH 520 0
DWIDTH 13 0
BBX 9 18 2 -3
BITMAP
1C00
1C00
1C00
1C00
FF80
FF80
FF80
1C00
1C00
1C00
1C00
1C00
1C00
1C00
1C00
1800
1800
1800
ENDCHAR
STARTCHAR 2021
ENCODING 135
SWIDTH 520 0
DWIDTH 13 0
BBX 10 18 1 -3
BITMAP
0E00
0E00
0E00
0E00
FFC0
FFC0
FFC0
0E00
0E00
0E00
FFC0
FFC0
FFC0
0E00
0C00
0C00
0C00
0C00
ENDCHAR
STARTCHAR 2022
ENCODING 149
SWIDTH 520 0
DWIDTH 13 0
BBX 7 7 3 5
BITMAP
78
FC
FE
FE
FE
FC
78
ENDCHAR
STARTCHAR 2026
ENCODING 133
SWIDTH 520 0
DWIDTH 13 0
BBX 11 3 1 0
BITMAP
CCE0
EEE0
CCE0
ENDCHAR
STARTCHAR 2030
ENCODING 137
SWIDTH 520 0
DWIDTH 13 0
BBX 12 15 0 0
BITMAP
7000
7800
D800
D810
F8F0
7BC0
2E00
7800
E000
1CE0
3CF0
37B0
37B0
3EF0
1CE0
ENDCHAR
STARTCHAR 2039
ENCODING 139
SWIDTH 520 0
DWIDTH 13 0
BBX 5 12 4 0
BITMAP
10
38
78
70
F0
E0
E0
F0
70
78
38
10
ENDCHAR
STARTCHAR 203A
ENCODING 155
SWIDTH 520 0
DWIDTH 13 0
BBX 6 12 4 1
BITMAP
60
E0
F0
78
78
3C
3C
78
78
F0
E0
60
ENDCHAR
STARTCHAR 20AC
ENCODING 128
SWIDTH 520 0
DWIDTH 13 0
BBX 11 15 1 0
BITMAP
07E0
1FC0
3FC0
3C00
3800
FF80
FF80
7000
7000
FF00
FF00
3840
3FE0
1FE0
0FC0
ENDCHAR
STARTCHAR 2122
ENCODING 153
SWIDTH 520 0
DWIDTH 13 0
BBX 12 6 0 9
BITMAP
FB20
3360
3370
32F0
3230
3230
ENDCHAR
ENDFONT
