STARTFONT 2.1
COMMENT
COMMENT Converted from OpenType font "UbuntuMono-Regular.ttf" by "otf2bdf 3.0".
COMMENT
FONT -FreeType-ubuntu mono cp1252-Medium-R-Normal--14-100-100-100-P-53-ISO10646-1
SIZE 10 100 100
FONTBOUNDINGBOX 7 14 0 -2
STARTPROPERTIES 19
FOUNDRY "FreeType"
FAMILY_NAME "ubuntu mono cp1252"
WEIGHT_NAME "Medium"
SLANT "R"
SETWIDTH_NAME "Normal"
ADD_STYLE_NAME ""
PIXEL_SIZE 14
POINT_SIZE 100
RESOLUTION_X 100
RESOLUTION_Y 100
SPACING "P"
AVERAGE_WIDTH 53
CHARSET_REGISTRY "ISO10646"
CHARSET_ENCODING "1"
FONT_ASCENT 11
FONT_DESCENT 2
COPYRIGHT "Copyright 2011 Canonical Ltd.  Licensed under the Ubuntu Font Licence 1.0"
_OTF_FONTFILE "UbuntuMono-Regular.ttf"
_OTF_PSNAME "UbuntuMono-Regular"
ENDPROPERTIES
CHARS 223
STARTCHAR 0000
ENCODING 157
SWIDTH 504 0
DWIDTH 7 0
BBX 0 0 0 0
BITMAP
ENDCHAR
STARTCHAR 0008
ENCODING 8
SWIDTH 504 0
DWIDTH 7 0
BBX 0 0 0 0
BITMAP
ENDCHAR
STARTCHAR 0009
ENCODING 9
SWIDTH 504 0
DWIDTH 7 0
BBX 0 0 0 0
BITMAP
ENDCHAR
STARTCHAR 000D
ENCODING 13
SWIDTH 504 0
DWIDTH 7 0
BBX 0 0 0 0
BITMAP
ENDCHAR
STARTCHAR 001D
ENCODING 29
SWIDTH 504 0
DWIDTH 7 0
BBX 0 0 0 0
BITMAP
ENDCHAR
STARTCHAR 0020
ENCODING 32
SWIDTH 504 0
DWIDTH 7 0
BBX 0 0 0 0
BITMAP
ENDCHAR
STARTCHAR 0021
ENCODING 33
SWIDTH 504 0
DWIDTH 7 0
BBX 1 9 3 0
BITMAP
80
80
80
80
80
80
80
00
80
ENDCHAR
STARTCHAR 0022
ENCODING 34
SWIDTH 504 0
DWIDTH 7 0
BBX 3 3 2 7
BITMAP
A0
A0
A0
ENDCHAR
STARTCHAR 0023
ENCODING 35
SWIDTH 504 0
DWIDTH 7 0
BBX 7 9 0 0
BITMAP
24
24
FE
28
28
28
FE
48
48
ENDCHAR
STARTCHAR 0024
ENCODING 36
SWIDTH 504 0
DWIDTH 7 0
BBX 5 11 1 -1
BITMAP
20
78
80
80
E0
38
08
88
F0
20
20
ENDCHAR
STARTCHAR 0025
ENCODING 37
SWIDTH 504 0
DWIDTH 7 0
BBX 7 9 0 0
BITMAP
64
A4
A8
68
10
2C
2A
4A
4C
ENDCHAR
STARTCHAR 0026
ENCODING 38
SWIDTH 504 0
DWIDTH 7 0
BBX 6 9 0 0
BITMAP
38
48
48
30
74
54
CC
4C
74
ENDCHAR
STARTCHAR 0027
ENCODING 39
SWIDTH 504 0
DWIDTH 7 0
BBX 1 4 3 6
BITMAP
80
80
80
80
ENDCHAR
STARTCHAR 0028
ENCODING 40
SWIDTH 504 0
DWIDTH 7 0
BBX 3 11 2 -2
BITMAP
20
60
C0
80
80
80
80
80
C0
60
20
ENDCHAR
STARTCHAR 0029
ENCODING 41
SWIDTH 504 0
DWIDTH 7 0
BBX 3 11 2 -2
BITMAP
80
C0
60
20
20
20
20
20
60
C0
80
ENDCHAR
STARTCHAR 002A
ENCODING 42
SWIDTH 504 0
DWIDTH 7 0
BBX 5 5 1 4
BITMAP
20
E8
30
50
50
ENDCHAR
STARTCHAR 002B
ENCODING 43
SWIDTH 504 0
DWIDTH 7 0
BBX 5 7 1 0
BITMAP
20
20
20
F8
20
20
20
ENDCHAR
STARTCHAR 002C
ENCODING 44
SWIDTH 504 0
DWIDTH 7 0
BBX 3 3 2 -2
BITMAP
60
60
C0
ENDCHAR
STARTCHAR 002D
ENCODING 45
SWIDTH 504 0
DWIDTH 7 0
BBX 3 1 2 3
BITMAP
E0
ENDCHAR
STARTCHAR 002E
ENCODING 46
SWIDTH 504 0
DWIDTH 7 0
BBX 3 1 2 0
BITMAP
E0
ENDCHAR
STARTCHAR 002F
ENCODING 47
SWIDTH 504 0
DWIDTH 7 0
BBX 5 12 1 -2
BITMAP
08
18
10
10
30
20
20
60
40
40
C0
80
ENDCHAR
STARTCHAR 0030
ENCODING 48
SWIDTH 504 0
DWIDTH 7 0
BBX 5 9 1 0
BITMAP
70
88
88
A8
A8
88
88
88
70
ENDCHAR
STARTCHAR 0031
ENCODING 49
SWIDTH 504 0
DWIDTH 7 0
BBX 5 9 1 0
BITMAP
30
70
B0
30
30
30
30
30
F8
ENDCHAR
STARTCHAR 0032
ENCODING 50
SWIDTH 504 0
DWIDTH 7 0
BBX 5 9 1 0
BITMAP
70
98
08
18
10
20
40
80
F8
ENDCHAR
STARTCHAR 0033
ENCODING 51
SWIDTH 504 0
DWIDTH 7 0
BBX 5 9 1 0
BITMAP
70
98
08
18
70
08
08
08
F0
ENDCHAR
STARTCHAR 0034
ENCODING 52
SWIDTH 504 0
DWIDTH 7 0
BBX 7 9 0 0
BITMAP
0C
1C
3C
2C
4C
4C
FE
0C
0C
ENDCHAR
STARTCHAR 0035
ENCODING 53
SWIDTH 504 0
DWIDTH 7 0
BBX 5 9 1 0
BITMAP
78
40
40
70
18
08
08
08
F0
ENDCHAR
STARTCHAR 0036
ENCODING 54
SWIDTH 504 0
DWIDTH 7 0
BBX 5 9 1 0
BITMAP
38
40
80
F0
88
88
88
C8
70
ENDCHAR
STARTCHAR 0037
ENCODING 55
SWIDTH 504 0
DWIDTH 7 0
BBX 5 9 1 0
BITMAP
F8
08
10
10
20
20
20
60
40
ENDCHAR
STARTCHAR 0038
ENCODING 56
SWIDTH 504 0
DWIDTH 7 0
BBX 5 9 1 0
BITMAP
70
88
88
C8
70
88
88
88
70
ENDCHAR
STARTCHAR 0039
ENCODING 57
SWIDTH 504 0
DWIDTH 7 0
BBX 5 9 1 0
BITMAP
70
98
88
88
88
78
08
10
E0
ENDCHAR
STARTCHAR 003A
ENCODING 58
SWIDTH 504 0
DWIDTH 7 0
BBX 3 6 2 0
BITMAP
E0
00
00
00
00
E0
ENDCHAR
STARTCHAR 003B
ENCODING 59
SWIDTH 504 0
DWIDTH 7 0
BBX 3 8 2 -2
BITMAP
E0
00
00
00
00
C0
40
C0
ENDCHAR
STARTCHAR 003C
ENCODING 60
SWIDTH 504 0
DWIDTH 7 0
BBX 5 5 1 1
BITMAP
08
70
80
70
08
ENDCHAR
STARTCHAR 003D
ENCODING 61
SWIDTH 504 0
DWIDTH 7 0
BBX 5 4 1 2
BITMAP
F8
00
00
F8
ENDCHAR
STARTCHAR 003E
ENCODING 62
SWIDTH 504 0
DWIDTH 7 0
BBX 5 5 1 1
BITMAP
80
70
08
70
80
ENDCHAR
STARTCHAR 003F
ENCODING 63
SWIDTH 504 0
DWIDTH 7 0
BBX 5 9 1 0
BITMAP
F0
18
08
10
30
20
20
00
60
ENDCHAR
STARTCHAR 0040
ENCODING 64
SWIDTH 504 0
DWIDTH 7 0
BBX 6 11 1 -2
BITMAP
78
C8
8C
BC
AC
AC
AC
BC
80
40
38
ENDCHAR
STARTCHAR 0041
ENCODING 65
SWIDTH 504 0
DWIDTH 7 0
BBX 7 9 0 0
BITMAP
10
28
28
28
44
44
7C
44
82
ENDCHAR
STARTCHAR 0042
ENCODING 66
SWIDTH 504 0
DWIDTH 7 0
BBX 5 9 1 0
BITMAP
F0
98
88
98
F0
88
88
88
F0
ENDCHAR
STARTCHAR 0043
ENCODING 67
SWIDTH 504 0
DWIDTH 7 0
BBX 5 9 1 0
BITMAP
78
C8
80
80
80
80
80
C0
78
ENDCHAR
STARTCHAR 0044
ENCODING 68
SWIDTH 504 0
DWIDTH 7 0
BBX 5 9 1 0
BITMAP
F0
98
88
88
88
88
88
98
F0
ENDCHAR
STARTCHAR 0045
ENCODING 69
SWIDTH 504 0
DWIDTH 7 0
BBX 5 9 1 0
BITMAP
F8
80
80
80
F8
80
80
80
F8
ENDCHAR
STARTCHAR 0046
ENCODING 70
SWIDTH 504 0
DWIDTH 7 0
BBX 5 9 1 0
BITMAP
F8
80
80
80
F8
80
80
80
80
ENDCHAR
STARTCHAR 0047
ENCODING 71
SWIDTH 504 0
DWIDTH 7 0
BBX 5 9 1 0
BITMAP
78
C8
80
80
80
88
88
C8
78
ENDCHAR
STARTCHAR 0048
ENCODING 72
SWIDTH 504 0
DWIDTH 7 0
BBX 5 9 1 0
BITMAP
88
88
88
88
F8
88
88
88
88
ENDCHAR
STARTCHAR 0049
ENCODING 73
SWIDTH 504 0
DWIDTH 7 0
BBX 5 9 1 0
BITMAP
F8
20
20
20
20
20
20
20
F8
ENDCHAR
STARTCHAR 004A
ENCODING 74
SWIDTH 504 0
DWIDTH 7 0
BBX 5 9 1 0
BITMAP
78
08
08
08
08
08
08
98
F0
ENDCHAR
STARTCHAR 004B
ENCODING 75
SWIDTH 504 0
DWIDTH 7 0
BBX 6 9 1 0
BITMAP
88
98
90
A0
C0
A0
90
88
8C
ENDCHAR
STARTCHAR 004C
ENCODING 76
SWIDTH 504 0
DWIDTH 7 0
BBX 5 9 1 0
BITMAP
80
80
80
80
80
80
80
80
F8
ENDCHAR
STARTCHAR 004D
ENCODING 77
SWIDTH 504 0
DWIDTH 7 0
BBX 7 9 0 0
BITMAP
44
6C
6C
6C
6C
54
44
44
C6
ENDCHAR
STARTCHAR 004E
ENCODING 78
SWIDTH 504 0
DWIDTH 7 0
BBX 5 9 1 0
BITMAP
88
C8
C8
A8
A8
98
98
98
88
ENDCHAR
STARTCHAR 004F
ENCODING 79
SWIDTH 504 0
DWIDTH 7 0
BBX 7 9 0 0
BITMAP
38
44
44
C6
C6
C6
44
44
38
ENDCHAR
STARTCHAR 0050
ENCODING 80
SWIDTH 504 0
DWIDTH 7 0
BBX 5 9 1 0
BITMAP
F0
88
88
88
88
F0
80
80
80
ENDCHAR
STARTCHAR 0051
ENCODING 81
SWIDTH 504 0
DWIDTH 7 0
BBX 7 11 0 -2
BITMAP
38
44
44
C6
C6
C6
44
44
38
10
0C
ENDCHAR
STARTCHAR 0052
ENCODING 82
SWIDTH 504 0
DWIDTH 7 0
BBX 5 9 1 0
BITMAP
F0
88
88
88
F0
90
90
88
88
ENDCHAR
STARTCHAR 0053
ENCODING 83
SWIDTH 504 0
DWIDTH 7 0
BBX 5 9 1 0
BITMAP
78
88
80
C0
30
08
08
88
F0
ENDCHAR
STARTCHAR 0054
ENCODING 84
SWIDTH 504 0
DWIDTH 7 0
BBX 5 9 1 0
BITMAP
F8
20
20
20
20
20
20
20
20
ENDCHAR
STARTCHAR 0055
ENCODING 85
SWIDTH 504 0
DWIDTH 7 0
BBX 5 9 1 0
BITMAP
88
88
88
88
88
88
88
88
70
ENDCHAR
STARTCHAR 0056
ENCODING 86
SWIDTH 504 0
DWIDTH 7 0
BBX 7 9 0 0
BITMAP
C2
44
44
44
64
28
28
28
10
ENDCHAR
STARTCHAR 0057
ENCODING 87
SWIDTH 504 0
DWIDTH 7 0
BBX 7 9 0 0
BITMAP
C6
44
44
54
74
6C
6C
6C
44
ENDCHAR
STARTCHAR 0058
ENCODING 88
SWIDTH 504 0
DWIDTH 7 0
BBX 5 9 1 0
BITMAP
88
D8
50
70
20
70
50
88
88
ENDCHAR
STARTCHAR 0059
ENCODING 89
SWIDTH 504 0
DWIDTH 7 0
BBX 7 9 0 0
BITMAP
C6
44
64
28
38
10
10
10
10
ENDCHAR
STARTCHAR 005A
ENCODING 90
SWIDTH 504 0
DWIDTH 7 0
BBX 5 9 1 0
BITMAP
F8
08
10
30
20
40
40
80
F8
ENDCHAR
STARTCHAR 005B
ENCODING 91
SWIDTH 504 0
DWIDTH 7 0
BBX 3 11 2 -2
BITMAP
E0
80
80
80
80
80
80
80
80
80
E0
ENDCHAR
STARTCHAR 005C
ENCODING 92
SWIDTH 504 0
DWIDTH 7 0
BBX 5 12 1 -2
BITMAP
80
C0
40
40
60
20
20
30
10
10
18
08
ENDCHAR
STARTCHAR 005D
ENCODING 93
SWIDTH 504 0
DWIDTH 7 0
BBX 3 11 2 -2
BITMAP
E0
20
20
20
20
20
20
20
20
20
E0
ENDCHAR
STARTCHAR 005E
ENCODING 94
SWIDTH 504 0
DWIDTH 7 0
BBX 5 5 1 4
BITMAP
20
50
50
88
88
ENDCHAR
STARTCHAR 005F
ENCODING 95
SWIDTH 504 0
DWIDTH 7 0
BBX 7 1 0 -2
BITMAP
FE
ENDCHAR
STARTCHAR 0060
ENCODING 96
SWIDTH 504 0
DWIDTH 7 0
BBX 2 2 3 7
BITMAP
80
C0
ENDCHAR
STARTCHAR 0061
ENCODING 97
SWIDTH 504 0
DWIDTH 7 0
BBX 5 7 1 0
BITMAP
70
08
08
78
88
88
78
ENDCHAR
STARTCHAR 0062
ENCODING 98
SWIDTH 504 0
DWIDTH 7 0
BBX 5 10 1 0
BITMAP
80
80
80
F0
88
88
88
88
88
F0
ENDCHAR
STARTCHAR 0063
ENCODING 99
SWIDTH 504 0
DWIDTH 7 0
BBX 5 7 1 0
BITMAP
78
C0
80
80
80
C0
78
ENDCHAR
STARTCHAR 0064
ENCODING 100
SWIDTH 504 0
DWIDTH 7 0
BBX 5 10 1 0
BITMAP
08
08
08
78
88
88
88
88
88
78
ENDCHAR
STARTCHAR 0065
ENCODING 101
SWIDTH 504 0
DWIDTH 7 0
BBX 5 7 1 0
BITMAP
70
88
88
F8
80
80
78
ENDCHAR
STARTCHAR 0066
ENCODING 102
SWIDTH 504 0
DWIDTH 7 0
BBX 6 10 1 0
BITMAP
3C
60
40
F8
40
40
40
40
40
40
ENDCHAR
STARTCHAR 0067
ENCODING 103
SWIDTH 504 0
DWIDTH 7 0
BBX 5 9 1 -2
BITMAP
78
88
88
88
88
88
78
08
F0
ENDCHAR
STARTCHAR 0068
ENCODING 104
SWIDTH 504 0
DWIDTH 7 0
BBX 5 10 1 0
BITMAP
80
80
80
F0
88
88
88
88
88
88
ENDCHAR
STARTCHAR 0069
ENCODING 105
SWIDTH 504 0
DWIDTH 7 0
BBX 5 9 1 0
BITMAP
60
00
E0
20
20
20
20
20
38
ENDCHAR
STARTCHAR 006A
ENCODING 106
SWIDTH 504 0
DWIDTH 7 0
BBX 4 11 1 -2
BITMAP
30
00
70
10
10
10
10
10
10
10
F0
ENDCHAR
STARTCHAR 006B
ENCODING 107
SWIDTH 504 0
DWIDTH 7 0
BBX 5 10 1 0
BITMAP
80
80
80
88
90
A0
C0
B0
98
88
ENDCHAR
STARTCHAR 006C
ENCODING 108
SWIDTH 504 0
DWIDTH 7 0
BBX 5 10 1 0
BITMAP
E0
20
20
20
20
20
20
20
20
38
ENDCHAR
STARTCHAR 006D
ENCODING 109
SWIDTH 504 0
DWIDTH 7 0
BBX 6 7 1 0
BITMAP
F8
A8
AC
AC
8C
8C
8C
ENDCHAR
STARTCHAR 006E
ENCODING 110
SWIDTH 504 0
DWIDTH 7 0
BBX 5 7 1 0
BITMAP
F0
88
88
88
88
88
88
ENDCHAR
STARTCHAR 006F
ENCODING 111
SWIDTH 504 0
DWIDTH 7 0
BBX 5 7 1 0
BITMAP
70
88
88
88
88
88
70
ENDCHAR
STARTCHAR 0070
ENCODING 112
SWIDTH 504 0
DWIDTH 7 0
BBX 5 9 1 -2
BITMAP
F0
88
88
88
88
88
F0
80
80
ENDCHAR
STARTCHAR 0071
ENCODING 113
SWIDTH 504 0
DWIDTH 7 0
BBX 5 9 1 -2
BITMAP
78
88
88
88
88
88
78
08
08
ENDCHAR
STARTCHAR 0072
ENCODING 114
SWIDTH 504 0
DWIDTH 7 0
BBX 5 7 1 0
BITMAP
78
C0
C0
C0
C0
C0
C0
ENDCHAR
STARTCHAR 0073
ENCODING 115
SWIDTH 504 0
DWIDTH 7 0
BBX 5 7 1 0
BITMAP
78
80
C0
70
08
88
F0
ENDCHAR
STARTCHAR 0074
ENCODING 116
SWIDTH 504 0
DWIDTH 7 0
BBX 5 9 1 0
BITMAP
40
40
F8
40
40
40
40
60
38
ENDCHAR
STARTCHAR 0075
ENCODING 117
SWIDTH 504 0
DWIDTH 7 0
BBX 5 7 1 0
BITMAP
88
88
88
88
88
88
78
ENDCHAR
STARTCHAR 0076
ENCODING 118
SWIDTH 504 0
DWIDTH 7 0
BBX 5 7 1 0
BITMAP
88
88
88
50
50
50
20
ENDCHAR
STARTCHAR 0077
ENCODING 119
SWIDTH 504 0
DWIDTH 7 0
BBX 7 7 0 0
BITMAP
82
92
54
6C
6C
6C
44
ENDCHAR
STARTCHAR 0078
ENCODING 120
SWIDTH 504 0
DWIDTH 7 0
BBX 5 7 1 0
BITMAP
88
50
70
20
50
D8
88
ENDCHAR
STARTCHAR 0079
ENCODING 121
SWIDTH 504 0
DWIDTH 7 0
BBX 5 9 1 -2
BITMAP
88
88
C8
50
50
30
20
20
C0
ENDCHAR
STARTCHAR 007A
ENCODING 122
SWIDTH 504 0
DWIDTH 7 0
BBX 5 7 1 0
BITMAP
F8
10
30
20
40
C0
F8
ENDCHAR
STARTCHAR 007B
ENCODING 123
SWIDTH 504 0
DWIDTH 7 0
BBX 5 12 1 -2
BITMAP
38
20
20
20
60
C0
60
20
20
20
20
38
ENDCHAR
STARTCHAR 007C
ENCODING 124
SWIDTH 504 0
DWIDTH 7 0
BBX 1 12 3 -2
BITMAP
80
80
80
80
80
80
80
80
80
80
80
80
ENDCHAR
STARTCHAR 007D
ENCODING 125
SWIDTH 504 0
DWIDTH 7 0
BBX 5 12 1 -2
BITMAP
E0
20
20
20
30
18
30
20
20
20
20
E0
ENDCHAR
STARTCHAR 007E
ENCODING 126
SWIDTH 504 0
DWIDTH 7 0
BBX 5 2 1 3
BITMAP
E8
B8
ENDCHAR
STARTCHAR 00A0
ENCODING 160
SWIDTH 504 0
DWIDTH 7 0
BBX 0 0 0 0
BITMAP
ENDCHAR
STARTCHAR 00A1
ENCODING 161
SWIDTH 504 0
DWIDTH 7 0
BBX 1 9 3 -2
BITMAP
80
00
80
80
80
80
80
80
80
ENDCHAR
STARTCHAR 00A2
ENCODING 162
SWIDTH 504 0
DWIDTH 7 0
BBX 5 10 1 -1
BITMAP
10
10
78
C0
80
80
C0
78
10
10
ENDCHAR
STARTCHAR 00A3
ENCODING 163
SWIDTH 504 0
DWIDTH 7 0
BBX 5 9 1 0
BITMAP
38
40
40
40
F0
40
40
40
78
ENDCHAR
STARTCHAR 00A4
ENCODING 164
SWIDTH 504 0
DWIDTH 7 0
BBX 5 7 1 1
BITMAP
88
F8
88
88
88
F8
88
ENDCHAR
STARTCHAR 00A5
ENCODING 165
SWIDTH 504 0
DWIDTH 7 0
BBX 7 9 0 0
BITMAP
C6
44
28
38
7C
10
10
7C
10
ENDCHAR
STARTCHAR 00A6
ENCODING 166
SWIDTH 504 0
DWIDTH 7 0
BBX 1 12 3 -2
BITMAP
80
80
80
80
80
00
00
80
80
80
80
80
ENDCHAR
STARTCHAR 00A7
ENCODING 167
SWIDTH 504 0
DWIDTH 7 0
BBX 5 10 1 -1
BITMAP
78
C0
40
70
88
88
70
18
08
F0
ENDCHAR
STARTCHAR 00A8
ENCODING 168
SWIDTH 504 0
DWIDTH 7 0
BBX 3 1 2 8
BITMAP
A0
ENDCHAR
STARTCHAR 00A9
ENCODING 169
SWIDTH 504 0
DWIDTH 7 0
BBX 7 7 0 0
BITMAP
38
44
B4
A2
BC
44
38
ENDCHAR
STARTCHAR 00AA
ENCODING 170
SWIDTH 504 0
DWIDTH 7 0
BBX 3 5 2 4
BITMAP
E0
20
E0
A0
E0
ENDCHAR
STARTCHAR 00AB
ENCODING 171
SWIDTH 504 0
DWIDTH 7 0
BBX 5 5 1 1
BITMAP
48
50
B0
50
48
ENDCHAR
STARTCHAR 00AC
ENCODING 172
SWIDTH 504 0
DWIDTH 7 0
BBX 5 4 1 1
BITMAP
F8
08
08
08
ENDCHAR
STARTCHAR 00AD
ENCODING 173
SWIDTH 504 0
DWIDTH 7 0
BBX 3 1 2 3
BITMAP
E0
ENDCHAR
STARTCHAR 00AE
ENCODING 174
SWIDTH 504 0
DWIDTH 7 0
BBX 7 7 0 0
BITMAP
38
44
BC
BA
AC
44
38
ENDCHAR
STARTCHAR 00AF
ENCODING 175
SWIDTH 504 0
DWIDTH 7 0
BBX 3 1 2 8
BITMAP
E0
ENDCHAR
STARTCHAR 00B0
ENCODING 176
SWIDTH 504 0
DWIDTH 7 0
BBX 3 4 2 6
BITMAP
E0
A0
A0
E0
ENDCHAR
STARTCHAR 00B1
ENCODING 177
SWIDTH 504 0
DWIDTH 7 0
BBX 5 8 1 0
BITMAP
20
20
20
F8
20
20
20
F8
ENDCHAR
STARTCHAR 00B2
ENCODING 178
SWIDTH 504 0
DWIDTH 7 0
BBX 3 5 2 4
BITMAP
E0
20
60
80
E0
ENDCHAR
STARTCHAR 00B3
ENCODING 179
SWIDTH 504 0
DWIDTH 7 0
BBX 3 5 2 4
BITMAP
E0
20
60
20
E0
ENDCHAR
STARTCHAR 00B4
ENCODING 180
SWIDTH 504 0
DWIDTH 7 0
BBX 2 2 2 7
BITMAP
40
C0
ENDCHAR
STARTCHAR 00B5
ENCODING 181
SWIDTH 504 0
DWIDTH 7 0
BBX 5 9 1 -2
BITMAP
88
88
88
88
88
C8
F8
80
80
ENDCHAR
STARTCHAR 00B6
ENCODING 182
SWIDTH 504 0
DWIDTH 7 0
BBX 6 11 0 -2
BITMAP
3C
74
F4
74
74
14
14
14
14
14
14
ENDCHAR
STARTCHAR 00B7
ENCODING 183
SWIDTH 504 0
DWIDTH 7 0
BBX 3 1 2 3
BITMAP
E0
ENDCHAR
STARTCHAR 00B8
ENCODING 184
SWIDTH 504 0
DWIDTH 7 0
BBX 2 2 2 -2
BITMAP
40
C0
ENDCHAR
STARTCHAR 00B9
ENCODING 185
SWIDTH 504 0
DWIDTH 7 0
BBX 3 5 2 4
BITMAP
40
C0
40
40
E0
ENDCHAR
STARTCHAR 00BA
ENCODING 186
SWIDTH 504 0
DWIDTH 7 0
BBX 5 5 1 4
BITMAP
70
88
88
88
70
ENDCHAR
STARTCHAR 00BB
ENCODING 187
SWIDTH 504 0
DWIDTH 7 0
BBX 5 5 1 1
BITMAP
90
50
68
50
90
ENDCHAR
STARTCHAR 00BC
ENCODING 188
SWIDTH 504 0
DWIDTH 7 0
BBX 7 9 0 0
BITMAP
44
C4
48
48
10
24
2C
4E
44
ENDCHAR
STARTCHAR 00BD
ENCODING 189
SWIDTH 504 0
DWIDTH 7 0
BBX 7 9 0 0
BITMAP
44
C4
48
50
10
2C
22
44
4E
ENDCHAR
STARTCHAR 00BE
ENCODING 190
SWIDTH 504 0
DWIDTH 7 0
BBX 7 9 0 0
BITMAP
E4
64
28
E8
10
24
2C
4E
44
ENDCHAR
STARTCHAR 00BF
ENCODING 191
SWIDTH 504 0
DWIDTH 7 0
BBX 5 9 1 -2
BITMAP
30
00
20
20
60
C0
80
C0
78
ENDCHAR
STARTCHAR 00C0
ENCODING 192
SWIDTH 504 0
DWIDTH 7 0
BBX 7 12 0 0
BITMAP
10
18
00
10
28
28
28
44
44
7C
44
82
ENDCHAR
STARTCHAR 00C1
ENCODING 193
SWIDTH 504 0
DWIDTH 7 0
BBX 7 12 0 0
BITMAP
10
30
00
10
28
28
28
44
44
7C
44
82
ENDCHAR
STARTCHAR 00C2
ENCODING 194
SWIDTH 504 0
DWIDTH 7 0
BBX 7 12 0 0
BITMAP
10
28
00
10
28
28
28
44
44
7C
44
82
ENDCHAR
STARTCHAR 00C3
ENCODING 195
SWIDTH 504 0
DWIDTH 7 0
BBX 7 12 0 0
BITMAP
34
58
00
10
28
28
28
44
44
7C
44
82
ENDCHAR
STARTCHAR 00C4
ENCODING 196
SWIDTH 504 0
DWIDTH 7 0
BBX 7 11 0 0
BITMAP
28
00
10
28
28
28
44
44
7C
44
82
ENDCHAR
STARTCHAR 00C5
ENCODING 197
SWIDTH 504 0
DWIDTH 7 0
BBX 7 11 0 0
BITMAP
38
28
10
28
28
28
44
44
7C
C4
82
ENDCHAR
STARTCHAR 00C6
ENCODING 198
SWIDTH 504 0
DWIDTH 7 0
BBX 7 9 0 0
BITMAP
1E
18
28
28
2C
48
78
48
CE
ENDCHAR
STARTCHAR 00C7
ENCODING 199
SWIDTH 504 0
DWIDTH 7 0
BBX 5 11 1 -2
BITMAP
78
C8
80
80
80
80
80
C0
78
10
30
ENDCHAR
STARTCHAR 00C8
ENCODING 200
SWIDTH 504 0
DWIDTH 7 0
BBX 5 12 1 0
BITMAP
20
10
00
F8
80
80
80
F8
80
80
80
F8
ENDCHAR
STARTCHAR 00C9
ENCODING 201
SWIDTH 504 0
DWIDTH 7 0
BBX 5 12 1 0
BITMAP
10
20
00
F8
80
80
80
F8
80
80
80
F8
ENDCHAR
STARTCHAR 00CA
ENCODING 202
SWIDTH 504 0
DWIDTH 7 0
BBX 5 12 1 0
BITMAP
20
50
00
F8
80
80
80
F8
80
80
80
F8
ENDCHAR
STARTCHAR 00CB
ENCODING 203
SWIDTH 504 0
DWIDTH 7 0
BBX 5 11 1 0
BITMAP
58
00
F8
80
80
80
F8
80
80
80
F8
ENDCHAR
STARTCHAR 00CC
ENCODING 204
SWIDTH 504 0
DWIDTH 7 0
BBX 5 12 1 0
BITMAP
20
30
00
F8
20
20
20
20
20
20
20
F8
ENDCHAR
STARTCHAR 00CD
ENCODING 205
SWIDTH 504 0
DWIDTH 7 0
BBX 5 12 1 0
BITMAP
10
20
00
F8
20
20
20
20
20
20
20
F8
ENDCHAR
STARTCHAR 00CE
ENCODING 206
SWIDTH 504 0
DWIDTH 7 0
BBX 5 12 1 0
BITMAP
20
50
00
F8
20
20
20
20
20
20
20
F8
ENDCHAR
STARTCHAR 00CF
ENCODING 207
SWIDTH 504 0
DWIDTH 7 0
BBX 5 11 1 0
BITMAP
50
00
F8
20
20
20
20
20
20
20
F8
ENDCHAR
STARTCHAR 00D0
ENCODING 208
SWIDTH 504 0
DWIDTH 7 0
BBX 6 9 0 0
BITMAP
78
4C
44
44
F4
44
44
4C
78
ENDCHAR
STARTCHAR 00D1
ENCODING 209
SWIDTH 504 0
DWIDTH 7 0
BBX 5 12 1 0
BITMAP
68
B0
00
88
C8
C8
A8
A8
98
98
98
88
ENDCHAR
STARTCHAR 00D2
ENCODING 210
SWIDTH 504 0
DWIDTH 7 0
BBX 7 12 0 0
BITMAP
10
18
00
38
44
44
C6
C6
C6
44
44
38
ENDCHAR
STARTCHAR 00D3
ENCODING 211
SWIDTH 504 0
DWIDTH 7 0
BBX 7 12 0 0
BITMAP
08
10
00
38
44
44
C6
C6
C6
44
44
38
ENDCHAR
STARTCHAR 00D4
ENCODING 212
SWIDTH 504 0
DWIDTH 7 0
BBX 7 12 0 0
BITMAP
10
28
00
38
44
44
C6
C6
C6
44
44
38
ENDCHAR
STARTCHAR 00D5
ENCODING 213
SWIDTH 504 0
DWIDTH 7 0
BBX 7 12 0 0
BITMAP
34
58
00
38
44
44
C6
C6
C6
44
44
38
ENDCHAR
STARTCHAR 00D6
ENCODING 214
SWIDTH 504 0
DWIDTH 7 0
BBX 7 11 0 0
BITMAP
28
00
38
44
44
C6
C6
C6
44
44
38
ENDCHAR
STARTCHAR 00D7
ENCODING 215
SWIDTH 504 0
DWIDTH 7 0
BBX 5 5 1 1
BITMAP
88
50
20
50
88
ENDCHAR
STARTCHAR 00D8
ENCODING 216
SWIDTH 504 0
DWIDTH 7 0
BBX 7 9 0 0
BITMAP
3C
4C
4C
DE
D6
F6
64
64
78
ENDCHAR
STARTCHAR 00D9
ENCODING 217
SWIDTH 504 0
DWIDTH 7 0
BBX 5 12 1 0
BITMAP
20
30
00
88
88
88
88
88
88
88
88
70
ENDCHAR
STARTCHAR 00DA
ENCODING 218
SWIDTH 504 0
DWIDTH 7 0
BBX 5 12 1 0
BITMAP
10
20
00
88
88
88
88
88
88
88
88
70
ENDCHAR
STARTCHAR 00DB
ENCODING 219
SWIDTH 504 0
DWIDTH 7 0
BBX 5 12 1 0
BITMAP
20
50
00
88
88
88
88
88
88
88
88
70
ENDCHAR
STARTCHAR 00DC
ENCODING 220
SWIDTH 504 0
DWIDTH 7 0
BBX 5 11 1 0
BITMAP
50
00
88
88
88
88
88
88
88
88
70
ENDCHAR
STARTCHAR 00DD
ENCODING 221
SWIDTH 504 0
DWIDTH 7 0
BBX 7 12 0 0
BITMAP
08
10
00
C6
44
64
28
38
10
10
10
10
ENDCHAR
STARTCHAR 00DE
ENCODING 222
SWIDTH 504 0
DWIDTH 7 0
BBX 5 9 1 0
BITMAP
80
F0
88
88
88
88
F0
80
80
ENDCHAR
STARTCHAR 00DF
ENCODING 223
SWIDTH 504 0
DWIDTH 7 0
BBX 6 10 1 0
BITMAP
70
98
98
90
A0
A0
98
8C
8C
B8
ENDCHAR
STARTCHAR 00E0
ENCODING 224
SWIDTH 504 0
DWIDTH 7 0
BBX 5 10 1 0
BITMAP
20
30
00
70
08
08
78
88
88
78
ENDCHAR
STARTCHAR 00E1
ENCODING 225
SWIDTH 504 0
DWIDTH 7 0
BBX 5 10 1 0
BITMAP
10
20
00
70
08
08
78
88
88
78
ENDCHAR
STARTCHAR 00E2
ENCODING 226
SWIDTH 504 0
DWIDTH 7 0
BBX 5 10 1 0
BITMAP
20
50
00
70
08
08
78
88
88
78
ENDCHAR
STARTCHAR 00E3
ENCODING 227
SWIDTH 504 0
DWIDTH 7 0
BBX 5 10 1 0
BITMAP
68
B0
00
70
08
08
78
88
88
78
ENDCHAR
STARTCHAR 00E4
ENCODING 228
SWIDTH 504 0
DWIDTH 7 0
BBX 5 9 1 0
BITMAP
50
00
70
08
08
78
88
88
78
ENDCHAR
STARTCHAR 00E5
ENCODING 229
SWIDTH 504 0
DWIDTH 7 0
BBX 5 11 1 0
BITMAP
20
50
20
00
70
08
08
78
88
88
78
ENDCHAR
STARTCHAR 00E6
ENCODING 230
SWIDTH 504 0
DWIDTH 7 0
BBX 7 7 0 0
BITMAP
6C
14
12
7E
D0
D0
7C
ENDCHAR
STARTCHAR 00E7
ENCODING 231
SWIDTH 504 0
DWIDTH 7 0
BBX 5 9 1 -2
BITMAP
78
C0
80
80
80
C0
78
30
30
ENDCHAR
STARTCHAR 00E8
ENCODING 232
SWIDTH 504 0
DWIDTH 7 0
BBX 5 10 1 0
BITMAP
20
30
00
70
88
88
F8
80
80
78
ENDCHAR
STARTCHAR 00E9
ENCODING 233
SWIDTH 504 0
DWIDTH 7 0
BBX 5 10 1 0
BITMAP
10
20
00
70
88
88
F8
80
80
78
ENDCHAR
STARTCHAR 00EA
ENCODING 234
SWIDTH 504 0
DWIDTH 7 0
BBX 5 10 1 0
BITMAP
20
50
00
70
88
88
F8
80
80
78
ENDCHAR
STARTCHAR 00EB
ENCODING 235
SWIDTH 504 0
DWIDTH 7 0
BBX 5 9 1 0
BITMAP
58
00
70
88
88
F8
80
80
78
ENDCHAR
STARTCHAR 00EC
ENCODING 236
SWIDTH 504 0
DWIDTH 7 0
BBX 5 10 1 0
BITMAP
40
20
00
E0
20
20
20
20
20
38
ENDCHAR
STARTCHAR 00ED
ENCODING 237
SWIDTH 504 0
DWIDTH 7 0
BBX 5 10 1 0
BITMAP
20
40
00
E0
20
20
20
20
20
38
ENDCHAR
STARTCHAR 00EE
ENCODING 238
SWIDTH 504 0
DWIDTH 7 0
BBX 5 10 1 0
BITMAP
60
F0
00
E0
20
20
20
20
20
38
ENDCHAR
STARTCHAR 00EF
ENCODING 239
SWIDTH 504 0
DWIDTH 7 0
BBX 5 9 1 0
BITMAP
F0
00
E0
20
20
20
20
20
38
ENDCHAR
STARTCHAR 00F0
ENCODING 240
SWIDTH 504 0
DWIDTH 7 0
BBX 5 10 1 0
BITMAP
20
38
70
08
78
88
88
88
98
70
ENDCHAR
STARTCHAR 00F1
ENCODING 241
SWIDTH 504 0
DWIDTH 7 0
BBX 5 10 1 0
BITMAP
68
B0
00
F0
88
88
88
88
88
88
ENDCHAR
STARTCHAR 00F2
ENCODING 242
SWIDTH 504 0
DWIDTH 7 0
BBX 5 10 1 0
BITMAP
20
30
00
70
88
88
88
88
88
70
ENDCHAR
STARTCHAR 00F3
ENCODING 243
SWIDTH 504 0
DWIDTH 7 0
BBX 5 10 1 0
BITMAP
10
20
00
70
88
88
88
88
88
70
ENDCHAR
STARTCHAR 00F4
ENCODING 244
SWIDTH 504 0
DWIDTH 7 0
BBX 5 10 1 0
BITMAP
20
50
00
70
88
88
88
88
88
70
ENDCHAR
STARTCHAR 00F5
ENCODING 245
SWIDTH 504 0
DWIDTH 7 0
BBX 5 10 1 0
BITMAP
68
B0
00
70
88
88
88
88
88
70
ENDCHAR
STARTCHAR 00F6
ENCODING 246
SWIDTH 504 0
DWIDTH 7 0
BBX 5 9 1 0
BITMAP
50
00
70
88
88
88
88
88
70
ENDCHAR
STARTCHAR 00F7
ENCODING 247
SWIDTH 504 0
DWIDTH 7 0
BBX 5 7 1 0
BITMAP
20
20
00
F8
00
20
20
ENDCHAR
STARTCHAR 00F8
ENCODING 248
SWIDTH 504 0
DWIDTH 7 0
BBX 5 7 1 0
BITMAP
78
98
98
A8
C8
C8
F0
ENDCHAR
STARTCHAR 00F9
ENCODING 249
SWIDTH 504 0
DWIDTH 7 0
BBX 5 10 1 0
BITMAP
20
30
00
88
88
88
88
88
88
78
ENDCHAR
STARTCHAR 00FA
ENCODING 250
SWIDTH 504 0
DWIDTH 7 0
BBX 5 10 1 0
BITMAP
10
20
00
88
88
88
88
88
88
78
ENDCHAR
STARTCHAR 00FB
ENCODING 251
SWIDTH 504 0
DWIDTH 7 0
BBX 5 10 1 0
BITMAP
20
50
00
88
88
88
88
88
88
78
ENDCHAR
STARTCHAR 00FC
ENCODING 252
SWIDTH 504 0
DWIDTH 7 0
BBX 5 9 1 0
BITMAP
50
00
88
88
88
88
88
88
78
ENDCHAR
STARTCHAR 00FD
ENCODING 253
SWIDTH 504 0
DWIDTH 7 0
BBX 5 12 1 -2
BITMAP
10
20
00
88
88
C8
50
50
30
20
20
C0
ENDCHAR
STARTCHAR 00FE
ENCODING 254
SWIDTH 504 0
DWIDTH 7 0
BBX 5 12 1 -2
BITMAP
80
80
80
F0
88
88
88
88
88
F0
80
80
ENDCHAR
STARTCHAR 00FF
ENCODING 255
SWIDTH 504 0
DWIDTH 7 0
BBX 5 11 1 -2
BITMAP
58
00
88
88
C8
50
50
30
20
20
C0
ENDCHAR
STARTCHAR 0152
ENCODING 140
SWIDTH 504 0
DWIDTH 7 0
BBX 7 9 0 0
BITMAP
3E
48
48
C8
CC
C8
48
48
3E
ENDCHAR
STARTCHAR 0153
ENCODING 156
SWIDTH 504 0
DWIDTH 7 0
BBX 7 7 0 0
BITMAP
6C
54
D2
DE
D0
58
6C
ENDCHAR
STARTCHAR 0160
ENCODING 138
SWIDTH 504 0
DWIDTH 7 0
BBX 5 12 1 0
BITMAP
50
20
00
78
88
80
C0
30
08
08
88
F0
ENDCHAR
STARTCHAR 0161
ENCODING 154
SWIDTH 504 0
DWIDTH 7 0
BBX 5 10 1 0
BITMAP
50
20
00
78
80
C0
70
08
88
F0
ENDCHAR
STARTCHAR 0178
ENCODING 159
SWIDTH 504 0
DWIDTH 7 0
BBX 7 11 0 0
BITMAP
28
00
C6
44
64
28
38
10
10
10
10
ENDCHAR
STARTCHAR 017D
ENCODING 142
SWIDTH 504 0
DWIDTH 7 0
BBX 5 12 1 0
BITMAP
50
20
00
F8
08
10
30
20
40
40
80
F8
ENDCHAR
STARTCHAR 017E
ENCODING 158
SWIDTH 504 0
DWIDTH 7 0
BBX 5 10 1 0
BITMAP
50
20
00
F8
10
30
20
40
C0
F8
ENDCHAR
STARTCHAR 0192
ENCODING 131
SWIDTH 504 0
DWIDTH 7 0
BBX 7 12 0 -2
BITMAP
1E
30
20
7C
20
20
20
20
20
20
20
E0
ENDCHAR
STARTCHAR 02C6
ENCODING 136
SWIDTH 504 0
DWIDTH 7 0
BBX 3 2 2 7
BITMAP
40
A0
ENDCHAR
STARTCHAR 02DC
ENCODING 152
SWIDTH 504 0
DWIDTH 7 0
BBX 3 2 2 8
BITMAP
E0
E0
ENDCHAR
STARTCHAR 2013
ENCODING 150
SWIDTH 504 0
DWIDTH 7 0
BBX 5 1 1 3
BITMAP
F8
ENDCHAR
STARTCHAR 2014
ENCODING 151
SWIDTH 504 0
DWIDTH 7 0
BBX 7 1 0 3
BITMAP
FE
ENDCHAR
STARTCHAR 2018
ENCODING 145
SWIDTH 504 0
DWIDTH 7 0
BBX 3 3 2 6
BITMAP
60
C0
C0
ENDCHAR
STARTCHAR 2019
ENCODING 146
SWIDTH 504 0
DWIDTH 7 0
BBX 3 3 2 6
BITMAP
60
60
C0
ENDCHAR
STARTCHAR 201A
ENCODING 130
SWIDTH 504 0
DWIDTH 7 0
BBX 3 3 2 -2
BITMAP
60
60
C0
ENDCHAR
STARTCHAR 201C
ENCODING 147
SWIDTH 504 0
DWIDTH 7 0
BBX 5 3 1 6
BITMAP
C8
90
D8
ENDCHAR
STARTCHAR 201D
ENCODING 148
SWIDTH 504 0
DWIDTH 7 0
BBX 5 3 1 6
BITMAP
D8
48
98
ENDCHAR
STARTCHAR 201E
ENCODING 132
SWIDTH 504 0
DWIDTH 7 0
BBX 5 3 1 -2
BITMAP
D8
48
98
ENDCHAR
STARTCHAR 2020
ENCODING 134
SWIDTH 504 0
DWIDTH 7 0
BBX 5 11 1 -2
BITMAP
20
20
20
F8
20
20
20
20
20
20
20
ENDCHAR
STARTCHAR 2021
ENCODING 135
SWIDTH 504 0
DWIDTH 7 0
BBX 5 11 1 -2
BITMAP
20
20
20
F8
20
20
20
F8
20
20
20
ENDCHAR
STARTCHAR 2022
ENCODING 149
SWIDTH 504 0
DWIDTH 7 0
BBX 3 4 2 2
BITMAP
E0
E0
E0
E0
ENDCHAR
STARTCHAR 2026
ENCODING 133
SWIDTH 504 0
DWIDTH 7 0
BBX 7 1 0 0
BITMAP
D6
ENDCHAR
STARTCHAR 2030
ENCODING 137
SWIDTH 504 0
DWIDTH 7 0
BBX 7 9 0 0
BITMAP
40
A2
AC
50
60
B4
3A
3A
34
ENDCHAR
STARTCHAR 2039
ENCODING 139
SWIDTH 504 0
DWIDTH 7 0
BBX 3 5 2 1
BITMAP
20
40
80
40
20
ENDCHAR
STARTCHAR 203A
ENCODING 155
SWIDTH 504 0
DWIDTH 7 0
BBX 3 5 2 1
BITMAP
80
40
20
40
80
ENDCHAR
STARTCHAR 20AC
ENCODING 128
SWIDTH 504 0
DWIDTH 7 0
BBX 6 9 0 0
BITMAP
1C
20
20
F8
60
F8
20
20
1C
ENDCHAR
STARTCHAR 2122
ENCODING 153
SWIDTH 504 0
DWIDTH 7 0
BBX 7 4 0 5
BITMAP
F4
5C
5A
52
ENDCHAR
ENDFONT
