STARTFONT 2.1
COMMENT
COMMENT Converted from OpenType font "UbuntuMono-Regular.ttf" by "otf2bdf 3.0".
COMMENT
FONT -FreeType-ubuntu mono cp1252-Medium-R-Normal--33-240-100-100-P-123-ISO10646-1
SIZE 24 100 100
FONTBOUNDINGBOX 17 34 0 -6
STARTPROPERTIES 19
FOUNDRY "FreeType"
FAMILY_NAME "ubuntu mono cp1252"
WEIGHT_NAME "Medium"
SLANT "R"
SETWIDTH_NAME "Normal"
ADD_STYLE_NAME ""
PIXEL_SIZE 33
POINT_SIZE 240
RESOLUTION_X 100
RESOLUTION_Y 100
SPACING "P"
AVERAGE_WIDTH 123
CHARSET_REGISTRY "ISO10646"
CHARSET_ENCODING "1"
FONT_ASCENT 27
FONT_DESCENT 5
COPYRIGHT "Copyright 2011 Canonical Ltd.  Licensed under the Ubuntu Font Licence 1.0"
_OTF_FONTFILE "UbuntuMono-Regular.ttf"
_OTF_PSNAME "UbuntuMono-Regular"
ENDPROPERTIES
CHARS 223
STARTCHAR 0000
ENCODING 157
SWIDTH 510 0
DWIDTH 17 0
BBX 0 0 0 0
BITMAP
ENDCHAR
STARTCHAR 0008
ENCODING 8
SWIDTH 510 0
DWIDTH 17 0
BBX 0 0 0 0
BITMAP
ENDCHAR
STARTCHAR 0009
ENCODING 9
SWIDTH 510 0
DWIDTH 17 0
BBX 0 0 0 0
BITMAP
ENDCHAR
STARTCHAR 000D
ENCODING 13
SWIDTH 510 0
DWIDTH 17 0
BBX 0 0 0 0
BITMAP
ENDCHAR
STARTCHAR 001D
ENCODING 29
SWIDTH 510 0
DWIDTH 17 0
BBX 0 0 0 0
BITMAP
ENDCHAR
STARTCHAR 0020
ENCODING 32
SWIDTH 510 0
DWIDTH 17 0
BBX 0 0 0 0
BITMAP
ENDCHAR
STARTCHAR 0021
ENCODING 33
SWIDTH 510 0
DWIDTH 17 0
BBX 4 20 6 0
BITMAP
70
70
70
70
70
70
70
70
70
70
60
60
60
00
00
00
70
F0
F0
70
ENDCHAR
STARTCHAR 0022
ENCODING 34
SWIDTH 510 0
DWIDTH 17 0
BBX 8 8 4 14
BITMAP
E3
E3
E3
E3
E3
E3
43
43
ENDCHAR
STARTCHAR 0023
ENCODING 35
SWIDTH 510 0
DWIDTH 17 0
BBX 15 20 1 0
BITMAP
0618
0618
0E38
0E38
0C38
FFFE
FFFE
FFFE
1C70
1C70
1870
1860
1860
FFFE
FFFE
FFFE
30C0
30C0
71C0
71C0
ENDCHAR
STARTCHAR 0024
ENCODING 36
SWIDTH 510 0
DWIDTH 17 0
BBX 13 26 2 -3
BITMAP
0700
0700
0700
1FC0
3FF0
7FE0
F020
E000
E000
F000
7C00
7F80
1FE0
07F0
00F0
0078
0038
0038
C070
FFF0
FFE0
3F80
0700
0700
0700
0700
ENDCHAR
STARTCHAR 0025
ENCODING 37
SWIDTH 510 0
DWIDTH 17 0
BBX 15 20 1 0
BITMAP
780C
FC1C
CC18
C630
C630
C660
C6E0
CCC0
FD80
7B80
0338
067C
06CE
0CC6
1CC6
18C6
30C6
70CE
607C
C038
ENDCHAR
STARTCHAR 0026
ENCODING 38
SWIDTH 510 0
DWIDTH 17 0
BBX 14 20 1 0
BITMAP
0F80
1FC0
3FE0
38E0
70E0
30E0
30C0
3B80
1F00
1E18
3F18
7398
E1F8
E0F0
E070
E070
F1F8
7FDC
7F9C
1F0C
ENDCHAR
STARTCHAR 0027
ENCODING 39
SWIDTH 510 0
DWIDTH 17 0
BBX 3 9 7 13
BITMAP
E0
E0
E0
E0
E0
C0
C0
C0
C0
ENDCHAR
STARTCHAR 0028
ENCODING 40
SWIDTH 510 0
DWIDTH 17 0
BBX 9 29 4 -6
BITMAP
0100
0780
0F00
0E00
1C00
3800
3800
7000
7000
E000
E000
E000
C000
C000
C000
C000
C000
E000
E000
E000
7000
7000
3800
3800
1C00
0E00
0F00
0700
0100
ENDCHAR
STARTCHAR 0029
ENCODING 41
SWIDTH 510 0
DWIDTH 17 0
BBX 9 29 4 -6
BITMAP
4000
E000
F000
7800
3C00
1C00
0E00
0E00
0700
0700
0300
0300
0380
0380
0380
0380
0380
0300
0300
0700
0700
0E00
0E00
1C00
3C00
7800
F000
E000
4000
ENDCHAR
STARTCHAR 002A
ENCODING 42
SWIDTH 510 0
DWIDTH 17 0
BBX 12 12 2 8
BITMAP
0700
0700
0700
4610
F6F0
FFF0
3FE0
0F00
1D80
39C0
78E0
10C0
ENDCHAR
STARTCHAR 002B
ENCODING 43
SWIDTH 510 0
DWIDTH 17 0
BBX 13 14 2 2
BITMAP
0600
0600
0600
0600
0600
0600
FFF8
FFF8
0600
0600
0600
0600
0600
0600
ENDCHAR
STARTCHAR 002C
ENCODING 44
SWIDTH 510 0
DWIDTH 17 0
BBX 7 8 5 -4
BITMAP
1C
3C
3E
3C
1C
38
F0
E0
ENDCHAR
STARTCHAR 002D
ENCODING 45
SWIDTH 510 0
DWIDTH 17 0
BBX 7 3 5 7
BITMAP
FE
FE
FE
ENDCHAR
STARTCHAR 002E
ENCODING 46
SWIDTH 510 0
DWIDTH 17 0
BBX 5 4 6 0
BITMAP
70
F8
F8
70
ENDCHAR
STARTCHAR 002F
ENCODING 47
SWIDTH 510 0
DWIDTH 17 0
BBX 12 28 2 -5
BITMAP
0070
0070
0060
00E0
00E0
00C0
01C0
01C0
0180
0380
0380
0300
0700
0700
0700
0E00
0E00
0E00
1C00
1C00
1C00
3800
3800
3800
7000
7000
7000
E000
ENDCHAR
STARTCHAR 0030
ENCODING 48
SWIDTH 510 0
DWIDTH 17 0
BBX 13 20 2 0
BITMAP
0F80
3FC0
7FE0
70F0
F070
E030
E038
C638
CF38
CF38
C738
C038
C038
E038
E030
E070
70F0
7FE0
3FC0
0F80
ENDCHAR
STARTCHAR 0031
ENCODING 49
SWIDTH 510 0
DWIDTH 17 0
BBX 11 20 3 0
BITMAP
0700
0F00
1F00
7F00
F700
C700
0700
0700
0700
0700
0700
0700
0700
0700
0700
0700
0700
FFE0
FFE0
FFE0
ENDCHAR
STARTCHAR 0032
ENCODING 50
SWIDTH 510 0
DWIDTH 17 0
BBX 13 20 2 0
BITMAP
1F80
7FC0
FFE0
E0F0
4070
0070
0070
0060
00E0
01C0
0380
0700
0E00
1C00
3800
3000
6000
7FF8
FFF8
FFF8
ENDCHAR
STARTCHAR 0033
ENCODING 51
SWIDTH 510 0
DWIDTH 17 0
BBX 13 20 2 0
BITMAP
1F80
7FC0
7FE0
60E0
0070
0070
0060
01E0
0FC0
0FC0
0FE0
00F0
0070
0038
0038
0070
C0F0
FFF0
FFE0
3F80
ENDCHAR
STARTCHAR 0034
ENCODING 52
SWIDTH 510 0
DWIDTH 17 0
BBX 14 20 1 0
BITMAP
0070
00F0
01F0
03F0
0770
0E70
0C70
1C70
3870
3070
7070
6070
FFFC
FFFC
FFFC
0070
0070
0070
0070
0070
ENDCHAR
STARTCHAR 0035
ENCODING 53
SWIDTH 510 0
DWIDTH 17 0
BBX 13 20 2 0
BITMAP
3FF0
3FF0
3FF0
3800
3000
3000
3000
3F00
3FC0
7FE0
01F0
0070
0030
0038
0038
0070
40F0
FFF0
FFE0
3F80
ENDCHAR
STARTCHAR 0036
ENCODING 54
SWIDTH 510 0
DWIDTH 17 0
BBX 13 20 2 0
BITMAP
00E0
07F0
0FF0
3F00
3800
7000
6000
EF80
FFE0
FFF0
E070
E038
E038
E038
E038
E078
70F0
7FF0
3FE0
0F80
ENDCHAR
STARTCHAR 0037
ENCODING 55
SWIDTH 510 0
DWIDTH 17 0
BBX 13 20 2 0
BITMAP
FFF8
FFF8
FFF8
0038
0070
00E0
00C0
01C0
0380
0380
0300
0700
0700
0E00
0E00
0E00
0C00
1C00
1C00
1C00
ENDCHAR
STARTCHAR 0038
ENCODING 56
SWIDTH 510 0
DWIDTH 17 0
BBX 13 20 2 0
BITMAP
0F80
3FE0
7FF0
F0F0
E070
E030
E070
F060
7FE0
3FC0
3FE0
71F0
E078
E038
C038
E038
F070
FFF0
7FE0
1FC0
ENDCHAR
STARTCHAR 0039
ENCODING 57
SWIDTH 510 0
DWIDTH 17 0
BBX 13 20 2 0
BITMAP
1F80
3FC0
7FE0
F0F0
E070
E030
C038
E038
E038
F078
7FF8
7FF0
1FB0
0070
0070
01E0
07C0
7F80
7F00
7800
ENDCHAR
STARTCHAR 003A
ENCODING 58
SWIDTH 510 0
DWIDTH 17 0
BBX 5 15 6 0
BITMAP
70
F8
F8
70
00
00
00
00
00
00
00
70
F8
F8
70
ENDCHAR
STARTCHAR 003B
ENCODING 59
SWIDTH 510 0
DWIDTH 17 0
BBX 7 19 4 -4
BITMAP
1C
3E
3E
1C
00
00
00
00
00
00
00
1C
3E
3E
3E
0C
3C
F8
E0
ENDCHAR
STARTCHAR 003C
ENCODING 60
SWIDTH 510 0
DWIDTH 17 0
BBX 13 13 2 2
BITMAP
0018
0078
03F0
0FC0
3E00
F800
E000
F800
3E00
0FC0
03F0
0078
0018
ENDCHAR
STARTCHAR 003D
ENCODING 61
SWIDTH 510 0
DWIDTH 17 0
BBX 13 8 2 5
BITMAP
FFF8
FFF8
0000
0000
0000
0000
FFF8
FFF8
ENDCHAR
STARTCHAR 003E
ENCODING 62
SWIDTH 510 0
DWIDTH 17 0
BBX 13 13 2 2
BITMAP
C000
F000
7C00
1F80
07E0
00F8
0038
00F8
07E0
1F80
7C00
F000
C000
ENDCHAR
STARTCHAR 003F
ENCODING 63
SWIDTH 510 0
DWIDTH 17 0
BBX 11 20 3 0
BITMAP
3F00
FF80
FFC0
41C0
00E0
00C0
01C0
0180
0300
0600
0C00
1C00
1800
0000
0000
0000
1C00
3E00
3E00
1C00
ENDCHAR
STARTCHAR 0040
ENCODING 64
SWIDTH 510 0
DWIDTH 17 0
BBX 14 24 1 -4
BITMAP
03E0
0FF8
1FF8
3C3C
381C
700C
700C
60FC
63FC
E3FC
E78C
E70C
E70C
E78C
E3FC
63FC
70FC
7000
3800
3C00
1E00
0FF8
07F8
01F0
ENDCHAR
STARTCHAR 0041
ENCODING 65
SWIDTH 510 0
DWIDTH 17 0
BBX 16 20 0 0
BITMAP
03C0
03E0
03E0
0760
0670
0670
0E30
0C38
0C38
1C18
1C1C
181C
381C
3FFC
3FFE
7FFE
700E
7007
7007
E007
ENDCHAR
STARTCHAR 0042
ENCODING 66
SWIDTH 510 0
DWIDTH 17 0
BBX 13 20 2 0
BITMAP
FF80
FFC0
FFE0
C0F0
C070
C070
C070
C0E0
FFC0
FFC0
FFE0
C0F0
C038
C038
C038
C038
C0F0
FFF0
FFE0
FF80
ENDCHAR
STARTCHAR 0043
ENCODING 67
SWIDTH 510 0
DWIDTH 17 0
BBX 13 20 2 0
BITMAP
07E0
1FF8
3FF8
7C10
7000
E000
E000
E000
C000
C000
C000
C000
E000
E000
E000
7000
7C18
3FF8
1FF8
07E0
ENDCHAR
STARTCHAR 0044
ENCODING 68
SWIDTH 510 0
DWIDTH 17 0
BBX 13 20 2 0
BITMAP
FE00
FFC0
FFE0
C1F0
C070
C078
C038
C038
C038
C038
C038
C038
C038
C038
C078
C070
C1F0
FFE0
FFC0
FF00
ENDCHAR
STARTCHAR 0045
ENCODING 69
SWIDTH 510 0
DWIDTH 17 0
BBX 12 20 3 0
BITMAP
FFE0
FFE0
FFE0
E000
E000
E000
E000
E000
FFC0
FFC0
FFC0
E000
E000
E000
E000
E000
E000
FFF0
FFF0
FFF0
ENDCHAR
STARTCHAR 0046
ENCODING 70
SWIDTH 510 0
DWIDTH 17 0
BBX 12 20 3 0
BITMAP
FFF0
FFF0
FFF0
E000
E000
E000
E000
E000
FFE0
FFE0
FFE0
E000
E000
E000
E000
E000
E000
E000
E000
E000
ENDCHAR
STARTCHAR 0047
ENCODING 71
SWIDTH 510 0
DWIDTH 17 0
BBX 13 20 2 0
BITMAP
07E0
1FF8
3FF8
7C10
7000
E000
E000
E000
C000
C000
C038
C038
E038
E038
E038
7038
7C38
3FF8
1FF8
07F0
ENDCHAR
STARTCHAR 0048
ENCODING 72
SWIDTH 510 0
DWIDTH 17 0
BBX 14 20 1 0
BITMAP
E01C
E01C
E01C
E01C
E01C
E01C
E01C
E01C
FFFC
FFFC
FFFC
E01C
E01C
E01C
E01C
E01C
E01C
E01C
E01C
E01C
ENDCHAR
STARTCHAR 0049
ENCODING 73
SWIDTH 510 0
DWIDTH 17 0
BBX 11 20 3 0
BITMAP
FFE0
FFE0
FFE0
0E00
0E00
0E00
0E00
0E00
0E00
0E00
0E00
0E00
0E00
0E00
0E00
0E00
0E00
FFE0
FFE0
FFE0
ENDCHAR
STARTCHAR 004A
ENCODING 74
SWIDTH 510 0
DWIDTH 17 0
BBX 12 20 2 0
BITMAP
3FF0
3FF0
3FF0
0070
0070
0070
0070
0070
0070
0070
0070
0070
0070
0070
0070
4070
E1E0
FFE0
FFC0
3F00
ENDCHAR
STARTCHAR 004B
ENCODING 75
SWIDTH 510 0
DWIDTH 17 0
BBX 14 20 2 0
BITMAP
E038
E070
E0F0
E0E0
E1C0
E380
E700
EF00
FE00
FC00
FE00
EF00
E780
E3C0
E1E0
E0F0
E070
E038
E038
E01C
ENDCHAR
STARTCHAR 004C
ENCODING 76
SWIDTH 510 0
DWIDTH 17 0
BBX 12 20 3 0
BITMAP
E000
E000
E000
E000
E000
E000
E000
E000
E000
E000
E000
E000
E000
E000
E000
E000
E000
FFF0
FFF0
FFF0
ENDCHAR
STARTCHAR 004D
ENCODING 77
SWIDTH 510 0
DWIDTH 17 0
BBX 14 20 1 0
BITMAP
7038
7838
7838
7878
7C7C
6C7C
6CCC
66CC
66CC
678C
638C
E38C
E00C
E00C
E00C
E00C
E00C
E00C
E00C
E00C
ENDCHAR
STARTCHAR 004E
ENCODING 78
SWIDTH 510 0
DWIDTH 17 0
BBX 13 20 2 0
BITMAP
E038
E038
F038
F838
F838
DC38
CC38
CE38
C638
C738
C338
C3B8
C1B8
C1B8
C1F8
C0F8
C0F8
C078
C078
C038
ENDCHAR
STARTCHAR 004F
ENCODING 79
SWIDTH 510 0
DWIDTH 17 0
BBX 15 20 1 0
BITMAP
07C0
1FF0
3FF8
7878
703C
F01C
E01C
E00C
E00E
E00E
E00E
E00E
E00C
E01C
E01C
703C
7878
3FF8
1FF0
07C0
ENDCHAR
STARTCHAR 0050
ENCODING 80
SWIDTH 510 0
DWIDTH 17 0
BBX 13 20 2 0
BITMAP
FF80
FFE0
FFF0
E070
E038
E038
E038
E038
E038
E0F0
FFF0
FFE0
FF80
E000
E000
E000
E000
E000
E000
E000
ENDCHAR
STARTCHAR 0051
ENCODING 81
SWIDTH 510 0
DWIDTH 17 0
BBX 15 25 1 -5
BITMAP
07C0
1FF0
3FF8
7878
703C
F01C
E01C
E00C
E00E
E00E
E00E
E00E
E00C
E01C
E01C
703C
7878
3FF8
1FF0
0FC0
0380
03E0
01FC
00F8
0018
ENDCHAR
STARTCHAR 0052
ENCODING 82
SWIDTH 510 0
DWIDTH 17 0
BBX 13 20 2 0
BITMAP
FF00
FFC0
FFE0
E0F0
E070
E070
E070
E070
E070
E0F0
FFE0
FFC0
FF80
E380
E1C0
E0E0
E0E0
E070
E030
E038
ENDCHAR
STARTCHAR 0053
ENCODING 83
SWIDTH 510 0
DWIDTH 17 0
BBX 13 20 2 0
BITMAP
0FC0
3FF0
7FF0
7020
E000
E000
E000
7800
7E00
3FC0
0FE0
01F0
0070
0038
0038
0038
C070
FFF0
FFE0
3F80
ENDCHAR
STARTCHAR 0054
ENCODING 84
SWIDTH 510 0
DWIDTH 17 0
BBX 14 20 1 0
BITMAP
FFFC
FFFC
FFFC
0380
0380
0380
0380
0380
0380
0380
0380
0380
0380
0380
0380
0380
0380
0380
0380
0380
ENDCHAR
STARTCHAR 0055
ENCODING 85
SWIDTH 510 0
DWIDTH 17 0
BBX 13 20 2 0
BITMAP
C038
C038
C038
C038
C038
C038
C038
C038
C038
C038
C038
C038
C038
C038
E038
E078
F0F0
7FF0
3FE0
1F80
ENDCHAR
STARTCHAR 0056
ENCODING 86
SWIDTH 510 0
DWIDTH 17 0
BBX 15 20 1 0
BITMAP
C00E
E00E
E00E
E01C
601C
701C
7018
7038
3838
3830
3870
1870
1C70
1CE0
0CE0
0EE0
0FC0
07C0
0780
0780
ENDCHAR
STARTCHAR 0057
ENCODING 87
SWIDTH 510 0
DWIDTH 17 0
BBX 14 20 1 0
BITMAP
E00C
E00C
E00C
E00C
E00C
E00C
E00C
E00C
E38C
678C
678C
66CC
6ECC
6CDC
6C7C
7C78
7878
7838
7838
7038
ENDCHAR
STARTCHAR 0058
ENCODING 88
SWIDTH 510 0
DWIDTH 17 0
BBX 14 20 1 0
BITMAP
E01C
701C
3838
3870
1C70
1CE0
0EE0
0FC0
0780
0380
0780
07C0
0FE0
1CE0
1C70
3870
3838
7038
701C
E01C
ENDCHAR
STARTCHAR 0059
ENCODING 89
SWIDTH 510 0
DWIDTH 17 0
BBX 15 20 1 0
BITMAP
E00E
E00C
E01C
701C
7038
3838
3870
1C70
1EE0
0FC0
07C0
0780
0380
0380
0380
0380
0380
0380
0380
0380
ENDCHAR
STARTCHAR 005A
ENCODING 90
SWIDTH 510 0
DWIDTH 17 0
BBX 13 20 2 0
BITMAP
FFF8
FFF8
FFF8
0070
00E0
00E0
01C0
0380
0300
0700
0E00
1C00
1C00
3800
3000
7000
E000
FFF8
FFF8
FFF8
ENDCHAR
STARTCHAR 005B
ENCODING 91
SWIDTH 510 0
DWIDTH 17 0
BBX 8 28 5 -5
BITMAP
FF
FF
C0
C0
C0
C0
C0
C0
C0
C0
C0
C0
C0
C0
C0
C0
C0
C0
C0
C0
C0
C0
C0
C0
C0
C0
FF
FF
ENDCHAR
STARTCHAR 005C
ENCODING 92
SWIDTH 510 0
DWIDTH 17 0
BBX 12 28 2 -5
BITMAP
E000
7000
7000
7000
3800
3800
3800
1800
1C00
1C00
0C00
0E00
0E00
0600
0700
0700
0300
0380
0380
0180
01C0
01C0
00C0
00E0
00E0
0060
0070
0070
ENDCHAR
STARTCHAR 005D
ENCODING 93
SWIDTH 510 0
DWIDTH 17 0
BBX 8 28 4 -5
BITMAP
FF
FF
07
07
07
07
07
07
07
07
07
07
07
07
07
07
07
07
07
07
07
07
07
07
07
07
FF
FF
ENDCHAR
STARTCHAR 005E
ENCODING 94
SWIDTH 510 0
DWIDTH 17 0
BBX 13 11 2 9
BITMAP
0700
0F00
0F80
1DC0
39C0
38E0
70E0
7070
E030
C038
C010
ENDCHAR
STARTCHAR 005F
ENCODING 95
SWIDTH 510 0
DWIDTH 17 0
BBX 16 2 0 -5
BITMAP
FFFF
FFFF
ENDCHAR
STARTCHAR 0060
ENCODING 96
SWIDTH 510 0
DWIDTH 17 0
BBX 5 6 6 17
BITMAP
40
C0
E0
70
38
10
ENDCHAR
STARTCHAR 0061
ENCODING 97
SWIDTH 510 0
DWIDTH 17 0
BBX 12 15 2 0
BITMAP
1F80
3FE0
3FF0
20F0
0070
0030
1FF0
7FF0
F030
E030
E030
F030
FFF0
7FF0
1FF0
ENDCHAR
STARTCHAR 0062
ENCODING 98
SWIDTH 510 0
DWIDTH 17 0
BBX 13 23 2 0
BITMAP
E000
E000
E000
E000
E000
E000
E000
E000
EF80
FFE0
FFF0
F0F0
E038
E038
E038
E038
E038
E038
E078
E0F0
FFF0
FFE0
7F80
ENDCHAR
STARTCHAR 0063
ENCODING 99
SWIDTH 510 0
DWIDTH 17 0
BBX 13 15 2 0
BITMAP
07F0
1FF8
7FF0
7810
F000
E000
E000
C000
C000
E000
F000
7818
7FF8
3FF8
0FF0
ENDCHAR
STARTCHAR 0064
ENCODING 100
SWIDTH 510 0
DWIDTH 17 0
BBX 13 23 1 0
BITMAP
0038
0038
0038
0038
0038
0038
0038
0038
0FF8
1FF8
3FF8
7878
7038
E038
E038
E038
E038
E038
7038
7838
3FF8
1FF8
07F0
ENDCHAR
STARTCHAR 0065
ENCODING 101
SWIDTH 510 0
DWIDTH 17 0
BBX 14 15 1 0
BITMAP
07C0
1FF0
3FF8
7838
701C
601C
FFFC
FFFC
E000
E000
7000
7C08
3FF8
1FF8
07F0
ENDCHAR
STARTCHAR 0066
ENCODING 102
SWIDTH 510 0
DWIDTH 17 0
BBX 14 23 2 0
BITMAP
03F0
07FC
0FFC
0E0C
1C00
1C00
1C00
1C00
FFF0
FFF0
FFF0
1C00
1C00
1C00
1C00
1C00
1C00
1C00
1C00
1C00
1C00
1C00
1C00
ENDCHAR
STARTCHAR 0067
ENCODING 103
SWIDTH 510 0
DWIDTH 17 0
BBX 13 20 1 -5
BITMAP
0FF0
1FF8
3FF8
7838
7038
E038
E038
E038
E038
7038
7838
7FF8
3FF8
0FF8
0038
0038
2078
7FF0
7FE0
3F80
ENDCHAR
STARTCHAR 0068
ENCODING 104
SWIDTH 510 0
DWIDTH 17 0
BBX 12 23 2 0
BITMAP
E000
E000
E000
E000
E000
E000
E000
E000
FF80
FFE0
FFE0
E0F0
E070
E070
E070
E030
E030
E030
E030
E030
E030
E030
E030
ENDCHAR
STARTCHAR 0069
ENCODING 105
SWIDTH 510 0
DWIDTH 17 0
BBX 13 21 2 0
BITMAP
1C00
1E00
1E00
1C00
0000
0000
FE00
FE00
FE00
0E00
0E00
0E00
0E00
0E00
0E00
0E00
0E00
0F08
07F8
07F8
03F0
ENDCHAR
STARTCHAR 006A
ENCODING 106
SWIDTH 510 0
DWIDTH 17 0
BBX 11 26 2 -5
BITMAP
01C0
03C0
03C0
01C0
0000
0000
3FE0
3FE0
3FE0
00E0
00E0
00E0
00E0
00E0
00E0
00E0
00E0
00E0
00E0
00E0
00E0
00E0
41C0
7FC0
FF80
3F00
ENDCHAR
STARTCHAR 006B
ENCODING 107
SWIDTH 510 0
DWIDTH 17 0
BBX 13 23 2 0
BITMAP
E000
E000
E000
E000
E000
E000
E000
E000
E038
E070
E1E0
E3C0
E780
EF00
FC00
FC00
EF00
E780
E1C0
E0E0
E070
E078
E038
ENDCHAR
STARTCHAR 006C
ENCODING 108
SWIDTH 510 0
DWIDTH 17 0
BBX 13 23 2 0
BITMAP
FE00
FE00
FE00
0E00
0E00
0E00
0E00
0E00
0E00
0E00
0E00
0E00
0E00
0E00
0E00
0E00
0E00
0E00
0E00
0F08
07F8
07F8
01F0
ENDCHAR
STARTCHAR 006D
ENCODING 109
SWIDTH 510 0
DWIDTH 17 0
BBX 14 15 1 0
BITMAP
7CF0
FFF8
FFFC
E39C
E38C
E38C
E38C
E38C
E38C
E00C
E00C
E00C
E00C
E00C
E00C
ENDCHAR
STARTCHAR 006E
ENCODING 110
SWIDTH 510 0
DWIDTH 17 0
BBX 12 15 2 0
BITMAP
7F80
FFE0
FFE0
E0F0
E070
E070
E070
E030
E030
E030
E030
E030
E030
E030
E030
ENDCHAR
STARTCHAR 006F
ENCODING 111
SWIDTH 510 0
DWIDTH 17 0
BBX 14 15 1 0
BITMAP
07C0
1FF0
3FF8
7878
703C
E01C
E01C
E01C
E01C
E01C
703C
7878
3FF8
1FF0
0FC0
ENDCHAR
STARTCHAR 0070
ENCODING 112
SWIDTH 510 0
DWIDTH 17 0
BBX 13 20 2 -5
BITMAP
7F80
FFE0
FFF0
E0F0
E078
E038
E038
E038
E038
E038
E038
F0F0
FFF0
FFE0
EF80
E000
E000
E000
E000
E000
ENDCHAR
STARTCHAR 0071
ENCODING 113
SWIDTH 510 0
DWIDTH 17 0
BBX 13 20 1 -5
BITMAP
07F0
1FF8
3FF8
7838
7038
E038
E038
E038
E038
E038
7038
7838
3FF8
1FF8
0FF8
0038
0038
0038
0038
0038
ENDCHAR
STARTCHAR 0072
ENCODING 114
SWIDTH 510 0
DWIDTH 17 0
BBX 10 15 4 0
BITMAP
3FC0
FFC0
FFC0
C000
C000
C000
C000
C000
C000
C000
C000
C000
C000
C000
C000
ENDCHAR
STARTCHAR 0073
ENCODING 115
SWIDTH 510 0
DWIDTH 17 0
BBX 12 15 2 0
BITMAP
1FE0
3FE0
7FE0
7020
E000
7800
7F00
3FC0
07F0
00F0
0070
4070
FFF0
FFE0
3FC0
ENDCHAR
STARTCHAR 0074
ENCODING 116
SWIDTH 510 0
DWIDTH 17 0
BBX 13 20 2 0
BITMAP
1C00
1C00
1C00
1C00
1C00
FFF0
FFF0
FFF0
1C00
1C00
1C00
1C00
1C00
1C00
1C00
1C00
1E08
0FF8
0FF8
03F0
ENDCHAR
STARTCHAR 0075
ENCODING 117
SWIDTH 510 0
DWIDTH 17 0
BBX 12 15 2 0
BITMAP
E070
E070
E070
E070
E070
E070
E070
E070
E070
E070
F070
7870
7FF0
3FF0
1FE0
ENDCHAR
STARTCHAR 0076
ENCODING 118
SWIDTH 510 0
DWIDTH 17 0
BBX 14 15 1 0
BITMAP
E00C
E01C
701C
7018
7038
3838
3870
1870
1C60
1CE0
0EE0
0FC0
07C0
0780
0380
ENDCHAR
STARTCHAR 0077
ENCODING 119
SWIDTH 510 0
DWIDTH 17 0
BBX 15 15 1 0
BITMAP
C00E
C00E
C00E
E00C
E38C
E38C
E78C
67DC
67DC
6EDC
6CF8
7C78
7878
3838
3030
ENDCHAR
STARTCHAR 0078
ENCODING 120
SWIDTH 510 0
DWIDTH 17 0
BBX 14 15 1 0
BITMAP
701C
7038
3870
1C60
0EE0
0FC0
0780
0380
07C0
0EE0
1C60
3870
3038
701C
E01C
ENDCHAR
STARTCHAR 0079
ENCODING 121
SWIDTH 510 0
DWIDTH 17 0
BBX 14 20 1 -5
BITMAP
701C
701C
701C
3838
3838
3838
1C30
1C70
0C70
0E60
0EE0
07E0
07C0
03C0
0180
0380
0700
7F00
FE00
F800
ENDCHAR
STARTCHAR 007A
ENCODING 122
SWIDTH 510 0
DWIDTH 17 0
BBX 12 15 2 0
BITMAP
7FF0
7FF0
7FF0
00E0
01C0
0380
0700
0E00
1C00
1C00
3800
7000
FFF0
FFF0
FFF0
ENDCHAR
STARTCHAR 007B
ENCODING 123
SWIDTH 510 0
DWIDTH 17 0
BBX 11 28 3 -5
BITMAP
07E0
0FE0
0E00
1C00
1C00
1C00
1C00
1C00
1C00
1C00
1C00
1C00
3800
F000
F000
3800
1800
1C00
1C00
1C00
1C00
1C00
1C00
1C00
1C00
0E00
0FE0
07E0
ENDCHAR
STARTCHAR 007C
ENCODING 124
SWIDTH 510 0
DWIDTH 17 0
BBX 3 28 7 -5
BITMAP
E0
E0
E0
E0
E0
E0
E0
E0
E0
E0
E0
E0
E0
E0
E0
E0
E0
E0
E0
E0
E0
E0
E0
E0
E0
E0
E0
E0
ENDCHAR
STARTCHAR 007D
ENCODING 125
SWIDTH 510 0
DWIDTH 17 0
BBX 12 28 2 -5
BITMAP
FC00
FE00
0700
0300
0300
0300
0300
0300
0300
0300
0300
0380
0380
01F0
01F0
0380
0380
0300
0300
0300
0300
0300
0300
0300
0300
0700
FE00
FC00
ENDCHAR
STARTCHAR 007E
ENCODING 126
SWIDTH 510 0
DWIDTH 17 0
BBX 14 6 1 6
BITMAP
1C0C
3F0C
7F9C
63FC
E1F8
40F0
ENDCHAR
STARTCHAR 00A0
ENCODING 160
SWIDTH 510 0
DWIDTH 17 0
BBX 0 0 0 0
BITMAP
ENDCHAR
STARTCHAR 00A1
ENCODING 161
SWIDTH 510 0
DWIDTH 17 0
BBX 4 20 6 -5
BITMAP
70
F0
F0
70
00
00
00
60
60
60
70
70
70
70
70
70
70
70
70
70
ENDCHAR
STARTCHAR 00A2
ENCODING 162
SWIDTH 510 0
DWIDTH 17 0
BBX 13 23 2 -3
BITMAP
0380
0380
0380
0380
07E0
3FF0
7FF0
7810
F000
E000
E000
C000
C000
E000
E000
7000
7818
3FF8
0FF0
0380
0380
0380
0380
ENDCHAR
STARTCHAR 00A3
ENCODING 163
SWIDTH 510 0
DWIDTH 17 0
BBX 14 20 1 0
BITMAP
03F0
07F8
0FF8
0E08
1C00
1C00
1C00
1C00
1C00
FFF0
FFF0
FFF0
1C00
1C00
1C00
1C00
1C00
1FFC
1FFC
3FFC
ENDCHAR
STARTCHAR 00A4
ENCODING 164
SWIDTH 510 0
DWIDTH 17 0
BBX 14 13 1 4
BITMAP
6008
F7DC
7FF8
3870
3038
3018
3018
3018
3038
3870
7FF8
F7DC
6008
ENDCHAR
STARTCHAR 00A5
ENCODING 165
SWIDTH 510 0
DWIDTH 17 0
BBX 15 20 1 0
BITMAP
E00E
E01C
701C
7038
3838
3870
1C60
0CE0
0EC0
07C0
7FF8
7FF8
7FF8
0380
0380
7FF8
7FF8
7FF8
0380
0380
ENDCHAR
STARTCHAR 00A6
ENCODING 166
SWIDTH 510 0
DWIDTH 17 0
BBX 3 28 7 -5
BITMAP
E0
E0
E0
E0
E0
E0
E0
E0
E0
E0
E0
00
00
00
00
00
00
E0
E0
E0
E0
E0
E0
E0
E0
E0
E0
E0
ENDCHAR
STARTCHAR 00A7
ENCODING 167
SWIDTH 510 0
DWIDTH 17 0
BBX 12 24 2 -3
BITMAP
0FC0
3FF0
3FE0
7820
7000
7000
3E00
3F80
3FE0
73F0
6070
E030
E030
F070
7EE0
3FC0
0FE0
01E0
0070
0070
40E0
7FE0
FFC0
3F80
ENDCHAR
STARTCHAR 00A8
ENCODING 168
SWIDTH 510 0
DWIDTH 17 0
BBX 9 3 4 18
BITMAP
E300
E780
E300
ENDCHAR
STARTCHAR 00A9
ENCODING 169
SWIDTH 510 0
DWIDTH 17 0
BBX 14 16 1 0
BITMAP
07C0
1FF0
3878
7018
63CC
CF8C
CC0C
CC0C
CC0C
CC0C
CF8C
67CC
7018
3878
1FF0
07C0
ENDCHAR
STARTCHAR 00AA
ENCODING 170
SWIDTH 510 0
DWIDTH 17 0
BBX 9 10 4 10
BITMAP
7E00
7F00
0380
0180
3F80
FF80
C180
C180
FF80
7F80
ENDCHAR
STARTCHAR 00AB
ENCODING 171
SWIDTH 510 0
DWIDTH 17 0
BBX 11 11 2 3
BITMAP
0820
1860
38E0
71C0
7180
E380
7180
71C0
38E0
1860
0820
ENDCHAR
STARTCHAR 00AC
ENCODING 172
SWIDTH 510 0
DWIDTH 17 0
BBX 14 10 1 1
BITMAP
FFFC
FFFC
001C
001C
001C
001C
001C
001C
001C
001C
ENDCHAR
STARTCHAR 00AD
ENCODING 173
SWIDTH 510 0
DWIDTH 17 0
BBX 7 3 5 7
BITMAP
FE
FE
FE
ENDCHAR
STARTCHAR 00AE
ENCODING 174
SWIDTH 510 0
DWIDTH 17 0
BBX 14 16 1 0
BITMAP
07C0
1FF0
3878
7018
6F8C
CFCC
CCCC
CCCC
CFCC
CF8C
CCCC
6C4C
7018
3878
1FF0
07C0
ENDCHAR
STARTCHAR 00AF
ENCODING 175
SWIDTH 510 0
DWIDTH 17 0
BBX 8 2 4 19
BITMAP
FF
FF
ENDCHAR
STARTCHAR 00B0
ENCODING 176
SWIDTH 510 0
DWIDTH 17 0
BBX 8 8 4 15
BITMAP
3C
7F
E3
C3
C3
E3
7F
3C
ENDCHAR
STARTCHAR 00B1
ENCODING 177
SWIDTH 510 0
DWIDTH 17 0
BBX 13 18 2 0
BITMAP
0600
0600
0600
0600
0600
0600
FFF8
FFF8
0600
0600
0600
0600
0600
0600
0000
0000
FFF8
FFF8
ENDCHAR
STARTCHAR 00B2
ENCODING 178
SWIDTH 510 0
DWIDTH 17 0
BBX 8 11 4 9
BITMAP
3E
FF
47
03
06
0E
1C
30
60
7F
7F
ENDCHAR
STARTCHAR 00B3
ENCODING 179
SWIDTH 510 0
DWIDTH 17 0
BBX 8 11 4 9
BITMAP
3C
FE
43
07
3E
3E
07
03
83
FF
7C
ENDCHAR
STARTCHAR 00B4
ENCODING 180
SWIDTH 510 0
DWIDTH 17 0
BBX 5 6 6 17
BITMAP
10
38
70
60
C0
C0
ENDCHAR
STARTCHAR 00B5
ENCODING 181
SWIDTH 510 0
DWIDTH 17 0
BBX 12 20 2 -5
BITMAP
E070
E070
E070
E070
E070
E070
E070
E070
E070
E070
F070
F070
FFF0
FFF0
EFE0
E000
E000
E000
E000
E000
ENDCHAR
STARTCHAR 00B6
ENCODING 182
SWIDTH 510 0
DWIDTH 17 0
BBX 14 26 1 -5
BITMAP
07FC
1FFC
7F9C
7F9C
FF9C
FF9C
FF9C
FF9C
FF9C
FF9C
7F9C
3F9C
0F9C
039C
039C
039C
039C
039C
039C
039C
039C
039C
039C
039C
039C
039C
ENDCHAR
STARTCHAR 00B7
ENCODING 183
SWIDTH 510 0
DWIDTH 17 0
BBX 5 4 6 6
BITMAP
70
F8
F8
70
ENDCHAR
STARTCHAR 00B8
ENCODING 184
SWIDTH 510 0
DWIDTH 17 0
BBX 6 7 5 -6
BITMAP
18
30
38
18
1C
F8
F8
ENDCHAR
STARTCHAR 00B9
ENCODING 185
SWIDTH 510 0
DWIDTH 17 0
BBX 9 11 4 9
BITMAP
0C00
3C00
FC00
4C00
0C00
0C00
0C00
0C00
0C00
FF80
FF80
ENDCHAR
STARTCHAR 00BA
ENCODING 186
SWIDTH 510 0
DWIDTH 17 0
BBX 11 10 3 10
BITMAP
1F00
7F80
61C0
C0C0
C0E0
C0E0
C0C0
61C0
7F80
1F00
ENDCHAR
STARTCHAR 00BB
ENCODING 187
SWIDTH 510 0
DWIDTH 17 0
BBX 11 11 3 3
BITMAP
4100
E380
6180
71C0
38E0
1860
38E0
71C0
6180
E380
C300
ENDCHAR
STARTCHAR 00BC
ENCODING 188
SWIDTH 510 0
DWIDTH 17 0
BBX 15 21 1 0
BITMAP
3000
700C
F01C
B018
3030
3030
3060
30E0
30C0
0180
0380
0300
0600
063C
0C3C
1C6C
18CC
30CC
71FE
61FE
C00C
ENDCHAR
STARTCHAR 00BD
ENCODING 189
SWIDTH 510 0
DWIDTH 17 0
BBX 15 21 1 0
BITMAP
1800
780C
F818
9838
1830
1870
1860
18C0
19C0
0180
0300
0700
0600
0E3C
0CFC
1846
380C
3018
6030
E07E
C0FE
ENDCHAR
STARTCHAR 00BE
ENCODING 190
SWIDTH 510 0
DWIDTH 17 0
BBX 15 21 1 0
BITMAP
F800
FC0E
0C0C
7818
7C38
0C30
0C60
FCE0
F8C0
01C0
0180
0300
0700
063C
0C3C
1C6C
18CC
38CC
31FE
61FE
E00C
ENDCHAR
STARTCHAR 00BF
ENCODING 191
SWIDTH 510 0
DWIDTH 17 0
BBX 10 21 3 -6
BITMAP
0700
0F00
0F00
0700
0000
0000
0000
0700
0600
0E00
0C00
1800
3000
6000
E000
E000
E000
F040
7FC0
7FC0
1F80
ENDCHAR
STARTCHAR 00C0
ENCODING 192
SWIDTH 510 0
DWIDTH 17 0
BBX 16 28 0 0
BITMAP
0100
0300
0380
01C0
00E0
0040
0000
0000
03C0
03E0
03E0
0760
0670
0670
0E30
0C38
0C38
1C18
1C1C
181C
381C
3FFC
3FFE
7FFE
700E
7007
7007
E007
ENDCHAR
STARTCHAR 00C1
ENCODING 193
SWIDTH 510 0
DWIDTH 17 0
BBX 16 28 0 0
BITMAP
0040
00E0
01C0
0180
0300
0200
0000
0000
03C0
03E0
03E0
0760
0670
0670
0E30
0C38
0C38
1C18
1C1C
181C
381C
3FFC
3FFE
7FFE
700E
7007
7007
E007
ENDCHAR
STARTCHAR 00C2
ENCODING 194
SWIDTH 510 0
DWIDTH 17 0
BBX 16 28 0 0
BITMAP
0080
01C0
03C0
0760
0E30
0410
0000
0000
03C0
03E0
03E0
0760
0670
0670
0E30
0C38
0C38
1C18
1C1C
181C
381C
3FFC
3FFE
7FFE
700E
7007
7007
E007
ENDCHAR
STARTCHAR 00C3
ENCODING 195
SWIDTH 510 0
DWIDTH 17 0
BBX 16 26 0 0
BITMAP
0718
0FF0
0CE0
0000
0000
0000
03C0
03E0
03E0
0760
0670
0670
0E30
0C38
0C38
1C18
1C1C
181C
381C
3FFC
3FFE
7FFE
700E
7007
7007
E007
ENDCHAR
STARTCHAR 00C4
ENCODING 196
SWIDTH 510 0
DWIDTH 17 0
BBX 16 26 0 0
BITMAP
0E30
0E78
0E30
0000
0000
0000
03C0
03E0
03E0
0760
0670
0670
0E30
0C38
0C38
1C18
1C1C
181C
381C
3FFC
3FFE
7FFE
700E
7007
7007
E007
ENDCHAR
STARTCHAR 00C5
ENCODING 197
SWIDTH 510 0
DWIDTH 17 0
BBX 16 24 0 0
BITMAP
03C0
0660
0620
0660
03C0
03E0
03E0
0760
0670
0670
0E30
0C38
0C38
1C18
181C
181C
3FFC
3FFC
3FFE
700E
700E
7007
6007
E007
ENDCHAR
STARTCHAR 00C6
ENCODING 198
SWIDTH 510 0
DWIDTH 17 0
BBX 15 20 1 0
BITMAP
03FC
03FC
07FC
06C0
06C0
0CC0
0CC0
1CC0
18FC
18FC
18FC
38C0
3FC0
3FC0
7FC0
70C0
60C0
60FE
E0FE
E0FE
ENDCHAR
STARTCHAR 00C7
ENCODING 199
SWIDTH 510 0
DWIDTH 17 0
BBX 13 26 2 -6
BITMAP
07E0
1FF8
3FF8
7C10
7000
E000
E000
E000
C000
C000
C000
C000
E000
E000
E000
7000
7C18
3FF8
1FF8
07E0
0180
0380
01C0
00C0
07C0
0780
ENDCHAR
STARTCHAR 00C8
ENCODING 200
SWIDTH 510 0
DWIDTH 17 0
BBX 12 28 3 0
BITMAP
0800
1C00
0E00
0600
0700
0300
0000
0000
FFE0
FFE0
FFE0
E000
E000
E000
E000
E000
FFC0
FFC0
FFC0
E000
E000
E000
E000
E000
E000
FFF0
FFF0
FFF0
ENDCHAR
STARTCHAR 00C9
ENCODING 201
SWIDTH 510 0
DWIDTH 17 0
BBX 12 28 3 0
BITMAP
0100
0380
0700
0E00
0C00
0800
0000
0000
FFE0
FFE0
FFE0
E000
E000
E000
E000
E000
FFC0
FFC0
FFC0
E000
E000
E000
E000
E000
E000
FFF0
FFF0
FFF0
ENDCHAR
STARTCHAR 00CA
ENCODING 202
SWIDTH 510 0
DWIDTH 17 0
BBX 12 28 3 0
BITMAP
0400
0600
0F00
1B80
31C0
2080
0000
0000
FFE0
FFE0
FFE0
E000
E000
E000
E000
E000
FFC0
FFC0
FFC0
E000
E000
E000
E000
E000
E000
FFF0
FFF0
FFF0
ENDCHAR
STARTCHAR 00CB
ENCODING 203
SWIDTH 510 0
DWIDTH 17 0
BBX 12 26 3 0
BITMAP
31C0
79C0
31C0
0000
0000
0000
FFE0
FFE0
FFE0
E000
E000
E000
E000
E000
FFC0
FFC0
FFC0
E000
E000
E000
E000
E000
E000
FFF0
FFF0
FFF0
ENDCHAR
STARTCHAR 00CC
ENCODING 204
SWIDTH 510 0
DWIDTH 17 0
BBX 11 28 3 0
BITMAP
0800
1800
1C00
0E00
0700
0200
0000
0000
FFE0
FFE0
FFE0
0E00
0E00
0E00
0E00
0E00
0E00
0E00
0E00
0E00
0E00
0E00
0E00
0E00
0E00
FFE0
FFE0
FFE0
ENDCHAR
STARTCHAR 00CD
ENCODING 205
SWIDTH 510 0
DWIDTH 17 0
BBX 11 28 3 0
BITMAP
0200
0300
0700
0E00
1C00
0800
0000
0000
FFE0
FFE0
FFE0
0E00
0E00
0E00
0E00
0E00
0E00
0E00
0E00
0E00
0E00
0E00
0E00
0E00
0E00
FFE0
FFE0
FFE0
ENDCHAR
STARTCHAR 00CE
ENCODING 206
SWIDTH 510 0
DWIDTH 17 0
BBX 11 28 3 0
BITMAP
0400
0E00
1E00
3B00
7180
2080
0000
0000
FFE0
FFE0
FFE0
0E00
0E00
0E00
0E00
0E00
0E00
0E00
0E00
0E00
0E00
0E00
0E00
0E00
0E00
FFE0
FFE0
FFE0
ENDCHAR
STARTCHAR 00CF
ENCODING 207
SWIDTH 510 0
DWIDTH 17 0
BBX 11 26 3 0
BITMAP
7180
73C0
7180
0000
0000
0000
FFE0
FFE0
FFE0
0E00
0E00
0E00
0E00
0E00
0E00
0E00
0E00
0E00
0E00
0E00
0E00
0E00
0E00
FFE0
FFE0
FFE0
ENDCHAR
STARTCHAR 00D0
ENCODING 208
SWIDTH 510 0
DWIDTH 17 0
BBX 14 20 1 0
BITMAP
7F80
7FE0
7FF0
70F8
7038
703C
701C
701C
FE1C
FE1C
FE1C
701C
701C
701C
703C
7038
70F8
7FF0
7FE0
7F80
ENDCHAR
STARTCHAR 00D1
ENCODING 209
SWIDTH 510 0
DWIDTH 17 0
BBX 13 26 2 0
BITMAP
1C60
3FC0
3380
0000
0000
0000
E038
E038
F038
F838
F838
DC38
CC38
CE38
C638
C738
C338
C3B8
C1B8
C1B8
C1F8
C0F8
C0F8
C078
C078
C038
ENDCHAR
STARTCHAR 00D2
ENCODING 210
SWIDTH 510 0
DWIDTH 17 0
BBX 15 28 1 0
BITMAP
0200
0600
0700
0380
01C0
0080
0000
0000
07C0
1FF0
3FF8
7878
703C
F01C
E01C
E00C
E00E
E00E
E00E
E00E
E00C
E01C
E01C
703C
7878
3FF8
1FF0
07C0
ENDCHAR
STARTCHAR 00D3
ENCODING 211
SWIDTH 510 0
DWIDTH 17 0
BBX 15 28 1 0
BITMAP
0080
01C0
01C0
0380
0700
0200
0000
0000
07C0
1FF0
3FF8
7878
703C
F01C
E01C
E00C
E00E
E00E
E00E
E00E
E00C
E01C
E01C
703C
7878
3FF8
1FF0
07C0
ENDCHAR
STARTCHAR 00D4
ENCODING 212
SWIDTH 510 0
DWIDTH 17 0
BBX 15 28 1 0
BITMAP
0100
0380
0780
0EC0
1C60
0820
0000
0000
07C0
1FF0
3FF8
7878
703C
F01C
E01C
E00C
E00E
E00E
E00E
E00E
E00C
E01C
E01C
703C
7878
3FF8
1FF0
07C0
ENDCHAR
STARTCHAR 00D5
ENCODING 213
SWIDTH 510 0
DWIDTH 17 0
BBX 15 26 1 0
BITMAP
0E30
1FE0
19C0
0000
0000
0000
07C0
1FF0
3FF8
7878
703C
F01C
E01C
E00C
E00E
E00E
E00E
E00E
E00C
E01C
E01C
703C
7878
3FF8
1FF0
07C0
ENDCHAR
STARTCHAR 00D6
ENCODING 214
SWIDTH 510 0
DWIDTH 17 0
BBX 15 26 1 0
BITMAP
1C60
1CF0
1C60
0000
0000
0000
07C0
1FF0
3FF8
7878
703C
F01C
E01C
E00C
E00E
E00E
E00E
E00E
E00C
E01C
E01C
703C
7878
3FF8
1FF0
07C0
ENDCHAR
STARTCHAR 00D7
ENCODING 215
SWIDTH 510 0
DWIDTH 17 0
BBX 12 12 2 3
BITMAP
4020
E070
70E0
39C0
1F80
0F00
0F00
1F80
39C0
70E0
E070
4020
ENDCHAR
STARTCHAR 00D8
ENCODING 216
SWIDTH 510 0
DWIDTH 17 0
BBX 15 22 1 -1
BITMAP
0010
07F8
1FF0
3FF8
7878
70FC
70FC
E1CC
E1CC
E18E
E38E
E30E
E70E
E60C
EE1C
EC1C
7C3C
7878
3FF8
3FF0
7FC0
2000
ENDCHAR
STARTCHAR 00D9
ENCODING 217
SWIDTH 510 0
DWIDTH 17 0
BBX 13 28 2 0
BITMAP
0400
0C00
0E00
0700
0380
0100
0000
0000
C038
C038
C038
C038
C038
C038
C038
C038
C038
C038
C038
C038
C038
C038
E038
E078
F0F0
7FF0
3FE0
1F80
ENDCHAR
STARTCHAR 00DA
ENCODING 218
SWIDTH 510 0
DWIDTH 17 0
BBX 13 28 2 0
BITMAP
0100
0380
0380
0700
0E00
0400
0000
0000
C038
C038
C038
C038
C038
C038
C038
C038
C038
C038
C038
C038
C038
C038
E038
E078
F0F0
7FF0
3FE0
1F80
ENDCHAR
STARTCHAR 00DB
ENCODING 219
SWIDTH 510 0
DWIDTH 17 0
BBX 13 28 2 0
BITMAP
0200
0700
0F00
1D80
38C0
1040
0000
0000
C038
C038
C038
C038
C038
C038
C038
C038
C038
C038
C038
C038
C038
C038
E038
E078
F0F0
7FF0
3FE0
1F80
ENDCHAR
STARTCHAR 00DC
ENCODING 220
SWIDTH 510 0
DWIDTH 17 0
BBX 13 26 2 0
BITMAP
38C0
39E0
38C0
0000
0000
0000
C038
C038
C038
C038
C038
C038
C038
C038
C038
C038
C038
C038
C038
C038
E038
E078
F0F0
7FF0
3FE0
1F80
ENDCHAR
STARTCHAR 00DD
ENCODING 221
SWIDTH 510 0
DWIDTH 17 0
BBX 15 28 1 0
BITMAP
0080
01C0
01C0
0380
0700
0200
0000
0000
E00E
E00C
E01C
701C
7038
3838
3870
1C70
1EE0
0FC0
07C0
0780
0380
0380
0380
0380
0380
0380
0380
0380
ENDCHAR
STARTCHAR 00DE
ENCODING 222
SWIDTH 510 0
DWIDTH 17 0
BBX 13 20 2 0
BITMAP
E000
E000
E000
FF80
FFE0
FFF0
E0F8
E038
E038
E038
E038
E038
E0F0
FFF0
FFE0
FF80
E000
E000
E000
E000
ENDCHAR
STARTCHAR 00DF
ENCODING 223
SWIDTH 510 0
DWIDTH 17 0
BBX 14 23 2 0
BITMAP
1F80
3FC0
7FE0
70E0
70E0
E0E0
E0E0
E1C0
E380
E700
E700
E700
E780
E3E0
E0F0
E038
E01C
E01C
E01C
E438
E7F8
E7F0
E3E0
ENDCHAR
STARTCHAR 00E0
ENCODING 224
SWIDTH 510 0
DWIDTH 17 0
BBX 12 23 2 0
BITMAP
0400
0C00
0E00
0700
0380
0100
0000
0000
1F80
3FE0
3FF0
20F0
0070
0030
1FF0
7FF0
F030
E030
E030
F030
FFF0
7FF0
1FF0
ENDCHAR
STARTCHAR 00E1
ENCODING 225
SWIDTH 510 0
DWIDTH 17 0
BBX 12 23 2 0
BITMAP
0080
01C0
0380
0700
0E00
0400
0000
0000
1F80
3FE0
3FF0
20F0
0070
0030
1FF0
7FF0
F030
E030
E030
F030
FFF0
7FF0
1FF0
ENDCHAR
STARTCHAR 00E2
ENCODING 226
SWIDTH 510 0
DWIDTH 17 0
BBX 12 23 2 0
BITMAP
0200
0700
0F80
0DC0
18C0
1040
0000
0000
1F80
3FE0
3FF0
20F0
0070
0030
1FF0
7FF0
F030
E030
E030
F030
FFF0
7FF0
1FF0
ENDCHAR
STARTCHAR 00E3
ENCODING 227
SWIDTH 510 0
DWIDTH 17 0
BBX 12 21 2 0
BITMAP
1C60
3FC0
3380
0000
0000
0000
1F80
3FE0
3FF0
20F0
0070
0030
1FF0
7FF0
F030
E030
E030
F030
FFF0
7FF0
1FF0
ENDCHAR
STARTCHAR 00E4
ENCODING 228
SWIDTH 510 0
DWIDTH 17 0
BBX 12 21 2 0
BITMAP
38C0
39E0
38C0
0000
0000
0000
1F80
3FE0
3FF0
20F0
0070
0030
1FF0
7FF0
F030
E030
E030
F030
FFF0
7FF0
1FF0
ENDCHAR
STARTCHAR 00E5
ENCODING 229
SWIDTH 510 0
DWIDTH 17 0
BBX 12 22 2 0
BITMAP
0F00
1980
1880
1980
0F00
0000
0000
1F80
3FE0
3FF0
20F0
0070
0030
1FF0
7FF0
F030
E030
E030
F030
FFF0
7FF0
1FF0
ENDCHAR
STARTCHAR 00E6
ENCODING 230
SWIDTH 510 0
DWIDTH 17 0
BBX 15 15 1 0
BITMAP
3C70
7EFC
7FFC
478C
038E
038E
3FFE
7FFE
E380
E380
E180
E3C4
FFFC
7FFC
3E78
ENDCHAR
STARTCHAR 00E7
ENCODING 231
SWIDTH 510 0
DWIDTH 17 0
BBX 13 21 2 -6
BITMAP
07F0
1FF8
7FF0
7810
F000
E000
E000
C000
C000
E000
F000
7818
7FF8
3FF8
0FF0
0300
0300
0380
0180
0F80
0F00
ENDCHAR
STARTCHAR 00E8
ENCODING 232
SWIDTH 510 0
DWIDTH 17 0
BBX 14 23 1 0
BITMAP
0200
0600
0700
0380
01C0
0080
0000
0000
07C0
1FF0
3FF8
7838
701C
601C
FFFC
FFFC
E000
E000
7000
7C08
3FF8
1FF8
07F0
ENDCHAR
STARTCHAR 00E9
ENCODING 233
SWIDTH 510 0
DWIDTH 17 0
BBX 14 23 1 0
BITMAP
0040
00E0
01C0
0380
0700
0200
0000
0000
07C0
1FF0
3FF8
7838
701C
601C
FFFC
FFFC
E000
E000
7000
7C08
3FF8
1FF8
07F0
ENDCHAR
STARTCHAR 00EA
ENCODING 234
SWIDTH 510 0
DWIDTH 17 0
BBX 14 23 1 0
BITMAP
0100
0380
03C0
06E0
0C60
0820
0000
0000
07C0
1FF0
3FF8
7838
701C
601C
FFFC
FFFC
E000
E000
7000
7C08
3FF8
1FF8
07F0
ENDCHAR
STARTCHAR 00EB
ENCODING 235
SWIDTH 510 0
DWIDTH 17 0
BBX 14 21 1 0
BITMAP
0C70
1E70
0C70
0000
0000
0000
07C0
1FF0
3FF8
7838
701C
601C
FFFC
FFFC
E000
E000
7000
7C08
3FF8
1FF8
07F0
ENDCHAR
STARTCHAR 00EC
ENCODING 236
SWIDTH 510 0
DWIDTH 17 0
BBX 13 23 2 0
BITMAP
1000
3800
1C00
0E00
0700
0200
0000
0000
FE00
FE00
FE00
0E00
0E00
0E00
0E00
0E00
0E00
0E00
0E00
0F00
07F8
07F8
03F0
ENDCHAR
STARTCHAR 00ED
ENCODING 237
SWIDTH 510 0
DWIDTH 17 0
BBX 13 23 2 0
BITMAP
0200
0700
0700
0E00
1C00
0800
0000
0000
FE00
FE00
FE00
0E00
0E00
0E00
0E00
0E00
0E00
0E00
0E00
0F00
07F8
07F8
03F0
ENDCHAR
STARTCHAR 00EE
ENCODING 238
SWIDTH 510 0
DWIDTH 17 0
BBX 13 23 2 0
BITMAP
0400
0C00
1E00
3B00
7180
2100
0000
0000
FE00
FE00
FE00
0E00
0E00
0E00
0E00
0E00
0E00
0E00
0E00
0F00
07F8
07F8
03F0
ENDCHAR
STARTCHAR 00EF
ENCODING 239
SWIDTH 510 0
DWIDTH 17 0
BBX 13 21 2 0
BITMAP
7180
73C0
7180
0000
0000
0000
FE00
FE00
FE00
0E00
0E00
0E00
0E00
0E00
0E00
0E00
0E00
0F00
07F8
07F8
03F0
ENDCHAR
STARTCHAR 00F0
ENCODING 240
SWIDTH 510 0
DWIDTH 17 0
BBX 13 23 2 0
BITMAP
0400
0F00
07B8
03F8
0FE0
0CC0
00E0
0060
1F70
3FF0
7FF0
70F0
E030
E030
E030
E070
E070
E070
E070
70E0
7FE0
3FC0
1F00
ENDCHAR
STARTCHAR 00F1
ENCODING 241
SWIDTH 510 0
DWIDTH 17 0
BBX 12 21 2 0
BITMAP
1C60
3FC0
3380
0000
0000
0000
7F80
FFE0
FFE0
E0F0
E070
E070
E070
E030
E030
E030
E030
E030
E030
E030
E030
ENDCHAR
STARTCHAR 00F2
ENCODING 242
SWIDTH 510 0
DWIDTH 17 0
BBX 14 23 1 0
BITMAP
0200
0700
0700
0380
01C0
0080
0000
0000
07C0
1FF0
3FF8
7878
703C
E01C
E01C
E01C
E01C
E01C
703C
7878
3FF8
1FF0
0FC0
ENDCHAR
STARTCHAR 00F3
ENCODING 243
SWIDTH 510 0
DWIDTH 17 0
BBX 14 23 1 0
BITMAP
0080
01C0
01C0
0380
0700
0200
0000
0000
07C0
1FF0
3FF8
7878
703C
E01C
E01C
E01C
E01C
E01C
703C
7878
3FF8
1FF0
0FC0
ENDCHAR
STARTCHAR 00F4
ENCODING 244
SWIDTH 510 0
DWIDTH 17 0
BBX 14 23 1 0
BITMAP
0100
0380
0780
0EC0
1C60
0820
0000
0000
07C0
1FF0
3FF8
7878
703C
E01C
E01C
E01C
E01C
E01C
703C
7878
3FF8
1FF0
0FC0
ENDCHAR
STARTCHAR 00F5
ENCODING 245
SWIDTH 510 0
DWIDTH 17 0
BBX 14 21 1 0
BITMAP
0E30
1FE0
19C0
0000
0000
0000
07C0
1FF0
3FF8
7878
703C
E01C
E01C
E01C
E01C
E01C
703C
7878
3FF8
1FF0
0FC0
ENDCHAR
STARTCHAR 00F6
ENCODING 246
SWIDTH 510 0
DWIDTH 17 0
BBX 14 21 1 0
BITMAP
1C60
1CF0
1C60
0000
0000
0000
07C0
1FF0
3FF8
7878
703C
E01C
E01C
E01C
E01C
E01C
703C
7878
3FF8
1FF0
0FC0
ENDCHAR
STARTCHAR 00F7
ENCODING 247
SWIDTH 510 0
DWIDTH 17 0
BBX 13 14 2 2
BITMAP
0600
0F00
0F00
0600
0000
0000
FFF8
FFF8
0000
0000
0700
0F00
0F00
0700
ENDCHAR
STARTCHAR 00F8
ENCODING 248
SWIDTH 510 0
DWIDTH 17 0
BBX 14 17 1 -1
BITMAP
0008
07DC
1FF8
3FF8
7878
707C
E0DC
E19C
E31C
E71C
EE1C
7C3C
7878
3FF8
7FF0
67C0
4000
ENDCHAR
STARTCHAR 00F9
ENCODING 249
SWIDTH 510 0
DWIDTH 17 0
BBX 12 23 2 0
BITMAP
0400
0C00
0E00
0700
0380
0100
0000
0000
E070
E070
E070
E070
E070
E070
E070
E070
E070
E070
F070
7870
7FF0
3FF0
1FE0
ENDCHAR
STARTCHAR 00FA
ENCODING 250
SWIDTH 510 0
DWIDTH 17 0
BBX 12 23 2 0
BITMAP
0100
0380
0380
0700
0E00
0400
0000
0000
E070
E070
E070
E070
E070
E070
E070
E070
E070
E070
F070
7870
7FF0
3FF0
1FE0
ENDCHAR
STARTCHAR 00FB
ENCODING 251
SWIDTH 510 0
DWIDTH 17 0
BBX 12 23 2 0
BITMAP
0200
0700
0F00
1D80
38C0
1040
0000
0000
E070
E070
E070
E070
E070
E070
E070
E070
E070
E070
F070
7870
7FF0
3FF0
1FE0
ENDCHAR
STARTCHAR 00FC
ENCODING 252
SWIDTH 510 0
DWIDTH 17 0
BBX 12 21 2 0
BITMAP
38C0
39E0
38C0
0000
0000
0000
E070
E070
E070
E070
E070
E070
E070
E070
E070
E070
F070
7870
7FF0
3FF0
1FE0
ENDCHAR
STARTCHAR 00FD
ENCODING 253
SWIDTH 510 0
DWIDTH 17 0
BBX 14 28 1 -5
BITMAP
0080
00C0
01C0
0380
0700
0200
0000
0000
701C
701C
701C
3838
3838
3838
1C30
1C70
0C70
0E60
0EE0
07E0
07C0
03C0
0180
0380
0700
7F00
FE00
F800
ENDCHAR
STARTCHAR 00FE
ENCODING 254
SWIDTH 510 0
DWIDTH 17 0
BBX 13 28 2 -5
BITMAP
E000
E000
E000
E000
E000
E000
E000
E000
EF80
FFE0
FFF0
F0F0
E038
E038
E038
E038
E038
E038
E038
F0F0
FFF0
FFE0
EF80
E000
E000
E000
E000
E000
ENDCHAR
STARTCHAR 00FF
ENCODING 255
SWIDTH 510 0
DWIDTH 17 0
BBX 14 26 1 -5
BITMAP
0C70
1E70
0C70
0000
0000
0000
701C
701C
701C
3838
3838
3838
1C30
1C70
0C70
0E60
0EE0
07E0
07C0
03C0
0180
0380
0700
7F00
FE00
F800
ENDCHAR
STARTCHAR 0152
ENCODING 140
SWIDTH 510 0
DWIDTH 17 0
BBX 15 20 1 0
BITMAP
0FFC
1FFC
3FFC
78C0
70C0
E0C0
E0C0
E0C0
E0FC
E0FC
E0FC
E0C0
E0C0
E0C0
E0C0
70C0
78C0
7FFE
3FFE
0FFE
ENDCHAR
STARTCHAR 0153
ENCODING 156
SWIDTH 510 0
DWIDTH 17 0
BBX 15 15 1 0
BITMAP
3C78
7E7C
7EFC
67CC
E38E
E38E
E3FE
E3FE
E380
E380
E380
77C4
7EFC
3E7C
1C3C
ENDCHAR
STARTCHAR 0160
ENCODING 138
SWIDTH 510 0
DWIDTH 17 0
BBX 13 28 2 0
BITMAP
1040
18E0
0DC0
0780
0300
0200
0000
0000
0FC0
3FF0
7FF0
7020
E000
E000
E000
7800
7E00
3FC0
0FE0
01F0
0070
0038
0038
0038
C070
FFF0
FFE0
3F80
ENDCHAR
STARTCHAR 0161
ENCODING 154
SWIDTH 510 0
DWIDTH 17 0
BBX 12 23 2 0
BITMAP
1040
18E0
0DC0
0F80
0700
0200
0000
0000
1FE0
3FE0
7FE0
7020
E000
7800
7F00
3FC0
07F0
00F0
0070
4070
FFF0
FFE0
3FC0
ENDCHAR
STARTCHAR 0178
ENCODING 159
SWIDTH 510 0
DWIDTH 17 0
BBX 15 26 1 0
BITMAP
1C60
1CF0
1C60
0000
0000
0000
E00E
E00C
E01C
701C
7038
3838
3870
1C70
1EE0
0FC0
07C0
0780
0380
0380
0380
0380
0380
0380
0380
0380
ENDCHAR
STARTCHAR 017D
ENCODING 142
SWIDTH 510 0
DWIDTH 17 0
BBX 13 28 2 0
BITMAP
1040
38C0
1D80
0F00
0700
0200
0000
0000
FFF8
FFF8
FFF8
0070
00E0
00E0
01C0
0380
0300
0700
0E00
1C00
1C00
3800
3000
7000
E000
FFF8
FFF8
FFF8
ENDCHAR
STARTCHAR 017E
ENCODING 158
SWIDTH 510 0
DWIDTH 17 0
BBX 12 23 2 0
BITMAP
1040
38C0
1D80
0F00
0700
0200
0000
0000
7FF0
7FF0
7FF0
00E0
01C0
0380
0700
0E00
1C00
1C00
3800
7000
FFF0
FFF0
FFF0
ENDCHAR
STARTCHAR 0192
ENCODING 131
SWIDTH 510 0
DWIDTH 17 0
BBX 16 28 0 -5
BITMAP
00FC
01FF
03FF
0382
0700
0700
0700
0700
3FFC
3FFC
3FFC
0700
0700
0700
0700
0700
0700
0700
0700
0700
0700
0700
0700
0700
0F00
7E00
FE00
F800
ENDCHAR
STARTCHAR 02C6
ENCODING 136
SWIDTH 510 0
DWIDTH 17 0
BBX 8 6 4 17
BITMAP
08
1C
3C
76
E3
41
ENDCHAR
STARTCHAR 02DC
ENCODING 152
SWIDTH 510 0
DWIDTH 17 0
BBX 9 3 4 18
BITMAP
7180
FF00
CE00
ENDCHAR
STARTCHAR 2013
ENCODING 150
SWIDTH 510 0
DWIDTH 17 0
BBX 12 2 2 8
BITMAP
FFF0
FFF0
ENDCHAR
STARTCHAR 2014
ENCODING 151
SWIDTH 510 0
DWIDTH 17 0
BBX 17 2 0 8
BITMAP
FFFF80
FFFF80
ENDCHAR
STARTCHAR 2018
ENCODING 145
SWIDTH 510 0
DWIDTH 17 0
BBX 6 8 5 15
BITMAP
0C
3C
78
E0
F0
F8
F8
70
ENDCHAR
STARTCHAR 2019
ENCODING 146
SWIDTH 510 0
DWIDTH 17 0
BBX 7 8 5 15
BITMAP
3C
3C
3E
3C
1C
38
F0
C0
ENDCHAR
STARTCHAR 201A
ENCODING 130
SWIDTH 510 0
DWIDTH 17 0
BBX 7 8 5 -4
BITMAP
3C
3C
3E
3C
1C
38
F0
C0
ENDCHAR
STARTCHAR 201C
ENCODING 147
SWIDTH 510 0
DWIDTH 17 0
BBX 14 8 1 15
BITMAP
0C0C
3C3C
7870
60E0
F0F0
F8F8
78F8
7070
ENDCHAR
STARTCHAR 201D
ENCODING 148
SWIDTH 510 0
DWIDTH 17 0
BBX 14 8 1 15
BITMAP
1C38
3C3C
3C3C
1C3C
0C1C
3C38
F8F0
60E0
ENDCHAR
STARTCHAR 201E
ENCODING 132
SWIDTH 510 0
DWIDTH 17 0
BBX 14 8 1 -4
BITMAP
1C38
3C3C
3C3C
1C3C
0C1C
3C38
F8F0
60E0
ENDCHAR
STARTCHAR 2020
ENCODING 134
SWIDTH 510 0
DWIDTH 17 0
BBX 12 24 2 -4
BITMAP
0600
0600
0600
0600
0600
0600
FFF0
FFF0
0600
0600
0600
0600
0600
0600
0600
0600
0600
0600
0600
0600
0600
0600
0600
0200
ENDCHAR
STARTCHAR 2021
ENCODING 135
SWIDTH 510 0
DWIDTH 17 0
BBX 12 24 2 -4
BITMAP
0600
0600
0600
0600
0600
0600
FFF0
FFF0
0600
0600
0600
0600
0600
0600
FFF0
FFF0
0600
0600
0600
0600
0600
0600
0600
0200
ENDCHAR
STARTCHAR 2022
ENCODING 149
SWIDTH 510 0
DWIDTH 17 0
BBX 9 9 4 6
BITMAP
3C00
7F00
FF00
FF80
FF80
FF80
FF00
7F00
3C00
ENDCHAR
STARTCHAR 2026
ENCODING 133
SWIDTH 510 0
DWIDTH 17 0
BBX 14 4 1 0
BITMAP
630C
E39C
E39C
630C
ENDCHAR
STARTCHAR 2030
ENCODING 137
SWIDTH 510 0
DWIDTH 17 0
BBX 15 20 1 0
BITMAP
7000
F000
D800
9806
980C
9838
D8E0
F180
7700
1C00
3000
EE1C
8F3C
1B36
1926
1926
1926
1B36
0F3C
0E1C
ENDCHAR
STARTCHAR 2039
ENCODING 139
SWIDTH 510 0
DWIDTH 17 0
BBX 6 13 5 2
BITMAP
08
1C
18
38
70
F0
E0
F0
70
38
18
1C
08
ENDCHAR
STARTCHAR 203A
ENCODING 155
SWIDTH 510 0
DWIDTH 17 0
BBX 6 13 6 2
BITMAP
C0
C0
E0
70
70
38
1C
38
70
70
E0
C0
C0
ENDCHAR
STARTCHAR 20AC
ENCODING 128
SWIDTH 510 0
DWIDTH 17 0
BBX 14 20 1 0
BITMAP
01F8
07FC
0FFC
1E08
1C00
1800
FFF0
FFF0
FFF0
3800
3800
FFE0
FFE0
FFE0
1800
1C00
1E04
0FFC
07FC
01F8
ENDCHAR
STARTCHAR 2122
ENCODING 153
SWIDTH 510 0
DWIDTH 17 0
BBX 15 8 1 12
BITMAP
FD8C
FDDC
31DC
3154
3174
3126
3306
3306
ENDCHAR
ENDFONT
