STARTFONT 2.1
COMMENT
COMMENT Converted from OpenType font "UbuntuMono-Bold.ttf" by "otf2bdf 3.0".
COMMENT
FONT -FreeType-ubuntu mono cp1252-Bold-R-Normal--17-120-100-100-P-69-ISO10646-1
SIZE 12 100 100
FONTBOUNDINGBOX 9 18 0 -3
STARTPROPERTIES 19
FOUNDRY "FreeType"
FAMILY_NAME "ubuntu mono cp1252"
WEIGHT_NAME "Bold"
SLANT "R"
SETWIDTH_NAME "Normal"
ADD_STYLE_NAME ""
PIXEL_SIZE 17
POINT_SIZE 120
RESOLUTION_X 100
RESOLUTION_Y 100
SPACING "P"
AVERAGE_WIDTH 69
CHARSET_REGISTRY "ISO10646"
CHARSET_ENCODING "1"
FONT_ASCENT 14
FONT_DESCENT 2
COPYRIGHT "Copyright 2011 Canonical Ltd.  Licensed under the Ubuntu Font Licence 1.0"
_OTF_FONTFILE "UbuntuMono-Bold.ttf"
_OTF_PSNAME "UbuntuMono-Bold"
ENDPROPERTIES
CHARS 223
STARTCHAR 0000
ENCODING 157
SWIDTH 540 0
DWIDTH 9 0
BBX 0 0 0 0
BITMAP
ENDCHAR
STARTCHAR 0008
ENCODING 8
SWIDTH 540 0
DWIDTH 9 0
BBX 0 0 0 0
BITMAP
ENDCHAR
STARTCHAR 0009
ENCODING 9
SWIDTH 540 0
DWIDTH 9 0
BBX 0 0 0 0
BITMAP
ENDCHAR
STARTCHAR 000D
ENCODING 13
SWIDTH 540 0
DWIDTH 9 0
BBX 0 0 0 0
BITMAP
ENDCHAR
STARTCHAR 001D
ENCODING 29
SWIDTH 540 0
DWIDTH 9 0
BBX 0 0 0 0
BITMAP
ENDCHAR
STARTCHAR 0020
ENCODING 32
SWIDTH 540 0
DWIDTH 9 0
BBX 0 0 0 0
BITMAP
ENDCHAR
STARTCHAR 0021
ENCODING 33
SWIDTH 540 0
DWIDTH 9 0
BBX 2 11 3 0
BITMAP
C0
C0
C0
C0
C0
C0
C0
C0
00
C0
C0
ENDCHAR
STARTCHAR 0022
ENCODING 34
SWIDTH 540 0
DWIDTH 9 0
BBX 6 5 1 7
BITMAP
EC
6C
6C
4C
4C
ENDCHAR
STARTCHAR 0023
ENCODING 35
SWIDTH 540 0
DWIDTH 9 0
BBX 8 11 0 0
BITMAP
13
12
32
FF
FF
36
FF
FF
6C
6C
6C
ENDCHAR
STARTCHAR 0024
ENCODING 36
SWIDTH 540 0
DWIDTH 9 0
BBX 7 14 1 -2
BITMAP
30
30
7E
FC
C0
E0
F8
3C
0E
86
FE
FC
30
30
ENDCHAR
STARTCHAR 0025
ENCODING 37
SWIDTH 540 0
DWIDTH 9 0
BBX 8 11 0 0
BITMAP
61
D3
D6
D4
6C
18
17
35
2D
45
C7
ENDCHAR
STARTCHAR 0026
ENCODING 38
SWIDTH 540 0
DWIDTH 9 0
BBX 8 11 0 0
BITMAP
38
7C
64
6C
38
7B
5F
CE
C6
7F
3B
ENDCHAR
STARTCHAR 0027
ENCODING 39
SWIDTH 540 0
DWIDTH 9 0
BBX 2 5 3 7
BITMAP
C0
C0
C0
C0
40
ENDCHAR
STARTCHAR 0028
ENCODING 40
SWIDTH 540 0
DWIDTH 9 0
BBX 5 15 2 -3
BITMAP
18
30
60
60
C0
C0
C0
C0
C0
C0
C0
E0
70
38
10
ENDCHAR
STARTCHAR 0029
ENCODING 41
SWIDTH 540 0
DWIDTH 9 0
BBX 5 15 2 -3
BITMAP
80
C0
60
30
30
18
18
18
18
18
30
30
60
E0
80
ENDCHAR
STARTCHAR 002A
ENCODING 42
SWIDTH 540 0
DWIDTH 9 0
BBX 7 7 1 4
BITMAP
30
30
D4
FE
38
6C
48
ENDCHAR
STARTCHAR 002B
ENCODING 43
SWIDTH 540 0
DWIDTH 9 0
BBX 7 8 1 0
BITMAP
30
30
30
FE
FE
30
30
30
ENDCHAR
STARTCHAR 002C
ENCODING 44
SWIDTH 540 0
DWIDTH 9 0
BBX 4 6 2 -3
BITMAP
60
70
70
30
60
C0
ENDCHAR
STARTCHAR 002D
ENCODING 45
SWIDTH 540 0
DWIDTH 9 0
BBX 5 2 2 3
BITMAP
F8
F8
ENDCHAR
STARTCHAR 002E
ENCODING 46
SWIDTH 540 0
DWIDTH 9 0
BBX 3 3 3 0
BITMAP
C0
E0
C0
ENDCHAR
STARTCHAR 002F
ENCODING 47
SWIDTH 540 0
DWIDTH 9 0
BBX 7 15 1 -3
BITMAP
0E
0C
0C
1C
18
18
38
30
30
30
60
60
60
C0
C0
ENDCHAR
STARTCHAR 0030
ENCODING 48
SWIDTH 540 0
DWIDTH 9 0
BBX 7 11 1 0
BITMAP
78
FC
CE
C6
F6
B6
C6
C6
CE
FC
78
ENDCHAR
STARTCHAR 0031
ENCODING 49
SWIDTH 540 0
DWIDTH 9 0
BBX 7 11 1 0
BITMAP
18
78
F8
D8
18
18
18
18
18
FE
FE
ENDCHAR
STARTCHAR 0032
ENCODING 50
SWIDTH 540 0
DWIDTH 9 0
BBX 7 11 1 0
BITMAP
78
FC
8C
0C
0C
18
30
60
C0
FE
FE
ENDCHAR
STARTCHAR 0033
ENCODING 51
SWIDTH 540 0
DWIDTH 9 0
BBX 7 11 1 0
BITMAP
78
FC
0C
0C
3C
3C
0C
06
0E
FC
F8
ENDCHAR
STARTCHAR 0034
ENCODING 52
SWIDTH 540 0
DWIDTH 9 0
BBX 8 11 0 0
BITMAP
06
0E
1E
36
66
66
FF
FF
06
06
06
ENDCHAR
STARTCHAR 0035
ENCODING 53
SWIDTH 540 0
DWIDTH 9 0
BBX 7 11 1 0
BITMAP
7C
7C
60
40
78
FC
0C
0E
0C
FC
F8
ENDCHAR
STARTCHAR 0036
ENCODING 54
SWIDTH 540 0
DWIDTH 9 0
BBX 7 11 1 0
BITMAP
1C
3C
70
E0
F8
FC
CE
C6
CE
FC
78
ENDCHAR
STARTCHAR 0037
ENCODING 55
SWIDTH 540 0
DWIDTH 9 0
BBX 7 11 1 0
BITMAP
FE
FE
0C
1C
18
18
30
30
30
70
60
ENDCHAR
STARTCHAR 0038
ENCODING 56
SWIDTH 540 0
DWIDTH 9 0
BBX 7 11 1 0
BITMAP
78
FC
CE
C4
EC
78
CC
C6
C6
FC
78
ENDCHAR
STARTCHAR 0039
ENCODING 57
SWIDTH 540 0
DWIDTH 9 0
BBX 7 11 1 0
BITMAP
78
FC
CC
C6
C6
FE
7E
0C
1C
F8
E0
ENDCHAR
STARTCHAR 003A
ENCODING 58
SWIDTH 540 0
DWIDTH 9 0
BBX 3 8 3 0
BITMAP
C0
E0
C0
00
00
C0
E0
C0
ENDCHAR
STARTCHAR 003B
ENCODING 59
SWIDTH 540 0
DWIDTH 9 0
BBX 4 11 2 -3
BITMAP
60
70
60
00
00
60
70
70
30
60
C0
ENDCHAR
STARTCHAR 003C
ENCODING 60
SWIDTH 540 0
DWIDTH 9 0
BBX 7 11 1 1
BITMAP
04
0E
3E
7C
F0
C0
F0
7C
3E
0E
04
ENDCHAR
STARTCHAR 003D
ENCODING 61
SWIDTH 540 0
DWIDTH 9 0
BBX 7 6 1 1
BITMAP
FE
FE
00
00
FE
FE
ENDCHAR
STARTCHAR 003E
ENCODING 62
SWIDTH 540 0
DWIDTH 9 0
BBX 7 11 1 1
BITMAP
80
E0
F0
7C
1E
0E
1E
7C
F0
E0
80
ENDCHAR
STARTCHAR 003F
ENCODING 63
SWIDTH 540 0
DWIDTH 9 0
BBX 6 11 1 0
BITMAP
78
FC
0C
0C
0C
18
30
30
00
30
30
ENDCHAR
STARTCHAR 0040
ENCODING 64
SWIDTH 540 0
DWIDTH 9 0
BBX 8 13 0 -2
BITMAP
1E
22
43
4F
DF
DB
DB
DB
DF
4F
60
3F
1F
ENDCHAR
STARTCHAR 0041
ENCODING 65
SWIDTH 540 0
DWIDTH 9 0
BBX 8 11 0 0
BITMAP
1C
1C
3C
34
36
26
7E
7F
63
63
C3
ENDCHAR
STARTCHAR 0042
ENCODING 66
SWIDTH 540 0
DWIDTH 9 0
BBX 7 11 1 0
BITMAP
F8
FC
CC
CC
FC
FC
C6
C6
C6
FC
F8
ENDCHAR
STARTCHAR 0043
ENCODING 67
SWIDTH 540 0
DWIDTH 9 0
BBX 8 11 0 0
BITMAP
1E
3F
71
60
60
E0
E0
60
71
3F
1E
ENDCHAR
STARTCHAR 0044
ENCODING 68
SWIDTH 540 0
DWIDTH 9 0
BBX 7 11 1 0
BITMAP
F8
FC
CE
C6
C6
C6
C6
C6
CC
FC
F8
ENDCHAR
STARTCHAR 0045
ENCODING 69
SWIDTH 540 0
DWIDTH 9 0
BBX 7 11 1 0
BITMAP
FC
FC
C0
C0
FC
FC
C0
C0
C0
FE
FE
ENDCHAR
STARTCHAR 0046
ENCODING 70
SWIDTH 540 0
DWIDTH 9 0
BBX 7 11 1 0
BITMAP
FE
FE
C0
C0
FC
FC
C0
C0
C0
C0
C0
ENDCHAR
STARTCHAR 0047
ENCODING 71
SWIDTH 540 0
DWIDTH 9 0
BBX 8 11 0 0
BITMAP
1F
3F
71
60
60
E3
E3
63
63
3F
1F
ENDCHAR
STARTCHAR 0048
ENCODING 72
SWIDTH 540 0
DWIDTH 9 0
BBX 7 11 1 0
BITMAP
C6
C6
C6
C6
FE
FE
C6
C6
C6
C6
C6
ENDCHAR
STARTCHAR 0049
ENCODING 73
SWIDTH 540 0
DWIDTH 9 0
BBX 7 11 1 0
BITMAP
FE
FE
30
30
30
30
30
30
30
FE
FE
ENDCHAR
STARTCHAR 004A
ENCODING 74
SWIDTH 540 0
DWIDTH 9 0
BBX 6 11 1 0
BITMAP
7C
7C
0C
0C
0C
0C
0C
0C
8C
FC
78
ENDCHAR
STARTCHAR 004B
ENCODING 75
SWIDTH 540 0
DWIDTH 9 0
BBX 7 11 1 0
BITMAP
CE
CC
DC
D8
F0
F0
F8
DC
CC
CE
C6
ENDCHAR
STARTCHAR 004C
ENCODING 76
SWIDTH 540 0
DWIDTH 9 0
BBX 7 11 1 0
BITMAP
C0
C0
C0
C0
C0
C0
C0
C0
C0
FE
FE
ENDCHAR
STARTCHAR 004D
ENCODING 77
SWIDTH 540 0
DWIDTH 9 0
BBX 8 11 0 0
BITMAP
63
67
77
57
5F
5B
5B
43
C3
C3
C3
ENDCHAR
STARTCHAR 004E
ENCODING 78
SWIDTH 540 0
DWIDTH 9 0
BBX 7 11 1 0
BITMAP
C6
C6
E6
E6
F6
D6
DE
CE
CE
CE
C6
ENDCHAR
STARTCHAR 004F
ENCODING 79
SWIDTH 540 0
DWIDTH 9 0
BBX 8 11 0 0
BITMAP
3C
7E
67
63
E3
E3
E3
63
67
7E
3C
ENDCHAR
STARTCHAR 0050
ENCODING 80
SWIDTH 540 0
DWIDTH 9 0
BBX 7 11 1 0
BITMAP
F8
FE
C6
C6
C6
FE
F8
C0
C0
C0
C0
ENDCHAR
STARTCHAR 0051
ENCODING 81
SWIDTH 540 0
DWIDTH 9 0
BBX 8 14 0 -3
BITMAP
3C
7E
67
63
E3
E3
E3
63
67
7E
3C
1C
0F
07
ENDCHAR
STARTCHAR 0052
ENCODING 82
SWIDTH 540 0
DWIDTH 9 0
BBX 7 11 1 0
BITMAP
F8
FC
CC
CE
CE
FC
F8
DC
CC
CE
C6
ENDCHAR
STARTCHAR 0053
ENCODING 83
SWIDTH 540 0
DWIDTH 9 0
BBX 7 11 1 0
BITMAP
7C
FC
C4
C0
F0
7C
1E
06
86
FC
F8
ENDCHAR
STARTCHAR 0054
ENCODING 84
SWIDTH 540 0
DWIDTH 9 0
BBX 8 11 0 0
BITMAP
FF
FF
18
18
18
18
18
18
18
18
18
ENDCHAR
STARTCHAR 0055
ENCODING 85
SWIDTH 540 0
DWIDTH 9 0
BBX 7 11 1 0
BITMAP
C6
C6
C6
C6
C6
C6
C6
C6
CE
FC
78
ENDCHAR
STARTCHAR 0056
ENCODING 86
SWIDTH 540 0
DWIDTH 9 0
BBX 8 11 0 0
BITMAP
C3
63
63
67
66
26
36
34
3C
1C
18
ENDCHAR
STARTCHAR 0057
ENCODING 87
SWIDTH 540 0
DWIDTH 9 0
BBX 8 11 0 0
BITMAP
C3
C3
C3
43
5B
5B
5F
77
77
67
63
ENDCHAR
STARTCHAR 0058
ENCODING 88
SWIDTH 540 0
DWIDTH 9 0
BBX 8 11 0 0
BITMAP
63
66
36
3C
1C
1C
3C
36
76
67
E3
ENDCHAR
STARTCHAR 0059
ENCODING 89
SWIDTH 540 0
DWIDTH 9 0
BBX 8 11 0 0
BITMAP
E3
63
66
36
36
1C
18
18
18
18
18
ENDCHAR
STARTCHAR 005A
ENCODING 90
SWIDTH 540 0
DWIDTH 9 0
BBX 7 11 1 0
BITMAP
FE
FC
0C
18
18
30
60
60
C0
FE
FE
ENDCHAR
STARTCHAR 005B
ENCODING 91
SWIDTH 540 0
DWIDTH 9 0
BBX 5 15 2 -3
BITMAP
F8
F8
C0
C0
C0
C0
C0
C0
C0
C0
C0
C0
C0
F8
F8
ENDCHAR
STARTCHAR 005C
ENCODING 92
SWIDTH 540 0
DWIDTH 9 0
BBX 7 15 1 -3
BITMAP
C0
C0
60
60
60
30
30
30
18
18
18
1C
0C
0C
0E
ENDCHAR
STARTCHAR 005D
ENCODING 93
SWIDTH 540 0
DWIDTH 9 0
BBX 5 15 2 -3
BITMAP
F8
F8
18
18
18
18
18
18
18
18
18
18
18
F8
F8
ENDCHAR
STARTCHAR 005E
ENCODING 94
SWIDTH 540 0
DWIDTH 9 0
BBX 7 6 1 5
BITMAP
38
78
6C
EC
C6
86
ENDCHAR
STARTCHAR 005F
ENCODING 95
SWIDTH 540 0
DWIDTH 9 0
BBX 8 2 0 -3
BITMAP
FF
FF
ENDCHAR
STARTCHAR 0060
ENCODING 96
SWIDTH 540 0
DWIDTH 9 0
BBX 3 3 3 9
BITMAP
80
E0
20
ENDCHAR
STARTCHAR 0061
ENCODING 97
SWIDTH 540 0
DWIDTH 9 0
BBX 7 8 1 0
BITMAP
78
7C
0C
7E
FE
CE
FE
7E
ENDCHAR
STARTCHAR 0062
ENCODING 98
SWIDTH 540 0
DWIDTH 9 0
BBX 7 12 1 0
BITMAP
C0
C0
C0
C0
FC
FC
CE
C6
C6
CE
FC
F8
ENDCHAR
STARTCHAR 0063
ENCODING 99
SWIDTH 540 0
DWIDTH 9 0
BBX 7 8 1 0
BITMAP
3E
7E
E0
C0
C0
E0
7E
3E
ENDCHAR
STARTCHAR 0064
ENCODING 100
SWIDTH 540 0
DWIDTH 9 0
BBX 7 12 0 0
BITMAP
06
06
06
06
3E
7E
66
E6
E6
66
7E
3E
ENDCHAR
STARTCHAR 0065
ENCODING 101
SWIDTH 540 0
DWIDTH 9 0
BBX 7 8 1 0
BITMAP
78
FC
C6
FE
FE
C0
FC
7C
ENDCHAR
STARTCHAR 0066
ENCODING 102
SWIDTH 540 0
DWIDTH 9 0
BBX 7 12 1 0
BITMAP
1E
3E
70
60
FE
FE
60
60
60
60
60
60
ENDCHAR
STARTCHAR 0067
ENCODING 103
SWIDTH 540 0
DWIDTH 9 0
BBX 6 11 1 -3
BITMAP
7C
FC
CC
CC
CC
CC
FC
7C
8C
FC
F8
ENDCHAR
STARTCHAR 0068
ENCODING 104
SWIDTH 540 0
DWIDTH 9 0
BBX 7 12 1 0
BITMAP
C0
C0
C0
C0
F8
FC
CC
CC
CE
CE
CE
CE
ENDCHAR
STARTCHAR 0069
ENCODING 105
SWIDTH 540 0
DWIDTH 9 0
BBX 7 12 1 0
BITMAP
70
70
00
F0
F0
30
30
30
30
30
3E
1E
ENDCHAR
STARTCHAR 006A
ENCODING 106
SWIDTH 540 0
DWIDTH 9 0
BBX 6 15 1 -3
BITMAP
18
18
00
FC
FC
0C
0C
0C
0C
0C
0C
0C
8C
F8
78
ENDCHAR
STARTCHAR 006B
ENCODING 107
SWIDTH 540 0
DWIDTH 9 0
BBX 7 12 1 0
BITMAP
C0
C0
C0
C0
CE
DC
D8
F0
F8
DC
CC
C6
ENDCHAR
STARTCHAR 006C
ENCODING 108
SWIDTH 540 0
DWIDTH 9 0
BBX 7 12 1 0
BITMAP
F0
F0
30
30
30
30
30
30
30
30
3E
1E
ENDCHAR
STARTCHAR 006D
ENCODING 109
SWIDTH 540 0
DWIDTH 9 0
BBX 8 8 0 0
BITMAP
FE
FF
DB
DB
DB
C3
C3
C3
ENDCHAR
STARTCHAR 006E
ENCODING 110
SWIDTH 540 0
DWIDTH 9 0
BBX 7 8 1 0
BITMAP
F8
FC
CC
CC
CE
CE
CE
CE
ENDCHAR
STARTCHAR 006F
ENCODING 111
SWIDTH 540 0
DWIDTH 9 0
BBX 7 8 1 0
BITMAP
78
FC
CE
C6
C6
CE
FC
78
ENDCHAR
STARTCHAR 0070
ENCODING 112
SWIDTH 540 0
DWIDTH 9 0
BBX 7 11 1 -3
BITMAP
F8
FC
CE
C6
C6
CE
FC
FC
C0
C0
C0
ENDCHAR
STARTCHAR 0071
ENCODING 113
SWIDTH 540 0
DWIDTH 9 0
BBX 6 11 1 -3
BITMAP
7C
FC
CC
CC
CC
CC
FC
7C
0C
0C
0C
ENDCHAR
STARTCHAR 0072
ENCODING 114
SWIDTH 540 0
DWIDTH 9 0
BBX 6 8 2 0
BITMAP
FC
FC
C0
C0
C0
C0
C0
C0
ENDCHAR
STARTCHAR 0073
ENCODING 115
SWIDTH 540 0
DWIDTH 9 0
BBX 7 8 1 0
BITMAP
7C
FC
C0
70
3C
8E
FC
F8
ENDCHAR
STARTCHAR 0074
ENCODING 116
SWIDTH 540 0
DWIDTH 9 0
BBX 7 10 1 0
BITMAP
70
70
FE
FE
70
70
70
70
3E
3E
ENDCHAR
STARTCHAR 0075
ENCODING 117
SWIDTH 540 0
DWIDTH 9 0
BBX 6 8 1 0
BITMAP
CC
CC
CC
CC
CC
CC
FC
7C
ENDCHAR
STARTCHAR 0076
ENCODING 118
SWIDTH 540 0
DWIDTH 9 0
BBX 8 8 0 0
BITMAP
E3
63
66
66
36
3C
1C
18
ENDCHAR
STARTCHAR 0077
ENCODING 119
SWIDTH 540 0
DWIDTH 9 0
BBX 8 8 0 0
BITMAP
C1
C3
DB
5B
5F
57
76
66
ENDCHAR
STARTCHAR 0078
ENCODING 120
SWIDTH 540 0
DWIDTH 9 0
BBX 7 8 1 0
BITMAP
C6
EC
78
38
38
7C
CC
C6
ENDCHAR
STARTCHAR 0079
ENCODING 121
SWIDTH 540 0
DWIDTH 9 0
BBX 8 11 0 -3
BITMAP
63
63
66
36
36
1C
1C
1C
18
78
F0
ENDCHAR
STARTCHAR 007A
ENCODING 122
SWIDTH 540 0
DWIDTH 9 0
BBX 6 8 1 0
BITMAP
FC
FC
1C
38
30
60
FC
FC
ENDCHAR
STARTCHAR 007B
ENCODING 123
SWIDTH 540 0
DWIDTH 9 0
BBX 6 15 1 -3
BITMAP
1C
3C
30
30
30
30
E0
E0
30
30
30
30
30
3C
1C
ENDCHAR
STARTCHAR 007C
ENCODING 124
SWIDTH 540 0
DWIDTH 9 0
BBX 2 15 3 -3
BITMAP
C0
C0
C0
C0
C0
C0
C0
C0
C0
C0
C0
C0
C0
C0
C0
ENDCHAR
STARTCHAR 007D
ENCODING 125
SWIDTH 540 0
DWIDTH 9 0
BBX 6 15 1 -3
BITMAP
F0
F0
18
18
18
18
1C
1C
18
18
18
18
38
F0
F0
ENDCHAR
STARTCHAR 007E
ENCODING 126
SWIDTH 540 0
DWIDTH 9 0
BBX 8 3 0 3
BITMAP
71
7F
CE
ENDCHAR
STARTCHAR 00A0
ENCODING 160
SWIDTH 540 0
DWIDTH 9 0
BBX 0 0 0 0
BITMAP
ENDCHAR
STARTCHAR 00A1
ENCODING 161
SWIDTH 540 0
DWIDTH 9 0
BBX 2 11 3 -3
BITMAP
C0
C0
00
C0
C0
C0
C0
C0
C0
C0
C0
ENDCHAR
STARTCHAR 00A2
ENCODING 162
SWIDTH 540 0
DWIDTH 9 0
BBX 7 13 1 -2
BITMAP
18
18
3E
7C
E0
C0
C0
C0
E0
7E
3E
18
18
ENDCHAR
STARTCHAR 00A3
ENCODING 163
SWIDTH 540 0
DWIDTH 9 0
BBX 7 11 1 0
BITMAP
3C
7C
64
60
60
FC
FC
60
60
7E
7E
ENDCHAR
STARTCHAR 00A4
ENCODING 164
SWIDTH 540 0
DWIDTH 9 0
BBX 8 8 0 1
BITMAP
42
FF
7E
66
66
7E
FF
42
ENDCHAR
STARTCHAR 00A5
ENCODING 165
SWIDTH 540 0
DWIDTH 9 0
BBX 8 11 0 0
BITMAP
E3
63
66
36
36
3C
7F
18
7F
18
18
ENDCHAR
STARTCHAR 00A6
ENCODING 166
SWIDTH 540 0
DWIDTH 9 0
BBX 2 15 3 -3
BITMAP
C0
C0
C0
C0
C0
C0
00
00
00
C0
C0
C0
C0
C0
C0
ENDCHAR
STARTCHAR 00A7
ENCODING 167
SWIDTH 540 0
DWIDTH 9 0
BBX 7 13 1 -2
BITMAP
7C
7C
E0
60
78
CC
C6
E6
3C
0C
8C
FC
78
ENDCHAR
STARTCHAR 00A8
ENCODING 168
SWIDTH 540 0
DWIDTH 9 0
BBX 5 2 2 10
BITMAP
D8
D8
ENDCHAR
STARTCHAR 00A9
ENCODING 169
SWIDTH 540 0
DWIDTH 9 0
BBX 8 8 0 0
BITMAP
3C
62
59
F1
F1
59
62
3C
ENDCHAR
STARTCHAR 00AA
ENCODING 170
SWIDTH 540 0
DWIDTH 9 0
BBX 5 6 2 5
BITMAP
F0
18
18
F8
98
F8
ENDCHAR
STARTCHAR 00AB
ENCODING 171
SWIDTH 540 0
DWIDTH 9 0
BBX 6 7 1 1
BITMAP
24
64
CC
D8
4C
64
24
ENDCHAR
STARTCHAR 00AC
ENCODING 172
SWIDTH 540 0
DWIDTH 9 0
BBX 7 6 1 0
BITMAP
FE
FE
06
06
06
06
ENDCHAR
STARTCHAR 00AD
ENCODING 173
SWIDTH 540 0
DWIDTH 9 0
BBX 5 2 2 3
BITMAP
F8
F8
ENDCHAR
STARTCHAR 00AE
ENCODING 174
SWIDTH 540 0
DWIDTH 9 0
BBX 8 8 0 0
BITMAP
3C
62
5D
D5
D9
55
62
3C
ENDCHAR
STARTCHAR 00AF
ENCODING 175
SWIDTH 540 0
DWIDTH 9 0
BBX 5 1 2 10
BITMAP
F8
ENDCHAR
STARTCHAR 00B0
ENCODING 176
SWIDTH 540 0
DWIDTH 9 0
BBX 5 4 2 8
BITMAP
70
98
98
70
ENDCHAR
STARTCHAR 00B1
ENCODING 177
SWIDTH 540 0
DWIDTH 9 0
BBX 7 9 1 0
BITMAP
30
30
FE
FE
30
30
00
FE
FE
ENDCHAR
STARTCHAR 00B2
ENCODING 178
SWIDTH 540 0
DWIDTH 9 0
BBX 5 6 2 5
BITMAP
F0
90
30
60
E0
F8
ENDCHAR
STARTCHAR 00B3
ENCODING 179
SWIDTH 540 0
DWIDTH 9 0
BBX 5 6 2 5
BITMAP
F0
90
70
10
98
F0
ENDCHAR
STARTCHAR 00B4
ENCODING 180
SWIDTH 540 0
DWIDTH 9 0
BBX 3 3 3 9
BITMAP
20
E0
80
ENDCHAR
STARTCHAR 00B5
ENCODING 181
SWIDTH 540 0
DWIDTH 9 0
BBX 6 11 1 -3
BITMAP
CC
CC
CC
CC
CC
CC
FC
FC
C0
C0
C0
ENDCHAR
STARTCHAR 00B6
ENCODING 182
SWIDTH 540 0
DWIDTH 9 0
BBX 8 14 0 -3
BITMAP
3F
7F
FB
FB
FB
7B
3B
1B
1B
1B
1B
1B
1B
1B
ENDCHAR
STARTCHAR 00B7
ENCODING 183
SWIDTH 540 0
DWIDTH 9 0
BBX 3 3 3 3
BITMAP
C0
E0
C0
ENDCHAR
STARTCHAR 00B8
ENCODING 184
SWIDTH 540 0
DWIDTH 9 0
BBX 3 3 3 -3
BITMAP
40
20
E0
ENDCHAR
STARTCHAR 00B9
ENCODING 185
SWIDTH 540 0
DWIDTH 9 0
BBX 5 6 2 5
BITMAP
30
F0
30
30
30
F8
ENDCHAR
STARTCHAR 00BA
ENCODING 186
SWIDTH 540 0
DWIDTH 9 0
BBX 6 7 1 4
BITMAP
38
7C
CC
CC
CC
7C
38
ENDCHAR
STARTCHAR 00BB
ENCODING 187
SWIDTH 540 0
DWIDTH 9 0
BBX 7 7 1 1
BITMAP
88
C8
6C
66
6C
C8
88
ENDCHAR
STARTCHAR 00BC
ENCODING 188
SWIDTH 540 0
DWIDTH 9 0
BBX 8 11 0 0
BITMAP
62
E6
64
6C
08
18
10
33
27
6F
43
ENDCHAR
STARTCHAR 00BD
ENCODING 189
SWIDTH 540 0
DWIDTH 9 0
BBX 8 11 0 0
BITMAP
62
E6
64
6C
08
18
10
37
25
66
47
ENDCHAR
STARTCHAR 00BE
ENCODING 190
SWIDTH 540 0
DWIDTH 9 0
BBX 8 11 0 0
BITMAP
E3
36
76
34
EC
08
18
13
37
2F
63
ENDCHAR
STARTCHAR 00BF
ENCODING 191
SWIDTH 540 0
DWIDTH 9 0
BBX 6 11 1 -3
BITMAP
38
38
00
18
38
70
60
C0
E4
7C
7C
ENDCHAR
STARTCHAR 00C0
ENCODING 192
SWIDTH 540 0
DWIDTH 9 0
BBX 8 15 0 0
BITMAP
10
3C
0C
00
1C
1C
3C
34
36
26
7E
7F
63
63
C3
ENDCHAR
STARTCHAR 00C1
ENCODING 193
SWIDTH 540 0
DWIDTH 9 0
BBX 8 15 0 0
BITMAP
08
1C
10
00
1C
1C
3C
34
36
26
7E
7F
63
63
C3
ENDCHAR
STARTCHAR 00C2
ENCODING 194
SWIDTH 540 0
DWIDTH 9 0
BBX 8 15 0 0
BITMAP
08
1C
34
00
1C
1C
3C
34
36
26
7E
7F
63
63
C3
ENDCHAR
STARTCHAR 00C3
ENCODING 195
SWIDTH 540 0
DWIDTH 9 0
BBX 8 14 0 0
BITMAP
32
3E
2C
1C
1C
3C
34
36
26
7E
7F
63
63
C3
ENDCHAR
STARTCHAR 00C4
ENCODING 196
SWIDTH 540 0
DWIDTH 9 0
BBX 8 14 0 0
BITMAP
36
36
00
1C
1C
3C
34
36
26
7E
7F
63
63
C3
ENDCHAR
STARTCHAR 00C5
ENCODING 197
SWIDTH 540 0
DWIDTH 9 0
BBX 8 13 0 0
BITMAP
1C
34
1C
1C
1C
3C
36
36
66
7E
7F
63
C3
ENDCHAR
STARTCHAR 00C6
ENCODING 198
SWIDTH 540 0
DWIDTH 9 0
BBX 8 11 0 0
BITMAP
1F
1F
1C
3C
3F
2F
7C
7C
6C
6F
CF
ENDCHAR
STARTCHAR 00C7
ENCODING 199
SWIDTH 540 0
DWIDTH 9 0
BBX 8 14 0 -3
BITMAP
1E
3F
71
60
60
E0
E0
60
71
7F
1E
0C
04
1C
ENDCHAR
STARTCHAR 00C8
ENCODING 200
SWIDTH 540 0
DWIDTH 9 0
BBX 7 15 1 0
BITMAP
20
78
18
00
FC
FC
C0
C0
FC
FC
C0
C0
C0
FE
FE
ENDCHAR
STARTCHAR 00C9
ENCODING 201
SWIDTH 540 0
DWIDTH 9 0
BBX 7 15 1 0
BITMAP
10
38
20
00
FC
FC
C0
C0
FC
FC
C0
C0
C0
FE
FE
ENDCHAR
STARTCHAR 00CA
ENCODING 202
SWIDTH 540 0
DWIDTH 9 0
BBX 7 15 1 0
BITMAP
10
38
68
00
FC
FC
C0
C0
FC
FC
C0
C0
C0
FE
FE
ENDCHAR
STARTCHAR 00CB
ENCODING 203
SWIDTH 540 0
DWIDTH 9 0
BBX 7 14 1 0
BITMAP
6C
6C
00
FC
FC
C0
C0
FC
FC
C0
C0
C0
FE
FE
ENDCHAR
STARTCHAR 00CC
ENCODING 204
SWIDTH 540 0
DWIDTH 9 0
BBX 7 15 1 0
BITMAP
20
78
18
00
FE
FE
30
30
30
30
30
30
30
FE
FE
ENDCHAR
STARTCHAR 00CD
ENCODING 205
SWIDTH 540 0
DWIDTH 9 0
BBX 7 15 1 0
BITMAP
10
38
20
00
FE
FE
30
30
30
30
30
30
30
FE
FE
ENDCHAR
STARTCHAR 00CE
ENCODING 206
SWIDTH 540 0
DWIDTH 9 0
BBX 7 15 1 0
BITMAP
10
38
68
00
FE
FE
30
30
30
30
30
30
30
FE
FE
ENDCHAR
STARTCHAR 00CF
ENCODING 207
SWIDTH 540 0
DWIDTH 9 0
BBX 7 14 1 0
BITMAP
6C
6C
00
FE
FE
30
30
30
30
30
30
30
FE
FE
ENDCHAR
STARTCHAR 00D0
ENCODING 208
SWIDTH 540 0
DWIDTH 9 0
BBX 8 11 0 0
BITMAP
7C
7E
67
63
FB
FB
63
63
67
7E
7C
ENDCHAR
STARTCHAR 00D1
ENCODING 209
SWIDTH 540 0
DWIDTH 9 0
BBX 7 14 1 0
BITMAP
64
7C
58
C6
C6
E6
E6
F6
D6
DE
CE
CE
CE
C6
ENDCHAR
STARTCHAR 00D2
ENCODING 210
SWIDTH 540 0
DWIDTH 9 0
BBX 8 15 0 0
BITMAP
10
3C
0C
00
3C
7E
67
63
E3
E3
E3
63
67
7E
3C
ENDCHAR
STARTCHAR 00D3
ENCODING 211
SWIDTH 540 0
DWIDTH 9 0
BBX 8 15 0 0
BITMAP
08
1C
10
00
3C
7E
67
63
E3
E3
E3
63
67
7E
3C
ENDCHAR
STARTCHAR 00D4
ENCODING 212
SWIDTH 540 0
DWIDTH 9 0
BBX 8 15 0 0
BITMAP
08
1C
34
00
3C
7E
67
63
E3
E3
E3
63
67
7E
3C
ENDCHAR
STARTCHAR 00D5
ENCODING 213
SWIDTH 540 0
DWIDTH 9 0
BBX 8 14 0 0
BITMAP
32
3E
2C
3C
7E
67
63
E3
E3
E3
63
67
7E
3C
ENDCHAR
STARTCHAR 00D6
ENCODING 214
SWIDTH 540 0
DWIDTH 9 0
BBX 8 14 0 0
BITMAP
36
36
00
3C
7E
67
63
E3
E3
E3
63
67
7E
3C
ENDCHAR
STARTCHAR 00D7
ENCODING 215
SWIDTH 540 0
DWIDTH 9 0
BBX 7 7 1 1
BITMAP
44
EC
78
38
7C
CE
04
ENDCHAR
STARTCHAR 00D8
ENCODING 216
SWIDTH 540 0
DWIDTH 9 0
BBX 8 12 0 -1
BITMAP
3E
7E
67
6F
EF
FB
FB
73
67
7E
7C
40
ENDCHAR
STARTCHAR 00D9
ENCODING 217
SWIDTH 540 0
DWIDTH 9 0
BBX 7 15 1 0
BITMAP
20
70
10
00
C6
C6
C6
C6
C6
C6
C6
C6
CE
FC
78
ENDCHAR
STARTCHAR 00DA
ENCODING 218
SWIDTH 540 0
DWIDTH 9 0
BBX 7 15 1 0
BITMAP
08
38
20
00
C6
C6
C6
C6
C6
C6
C6
C6
CE
FC
78
ENDCHAR
STARTCHAR 00DB
ENCODING 219
SWIDTH 540 0
DWIDTH 9 0
BBX 7 15 1 0
BITMAP
10
38
68
00
C6
C6
C6
C6
C6
C6
C6
C6
CE
FC
78
ENDCHAR
STARTCHAR 00DC
ENCODING 220
SWIDTH 540 0
DWIDTH 9 0
BBX 7 14 1 0
BITMAP
6C
6C
00
C6
C6
C6
C6
C6
C6
C6
C6
CE
FC
78
ENDCHAR
STARTCHAR 00DD
ENCODING 221
SWIDTH 540 0
DWIDTH 9 0
BBX 8 15 0 0
BITMAP
04
1C
10
00
E3
63
66
36
36
1C
18
18
18
18
18
ENDCHAR
STARTCHAR 00DE
ENCODING 222
SWIDTH 540 0
DWIDTH 9 0
BBX 7 11 1 0
BITMAP
C0
C0
F8
FE
C6
C6
CE
FC
F8
C0
C0
ENDCHAR
STARTCHAR 00DF
ENCODING 223
SWIDTH 540 0
DWIDTH 9 0
BBX 7 12 1 0
BITMAP
78
FC
CC
CC
D8
D8
D8
DC
C6
D6
DE
DC
ENDCHAR
STARTCHAR 00E0
ENCODING 224
SWIDTH 540 0
DWIDTH 9 0
BBX 7 12 1 0
BITMAP
20
70
18
00
78
7C
0C
7E
FE
CE
FE
7E
ENDCHAR
STARTCHAR 00E1
ENCODING 225
SWIDTH 540 0
DWIDTH 9 0
BBX 7 12 1 0
BITMAP
08
38
20
00
78
7C
0C
7E
FE
CE
FE
7E
ENDCHAR
STARTCHAR 00E2
ENCODING 226
SWIDTH 540 0
DWIDTH 9 0
BBX 7 12 1 0
BITMAP
10
38
68
00
78
7C
0C
7E
FE
CE
FE
7E
ENDCHAR
STARTCHAR 00E3
ENCODING 227
SWIDTH 540 0
DWIDTH 9 0
BBX 7 12 1 0
BITMAP
64
7C
58
00
78
7C
0C
7E
FE
CE
FE
7E
ENDCHAR
STARTCHAR 00E4
ENCODING 228
SWIDTH 540 0
DWIDTH 9 0
BBX 7 12 1 0
BITMAP
6C
6C
00
00
78
7C
0C
7E
FE
CE
FE
7E
ENDCHAR
STARTCHAR 00E5
ENCODING 229
SWIDTH 540 0
DWIDTH 9 0
BBX 7 12 1 0
BITMAP
38
68
38
00
78
7C
0C
7E
FE
CE
FE
7E
ENDCHAR
STARTCHAR 00E6
ENCODING 230
SWIDTH 540 0
DWIDTH 9 0
BBX 8 8 0 0
BITMAP
76
7F
09
7F
7F
C8
7F
77
ENDCHAR
STARTCHAR 00E7
ENCODING 231
SWIDTH 540 0
DWIDTH 9 0
BBX 7 11 1 -3
BITMAP
3E
7C
E0
C0
C0
E0
FE
3E
18
08
38
ENDCHAR
STARTCHAR 00E8
ENCODING 232
SWIDTH 540 0
DWIDTH 9 0
BBX 7 12 1 0
BITMAP
20
70
18
00
78
FC
C6
FE
FE
C0
FC
7C
ENDCHAR
STARTCHAR 00E9
ENCODING 233
SWIDTH 540 0
DWIDTH 9 0
BBX 7 12 1 0
BITMAP
08
38
30
00
78
FC
C6
FE
FE
C0
FC
7C
ENDCHAR
STARTCHAR 00EA
ENCODING 234
SWIDTH 540 0
DWIDTH 9 0
BBX 7 12 1 0
BITMAP
10
38
68
00
78
FC
C6
FE
FE
C0
FC
7C
ENDCHAR
STARTCHAR 00EB
ENCODING 235
SWIDTH 540 0
DWIDTH 9 0
BBX 7 12 1 0
BITMAP
6C
6C
00
00
78
FC
C6
FE
FE
C0
FC
7C
ENDCHAR
STARTCHAR 00EC
ENCODING 236
SWIDTH 540 0
DWIDTH 9 0
BBX 7 12 1 0
BITMAP
20
70
10
00
F0
F0
30
30
30
32
3E
1E
ENDCHAR
STARTCHAR 00ED
ENCODING 237
SWIDTH 540 0
DWIDTH 9 0
BBX 7 12 1 0
BITMAP
10
38
20
00
F0
F0
30
30
30
32
3E
1E
ENDCHAR
STARTCHAR 00EE
ENCODING 238
SWIDTH 540 0
DWIDTH 9 0
BBX 7 12 1 0
BITMAP
30
78
48
00
F0
F0
30
30
30
32
3E
1E
ENDCHAR
STARTCHAR 00EF
ENCODING 239
SWIDTH 540 0
DWIDTH 9 0
BBX 7 12 1 0
BITMAP
CC
CC
00
00
F0
F0
30
30
30
32
3E
1E
ENDCHAR
STARTCHAR 00F0
ENCODING 240
SWIDTH 540 0
DWIDTH 9 0
BBX 7 12 1 0
BITMAP
30
3E
3C
0C
3C
7E
EE
C6
CE
CC
FC
78
ENDCHAR
STARTCHAR 00F1
ENCODING 241
SWIDTH 540 0
DWIDTH 9 0
BBX 7 12 1 0
BITMAP
64
7C
58
00
F8
FC
CC
CC
CE
CE
CE
CE
ENDCHAR
STARTCHAR 00F2
ENCODING 242
SWIDTH 540 0
DWIDTH 9 0
BBX 7 12 1 0
BITMAP
20
70
18
00
78
FC
CE
C6
C6
CE
FC
78
ENDCHAR
STARTCHAR 00F3
ENCODING 243
SWIDTH 540 0
DWIDTH 9 0
BBX 7 12 1 0
BITMAP
10
38
20
00
78
FC
CE
C6
C6
CE
FC
78
ENDCHAR
STARTCHAR 00F4
ENCODING 244
SWIDTH 540 0
DWIDTH 9 0
BBX 7 12 1 0
BITMAP
10
38
68
00
78
FC
CE
C6
C6
CE
FC
78
ENDCHAR
STARTCHAR 00F5
ENCODING 245
SWIDTH 540 0
DWIDTH 9 0
BBX 7 12 1 0
BITMAP
64
7C
58
00
78
FC
CE
C6
C6
CE
FC
78
ENDCHAR
STARTCHAR 00F6
ENCODING 246
SWIDTH 540 0
DWIDTH 9 0
BBX 7 12 1 0
BITMAP
6C
6C
00
00
78
FC
CE
C6
C6
CE
FC
78
ENDCHAR
STARTCHAR 00F7
ENCODING 247
SWIDTH 540 0
DWIDTH 9 0
BBX 7 8 1 0
BITMAP
30
30
00
FE
FE
00
30
30
ENDCHAR
STARTCHAR 00F8
ENCODING 248
SWIDTH 540 0
DWIDTH 9 0
BBX 7 8 1 0
BITMAP
7E
FC
CE
D6
E6
EE
FC
F8
ENDCHAR
STARTCHAR 00F9
ENCODING 249
SWIDTH 540 0
DWIDTH 9 0
BBX 6 12 1 0
BITMAP
20
70
18
00
CC
CC
CC
CC
CC
CC
FC
7C
ENDCHAR
STARTCHAR 00FA
ENCODING 250
SWIDTH 540 0
DWIDTH 9 0
BBX 6 12 1 0
BITMAP
10
38
20
00
CC
CC
CC
CC
CC
CC
FC
7C
ENDCHAR
STARTCHAR 00FB
ENCODING 251
SWIDTH 540 0
DWIDTH 9 0
BBX 6 12 1 0
BITMAP
10
38
68
00
CC
CC
CC
CC
CC
CC
FC
7C
ENDCHAR
STARTCHAR 00FC
ENCODING 252
SWIDTH 540 0
DWIDTH 9 0
BBX 6 12 1 0
BITMAP
6C
6C
00
00
CC
CC
CC
CC
CC
CC
FC
7C
ENDCHAR
STARTCHAR 00FD
ENCODING 253
SWIDTH 540 0
DWIDTH 9 0
BBX 8 15 0 -3
BITMAP
08
1C
10
00
63
63
66
36
36
1C
1C
1C
18
78
F0
ENDCHAR
STARTCHAR 00FE
ENCODING 254
SWIDTH 540 0
DWIDTH 9 0
BBX 7 15 1 -3
BITMAP
C0
C0
C0
C0
F8
FC
CE
C6
C6
CE
FC
FC
C0
C0
C0
ENDCHAR
STARTCHAR 00FF
ENCODING 255
SWIDTH 540 0
DWIDTH 9 0
BBX 8 15 0 -3
BITMAP
36
36
00
00
63
63
66
36
36
1C
1C
1C
18
78
F0
ENDCHAR
STARTCHAR 0152
ENCODING 140
SWIDTH 540 0
DWIDTH 9 0
BBX 8 11 0 0
BITMAP
3F
7F
6C
CC
CF
CF
CC
CC
6C
7F
3F
ENDCHAR
STARTCHAR 0153
ENCODING 156
SWIDTH 540 0
DWIDTH 9 0
BBX 8 8 0 0
BITMAP
76
7F
D9
CF
CF
D8
7F
77
ENDCHAR
STARTCHAR 0160
ENCODING 138
SWIDTH 540 0
DWIDTH 9 0
BBX 7 15 1 0
BITMAP
48
38
10
00
7C
FC
C4
C0
F0
7C
1E
06
86
FC
F8
ENDCHAR
STARTCHAR 0161
ENCODING 154
SWIDTH 540 0
DWIDTH 9 0
BBX 7 12 1 0
BITMAP
48
38
10
00
7C
FC
C0
70
3C
8E
FC
F8
ENDCHAR
STARTCHAR 0178
ENCODING 159
SWIDTH 540 0
DWIDTH 9 0
BBX 8 14 0 0
BITMAP
36
36
00
E3
63
66
36
36
1C
18
18
18
18
18
ENDCHAR
STARTCHAR 017D
ENCODING 142
SWIDTH 540 0
DWIDTH 9 0
BBX 7 15 1 0
BITMAP
48
38
10
00
FE
FC
0C
18
18
30
60
60
C0
FE
FE
ENDCHAR
STARTCHAR 017E
ENCODING 158
SWIDTH 540 0
DWIDTH 9 0
BBX 6 12 1 0
BITMAP
48
38
10
00
FC
FC
1C
38
30
60
FC
FC
ENDCHAR
STARTCHAR 0192
ENCODING 131
SWIDTH 540 0
DWIDTH 9 0
BBX 8 15 0 -3
BITMAP
0F
1F
38
30
7F
7F
30
30
30
30
30
30
30
F0
E0
ENDCHAR
STARTCHAR 02C6
ENCODING 136
SWIDTH 540 0
DWIDTH 9 0
BBX 4 3 2 9
BITMAP
20
70
D0
ENDCHAR
STARTCHAR 02DC
ENCODING 152
SWIDTH 540 0
DWIDTH 9 0
BBX 5 3 2 8
BITMAP
C8
F8
B0
ENDCHAR
STARTCHAR 2013
ENCODING 150
SWIDTH 540 0
DWIDTH 9 0
BBX 7 2 1 3
BITMAP
FE
FE
ENDCHAR
STARTCHAR 2014
ENCODING 151
SWIDTH 540 0
DWIDTH 9 0
BBX 9 2 0 3
BITMAP
FF80
FF80
ENDCHAR
STARTCHAR 2018
ENCODING 145
SWIDTH 540 0
DWIDTH 9 0
BBX 4 5 2 7
BITMAP
30
60
60
E0
60
ENDCHAR
STARTCHAR 2019
ENCODING 146
SWIDTH 540 0
DWIDTH 9 0
BBX 3 5 3 7
BITMAP
E0
E0
60
60
80
ENDCHAR
STARTCHAR 201A
ENCODING 130
SWIDTH 540 0
DWIDTH 9 0
BBX 4 5 2 -3
BITMAP
70
70
70
20
C0
ENDCHAR
STARTCHAR 201C
ENCODING 147
SWIDTH 540 0
DWIDTH 9 0
BBX 7 5 1 7
BITMAP
66
CC
8C
CC
CC
ENDCHAR
STARTCHAR 201D
ENCODING 148
SWIDTH 540 0
DWIDTH 9 0
BBX 7 5 1 7
BITMAP
66
EE
66
44
88
ENDCHAR
STARTCHAR 201E
ENCODING 132
SWIDTH 540 0
DWIDTH 9 0
BBX 8 5 0 -3
BITMAP
22
77
77
22
CC
ENDCHAR
STARTCHAR 2020
ENCODING 134
SWIDTH 540 0
DWIDTH 9 0
BBX 6 13 1 -2
BITMAP
30
30
30
FC
FC
30
30
30
30
30
30
30
10
ENDCHAR
STARTCHAR 2021
ENCODING 135
SWIDTH 540 0
DWIDTH 9 0
BBX 6 13 1 -2
BITMAP
30
30
30
FC
FC
30
30
FC
FC
30
30
30
10
ENDCHAR
STARTCHAR 2022
ENCODING 149
SWIDTH 540 0
DWIDTH 9 0
BBX 5 5 2 3
BITMAP
70
F0
F8
F0
70
ENDCHAR
STARTCHAR 2026
ENCODING 133
SWIDTH 540 0
DWIDTH 9 0
BBX 7 2 1 0
BITMAP
B6
B6
ENDCHAR
STARTCHAR 2030
ENCODING 137
SWIDTH 540 0
DWIDTH 9 0
BBX 8 11 0 0
BITMAP
60
A0
A1
E6
18
60
33
75
5D
75
33
ENDCHAR
STARTCHAR 2039
ENCODING 139
SWIDTH 540 0
DWIDTH 9 0
BBX 3 8 3 0
BITMAP
60
60
E0
C0
C0
E0
60
60
ENDCHAR
STARTCHAR 203A
ENCODING 155
SWIDTH 540 0
DWIDTH 9 0
BBX 4 8 3 1
BITMAP
C0
C0
E0
70
70
E0
C0
C0
ENDCHAR
STARTCHAR 20AC
ENCODING 128
SWIDTH 540 0
DWIDTH 9 0
BBX 7 11 1 0
BITMAP
1E
3E
70
60
FC
E0
F8
60
70
3E
1E
ENDCHAR
STARTCHAR 2122
ENCODING 153
SWIDTH 540 0
DWIDTH 9 0
BBX 8 5 0 6
BITMAP
E9
4F
4F
4D
49
ENDCHAR
ENDFONT
