STARTFONT 2.1
COMMENT
COMMENT Converted from OpenType font "UbuntuMono-Regular.ttf" by "otf2bdf 3.0".
COMMENT
FONT -FreeType-ubuntu mono-Medium-R-Normal--22-160-100-100-P-83-Windows-cp1252
SIZE 16 100 100
FONTBOUNDINGBOX 11 23 0 -4
STARTPROPERTIES 19
FOUNDRY "FreeType"
FAMILY_NAME "ubuntu mono"
WEIGHT_NAME "Medium"
SLANT "R"
SETWIDTH_NAME "Normal"
ADD_STYLE_NAME ""
PIXEL_SIZE 22
POINT_SIZE 160
RESOLUTION_X 100
RESOLUTION_Y 100
SPACING "P"
AVERAGE_WIDTH 83
CHARSET_REGISTRY "Windows"
CHARSET_ENCODING "cp1252"
FONT_ASCENT 18
FONT_DESCENT 3
COPYRIGHT "Copyright 2011 Canonical Ltd.  Licensed under the Ubuntu Font Licence 1.0"
_OTF_FONTFILE "UbuntuMono-Regular.ttf"
_OTF_PSNAME "UbuntuMono-Regular"
ENDPROPERTIES
CHARS 223
STARTCHAR 0000
ENCODING 157
SWIDTH 495 0
DWIDTH 11 0
BBX 0 0 0 0
BITMAP
ENDCHAR
STARTCHAR 0008
ENCODING 8
SWIDTH 495 0
DWIDTH 11 0
BBX 0 0 0 0
BITMAP
ENDCHAR
STARTCHAR 0009
ENCODING 9
SWIDTH 495 0
DWIDTH 11 0
BBX 0 0 0 0
BITMAP
ENDCHAR
STARTCHAR 000D
ENCODING 13
SWIDTH 495 0
DWIDTH 11 0
BBX 0 0 0 0
BITMAP
ENDCHAR
STARTCHAR 001D
ENCODING 29
SWIDTH 495 0
DWIDTH 11 0
BBX 0 0 0 0
BITMAP
ENDCHAR
STARTCHAR 0020
ENCODING 32
SWIDTH 495 0
DWIDTH 11 0
BBX 0 0 0 0
BITMAP
ENDCHAR
STARTCHAR 0021
ENCODING 33
SWIDTH 495 0
DWIDTH 11 0
BBX 3 14 4 0
BITMAP
C0
C0
C0
C0
C0
40
40
40
40
00
00
E0
E0
E0
ENDCHAR
STARTCHAR 0022
ENCODING 34
SWIDTH 495 0
DWIDTH 11 0
BBX 5 5 3 10
BITMAP
D8
D8
88
88
88
ENDCHAR
STARTCHAR 0023
ENCODING 35
SWIDTH 495 0
DWIDTH 11 0
BBX 9 14 1 0
BITMAP
1980
1100
1100
3300
FF80
FF80
3300
2200
6600
FF80
FF80
6600
4400
C400
ENDCHAR
STARTCHAR 0024
ENCODING 36
SWIDTH 495 0
DWIDTH 11 0
BBX 9 17 1 -2
BITMAP
0800
0800
3F00
7F00
6100
C000
6000
7800
3E00
0700
0380
0180
4380
FF00
7E00
0800
0800
ENDCHAR
STARTCHAR 0025
ENCODING 37
SWIDTH 495 0
DWIDTH 11 0
BBX 11 14 0 0
BITMAP
7040
58C0
C980
C900
CB00
5A00
7600
0DC0
0B40
1A60
1260
3260
6340
41C0
ENDCHAR
STARTCHAR 0026
ENCODING 38
SWIDTH 495 0
DWIDTH 11 0
BBX 9 14 1 0
BITMAP
3C00
7E00
6600
4600
6400
3800
7180
5900
CD00
C700
C300
C700
FD80
7980
ENDCHAR
STARTCHAR 0027
ENCODING 39
SWIDTH 495 0
DWIDTH 11 0
BBX 1 6 5 9
BITMAP
80
80
80
80
80
80
ENDCHAR
STARTCHAR 0028
ENCODING 40
SWIDTH 495 0
DWIDTH 11 0
BBX 6 18 2 -4
BITMAP
04
0C
18
30
20
60
60
40
C0
C0
40
60
60
30
30
18
0C
04
ENDCHAR
STARTCHAR 0029
ENCODING 41
SWIDTH 495 0
DWIDTH 11 0
BBX 5 18 3 -4
BITMAP
80
C0
60
30
30
18
18
08
08
08
08
18
18
10
30
60
C0
80
ENDCHAR
STARTCHAR 002A
ENCODING 42
SWIDTH 495 0
DWIDTH 11 0
BBX 9 8 1 6
BITMAP
0800
0800
4900
FF80
1C00
1400
3600
2200
ENDCHAR
STARTCHAR 002B
ENCODING 43
SWIDTH 495 0
DWIDTH 11 0
BBX 9 10 1 1
BITMAP
0800
0800
0800
0800
FF80
FF80
0800
0800
0800
0800
ENDCHAR
STARTCHAR 002C
ENCODING 44
SWIDTH 495 0
DWIDTH 11 0
BBX 5 6 3 -3
BITMAP
30
78
38
10
30
C0
ENDCHAR
STARTCHAR 002D
ENCODING 45
SWIDTH 495 0
DWIDTH 11 0
BBX 5 2 3 5
BITMAP
F8
F8
ENDCHAR
STARTCHAR 002E
ENCODING 46
SWIDTH 495 0
DWIDTH 11 0
BBX 3 3 4 0
BITMAP
E0
E0
E0
ENDCHAR
STARTCHAR 002F
ENCODING 47
SWIDTH 495 0
DWIDTH 11 0
BBX 7 19 2 -4
BITMAP
06
06
06
04
0C
0C
08
18
18
10
30
30
20
60
60
60
C0
C0
C0
ENDCHAR
STARTCHAR 0030
ENCODING 48
SWIDTH 495 0
DWIDTH 11 0
BBX 9 14 1 0
BITMAP
1C00
7F00
6300
C180
C180
C980
DD80
C980
C180
C180
C180
6300
7F00
1C00
ENDCHAR
STARTCHAR 0031
ENCODING 49
SWIDTH 495 0
DWIDTH 11 0
BBX 8 14 2 0
BITMAP
18
38
78
D8
18
18
18
18
18
18
18
18
FF
FF
ENDCHAR
STARTCHAR 0032
ENCODING 50
SWIDTH 495 0
DWIDTH 11 0
BBX 9 14 1 0
BITMAP
3E00
FF00
4300
0300
0300
0300
0600
0C00
1800
3000
2000
6000
7F80
7F80
ENDCHAR
STARTCHAR 0033
ENCODING 51
SWIDTH 495 0
DWIDTH 11 0
BBX 9 14 1 0
BITMAP
3C00
7F00
4300
0300
0300
0700
1E00
1E00
0300
0180
0180
4300
FF00
7E00
ENDCHAR
STARTCHAR 0034
ENCODING 52
SWIDTH 495 0
DWIDTH 11 0
BBX 9 14 1 0
BITMAP
0700
0700
0F00
1F00
3B00
3300
6300
4300
C300
FF80
FF80
0300
0300
0300
ENDCHAR
STARTCHAR 0035
ENCODING 53
SWIDTH 495 0
DWIDTH 11 0
BBX 8 14 2 0
BITMAP
7E
7E
40
40
40
F8
FE
0E
03
03
03
86
FE
F8
ENDCHAR
STARTCHAR 0036
ENCODING 54
SWIDTH 495 0
DWIDTH 11 0
BBX 9 14 1 0
BITMAP
0700
1F00
3800
6000
6000
FE00
FF00
C380
C180
C180
C180
6300
7F00
3E00
ENDCHAR
STARTCHAR 0037
ENCODING 55
SWIDTH 495 0
DWIDTH 11 0
BBX 9 14 1 0
BITMAP
FF80
FF80
0180
0300
0600
0600
0C00
0C00
0800
1800
1800
1800
1000
3000
ENDCHAR
STARTCHAR 0038
ENCODING 56
SWIDTH 495 0
DWIDTH 11 0
BBX 9 14 1 0
BITMAP
3E00
7F00
6300
C180
C100
6300
7E00
3F00
6380
C180
C180
E380
7F00
3E00
ENDCHAR
STARTCHAR 0039
ENCODING 57
SWIDTH 495 0
DWIDTH 11 0
BBX 9 14 1 0
BITMAP
3C00
7F00
6300
C180
C180
C180
E180
7F80
3F80
0300
0300
0E00
7C00
7000
ENDCHAR
STARTCHAR 003A
ENCODING 58
SWIDTH 495 0
DWIDTH 11 0
BBX 3 10 4 0
BITMAP
E0
E0
E0
00
00
00
00
E0
E0
E0
ENDCHAR
STARTCHAR 003B
ENCODING 59
SWIDTH 495 0
DWIDTH 11 0
BBX 4 13 3 -3
BITMAP
70
70
70
00
00
00
00
70
70
70
30
60
C0
ENDCHAR
STARTCHAR 003C
ENCODING 60
SWIDTH 495 0
DWIDTH 11 0
BBX 9 9 1 1
BITMAP
0180
0780
1F00
7800
C000
7800
1F00
0780
0180
ENDCHAR
STARTCHAR 003D
ENCODING 61
SWIDTH 495 0
DWIDTH 11 0
BBX 9 7 1 2
BITMAP
FF80
FF80
0000
0000
0000
FF80
FF80
ENDCHAR
STARTCHAR 003E
ENCODING 62
SWIDTH 495 0
DWIDTH 11 0
BBX 9 9 1 1
BITMAP
C000
F000
7C00
0F80
0180
0F80
7C00
F000
C000
ENDCHAR
STARTCHAR 003F
ENCODING 63
SWIDTH 495 0
DWIDTH 11 0
BBX 7 14 2 0
BITMAP
7C
FE
86
06
06
0C
18
30
30
00
00
30
30
30
ENDCHAR
STARTCHAR 0040
ENCODING 64
SWIDTH 495 0
DWIDTH 11 0
BBX 9 17 1 -3
BITMAP
1E00
3F00
7180
6180
C080
C780
CF80
D880
D880
D880
D880
CF80
C780
6000
7000
3F00
0F00
ENDCHAR
STARTCHAR 0041
ENCODING 65
SWIDTH 495 0
DWIDTH 11 0
BBX 11 14 0 0
BITMAP
0E00
0E00
0B00
1B00
1B00
1100
3180
3180
2080
7FC0
7FC0
60C0
40C0
C060
ENDCHAR
STARTCHAR 0042
ENCODING 66
SWIDTH 495 0
DWIDTH 11 0
BBX 9 14 1 0
BITMAP
FC00
FF00
C300
C300
C300
C300
FE00
FF00
C380
C180
C180
C380
FF00
FE00
ENDCHAR
STARTCHAR 0043
ENCODING 67
SWIDTH 495 0
DWIDTH 11 0
BBX 9 14 1 0
BITMAP
1F00
3F80
7080
6000
C000
C000
C000
C000
C000
C000
6000
7080
3F80
1F00
ENDCHAR
STARTCHAR 0044
ENCODING 68
SWIDTH 495 0
DWIDTH 11 0
BBX 9 14 1 0
BITMAP
FC00
FE00
C700
C380
C180
C180
C180
C180
C180
C180
C380
C700
FE00
FC00
ENDCHAR
STARTCHAR 0045
ENCODING 69
SWIDTH 495 0
DWIDTH 11 0
BBX 8 14 2 0
BITMAP
FF
FF
C0
C0
C0
C0
FE
FE
C0
C0
C0
C0
FF
FF
ENDCHAR
STARTCHAR 0046
ENCODING 70
SWIDTH 495 0
DWIDTH 11 0
BBX 8 14 2 0
BITMAP
FF
FF
C0
C0
C0
C0
FE
FE
C0
C0
C0
C0
C0
C0
ENDCHAR
STARTCHAR 0047
ENCODING 71
SWIDTH 495 0
DWIDTH 11 0
BBX 9 14 1 0
BITMAP
1F00
3F80
7080
6000
C000
C000
C000
C180
C180
C180
6180
7180
3F80
1F80
ENDCHAR
STARTCHAR 0048
ENCODING 72
SWIDTH 495 0
DWIDTH 11 0
BBX 9 14 1 0
BITMAP
C180
C180
C180
C180
C180
C180
FF80
FF80
C180
C180
C180
C180
C180
C180
ENDCHAR
STARTCHAR 0049
ENCODING 73
SWIDTH 495 0
DWIDTH 11 0
BBX 7 14 2 0
BITMAP
FE
FE
10
10
10
10
10
10
10
10
10
10
FE
FE
ENDCHAR
STARTCHAR 004A
ENCODING 74
SWIDTH 495 0
DWIDTH 11 0
BBX 8 14 1 0
BITMAP
3F
3F
03
03
03
03
03
03
03
03
03
43
FE
7C
ENDCHAR
STARTCHAR 004B
ENCODING 75
SWIDTH 495 0
DWIDTH 11 0
BBX 10 14 1 0
BITMAP
C180
C300
C700
C600
CC00
D800
F000
D800
CC00
C600
C300
C300
C180
C1C0
ENDCHAR
STARTCHAR 004C
ENCODING 76
SWIDTH 495 0
DWIDTH 11 0
BBX 8 14 2 0
BITMAP
C0
C0
C0
C0
C0
C0
C0
C0
C0
C0
C0
C0
FF
FF
ENDCHAR
STARTCHAR 004D
ENCODING 77
SWIDTH 495 0
DWIDTH 11 0
BBX 9 14 1 0
BITMAP
6300
6380
E380
E380
F780
D580
D580
DD80
C980
C180
C180
C180
8080
8080
ENDCHAR
STARTCHAR 004E
ENCODING 78
SWIDTH 495 0
DWIDTH 11 0
BBX 9 14 1 0
BITMAP
C180
E180
E180
F180
D180
D980
C980
CD80
C580
C780
C380
C380
C380
C180
ENDCHAR
STARTCHAR 004F
ENCODING 79
SWIDTH 495 0
DWIDTH 11 0
BBX 9 14 1 0
BITMAP
3E00
7F00
6380
C180
C180
C180
8080
8080
C180
C180
C180
E380
7F00
3E00
ENDCHAR
STARTCHAR 0050
ENCODING 80
SWIDTH 495 0
DWIDTH 11 0
BBX 8 14 2 0
BITMAP
FC
FE
87
83
83
83
87
FE
FC
80
80
80
80
80
ENDCHAR
STARTCHAR 0051
ENCODING 81
SWIDTH 495 0
DWIDTH 11 0
BBX 9 17 1 -3
BITMAP
3E00
7F00
6380
C180
C180
C180
8080
8080
C180
C180
C180
E380
7F00
3E00
0C00
0F80
0380
ENDCHAR
STARTCHAR 0052
ENCODING 82
SWIDTH 495 0
DWIDTH 11 0
BBX 9 14 1 0
BITMAP
FC00
FF00
C300
C300
C100
C100
C300
FE00
FC00
C600
C600
C300
C100
C180
ENDCHAR
STARTCHAR 0053
ENCODING 83
SWIDTH 495 0
DWIDTH 11 0
BBX 9 14 1 0
BITMAP
3E00
7F00
6100
4000
6000
7000
3C00
1F00
0300
0180
0180
4380
FF00
7E00
ENDCHAR
STARTCHAR 0054
ENCODING 84
SWIDTH 495 0
DWIDTH 11 0
BBX 9 14 1 0
BITMAP
FF80
FF80
0800
0800
0800
0800
0800
0800
0800
0800
0800
0800
0800
0800
ENDCHAR
STARTCHAR 0055
ENCODING 85
SWIDTH 495 0
DWIDTH 11 0
BBX 9 14 1 0
BITMAP
C180
C180
C180
C180
C180
C180
C180
C180
C180
C180
C180
E380
7F00
3E00
ENDCHAR
STARTCHAR 0056
ENCODING 86
SWIDTH 495 0
DWIDTH 11 0
BBX 11 14 0 0
BITMAP
C060
6040
60C0
60C0
60C0
3180
3180
3180
1100
1B00
1B00
0A00
0E00
0E00
ENDCHAR
STARTCHAR 0057
ENCODING 87
SWIDTH 495 0
DWIDTH 11 0
BBX 9 14 1 0
BITMAP
8080
8080
C180
C180
C180
C980
DD80
D580
D580
F780
E380
E380
E300
6300
ENDCHAR
STARTCHAR 0058
ENCODING 88
SWIDTH 495 0
DWIDTH 11 0
BBX 9 14 1 0
BITMAP
C180
6300
6300
3600
3600
1C00
1C00
1C00
3E00
3600
6300
6300
C180
C180
ENDCHAR
STARTCHAR 0059
ENCODING 89
SWIDTH 495 0
DWIDTH 11 0
BBX 11 14 0 0
BITMAP
C060
60C0
60C0
3180
3180
1B00
1B00
0E00
0E00
0400
0400
0400
0400
0400
ENDCHAR
STARTCHAR 005A
ENCODING 90
SWIDTH 495 0
DWIDTH 11 0
BBX 9 14 1 0
BITMAP
7F80
7F80
0300
0300
0600
0C00
0C00
1800
3000
3000
6000
6000
FF80
FF80
ENDCHAR
STARTCHAR 005B
ENCODING 91
SWIDTH 495 0
DWIDTH 11 0
BBX 5 18 3 -4
BITMAP
F8
C0
C0
C0
C0
C0
C0
C0
C0
C0
C0
C0
C0
C0
C0
C0
C0
F8
ENDCHAR
STARTCHAR 005C
ENCODING 92
SWIDTH 495 0
DWIDTH 11 0
BBX 7 19 2 -4
BITMAP
C0
C0
C0
40
60
60
20
30
30
10
18
18
08
0C
0C
0C
06
06
06
ENDCHAR
STARTCHAR 005D
ENCODING 93
SWIDTH 495 0
DWIDTH 11 0
BBX 5 18 3 -4
BITMAP
F8
18
18
18
18
18
18
18
18
18
18
18
18
18
18
18
18
F8
ENDCHAR
STARTCHAR 005E
ENCODING 94
SWIDTH 495 0
DWIDTH 11 0
BBX 9 7 1 7
BITMAP
1C00
1C00
3600
3600
6300
C180
C180
ENDCHAR
STARTCHAR 005F
ENCODING 95
SWIDTH 495 0
DWIDTH 11 0
BBX 11 2 0 -4
BITMAP
FFE0
FFE0
ENDCHAR
STARTCHAR 0060
ENCODING 96
SWIDTH 495 0
DWIDTH 11 0
BBX 3 4 4 11
BITMAP
80
C0
60
20
ENDCHAR
STARTCHAR 0061
ENCODING 97
SWIDTH 495 0
DWIDTH 11 0
BBX 9 10 1 0
BITMAP
7E00
7F00
0300
0100
3F80
6180
C180
E180
7F80
3F80
ENDCHAR
STARTCHAR 0062
ENCODING 98
SWIDTH 495 0
DWIDTH 11 0
BBX 8 15 2 0
BITMAP
80
80
80
80
80
BC
FE
C7
83
83
83
83
87
FE
FC
ENDCHAR
STARTCHAR 0063
ENCODING 99
SWIDTH 495 0
DWIDTH 11 0
BBX 9 10 1 0
BITMAP
1F80
7F00
6000
C000
C000
C000
C000
6000
7F80
1F80
ENDCHAR
STARTCHAR 0064
ENCODING 100
SWIDTH 495 0
DWIDTH 11 0
BBX 8 15 1 0
BITMAP
01
01
01
01
01
3D
7F
E3
C1
C1
C1
C1
E1
7F
3F
ENDCHAR
STARTCHAR 0065
ENCODING 101
SWIDTH 495 0
DWIDTH 11 0
BBX 9 10 1 0
BITMAP
3E00
7F00
E380
C180
FF80
C000
C000
E000
7F00
1F00
ENDCHAR
STARTCHAR 0066
ENCODING 102
SWIDTH 495 0
DWIDTH 11 0
BBX 10 15 1 0
BITMAP
0F80
1FC0
1880
1000
1000
FF00
FF00
1000
1000
1000
1000
1000
1000
1000
1000
ENDCHAR
STARTCHAR 0067
ENCODING 103
SWIDTH 495 0
DWIDTH 11 0
BBX 8 14 1 -4
BITMAP
3F
7F
E1
C1
C1
C1
C1
E3
7F
3D
01
43
7F
7C
ENDCHAR
STARTCHAR 0068
ENCODING 104
SWIDTH 495 0
DWIDTH 11 0
BBX 8 15 2 0
BITMAP
80
80
80
80
80
FC
FE
86
82
83
83
83
83
83
83
ENDCHAR
STARTCHAR 0069
ENCODING 105
SWIDTH 495 0
DWIDTH 11 0
BBX 9 15 1 0
BITMAP
1800
3800
1800
0000
0000
F800
F800
1800
1800
1800
1800
1800
1800
1F80
0F80
ENDCHAR
STARTCHAR 006A
ENCODING 106
SWIDTH 495 0
DWIDTH 11 0
BBX 6 19 2 -4
BITMAP
0C
1C
0C
00
00
7C
7C
04
04
04
04
04
04
04
04
04
0C
FC
F8
ENDCHAR
STARTCHAR 006B
ENCODING 107
SWIDTH 495 0
DWIDTH 11 0
BBX 8 15 2 0
BITMAP
80
80
80
80
80
83
86
9C
B8
E0
B0
98
8C
86
83
ENDCHAR
STARTCHAR 006C
ENCODING 108
SWIDTH 495 0
DWIDTH 11 0
BBX 9 15 1 0
BITMAP
F800
F800
1800
1800
1800
1800
1800
1800
1800
1800
1800
1800
1800
0F80
0F80
ENDCHAR
STARTCHAR 006D
ENCODING 109
SWIDTH 495 0
DWIDTH 11 0
BBX 9 10 1 0
BITMAP
F700
FF80
C980
C880
C880
C880
C080
C080
C080
C080
ENDCHAR
STARTCHAR 006E
ENCODING 110
SWIDTH 495 0
DWIDTH 11 0
BBX 8 10 2 0
BITMAP
FC
FE
86
82
83
83
83
83
83
83
ENDCHAR
STARTCHAR 006F
ENCODING 111
SWIDTH 495 0
DWIDTH 11 0
BBX 9 10 1 0
BITMAP
3E00
7F00
E380
C180
C180
C180
C180
E380
7F00
3E00
ENDCHAR
STARTCHAR 0070
ENCODING 112
SWIDTH 495 0
DWIDTH 11 0
BBX 8 14 2 -4
BITMAP
FC
FE
87
83
83
83
83
C7
FE
BC
80
80
80
80
ENDCHAR
STARTCHAR 0071
ENCODING 113
SWIDTH 495 0
DWIDTH 11 0
BBX 8 14 1 -4
BITMAP
3F
7F
E1
C1
C1
C1
C1
E3
7F
3D
01
01
01
01
ENDCHAR
STARTCHAR 0072
ENCODING 114
SWIDTH 495 0
DWIDTH 11 0
BBX 8 10 2 0
BITMAP
7F
FE
C0
C0
C0
C0
C0
C0
C0
C0
ENDCHAR
STARTCHAR 0073
ENCODING 115
SWIDTH 495 0
DWIDTH 11 0
BBX 8 10 2 0
BITMAP
7E
FE
C2
C0
F8
3E
06
83
FE
FC
ENDCHAR
STARTCHAR 0074
ENCODING 116
SWIDTH 495 0
DWIDTH 11 0
BBX 9 13 1 0
BITMAP
1000
1000
1000
FF80
FF80
1000
1000
1000
1000
1000
1800
1F80
0F80
ENDCHAR
STARTCHAR 0075
ENCODING 117
SWIDTH 495 0
DWIDTH 11 0
BBX 8 10 1 0
BITMAP
C1
C1
C1
C1
C1
C1
41
61
7F
3F
ENDCHAR
STARTCHAR 0076
ENCODING 118
SWIDTH 495 0
DWIDTH 11 0
BBX 9 10 1 0
BITMAP
C180
C180
C180
6300
6300
2200
3600
3400
1C00
1C00
ENDCHAR
STARTCHAR 0077
ENCODING 119
SWIDTH 495 0
DWIDTH 11 0
BBX 11 10 0 0
BITMAP
C060
4040
4440
4E40
6EC0
6AC0
6AC0
3380
3180
3180
ENDCHAR
STARTCHAR 0078
ENCODING 120
SWIDTH 495 0
DWIDTH 11 0
BBX 9 10 1 0
BITMAP
C180
6300
3600
3400
1C00
1C00
3600
6300
6300
C180
ENDCHAR
STARTCHAR 0079
ENCODING 121
SWIDTH 495 0
DWIDTH 11 0
BBX 9 14 1 -4
BITMAP
C180
C180
6100
6300
2300
3300
3200
1E00
1E00
0C00
0C00
1800
F800
F000
ENDCHAR
STARTCHAR 007A
ENCODING 122
SWIDTH 495 0
DWIDTH 11 0
BBX 7 10 2 0
BITMAP
FE
FE
0E
1C
18
30
60
C0
FE
FE
ENDCHAR
STARTCHAR 007B
ENCODING 123
SWIDTH 495 0
DWIDTH 11 0
BBX 7 19 2 -4
BITMAP
1E
30
30
30
30
30
30
30
20
C0
20
30
30
30
30
30
30
30
1E
ENDCHAR
STARTCHAR 007C
ENCODING 124
SWIDTH 495 0
DWIDTH 11 0
BBX 1 19 5 -4
BITMAP
80
80
80
80
80
80
80
80
80
80
80
80
80
80
80
80
80
80
80
ENDCHAR
STARTCHAR 007D
ENCODING 125
SWIDTH 495 0
DWIDTH 11 0
BBX 7 19 2 -4
BITMAP
F0
18
18
18
18
18
18
18
08
06
08
18
18
18
18
18
18
18
F0
ENDCHAR
STARTCHAR 007E
ENCODING 126
SWIDTH 495 0
DWIDTH 11 0
BBX 9 4 1 4
BITMAP
7080
F980
CF80
8700
ENDCHAR
STARTCHAR 00A0
ENCODING 160
SWIDTH 495 0
DWIDTH 11 0
BBX 0 0 0 0
BITMAP
ENDCHAR
STARTCHAR 00A1
ENCODING 161
SWIDTH 495 0
DWIDTH 11 0
BBX 3 14 4 -4
BITMAP
E0
E0
E0
00
00
40
40
40
40
C0
C0
C0
C0
C0
ENDCHAR
STARTCHAR 00A2
ENCODING 162
SWIDTH 495 0
DWIDTH 11 0
BBX 9 16 1 -2
BITMAP
0400
0400
0400
1F80
7F00
7000
C000
C000
C000
C000
4000
7000
1F80
0400
0400
0400
ENDCHAR
STARTCHAR 00A3
ENCODING 163
SWIDTH 495 0
DWIDTH 11 0
BBX 9 14 1 0
BITMAP
0F80
3F00
3000
3000
3000
3000
FE00
FE00
3000
3000
3000
2000
7F80
7F80
ENDCHAR
STARTCHAR 00A4
ENCODING 164
SWIDTH 495 0
DWIDTH 11 0
BBX 9 10 1 2
BITMAP
8100
DD80
6300
4100
4100
4100
4100
6300
DD80
8100
ENDCHAR
STARTCHAR 00A5
ENCODING 165
SWIDTH 495 0
DWIDTH 11 0
BBX 9 14 1 0
BITMAP
C080
C180
4100
6300
3200
3600
1C00
FF80
FF80
0800
FF80
FF80
0800
0800
ENDCHAR
STARTCHAR 00A6
ENCODING 166
SWIDTH 495 0
DWIDTH 11 0
BBX 1 19 5 -4
BITMAP
80
80
80
80
80
80
80
80
00
00
00
80
80
80
80
80
80
80
80
ENDCHAR
STARTCHAR 00A7
ENCODING 167
SWIDTH 495 0
DWIDTH 11 0
BBX 7 16 2 -2
BITMAP
3C
7E
C2
C0
70
7C
CE
82
82
F6
7C
1E
06
86
FE
FC
ENDCHAR
STARTCHAR 00A8
ENCODING 168
SWIDTH 495 0
DWIDTH 11 0
BBX 5 2 3 12
BITMAP
D8
D8
ENDCHAR
STARTCHAR 00A9
ENCODING 169
SWIDTH 495 0
DWIDTH 11 0
BBX 9 10 1 0
BITMAP
3E00
4100
DD80
B080
B080
B080
B080
DD80
4100
3E00
ENDCHAR
STARTCHAR 00AA
ENCODING 170
SWIDTH 495 0
DWIDTH 11 0
BBX 5 7 3 7
BITMAP
F8
08
08
F8
88
88
F8
ENDCHAR
STARTCHAR 00AB
ENCODING 171
SWIDTH 495 0
DWIDTH 11 0
BBX 8 7 1 2
BITMAP
11
32
66
CC
66
32
11
ENDCHAR
STARTCHAR 00AC
ENCODING 172
SWIDTH 495 0
DWIDTH 11 0
BBX 9 7 1 1
BITMAP
FF80
FF80
0180
0180
0180
0180
0180
ENDCHAR
STARTCHAR 00AD
ENCODING 173
SWIDTH 495 0
DWIDTH 11 0
BBX 5 2 3 5
BITMAP
F8
F8
ENDCHAR
STARTCHAR 00AE
ENCODING 174
SWIDTH 495 0
DWIDTH 11 0
BBX 9 10 1 0
BITMAP
3E00
6300
DD80
9680
9C80
9480
9680
C180
6300
3E00
ENDCHAR
STARTCHAR 00AF
ENCODING 175
SWIDTH 495 0
DWIDTH 11 0
BBX 5 1 3 13
BITMAP
F8
ENDCHAR
STARTCHAR 00B0
ENCODING 176
SWIDTH 495 0
DWIDTH 11 0
BBX 5 5 3 10
BITMAP
70
88
88
88
70
ENDCHAR
STARTCHAR 00B1
ENCODING 177
SWIDTH 495 0
DWIDTH 11 0
BBX 9 13 1 0
BITMAP
0800
0800
0800
0800
FF80
FF80
0800
0800
0800
0800
0000
FF80
FF80
ENDCHAR
STARTCHAR 00B2
ENCODING 178
SWIDTH 495 0
DWIDTH 11 0
BBX 5 8 3 6
BITMAP
F0
98
18
18
30
60
C0
F8
ENDCHAR
STARTCHAR 00B3
ENCODING 179
SWIDTH 495 0
DWIDTH 11 0
BBX 5 8 3 6
BITMAP
F0
98
18
70
18
08
18
F0
ENDCHAR
STARTCHAR 00B4
ENCODING 180
SWIDTH 495 0
DWIDTH 11 0
BBX 3 4 4 11
BITMAP
20
60
C0
80
ENDCHAR
STARTCHAR 00B5
ENCODING 181
SWIDTH 495 0
DWIDTH 11 0
BBX 7 14 2 -4
BITMAP
82
82
82
82
82
82
C2
C2
FE
BE
80
80
80
80
ENDCHAR
STARTCHAR 00B6
ENCODING 182
SWIDTH 495 0
DWIDTH 11 0
BBX 9 18 1 -4
BITMAP
3F80
7F80
F980
F980
F980
F980
F980
7980
3980
0980
0980
0980
0980
0980
0980
0980
0980
0980
ENDCHAR
STARTCHAR 00B7
ENCODING 183
SWIDTH 495 0
DWIDTH 11 0
BBX 3 3 4 4
BITMAP
E0
E0
E0
ENDCHAR
STARTCHAR 00B8
ENCODING 184
SWIDTH 495 0
DWIDTH 11 0
BBX 4 4 3 -4
BITMAP
30
30
30
E0
ENDCHAR
STARTCHAR 00B9
ENCODING 185
SWIDTH 495 0
DWIDTH 11 0
BBX 5 8 3 6
BITMAP
20
60
A0
20
20
20
20
F8
ENDCHAR
STARTCHAR 00BA
ENCODING 186
SWIDTH 495 0
DWIDTH 11 0
BBX 7 7 2 7
BITMAP
38
44
C6
82
C6
44
38
ENDCHAR
STARTCHAR 00BB
ENCODING 187
SWIDTH 495 0
DWIDTH 11 0
BBX 8 7 2 2
BITMAP
88
CC
66
33
66
CC
88
ENDCHAR
STARTCHAR 00BC
ENCODING 188
SWIDTH 495 0
DWIDTH 11 0
BBX 10 14 1 0
BITMAP
6080
E180
6300
6200
6600
6400
0C00
1800
1180
3380
2780
6580
C7C0
8180
ENDCHAR
STARTCHAR 00BD
ENCODING 189
SWIDTH 495 0
DWIDTH 11 0
BBX 10 14 1 0
BITMAP
6180
E100
6300
6200
6600
6C00
0800
1800
1380
3080
6080
4180
C200
87C0
ENDCHAR
STARTCHAR 00BE
ENCODING 190
SWIDTH 495 0
DWIDTH 11 0
BBX 10 14 1 0
BITMAP
E080
2180
E100
3200
3600
E400
0C00
0800
1180
3380
2780
6580
47C0
C180
ENDCHAR
STARTCHAR 00BF
ENCODING 191
SWIDTH 495 0
DWIDTH 11 0
BBX 7 14 2 -4
BITMAP
18
18
18
00
00
18
18
30
60
C0
C0
C2
FE
3C
ENDCHAR
STARTCHAR 00C0
ENCODING 192
SWIDTH 495 0
DWIDTH 11 0
BBX 11 19 0 0
BITMAP
0800
0C00
0600
0200
0000
0E00
0E00
0B00
1B00
1B00
1100
3180
3180
2080
7FC0
7FC0
60C0
40C0
C060
ENDCHAR
STARTCHAR 00C1
ENCODING 193
SWIDTH 495 0
DWIDTH 11 0
BBX 11 19 0 0
BITMAP
0200
0600
0C00
0800
0000
0E00
0E00
0B00
1B00
1B00
1100
3180
3180
2080
7FC0
7FC0
60C0
40C0
C060
ENDCHAR
STARTCHAR 00C2
ENCODING 194
SWIDTH 495 0
DWIDTH 11 0
BBX 11 19 0 0
BITMAP
0400
0E00
1B00
1100
0000
0E00
0E00
0B00
1B00
1B00
1100
3180
3180
2080
7FC0
7FC0
60C0
40C0
C060
ENDCHAR
STARTCHAR 00C3
ENCODING 195
SWIDTH 495 0
DWIDTH 11 0
BBX 11 17 0 0
BITMAP
1D80
3700
0000
0E00
0E00
0B00
1B00
1B00
1100
3180
3180
2080
7FC0
7FC0
60C0
40C0
C060
ENDCHAR
STARTCHAR 00C4
ENCODING 196
SWIDTH 495 0
DWIDTH 11 0
BBX 11 17 0 0
BITMAP
1B00
1B00
0000
0E00
0E00
0B00
1B00
1B00
1100
3180
3180
2080
7FC0
7FC0
60C0
40C0
C060
ENDCHAR
STARTCHAR 00C5
ENCODING 197
SWIDTH 495 0
DWIDTH 11 0
BBX 11 17 0 0
BITMAP
0E00
0B00
0A00
0E00
0A00
1B00
1B00
1B00
1180
3180
3180
2080
7FC0
7FC0
60C0
40C0
C060
ENDCHAR
STARTCHAR 00C6
ENCODING 198
SWIDTH 495 0
DWIDTH 11 0
BBX 10 14 1 0
BITMAP
0F80
1F80
1600
1600
3600
2600
2780
6780
7E00
7E00
4600
C600
C7C0
87C0
ENDCHAR
STARTCHAR 00C7
ENCODING 199
SWIDTH 495 0
DWIDTH 11 0
BBX 9 18 1 -4
BITMAP
1F00
3F80
7080
6000
C000
C000
C000
C000
C000
C000
6000
7080
3F80
1F00
0600
0600
0600
1C00
ENDCHAR
STARTCHAR 00C8
ENCODING 200
SWIDTH 495 0
DWIDTH 11 0
BBX 8 19 2 0
BITMAP
10
30
18
08
00
FF
FF
C0
C0
C0
C0
FE
FE
C0
C0
C0
C0
FF
FF
ENDCHAR
STARTCHAR 00C9
ENCODING 201
SWIDTH 495 0
DWIDTH 11 0
BBX 8 19 2 0
BITMAP
08
0C
18
10
00
FF
FF
C0
C0
C0
C0
FE
FE
C0
C0
C0
C0
FF
FF
ENDCHAR
STARTCHAR 00CA
ENCODING 202
SWIDTH 495 0
DWIDTH 11 0
BBX 8 19 2 0
BITMAP
10
18
2C
44
00
FF
FF
C0
C0
C0
C0
FE
FE
C0
C0
C0
C0
FF
FF
ENDCHAR
STARTCHAR 00CB
ENCODING 203
SWIDTH 495 0
DWIDTH 11 0
BBX 8 17 2 0
BITMAP
66
66
00
FF
FF
C0
C0
C0
C0
FE
FE
C0
C0
C0
C0
FF
FF
ENDCHAR
STARTCHAR 00CC
ENCODING 204
SWIDTH 495 0
DWIDTH 11 0
BBX 7 19 2 0
BITMAP
20
30
18
08
00
FE
FE
10
10
10
10
10
10
10
10
10
10
FE
FE
ENDCHAR
STARTCHAR 00CD
ENCODING 205
SWIDTH 495 0
DWIDTH 11 0
BBX 7 19 2 0
BITMAP
08
18
30
20
00
FE
FE
10
10
10
10
10
10
10
10
10
10
FE
FE
ENDCHAR
STARTCHAR 00CE
ENCODING 206
SWIDTH 495 0
DWIDTH 11 0
BBX 7 19 2 0
BITMAP
10
38
6C
44
00
FE
FE
10
10
10
10
10
10
10
10
10
10
FE
FE
ENDCHAR
STARTCHAR 00CF
ENCODING 207
SWIDTH 495 0
DWIDTH 11 0
BBX 7 17 2 0
BITMAP
6C
6C
00
FE
FE
10
10
10
10
10
10
10
10
10
10
FE
FE
ENDCHAR
STARTCHAR 00D0
ENCODING 208
SWIDTH 495 0
DWIDTH 11 0
BBX 10 14 0 0
BITMAP
3E00
3F00
2380
21C0
20C0
20C0
FCC0
FCC0
20C0
20C0
21C0
2380
3F00
3E00
ENDCHAR
STARTCHAR 00D1
ENCODING 209
SWIDTH 495 0
DWIDTH 11 0
BBX 9 17 1 0
BITMAP
3B00
6E00
0000
C180
E180
E180
F180
D180
D980
C980
CD80
C580
C780
C380
C380
C380
C180
ENDCHAR
STARTCHAR 00D2
ENCODING 210
SWIDTH 495 0
DWIDTH 11 0
BBX 9 19 1 0
BITMAP
1000
1800
0C00
0400
0000
3E00
7F00
6380
C180
C180
C180
8080
8080
C180
C180
C180
E380
7F00
3E00
ENDCHAR
STARTCHAR 00D3
ENCODING 211
SWIDTH 495 0
DWIDTH 11 0
BBX 9 19 1 0
BITMAP
0400
0C00
1800
1000
0000
3E00
7F00
6380
C180
C180
C180
8080
8080
C180
C180
C180
E380
7F00
3E00
ENDCHAR
STARTCHAR 00D4
ENCODING 212
SWIDTH 495 0
DWIDTH 11 0
BBX 9 19 1 0
BITMAP
0800
1C00
3600
2200
0000
3E00
7F00
6380
C180
C180
C180
8080
8080
C180
C180
C180
E380
7F00
3E00
ENDCHAR
STARTCHAR 00D5
ENCODING 213
SWIDTH 495 0
DWIDTH 11 0
BBX 9 17 1 0
BITMAP
3B00
6E00
0000
3E00
7F00
6380
C180
C180
C180
8080
8080
C180
C180
C180
E380
7F00
3E00
ENDCHAR
STARTCHAR 00D6
ENCODING 214
SWIDTH 495 0
DWIDTH 11 0
BBX 9 17 1 0
BITMAP
3600
3600
0000
3E00
7F00
6380
C180
C180
C180
8080
8080
C180
C180
C180
E380
7F00
3E00
ENDCHAR
STARTCHAR 00D7
ENCODING 215
SWIDTH 495 0
DWIDTH 11 0
BBX 7 8 2 2
BITMAP
82
C6
6C
38
38
6C
C6
82
ENDCHAR
STARTCHAR 00D8
ENCODING 216
SWIDTH 495 0
DWIDTH 11 0
BBX 9 14 1 0
BITMAP
3D00
7F00
6300
C780
C780
CD80
CC80
9880
D980
F180
F180
E380
7F00
7E00
ENDCHAR
STARTCHAR 00D9
ENCODING 217
SWIDTH 495 0
DWIDTH 11 0
BBX 9 19 1 0
BITMAP
1000
1800
0C00
0400
0000
C180
C180
C180
C180
C180
C180
C180
C180
C180
C180
C180
E380
7F00
3E00
ENDCHAR
STARTCHAR 00DA
ENCODING 218
SWIDTH 495 0
DWIDTH 11 0
BBX 9 19 1 0
BITMAP
0400
0C00
1800
1000
0000
C180
C180
C180
C180
C180
C180
C180
C180
C180
C180
C180
E380
7F00
3E00
ENDCHAR
STARTCHAR 00DB
ENCODING 219
SWIDTH 495 0
DWIDTH 11 0
BBX 9 19 1 0
BITMAP
0800
1C00
3600
2200
0000
C180
C180
C180
C180
C180
C180
C180
C180
C180
C180
C180
E380
7F00
3E00
ENDCHAR
STARTCHAR 00DC
ENCODING 220
SWIDTH 495 0
DWIDTH 11 0
BBX 9 17 1 0
BITMAP
3600
3600
0000
C180
C180
C180
C180
C180
C180
C180
C180
C180
C180
C180
E380
7F00
3E00
ENDCHAR
STARTCHAR 00DD
ENCODING 221
SWIDTH 495 0
DWIDTH 11 0
BBX 11 19 0 0
BITMAP
0200
0600
0C00
0800
0000
C060
60C0
60C0
3180
3180
1B00
1B00
0E00
0E00
0400
0400
0400
0400
0400
ENDCHAR
STARTCHAR 00DE
ENCODING 222
SWIDTH 495 0
DWIDTH 11 0
BBX 8 14 2 0
BITMAP
80
80
FC
FE
87
83
83
83
87
FE
FC
80
80
80
ENDCHAR
STARTCHAR 00DF
ENCODING 223
SWIDTH 495 0
DWIDTH 11 0
BBX 8 15 2 0
BITMAP
78
FC
C6
C6
8C
9C
98
98
9C
87
83
81
83
9F
9E
ENDCHAR
STARTCHAR 00E0
ENCODING 224
SWIDTH 495 0
DWIDTH 11 0
BBX 9 15 1 0
BITMAP
1000
1800
0C00
0400
0000
7E00
7F00
0300
0100
3F80
6180
C180
E180
7F80
3F80
ENDCHAR
STARTCHAR 00E1
ENCODING 225
SWIDTH 495 0
DWIDTH 11 0
BBX 9 15 1 0
BITMAP
0400
0E00
0C00
1800
0000
7E00
7F00
0300
0100
3F80
6180
C180
E180
7F80
3F80
ENDCHAR
STARTCHAR 00E2
ENCODING 226
SWIDTH 495 0
DWIDTH 11 0
BBX 9 15 1 0
BITMAP
0800
1C00
1600
2200
0000
7E00
7F00
0300
0100
3F80
6180
C180
E180
7F80
3F80
ENDCHAR
STARTCHAR 00E3
ENCODING 227
SWIDTH 495 0
DWIDTH 11 0
BBX 9 14 1 0
BITMAP
3B00
6E00
0000
0000
7E00
7F00
0300
0100
3F80
6180
C180
E180
7F80
3F80
ENDCHAR
STARTCHAR 00E4
ENCODING 228
SWIDTH 495 0
DWIDTH 11 0
BBX 9 14 1 0
BITMAP
3600
3600
0000
0000
7E00
7F00
0300
0100
3F80
6180
C180
E180
7F80
3F80
ENDCHAR
STARTCHAR 00E5
ENCODING 229
SWIDTH 495 0
DWIDTH 11 0
BBX 9 15 1 0
BITMAP
1C00
1400
1400
1C00
0000
7E00
7F00
0300
0100
3F80
6180
C180
E180
7F80
3F80
ENDCHAR
STARTCHAR 00E6
ENCODING 230
SWIDTH 495 0
DWIDTH 11 0
BBX 10 10 1 0
BITMAP
F300
FF80
1C80
0880
7FC0
C800
8C00
CC00
FF80
7380
ENDCHAR
STARTCHAR 00E7
ENCODING 231
SWIDTH 495 0
DWIDTH 11 0
BBX 9 14 1 -4
BITMAP
1F80
7F00
6000
C000
C000
C000
C000
6000
7F80
1F80
0C00
0600
0600
1C00
ENDCHAR
STARTCHAR 00E8
ENCODING 232
SWIDTH 495 0
DWIDTH 11 0
BBX 9 15 1 0
BITMAP
1000
1800
0C00
0400
0000
3E00
7F00
E380
C180
FF80
C000
C000
E000
7F00
1F00
ENDCHAR
STARTCHAR 00E9
ENCODING 233
SWIDTH 495 0
DWIDTH 11 0
BBX 9 15 1 0
BITMAP
0400
0E00
0C00
1800
0000
3E00
7F00
E380
C180
FF80
C000
C000
E000
7F00
1F00
ENDCHAR
STARTCHAR 00EA
ENCODING 234
SWIDTH 495 0
DWIDTH 11 0
BBX 9 15 1 0
BITMAP
0800
0C00
1600
2200
0000
3E00
7F00
E380
C180
FF80
C000
C000
E000
7F00
1F00
ENDCHAR
STARTCHAR 00EB
ENCODING 235
SWIDTH 495 0
DWIDTH 11 0
BBX 9 14 1 0
BITMAP
3300
3300
0000
0000
3E00
7F00
E380
C180
FF80
C000
C000
E000
7F00
1F00
ENDCHAR
STARTCHAR 00EC
ENCODING 236
SWIDTH 495 0
DWIDTH 11 0
BBX 9 15 1 0
BITMAP
2000
3000
1800
0800
0000
F800
F800
1800
1800
1800
1800
1800
1800
1F80
0F80
ENDCHAR
STARTCHAR 00ED
ENCODING 237
SWIDTH 495 0
DWIDTH 11 0
BBX 9 15 1 0
BITMAP
0800
1C00
1800
1000
0000
F800
F800
1800
1800
1800
1800
1800
1800
1F80
0F80
ENDCHAR
STARTCHAR 00EE
ENCODING 238
SWIDTH 495 0
DWIDTH 11 0
BBX 9 15 1 0
BITMAP
1000
3800
2C00
4400
0000
F800
F800
1800
1800
1800
1800
1800
1800
1F80
0F80
ENDCHAR
STARTCHAR 00EF
ENCODING 239
SWIDTH 495 0
DWIDTH 11 0
BBX 9 14 1 0
BITMAP
6600
6600
0000
0000
F800
F800
1800
1800
1800
1800
1800
1800
1F80
0F80
ENDCHAR
STARTCHAR 00F0
ENCODING 240
SWIDTH 495 0
DWIDTH 11 0
BBX 9 15 1 0
BITMAP
0800
0D80
0F00
1A00
0300
3F00
7F00
6300
C100
C100
C100
C300
6300
7E00
3C00
ENDCHAR
STARTCHAR 00F1
ENCODING 241
SWIDTH 495 0
DWIDTH 11 0
BBX 8 14 2 0
BITMAP
76
DC
00
00
FC
FE
86
82
83
83
83
83
83
83
ENDCHAR
STARTCHAR 00F2
ENCODING 242
SWIDTH 495 0
DWIDTH 11 0
BBX 9 15 1 0
BITMAP
1000
1800
0C00
0400
0000
3E00
7F00
E380
C180
C180
C180
C180
E380
7F00
3E00
ENDCHAR
STARTCHAR 00F3
ENCODING 243
SWIDTH 495 0
DWIDTH 11 0
BBX 9 15 1 0
BITMAP
0400
0C00
1800
1000
0000
3E00
7F00
E380
C180
C180
C180
C180
E380
7F00
3E00
ENDCHAR
STARTCHAR 00F4
ENCODING 244
SWIDTH 495 0
DWIDTH 11 0
BBX 9 15 1 0
BITMAP
0800
1C00
3600
2200
0000
3E00
7F00
E380
C180
C180
C180
C180
E380
7F00
3E00
ENDCHAR
STARTCHAR 00F5
ENCODING 245
SWIDTH 495 0
DWIDTH 11 0
BBX 9 14 1 0
BITMAP
3B00
6E00
0000
0000
3E00
7F00
E380
C180
C180
C180
C180
E380
7F00
3E00
ENDCHAR
STARTCHAR 00F6
ENCODING 246
SWIDTH 495 0
DWIDTH 11 0
BBX 9 14 1 0
BITMAP
3600
3600
0000
0000
3E00
7F00
E380
C180
C180
C180
C180
E380
7F00
3E00
ENDCHAR
STARTCHAR 00F7
ENCODING 247
SWIDTH 495 0
DWIDTH 11 0
BBX 9 12 1 0
BITMAP
0800
1C00
0800
0000
0000
FF80
FF80
0000
0000
0800
1C00
0800
ENDCHAR
STARTCHAR 00F8
ENCODING 248
SWIDTH 495 0
DWIDTH 11 0
BBX 9 10 1 0
BITMAP
3F80
7F00
E380
C780
CD80
D980
F180
E380
7F00
FE00
ENDCHAR
STARTCHAR 00F9
ENCODING 249
SWIDTH 495 0
DWIDTH 11 0
BBX 8 15 1 0
BITMAP
10
18
0C
04
00
C1
C1
C1
C1
C1
C1
41
61
7F
3F
ENDCHAR
STARTCHAR 00FA
ENCODING 250
SWIDTH 495 0
DWIDTH 11 0
BBX 8 15 1 0
BITMAP
04
0C
18
10
00
C1
C1
C1
C1
C1
C1
41
61
7F
3F
ENDCHAR
STARTCHAR 00FB
ENCODING 251
SWIDTH 495 0
DWIDTH 11 0
BBX 8 15 1 0
BITMAP
08
1C
36
22
00
C1
C1
C1
C1
C1
C1
41
61
7F
3F
ENDCHAR
STARTCHAR 00FC
ENCODING 252
SWIDTH 495 0
DWIDTH 11 0
BBX 8 14 1 0
BITMAP
36
36
00
00
C1
C1
C1
C1
C1
C1
41
61
7F
3F
ENDCHAR
STARTCHAR 00FD
ENCODING 253
SWIDTH 495 0
DWIDTH 11 0
BBX 9 19 1 -4
BITMAP
0400
0C00
0800
1000
0000
C180
C180
6100
6300
2300
3300
3200
1E00
1E00
0C00
0C00
1800
F800
F000
ENDCHAR
STARTCHAR 00FE
ENCODING 254
SWIDTH 495 0
DWIDTH 11 0
BBX 8 19 2 -4
BITMAP
80
80
80
80
80
BC
FE
C7
83
83
83
83
C7
FE
BC
80
80
80
80
ENDCHAR
STARTCHAR 00FF
ENCODING 255
SWIDTH 495 0
DWIDTH 11 0
BBX 9 18 1 -4
BITMAP
3300
3300
0000
0000
C180
C180
6100
6300
2300
3300
3200
1E00
1E00
0C00
0C00
1800
F800
F000
ENDCHAR
STARTCHAR 0152
ENCODING 140
SWIDTH 495 0
DWIDTH 11 0
BBX 10 14 1 0
BITMAP
3F80
7F80
E600
C600
C600
8600
8780
8780
8600
C600
C600
E600
7FC0
3FC0
ENDCHAR
STARTCHAR 0153
ENCODING 156
SWIDTH 495 0
DWIDTH 11 0
BBX 10 10 1 0
BITMAP
7300
F780
DC80
8C80
8FC0
8C00
CC00
DC00
F780
7380
ENDCHAR
STARTCHAR 0160
ENCODING 138
SWIDTH 495 0
DWIDTH 11 0
BBX 9 19 1 0
BITMAP
1200
1600
0C00
0800
0000
3E00
7F00
6100
4000
6000
7000
3C00
1F00
0300
0180
0180
4380
FF00
7E00
ENDCHAR
STARTCHAR 0161
ENCODING 154
SWIDTH 495 0
DWIDTH 11 0
BBX 8 16 2 0
BITMAP
44
2C
38
10
00
00
7E
FE
C2
C0
F8
3E
06
83
FE
FC
ENDCHAR
STARTCHAR 0178
ENCODING 159
SWIDTH 495 0
DWIDTH 11 0
BBX 11 17 0 0
BITMAP
1B00
1B00
0000
C060
60C0
60C0
3180
3180
1B00
1B00
0E00
0E00
0400
0400
0400
0400
0400
ENDCHAR
STARTCHAR 017D
ENCODING 142
SWIDTH 495 0
DWIDTH 11 0
BBX 9 19 1 0
BITMAP
2200
3600
1C00
0800
0000
7F80
7F80
0300
0300
0600
0C00
0C00
1800
3000
3000
6000
6000
FF80
FF80
ENDCHAR
STARTCHAR 017E
ENCODING 158
SWIDTH 495 0
DWIDTH 11 0
BBX 7 16 2 0
BITMAP
44
6C
38
10
00
00
FE
FE
0E
1C
18
30
60
C0
FE
FE
ENDCHAR
STARTCHAR 0192
ENCODING 131
SWIDTH 495 0
DWIDTH 11 0
BBX 10 19 0 -4
BITMAP
07C0
0FC0
0C00
0800
0800
7F80
7F80
0800
0800
0800
0800
0800
0800
0800
0800
0800
1800
F800
F000
ENDCHAR
STARTCHAR 02C6
ENCODING 136
SWIDTH 495 0
DWIDTH 11 0
BBX 5 4 3 11
BITMAP
20
70
D8
88
ENDCHAR
STARTCHAR 02DC
ENCODING 152
SWIDTH 495 0
DWIDTH 11 0
BBX 7 2 2 12
BITMAP
76
DC
ENDCHAR
STARTCHAR 2013
ENCODING 150
SWIDTH 495 0
DWIDTH 11 0
BBX 7 2 2 5
BITMAP
FE
FE
ENDCHAR
STARTCHAR 2014
ENCODING 151
SWIDTH 495 0
DWIDTH 11 0
BBX 11 2 0 5
BITMAP
FFE0
FFE0
ENDCHAR
STARTCHAR 2018
ENCODING 145
SWIDTH 495 0
DWIDTH 11 0
BBX 5 6 3 8
BITMAP
18
60
40
E0
F0
60
ENDCHAR
STARTCHAR 2019
ENCODING 146
SWIDTH 495 0
DWIDTH 11 0
BBX 5 6 3 8
BITMAP
30
78
38
10
30
C0
ENDCHAR
STARTCHAR 201A
ENCODING 130
SWIDTH 495 0
DWIDTH 11 0
BBX 5 6 3 -3
BITMAP
30
78
38
10
30
C0
ENDCHAR
STARTCHAR 201C
ENCODING 147
SWIDTH 495 0
DWIDTH 11 0
BBX 9 6 1 8
BITMAP
3180
6300
C600
E700
E700
E700
ENDCHAR
STARTCHAR 201D
ENCODING 148
SWIDTH 495 0
DWIDTH 11 0
BBX 9 6 1 8
BITMAP
7380
7380
7380
3180
6300
C600
ENDCHAR
STARTCHAR 201E
ENCODING 132
SWIDTH 495 0
DWIDTH 11 0
BBX 9 6 1 -3
BITMAP
7380
7380
7380
3180
6300
C600
ENDCHAR
STARTCHAR 2020
ENCODING 134
SWIDTH 495 0
DWIDTH 11 0
BBX 7 17 2 -3
BITMAP
10
10
10
10
FE
FE
10
10
10
10
10
10
10
10
10
10
10
ENDCHAR
STARTCHAR 2021
ENCODING 135
SWIDTH 495 0
DWIDTH 11 0
BBX 7 17 2 -3
BITMAP
10
10
10
10
FE
FE
10
10
10
10
FE
FE
10
10
10
10
10
ENDCHAR
STARTCHAR 2022
ENCODING 149
SWIDTH 495 0
DWIDTH 11 0
BBX 5 6 3 4
BITMAP
70
F8
F8
F8
F8
70
ENDCHAR
STARTCHAR 2026
ENCODING 133
SWIDTH 495 0
DWIDTH 11 0
BBX 9 3 1 0
BITMAP
C980
DD80
C980
ENDCHAR
STARTCHAR 2030
ENCODING 137
SWIDTH 495 0
DWIDTH 11 0
BBX 11 14 0 0
BITMAP
6000
5000
D040
D0C0
5300
6E00
1800
6000
5CC0
1540
1560
1560
1540
1CC0
ENDCHAR
STARTCHAR 2039
ENCODING 139
SWIDTH 495 0
DWIDTH 11 0
BBX 4 9 3 1
BITMAP
10
30
20
60
C0
60
20
30
10
ENDCHAR
STARTCHAR 203A
ENCODING 155
SWIDTH 495 0
DWIDTH 11 0
BBX 4 9 4 1
BITMAP
80
C0
40
60
30
60
40
C0
80
ENDCHAR
STARTCHAR 20AC
ENCODING 128
SWIDTH 495 0
DWIDTH 11 0
BBX 9 14 1 0
BITMAP
0F80
3F80
3000
6000
FF00
FE00
6000
6000
FE00
FE00
6000
3080
3F80
0F80
ENDCHAR
STARTCHAR 2122
ENCODING 153
SWIDTH 495 0
DWIDTH 11 0
BBX 10 6 0 8
BITMAP
F640
26C0
25C0
2540
2440
2440
ENDCHAR
ENDFONT
