STARTFONT 2.1
COMMENT
COMMENT Converted from OpenType font "UbuntuMono-Regular.ttf" by "otf2bdf 3.0".
COMMENT
FONT -FreeType-ubuntu mono cp1252-Medium-R-Normal--19-140-100-100-P-72-ISO10646-1
SIZE 14 100 100
FONTBOUNDINGBOX 10 19 0 -3
STARTPROPERTIES 19
FOUNDRY "FreeType"
FAMILY_NAME "ubuntu mono cp1252"
WEIGHT_NAME "Medium"
SLANT "R"
SETWIDTH_NAME "Normal"
ADD_STYLE_NAME ""
PIXEL_SIZE 19
POINT_SIZE 140
RESOLUTION_X 100
RESOLUTION_Y 100
SPACING "P"
AVERAGE_WIDTH 72
CHARSET_REGISTRY "ISO10646"
CHARSET_ENCODING "1"
FONT_ASCENT 15
FONT_DESCENT 3
COPYRIGHT "Copyright 2011 Canonical Ltd.  Licensed under the Ubuntu Font Licence 1.0"
_OTF_FONTFILE "UbuntuMono-Regular.ttf"
_OTF_PSNAME "UbuntuMono-Regular"
ENDPROPERTIES
CHARS 223
STARTCHAR 0000
ENCODING 157
SWIDTH 514 0
DWIDTH 10 0
BBX 0 0 0 0
BITMAP
ENDCHAR
STARTCHAR 0008
ENCODING 8
SWIDTH 514 0
DWIDTH 10 0
BBX 0 0 0 0
BITMAP
ENDCHAR
STARTCHAR 0009
ENCODING 9
SWIDTH 514 0
DWIDTH 10 0
BBX 0 0 0 0
BITMAP
ENDCHAR
STARTCHAR 000D
ENCODING 13
SWIDTH 514 0
DWIDTH 10 0
BBX 0 0 0 0
BITMAP
ENDCHAR
STARTCHAR 001D
ENCODING 29
SWIDTH 514 0
DWIDTH 10 0
BBX 0 0 0 0
BITMAP
ENDCHAR
STARTCHAR 0020
ENCODING 32
SWIDTH 514 0
DWIDTH 10 0
BBX 0 0 0 0
BITMAP
ENDCHAR
STARTCHAR 0021
ENCODING 33
SWIDTH 514 0
DWIDTH 10 0
BBX 3 12 3 0
BITMAP
60
60
60
60
60
40
40
00
00
60
E0
60
ENDCHAR
STARTCHAR 0022
ENCODING 34
SWIDTH 514 0
DWIDTH 10 0
BBX 5 5 2 8
BITMAP
C8
C8
48
48
48
ENDCHAR
STARTCHAR 0023
ENCODING 35
SWIDTH 514 0
DWIDTH 10 0
BBX 8 12 1 0
BITMAP
32
32
26
FF
FF
64
64
64
FF
FF
4C
C8
ENDCHAR
STARTCHAR 0024
ENCODING 36
SWIDTH 514 0
DWIDTH 10 0
BBX 7 15 1 -2
BITMAP
10
10
3E
7E
C0
C0
70
7C
0E
02
82
FE
7C
10
10
ENDCHAR
STARTCHAR 0025
ENCODING 37
SWIDTH 514 0
DWIDTH 10 0
BBX 9 12 0 0
BITMAP
7180
5100
D300
D200
5400
7C00
0B00
1C80
1480
2480
6480
4300
ENDCHAR
STARTCHAR 0026
ENCODING 38
SWIDTH 514 0
DWIDTH 10 0
BBX 8 12 1 0
BITMAP
78
7C
CC
48
78
72
DA
8E
84
CE
FA
73
ENDCHAR
STARTCHAR 0027
ENCODING 39
SWIDTH 514 0
DWIDTH 10 0
BBX 2 5 4 8
BITMAP
C0
C0
80
80
80
ENDCHAR
STARTCHAR 0028
ENCODING 40
SWIDTH 514 0
DWIDTH 10 0
BBX 5 15 2 -3
BITMAP
08
18
30
60
40
C0
C0
C0
C0
C0
40
60
30
18
08
ENDCHAR
STARTCHAR 0029
ENCODING 41
SWIDTH 514 0
DWIDTH 10 0
BBX 5 15 2 -3
BITMAP
40
60
30
10
18
08
08
08
08
08
18
10
30
E0
40
ENDCHAR
STARTCHAR 002A
ENCODING 42
SWIDTH 514 0
DWIDTH 10 0
BBX 7 7 1 5
BITMAP
18
18
D2
FE
10
2C
64
ENDCHAR
STARTCHAR 002B
ENCODING 43
SWIDTH 514 0
DWIDTH 10 0
BBX 8 9 1 0
BITMAP
10
10
10
10
FF
10
10
10
10
ENDCHAR
STARTCHAR 002C
ENCODING 44
SWIDTH 514 0
DWIDTH 10 0
BBX 4 6 3 -3
BITMAP
60
70
70
20
60
C0
ENDCHAR
STARTCHAR 002D
ENCODING 45
SWIDTH 514 0
DWIDTH 10 0
BBX 4 1 3 4
BITMAP
F0
ENDCHAR
STARTCHAR 002E
ENCODING 46
SWIDTH 514 0
DWIDTH 10 0
BBX 3 3 3 0
BITMAP
60
E0
60
ENDCHAR
STARTCHAR 002F
ENCODING 47
SWIDTH 514 0
DWIDTH 10 0
BBX 7 16 1 -3
BITMAP
06
06
04
0C
0C
08
18
18
10
30
30
20
60
60
40
C0
ENDCHAR
STARTCHAR 0030
ENCODING 48
SWIDTH 514 0
DWIDTH 10 0
BBX 8 12 1 0
BITMAP
3C
7E
C6
C2
C3
9B
9B
C3
C2
C6
7E
3C
ENDCHAR
STARTCHAR 0031
ENCODING 49
SWIDTH 514 0
DWIDTH 10 0
BBX 6 12 2 0
BITMAP
10
30
D0
90
10
10
10
10
10
10
FC
FC
ENDCHAR
STARTCHAR 0032
ENCODING 50
SWIDTH 514 0
DWIDTH 10 0
BBX 7 12 1 0
BITMAP
7C
FE
46
06
06
04
08
10
20
40
FE
FE
ENDCHAR
STARTCHAR 0033
ENCODING 51
SWIDTH 514 0
DWIDTH 10 0
BBX 7 12 1 0
BITMAP
7C
FC
46
06
06
3C
3C
06
02
86
FE
7C
ENDCHAR
STARTCHAR 0034
ENCODING 52
SWIDTH 514 0
DWIDTH 10 0
BBX 8 12 1 0
BITMAP
0C
0C
1C
34
64
44
C4
FF
FF
04
04
04
ENDCHAR
STARTCHAR 0035
ENCODING 53
SWIDTH 514 0
DWIDTH 10 0
BBX 7 12 1 0
BITMAP
7E
7E
60
60
78
7E
06
02
02
86
FE
7C
ENDCHAR
STARTCHAR 0036
ENCODING 54
SWIDTH 514 0
DWIDTH 10 0
BBX 8 12 1 0
BITMAP
0E
3E
70
40
FC
FE
C6
C3
C2
C6
7E
3C
ENDCHAR
STARTCHAR 0037
ENCODING 55
SWIDTH 514 0
DWIDTH 10 0
BBX 8 12 1 0
BITMAP
FF
FF
06
06
0C
08
18
18
10
30
30
30
ENDCHAR
STARTCHAR 0038
ENCODING 56
SWIDTH 514 0
DWIDTH 10 0
BBX 8 12 1 0
BITMAP
3C
7E
C6
C2
E6
7C
7E
C6
83
C2
FE
7C
ENDCHAR
STARTCHAR 0039
ENCODING 57
SWIDTH 514 0
DWIDTH 10 0
BBX 7 12 1 0
BITMAP
3C
7E
C6
C2
C2
C2
7E
3E
06
0C
78
70
ENDCHAR
STARTCHAR 003A
ENCODING 58
SWIDTH 514 0
DWIDTH 10 0
BBX 3 9 3 0
BITMAP
60
E0
60
00
00
00
60
E0
60
ENDCHAR
STARTCHAR 003B
ENCODING 59
SWIDTH 514 0
DWIDTH 10 0
BBX 3 12 3 -3
BITMAP
60
E0
60
00
00
00
60
E0
60
60
40
80
ENDCHAR
STARTCHAR 003C
ENCODING 60
SWIDTH 514 0
DWIDTH 10 0
BBX 7 7 1 1
BITMAP
02
1C
70
C0
70
1C
02
ENDCHAR
STARTCHAR 003D
ENCODING 61
SWIDTH 514 0
DWIDTH 10 0
BBX 8 4 1 3
BITMAP
FF
00
00
FF
ENDCHAR
STARTCHAR 003E
ENCODING 62
SWIDTH 514 0
DWIDTH 10 0
BBX 8 7 1 1
BITMAP
C0
70
0E
03
0E
70
C0
ENDCHAR
STARTCHAR 003F
ENCODING 63
SWIDTH 514 0
DWIDTH 10 0
BBX 6 12 2 0
BITMAP
78
FC
8C
08
18
30
20
00
00
60
70
60
ENDCHAR
STARTCHAR 0040
ENCODING 64
SWIDTH 514 0
DWIDTH 10 0
BBX 8 15 1 -3
BITMAP
3C
7E
63
C3
C3
8F
9F
93
93
DF
CF
C0
60
3E
1E
ENDCHAR
STARTCHAR 0041
ENCODING 65
SWIDTH 514 0
DWIDTH 10 0
BBX 9 12 0 0
BITMAP
0C00
1C00
1600
1600
3200
2300
2300
6300
7F00
7F80
4180
C180
ENDCHAR
STARTCHAR 0042
ENCODING 66
SWIDTH 514 0
DWIDTH 10 0
BBX 8 12 1 0
BITMAP
FC
FE
C6
C6
C6
FC
FE
C6
C3
C6
FE
FC
ENDCHAR
STARTCHAR 0043
ENCODING 67
SWIDTH 514 0
DWIDTH 10 0
BBX 8 12 1 0
BITMAP
1E
7F
62
C0
C0
80
80
C0
C0
61
7F
3E
ENDCHAR
STARTCHAR 0044
ENCODING 68
SWIDTH 514 0
DWIDTH 10 0
BBX 8 12 1 0
BITMAP
F8
FC
C6
C2
C3
C3
C3
C3
C2
C6
FC
F8
ENDCHAR
STARTCHAR 0045
ENCODING 69
SWIDTH 514 0
DWIDTH 10 0
BBX 7 12 2 0
BITMAP
FC
FC
80
80
80
FC
FC
80
80
80
FE
FE
ENDCHAR
STARTCHAR 0046
ENCODING 70
SWIDTH 514 0
DWIDTH 10 0
BBX 6 12 2 0
BITMAP
FC
FC
80
80
80
FC
FC
80
80
80
80
80
ENDCHAR
STARTCHAR 0047
ENCODING 71
SWIDTH 514 0
DWIDTH 10 0
BBX 8 12 1 0
BITMAP
1E
7F
62
C0
C0
80
83
C3
C3
63
7F
3F
ENDCHAR
STARTCHAR 0048
ENCODING 72
SWIDTH 514 0
DWIDTH 10 0
BBX 8 12 1 0
BITMAP
83
83
83
83
83
FF
FF
83
83
83
83
83
ENDCHAR
STARTCHAR 0049
ENCODING 73
SWIDTH 514 0
DWIDTH 10 0
BBX 6 12 2 0
BITMAP
FC
FC
30
30
30
30
30
30
30
30
FC
FC
ENDCHAR
STARTCHAR 004A
ENCODING 74
SWIDTH 514 0
DWIDTH 10 0
BBX 7 12 1 0
BITMAP
7E
7E
06
06
06
06
06
06
06
86
FC
78
ENDCHAR
STARTCHAR 004B
ENCODING 75
SWIDTH 514 0
DWIDTH 10 0
BBX 8 12 1 0
BITMAP
C3
C6
CC
D8
F8
F0
F0
D8
CC
C6
C3
C3
ENDCHAR
STARTCHAR 004C
ENCODING 76
SWIDTH 514 0
DWIDTH 10 0
BBX 7 12 2 0
BITMAP
80
80
80
80
80
80
80
80
80
80
FE
FE
ENDCHAR
STARTCHAR 004D
ENCODING 77
SWIDTH 514 0
DWIDTH 10 0
BBX 8 12 1 0
BITMAP
C6
C6
A6
A6
AB
AB
9B
9B
83
83
83
83
ENDCHAR
STARTCHAR 004E
ENCODING 78
SWIDTH 514 0
DWIDTH 10 0
BBX 7 12 1 0
BITMAP
C2
C2
A2
A2
92
92
8A
8A
8E
86
86
82
ENDCHAR
STARTCHAR 004F
ENCODING 79
SWIDTH 514 0
DWIDTH 10 0
BBX 8 12 1 0
BITMAP
3C
7E
C6
C3
83
83
83
83
C3
C6
7E
3C
ENDCHAR
STARTCHAR 0050
ENCODING 80
SWIDTH 514 0
DWIDTH 10 0
BBX 8 12 1 0
BITMAP
FC
FE
C6
C3
C3
C6
FE
FC
C0
C0
C0
C0
ENDCHAR
STARTCHAR 0051
ENCODING 81
SWIDTH 514 0
DWIDTH 10 0
BBX 8 15 1 -3
BITMAP
3C
7E
C6
C3
83
83
83
83
C3
C6
7E
3C
18
0E
06
ENDCHAR
STARTCHAR 0052
ENCODING 82
SWIDTH 514 0
DWIDTH 10 0
BBX 8 12 1 0
BITMAP
F8
FE
C6
C2
C2
C6
FC
F8
CC
C4
C6
C3
ENDCHAR
STARTCHAR 0053
ENCODING 83
SWIDTH 514 0
DWIDTH 10 0
BBX 7 12 1 0
BITMAP
3C
7E
C2
C0
60
78
1E
06
02
82
FE
7C
ENDCHAR
STARTCHAR 0054
ENCODING 84
SWIDTH 514 0
DWIDTH 10 0
BBX 8 12 1 0
BITMAP
FF
FF
18
18
18
18
18
18
18
18
18
18
ENDCHAR
STARTCHAR 0055
ENCODING 85
SWIDTH 514 0
DWIDTH 10 0
BBX 8 12 1 0
BITMAP
83
83
83
83
83
83
83
83
C3
C6
7E
3C
ENDCHAR
STARTCHAR 0056
ENCODING 86
SWIDTH 514 0
DWIDTH 10 0
BBX 9 12 0 0
BITMAP
C080
4180
6180
6100
6100
2300
3300
3200
1600
1E00
1C00
0C00
ENDCHAR
STARTCHAR 0057
ENCODING 87
SWIDTH 514 0
DWIDTH 10 0
BBX 8 12 1 0
BITMAP
83
83
83
83
9B
9B
AB
AA
A6
A6
C6
C6
ENDCHAR
STARTCHAR 0058
ENCODING 88
SWIDTH 514 0
DWIDTH 10 0
BBX 8 12 1 0
BITMAP
C3
46
64
2C
38
18
38
3C
64
46
C2
83
ENDCHAR
STARTCHAR 0059
ENCODING 89
SWIDTH 514 0
DWIDTH 10 0
BBX 9 12 0 0
BITMAP
C180
6180
6100
3300
3200
1E00
1C00
0C00
0C00
0C00
0C00
0C00
ENDCHAR
STARTCHAR 005A
ENCODING 90
SWIDTH 514 0
DWIDTH 10 0
BBX 8 12 1 0
BITMAP
FF
FF
06
04
0C
18
30
20
60
C0
FF
FF
ENDCHAR
STARTCHAR 005B
ENCODING 91
SWIDTH 514 0
DWIDTH 10 0
BBX 4 15 3 -3
BITMAP
F0
80
80
80
80
80
80
80
80
80
80
80
80
80
F0
ENDCHAR
STARTCHAR 005C
ENCODING 92
SWIDTH 514 0
DWIDTH 10 0
BBX 7 16 1 -3
BITMAP
C0
40
60
60
20
30
30
10
18
18
08
0C
0C
04
06
06
ENDCHAR
STARTCHAR 005D
ENCODING 93
SWIDTH 514 0
DWIDTH 10 0
BBX 5 15 2 -3
BITMAP
F8
18
18
18
18
18
18
18
18
18
18
18
18
18
F8
ENDCHAR
STARTCHAR 005E
ENCODING 94
SWIDTH 514 0
DWIDTH 10 0
BBX 8 6 1 6
BITMAP
18
38
2C
66
C2
83
ENDCHAR
STARTCHAR 005F
ENCODING 95
SWIDTH 514 0
DWIDTH 10 0
BBX 9 1 0 -3
BITMAP
FF80
ENDCHAR
STARTCHAR 0060
ENCODING 96
SWIDTH 514 0
DWIDTH 10 0
BBX 2 3 4 10
BITMAP
80
C0
40
ENDCHAR
STARTCHAR 0061
ENCODING 97
SWIDTH 514 0
DWIDTH 10 0
BBX 7 9 1 0
BITMAP
7C
7E
02
3E
C2
C2
C2
FE
7E
ENDCHAR
STARTCHAR 0062
ENCODING 98
SWIDTH 514 0
DWIDTH 10 0
BBX 8 13 1 0
BITMAP
C0
C0
C0
C0
FC
FE
C6
C3
C3
C3
C6
FE
FC
ENDCHAR
STARTCHAR 0063
ENCODING 99
SWIDTH 514 0
DWIDTH 10 0
BBX 8 9 1 0
BITMAP
3E
7E
E0
C0
C0
C0
E0
7E
3F
ENDCHAR
STARTCHAR 0064
ENCODING 100
SWIDTH 514 0
DWIDTH 10 0
BBX 7 13 1 0
BITMAP
02
02
02
02
3E
7E
C6
C2
82
C2
C2
7E
3E
ENDCHAR
STARTCHAR 0065
ENCODING 101
SWIDTH 514 0
DWIDTH 10 0
BBX 8 9 1 0
BITMAP
3C
7E
C3
FF
80
C0
E0
7E
3E
ENDCHAR
STARTCHAR 0066
ENCODING 102
SWIDTH 514 0
DWIDTH 10 0
BBX 8 13 1 0
BITMAP
1F
3F
30
30
FE
FE
30
30
30
30
30
30
30
ENDCHAR
STARTCHAR 0067
ENCODING 103
SWIDTH 514 0
DWIDTH 10 0
BBX 7 12 1 -3
BITMAP
3E
7E
C2
C2
82
82
C2
7E
3E
06
FE
FC
ENDCHAR
STARTCHAR 0068
ENCODING 104
SWIDTH 514 0
DWIDTH 10 0
BBX 7 13 1 0
BITMAP
C0
C0
C0
C0
FC
FE
C6
C2
C2
C2
C2
C2
C2
ENDCHAR
STARTCHAR 0069
ENCODING 105
SWIDTH 514 0
DWIDTH 10 0
BBX 7 12 1 0
BITMAP
30
30
00
F0
F0
10
10
10
10
10
1E
1E
ENDCHAR
STARTCHAR 006A
ENCODING 106
SWIDTH 514 0
DWIDTH 10 0
BBX 5 15 2 -3
BITMAP
18
18
00
F8
F8
08
08
08
08
08
08
08
18
F8
F0
ENDCHAR
STARTCHAR 006B
ENCODING 107
SWIDTH 514 0
DWIDTH 10 0
BBX 8 13 1 0
BITMAP
C0
C0
C0
C0
C6
CC
D8
F0
F0
D8
CC
C6
C3
ENDCHAR
STARTCHAR 006C
ENCODING 108
SWIDTH 514 0
DWIDTH 10 0
BBX 7 13 1 0
BITMAP
F0
F0
10
10
10
10
10
10
10
10
10
1E
0E
ENDCHAR
STARTCHAR 006D
ENCODING 109
SWIDTH 514 0
DWIDTH 10 0
BBX 8 9 1 0
BITMAP
FE
FF
93
9B
9B
9B
83
83
83
ENDCHAR
STARTCHAR 006E
ENCODING 110
SWIDTH 514 0
DWIDTH 10 0
BBX 7 9 1 0
BITMAP
FC
FE
C6
C2
C2
C2
C2
C2
C2
ENDCHAR
STARTCHAR 006F
ENCODING 111
SWIDTH 514 0
DWIDTH 10 0
BBX 8 9 1 0
BITMAP
3C
7E
C6
C3
83
C3
C6
7E
3C
ENDCHAR
STARTCHAR 0070
ENCODING 112
SWIDTH 514 0
DWIDTH 10 0
BBX 8 12 1 -3
BITMAP
FC
FE
C6
C3
C3
C3
C6
FE
FC
C0
C0
C0
ENDCHAR
STARTCHAR 0071
ENCODING 113
SWIDTH 514 0
DWIDTH 10 0
BBX 7 12 1 -3
BITMAP
3E
7E
C2
C2
82
C2
C2
7E
3E
02
02
02
ENDCHAR
STARTCHAR 0072
ENCODING 114
SWIDTH 514 0
DWIDTH 10 0
BBX 6 9 2 0
BITMAP
7C
FC
C0
C0
C0
C0
C0
C0
C0
ENDCHAR
STARTCHAR 0073
ENCODING 115
SWIDTH 514 0
DWIDTH 10 0
BBX 7 9 1 0
BITMAP
3E
7E
C0
70
7C
0E
82
FE
7C
ENDCHAR
STARTCHAR 0074
ENCODING 116
SWIDTH 514 0
DWIDTH 10 0
BBX 7 12 1 0
BITMAP
30
30
30
FE
FE
30
30
30
30
30
3E
1E
ENDCHAR
STARTCHAR 0075
ENCODING 117
SWIDTH 514 0
DWIDTH 10 0
BBX 7 9 1 0
BITMAP
C2
C2
C2
C2
C2
C2
C2
7E
3E
ENDCHAR
STARTCHAR 0076
ENCODING 118
SWIDTH 514 0
DWIDTH 10 0
BBX 8 9 1 0
BITMAP
83
C2
C2
46
64
6C
2C
38
18
ENDCHAR
STARTCHAR 0077
ENCODING 119
SWIDTH 514 0
DWIDTH 10 0
BBX 9 9 0 0
BITMAP
C080
4080
4D80
4D80
5D80
5500
7300
7300
2300
ENDCHAR
STARTCHAR 0078
ENCODING 120
SWIDTH 514 0
DWIDTH 10 0
BBX 8 9 1 0
BITMAP
C2
66
2C
38
18
3C
64
C6
83
ENDCHAR
STARTCHAR 0079
ENCODING 121
SWIDTH 514 0
DWIDTH 10 0
BBX 8 12 1 -3
BITMAP
C3
C2
46
66
64
24
3C
18
18
18
F0
E0
ENDCHAR
STARTCHAR 007A
ENCODING 122
SWIDTH 514 0
DWIDTH 10 0
BBX 7 9 1 0
BITMAP
7E
7E
0C
08
10
20
60
FE
FE
ENDCHAR
STARTCHAR 007B
ENCODING 123
SWIDTH 514 0
DWIDTH 10 0
BBX 7 16 1 -3
BITMAP
0E
10
10
10
10
10
10
30
E0
30
10
10
10
10
10
1E
ENDCHAR
STARTCHAR 007C
ENCODING 124
SWIDTH 514 0
DWIDTH 10 0
BBX 1 16 4 -3
BITMAP
80
80
80
80
80
80
80
80
80
80
80
80
80
80
80
80
ENDCHAR
STARTCHAR 007D
ENCODING 125
SWIDTH 514 0
DWIDTH 10 0
BBX 7 16 1 -3
BITMAP
F0
18
18
18
18
18
08
08
06
08
18
18
18
18
18
F0
ENDCHAR
STARTCHAR 007E
ENCODING 126
SWIDTH 514 0
DWIDTH 10 0
BBX 8 3 1 4
BITMAP
73
FE
8E
ENDCHAR
STARTCHAR 00A0
ENCODING 160
SWIDTH 514 0
DWIDTH 10 0
BBX 0 0 0 0
BITMAP
ENDCHAR
STARTCHAR 00A1
ENCODING 161
SWIDTH 514 0
DWIDTH 10 0
BBX 3 12 3 -3
BITMAP
60
E0
60
00
00
40
40
60
60
60
60
60
ENDCHAR
STARTCHAR 00A2
ENCODING 162
SWIDTH 514 0
DWIDTH 10 0
BBX 7 14 1 -2
BITMAP
08
08
3E
7E
E0
C0
C0
C0
C0
C0
60
3E
08
08
ENDCHAR
STARTCHAR 00A3
ENCODING 163
SWIDTH 514 0
DWIDTH 10 0
BBX 8 12 1 0
BITMAP
1E
3E
20
60
60
FC
FC
60
60
60
7F
7F
ENDCHAR
STARTCHAR 00A4
ENCODING 164
SWIDTH 514 0
DWIDTH 10 0
BBX 8 9 1 2
BITMAP
83
FE
66
42
C2
42
66
FE
83
ENDCHAR
STARTCHAR 00A5
ENCODING 165
SWIDTH 514 0
DWIDTH 10 0
BBX 8 12 1 0
BITMAP
83
C2
46
64
2C
38
FE
FE
18
FE
FE
18
ENDCHAR
STARTCHAR 00A6
ENCODING 166
SWIDTH 514 0
DWIDTH 10 0
BBX 1 16 4 -3
BITMAP
80
80
80
80
80
80
80
00
00
80
80
80
80
80
80
80
ENDCHAR
STARTCHAR 00A7
ENCODING 167
SWIDTH 514 0
DWIDTH 10 0
BBX 7 14 1 -2
BITMAP
3E
7E
40
60
7C
7E
C6
C2
7C
3C
06
46
FE
7C
ENDCHAR
STARTCHAR 00A8
ENCODING 168
SWIDTH 514 0
DWIDTH 10 0
BBX 5 2 2 10
BITMAP
D8
C8
ENDCHAR
STARTCHAR 00A9
ENCODING 169
SWIDTH 514 0
DWIDTH 10 0
BBX 8 9 1 0
BITMAP
3C
46
9A
A1
A1
A1
BA
46
3C
ENDCHAR
STARTCHAR 00AA
ENCODING 170
SWIDTH 514 0
DWIDTH 10 0
BBX 5 6 2 6
BITMAP
78
08
78
C8
C8
78
ENDCHAR
STARTCHAR 00AB
ENCODING 171
SWIDTH 514 0
DWIDTH 10 0
BBX 7 7 1 1
BITMAP
22
64
4C
C8
4C
64
22
ENDCHAR
STARTCHAR 00AC
ENCODING 172
SWIDTH 514 0
DWIDTH 10 0
BBX 8 5 1 1
BITMAP
FF
03
03
03
03
ENDCHAR
STARTCHAR 00AD
ENCODING 173
SWIDTH 514 0
DWIDTH 10 0
BBX 4 1 3 4
BITMAP
F0
ENDCHAR
STARTCHAR 00AE
ENCODING 174
SWIDTH 514 0
DWIDTH 10 0
BBX 8 9 1 0
BITMAP
3C
46
BA
A5
B9
A9
AE
46
3C
ENDCHAR
STARTCHAR 00AF
ENCODING 175
SWIDTH 514 0
DWIDTH 10 0
BBX 5 1 2 11
BITMAP
F8
ENDCHAR
STARTCHAR 00B0
ENCODING 176
SWIDTH 514 0
DWIDTH 10 0
BBX 5 5 2 8
BITMAP
70
48
C8
48
70
ENDCHAR
STARTCHAR 00B1
ENCODING 177
SWIDTH 514 0
DWIDTH 10 0
BBX 8 10 1 0
BITMAP
10
10
10
FF
10
10
10
00
00
FF
ENDCHAR
STARTCHAR 00B2
ENCODING 178
SWIDTH 514 0
DWIDTH 10 0
BBX 4 6 3 6
BITMAP
E0
90
30
60
80
F0
ENDCHAR
STARTCHAR 00B3
ENCODING 179
SWIDTH 514 0
DWIDTH 10 0
BBX 5 6 2 6
BITMAP
70
08
30
08
08
F0
ENDCHAR
STARTCHAR 00B4
ENCODING 180
SWIDTH 514 0
DWIDTH 10 0
BBX 3 3 3 10
BITMAP
20
60
C0
ENDCHAR
STARTCHAR 00B5
ENCODING 181
SWIDTH 514 0
DWIDTH 10 0
BBX 7 12 1 -3
BITMAP
C2
C2
C2
C2
C2
C2
C2
FE
FE
C0
C0
C0
ENDCHAR
STARTCHAR 00B6
ENCODING 182
SWIDTH 514 0
DWIDTH 10 0
BBX 8 15 1 -3
BITMAP
3F
FB
FB
FB
FB
FB
7B
1B
1B
1B
1B
1B
1B
1B
1B
ENDCHAR
STARTCHAR 00B7
ENCODING 183
SWIDTH 514 0
DWIDTH 10 0
BBX 3 3 3 4
BITMAP
60
E0
60
ENDCHAR
STARTCHAR 00B8
ENCODING 184
SWIDTH 514 0
DWIDTH 10 0
BBX 3 3 3 -3
BITMAP
60
20
E0
ENDCHAR
STARTCHAR 00B9
ENCODING 185
SWIDTH 514 0
DWIDTH 10 0
BBX 4 6 3 6
BITMAP
60
E0
60
60
60
F0
ENDCHAR
STARTCHAR 00BA
ENCODING 186
SWIDTH 514 0
DWIDTH 10 0
BBX 6 6 2 6
BITMAP
78
88
84
84
88
78
ENDCHAR
STARTCHAR 00BB
ENCODING 187
SWIDTH 514 0
DWIDTH 10 0
BBX 6 7 2 1
BITMAP
90
C8
4C
64
4C
C8
90
ENDCHAR
STARTCHAR 00BC
ENCODING 188
SWIDTH 514 0
DWIDTH 10 0
BBX 8 12 1 0
BITMAP
43
C2
46
44
48
18
10
36
26
4A
CF
82
ENDCHAR
STARTCHAR 00BD
ENCODING 189
SWIDTH 514 0
DWIDTH 10 0
BBX 8 12 1 0
BITMAP
43
C2
44
4C
48
18
10
27
61
43
C4
8F
ENDCHAR
STARTCHAR 00BE
ENCODING 190
SWIDTH 514 0
DWIDTH 10 0
BBX 8 12 1 0
BITMAP
E3
22
E6
24
E8
18
10
36
26
4A
CF
82
ENDCHAR
STARTCHAR 00BF
ENCODING 191
SWIDTH 514 0
DWIDTH 10 0
BBX 6 12 2 -3
BITMAP
30
30
30
00
00
10
20
40
80
C0
FC
78
ENDCHAR
STARTCHAR 00C0
ENCODING 192
SWIDTH 514 0
DWIDTH 10 0
BBX 9 16 0 0
BITMAP
0800
0C00
0400
0000
0C00
1C00
1600
1600
3200
2300
2300
6300
7F00
7F80
4180
C180
ENDCHAR
STARTCHAR 00C1
ENCODING 193
SWIDTH 514 0
DWIDTH 10 0
BBX 9 16 0 0
BITMAP
0400
0C00
1800
0000
0C00
1C00
1600
1600
3200
2300
2300
6300
7F00
7F80
4180
C180
ENDCHAR
STARTCHAR 00C2
ENCODING 194
SWIDTH 514 0
DWIDTH 10 0
BBX 9 16 0 0
BITMAP
0800
1C00
1200
0000
0C00
1C00
1600
1600
3200
2300
2300
6300
7F00
7F80
4180
C180
ENDCHAR
STARTCHAR 00C3
ENCODING 195
SWIDTH 514 0
DWIDTH 10 0
BBX 9 16 0 0
BITMAP
1A00
2600
0000
0000
0C00
1C00
1600
1600
3200
2300
2300
6300
7F00
7F80
4180
C180
ENDCHAR
STARTCHAR 00C4
ENCODING 196
SWIDTH 514 0
DWIDTH 10 0
BBX 9 15 0 0
BITMAP
3600
3200
0000
0C00
1C00
1600
1600
3200
2300
2300
6300
7F00
7F80
4180
C180
ENDCHAR
STARTCHAR 00C5
ENCODING 197
SWIDTH 514 0
DWIDTH 10 0
BBX 9 15 0 0
BITMAP
0C00
1200
1400
0C00
1C00
1600
1200
3200
2300
2300
7F00
7F00
4180
4180
C080
ENDCHAR
STARTCHAR 00C6
ENCODING 198
SWIDTH 514 0
DWIDTH 10 0
BBX 8 12 1 0
BITMAP
1F
1F
38
28
28
6E
4E
78
F8
C8
8F
8F
ENDCHAR
STARTCHAR 00C7
ENCODING 199
SWIDTH 514 0
DWIDTH 10 0
BBX 8 15 1 -3
BITMAP
1E
7F
62
C0
C0
80
80
C0
C0
61
7F
3E
0C
04
1C
ENDCHAR
STARTCHAR 00C8
ENCODING 200
SWIDTH 514 0
DWIDTH 10 0
BBX 7 16 2 0
BITMAP
20
30
10
00
FC
FC
80
80
80
FC
FC
80
80
80
FE
FE
ENDCHAR
STARTCHAR 00C9
ENCODING 201
SWIDTH 514 0
DWIDTH 10 0
BBX 7 16 2 0
BITMAP
10
30
20
00
FC
FC
80
80
80
FC
FC
80
80
80
FE
FE
ENDCHAR
STARTCHAR 00CA
ENCODING 202
SWIDTH 514 0
DWIDTH 10 0
BBX 7 16 2 0
BITMAP
10
38
48
00
FC
FC
80
80
80
FC
FC
80
80
80
FE
FE
ENDCHAR
STARTCHAR 00CB
ENCODING 203
SWIDTH 514 0
DWIDTH 10 0
BBX 7 15 2 0
BITMAP
4C
4C
00
FC
FC
80
80
80
FC
FC
80
80
80
FE
FE
ENDCHAR
STARTCHAR 00CC
ENCODING 204
SWIDTH 514 0
DWIDTH 10 0
BBX 6 16 2 0
BITMAP
20
30
10
00
FC
FC
30
30
30
30
30
30
30
30
FC
FC
ENDCHAR
STARTCHAR 00CD
ENCODING 205
SWIDTH 514 0
DWIDTH 10 0
BBX 6 16 2 0
BITMAP
10
30
20
00
FC
FC
30
30
30
30
30
30
30
30
FC
FC
ENDCHAR
STARTCHAR 00CE
ENCODING 206
SWIDTH 514 0
DWIDTH 10 0
BBX 6 16 2 0
BITMAP
20
70
48
00
FC
FC
30
30
30
30
30
30
30
30
FC
FC
ENDCHAR
STARTCHAR 00CF
ENCODING 207
SWIDTH 514 0
DWIDTH 10 0
BBX 6 15 2 0
BITMAP
D8
C8
00
FC
FC
30
30
30
30
30
30
30
30
FC
FC
ENDCHAR
STARTCHAR 00D0
ENCODING 208
SWIDTH 514 0
DWIDTH 10 0
BBX 9 12 0 0
BITMAP
7C00
7E00
6300
6100
6180
F980
F980
6180
6100
6300
7E00
7C00
ENDCHAR
STARTCHAR 00D1
ENCODING 209
SWIDTH 514 0
DWIDTH 10 0
BBX 7 16 1 0
BITMAP
34
4C
00
00
C2
C2
A2
A2
92
92
8A
8A
8E
86
86
82
ENDCHAR
STARTCHAR 00D2
ENCODING 210
SWIDTH 514 0
DWIDTH 10 0
BBX 8 16 1 0
BITMAP
10
18
08
00
3C
7E
C6
C3
83
83
83
83
C3
C6
7E
3C
ENDCHAR
STARTCHAR 00D3
ENCODING 211
SWIDTH 514 0
DWIDTH 10 0
BBX 8 16 1 0
BITMAP
08
18
10
00
3C
7E
C6
C3
83
83
83
83
C3
C6
7E
3C
ENDCHAR
STARTCHAR 00D4
ENCODING 212
SWIDTH 514 0
DWIDTH 10 0
BBX 8 16 1 0
BITMAP
10
38
24
00
3C
7E
C6
C3
83
83
83
83
C3
C6
7E
3C
ENDCHAR
STARTCHAR 00D5
ENCODING 213
SWIDTH 514 0
DWIDTH 10 0
BBX 8 16 1 0
BITMAP
34
4C
00
00
3C
7E
C6
C3
83
83
83
83
C3
C6
7E
3C
ENDCHAR
STARTCHAR 00D6
ENCODING 214
SWIDTH 514 0
DWIDTH 10 0
BBX 8 15 1 0
BITMAP
6C
64
00
3C
7E
C6
C3
83
83
83
83
C3
C6
7E
3C
ENDCHAR
STARTCHAR 00D7
ENCODING 215
SWIDTH 514 0
DWIDTH 10 0
BBX 7 7 1 2
BITMAP
C2
64
3C
18
3C
64
C2
ENDCHAR
STARTCHAR 00D8
ENCODING 216
SWIDTH 514 0
DWIDTH 10 0
BBX 8 12 1 0
BITMAP
3E
7E
C6
CF
8B
9B
93
B3
A3
E6
7E
FC
ENDCHAR
STARTCHAR 00D9
ENCODING 217
SWIDTH 514 0
DWIDTH 10 0
BBX 8 16 1 0
BITMAP
10
18
08
00
83
83
83
83
83
83
83
83
C3
C6
7E
3C
ENDCHAR
STARTCHAR 00DA
ENCODING 218
SWIDTH 514 0
DWIDTH 10 0
BBX 8 16 1 0
BITMAP
08
18
10
00
83
83
83
83
83
83
83
83
C3
C6
7E
3C
ENDCHAR
STARTCHAR 00DB
ENCODING 219
SWIDTH 514 0
DWIDTH 10 0
BBX 8 16 1 0
BITMAP
10
38
24
00
83
83
83
83
83
83
83
83
C3
C6
7E
3C
ENDCHAR
STARTCHAR 00DC
ENCODING 220
SWIDTH 514 0
DWIDTH 10 0
BBX 8 15 1 0
BITMAP
6C
64
00
83
83
83
83
83
83
83
83
C3
C6
7E
3C
ENDCHAR
STARTCHAR 00DD
ENCODING 221
SWIDTH 514 0
DWIDTH 10 0
BBX 9 16 0 0
BITMAP
0400
0C00
0800
0000
C180
6180
6100
3300
3200
1E00
1C00
0C00
0C00
0C00
0C00
0C00
ENDCHAR
STARTCHAR 00DE
ENCODING 222
SWIDTH 514 0
DWIDTH 10 0
BBX 8 12 1 0
BITMAP
C0
C0
FC
FE
C7
C3
C3
C6
FE
FC
C0
C0
ENDCHAR
STARTCHAR 00DF
ENCODING 223
SWIDTH 514 0
DWIDTH 10 0
BBX 8 13 1 0
BITMAP
3C
7C
C6
C4
CC
D8
D8
CE
C3
C3
C3
DF
DE
ENDCHAR
STARTCHAR 00E0
ENCODING 224
SWIDTH 514 0
DWIDTH 10 0
BBX 7 13 1 0
BITMAP
10
18
08
00
7C
7E
02
3E
C2
C2
C2
FE
7E
ENDCHAR
STARTCHAR 00E1
ENCODING 225
SWIDTH 514 0
DWIDTH 10 0
BBX 7 13 1 0
BITMAP
08
18
10
00
7C
7E
02
3E
C2
C2
C2
FE
7E
ENDCHAR
STARTCHAR 00E2
ENCODING 226
SWIDTH 514 0
DWIDTH 10 0
BBX 7 13 1 0
BITMAP
10
38
24
00
7C
7E
02
3E
C2
C2
C2
FE
7E
ENDCHAR
STARTCHAR 00E3
ENCODING 227
SWIDTH 514 0
DWIDTH 10 0
BBX 7 13 1 0
BITMAP
34
4C
00
00
7C
7E
02
3E
C2
C2
C2
FE
7E
ENDCHAR
STARTCHAR 00E4
ENCODING 228
SWIDTH 514 0
DWIDTH 10 0
BBX 7 12 1 0
BITMAP
6C
64
00
7C
7E
02
3E
C2
C2
C2
FE
7E
ENDCHAR
STARTCHAR 00E5
ENCODING 229
SWIDTH 514 0
DWIDTH 10 0
BBX 7 14 1 0
BITMAP
18
28
28
18
00
7C
7E
02
3E
C2
C2
C2
FE
7E
ENDCHAR
STARTCHAR 00E6
ENCODING 230
SWIDTH 514 0
DWIDTH 10 0
BBX 8 9 1 0
BITMAP
E6
FF
19
7F
98
98
98
FF
77
ENDCHAR
STARTCHAR 00E7
ENCODING 231
SWIDTH 514 0
DWIDTH 10 0
BBX 8 12 1 -3
BITMAP
3E
7E
E0
C0
C0
C0
E0
7E
3F
18
0C
38
ENDCHAR
STARTCHAR 00E8
ENCODING 232
SWIDTH 514 0
DWIDTH 10 0
BBX 8 13 1 0
BITMAP
10
18
08
00
3C
7E
C3
FF
80
C0
E0
7E
3E
ENDCHAR
STARTCHAR 00E9
ENCODING 233
SWIDTH 514 0
DWIDTH 10 0
BBX 8 13 1 0
BITMAP
08
18
10
00
3C
7E
C3
FF
80
C0
E0
7E
3E
ENDCHAR
STARTCHAR 00EA
ENCODING 234
SWIDTH 514 0
DWIDTH 10 0
BBX 8 13 1 0
BITMAP
18
3C
24
00
3C
7E
C3
FF
80
C0
E0
7E
3E
ENDCHAR
STARTCHAR 00EB
ENCODING 235
SWIDTH 514 0
DWIDTH 10 0
BBX 8 12 1 0
BITMAP
24
24
00
3C
7E
C3
FF
80
C0
E0
7E
3E
ENDCHAR
STARTCHAR 00EC
ENCODING 236
SWIDTH 514 0
DWIDTH 10 0
BBX 7 13 1 0
BITMAP
20
30
10
00
F0
F0
10
10
10
10
10
1E
1E
ENDCHAR
STARTCHAR 00ED
ENCODING 237
SWIDTH 514 0
DWIDTH 10 0
BBX 7 13 1 0
BITMAP
10
30
20
00
F0
F0
10
10
10
10
10
1E
1E
ENDCHAR
STARTCHAR 00EE
ENCODING 238
SWIDTH 514 0
DWIDTH 10 0
BBX 7 13 1 0
BITMAP
10
38
48
00
F0
F0
10
10
10
10
10
1E
1E
ENDCHAR
STARTCHAR 00EF
ENCODING 239
SWIDTH 514 0
DWIDTH 10 0
BBX 7 12 1 0
BITMAP
4C
4C
00
F0
F0
10
10
10
10
10
1E
1E
ENDCHAR
STARTCHAR 00F0
ENCODING 240
SWIDTH 514 0
DWIDTH 10 0
BBX 8 13 1 0
BITMAP
10
0F
3C
04
3E
7E
C6
C2
C2
C6
C6
7C
38
ENDCHAR
STARTCHAR 00F1
ENCODING 241
SWIDTH 514 0
DWIDTH 10 0
BBX 7 13 1 0
BITMAP
34
4C
00
00
FC
FE
C6
C2
C2
C2
C2
C2
C2
ENDCHAR
STARTCHAR 00F2
ENCODING 242
SWIDTH 514 0
DWIDTH 10 0
BBX 8 13 1 0
BITMAP
10
18
08
00
3C
7E
C6
C3
83
C3
C6
7E
3C
ENDCHAR
STARTCHAR 00F3
ENCODING 243
SWIDTH 514 0
DWIDTH 10 0
BBX 8 13 1 0
BITMAP
08
18
10
00
3C
7E
C6
C3
83
C3
C6
7E
3C
ENDCHAR
STARTCHAR 00F4
ENCODING 244
SWIDTH 514 0
DWIDTH 10 0
BBX 8 13 1 0
BITMAP
10
38
24
00
3C
7E
C6
C3
83
C3
C6
7E
3C
ENDCHAR
STARTCHAR 00F5
ENCODING 245
SWIDTH 514 0
DWIDTH 10 0
BBX 8 13 1 0
BITMAP
34
4C
00
00
3C
7E
C6
C3
83
C3
C6
7E
3C
ENDCHAR
STARTCHAR 00F6
ENCODING 246
SWIDTH 514 0
DWIDTH 10 0
BBX 8 12 1 0
BITMAP
6C
64
00
3C
7E
C6
C3
83
C3
C6
7E
3C
ENDCHAR
STARTCHAR 00F7
ENCODING 247
SWIDTH 514 0
DWIDTH 10 0
BBX 8 7 1 1
BITMAP
18
18
00
FF
00
18
18
ENDCHAR
STARTCHAR 00F8
ENCODING 248
SWIDTH 514 0
DWIDTH 10 0
BBX 8 9 1 0
BITMAP
3E
7E
C6
CB
93
A3
E6
7E
BC
ENDCHAR
STARTCHAR 00F9
ENCODING 249
SWIDTH 514 0
DWIDTH 10 0
BBX 7 13 1 0
BITMAP
10
18
08
00
C2
C2
C2
C2
C2
C2
C2
7E
3E
ENDCHAR
STARTCHAR 00FA
ENCODING 250
SWIDTH 514 0
DWIDTH 10 0
BBX 7 13 1 0
BITMAP
08
18
10
00
C2
C2
C2
C2
C2
C2
C2
7E
3E
ENDCHAR
STARTCHAR 00FB
ENCODING 251
SWIDTH 514 0
DWIDTH 10 0
BBX 7 13 1 0
BITMAP
10
38
24
00
C2
C2
C2
C2
C2
C2
C2
7E
3E
ENDCHAR
STARTCHAR 00FC
ENCODING 252
SWIDTH 514 0
DWIDTH 10 0
BBX 7 12 1 0
BITMAP
6C
64
00
C2
C2
C2
C2
C2
C2
C2
7E
3E
ENDCHAR
STARTCHAR 00FD
ENCODING 253
SWIDTH 514 0
DWIDTH 10 0
BBX 8 16 1 -3
BITMAP
08
18
10
00
C3
C2
46
66
64
24
3C
18
18
18
F0
E0
ENDCHAR
STARTCHAR 00FE
ENCODING 254
SWIDTH 514 0
DWIDTH 10 0
BBX 8 16 1 -3
BITMAP
C0
C0
C0
C0
FC
FE
C6
C3
C3
C3
C6
FE
FC
C0
C0
C0
ENDCHAR
STARTCHAR 00FF
ENCODING 255
SWIDTH 514 0
DWIDTH 10 0
BBX 8 15 1 -3
BITMAP
26
26
00
C3
C2
46
66
64
24
3C
18
18
18
F0
E0
ENDCHAR
STARTCHAR 0152
ENCODING 140
SWIDTH 514 0
DWIDTH 10 0
BBX 8 12 1 0
BITMAP
7F
7F
C8
88
88
8E
8E
88
88
C8
FF
7F
ENDCHAR
STARTCHAR 0153
ENCODING 156
SWIDTH 514 0
DWIDTH 10 0
BBX 8 9 1 0
BITMAP
66
FF
99
9F
98
98
98
FF
67
ENDCHAR
STARTCHAR 0160
ENCODING 138
SWIDTH 514 0
DWIDTH 10 0
BBX 7 16 1 0
BITMAP
24
1C
08
00
3C
7E
C2
C0
60
78
1E
06
02
82
FE
7C
ENDCHAR
STARTCHAR 0161
ENCODING 154
SWIDTH 514 0
DWIDTH 10 0
BBX 7 13 1 0
BITMAP
24
38
10
00
3E
7E
C0
70
7C
0E
82
FE
7C
ENDCHAR
STARTCHAR 0178
ENCODING 159
SWIDTH 514 0
DWIDTH 10 0
BBX 9 15 0 0
BITMAP
3200
3200
0000
C180
6180
6100
3300
3200
1E00
1C00
0C00
0C00
0C00
0C00
0C00
ENDCHAR
STARTCHAR 017D
ENCODING 142
SWIDTH 514 0
DWIDTH 10 0
BBX 8 16 1 0
BITMAP
24
38
10
00
FF
FF
06
04
0C
18
30
20
60
C0
FF
FF
ENDCHAR
STARTCHAR 017E
ENCODING 158
SWIDTH 514 0
DWIDTH 10 0
BBX 7 13 1 0
BITMAP
24
38
10
00
7E
7E
0C
08
10
20
60
FE
FE
ENDCHAR
STARTCHAR 0192
ENCODING 131
SWIDTH 514 0
DWIDTH 10 0
BBX 9 16 0 -3
BITMAP
0F80
1F80
1800
1800
7F00
7F00
1800
1800
1800
1800
1800
1800
1800
1800
F000
E000
ENDCHAR
STARTCHAR 02C6
ENCODING 136
SWIDTH 514 0
DWIDTH 10 0
BBX 4 3 3 10
BITMAP
40
E0
90
ENDCHAR
STARTCHAR 02DC
ENCODING 152
SWIDTH 514 0
DWIDTH 10 0
BBX 5 2 2 11
BITMAP
68
98
ENDCHAR
STARTCHAR 2013
ENCODING 150
SWIDTH 514 0
DWIDTH 10 0
BBX 7 1 1 4
BITMAP
FE
ENDCHAR
STARTCHAR 2014
ENCODING 151
SWIDTH 514 0
DWIDTH 10 0
BBX 10 1 0 4
BITMAP
FFC0
ENDCHAR
STARTCHAR 2018
ENCODING 145
SWIDTH 514 0
DWIDTH 10 0
BBX 4 6 3 6
BITMAP
30
40
C0
C0
E0
C0
ENDCHAR
STARTCHAR 2019
ENCODING 146
SWIDTH 514 0
DWIDTH 10 0
BBX 4 6 3 6
BITMAP
60
70
70
20
60
C0
ENDCHAR
STARTCHAR 201A
ENCODING 130
SWIDTH 514 0
DWIDTH 10 0
BBX 4 6 3 -3
BITMAP
60
70
70
20
60
C0
ENDCHAR
STARTCHAR 201C
ENCODING 147
SWIDTH 514 0
DWIDTH 10 0
BBX 8 5 1 7
BITMAP
63
C4
CE
CE
C6
ENDCHAR
STARTCHAR 201D
ENCODING 148
SWIDTH 514 0
DWIDTH 10 0
BBX 8 5 1 7
BITMAP
66
67
67
62
CC
ENDCHAR
STARTCHAR 201E
ENCODING 132
SWIDTH 514 0
DWIDTH 10 0
BBX 8 5 1 -2
BITMAP
66
67
67
62
CC
ENDCHAR
STARTCHAR 2020
ENCODING 134
SWIDTH 514 0
DWIDTH 10 0
BBX 7 14 1 -2
BITMAP
10
10
10
10
FE
10
10
10
10
10
10
10
10
10
ENDCHAR
STARTCHAR 2021
ENCODING 135
SWIDTH 514 0
DWIDTH 10 0
BBX 7 14 1 -2
BITMAP
10
10
10
10
FE
10
10
10
FE
10
10
10
10
10
ENDCHAR
STARTCHAR 2022
ENCODING 149
SWIDTH 514 0
DWIDTH 10 0
BBX 5 5 2 3
BITMAP
70
F8
F8
F8
70
ENDCHAR
STARTCHAR 2026
ENCODING 133
SWIDTH 514 0
DWIDTH 10 0
BBX 8 3 1 0
BITMAP
9B
DB
9B
ENDCHAR
STARTCHAR 2030
ENCODING 137
SWIDTH 514 0
DWIDTH 10 0
BBX 9 12 0 0
BITMAP
6000
A000
A080
A300
6E00
1800
6000
D980
2A80
2A80
2A80
1980
ENDCHAR
STARTCHAR 2039
ENCODING 139
SWIDTH 514 0
DWIDTH 10 0
BBX 3 7 3 1
BITMAP
20
60
C0
C0
C0
60
20
ENDCHAR
STARTCHAR 203A
ENCODING 155
SWIDTH 514 0
DWIDTH 10 0
BBX 4 7 3 1
BITMAP
C0
40
60
30
60
40
C0
ENDCHAR
STARTCHAR 20AC
ENCODING 128
SWIDTH 514 0
DWIDTH 10 0
BBX 8 12 1 0
BITMAP
1F
3E
60
FC
FC
40
FC
FC
60
60
3F
1F
ENDCHAR
STARTCHAR 2122
ENCODING 153
SWIDTH 514 0
DWIDTH 10 0
BBX 9 5 0 7
BITMAP
F580
2580
2B80
2A80
2880
ENDCHAR
ENDFONT
