STARTFONT 2.1
COMMENT
COMMENT Converted from OpenType font "UbuntuMono-Regular.ttf" by "otf2bdf 3.0".
COMMENT
FONT -FreeType-ubuntu mono cp1252-Medium-R-Normal--25-180-100-100-P-94-ISO10646-1
SIZE 18 100 100
FONTBOUNDINGBOX 13 24 0 -4
STARTPROPERTIES 19
FOUNDRY "FreeType"
FAMILY_NAME "ubuntu mono cp1252"
WEIGHT_NAME "Medium"
SLANT "R"
SETWIDTH_NAME "Normal"
ADD_STYLE_NAME ""
PIXEL_SIZE 25
POINT_SIZE 180
RESOLUTION_X 100
RESOLUTION_Y 100
SPACING "P"
AVERAGE_WIDTH 94
CHARSET_REGISTRY "ISO10646"
CHARSET_ENCODING "1"
FONT_ASCENT 20
FONT_DESCENT 4
COPYRIGHT "Copyright 2011 Canonical Ltd.  Licensed under the Ubuntu Font Licence 1.0"
_OTF_FONTFILE "UbuntuMono-Regular.ttf"
_OTF_PSNAME "UbuntuMono-Regular"
ENDPROPERTIES
CHARS 223
STARTCHAR 0000
ENCODING 157
SWIDTH 520 0
DWIDTH 13 0
BBX 0 0 0 0
BITMAP
ENDCHAR
STARTCHAR 0008
ENCODING 8
SWIDTH 520 0
DWIDTH 13 0
BBX 0 0 0 0
BITMAP
ENDCHAR
STARTCHAR 0009
ENCODING 9
SWIDTH 520 0
DWIDTH 13 0
BBX 0 0 0 0
BITMAP
ENDCHAR
STARTCHAR 000D
ENCODING 13
SWIDTH 520 0
DWIDTH 13 0
BBX 0 0 0 0
BITMAP
ENDCHAR
STARTCHAR 001D
ENCODING 29
SWIDTH 520 0
DWIDTH 13 0
BBX 0 0 0 0
BITMAP
ENDCHAR
STARTCHAR 0020
ENCODING 32
SWIDTH 520 0
DWIDTH 13 0
BBX 0 0 0 0
BITMAP
ENDCHAR
STARTCHAR 0021
ENCODING 33
SWIDTH 520 0
DWIDTH 13 0
BBX 3 15 5 0
BITMAP
C0
C0
C0
C0
C0
C0
C0
C0
C0
C0
00
00
C0
E0
C0
ENDCHAR
STARTCHAR 0022
ENCODING 34
SWIDTH 520 0
DWIDTH 13 0
BBX 6 6 3 11
BITMAP
CC
CC
CC
CC
C4
44
ENDCHAR
STARTCHAR 0023
ENCODING 35
SWIDTH 520 0
DWIDTH 13 0
BBX 11 15 1 0
BITMAP
18C0
18C0
18C0
1980
FFE0
FFE0
3180
3180
3300
FFE0
FFE0
6300
6300
6600
4600
ENDCHAR
STARTCHAR 0024
ENCODING 36
SWIDTH 520 0
DWIDTH 13 0
BBX 10 19 1 -2
BITMAP
0C00
0C00
0C00
1F80
7F80
6080
6000
6000
7C00
3F00
07C0
01C0
00C0
41C0
FF80
7F00
0C00
0C00
0C00
ENDCHAR
STARTCHAR 0025
ENCODING 37
SWIDTH 520 0
DWIDTH 13 0
BBX 12 15 0 0
BITMAP
3830
4860
4CC0
CCC0
CD80
4D00
4B00
3EE0
05B0
0D30
1910
1930
3130
21B0
60E0
ENDCHAR
STARTCHAR 0026
ENCODING 38
SWIDTH 520 0
DWIDTH 13 0
BBX 11 15 1 0
BITMAP
1E00
7F00
6300
6300
6300
6600
3C00
38C0
6CC0
C680
C380
C180
E7C0
7EC0
3CE0
ENDCHAR
STARTCHAR 0027
ENCODING 39
SWIDTH 520 0
DWIDTH 13 0
BBX 2 7 5 10
BITMAP
C0
C0
C0
C0
C0
C0
40
ENDCHAR
STARTCHAR 0028
ENCODING 40
SWIDTH 520 0
DWIDTH 13 0
BBX 7 19 3 -4
BITMAP
04
0E
18
30
60
60
C0
C0
C0
C0
C0
C0
C0
60
70
30
18
0E
04
ENDCHAR
STARTCHAR 0029
ENCODING 41
SWIDTH 520 0
DWIDTH 13 0
BBX 7 19 3 -4
BITMAP
40
E0
70
38
18
0C
0C
0C
06
06
06
0C
0C
0C
18
38
70
E0
40
ENDCHAR
STARTCHAR 002A
ENCODING 42
SWIDTH 520 0
DWIDTH 13 0
BBX 9 9 2 6
BITMAP
1800
1800
9980
EF80
7E00
1C00
3600
6700
2200
ENDCHAR
STARTCHAR 002B
ENCODING 43
SWIDTH 520 0
DWIDTH 13 0
BBX 10 12 1 1
BITMAP
0C00
0C00
0C00
0C00
0C00
FFC0
FFC0
0C00
0C00
0C00
0C00
0C00
ENDCHAR
STARTCHAR 002C
ENCODING 44
SWIDTH 520 0
DWIDTH 13 0
BBX 5 6 4 -3
BITMAP
30
78
78
30
F0
C0
ENDCHAR
STARTCHAR 002D
ENCODING 45
SWIDTH 520 0
DWIDTH 13 0
BBX 6 2 3 5
BITMAP
FC
FC
ENDCHAR
STARTCHAR 002E
ENCODING 46
SWIDTH 520 0
DWIDTH 13 0
BBX 4 3 4 0
BITMAP
70
F0
70
ENDCHAR
STARTCHAR 002F
ENCODING 47
SWIDTH 520 0
DWIDTH 13 0
BBX 9 21 2 -4
BITMAP
0180
0300
0300
0300
0600
0600
0600
0C00
0C00
0C00
1800
1800
1800
3000
3000
3000
6000
6000
6000
C000
C000
ENDCHAR
STARTCHAR 0030
ENCODING 48
SWIDTH 520 0
DWIDTH 13 0
BBX 10 15 1 0
BITMAP
1E00
3F80
7180
60C0
E0C0
C0C0
CCC0
CEC0
CCC0
C0C0
E0C0
60C0
7180
3F80
1E00
ENDCHAR
STARTCHAR 0031
ENCODING 49
SWIDTH 520 0
DWIDTH 13 0
BBX 9 15 2 0
BITMAP
0C00
1C00
7C00
EC00
CC00
0C00
0C00
0C00
0C00
0C00
0C00
0C00
0C00
7F80
7F80
ENDCHAR
STARTCHAR 0032
ENCODING 50
SWIDTH 520 0
DWIDTH 13 0
BBX 9 15 2 0
BITMAP
7C00
FF00
8700
0300
0300
0300
0700
0600
1C00
3800
7000
6000
C000
FF80
FF80
ENDCHAR
STARTCHAR 0033
ENCODING 51
SWIDTH 520 0
DWIDTH 13 0
BBX 9 15 2 0
BITMAP
7C00
FF00
8300
0300
0300
0700
3E00
3E00
0300
0180
0180
0180
8380
FF00
7C00
ENDCHAR
STARTCHAR 0034
ENCODING 52
SWIDTH 520 0
DWIDTH 13 0
BBX 11 15 1 0
BITMAP
0380
0780
0F80
0D80
1980
3180
6180
6180
C180
FFE0
FFE0
0180
0180
0180
0180
ENDCHAR
STARTCHAR 0035
ENCODING 53
SWIDTH 520 0
DWIDTH 13 0
BBX 9 15 2 0
BITMAP
7F80
7F80
6000
6000
6000
6000
7C00
7F00
0700
0180
0180
0180
8380
FF00
7C00
ENDCHAR
STARTCHAR 0036
ENCODING 54
SWIDTH 520 0
DWIDTH 13 0
BBX 10 15 1 0
BITMAP
0380
0F80
1C00
3000
7000
6000
7F00
FF80
E1C0
C0C0
E0C0
60C0
71C0
3F80
1F00
ENDCHAR
STARTCHAR 0037
ENCODING 55
SWIDTH 520 0
DWIDTH 13 0
BBX 9 15 2 0
BITMAP
FF80
FF80
0180
0300
0700
0600
0C00
0C00
1C00
1800
1800
3800
3000
3000
3000
ENDCHAR
STARTCHAR 0038
ENCODING 56
SWIDTH 520 0
DWIDTH 13 0
BBX 10 15 1 0
BITMAP
1F00
3F80
71C0
60C0
60C0
6180
7F00
1F00
7380
60C0
C0C0
C0C0
61C0
7F80
1F00
ENDCHAR
STARTCHAR 0039
ENCODING 57
SWIDTH 520 0
DWIDTH 13 0
BBX 10 15 1 0
BITMAP
1E00
7F80
6180
E0C0
C0C0
E0C0
60C0
7FC0
3FC0
01C0
0180
0380
0F00
7E00
7800
ENDCHAR
STARTCHAR 003A
ENCODING 58
SWIDTH 520 0
DWIDTH 13 0
BBX 4 11 4 0
BITMAP
70
F0
70
00
00
00
00
00
70
F0
70
ENDCHAR
STARTCHAR 003B
ENCODING 59
SWIDTH 520 0
DWIDTH 13 0
BBX 5 14 3 -3
BITMAP
38
78
38
00
00
00
00
00
38
78
38
38
F0
C0
ENDCHAR
STARTCHAR 003C
ENCODING 60
SWIDTH 520 0
DWIDTH 13 0
BBX 10 10 1 1
BITMAP
0040
03C0
1F80
7C00
E000
F800
3E00
0780
01C0
0040
ENDCHAR
STARTCHAR 003D
ENCODING 61
SWIDTH 520 0
DWIDTH 13 0
BBX 10 7 1 3
BITMAP
FFC0
FFC0
0000
0000
0000
FFC0
FFC0
ENDCHAR
STARTCHAR 003E
ENCODING 62
SWIDTH 520 0
DWIDTH 13 0
BBX 10 10 1 1
BITMAP
4000
F800
3E00
07C0
00C0
03C0
0F00
7C00
F000
4000
ENDCHAR
STARTCHAR 003F
ENCODING 63
SWIDTH 520 0
DWIDTH 13 0
BBX 8 15 2 0
BITMAP
7C
FF
47
03
03
06
0E
1C
18
10
00
00
38
38
38
ENDCHAR
STARTCHAR 0040
ENCODING 64
SWIDTH 520 0
DWIDTH 13 0
BBX 11 18 1 -3
BITMAP
0F00
3FC0
70C0
60E0
6060
C3E0
CFE0
CC60
CC60
CC60
CC60
CFE0
E7E0
6000
7000
3800
1F80
0FC0
ENDCHAR
STARTCHAR 0041
ENCODING 65
SWIDTH 520 0
DWIDTH 13 0
BBX 12 15 0 0
BITMAP
0700
0F00
0F80
0D80
1980
18C0
10C0
30C0
3040
3FE0
7FE0
6060
6030
6030
C030
ENDCHAR
STARTCHAR 0042
ENCODING 66
SWIDTH 520 0
DWIDTH 13 0
BBX 10 15 1 0
BITMAP
FE00
FF80
C180
C1C0
C180
C180
FF00
FF80
C1C0
C0C0
C0C0
C0C0
C1C0
FF80
FE00
ENDCHAR
STARTCHAR 0043
ENCODING 67
SWIDTH 520 0
DWIDTH 13 0
BBX 10 15 1 0
BITMAP
0F80
3FC0
3840
6000
6000
C000
C000
C000
C000
C000
6000
6000
7840
3FC0
0F80
ENDCHAR
STARTCHAR 0044
ENCODING 68
SWIDTH 520 0
DWIDTH 13 0
BBX 11 15 1 0
BITMAP
FE00
FF00
C380
C1C0
C0C0
C0C0
C0C0
C0E0
C0C0
C0C0
C0C0
C1C0
C380
FF00
FE00
ENDCHAR
STARTCHAR 0045
ENCODING 69
SWIDTH 520 0
DWIDTH 13 0
BBX 10 15 2 0
BITMAP
FF80
FF80
C000
C000
C000
C000
FF00
FF00
C000
C000
C000
C000
C000
FFC0
FFC0
ENDCHAR
STARTCHAR 0046
ENCODING 70
SWIDTH 520 0
DWIDTH 13 0
BBX 9 15 2 0
BITMAP
FF80
FF80
C000
C000
C000
C000
FF00
FF00
C000
C000
C000
C000
C000
C000
C000
ENDCHAR
STARTCHAR 0047
ENCODING 71
SWIDTH 520 0
DWIDTH 13 0
BBX 10 15 1 0
BITMAP
0F80
3FC0
3840
6000
6000
C000
C000
C000
C0C0
E0C0
60C0
60C0
78C0
3FC0
0FC0
ENDCHAR
STARTCHAR 0048
ENCODING 72
SWIDTH 520 0
DWIDTH 13 0
BBX 10 15 1 0
BITMAP
C0C0
C0C0
C0C0
C0C0
C0C0
C0C0
FFC0
FFC0
C0C0
C0C0
C0C0
C0C0
C0C0
C0C0
C0C0
ENDCHAR
STARTCHAR 0049
ENCODING 73
SWIDTH 520 0
DWIDTH 13 0
BBX 8 15 2 0
BITMAP
FF
FF
18
18
18
18
18
18
18
18
18
18
18
FF
FF
ENDCHAR
STARTCHAR 004A
ENCODING 74
SWIDTH 520 0
DWIDTH 13 0
BBX 10 15 1 0
BITMAP
3FC0
3FC0
01C0
01C0
01C0
01C0
01C0
01C0
01C0
01C0
0180
0180
4380
FF00
3E00
ENDCHAR
STARTCHAR 004B
ENCODING 75
SWIDTH 520 0
DWIDTH 13 0
BBX 10 15 2 0
BITMAP
C180
C380
C700
CE00
DC00
F800
F000
F800
DC00
CE00
C600
C300
C380
C1C0
C0C0
ENDCHAR
STARTCHAR 004C
ENCODING 76
SWIDTH 520 0
DWIDTH 13 0
BBX 10 15 2 0
BITMAP
C000
C000
C000
C000
C000
C000
C000
C000
C000
C000
C000
C000
C000
FFC0
FFC0
ENDCHAR
STARTCHAR 004D
ENCODING 77
SWIDTH 520 0
DWIDTH 13 0
BBX 11 15 1 0
BITMAP
61C0
61C0
71C0
73C0
DBC0
DAC0
DE40
CE40
CC40
C040
C040
C060
C060
C060
C060
ENDCHAR
STARTCHAR 004E
ENCODING 78
SWIDTH 520 0
DWIDTH 13 0
BBX 10 15 1 0
BITMAP
E0C0
E0C0
F0C0
F0C0
D8C0
CCC0
CCC0
C6C0
C6C0
C2C0
C3C0
C3C0
C1C0
C1C0
C0C0
ENDCHAR
STARTCHAR 004F
ENCODING 79
SWIDTH 520 0
DWIDTH 13 0
BBX 11 15 1 0
BITMAP
1F00
3F80
71C0
E0C0
C0C0
C060
C060
C060
C060
C060
C0C0
E0C0
71C0
7F80
1F00
ENDCHAR
STARTCHAR 0050
ENCODING 80
SWIDTH 520 0
DWIDTH 13 0
BBX 9 15 2 0
BITMAP
FE00
FF00
C380
C180
C180
C180
C180
C380
FF00
FE00
C000
C000
C000
C000
C000
ENDCHAR
STARTCHAR 0051
ENCODING 81
SWIDTH 520 0
DWIDTH 13 0
BBX 11 19 1 -4
BITMAP
1F00
3F80
71C0
E0C0
C0C0
C060
C060
C060
C060
C060
C0C0
E0C0
71C0
7F80
1F00
0C00
0700
03C0
00C0
ENDCHAR
STARTCHAR 0052
ENCODING 82
SWIDTH 520 0
DWIDTH 13 0
BBX 10 15 1 0
BITMAP
FE00
FF80
C380
C1C0
C0C0
C0C0
C1C0
C380
FF00
FE00
C700
C300
C180
C0C0
C0C0
ENDCHAR
STARTCHAR 0053
ENCODING 83
SWIDTH 520 0
DWIDTH 13 0
BBX 10 15 1 0
BITMAP
1F00
3F80
7080
6000
6000
7000
3C00
1F00
0780
01C0
00C0
00C0
41C0
FF80
3F00
ENDCHAR
STARTCHAR 0054
ENCODING 84
SWIDTH 520 0
DWIDTH 13 0
BBX 11 15 1 0
BITMAP
FFE0
FFE0
0C00
0C00
0C00
0C00
0C00
0C00
0C00
0C00
0C00
0C00
0C00
0C00
0C00
ENDCHAR
STARTCHAR 0055
ENCODING 85
SWIDTH 520 0
DWIDTH 13 0
BBX 10 15 1 0
BITMAP
C0C0
C0C0
C0C0
C0C0
C0C0
C0C0
C0C0
C0C0
C0C0
C0C0
C0C0
E0C0
61C0
7F80
1F00
ENDCHAR
STARTCHAR 0056
ENCODING 86
SWIDTH 520 0
DWIDTH 13 0
BBX 12 15 0 0
BITMAP
E030
6030
6070
6060
3060
3060
30C0
38C0
18C0
1980
1D80
0D80
0F00
0F00
0700
ENDCHAR
STARTCHAR 0057
ENCODING 87
SWIDTH 520 0
DWIDTH 13 0
BBX 11 15 1 0
BITMAP
C060
C060
C060
C060
C060
C040
CC40
CE40
DEC0
DAC0
D3C0
F3C0
71C0
61C0
61C0
ENDCHAR
STARTCHAR 0058
ENCODING 88
SWIDTH 520 0
DWIDTH 13 0
BBX 11 15 1 0
BITMAP
C0C0
60C0
7180
3380
3B00
1E00
0E00
0E00
1E00
1F00
3300
7180
61C0
E0C0
C0E0
ENDCHAR
STARTCHAR 0059
ENCODING 89
SWIDTH 520 0
DWIDTH 13 0
BBX 11 15 1 0
BITMAP
C060
C0E0
E0C0
61C0
7180
3380
3B00
1E00
0E00
0C00
0C00
0C00
0C00
0C00
0C00
ENDCHAR
STARTCHAR 005A
ENCODING 90
SWIDTH 520 0
DWIDTH 13 0
BBX 10 15 1 0
BITMAP
7FC0
7FC0
01C0
0180
0300
0700
0600
0C00
1800
1800
3000
7000
6000
FFC0
FFC0
ENDCHAR
STARTCHAR 005B
ENCODING 91
SWIDTH 520 0
DWIDTH 13 0
BBX 6 19 4 -4
BITMAP
FC
FC
C0
C0
C0
C0
C0
C0
C0
C0
C0
C0
C0
C0
C0
C0
C0
FC
FC
ENDCHAR
STARTCHAR 005C
ENCODING 92
SWIDTH 520 0
DWIDTH 13 0
BBX 9 21 2 -4
BITMAP
C000
C000
6000
6000
6000
3000
3000
3000
1800
1800
1800
0C00
0C00
0C00
0600
0600
0600
0700
0300
0300
0380
ENDCHAR
STARTCHAR 005D
ENCODING 93
SWIDTH 520 0
DWIDTH 13 0
BBX 6 19 3 -4
BITMAP
FC
FC
0C
0C
0C
0C
0C
0C
0C
0C
0C
0C
0C
0C
0C
0C
0C
FC
FC
ENDCHAR
STARTCHAR 005E
ENCODING 94
SWIDTH 520 0
DWIDTH 13 0
BBX 10 8 1 7
BITMAP
0C00
1E00
1F00
3300
3180
6180
E0C0
4040
ENDCHAR
STARTCHAR 005F
ENCODING 95
SWIDTH 520 0
DWIDTH 13 0
BBX 12 2 0 -4
BITMAP
FFF0
FFF0
ENDCHAR
STARTCHAR 0060
ENCODING 96
SWIDTH 520 0
DWIDTH 13 0
BBX 4 4 4 13
BITMAP
40
E0
70
10
ENDCHAR
STARTCHAR 0061
ENCODING 97
SWIDTH 520 0
DWIDTH 13 0
BBX 10 12 1 0
BITMAP
3F00
3F80
01C0
00C0
00C0
1FC0
7FC0
60C0
E0C0
60C0
7FC0
3FC0
ENDCHAR
STARTCHAR 0062
ENCODING 98
SWIDTH 520 0
DWIDTH 13 0
BBX 9 17 2 0
BITMAP
C000
C000
C000
C000
C000
FE00
FF00
C380
C180
C180
C180
C180
C180
C180
C380
FF00
FC00
ENDCHAR
STARTCHAR 0063
ENCODING 99
SWIDTH 520 0
DWIDTH 13 0
BBX 10 12 1 0
BITMAP
0FC0
3FC0
7000
6000
E000
C000
C000
E000
6000
7000
3FC0
0FC0
ENDCHAR
STARTCHAR 0064
ENCODING 100
SWIDTH 520 0
DWIDTH 13 0
BBX 10 17 1 0
BITMAP
00C0
00C0
00C0
00C0
00C0
1EC0
7FC0
71C0
E0C0
C0C0
C0C0
C0C0
C0C0
E0C0
70C0
3FC0
1F80
ENDCHAR
STARTCHAR 0065
ENCODING 101
SWIDTH 520 0
DWIDTH 13 0
BBX 10 12 1 0
BITMAP
1F00
3F80
71C0
E0C0
C0C0
FFC0
FFC0
C000
E000
7080
3F80
1F80
ENDCHAR
STARTCHAR 0066
ENCODING 102
SWIDTH 520 0
DWIDTH 13 0
BBX 10 17 2 0
BITMAP
0F80
1FC0
3840
3000
3000
FF80
FF80
3000
3000
3000
3000
3000
3000
3000
3000
3000
3000
ENDCHAR
STARTCHAR 0067
ENCODING 103
SWIDTH 520 0
DWIDTH 13 0
BBX 10 16 1 -4
BITMAP
1F80
3FC0
70C0
E0C0
C0C0
C0C0
C0C0
C0C0
E0C0
61C0
7FC0
1EC0
00C0
4180
7F80
7E00
ENDCHAR
STARTCHAR 0068
ENCODING 104
SWIDTH 520 0
DWIDTH 13 0
BBX 9 17 2 0
BITMAP
C000
C000
C000
C000
C000
FE00
FF00
C300
C380
C180
C180
C180
C180
C180
C180
C180
C180
ENDCHAR
STARTCHAR 0069
ENCODING 105
SWIDTH 520 0
DWIDTH 13 0
BBX 10 17 1 0
BITMAP
1800
1C00
1800
0000
0000
FC00
FC00
0C00
0C00
0C00
0C00
0C00
0C00
0C00
0C40
0FC0
07C0
ENDCHAR
STARTCHAR 006A
ENCODING 106
SWIDTH 520 0
DWIDTH 13 0
BBX 8 21 2 -4
BITMAP
0E
0E
0E
00
00
7F
7F
03
03
03
03
03
03
03
03
03
03
07
86
FE
7C
ENDCHAR
STARTCHAR 006B
ENCODING 107
SWIDTH 520 0
DWIDTH 13 0
BBX 10 17 2 0
BITMAP
C000
C000
C000
C000
C000
C180
C300
C600
CC00
F800
F000
F800
DC00
C600
C300
C380
C1C0
ENDCHAR
STARTCHAR 006C
ENCODING 108
SWIDTH 520 0
DWIDTH 13 0
BBX 10 17 1 0
BITMAP
FC00
FC00
0C00
0C00
0C00
0C00
0C00
0C00
0C00
0C00
0C00
0C00
0C00
0C00
0C40
0FC0
07C0
ENDCHAR
STARTCHAR 006D
ENCODING 109
SWIDTH 520 0
DWIDTH 13 0
BBX 11 12 1 0
BITMAP
FB80
FFC0
CCC0
CC60
CC60
CC60
CC60
CC60
C060
C060
C060
C060
ENDCHAR
STARTCHAR 006E
ENCODING 110
SWIDTH 520 0
DWIDTH 13 0
BBX 9 12 2 0
BITMAP
FE00
FF00
C300
C380
C180
C180
C180
C180
C180
C180
C180
C180
ENDCHAR
STARTCHAR 006F
ENCODING 111
SWIDTH 520 0
DWIDTH 13 0
BBX 10 12 1 0
BITMAP
1E00
3F80
71C0
E0C0
C0C0
C0C0
C0C0
C0C0
E0C0
71C0
3F80
1E00
ENDCHAR
STARTCHAR 0070
ENCODING 112
SWIDTH 520 0
DWIDTH 13 0
BBX 9 16 2 -4
BITMAP
FC00
FF00
C380
C180
C180
C180
C180
C180
C180
C380
FF00
FE00
C000
C000
C000
C000
ENDCHAR
STARTCHAR 0071
ENCODING 113
SWIDTH 520 0
DWIDTH 13 0
BBX 10 16 1 -4
BITMAP
1F80
3FC0
70C0
E0C0
C0C0
C0C0
C0C0
C0C0
E0C0
71C0
7FC0
1EC0
00C0
00C0
00C0
00C0
ENDCHAR
STARTCHAR 0072
ENCODING 114
SWIDTH 520 0
DWIDTH 13 0
BBX 8 12 3 0
BITMAP
7F
FF
C0
C0
C0
C0
C0
C0
C0
C0
C0
C0
ENDCHAR
STARTCHAR 0073
ENCODING 115
SWIDTH 520 0
DWIDTH 13 0
BBX 9 12 2 0
BITMAP
3F00
FF00
C100
C000
E000
7C00
1F00
0380
0180
8380
FF00
7E00
ENDCHAR
STARTCHAR 0074
ENCODING 116
SWIDTH 520 0
DWIDTH 13 0
BBX 9 16 2 0
BITMAP
3000
3000
3000
3000
FF80
FF80
3000
3000
3000
3000
3000
3000
3000
3880
1F80
0F80
ENDCHAR
STARTCHAR 0075
ENCODING 117
SWIDTH 520 0
DWIDTH 13 0
BBX 9 12 2 0
BITMAP
C180
C180
C180
C180
C180
C180
C180
C180
C180
E180
7F80
3F00
ENDCHAR
STARTCHAR 0076
ENCODING 118
SWIDTH 520 0
DWIDTH 13 0
BBX 11 12 1 0
BITMAP
C0E0
C0C0
E0C0
61C0
6180
7180
3380
3300
1B00
1E00
0E00
0C00
ENDCHAR
STARTCHAR 0077
ENCODING 119
SWIDTH 520 0
DWIDTH 13 0
BBX 12 12 0 0
BITMAP
C030
6030
6030
6630
6730
6720
6F60
6D60
29E0
38E0
38C0
30C0
ENDCHAR
STARTCHAR 0078
ENCODING 120
SWIDTH 520 0
DWIDTH 13 0
BBX 11 12 1 0
BITMAP
E0C0
6180
3380
3B00
1E00
0E00
0E00
1B00
3300
7180
60C0
C0E0
ENDCHAR
STARTCHAR 0079
ENCODING 121
SWIDTH 520 0
DWIDTH 13 0
BBX 10 16 1 -4
BITMAP
E0C0
60C0
60C0
61C0
3180
3180
3180
1B00
1B00
0F00
0E00
0600
0C00
0C00
F800
F000
ENDCHAR
STARTCHAR 007A
ENCODING 122
SWIDTH 520 0
DWIDTH 13 0
BBX 9 12 2 0
BITMAP
FF80
FF80
0700
0600
0C00
1800
3800
3000
6000
E000
FF80
FF80
ENDCHAR
STARTCHAR 007B
ENCODING 123
SWIDTH 520 0
DWIDTH 13 0
BBX 9 21 2 -4
BITMAP
0F80
1F80
1800
1800
1800
1800
1800
1800
1800
3000
F000
F000
3000
1800
1800
1800
1800
1800
1800
1F80
0F80
ENDCHAR
STARTCHAR 007C
ENCODING 124
SWIDTH 520 0
DWIDTH 13 0
BBX 2 21 5 -4
BITMAP
C0
C0
C0
C0
C0
C0
C0
C0
C0
C0
C0
C0
C0
C0
C0
C0
C0
C0
C0
C0
C0
ENDCHAR
STARTCHAR 007D
ENCODING 125
SWIDTH 520 0
DWIDTH 13 0
BBX 9 21 2 -4
BITMAP
F000
F800
1C00
0C00
0C00
0C00
0C00
0C00
0C00
0C00
0780
0780
0C00
0C00
0C00
0C00
0C00
0C00
1C00
F800
F000
ENDCHAR
STARTCHAR 007E
ENCODING 126
SWIDTH 520 0
DWIDTH 13 0
BBX 11 4 1 5
BITMAP
7860
7C40
CFC0
8380
ENDCHAR
STARTCHAR 00A0
ENCODING 160
SWIDTH 520 0
DWIDTH 13 0
BBX 0 0 0 0
BITMAP
ENDCHAR
STARTCHAR 00A1
ENCODING 161
SWIDTH 520 0
DWIDTH 13 0
BBX 3 16 5 -4
BITMAP
C0
E0
E0
00
00
C0
C0
C0
C0
C0
C0
C0
C0
C0
C0
C0
ENDCHAR
STARTCHAR 00A2
ENCODING 162
SWIDTH 520 0
DWIDTH 13 0
BBX 10 17 1 -2
BITMAP
0600
0600
0600
0FC0
3FC0
7000
6000
C000
C000
C000
E000
7040
3FC0
1FC0
0600
0600
0600
ENDCHAR
STARTCHAR 00A3
ENCODING 163
SWIDTH 520 0
DWIDTH 13 0
BBX 10 15 1 0
BITMAP
0F80
1FC0
1840
3800
3000
3000
3000
FF80
FF80
3000
3000
3000
3000
3FC0
3FC0
ENDCHAR
STARTCHAR 00A4
ENCODING 164
SWIDTH 520 0
DWIDTH 13 0
BBX 11 11 1 2
BITMAP
4040
FEE0
7FC0
7180
6080
60C0
6080
7180
7FC0
FEE0
4040
ENDCHAR
STARTCHAR 00A5
ENCODING 165
SWIDTH 520 0
DWIDTH 13 0
BBX 11 15 1 0
BITMAP
C060
C0C0
60C0
7180
3380
1B00
1E00
7FC0
7FC0
0C00
0C00
7FC0
7FC0
0C00
0C00
ENDCHAR
STARTCHAR 00A6
ENCODING 166
SWIDTH 520 0
DWIDTH 13 0
BBX 2 21 5 -4
BITMAP
C0
C0
C0
C0
C0
C0
C0
C0
C0
00
00
00
C0
C0
C0
C0
C0
C0
C0
C0
C0
ENDCHAR
STARTCHAR 00A7
ENCODING 167
SWIDTH 520 0
DWIDTH 13 0
BBX 9 18 2 -2
BITMAP
3E00
7F00
6100
E000
6000
7C00
7F00
C780
C180
C180
E300
7E00
1E00
0300
0300
8300
FF00
7C00
ENDCHAR
STARTCHAR 00A8
ENCODING 168
SWIDTH 520 0
DWIDTH 13 0
BBX 7 3 3 14
BITMAP
CC
CE
CC
ENDCHAR
STARTCHAR 00A9
ENCODING 169
SWIDTH 520 0
DWIDTH 13 0
BBX 11 12 1 0
BITMAP
1F00
3180
40C0
CE40
9860
9060
9060
9860
CE40
40C0
2180
1E00
ENDCHAR
STARTCHAR 00AA
ENCODING 170
SWIDTH 520 0
DWIDTH 13 0
BBX 7 8 3 7
BITMAP
78
04
06
7E
C6
C6
C6
7E
ENDCHAR
STARTCHAR 00AB
ENCODING 171
SWIDTH 520 0
DWIDTH 13 0
BBX 8 9 2 2
BITMAP
31
23
66
C6
CC
C6
66
23
21
ENDCHAR
STARTCHAR 00AC
ENCODING 172
SWIDTH 520 0
DWIDTH 13 0
BBX 10 8 1 1
BITMAP
FFC0
FFC0
00C0
00C0
00C0
00C0
00C0
00C0
ENDCHAR
STARTCHAR 00AD
ENCODING 173
SWIDTH 520 0
DWIDTH 13 0
BBX 6 2 3 5
BITMAP
FC
FC
ENDCHAR
STARTCHAR 00AE
ENCODING 174
SWIDTH 520 0
DWIDTH 13 0
BBX 11 12 1 0
BITMAP
1F00
3180
40C0
DE40
9B60
9B60
9E60
9A60
DB40
40C0
2180
1E00
ENDCHAR
STARTCHAR 00AF
ENCODING 175
SWIDTH 520 0
DWIDTH 13 0
BBX 6 2 3 14
BITMAP
FC
FC
ENDCHAR
STARTCHAR 00B0
ENCODING 176
SWIDTH 520 0
DWIDTH 13 0
BBX 6 5 3 11
BITMAP
78
CC
C4
CC
78
ENDCHAR
STARTCHAR 00B1
ENCODING 177
SWIDTH 520 0
DWIDTH 13 0
BBX 10 15 1 0
BITMAP
0C00
0C00
0C00
0C00
0C00
FFC0
FFC0
0C00
0C00
0C00
0C00
0C00
0000
FFC0
FFC0
ENDCHAR
STARTCHAR 00B2
ENCODING 178
SWIDTH 520 0
DWIDTH 13 0
BBX 6 8 3 7
BITMAP
78
CC
0C
1C
38
70
60
FC
ENDCHAR
STARTCHAR 00B3
ENCODING 179
SWIDTH 520 0
DWIDTH 13 0
BBX 6 8 3 7
BITMAP
78
4C
0C
38
0C
04
8C
F8
ENDCHAR
STARTCHAR 00B4
ENCODING 180
SWIDTH 520 0
DWIDTH 13 0
BBX 3 4 5 13
BITMAP
20
60
C0
80
ENDCHAR
STARTCHAR 00B5
ENCODING 181
SWIDTH 520 0
DWIDTH 13 0
BBX 9 16 2 -4
BITMAP
C180
C180
C180
C180
C180
C180
C180
C180
C180
E180
FF80
FF00
C000
C000
C000
C000
ENDCHAR
STARTCHAR 00B6
ENCODING 182
SWIDTH 520 0
DWIDTH 13 0
BBX 10 20 1 -4
BITMAP
1FC0
7FC0
FCC0
FCC0
FCC0
FCC0
FCC0
FCC0
7CC0
3CC0
04C0
04C0
04C0
04C0
04C0
04C0
04C0
04C0
04C0
04C0
ENDCHAR
STARTCHAR 00B7
ENCODING 183
SWIDTH 520 0
DWIDTH 13 0
BBX 4 3 4 5
BITMAP
70
F0
70
ENDCHAR
STARTCHAR 00B8
ENCODING 184
SWIDTH 520 0
DWIDTH 13 0
BBX 4 4 4 -4
BITMAP
20
30
30
E0
ENDCHAR
STARTCHAR 00B9
ENCODING 185
SWIDTH 520 0
DWIDTH 13 0
BBX 7 8 3 7
BITMAP
10
70
D0
10
10
10
10
FE
ENDCHAR
STARTCHAR 00BA
ENCODING 186
SWIDTH 520 0
DWIDTH 13 0
BBX 8 8 2 7
BITMAP
3C
7F
E3
C1
C1
E3
7E
3C
ENDCHAR
STARTCHAR 00BB
ENCODING 187
SWIDTH 520 0
DWIDTH 13 0
BBX 9 9 2 2
BITMAP
4400
4600
6300
3300
3180
3300
6300
4600
C400
ENDCHAR
STARTCHAR 00BC
ENCODING 188
SWIDTH 520 0
DWIDTH 13 0
BBX 11 16 1 0
BITMAP
2000
E060
A0C0
2180
2180
2300
2200
0600
0C00
08C0
1940
3340
3240
67E0
4040
C040
ENDCHAR
STARTCHAR 00BD
ENCODING 189
SWIDTH 520 0
DWIDTH 13 0
BBX 11 16 1 0
BITMAP
2000
E040
A0C0
2180
2100
2300
2600
0600
0C00
0BC0
1860
3060
20E0
61C0
C300
C3E0
ENDCHAR
STARTCHAR 00BE
ENCODING 190
SWIDTH 520 0
DWIDTH 13 0
BBX 11 16 1 0
BITMAP
E000
1060
30C0
7080
1180
1300
E300
0600
0C00
0CC0
1940
1340
3240
67E0
4040
C040
ENDCHAR
STARTCHAR 00BF
ENCODING 191
SWIDTH 520 0
DWIDTH 13 0
BBX 8 16 2 -4
BITMAP
0C
1E
0C
00
00
0C
0C
18
38
70
60
C0
E0
61
7F
3E
ENDCHAR
STARTCHAR 00C0
ENCODING 192
SWIDTH 520 0
DWIDTH 13 0
BBX 12 20 0 0
BITMAP
0400
0E00
0300
0100
0000
0700
0F00
0F80
0D80
1980
18C0
10C0
30C0
3040
3FE0
7FE0
6060
6030
6030
C030
ENDCHAR
STARTCHAR 00C1
ENCODING 193
SWIDTH 520 0
DWIDTH 13 0
BBX 12 20 0 0
BITMAP
0100
0300
0600
0400
0000
0700
0F00
0F80
0D80
1980
18C0
10C0
30C0
3040
3FE0
7FE0
6060
6030
6030
C030
ENDCHAR
STARTCHAR 00C2
ENCODING 194
SWIDTH 520 0
DWIDTH 13 0
BBX 12 20 0 0
BITMAP
0200
0700
0D80
0880
0000
0700
0F00
0F80
0D80
1980
18C0
10C0
30C0
3040
3FE0
7FE0
6060
6030
6030
C030
ENDCHAR
STARTCHAR 00C3
ENCODING 195
SWIDTH 520 0
DWIDTH 13 0
BBX 12 20 0 0
BITMAP
0C80
1F80
1380
0000
0000
0700
0F00
0F80
0D80
1980
18C0
10C0
30C0
3040
3FE0
7FE0
6060
6030
6030
C030
ENDCHAR
STARTCHAR 00C4
ENCODING 196
SWIDTH 520 0
DWIDTH 13 0
BBX 12 20 0 0
BITMAP
1980
19C0
1980
0000
0000
0700
0F00
0F80
0D80
1980
18C0
10C0
30C0
3040
3FE0
7FE0
6060
6030
6030
C030
ENDCHAR
STARTCHAR 00C5
ENCODING 197
SWIDTH 520 0
DWIDTH 13 0
BBX 12 18 0 0
BITMAP
0700
0980
0980
0700
0F00
0D80
0980
1980
18C0
10C0
30C0
3040
3FE0
7FE0
6060
6030
6030
C030
ENDCHAR
STARTCHAR 00C6
ENCODING 198
SWIDTH 520 0
DWIDTH 13 0
BBX 11 15 1 0
BITMAP
0FE0
0FE0
1B00
1B00
1300
3300
33C0
33C0
6300
7F00
7F00
6300
C300
C3E0
C3E0
ENDCHAR
STARTCHAR 00C7
ENCODING 199
SWIDTH 520 0
DWIDTH 13 0
BBX 10 19 1 -4
BITMAP
0F80
3FC0
3840
6000
6000
C000
C000
C000
C000
C000
6000
6000
7840
3FC0
0F80
0700
0300
0300
0E00
ENDCHAR
STARTCHAR 00C8
ENCODING 200
SWIDTH 520 0
DWIDTH 13 0
BBX 10 20 2 0
BITMAP
1000
1800
0C00
0400
0000
FF80
FF80
C000
C000
C000
C000
FF00
FF00
C000
C000
C000
C000
C000
FFC0
FFC0
ENDCHAR
STARTCHAR 00C9
ENCODING 201
SWIDTH 520 0
DWIDTH 13 0
BBX 10 20 2 0
BITMAP
0400
0E00
1C00
1800
0000
FF80
FF80
C000
C000
C000
C000
FF00
FF00
C000
C000
C000
C000
C000
FFC0
FFC0
ENDCHAR
STARTCHAR 00CA
ENCODING 202
SWIDTH 520 0
DWIDTH 13 0
BBX 10 20 2 0
BITMAP
0800
1C00
3600
2200
0000
FF80
FF80
C000
C000
C000
C000
FF00
FF00
C000
C000
C000
C000
C000
FFC0
FFC0
ENDCHAR
STARTCHAR 00CB
ENCODING 203
SWIDTH 520 0
DWIDTH 13 0
BBX 10 20 2 0
BITMAP
3300
7300
3300
0000
0000
FF80
FF80
C000
C000
C000
C000
FF00
FF00
C000
C000
C000
C000
C000
FFC0
FFC0
ENDCHAR
STARTCHAR 00CC
ENCODING 204
SWIDTH 520 0
DWIDTH 13 0
BBX 8 20 2 0
BITMAP
10
38
0C
04
00
FF
FF
18
18
18
18
18
18
18
18
18
18
18
FF
FF
ENDCHAR
STARTCHAR 00CD
ENCODING 205
SWIDTH 520 0
DWIDTH 13 0
BBX 8 20 2 0
BITMAP
04
0E
18
10
00
FF
FF
18
18
18
18
18
18
18
18
18
18
18
FF
FF
ENDCHAR
STARTCHAR 00CE
ENCODING 206
SWIDTH 520 0
DWIDTH 13 0
BBX 8 20 2 0
BITMAP
08
1C
36
22
00
FF
FF
18
18
18
18
18
18
18
18
18
18
18
FF
FF
ENDCHAR
STARTCHAR 00CF
ENCODING 207
SWIDTH 520 0
DWIDTH 13 0
BBX 8 20 2 0
BITMAP
66
67
66
00
00
FF
FF
18
18
18
18
18
18
18
18
18
18
18
FF
FF
ENDCHAR
STARTCHAR 00D0
ENCODING 208
SWIDTH 520 0
DWIDTH 13 0
BBX 12 15 0 0
BITMAP
3F00
3F80
31C0
30E0
3060
3060
FC60
FC70
3060
3060
3060
30E0
31C0
3F80
3F00
ENDCHAR
STARTCHAR 00D1
ENCODING 209
SWIDTH 520 0
DWIDTH 13 0
BBX 10 20 1 0
BITMAP
1900
3F00
2700
0000
0000
E0C0
E0C0
F0C0
F0C0
D8C0
CCC0
CCC0
C6C0
C6C0
C2C0
C3C0
C3C0
C1C0
C1C0
C0C0
ENDCHAR
STARTCHAR 00D2
ENCODING 210
SWIDTH 520 0
DWIDTH 13 0
BBX 11 20 1 0
BITMAP
0800
1C00
0600
0200
0000
1F00
3F80
71C0
E0C0
C0C0
C060
C060
C060
C060
C060
C0C0
E0C0
71C0
7F80
1F00
ENDCHAR
STARTCHAR 00D3
ENCODING 211
SWIDTH 520 0
DWIDTH 13 0
BBX 11 20 1 0
BITMAP
0200
0600
0C00
0800
0000
1F00
3F80
71C0
E0C0
C0C0
C060
C060
C060
C060
C060
C0C0
E0C0
71C0
7F80
1F00
ENDCHAR
STARTCHAR 00D4
ENCODING 212
SWIDTH 520 0
DWIDTH 13 0
BBX 11 20 1 0
BITMAP
0400
0E00
1B00
1100
0000
1F00
3F80
71C0
E0C0
C0C0
C060
C060
C060
C060
C060
C0C0
E0C0
71C0
7F80
1F00
ENDCHAR
STARTCHAR 00D5
ENCODING 213
SWIDTH 520 0
DWIDTH 13 0
BBX 11 20 1 0
BITMAP
1900
3F00
2700
0000
0000
1F00
3F80
71C0
E0C0
C0C0
C060
C060
C060
C060
C060
C0C0
E0C0
71C0
7F80
1F00
ENDCHAR
STARTCHAR 00D6
ENCODING 214
SWIDTH 520 0
DWIDTH 13 0
BBX 11 20 1 0
BITMAP
3300
3380
3300
0000
0000
1F00
3F80
71C0
E0C0
C0C0
C060
C060
C060
C060
C060
C0C0
E0C0
71C0
7F80
1F00
ENDCHAR
STARTCHAR 00D7
ENCODING 215
SWIDTH 520 0
DWIDTH 13 0
BBX 9 9 2 2
BITMAP
4100
E380
7700
3E00
1C00
3E00
6700
C380
4100
ENDCHAR
STARTCHAR 00D8
ENCODING 216
SWIDTH 520 0
DWIDTH 13 0
BBX 11 16 1 -1
BITMAP
1F80
3F80
71C0
E3C0
C3E0
C660
C660
CC60
CC60
D8E0
D8C0
F0C0
71C0
7F80
7F00
4000
ENDCHAR
STARTCHAR 00D9
ENCODING 217
SWIDTH 520 0
DWIDTH 13 0
BBX 10 20 1 0
BITMAP
0800
1C00
0E00
0200
0000
C0C0
C0C0
C0C0
C0C0
C0C0
C0C0
C0C0
C0C0
C0C0
C0C0
C0C0
E0C0
61C0
7F80
1F00
ENDCHAR
STARTCHAR 00DA
ENCODING 218
SWIDTH 520 0
DWIDTH 13 0
BBX 10 20 1 0
BITMAP
0200
0600
0C00
0800
0000
C0C0
C0C0
C0C0
C0C0
C0C0
C0C0
C0C0
C0C0
C0C0
C0C0
C0C0
E0C0
61C0
7F80
1F00
ENDCHAR
STARTCHAR 00DB
ENCODING 219
SWIDTH 520 0
DWIDTH 13 0
BBX 10 20 1 0
BITMAP
0400
0E00
1B00
1100
0000
C0C0
C0C0
C0C0
C0C0
C0C0
C0C0
C0C0
C0C0
C0C0
C0C0
C0C0
E0C0
61C0
7F80
1F00
ENDCHAR
STARTCHAR 00DC
ENCODING 220
SWIDTH 520 0
DWIDTH 13 0
BBX 10 20 1 0
BITMAP
3300
3380
3300
0000
0000
C0C0
C0C0
C0C0
C0C0
C0C0
C0C0
C0C0
C0C0
C0C0
C0C0
C0C0
E0C0
61C0
7F80
1F00
ENDCHAR
STARTCHAR 00DD
ENCODING 221
SWIDTH 520 0
DWIDTH 13 0
BBX 11 20 1 0
BITMAP
0200
0600
0C00
0800
0000
C060
C0E0
E0C0
61C0
7180
3380
3B00
1E00
0E00
0C00
0C00
0C00
0C00
0C00
0C00
ENDCHAR
STARTCHAR 00DE
ENCODING 222
SWIDTH 520 0
DWIDTH 13 0
BBX 9 15 2 0
BITMAP
C000
C000
C000
FE00
FF00
C380
C180
C180
C180
C380
FF00
FE00
C000
C000
C000
ENDCHAR
STARTCHAR 00DF
ENCODING 223
SWIDTH 520 0
DWIDTH 13 0
BBX 10 17 2 0
BITMAP
3C00
7E00
E700
C300
C300
C600
CC00
DC00
DC00
CE00
C780
C1C0
C0C0
C0C0
D1C0
DF80
DF00
ENDCHAR
STARTCHAR 00E0
ENCODING 224
SWIDTH 520 0
DWIDTH 13 0
BBX 10 17 1 0
BITMAP
0800
1C00
0E00
0200
0000
3F00
3F80
01C0
00C0
00C0
1FC0
7FC0
60C0
E0C0
60C0
7FC0
3FC0
ENDCHAR
STARTCHAR 00E1
ENCODING 225
SWIDTH 520 0
DWIDTH 13 0
BBX 10 17 1 0
BITMAP
0200
0700
0E00
0800
0000
3F00
3F80
01C0
00C0
00C0
1FC0
7FC0
60C0
E0C0
60C0
7FC0
3FC0
ENDCHAR
STARTCHAR 00E2
ENCODING 226
SWIDTH 520 0
DWIDTH 13 0
BBX 10 17 1 0
BITMAP
0400
0E00
1B00
1100
0000
3F00
3F80
01C0
00C0
00C0
1FC0
7FC0
60C0
E0C0
60C0
7FC0
3FC0
ENDCHAR
STARTCHAR 00E3
ENCODING 227
SWIDTH 520 0
DWIDTH 13 0
BBX 10 17 1 0
BITMAP
1900
3F00
2700
0000
0000
3F00
3F80
01C0
00C0
00C0
1FC0
7FC0
60C0
E0C0
60C0
7FC0
3FC0
ENDCHAR
STARTCHAR 00E4
ENCODING 228
SWIDTH 520 0
DWIDTH 13 0
BBX 10 17 1 0
BITMAP
3300
3380
3300
0000
0000
3F00
3F80
01C0
00C0
00C0
1FC0
7FC0
60C0
E0C0
60C0
7FC0
3FC0
ENDCHAR
STARTCHAR 00E5
ENCODING 229
SWIDTH 520 0
DWIDTH 13 0
BBX 10 17 1 0
BITMAP
0E00
1200
1200
0E00
0000
3F00
3F80
01C0
00C0
00C0
1FC0
7FC0
60C0
E0C0
60C0
7FC0
3FC0
ENDCHAR
STARTCHAR 00E6
ENCODING 230
SWIDTH 520 0
DWIDTH 13 0
BBX 11 12 1 0
BITMAP
7980
7BC0
0E60
0C60
0C60
7FE0
FFE0
CC00
C600
C620
FFE0
79C0
ENDCHAR
STARTCHAR 00E7
ENCODING 231
SWIDTH 520 0
DWIDTH 13 0
BBX 10 16 1 -4
BITMAP
0FC0
3FC0
7000
6000
E000
C000
C000
E000
6000
7000
3FC0
0FC0
0600
0700
0300
0E00
ENDCHAR
STARTCHAR 00E8
ENCODING 232
SWIDTH 520 0
DWIDTH 13 0
BBX 10 17 1 0
BITMAP
0800
1C00
0E00
0200
0000
1F00
3F80
71C0
E0C0
C0C0
FFC0
FFC0
C000
E000
7080
3F80
1F80
ENDCHAR
STARTCHAR 00E9
ENCODING 233
SWIDTH 520 0
DWIDTH 13 0
BBX 10 17 1 0
BITMAP
0200
0700
0E00
0800
0000
1F00
3F80
71C0
E0C0
C0C0
FFC0
FFC0
C000
E000
7080
3F80
1F80
ENDCHAR
STARTCHAR 00EA
ENCODING 234
SWIDTH 520 0
DWIDTH 13 0
BBX 10 17 1 0
BITMAP
0400
0E00
1B00
1100
0000
1F00
3F80
71C0
E0C0
C0C0
FFC0
FFC0
C000
E000
7080
3F80
1F80
ENDCHAR
STARTCHAR 00EB
ENCODING 235
SWIDTH 520 0
DWIDTH 13 0
BBX 10 17 1 0
BITMAP
3180
3B80
3180
0000
0000
1F00
3F80
71C0
E0C0
C0C0
FFC0
FFC0
C000
E000
7080
3F80
1F80
ENDCHAR
STARTCHAR 00EC
ENCODING 236
SWIDTH 520 0
DWIDTH 13 0
BBX 10 17 1 0
BITMAP
1000
3800
0C00
0400
0000
FC00
FC00
0C00
0C00
0C00
0C00
0C00
0C00
0C00
0C00
0FC0
07C0
ENDCHAR
STARTCHAR 00ED
ENCODING 237
SWIDTH 520 0
DWIDTH 13 0
BBX 10 17 1 0
BITMAP
0400
0E00
1800
1000
0000
FC00
FC00
0C00
0C00
0C00
0C00
0C00
0C00
0C00
0C00
0FC0
07C0
ENDCHAR
STARTCHAR 00EE
ENCODING 238
SWIDTH 520 0
DWIDTH 13 0
BBX 10 17 1 0
BITMAP
0800
1C00
3600
2200
0000
FC00
FC00
0C00
0C00
0C00
0C00
0C00
0C00
0C00
0C00
0FC0
07C0
ENDCHAR
STARTCHAR 00EF
ENCODING 239
SWIDTH 520 0
DWIDTH 13 0
BBX 10 17 1 0
BITMAP
6200
7700
6200
0000
0000
FC00
FC00
0C00
0C00
0C00
0C00
0C00
0C00
0C00
0C00
0FC0
07C0
ENDCHAR
STARTCHAR 00F0
ENCODING 240
SWIDTH 520 0
DWIDTH 13 0
BBX 10 17 1 0
BITMAP
0800
0E40
0780
0F00
1980
0180
1F80
3FC0
71C0
60C0
E0C0
C0C0
C0C0
6180
7380
3F00
1E00
ENDCHAR
STARTCHAR 00F1
ENCODING 241
SWIDTH 520 0
DWIDTH 13 0
BBX 9 17 2 0
BITMAP
3200
7E00
4E00
0000
0000
FE00
FF00
C300
C380
C180
C180
C180
C180
C180
C180
C180
C180
ENDCHAR
STARTCHAR 00F2
ENCODING 242
SWIDTH 520 0
DWIDTH 13 0
BBX 10 17 1 0
BITMAP
0800
0C00
0600
0200
0000
1E00
3F80
71C0
E0C0
C0C0
C0C0
C0C0
C0C0
E0C0
71C0
3F80
1E00
ENDCHAR
STARTCHAR 00F3
ENCODING 243
SWIDTH 520 0
DWIDTH 13 0
BBX 10 17 1 0
BITMAP
0200
0600
0C00
0800
0000
1E00
3F80
71C0
E0C0
C0C0
C0C0
C0C0
C0C0
E0C0
71C0
3F80
1E00
ENDCHAR
STARTCHAR 00F4
ENCODING 244
SWIDTH 520 0
DWIDTH 13 0
BBX 10 17 1 0
BITMAP
0400
0E00
1B00
1100
0000
1E00
3F80
71C0
E0C0
C0C0
C0C0
C0C0
C0C0
E0C0
71C0
3F80
1E00
ENDCHAR
STARTCHAR 00F5
ENCODING 245
SWIDTH 520 0
DWIDTH 13 0
BBX 10 17 1 0
BITMAP
1900
3F00
2700
0000
0000
1E00
3F80
71C0
E0C0
C0C0
C0C0
C0C0
C0C0
E0C0
71C0
3F80
1E00
ENDCHAR
STARTCHAR 00F6
ENCODING 246
SWIDTH 520 0
DWIDTH 13 0
BBX 10 17 1 0
BITMAP
3300
3380
3300
0000
0000
1E00
3F80
71C0
E0C0
C0C0
C0C0
C0C0
C0C0
E0C0
71C0
3F80
1E00
ENDCHAR
STARTCHAR 00F7
ENCODING 247
SWIDTH 520 0
DWIDTH 13 0
BBX 10 12 1 1
BITMAP
0C00
0E00
0C00
0000
0000
FFC0
FFC0
0000
0000
0C00
0E00
0C00
ENDCHAR
STARTCHAR 00F8
ENCODING 248
SWIDTH 520 0
DWIDTH 13 0
BBX 10 14 1 -1
BITMAP
0040
1FC0
3F80
71C0
E3C0
C6C0
C6C0
CCC0
D8C0
F0C0
61C0
7F80
DF00
4000
ENDCHAR
STARTCHAR 00F9
ENCODING 249
SWIDTH 520 0
DWIDTH 13 0
BBX 9 17 2 0
BITMAP
1000
3800
1C00
0400
0000
C180
C180
C180
C180
C180
C180
C180
C180
C180
E180
7F80
3F00
ENDCHAR
STARTCHAR 00FA
ENCODING 250
SWIDTH 520 0
DWIDTH 13 0
BBX 9 17 2 0
BITMAP
0400
0C00
1800
1000
0000
C180
C180
C180
C180
C180
C180
C180
C180
C180
E180
7F80
3F00
ENDCHAR
STARTCHAR 00FB
ENCODING 251
SWIDTH 520 0
DWIDTH 13 0
BBX 9 17 2 0
BITMAP
0800
1C00
3600
2200
0000
C180
C180
C180
C180
C180
C180
C180
C180
C180
E180
7F80
3F00
ENDCHAR
STARTCHAR 00FC
ENCODING 252
SWIDTH 520 0
DWIDTH 13 0
BBX 9 17 2 0
BITMAP
6600
6700
6600
0000
0000
C180
C180
C180
C180
C180
C180
C180
C180
C180
E180
7F80
3F00
ENDCHAR
STARTCHAR 00FD
ENCODING 253
SWIDTH 520 0
DWIDTH 13 0
BBX 10 21 1 -4
BITMAP
0200
0700
0C00
0800
0000
E0C0
60C0
60C0
61C0
3180
3180
3180
1B00
1B00
0F00
0E00
0600
0C00
0C00
F800
F000
ENDCHAR
STARTCHAR 00FE
ENCODING 254
SWIDTH 520 0
DWIDTH 13 0
BBX 9 21 2 -4
BITMAP
C000
C000
C000
C000
C000
FE00
FF00
C380
C180
C180
C180
C180
C180
C180
C380
FF00
FE00
C000
C000
C000
C000
ENDCHAR
STARTCHAR 00FF
ENCODING 255
SWIDTH 520 0
DWIDTH 13 0
BBX 10 21 1 -4
BITMAP
1180
3B80
1180
0000
0000
E0C0
60C0
60C0
61C0
3180
3180
3180
1B00
1B00
0F00
0E00
0600
0C00
0C00
F800
F000
ENDCHAR
STARTCHAR 0152
ENCODING 140
SWIDTH 520 0
DWIDTH 13 0
BBX 11 15 1 0
BITMAP
3FE0
7FE0
6300
C300
C300
C300
C3C0
C3C0
C300
C300
C300
C300
6300
7FE0
3FE0
ENDCHAR
STARTCHAR 0153
ENCODING 156
SWIDTH 520 0
DWIDTH 13 0
BBX 11 12 1 0
BITMAP
3180
7BC0
CE60
CE60
CE60
C7E0
C7E0
CE00
CE00
CE20
7BE0
31C0
ENDCHAR
STARTCHAR 0160
ENCODING 138
SWIDTH 520 0
DWIDTH 13 0
BBX 10 20 1 0
BITMAP
1100
1B00
0E00
0400
0000
1F00
3F80
7080
6000
6000
7000
3C00
1F00
0780
01C0
00C0
00C0
41C0
FF80
3F00
ENDCHAR
STARTCHAR 0161
ENCODING 154
SWIDTH 520 0
DWIDTH 13 0
BBX 9 17 2 0
BITMAP
2200
3600
1C00
0800
0000
3F00
FF00
C100
C000
E000
7C00
1F00
0380
0180
8380
FF00
7E00
ENDCHAR
STARTCHAR 0178
ENCODING 159
SWIDTH 520 0
DWIDTH 13 0
BBX 11 20 1 0
BITMAP
3300
3380
3300
0000
0000
C060
C0E0
E0C0
61C0
7180
3380
3B00
1E00
0E00
0C00
0C00
0C00
0C00
0C00
0C00
ENDCHAR
STARTCHAR 017D
ENCODING 142
SWIDTH 520 0
DWIDTH 13 0
BBX 10 20 1 0
BITMAP
1100
1B00
0E00
0400
0000
7FC0
7FC0
01C0
0180
0300
0700
0600
0C00
1800
1800
3000
7000
6000
FFC0
FFC0
ENDCHAR
STARTCHAR 017E
ENCODING 158
SWIDTH 520 0
DWIDTH 13 0
BBX 9 17 2 0
BITMAP
2200
3600
1C00
0800
0000
FF80
FF80
0700
0600
0C00
1800
3800
3000
6000
E000
FF80
FF80
ENDCHAR
STARTCHAR 0192
ENCODING 131
SWIDTH 520 0
DWIDTH 13 0
BBX 12 21 0 -4
BITMAP
03E0
07F0
0E10
0C00
0C00
3FE0
3FE0
0C00
0C00
0C00
0C00
0C00
0C00
0C00
0C00
0C00
0C00
0C00
1C00
F800
F000
ENDCHAR
STARTCHAR 02C6
ENCODING 136
SWIDTH 520 0
DWIDTH 13 0
BBX 5 4 4 13
BITMAP
20
70
D8
88
ENDCHAR
STARTCHAR 02DC
ENCODING 152
SWIDTH 520 0
DWIDTH 13 0
BBX 6 3 3 14
BITMAP
64
FC
9C
ENDCHAR
STARTCHAR 2013
ENCODING 150
SWIDTH 520 0
DWIDTH 13 0
BBX 9 2 2 6
BITMAP
FF80
FF80
ENDCHAR
STARTCHAR 2014
ENCODING 151
SWIDTH 520 0
DWIDTH 13 0
BBX 13 2 0 6
BITMAP
FFF8
FFF8
ENDCHAR
STARTCHAR 2018
ENCODING 145
SWIDTH 520 0
DWIDTH 13 0
BBX 5 6 4 9
BITMAP
38
78
E0
E0
E0
E0
ENDCHAR
STARTCHAR 2019
ENCODING 146
SWIDTH 520 0
DWIDTH 13 0
BBX 5 6 4 9
BITMAP
70
78
78
30
F0
C0
ENDCHAR
STARTCHAR 201A
ENCODING 130
SWIDTH 520 0
DWIDTH 13 0
BBX 5 6 4 -3
BITMAP
70
78
78
30
F0
C0
ENDCHAR
STARTCHAR 201C
ENCODING 147
SWIDTH 520 0
DWIDTH 13 0
BBX 10 6 1 9
BITMAP
38C0
6180
C300
E380
F380
6380
ENDCHAR
STARTCHAR 201D
ENCODING 148
SWIDTH 520 0
DWIDTH 13 0
BBX 10 6 1 9
BITMAP
31C0
79C0
39C0
30C0
71C0
C300
ENDCHAR
STARTCHAR 201E
ENCODING 132
SWIDTH 520 0
DWIDTH 13 0
BBX 10 6 1 -3
BITMAP
31C0
79C0
39C0
30C0
71C0
C300
ENDCHAR
STARTCHAR 2020
ENCODING 134
SWIDTH 520 0
DWIDTH 13 0
BBX 9 18 2 -3
BITMAP
1800
1800
1800
1800
1800
FF80
FF80
1800
1800
1800
1800
1800
1800
1800
1800
1800
0800
0800
ENDCHAR
STARTCHAR 2021
ENCODING 135
SWIDTH 520 0
DWIDTH 13 0
BBX 9 18 2 -3
BITMAP
1800
1800
1800
1800
1800
FF80
FF80
1800
1800
1800
FF80
FF80
1800
1800
1800
1800
0800
0800
ENDCHAR
STARTCHAR 2022
ENCODING 149
SWIDTH 520 0
DWIDTH 13 0
BBX 7 7 3 4
BITMAP
78
FC
FE
FE
FE
FC
78
ENDCHAR
STARTCHAR 2026
ENCODING 133
SWIDTH 520 0
DWIDTH 13 0
BBX 11 3 1 0
BITMAP
CCC0
CEE0
CCC0
ENDCHAR
STARTCHAR 2030
ENCODING 137
SWIDTH 520 0
DWIDTH 13 0
BBX 12 15 0 0
BITMAP
7000
5000
D010
D060
D1C0
5300
7E00
1800
6C60
5AD0
1A90
1290
1290
1AD0
0C60
ENDCHAR
STARTCHAR 2039
ENCODING 139
SWIDTH 520 0
DWIDTH 13 0
BBX 4 9 4 2
BITMAP
10
30
60
E0
C0
E0
60
30
10
ENDCHAR
STARTCHAR 203A
ENCODING 155
SWIDTH 520 0
DWIDTH 13 0
BBX 5 9 4 2
BITMAP
C0
E0
60
30
38
30
60
E0
C0
ENDCHAR
STARTCHAR 20AC
ENCODING 128
SWIDTH 520 0
DWIDTH 13 0
BBX 11 15 1 0
BITMAP
07C0
1FC0
3800
3000
3000
FF80
FF80
7000
FF00
FF00
3000
3000
3840
1FE0
0FC0
ENDCHAR
STARTCHAR 2122
ENCODING 153
SWIDTH 520 0
DWIDTH 13 0
BBX 12 6 0 9
BITMAP
FB20
3360
33F0
32F0
3230
3230
ENDCHAR
ENDFONT
