STARTFONT 2.1
COMMENT
COMMENT Converted from OpenType font "UbuntuMono-Regular.ttf" by "otf2bdf 3.0".
COMMENT
FONT -FreeType-ubuntu mono-Medium-R-Normal--17-120-100-100-P-65-Windows-cp1252
SIZE 12 100 100
FONTBOUNDINGBOX 9 18 0 -3
STARTPROPERTIES 19
FOUNDRY "FreeType"
FAMILY_NAME "ubuntu mono"
WEIGHT_NAME "Medium"
SLANT "R"
SETWIDTH_NAME "Normal"
ADD_STYLE_NAME ""
PIXEL_SIZE 17
POINT_SIZE 120
RESOLUTION_X 100
RESOLUTION_Y 100
SPACING "P"
AVERAGE_WIDTH 65
CHARSET_REGISTRY "Windows"
CHARSET_ENCODING "cp1252"
FONT_ASCENT 14
FONT_DESCENT 2
COPYRIGHT "Copyright 2011 Canonical Ltd.  Licensed under the Ubuntu Font Licence 1.0"
_OTF_FONTFILE "UbuntuMono-Regular.ttf"
_OTF_PSNAME "UbuntuMono-Regular"
ENDPROPERTIES
CHARS 223
STARTCHAR 0000
ENCODING 157
SWIDTH 540 0
DWIDTH 9 0
BBX 0 0 0 0
BITMAP
ENDCHAR
STARTCHAR 0008
ENCODING 8
SWIDTH 540 0
DWIDTH 9 0
BBX 0 0 0 0
BITMAP
ENDCHAR
STARTCHAR 0009
ENCODING 9
SWIDTH 540 0
DWIDTH 9 0
BBX 0 0 0 0
BITMAP
ENDCHAR
STARTCHAR 000D
ENCODING 13
SWIDTH 540 0
DWIDTH 9 0
BBX 0 0 0 0
BITMAP
ENDCHAR
STARTCHAR 001D
ENCODING 29
SWIDTH 540 0
DWIDTH 9 0
BBX 0 0 0 0
BITMAP
ENDCHAR
STARTCHAR 0020
ENCODING 32
SWIDTH 540 0
DWIDTH 9 0
BBX 0 0 0 0
BITMAP
ENDCHAR
STARTCHAR 0021
ENCODING 33
SWIDTH 540 0
DWIDTH 9 0
BBX 2 11 3 0
BITMAP
C0
C0
C0
C0
C0
C0
40
40
40
00
C0
ENDCHAR
STARTCHAR 0022
ENCODING 34
SWIDTH 540 0
DWIDTH 9 0
BBX 4 4 2 8
BITMAP
D0
90
90
90
ENDCHAR
STARTCHAR 0023
ENCODING 35
SWIDTH 540 0
DWIDTH 9 0
BBX 8 11 0 0
BITMAP
12
12
12
FF
26
24
24
FF
64
6C
4C
ENDCHAR
STARTCHAR 0024
ENCODING 36
SWIDTH 540 0
DWIDTH 9 0
BBX 7 14 1 -2
BITMAP
10
10
7C
C0
C0
C0
70
1C
04
06
84
F8
10
10
ENDCHAR
STARTCHAR 0025
ENCODING 37
SWIDTH 540 0
DWIDTH 9 0
BBX 8 11 0 0
BITMAP
61
D2
96
D4
68
08
17
35
2D
45
47
ENDCHAR
STARTCHAR 0026
ENCODING 38
SWIDTH 540 0
DWIDTH 9 0
BBX 7 11 1 0
BITMAP
70
C8
C8
D8
70
64
B4
9C
8C
8C
76
ENDCHAR
STARTCHAR 0027
ENCODING 39
SWIDTH 540 0
DWIDTH 9 0
BBX 2 5 3 7
BITMAP
C0
40
40
40
40
ENDCHAR
STARTCHAR 0028
ENCODING 40
SWIDTH 540 0
DWIDTH 9 0
BBX 5 14 2 -3
BITMAP
10
38
60
40
C0
80
80
80
80
C0
40
60
30
10
ENDCHAR
STARTCHAR 0029
ENCODING 41
SWIDTH 540 0
DWIDTH 9 0
BBX 5 14 2 -3
BITMAP
80
C0
60
30
10
10
18
18
10
10
30
20
40
80
ENDCHAR
STARTCHAR 002A
ENCODING 42
SWIDTH 540 0
DWIDTH 9 0
BBX 6 6 1 5
BITMAP
10
D4
38
38
68
48
ENDCHAR
STARTCHAR 002B
ENCODING 43
SWIDTH 540 0
DWIDTH 9 0
BBX 7 7 1 1
BITMAP
10
10
10
FE
10
10
10
ENDCHAR
STARTCHAR 002C
ENCODING 44
SWIDTH 540 0
DWIDTH 9 0
BBX 3 3 3 -2
BITMAP
E0
60
C0
ENDCHAR
STARTCHAR 002D
ENCODING 45
SWIDTH 540 0
DWIDTH 9 0
BBX 4 1 2 4
BITMAP
F0
ENDCHAR
STARTCHAR 002E
ENCODING 46
SWIDTH 540 0
DWIDTH 9 0
BBX 3 1 3 0
BITMAP
E0
ENDCHAR
STARTCHAR 002F
ENCODING 47
SWIDTH 540 0
DWIDTH 9 0
BBX 6 15 1 -3
BITMAP
04
0C
0C
08
18
18
10
10
30
20
20
60
40
40
C0
ENDCHAR
STARTCHAR 0030
ENCODING 48
SWIDTH 540 0
DWIDTH 9 0
BBX 7 11 1 0
BITMAP
38
4C
C4
86
B6
B6
86
86
C4
4C
38
ENDCHAR
STARTCHAR 0031
ENCODING 49
SWIDTH 540 0
DWIDTH 9 0
BBX 6 11 1 0
BITMAP
10
70
D0
10
10
10
10
10
10
10
7C
ENDCHAR
STARTCHAR 0032
ENCODING 50
SWIDTH 540 0
DWIDTH 9 0
BBX 7 11 1 0
BITMAP
78
8C
04
04
0C
18
30
60
60
C0
FE
ENDCHAR
STARTCHAR 0033
ENCODING 51
SWIDTH 540 0
DWIDTH 9 0
BBX 6 11 1 0
BITMAP
78
8C
04
04
0C
38
0C
04
04
8C
F8
ENDCHAR
STARTCHAR 0034
ENCODING 52
SWIDTH 540 0
DWIDTH 9 0
BBX 7 11 1 0
BITMAP
0C
1C
3C
2C
4C
CC
8C
FE
0C
0C
0C
ENDCHAR
STARTCHAR 0035
ENCODING 53
SWIDTH 540 0
DWIDTH 9 0
BBX 7 11 1 0
BITMAP
7C
40
40
40
78
0C
04
06
04
8C
F8
ENDCHAR
STARTCHAR 0036
ENCODING 54
SWIDTH 540 0
DWIDTH 9 0
BBX 7 11 1 0
BITMAP
1C
30
40
C0
F8
84
86
86
C4
44
38
ENDCHAR
STARTCHAR 0037
ENCODING 55
SWIDTH 540 0
DWIDTH 9 0
BBX 7 11 1 0
BITMAP
FE
04
0C
08
18
10
10
30
20
20
20
ENDCHAR
STARTCHAR 0038
ENCODING 56
SWIDTH 540 0
DWIDTH 9 0
BBX 7 11 1 0
BITMAP
78
C4
84
C4
4C
78
CC
86
86
C4
78
ENDCHAR
STARTCHAR 0039
ENCODING 57
SWIDTH 540 0
DWIDTH 9 0
BBX 7 11 1 0
BITMAP
78
CC
84
86
86
C6
7C
04
0C
18
E0
ENDCHAR
STARTCHAR 003A
ENCODING 58
SWIDTH 540 0
DWIDTH 9 0
BBX 3 6 3 0
BITMAP
E0
00
00
00
00
E0
ENDCHAR
STARTCHAR 003B
ENCODING 59
SWIDTH 540 0
DWIDTH 9 0
BBX 4 8 2 -2
BITMAP
70
00
00
00
00
60
20
C0
ENDCHAR
STARTCHAR 003C
ENCODING 60
SWIDTH 540 0
DWIDTH 9 0
BBX 7 7 1 1
BITMAP
06
1C
70
80
70
1C
06
ENDCHAR
STARTCHAR 003D
ENCODING 61
SWIDTH 540 0
DWIDTH 9 0
BBX 7 4 1 2
BITMAP
FE
00
00
FE
ENDCHAR
STARTCHAR 003E
ENCODING 62
SWIDTH 540 0
DWIDTH 9 0
BBX 7 7 1 1
BITMAP
80
70
1C
06
1C
70
80
ENDCHAR
STARTCHAR 003F
ENCODING 63
SWIDTH 540 0
DWIDTH 9 0
BBX 5 11 2 0
BITMAP
F0
98
08
18
18
30
20
60
40
00
60
ENDCHAR
STARTCHAR 0040
ENCODING 64
SWIDTH 540 0
DWIDTH 9 0
BBX 7 13 1 -2
BITMAP
3C
44
C2
9E
92
B2
B2
B2
92
DE
40
60
3C
ENDCHAR
STARTCHAR 0041
ENCODING 65
SWIDTH 540 0
DWIDTH 9 0
BBX 8 11 0 0
BITMAP
18
1C
14
34
26
22
62
7E
43
41
C1
ENDCHAR
STARTCHAR 0042
ENCODING 66
SWIDTH 540 0
DWIDTH 9 0
BBX 7 11 1 0
BITMAP
F8
8C
84
84
8C
F8
84
86
86
84
F8
ENDCHAR
STARTCHAR 0043
ENCODING 67
SWIDTH 540 0
DWIDTH 9 0
BBX 7 11 1 0
BITMAP
3C
62
C0
80
80
80
80
80
C0
62
3C
ENDCHAR
STARTCHAR 0044
ENCODING 68
SWIDTH 540 0
DWIDTH 9 0
BBX 7 11 1 0
BITMAP
F0
8C
84
86
86
86
86
86
84
8C
F0
ENDCHAR
STARTCHAR 0045
ENCODING 69
SWIDTH 540 0
DWIDTH 9 0
BBX 6 11 2 0
BITMAP
F8
80
80
80
80
F8
80
80
80
80
FC
ENDCHAR
STARTCHAR 0046
ENCODING 70
SWIDTH 540 0
DWIDTH 9 0
BBX 6 11 2 0
BITMAP
FC
80
80
80
80
F8
80
80
80
80
80
ENDCHAR
STARTCHAR 0047
ENCODING 71
SWIDTH 540 0
DWIDTH 9 0
BBX 7 11 1 0
BITMAP
3C
62
C0
80
80
80
86
86
C6
66
3E
ENDCHAR
STARTCHAR 0048
ENCODING 72
SWIDTH 540 0
DWIDTH 9 0
BBX 7 11 1 0
BITMAP
86
86
86
86
86
FE
86
86
86
86
86
ENDCHAR
STARTCHAR 0049
ENCODING 73
SWIDTH 540 0
DWIDTH 9 0
BBX 5 11 2 0
BITMAP
F8
20
20
20
20
20
20
20
20
20
F8
ENDCHAR
STARTCHAR 004A
ENCODING 74
SWIDTH 540 0
DWIDTH 9 0
BBX 6 11 1 0
BITMAP
7C
04
04
04
04
04
04
04
04
8C
F8
ENDCHAR
STARTCHAR 004B
ENCODING 75
SWIDTH 540 0
DWIDTH 9 0
BBX 7 11 1 0
BITMAP
86
8C
88
98
B0
E0
B0
98
8C
86
86
ENDCHAR
STARTCHAR 004C
ENCODING 76
SWIDTH 540 0
DWIDTH 9 0
BBX 6 11 2 0
BITMAP
80
80
80
80
80
80
80
80
80
80
FC
ENDCHAR
STARTCHAR 004D
ENCODING 77
SWIDTH 540 0
DWIDTH 9 0
BBX 7 11 1 0
BITMAP
C4
CC
CC
AE
AE
B6
92
82
82
82
82
ENDCHAR
STARTCHAR 004E
ENCODING 78
SWIDTH 540 0
DWIDTH 9 0
BBX 7 11 1 0
BITMAP
C6
C6
E6
A6
B6
96
96
8E
8E
86
86
ENDCHAR
STARTCHAR 004F
ENCODING 79
SWIDTH 540 0
DWIDTH 9 0
BBX 8 11 0 0
BITMAP
3C
62
43
43
41
C1
41
43
43
62
3C
ENDCHAR
STARTCHAR 0050
ENCODING 80
SWIDTH 540 0
DWIDTH 9 0
BBX 7 11 1 0
BITMAP
F8
C4
C6
C6
C6
C4
F8
C0
C0
C0
C0
ENDCHAR
STARTCHAR 0051
ENCODING 81
SWIDTH 540 0
DWIDTH 9 0
BBX 8 14 0 -3
BITMAP
3C
62
43
43
41
C1
41
43
43
62
3C
08
0C
02
ENDCHAR
STARTCHAR 0052
ENCODING 82
SWIDTH 540 0
DWIDTH 9 0
BBX 7 11 1 0
BITMAP
F8
8C
84
84
84
8C
F8
98
8C
84
86
ENDCHAR
STARTCHAR 0053
ENCODING 83
SWIDTH 540 0
DWIDTH 9 0
BBX 7 11 1 0
BITMAP
7C
C4
C0
C0
60
38
0C
06
06
84
F8
ENDCHAR
STARTCHAR 0054
ENCODING 84
SWIDTH 540 0
DWIDTH 9 0
BBX 7 11 1 0
BITMAP
FE
10
10
10
10
10
10
10
10
10
10
ENDCHAR
STARTCHAR 0055
ENCODING 85
SWIDTH 540 0
DWIDTH 9 0
BBX 7 11 1 0
BITMAP
86
86
86
86
86
86
86
86
86
C4
78
ENDCHAR
STARTCHAR 0056
ENCODING 86
SWIDTH 540 0
DWIDTH 9 0
BBX 8 11 0 0
BITMAP
C1
41
43
62
62
26
26
34
14
1C
18
ENDCHAR
STARTCHAR 0057
ENCODING 87
SWIDTH 540 0
DWIDTH 9 0
BBX 7 11 1 0
BITMAP
82
82
82
82
B2
B6
AE
AE
CC
CC
C4
ENDCHAR
STARTCHAR 0058
ENCODING 88
SWIDTH 540 0
DWIDTH 9 0
BBX 7 11 1 0
BITMAP
86
C4
4C
68
30
30
38
68
4C
C4
86
ENDCHAR
STARTCHAR 0059
ENCODING 89
SWIDTH 540 0
DWIDTH 9 0
BBX 8 11 0 0
BITMAP
C1
43
62
26
34
1C
18
08
08
08
08
ENDCHAR
STARTCHAR 005A
ENCODING 90
SWIDTH 540 0
DWIDTH 9 0
BBX 7 11 1 0
BITMAP
FE
04
0C
18
10
30
20
60
40
C0
FE
ENDCHAR
STARTCHAR 005B
ENCODING 91
SWIDTH 540 0
DWIDTH 9 0
BBX 5 14 2 -3
BITMAP
F8
C0
C0
C0
C0
C0
C0
C0
C0
C0
C0
C0
C0
F8
ENDCHAR
STARTCHAR 005C
ENCODING 92
SWIDTH 540 0
DWIDTH 9 0
BBX 6 15 1 -3
BITMAP
C0
40
40
60
20
20
30
10
10
18
18
08
0C
0C
04
ENDCHAR
STARTCHAR 005D
ENCODING 93
SWIDTH 540 0
DWIDTH 9 0
BBX 4 14 2 -3
BITMAP
F0
10
10
10
10
10
10
10
10
10
10
10
10
F0
ENDCHAR
STARTCHAR 005E
ENCODING 94
SWIDTH 540 0
DWIDTH 9 0
BBX 7 6 1 5
BITMAP
30
38
68
4C
C4
86
ENDCHAR
STARTCHAR 005F
ENCODING 95
SWIDTH 540 0
DWIDTH 9 0
BBX 8 1 0 -3
BITMAP
FF
ENDCHAR
STARTCHAR 0060
ENCODING 96
SWIDTH 540 0
DWIDTH 9 0
BBX 2 3 3 9
BITMAP
80
C0
40
ENDCHAR
STARTCHAR 0061
ENCODING 97
SWIDTH 540 0
DWIDTH 9 0
BBX 6 8 1 0
BITMAP
78
04
04
7C
C4
84
C4
7C
ENDCHAR
STARTCHAR 0062
ENCODING 98
SWIDTH 540 0
DWIDTH 9 0
BBX 7 12 1 0
BITMAP
C0
C0
C0
C0
F8
C4
C6
C6
C6
C6
CC
F8
ENDCHAR
STARTCHAR 0063
ENCODING 99
SWIDTH 540 0
DWIDTH 9 0
BBX 7 8 1 0
BITMAP
3C
40
C0
80
80
C0
40
3E
ENDCHAR
STARTCHAR 0064
ENCODING 100
SWIDTH 540 0
DWIDTH 9 0
BBX 6 12 1 0
BITMAP
04
04
04
04
7C
C4
84
84
84
84
C4
7C
ENDCHAR
STARTCHAR 0065
ENCODING 101
SWIDTH 540 0
DWIDTH 9 0
BBX 7 8 1 0
BITMAP
38
C4
86
FE
80
80
C0
3C
ENDCHAR
STARTCHAR 0066
ENCODING 102
SWIDTH 540 0
DWIDTH 9 0
BBX 7 12 1 0
BITMAP
1E
30
20
20
FC
20
20
20
20
20
20
20
ENDCHAR
STARTCHAR 0067
ENCODING 103
SWIDTH 540 0
DWIDTH 9 0
BBX 6 11 1 -3
BITMAP
7C
C4
84
84
84
84
C4
7C
04
0C
F8
ENDCHAR
STARTCHAR 0068
ENCODING 104
SWIDTH 540 0
DWIDTH 9 0
BBX 6 12 1 0
BITMAP
C0
C0
C0
C0
F8
CC
C4
C4
C4
C4
C4
C4
ENDCHAR
STARTCHAR 0069
ENCODING 105
SWIDTH 540 0
DWIDTH 9 0
BBX 7 10 1 0
BITMAP
70
00
F0
30
30
30
30
30
30
1E
ENDCHAR
STARTCHAR 006A
ENCODING 106
SWIDTH 540 0
DWIDTH 9 0
BBX 6 13 1 -3
BITMAP
18
00
7C
0C
0C
0C
0C
0C
0C
0C
0C
08
F0
ENDCHAR
STARTCHAR 006B
ENCODING 107
SWIDTH 540 0
DWIDTH 9 0
BBX 7 12 1 0
BITMAP
C0
C0
C0
C0
C4
C8
D0
E0
F0
D8
CC
C6
ENDCHAR
STARTCHAR 006C
ENCODING 108
SWIDTH 540 0
DWIDTH 9 0
BBX 7 12 1 0
BITMAP
F0
30
30
30
30
30
30
30
30
30
30
1E
ENDCHAR
STARTCHAR 006D
ENCODING 109
SWIDTH 540 0
DWIDTH 9 0
BBX 7 8 1 0
BITMAP
FC
96
92
92
92
82
82
82
ENDCHAR
STARTCHAR 006E
ENCODING 110
SWIDTH 540 0
DWIDTH 9 0
BBX 6 8 1 0
BITMAP
F8
CC
C4
C4
C4
C4
C4
C4
ENDCHAR
STARTCHAR 006F
ENCODING 111
SWIDTH 540 0
DWIDTH 9 0
BBX 7 8 1 0
BITMAP
78
C4
86
86
86
86
C4
78
ENDCHAR
STARTCHAR 0070
ENCODING 112
SWIDTH 540 0
DWIDTH 9 0
BBX 7 11 1 -3
BITMAP
F8
CC
C6
C6
C6
C6
C4
F8
C0
C0
C0
ENDCHAR
STARTCHAR 0071
ENCODING 113
SWIDTH 540 0
DWIDTH 9 0
BBX 6 11 1 -3
BITMAP
7C
C4
84
84
84
84
C4
7C
04
04
04
ENDCHAR
STARTCHAR 0072
ENCODING 114
SWIDTH 540 0
DWIDTH 9 0
BBX 5 8 2 0
BITMAP
F8
80
80
80
80
80
80
80
ENDCHAR
STARTCHAR 0073
ENCODING 115
SWIDTH 540 0
DWIDTH 9 0
BBX 6 8 1 0
BITMAP
7C
C0
C0
70
1C
04
84
F8
ENDCHAR
STARTCHAR 0074
ENCODING 116
SWIDTH 540 0
DWIDTH 9 0
BBX 7 10 1 0
BITMAP
20
20
FC
20
20
20
20
20
20
1E
ENDCHAR
STARTCHAR 0075
ENCODING 117
SWIDTH 540 0
DWIDTH 9 0
BBX 6 8 1 0
BITMAP
C4
C4
C4
C4
C4
C4
44
7C
ENDCHAR
STARTCHAR 0076
ENCODING 118
SWIDTH 540 0
DWIDTH 9 0
BBX 7 8 1 0
BITMAP
86
86
C4
4C
48
68
38
30
ENDCHAR
STARTCHAR 0077
ENCODING 119
SWIDTH 540 0
DWIDTH 9 0
BBX 8 8 0 0
BITMAP
C1
C1
49
59
5F
56
66
62
ENDCHAR
STARTCHAR 0078
ENCODING 120
SWIDTH 540 0
DWIDTH 9 0
BBX 7 8 1 0
BITMAP
C4
4C
78
30
38
68
C4
86
ENDCHAR
STARTCHAR 0079
ENCODING 121
SWIDTH 540 0
DWIDTH 9 0
BBX 7 11 1 -3
BITMAP
86
C4
44
44
6C
28
38
18
10
30
E0
ENDCHAR
STARTCHAR 007A
ENCODING 122
SWIDTH 540 0
DWIDTH 9 0
BBX 6 8 1 0
BITMAP
FC
0C
18
10
20
60
40
FC
ENDCHAR
STARTCHAR 007B
ENCODING 123
SWIDTH 540 0
DWIDTH 9 0
BBX 6 15 1 -3
BITMAP
1C
30
30
30
30
20
20
C0
20
20
30
30
30
30
1C
ENDCHAR
STARTCHAR 007C
ENCODING 124
SWIDTH 540 0
DWIDTH 9 0
BBX 1 15 4 -3
BITMAP
80
80
80
80
80
80
80
80
80
80
80
80
80
80
80
ENDCHAR
STARTCHAR 007D
ENCODING 125
SWIDTH 540 0
DWIDTH 9 0
BBX 6 15 1 -3
BITMAP
F0
10
10
10
10
10
18
0C
18
10
10
10
10
10
F0
ENDCHAR
STARTCHAR 007E
ENCODING 126
SWIDTH 540 0
DWIDTH 9 0
BBX 7 2 1 3
BITMAP
E2
9C
ENDCHAR
STARTCHAR 00A0
ENCODING 160
SWIDTH 540 0
DWIDTH 9 0
BBX 0 0 0 0
BITMAP
ENDCHAR
STARTCHAR 00A1
ENCODING 161
SWIDTH 540 0
DWIDTH 9 0
BBX 2 11 3 -3
BITMAP
C0
00
40
40
40
40
C0
C0
C0
C0
C0
ENDCHAR
STARTCHAR 00A2
ENCODING 162
SWIDTH 540 0
DWIDTH 9 0
BBX 7 13 1 -2
BITMAP
18
18
3C
40
C0
80
80
80
C0
60
3E
18
18
ENDCHAR
STARTCHAR 00A3
ENCODING 163
SWIDTH 540 0
DWIDTH 9 0
BBX 7 11 1 0
BITMAP
3C
20
60
60
60
F8
60
60
40
40
7E
ENDCHAR
STARTCHAR 00A4
ENCODING 164
SWIDTH 540 0
DWIDTH 9 0
BBX 7 8 1 1
BITMAP
82
FC
4C
C4
C4
4C
FC
82
ENDCHAR
STARTCHAR 00A5
ENCODING 165
SWIDTH 540 0
DWIDTH 9 0
BBX 8 11 0 0
BITMAP
C1
62
26
34
1C
7E
08
08
7E
08
08
ENDCHAR
STARTCHAR 00A6
ENCODING 166
SWIDTH 540 0
DWIDTH 9 0
BBX 1 15 4 -3
BITMAP
80
80
80
80
80
80
00
00
00
80
80
80
80
80
80
ENDCHAR
STARTCHAR 00A7
ENCODING 167
SWIDTH 540 0
DWIDTH 9 0
BBX 6 13 1 -2
BITMAP
3C
40
40
60
78
C4
84
C4
3C
0C
04
0C
F8
ENDCHAR
STARTCHAR 00A8
ENCODING 168
SWIDTH 540 0
DWIDTH 9 0
BBX 4 2 2 9
BITMAP
D0
D0
ENDCHAR
STARTCHAR 00A9
ENCODING 169
SWIDTH 540 0
DWIDTH 9 0
BBX 7 8 1 0
BITMAP
78
C4
B2
E2
E2
B2
C4
78
ENDCHAR
STARTCHAR 00AA
ENCODING 170
SWIDTH 540 0
DWIDTH 9 0
BBX 5 6 2 5
BITMAP
70
10
78
98
98
78
ENDCHAR
STARTCHAR 00AB
ENCODING 171
SWIDTH 540 0
DWIDTH 9 0
BBX 6 5 1 2
BITMAP
24
48
D8
48
24
ENDCHAR
STARTCHAR 00AC
ENCODING 172
SWIDTH 540 0
DWIDTH 9 0
BBX 7 5 1 1
BITMAP
FE
06
06
06
06
ENDCHAR
STARTCHAR 00AD
ENCODING 173
SWIDTH 540 0
DWIDTH 9 0
BBX 4 1 2 4
BITMAP
F0
ENDCHAR
STARTCHAR 00AE
ENCODING 174
SWIDTH 540 0
DWIDTH 9 0
BBX 7 8 1 0
BITMAP
78
C4
BA
AA
BA
AA
C4
78
ENDCHAR
STARTCHAR 00AF
ENCODING 175
SWIDTH 540 0
DWIDTH 9 0
BBX 4 1 2 10
BITMAP
F0
ENDCHAR
STARTCHAR 00B0
ENCODING 176
SWIDTH 540 0
DWIDTH 9 0
BBX 4 4 2 8
BITMAP
70
90
90
70
ENDCHAR
STARTCHAR 00B1
ENCODING 177
SWIDTH 540 0
DWIDTH 9 0
BBX 7 9 1 0
BITMAP
10
10
10
FE
10
10
10
00
FE
ENDCHAR
STARTCHAR 00B2
ENCODING 178
SWIDTH 540 0
DWIDTH 9 0
BBX 4 6 2 5
BITMAP
70
90
10
20
40
F0
ENDCHAR
STARTCHAR 00B3
ENCODING 179
SWIDTH 540 0
DWIDTH 9 0
BBX 4 6 2 5
BITMAP
F0
10
60
10
10
F0
ENDCHAR
STARTCHAR 00B4
ENCODING 180
SWIDTH 540 0
DWIDTH 9 0
BBX 2 3 3 9
BITMAP
40
40
80
ENDCHAR
STARTCHAR 00B5
ENCODING 181
SWIDTH 540 0
DWIDTH 9 0
BBX 6 11 1 -3
BITMAP
C4
C4
C4
C4
C4
C4
C4
FC
C0
C0
C0
ENDCHAR
STARTCHAR 00B6
ENCODING 182
SWIDTH 540 0
DWIDTH 9 0
BBX 8 14 0 -3
BITMAP
3F
7B
7B
FB
7B
7B
3B
0B
0B
0B
0B
0B
0B
0B
ENDCHAR
STARTCHAR 00B7
ENCODING 183
SWIDTH 540 0
DWIDTH 9 0
BBX 3 1 3 3
BITMAP
E0
ENDCHAR
STARTCHAR 00B8
ENCODING 184
SWIDTH 540 0
DWIDTH 9 0
BBX 2 3 3 -3
BITMAP
40
40
C0
ENDCHAR
STARTCHAR 00B9
ENCODING 185
SWIDTH 540 0
DWIDTH 9 0
BBX 5 6 2 5
BITMAP
60
E0
20
20
20
F8
ENDCHAR
STARTCHAR 00BA
ENCODING 186
SWIDTH 540 0
DWIDTH 9 0
BBX 5 6 2 5
BITMAP
70
98
88
88
98
70
ENDCHAR
STARTCHAR 00BB
ENCODING 187
SWIDTH 540 0
DWIDTH 9 0
BBX 5 5 2 2
BITMAP
90
D8
48
D8
90
ENDCHAR
STARTCHAR 00BC
ENCODING 188
SWIDTH 540 0
DWIDTH 9 0
BBX 8 11 0 0
BITMAP
61
E2
26
24
28
08
13
37
27
4F
43
ENDCHAR
STARTCHAR 00BD
ENCODING 189
SWIDTH 540 0
DWIDTH 9 0
BBX 7 11 1 0
BITMAP
46
C4
48
48
50
10
2E
62
42
8C
8E
ENDCHAR
STARTCHAR 00BE
ENCODING 190
SWIDTH 540 0
DWIDTH 9 0
BBX 8 11 0 0
BITMAP
E1
22
66
14
EC
08
13
17
27
6F
43
ENDCHAR
STARTCHAR 00BF
ENCODING 191
SWIDTH 540 0
DWIDTH 9 0
BBX 5 11 2 -3
BITMAP
30
00
20
20
60
C0
80
80
80
80
78
ENDCHAR
STARTCHAR 00C0
ENCODING 192
SWIDTH 540 0
DWIDTH 9 0
BBX 8 15 0 0
BITMAP
10
18
0C
00
18
1C
14
34
26
22
62
7E
43
41
C1
ENDCHAR
STARTCHAR 00C1
ENCODING 193
SWIDTH 540 0
DWIDTH 9 0
BBX 8 15 0 0
BITMAP
08
08
10
00
18
1C
14
34
26
22
62
7E
43
41
C1
ENDCHAR
STARTCHAR 00C2
ENCODING 194
SWIDTH 540 0
DWIDTH 9 0
BBX 8 15 0 0
BITMAP
08
1C
24
00
18
1C
14
34
26
22
62
7E
43
41
C1
ENDCHAR
STARTCHAR 00C3
ENCODING 195
SWIDTH 540 0
DWIDTH 9 0
BBX 8 14 0 0
BITMAP
32
2C
00
18
1C
14
34
26
22
62
7E
43
41
C1
ENDCHAR
STARTCHAR 00C4
ENCODING 196
SWIDTH 540 0
DWIDTH 9 0
BBX 8 14 0 0
BITMAP
34
34
00
18
1C
14
34
26
22
62
7E
43
41
C1
ENDCHAR
STARTCHAR 00C5
ENCODING 197
SWIDTH 540 0
DWIDTH 9 0
BBX 8 14 0 0
BITMAP
18
14
14
18
1C
14
34
26
22
62
7E
43
41
C1
ENDCHAR
STARTCHAR 00C6
ENCODING 198
SWIDTH 540 0
DWIDTH 9 0
BBX 7 11 1 0
BITMAP
1E
38
38
38
78
5E
58
F8
98
98
9E
ENDCHAR
STARTCHAR 00C7
ENCODING 199
SWIDTH 540 0
DWIDTH 9 0
BBX 7 14 1 -3
BITMAP
3C
62
C0
80
80
80
80
80
C0
62
3C
18
08
38
ENDCHAR
STARTCHAR 00C8
ENCODING 200
SWIDTH 540 0
DWIDTH 9 0
BBX 6 15 2 0
BITMAP
40
20
10
00
F8
80
80
80
80
F8
80
80
80
80
FC
ENDCHAR
STARTCHAR 00C9
ENCODING 201
SWIDTH 540 0
DWIDTH 9 0
BBX 6 15 2 0
BITMAP
10
30
60
00
F8
80
80
80
80
F8
80
80
80
80
FC
ENDCHAR
STARTCHAR 00CA
ENCODING 202
SWIDTH 540 0
DWIDTH 9 0
BBX 6 15 2 0
BITMAP
20
70
48
00
F8
80
80
80
80
F8
80
80
80
80
FC
ENDCHAR
STARTCHAR 00CB
ENCODING 203
SWIDTH 540 0
DWIDTH 9 0
BBX 6 14 2 0
BITMAP
D8
D8
00
F8
80
80
80
80
F8
80
80
80
80
FC
ENDCHAR
STARTCHAR 00CC
ENCODING 204
SWIDTH 540 0
DWIDTH 9 0
BBX 5 15 2 0
BITMAP
40
60
30
00
F8
20
20
20
20
20
20
20
20
20
F8
ENDCHAR
STARTCHAR 00CD
ENCODING 205
SWIDTH 540 0
DWIDTH 9 0
BBX 5 15 2 0
BITMAP
10
20
40
00
F8
20
20
20
20
20
20
20
20
20
F8
ENDCHAR
STARTCHAR 00CE
ENCODING 206
SWIDTH 540 0
DWIDTH 9 0
BBX 5 15 2 0
BITMAP
20
70
90
00
F8
20
20
20
20
20
20
20
20
20
F8
ENDCHAR
STARTCHAR 00CF
ENCODING 207
SWIDTH 540 0
DWIDTH 9 0
BBX 5 14 2 0
BITMAP
D0
D0
00
F8
20
20
20
20
20
20
20
20
20
F8
ENDCHAR
STARTCHAR 00D0
ENCODING 208
SWIDTH 540 0
DWIDTH 9 0
BBX 8 11 0 0
BITMAP
7C
66
62
63
63
F3
63
63
62
66
7C
ENDCHAR
STARTCHAR 00D1
ENCODING 209
SWIDTH 540 0
DWIDTH 9 0
BBX 7 14 1 0
BITMAP
64
58
00
C6
C6
E6
A6
B6
96
96
8E
8E
86
86
ENDCHAR
STARTCHAR 00D2
ENCODING 210
SWIDTH 540 0
DWIDTH 9 0
BBX 8 15 0 0
BITMAP
10
18
0C
00
3C
62
43
43
41
C1
41
43
43
62
3C
ENDCHAR
STARTCHAR 00D3
ENCODING 211
SWIDTH 540 0
DWIDTH 9 0
BBX 8 15 0 0
BITMAP
04
08
10
00
3C
62
43
43
41
C1
41
43
43
62
3C
ENDCHAR
STARTCHAR 00D4
ENCODING 212
SWIDTH 540 0
DWIDTH 9 0
BBX 8 15 0 0
BITMAP
08
1C
24
00
3C
62
43
43
41
C1
41
43
43
62
3C
ENDCHAR
STARTCHAR 00D5
ENCODING 213
SWIDTH 540 0
DWIDTH 9 0
BBX 8 14 0 0
BITMAP
32
2C
00
3C
62
43
43
41
C1
41
43
43
62
3C
ENDCHAR
STARTCHAR 00D6
ENCODING 214
SWIDTH 540 0
DWIDTH 9 0
BBX 8 14 0 0
BITMAP
34
34
00
3C
62
43
43
41
C1
41
43
43
62
3C
ENDCHAR
STARTCHAR 00D7
ENCODING 215
SWIDTH 540 0
DWIDTH 9 0
BBX 6 6 1 1
BITMAP
C4
68
38
38
68
C4
ENDCHAR
STARTCHAR 00D8
ENCODING 216
SWIDTH 540 0
DWIDTH 9 0
BBX 8 11 0 0
BITMAP
3E
66
46
47
49
C9
51
53
63
62
7C
ENDCHAR
STARTCHAR 00D9
ENCODING 217
SWIDTH 540 0
DWIDTH 9 0
BBX 7 15 1 0
BITMAP
20
30
10
00
86
86
86
86
86
86
86
86
86
C4
78
ENDCHAR
STARTCHAR 00DA
ENCODING 218
SWIDTH 540 0
DWIDTH 9 0
BBX 7 15 1 0
BITMAP
08
10
20
00
86
86
86
86
86
86
86
86
86
C4
78
ENDCHAR
STARTCHAR 00DB
ENCODING 219
SWIDTH 540 0
DWIDTH 9 0
BBX 7 15 1 0
BITMAP
10
38
48
00
86
86
86
86
86
86
86
86
86
C4
78
ENDCHAR
STARTCHAR 00DC
ENCODING 220
SWIDTH 540 0
DWIDTH 9 0
BBX 7 14 1 0
BITMAP
68
68
00
86
86
86
86
86
86
86
86
86
C4
78
ENDCHAR
STARTCHAR 00DD
ENCODING 221
SWIDTH 540 0
DWIDTH 9 0
BBX 8 15 0 0
BITMAP
04
08
10
00
C1
43
62
26
34
1C
18
08
08
08
08
ENDCHAR
STARTCHAR 00DE
ENCODING 222
SWIDTH 540 0
DWIDTH 9 0
BBX 7 11 1 0
BITMAP
C0
C0
F8
C4
C6
C6
C6
CC
F8
C0
C0
ENDCHAR
STARTCHAR 00DF
ENCODING 223
SWIDTH 540 0
DWIDTH 9 0
BBX 7 12 1 0
BITMAP
78
4C
CC
CC
D8
D0
D0
DC
C6
C2
C6
FC
ENDCHAR
STARTCHAR 00E0
ENCODING 224
SWIDTH 540 0
DWIDTH 9 0
BBX 6 12 1 0
BITMAP
20
30
10
00
78
04
04
7C
C4
84
C4
7C
ENDCHAR
STARTCHAR 00E1
ENCODING 225
SWIDTH 540 0
DWIDTH 9 0
BBX 6 12 1 0
BITMAP
08
10
20
00
78
04
04
7C
C4
84
C4
7C
ENDCHAR
STARTCHAR 00E2
ENCODING 226
SWIDTH 540 0
DWIDTH 9 0
BBX 6 12 1 0
BITMAP
10
38
48
00
78
04
04
7C
C4
84
C4
7C
ENDCHAR
STARTCHAR 00E3
ENCODING 227
SWIDTH 540 0
DWIDTH 9 0
BBX 6 11 1 0
BITMAP
64
58
00
78
04
04
7C
C4
84
C4
7C
ENDCHAR
STARTCHAR 00E4
ENCODING 228
SWIDTH 540 0
DWIDTH 9 0
BBX 6 11 1 0
BITMAP
68
68
00
78
04
04
7C
C4
84
C4
7C
ENDCHAR
STARTCHAR 00E5
ENCODING 229
SWIDTH 540 0
DWIDTH 9 0
BBX 6 13 1 0
BITMAP
30
28
28
30
00
78
04
04
7C
C4
84
C4
7C
ENDCHAR
STARTCHAR 00E6
ENCODING 230
SWIDTH 540 0
DWIDTH 9 0
BBX 7 8 1 0
BITMAP
EC
32
12
FE
90
90
98
EE
ENDCHAR
STARTCHAR 00E7
ENCODING 231
SWIDTH 540 0
DWIDTH 9 0
BBX 7 11 1 -3
BITMAP
3C
40
C0
80
80
C0
40
3E
18
08
30
ENDCHAR
STARTCHAR 00E8
ENCODING 232
SWIDTH 540 0
DWIDTH 9 0
BBX 7 12 1 0
BITMAP
20
30
10
00
38
C4
86
FE
80
80
C0
3C
ENDCHAR
STARTCHAR 00E9
ENCODING 233
SWIDTH 540 0
DWIDTH 9 0
BBX 7 12 1 0
BITMAP
08
10
20
00
38
C4
86
FE
80
80
C0
3C
ENDCHAR
STARTCHAR 00EA
ENCODING 234
SWIDTH 540 0
DWIDTH 9 0
BBX 7 12 1 0
BITMAP
10
38
28
00
38
C4
86
FE
80
80
C0
3C
ENDCHAR
STARTCHAR 00EB
ENCODING 235
SWIDTH 540 0
DWIDTH 9 0
BBX 7 11 1 0
BITMAP
6C
6C
00
38
C4
86
FE
80
80
C0
3C
ENDCHAR
STARTCHAR 00EC
ENCODING 236
SWIDTH 540 0
DWIDTH 9 0
BBX 7 12 1 0
BITMAP
20
20
10
00
F0
30
30
30
30
30
30
1E
ENDCHAR
STARTCHAR 00ED
ENCODING 237
SWIDTH 540 0
DWIDTH 9 0
BBX 7 12 1 0
BITMAP
10
30
20
00
F0
30
30
30
30
30
30
1E
ENDCHAR
STARTCHAR 00EE
ENCODING 238
SWIDTH 540 0
DWIDTH 9 0
BBX 7 12 1 0
BITMAP
20
70
48
00
F0
30
30
30
30
30
30
1E
ENDCHAR
STARTCHAR 00EF
ENCODING 239
SWIDTH 540 0
DWIDTH 9 0
BBX 7 11 1 0
BITMAP
D8
D8
00
F0
30
30
30
30
30
30
1E
ENDCHAR
STARTCHAR 00F0
ENCODING 240
SWIDTH 540 0
DWIDTH 9 0
BBX 7 12 1 0
BITMAP
30
1E
38
0C
7C
C4
C4
84
84
C4
4C
78
ENDCHAR
STARTCHAR 00F1
ENCODING 241
SWIDTH 540 0
DWIDTH 9 0
BBX 6 11 1 0
BITMAP
64
58
00
F8
CC
C4
C4
C4
C4
C4
C4
ENDCHAR
STARTCHAR 00F2
ENCODING 242
SWIDTH 540 0
DWIDTH 9 0
BBX 7 12 1 0
BITMAP
20
10
08
00
78
C4
86
86
86
86
C4
78
ENDCHAR
STARTCHAR 00F3
ENCODING 243
SWIDTH 540 0
DWIDTH 9 0
BBX 7 12 1 0
BITMAP
08
10
20
00
78
C4
86
86
86
86
C4
78
ENDCHAR
STARTCHAR 00F4
ENCODING 244
SWIDTH 540 0
DWIDTH 9 0
BBX 7 12 1 0
BITMAP
10
38
48
00
78
C4
86
86
86
86
C4
78
ENDCHAR
STARTCHAR 00F5
ENCODING 245
SWIDTH 540 0
DWIDTH 9 0
BBX 7 11 1 0
BITMAP
64
58
00
78
C4
86
86
86
86
C4
78
ENDCHAR
STARTCHAR 00F6
ENCODING 246
SWIDTH 540 0
DWIDTH 9 0
BBX 7 11 1 0
BITMAP
68
68
00
78
C4
86
86
86
86
C4
78
ENDCHAR
STARTCHAR 00F7
ENCODING 247
SWIDTH 540 0
DWIDTH 9 0
BBX 7 7 1 1
BITMAP
30
30
00
FE
00
30
30
ENDCHAR
STARTCHAR 00F8
ENCODING 248
SWIDTH 540 0
DWIDTH 9 0
BBX 7 8 1 0
BITMAP
7E
CC
8E
96
B6
A6
C4
F8
ENDCHAR
STARTCHAR 00F9
ENCODING 249
SWIDTH 540 0
DWIDTH 9 0
BBX 6 12 1 0
BITMAP
20
30
10
00
C4
C4
C4
C4
C4
C4
44
7C
ENDCHAR
STARTCHAR 00FA
ENCODING 250
SWIDTH 540 0
DWIDTH 9 0
BBX 6 12 1 0
BITMAP
08
10
20
00
C4
C4
C4
C4
C4
C4
44
7C
ENDCHAR
STARTCHAR 00FB
ENCODING 251
SWIDTH 540 0
DWIDTH 9 0
BBX 6 12 1 0
BITMAP
10
38
48
00
C4
C4
C4
C4
C4
C4
44
7C
ENDCHAR
STARTCHAR 00FC
ENCODING 252
SWIDTH 540 0
DWIDTH 9 0
BBX 6 11 1 0
BITMAP
68
68
00
C4
C4
C4
C4
C4
C4
44
7C
ENDCHAR
STARTCHAR 00FD
ENCODING 253
SWIDTH 540 0
DWIDTH 9 0
BBX 7 15 1 -3
BITMAP
08
10
20
00
86
C4
44
44
6C
28
38
18
10
30
E0
ENDCHAR
STARTCHAR 00FE
ENCODING 254
SWIDTH 540 0
DWIDTH 9 0
BBX 7 15 1 -3
BITMAP
C0
C0
C0
C0
F8
C4
C6
C6
C6
C6
C4
F8
C0
C0
C0
ENDCHAR
STARTCHAR 00FF
ENCODING 255
SWIDTH 540 0
DWIDTH 9 0
BBX 7 14 1 -3
BITMAP
6C
6C
00
86
C4
44
44
6C
28
38
18
10
30
E0
ENDCHAR
STARTCHAR 0152
ENCODING 140
SWIDTH 540 0
DWIDTH 9 0
BBX 8 11 0 0
BITMAP
3F
6C
4C
4C
CC
CF
CC
4C
4C
6C
3F
ENDCHAR
STARTCHAR 0153
ENCODING 156
SWIDTH 540 0
DWIDTH 9 0
BBX 7 8 1 0
BITMAP
6C
B2
92
9E
90
90
B8
6E
ENDCHAR
STARTCHAR 0160
ENCODING 138
SWIDTH 540 0
DWIDTH 9 0
BBX 7 15 1 0
BITMAP
28
38
10
00
7C
C4
C0
C0
60
38
0C
06
06
84
F8
ENDCHAR
STARTCHAR 0161
ENCODING 154
SWIDTH 540 0
DWIDTH 9 0
BBX 6 12 1 0
BITMAP
48
38
10
00
7C
C0
C0
70
1C
04
84
F8
ENDCHAR
STARTCHAR 0178
ENCODING 159
SWIDTH 540 0
DWIDTH 9 0
BBX 8 14 0 0
BITMAP
36
34
00
C1
43
62
26
34
1C
18
08
08
08
08
ENDCHAR
STARTCHAR 017D
ENCODING 142
SWIDTH 540 0
DWIDTH 9 0
BBX 7 15 1 0
BITMAP
48
38
10
00
FE
04
0C
18
10
30
20
60
40
C0
FE
ENDCHAR
STARTCHAR 017E
ENCODING 158
SWIDTH 540 0
DWIDTH 9 0
BBX 6 12 1 0
BITMAP
48
38
10
00
FC
0C
18
10
20
60
40
FC
ENDCHAR
STARTCHAR 0192
ENCODING 131
SWIDTH 540 0
DWIDTH 9 0
BBX 8 15 0 -3
BITMAP
0F
18
10
10
7E
10
10
10
10
10
10
10
10
30
E0
ENDCHAR
STARTCHAR 02C6
ENCODING 136
SWIDTH 540 0
DWIDTH 9 0
BBX 4 3 2 9
BITMAP
20
70
90
ENDCHAR
STARTCHAR 02DC
ENCODING 152
SWIDTH 540 0
DWIDTH 9 0
BBX 5 2 2 9
BITMAP
C8
B0
ENDCHAR
STARTCHAR 2013
ENCODING 150
SWIDTH 540 0
DWIDTH 9 0
BBX 6 1 1 4
BITMAP
FC
ENDCHAR
STARTCHAR 2014
ENCODING 151
SWIDTH 540 0
DWIDTH 9 0
BBX 9 1 0 4
BITMAP
FF80
ENDCHAR
STARTCHAR 2018
ENCODING 145
SWIDTH 540 0
DWIDTH 9 0
BBX 3 3 3 8
BITMAP
60
80
C0
ENDCHAR
STARTCHAR 2019
ENCODING 146
SWIDTH 540 0
DWIDTH 9 0
BBX 3 3 3 8
BITMAP
E0
60
C0
ENDCHAR
STARTCHAR 201A
ENCODING 130
SWIDTH 540 0
DWIDTH 9 0
BBX 3 3 3 -2
BITMAP
E0
60
C0
ENDCHAR
STARTCHAR 201C
ENCODING 147
SWIDTH 540 0
DWIDTH 9 0
BBX 7 3 1 8
BITMAP
66
88
CC
ENDCHAR
STARTCHAR 201D
ENCODING 148
SWIDTH 540 0
DWIDTH 9 0
BBX 7 3 1 8
BITMAP
EE
66
CC
ENDCHAR
STARTCHAR 201E
ENCODING 132
SWIDTH 540 0
DWIDTH 9 0
BBX 7 3 1 -2
BITMAP
EE
66
CC
ENDCHAR
STARTCHAR 2020
ENCODING 134
SWIDTH 540 0
DWIDTH 9 0
BBX 6 13 1 -2
BITMAP
10
10
10
FC
10
10
10
10
10
10
10
10
10
ENDCHAR
STARTCHAR 2021
ENCODING 135
SWIDTH 540 0
DWIDTH 9 0
BBX 6 13 1 -2
BITMAP
10
10
10
FC
10
10
10
10
FC
10
10
10
10
ENDCHAR
STARTCHAR 2022
ENCODING 149
SWIDTH 540 0
DWIDTH 9 0
BBX 5 5 2 3
BITMAP
70
F0
F8
F0
70
ENDCHAR
STARTCHAR 2026
ENCODING 133
SWIDTH 540 0
DWIDTH 9 0
BBX 7 1 1 0
BITMAP
B6
ENDCHAR
STARTCHAR 2030
ENCODING 137
SWIDTH 540 0
DWIDTH 9 0
BBX 8 11 0 0
BITMAP
60
A1
A3
AC
70
60
93
2B
2D
2B
13
ENDCHAR
STARTCHAR 2039
ENCODING 139
SWIDTH 540 0
DWIDTH 9 0
BBX 4 7 2 1
BITMAP
30
20
60
C0
60
20
30
ENDCHAR
STARTCHAR 203A
ENCODING 155
SWIDTH 540 0
DWIDTH 9 0
BBX 3 7 3 1
BITMAP
80
C0
40
60
40
C0
80
ENDCHAR
STARTCHAR 20AC
ENCODING 128
SWIDTH 540 0
DWIDTH 9 0
BBX 7 11 1 0
BITMAP
1E
20
60
40
FC
40
F8
40
60
20
1E
ENDCHAR
STARTCHAR 2122
ENCODING 153
SWIDTH 540 0
DWIDTH 9 0
BBX 8 5 0 6
BITMAP
E9
4F
4F
4D
49
ENDCHAR
ENDFONT
