STARTFONT 2.1
COMMENT
COMMENT Converted from OpenType font "ChivoMono-Bold.ttf" by "otf2bdf 3.0".
COMMENT
FONT -FreeType-chivo mono-Bold-R-Normal--25-180-100-100-P-122-Windows-cp1252
SIZE 18 100 100
FONTBOUNDINGBOX 16 29 0 -5
STARTPROPERTIES 19
FOUNDRY "FreeType"
FAMILY_NAME "chivo mono"
WEIGHT_NAME "Bold"
SLANT "R"
SETWIDTH_NAME "Normal"
ADD_STYLE_NAME ""
PIXEL_SIZE 25
POINT_SIZE 180
RESOLUTION_X 100
RESOLUTION_Y 100
SPACING "P"
AVERAGE_WIDTH 122
CHARSET_REGISTRY "Windows"
CHARSET_ENCODING "cp1252"
FONT_ASCENT 23
FONT_DESCENT 6
COPYRIGHT "Copyright 2018 The Chivo Project Authors (https://github.com/Omnibus-Type/Chivo)"
_OTF_FONTFILE "ChivoMono-Bold.ttf"
_OTF_PSNAME "ChivoMono-Bold"
ENDPROPERTIES
CHARS 219
STARTCHAR 000D
ENCODING 13
SWIDTH 600 0
DWIDTH 15 0
BBX 0 0 0 0
BITMAP
ENDCHAR
STARTCHAR 0020
ENCODING 32
SWIDTH 600 0
DWIDTH 15 0
BBX 0 0 0 0
BITMAP
ENDCHAR
STARTCHAR 0021
ENCODING 33
SWIDTH 600 0
DWIDTH 15 0
BBX 5 17 5 0
BITMAP
F8
F8
F8
F8
70
70
70
70
70
70
70
70
00
F8
F8
F8
F8
ENDCHAR
STARTCHAR 0022
ENCODING 34
SWIDTH 600 0
DWIDTH 15 0
BBX 7 7 4 10
BITMAP
EE
EE
EE
EE
C6
C6
C6
ENDCHAR
STARTCHAR 0023
ENCODING 35
SWIDTH 600 0
DWIDTH 15 0
BBX 15 17 0 0
BITMAP
071C
0718
0618
0638
0E38
7FFE
7FFE
0C70
0C70
1C70
FFFC
FFFC
FFFC
38E0
38C0
38C0
31C0
ENDCHAR
STARTCHAR 0024
ENCODING 36
SWIDTH 600 0
DWIDTH 15 0
BBX 13 21 1 -2
BITMAP
0700
0600
0F80
3FE0
7FF0
F878
F078
F800
7F00
7FE0
3FF0
07F8
00F8
E078
F078
FFF8
7FF0
3FE0
0600
0700
0700
ENDCHAR
STARTCHAR 0025
ENCODING 37
SWIDTH 600 0
DWIDTH 15 0
BBX 15 17 0 0
BITMAP
780E
FC0C
CE18
CE30
CE60
CE60
CCC0
7C00
1018
007C
0666
0CE6
1CE6
18E6
3066
607E
E03C
ENDCHAR
STARTCHAR 0026
ENCODING 38
SWIDTH 600 0
DWIDTH 15 0
BBX 14 17 1 0
BITMAP
3E00
7E00
FE00
F030
F070
F070
7870
3FFC
3FFC
7FFC
F0F0
F0F0
F0F0
F0F0
FFF0
7FF0
1FF0
ENDCHAR
STARTCHAR 0027
ENCODING 39
SWIDTH 600 0
DWIDTH 15 0
BBX 3 7 6 10
BITMAP
E0
E0
E0
E0
E0
E0
40
ENDCHAR
STARTCHAR 0028
ENCODING 40
SWIDTH 600 0
DWIDTH 15 0
BBX 6 21 5 -4
BITMAP
1C
18
38
70
70
70
F0
E0
E0
E0
E0
E0
E0
E0
F0
70
70
30
38
18
0C
ENDCHAR
STARTCHAR 0029
ENCODING 41
SWIDTH 600 0
DWIDTH 15 0
BBX 6 21 4 -4
BITMAP
E0
60
70
30
38
38
3C
1C
1C
1C
1C
1C
1C
1C
38
38
38
30
70
60
C0
ENDCHAR
STARTCHAR 002A
ENCODING 42
SWIDTH 600 0
DWIDTH 15 0
BBX 11 10 2 7
BITMAP
0E00
0E00
4E40
FDE0
FFE0
0E00
1F00
3B80
71C0
1100
ENDCHAR
STARTCHAR 002B
ENCODING 43
SWIDTH 600 0
DWIDTH 15 0
BBX 13 13 1 0
BITMAP
0700
0700
0700
0700
0700
FFF8
FFF8
FFF8
0700
0700
0700
0700
0700
ENDCHAR
STARTCHAR 002C
ENCODING 44
SWIDTH 600 0
DWIDTH 15 0
BBX 5 9 5 -5
BITMAP
F8
F8
F8
F8
30
30
30
60
E0
ENDCHAR
STARTCHAR 002D
ENCODING 45
SWIDTH 600 0
DWIDTH 15 0
BBX 7 3 4 5
BITMAP
FE
FE
FE
ENDCHAR
STARTCHAR 002E
ENCODING 46
SWIDTH 600 0
DWIDTH 15 0
BBX 5 4 5 0
BITMAP
F8
F8
F8
F8
ENDCHAR
STARTCHAR 002F
ENCODING 47
SWIDTH 600 0
DWIDTH 15 0
BBX 15 21 0 -4
BITMAP
000E
001C
0018
0038
0070
0070
00E0
00E0
01C0
01C0
0380
0300
0700
0E00
0E00
1C00
1C00
3800
3800
7000
E000
ENDCHAR
STARTCHAR 0030
ENCODING 48
SWIDTH 600 0
DWIDTH 15 0
BBX 13 17 1 0
BITMAP
1FC0
3FE0
7FF0
F8F8
F078
F078
F078
F078
F078
F078
F078
F078
F078
F8F8
7FF0
3FE0
1FC0
ENDCHAR
STARTCHAR 0031
ENCODING 49
SWIDTH 600 0
DWIDTH 15 0
BBX 12 17 2 0
BITMAP
0700
3F00
FF00
FF00
0F00
0F00
0F00
0F00
0F00
0F00
0F00
0F00
0F00
0F00
FFF0
FFF0
FFF0
ENDCHAR
STARTCHAR 0032
ENCODING 50
SWIDTH 600 0
DWIDTH 15 0
BBX 13 17 1 0
BITMAP
1FC0
3FF0
7FF0
F0F8
F078
F078
0078
00F0
01F0
07E0
0F80
1F00
7C00
7800
FFF8
FFF8
FFF8
ENDCHAR
STARTCHAR 0033
ENCODING 51
SWIDTH 600 0
DWIDTH 15 0
BBX 13 17 1 0
BITMAP
1FC0
7FF0
7FF0
F0F8
F078
0070
00F0
0FE0
0FE0
0FF0
0078
0078
E078
F0F8
FFF8
7FF0
3FC0
ENDCHAR
STARTCHAR 0034
ENCODING 52
SWIDTH 600 0
DWIDTH 15 0
BBX 13 17 1 0
BITMAP
0F00
0E00
1E60
1C60
3CE0
38E0
79E0
71E0
F1E0
E1E0
FFF8
FFF8
FFF8
01E0
01E0
01E0
01E0
ENDCHAR
STARTCHAR 0035
ENCODING 53
SWIDTH 600 0
DWIDTH 15 0
BBX 13 17 1 0
BITMAP
7FF0
7FF0
7FF0
7000
7000
7000
77E0
7FF0
7FF0
70F8
0078
F078
F078
F0F8
7FF0
3FE0
1FC0
ENDCHAR
STARTCHAR 0036
ENCODING 54
SWIDTH 600 0
DWIDTH 15 0
BBX 13 17 1 0
BITMAP
1FC0
3FF0
7FF0
7878
F078
F000
F3C0
FFF0
FFF0
F878
F078
F078
F078
7878
7FF0
3FF0
1FC0
ENDCHAR
STARTCHAR 0037
ENCODING 55
SWIDTH 600 0
DWIDTH 15 0
BBX 12 17 2 0
BITMAP
FFF0
FFF0
FFE0
01E0
01C0
0380
0780
0700
0F00
0E00
1E00
1E00
3E00
3C00
3C00
3C00
3C00
ENDCHAR
STARTCHAR 0038
ENCODING 56
SWIDTH 600 0
DWIDTH 15 0
BBX 13 17 1 0
BITMAP
1FC0
3FE0
78F0
7070
7070
7070
78F0
3FE0
3FE0
7DF0
F078
F078
F078
F078
7DF0
7FF0
1FC0
ENDCHAR
STARTCHAR 0039
ENCODING 57
SWIDTH 600 0
DWIDTH 15 0
BBX 13 17 1 0
BITMAP
1FC0
7FE0
FFF0
F0F0
F078
F078
F078
F0F8
7FF8
3F78
1C78
0078
F078
F0F0
7FF0
3FE0
1FC0
ENDCHAR
STARTCHAR 003A
ENCODING 58
SWIDTH 600 0
DWIDTH 15 0
BBX 5 13 5 0
BITMAP
F8
F8
F8
F8
00
00
00
00
00
F8
F8
F8
F8
ENDCHAR
STARTCHAR 003B
ENCODING 59
SWIDTH 600 0
DWIDTH 15 0
BBX 5 18 5 -5
BITMAP
F8
F8
F8
F8
00
00
00
00
00
F8
F8
F8
F8
30
30
30
60
E0
ENDCHAR
STARTCHAR 003C
ENCODING 60
SWIDTH 600 0
DWIDTH 15 0
BBX 13 13 1 0
BITMAP
0008
0078
01F8
0FF0
7F80
FC00
E000
FC00
7F00
1FE0
03F8
00F8
0018
ENDCHAR
STARTCHAR 003D
ENCODING 61
SWIDTH 600 0
DWIDTH 15 0
BBX 13 8 1 2
BITMAP
FFF8
FFF8
0000
0000
0000
FFF8
FFF8
FFF8
ENDCHAR
STARTCHAR 003E
ENCODING 62
SWIDTH 600 0
DWIDTH 15 0
BBX 13 13 1 0
BITMAP
8000
F000
FC00
7F80
0FF0
01F8
0078
00F8
07F0
3FC0
FE00
F800
C000
ENDCHAR
STARTCHAR 003F
ENCODING 63
SWIDTH 600 0
DWIDTH 15 0
BBX 13 17 1 0
BITMAP
1FC0
3FE0
7DF0
70F8
F0F8
F0F8
00F0
01F0
03C0
0780
0780
0780
0000
0780
0780
0780
0780
ENDCHAR
STARTCHAR 0040
ENCODING 64
SWIDTH 600 0
DWIDTH 15 0
BBX 15 21 0 -4
BITMAP
0FF0
1838
3018
600C
67C4
4FE6
CEF6
DC76
C076
C1F6
CFF6
DE76
DC76
DC76
DEF6
5FBC
6F3C
6000
3000
1C20
0FE0
ENDCHAR
STARTCHAR 0041
ENCODING 65
SWIDTH 600 0
DWIDTH 15 0
BBX 15 17 0 0
BITMAP
07C0
0FE0
0FE0
0FE0
0EE0
1EF0
1EF0
1CF0
3C78
3C78
3C78
3FF8
7FFC
7FFC
783C
703C
F01E
ENDCHAR
STARTCHAR 0042
ENCODING 66
SWIDTH 600 0
DWIDTH 15 0
BBX 13 17 1 0
BITMAP
FFE0
FFF0
FFF8
F0F8
F078
F078
F0F0
FFE0
FFE0
FFF0
F078
F078
F078
F0F8
FFF8
FFF0
FFE0
ENDCHAR
STARTCHAR 0043
ENCODING 67
SWIDTH 600 0
DWIDTH 15 0
BBX 14 17 0 0
BITMAP
0FE0
3FF8
7FF8
787C
783C
F83C
F83C
F800
F800
F800
F83C
783C
783C
7C7C
3FF8
3FF0
0FE0
ENDCHAR
STARTCHAR 0044
ENCODING 68
SWIDTH 600 0
DWIDTH 15 0
BBX 14 17 1 0
BITMAP
FFC0
FFF0
FFF8
F878
F87C
F83C
F83C
F83C
F83C
F83C
F83C
F87C
F87C
F8F8
FFF8
FFF0
FFC0
ENDCHAR
STARTCHAR 0045
ENCODING 69
SWIDTH 600 0
DWIDTH 15 0
BBX 12 17 2 0
BITMAP
FFF0
FFE0
FFE0
F000
F000
F000
F000
FFE0
FFE0
FFE0
F000
F000
F000
F000
FFE0
FFF0
FFF0
ENDCHAR
STARTCHAR 0046
ENCODING 70
SWIDTH 600 0
DWIDTH 15 0
BBX 11 17 2 0
BITMAP
FFE0
FFE0
FFE0
F000
F000
F000
F000
FFC0
FFC0
FFC0
F000
F000
F000
F000
F000
F000
F000
ENDCHAR
STARTCHAR 0047
ENCODING 71
SWIDTH 600 0
DWIDTH 15 0
BBX 14 17 0 0
BITMAP
1FE0
3FF8
7FF8
783C
783C
F83C
F800
F800
F9FC
F9FC
F83C
783C
783C
7C7C
3FFC
3FEC
0FCC
ENDCHAR
STARTCHAR 0048
ENCODING 72
SWIDTH 600 0
DWIDTH 15 0
BBX 13 17 1 0
BITMAP
F078
F078
F078
F078
F078
F078
F078
FFF8
FFF8
FFF8
F078
F078
F078
F078
F078
F078
F078
ENDCHAR
STARTCHAR 0049
ENCODING 73
SWIDTH 600 0
DWIDTH 15 0
BBX 11 17 2 0
BITMAP
FFE0
FFE0
FFE0
1F00
1F00
1F00
1F00
1F00
1F00
1F00
1F00
1F00
1F00
1F00
FFE0
FFE0
FFE0
ENDCHAR
STARTCHAR 004A
ENCODING 74
SWIDTH 600 0
DWIDTH 15 0
BBX 11 17 2 0
BITMAP
01E0
01E0
01E0
01E0
01E0
01E0
01E0
01E0
01E0
01E0
01E0
F1E0
F1E0
F1E0
FFE0
7FC0
3F80
ENDCHAR
STARTCHAR 004B
ENCODING 75
SWIDTH 600 0
DWIDTH 15 0
BBX 14 17 1 0
BITMAP
F07C
F0F8
F0F0
F1F0
F1E0
F3C0
F7C0
F780
FF80
FFC0
FFC0
FBE0
F9E0
F1F0
F0F0
F0F8
F07C
ENDCHAR
STARTCHAR 004C
ENCODING 76
SWIDTH 600 0
DWIDTH 15 0
BBX 12 17 2 0
BITMAP
F000
F000
F000
F000
F000
F000
F000
F000
F000
F000
F000
F000
F000
F000
FFE0
FFE0
FFF0
ENDCHAR
STARTCHAR 004D
ENCODING 77
SWIDTH 600 0
DWIDTH 15 0
BBX 13 17 1 0
BITMAP
F8F8
F8F8
F8F8
F8F8
FDF8
FDF8
FDF8
EDF8
EDF8
EDF8
EDF8
EF78
EF78
EF78
E778
E778
E778
ENDCHAR
STARTCHAR 004E
ENCODING 78
SWIDTH 600 0
DWIDTH 15 0
BBX 13 17 1 0
BITMAP
F878
F878
FC78
FC78
FC78
FE78
FE78
FF78
F778
F7F8
F3F8
F3F8
F1F8
F1F8
F0F8
F0F8
F078
ENDCHAR
STARTCHAR 004F
ENCODING 79
SWIDTH 600 0
DWIDTH 15 0
BBX 15 17 0 0
BITMAP
0FE0
3FF8
7FFC
7C3C
783C
F83E
F83E
F83E
F83E
F83E
F83E
783E
783C
7C7C
3FF8
3FF8
0FE0
ENDCHAR
STARTCHAR 0050
ENCODING 80
SWIDTH 600 0
DWIDTH 15 0
BBX 14 17 1 0
BITMAP
FFE0
FFF0
FFF8
F07C
F07C
F07C
F07C
FFF8
FFF8
FFF0
FF80
F000
F000
F000
F000
F000
F000
ENDCHAR
STARTCHAR 0051
ENCODING 81
SWIDTH 600 0
DWIDTH 15 0
BBX 15 21 0 -4
BITMAP
0FE0
3FF8
7FFC
7C3C
783C
F83E
F83E
F83E
F83E
F83E
F83E
783E
783C
7C7C
3FF8
3FF8
0FE0
03C0
03FE
01FE
007C
ENDCHAR
STARTCHAR 0052
ENCODING 82
SWIDTH 600 0
DWIDTH 15 0
BBX 15 17 1 0
BITMAP
FFE0
FFF8
FFF8
F078
F07C
F078
F078
FFF0
FFE0
FFF0
F1F8
F078
F078
F078
F078
F07C
F03E
ENDCHAR
STARTCHAR 0053
ENCODING 83
SWIDTH 600 0
DWIDTH 15 0
BBX 15 17 0 0
BITMAP
1FF0
3FF8
7FFC
783C
783C
7C00
7F80
3FF0
1FF8
07FC
00FC
F03E
703C
783C
7FFC
3FF8
1FE0
ENDCHAR
STARTCHAR 0054
ENCODING 84
SWIDTH 600 0
DWIDTH 15 0
BBX 13 17 1 0
BITMAP
FFF8
FFF8
FFF8
0F80
0F80
0F80
0F80
0F80
0F80
0F80
0F80
0F80
0F80
0F80
0F80
0F80
0F80
ENDCHAR
STARTCHAR 0055
ENCODING 85
SWIDTH 600 0
DWIDTH 15 0
BBX 13 17 1 0
BITMAP
F078
F078
F078
F078
F078
F078
F078
F078
F078
F078
F078
F078
F078
F8F8
7FF0
7FF0
1FC0
ENDCHAR
STARTCHAR 0056
ENCODING 86
SWIDTH 600 0
DWIDTH 15 0
BBX 15 17 0 0
BITMAP
F01E
781C
783C
783C
783C
3C38
3C78
3C78
1C78
1E70
1EF0
1EF0
0EE0
0FE0
0FE0
0FE0
07C0
ENDCHAR
STARTCHAR 0057
ENCODING 87
SWIDTH 600 0
DWIDTH 15 0
BBX 15 17 0 0
BITMAP
F38E
F38E
F38E
F3DE
73DC
73DC
77DC
76DC
7EDC
7EDC
7EDC
7EFC
7EFC
3EF8
3C78
3C78
3C78
ENDCHAR
STARTCHAR 0058
ENCODING 88
SWIDTH 600 0
DWIDTH 15 0
BBX 15 17 0 0
BITMAP
7C3C
3C3C
3E78
1E78
1FF0
0FF0
0FE0
07C0
07E0
0FE0
1FF0
1FF0
3CF8
3C78
7C7C
783C
F83E
ENDCHAR
STARTCHAR 0059
ENCODING 89
SWIDTH 600 0
DWIDTH 15 0
BBX 15 17 0 0
BITMAP
F83E
783C
7C7C
3C78
3E78
1EF0
1FF0
0FE0
0FE0
07C0
07C0
07C0
07C0
07C0
07C0
07C0
07C0
ENDCHAR
STARTCHAR 005A
ENCODING 90
SWIDTH 600 0
DWIDTH 15 0
BBX 13 17 1 0
BITMAP
FFF8
FFF8
FFF0
01F0
03E0
03E0
07C0
0780
0F80
1F00
1F00
3E00
3C00
7C00
FFF8
FFF8
FFF8
ENDCHAR
STARTCHAR 005B
ENCODING 91
SWIDTH 600 0
DWIDTH 15 0
BBX 5 21 6 -4
BITMAP
F8
F8
E0
E0
E0
E0
E0
E0
E0
E0
E0
E0
E0
E0
E0
E0
E0
E0
E0
F8
F8
ENDCHAR
STARTCHAR 005C
ENCODING 92
SWIDTH 600 0
DWIDTH 15 0
BBX 15 21 0 -4
BITMAP
E000
7000
3000
3800
1C00
1C00
0E00
0E00
0700
0300
0380
0180
01C0
00E0
00E0
0070
0070
0038
0038
001C
000E
ENDCHAR
STARTCHAR 005D
ENCODING 93
SWIDTH 600 0
DWIDTH 15 0
BBX 5 21 4 -4
BITMAP
F8
F8
38
38
38
38
38
38
38
38
38
38
38
38
38
38
38
38
38
F8
F8
ENDCHAR
STARTCHAR 005E
ENCODING 94
SWIDTH 600 0
DWIDTH 15 0
BBX 13 13 1 0
BITMAP
0700
0F80
0F80
0F80
1DC0
1DC0
38C0
38E0
38E0
7070
7070
7030
E038
ENDCHAR
STARTCHAR 005F
ENCODING 95
SWIDTH 600 0
DWIDTH 15 0
BBX 13 2 1 -3
BITMAP
FFF8
FFF8
ENDCHAR
STARTCHAR 0060
ENCODING 96
SWIDTH 600 0
DWIDTH 15 0
BBX 5 4 5 15
BITMAP
E0
70
70
38
ENDCHAR
STARTCHAR 0061
ENCODING 97
SWIDTH 600 0
DWIDTH 15 0
BBX 13 13 1 0
BITMAP
1FC0
7FE0
7FF0
70F0
00F0
0FF0
3FF0
7CF0
F0F0
F0F0
F9F0
7F78
3E78
ENDCHAR
STARTCHAR 0062
ENCODING 98
SWIDTH 600 0
DWIDTH 15 0
BBX 12 18 2 0
BITMAP
F000
F000
F000
F000
F000
F780
FFE0
FFE0
F0F0
F0F0
F0F0
F0F0
F0F0
F0F0
F0F0
F9E0
FFE0
EFC0
ENDCHAR
STARTCHAR 0063
ENCODING 99
SWIDTH 600 0
DWIDTH 15 0
BBX 12 13 1 0
BITMAP
0F80
3FE0
7DF0
7870
F070
F000
F000
F000
F070
7870
78F0
3FE0
1FC0
ENDCHAR
STARTCHAR 0064
ENCODING 100
SWIDTH 600 0
DWIDTH 15 0
BBX 12 18 1 0
BITMAP
00F0
00F0
00F0
00F0
00F0
1EF0
3FF0
7FF0
F0F0
F0F0
F0F0
F0F0
F0F0
F0F0
F0F0
79F0
7FF0
3F70
ENDCHAR
STARTCHAR 0065
ENCODING 101
SWIDTH 600 0
DWIDTH 15 0
BBX 13 13 1 0
BITMAP
0FC0
3FE0
7FF0
7870
F078
FFF8
FFF8
F000
F078
F878
7CF0
3FF0
1FC0
ENDCHAR
STARTCHAR 0066
ENCODING 102
SWIDTH 600 0
DWIDTH 15 0
BBX 12 18 2 0
BITMAP
07F0
0FF0
1FF0
1E00
1E00
FFE0
FFE0
FFE0
1E00
1E00
1E00
1E00
1E00
1E00
1E00
FFF0
FFF0
FFF0
ENDCHAR
STARTCHAR 0067
ENCODING 103
SWIDTH 600 0
DWIDTH 15 0
BBX 14 20 1 -5
BITMAP
001C
0038
1FF8
3FE0
7CF0
7870
7870
78F0
3FF0
3FC0
7000
F000
7FF0
7FF8
7FFC
E03C
E03C
FFF8
FFF8
3FE0
ENDCHAR
STARTCHAR 0068
ENCODING 104
SWIDTH 600 0
DWIDTH 15 0
BBX 11 18 2 0
BITMAP
F000
F000
F000
F000
F000
F7C0
FFE0
FFE0
F1E0
F1E0
F1E0
F1E0
F1E0
F1E0
F1E0
F1E0
F1E0
F1E0
ENDCHAR
STARTCHAR 0069
ENCODING 105
SWIDTH 600 0
DWIDTH 15 0
BBX 12 18 2 0
BITMAP
0700
0700
0700
0000
0000
FF00
FF00
FF00
0F00
0F00
0F00
0F00
0F00
0F00
0F00
FFF0
FFF0
FFF0
ENDCHAR
STARTCHAR 006A
ENCODING 106
SWIDTH 600 0
DWIDTH 15 0
BBX 8 23 2 -5
BITMAP
07
07
07
00
00
FF
FF
FF
0F
0F
0F
0F
0F
0F
0F
0F
0F
0F
0F
8F
FF
FE
38
ENDCHAR
STARTCHAR 006B
ENCODING 107
SWIDTH 600 0
DWIDTH 15 0
BBX 13 18 2 0
BITMAP
E000
E000
E000
E000
E000
E0F0
E1E0
E3E0
E7C0
E780
EF00
FF00
FF80
FF80
F7C0
E3E0
E1E0
E0F8
ENDCHAR
STARTCHAR 006C
ENCODING 108
SWIDTH 600 0
DWIDTH 15 0
BBX 12 18 2 0
BITMAP
FF00
FF00
FF00
0F00
0F00
0F00
0F00
0F00
0F00
0F00
0F00
0F00
0F00
0F00
0F00
FFF0
FFF0
FFF0
ENDCHAR
STARTCHAR 006D
ENCODING 109
SWIDTH 600 0
DWIDTH 15 0
BBX 13 13 1 0
BITMAP
DE70
FFF8
FFF8
E738
E738
E738
E738
E738
E738
E738
E738
E738
E738
ENDCHAR
STARTCHAR 006E
ENCODING 110
SWIDTH 600 0
DWIDTH 15 0
BBX 11 13 2 0
BITMAP
E780
FFE0
FFE0
F1E0
F1E0
F1E0
F1E0
F1E0
F1E0
F1E0
F1E0
F1E0
F1E0
ENDCHAR
STARTCHAR 006F
ENCODING 111
SWIDTH 600 0
DWIDTH 15 0
BBX 13 13 1 0
BITMAP
0F80
3FE0
7DF0
78F0
F078
F078
F078
F078
F078
F0F8
7DF0
3FE0
1FC0
ENDCHAR
STARTCHAR 0070
ENCODING 112
SWIDTH 600 0
DWIDTH 15 0
BBX 12 18 2 -5
BITMAP
E780
FFE0
FFE0
F0F0
F0F0
F0F0
F0F0
F0F0
F0F0
F0F0
F9E0
FFE0
FFC0
F000
F000
F000
F000
F000
ENDCHAR
STARTCHAR 0071
ENCODING 113
SWIDTH 600 0
DWIDTH 15 0
BBX 12 18 1 -5
BITMAP
1E70
3FF0
7FF0
F0F0
F0F0
F0F0
F0F0
F0F0
F0F0
F0F0
79F0
7FF0
3FF0
00F0
00F0
00F0
00F0
00F0
ENDCHAR
STARTCHAR 0072
ENCODING 114
SWIDTH 600 0
DWIDTH 15 0
BBX 13 13 1 0
BITMAP
FCF0
FFF8
FFF8
1E38
1E38
1E00
1E00
1E00
1E00
1E00
FFF0
FFF0
FFF0
ENDCHAR
STARTCHAR 0073
ENCODING 115
SWIDTH 600 0
DWIDTH 15 0
BBX 13 13 1 0
BITMAP
1FC0
3FE0
7DF0
7070
7800
7FC0
3FF0
1FF0
00F8
F078
78F0
7FF0
3FC0
ENDCHAR
STARTCHAR 0074
ENCODING 116
SWIDTH 600 0
DWIDTH 15 0
BBX 13 17 1 0
BITMAP
0600
0E00
0E00
0E00
FFF8
FFF8
FFF8
1E00
1E00
1E00
1E00
1E00
1E00
1F00
0FF8
0FF8
07F8
ENDCHAR
STARTCHAR 0075
ENCODING 117
SWIDTH 600 0
DWIDTH 15 0
BBX 14 13 1 0
BITMAP
F0F0
F0F0
F0F0
F0F0
F0F0
F0F0
F0F0
F0F0
F0F0
F8F0
7FF0
7FFC
3F7C
ENDCHAR
STARTCHAR 0076
ENCODING 118
SWIDTH 600 0
DWIDTH 15 0
BBX 13 13 1 0
BITMAP
F078
F078
7870
78F0
78F0
3CE0
3DE0
3DE0
1FC0
1FC0
1FC0
0F80
0F80
ENDCHAR
STARTCHAR 0077
ENCODING 119
SWIDTH 600 0
DWIDTH 15 0
BBX 15 13 0 0
BITMAP
E38E
E38E
E3CE
77DC
77DC
77DC
76DC
76DC
7EFC
3EF8
3EF8
3C78
3C78
ENDCHAR
STARTCHAR 0078
ENCODING 120
SWIDTH 600 0
DWIDTH 15 0
BBX 13 13 1 0
BITMAP
F878
78F0
7CF0
3FE0
1FC0
1FC0
0F80
1FC0
1FC0
3DE0
79F0
78F0
F078
ENDCHAR
STARTCHAR 0079
ENCODING 121
SWIDTH 600 0
DWIDTH 15 0
BBX 13 18 1 -5
BITMAP
F078
F078
7870
78F0
78F0
3CE0
3DE0
1FC0
1FC0
1FC0
0F80
0F80
0780
0F00
0F00
7E00
7C00
7000
ENDCHAR
STARTCHAR 007A
ENCODING 122
SWIDTH 600 0
DWIDTH 15 0
BBX 11 13 2 0
BITMAP
FFE0
FFE0
FFC0
0780
0F80
0F00
1F00
1E00
3C00
7C00
7FE0
FFE0
FFE0
ENDCHAR
STARTCHAR 007B
ENCODING 123
SWIDTH 600 0
DWIDTH 15 0
BBX 7 21 4 -4
BITMAP
1E
3C
38
38
38
38
38
38
38
F0
C0
70
38
38
38
38
38
38
38
3E
1E
ENDCHAR
STARTCHAR 007C
ENCODING 124
SWIDTH 600 0
DWIDTH 15 0
BBX 3 23 6 -5
BITMAP
E0
E0
E0
E0
E0
E0
E0
E0
E0
E0
E0
E0
E0
E0
E0
E0
E0
E0
E0
E0
E0
E0
E0
ENDCHAR
STARTCHAR 007D
ENCODING 125
SWIDTH 600 0
DWIDTH 15 0
BBX 7 21 4 -4
BITMAP
F0
78
38
38
38
38
38
38
38
1E
06
1C
38
38
38
38
38
38
38
F8
F0
ENDCHAR
STARTCHAR 007E
ENCODING 126
SWIDTH 600 0
DWIDTH 15 0
BBX 15 5 0 5
BITMAP
1802
7F06
FFFE
E1FC
8070
ENDCHAR
STARTCHAR 00A0
ENCODING 160
SWIDTH 600 0
DWIDTH 15 0
BBX 0 0 0 0
BITMAP
ENDCHAR
STARTCHAR 00A1
ENCODING 161
SWIDTH 600 0
DWIDTH 15 0
BBX 5 17 5 -4
BITMAP
F8
F8
F8
F8
00
70
70
70
70
70
70
70
70
F8
F8
F8
F8
ENDCHAR
STARTCHAR 00A2
ENCODING 162
SWIDTH 600 0
DWIDTH 15 0
BBX 13 17 1 0
BITMAP
0700
0300
0FC0
3FE0
7CF0
7870
7878
F800
F800
F800
7878
7870
7FF0
3FE0
0FC0
0300
0700
ENDCHAR
STARTCHAR 00A3
ENCODING 163
SWIDTH 600 0
DWIDTH 15 0
BBX 14 18 0 0
BITMAP
0080
07F0
0FF8
1FFC
1E3C
1E1C
1E00
1E00
FFC0
FFC0
FFC0
1C00
1C00
1C00
1C00
7FF8
7FF8
7FF8
ENDCHAR
STARTCHAR 00A4
ENCODING 164
SWIDTH 600 0
DWIDTH 15 0
BBX 13 13 1 2
BITMAP
4610
FFF8
7FF0
7070
6030
E038
E038
E038
6030
7070
7FF0
FFF8
4710
ENDCHAR
STARTCHAR 00A5
ENCODING 165
SWIDTH 600 0
DWIDTH 15 0
BBX 15 17 0 0
BITMAP
F83E
783C
7C7C
3C78
3E78
1EF0
7FFE
7FFE
0FE0
7FFE
7FFE
07C0
07C0
07C0
07C0
07C0
07C0
ENDCHAR
STARTCHAR 00A6
ENCODING 166
SWIDTH 600 0
DWIDTH 15 0
BBX 3 23 6 -5
BITMAP
E0
E0
E0
E0
E0
E0
E0
E0
E0
00
00
00
00
00
E0
E0
E0
E0
E0
E0
E0
E0
E0
ENDCHAR
STARTCHAR 00A7
ENCODING 167
SWIDTH 600 0
DWIDTH 15 0
BBX 12 22 2 -5
BITMAP
3F80
7FC0
F1E0
E0E0
F000
FC00
7F00
7FC0
E7E0
E1E0
E0F0
F0E0
FCE0
7FC0
1FC0
07E0
01E0
00E0
F1E0
FFE0
7FC0
0E00
ENDCHAR
STARTCHAR 00A8
ENCODING 168
SWIDTH 600 0
DWIDTH 15 0
BBX 9 3 3 15
BITMAP
E380
E380
E380
ENDCHAR
STARTCHAR 00A9
ENCODING 169
SWIDTH 600 0
DWIDTH 15 0
BBX 15 17 0 0
BITMAP
0FE0
1830
3018
63CC
4FE4
CE66
DC76
DC06
DC06
DC76
DC76
CE64
4FE4
618C
3018
1830
0FE0
ENDCHAR
STARTCHAR 00AA
ENCODING 170
SWIDTH 600 0
DWIDTH 15 0
BBX 9 8 3 9
BITMAP
7E00
6700
0700
7F00
6700
E700
7B80
3100
ENDCHAR
STARTCHAR 00AB
ENCODING 171
SWIDTH 600 0
DWIDTH 15 0
BBX 11 9 2 4
BITMAP
38E0
39C0
71C0
F380
E780
F380
71C0
39C0
38E0
ENDCHAR
STARTCHAR 00AC
ENCODING 172
SWIDTH 600 0
DWIDTH 15 0
BBX 13 8 1 4
BITMAP
FFF8
FFF8
FFF8
0038
0038
0038
0038
0038
ENDCHAR
STARTCHAR 00AD
ENCODING 173
SWIDTH 600 0
DWIDTH 15 0
BBX 7 3 4 5
BITMAP
FE
FE
FE
ENDCHAR
STARTCHAR 00AE
ENCODING 174
SWIDTH 600 0
DWIDTH 15 0
BBX 15 17 0 0
BITMAP
0FE0
1830
3018
6FCC
4FE4
CC76
CC76
CCE6
CFC6
CCE6
CC76
CC74
4C74
6C3C
3018
1830
0FE0
ENDCHAR
STARTCHAR 00AF
ENCODING 175
SWIDTH 600 0
DWIDTH 15 0
BBX 9 2 3 15
BITMAP
FF80
FF80
ENDCHAR
STARTCHAR 00B0
ENCODING 176
SWIDTH 600 0
DWIDTH 15 0
BBX 7 7 4 10
BITMAP
7C
EE
C6
C6
C6
FE
7C
ENDCHAR
STARTCHAR 00B1
ENCODING 177
SWIDTH 600 0
DWIDTH 15 0
BBX 13 13 1 0
BITMAP
0700
0700
0700
FFF8
FFF8
FFF8
0700
0700
0700
0000
FFF8
FFF8
FFF8
ENDCHAR
STARTCHAR 00B2
ENCODING 178
SWIDTH 600 0
DWIDTH 15 0
BBX 7 9 4 11
BITMAP
7C
FE
C6
0E
0C
3C
70
E0
FE
ENDCHAR
STARTCHAR 00B3
ENCODING 179
SWIDTH 600 0
DWIDTH 15 0
BBX 7 10 4 10
BITMAP
7C
FE
C6
0E
3C
0E
06
C6
FE
38
ENDCHAR
STARTCHAR 00B4
ENCODING 180
SWIDTH 600 0
DWIDTH 15 0
BBX 5 4 5 15
BITMAP
38
70
70
E0
ENDCHAR
STARTCHAR 00B5
ENCODING 181
SWIDTH 600 0
DWIDTH 15 0
BBX 14 17 1 -4
BITMAP
F0F0
F0F0
F0F0
F0F0
F0F0
F0F0
F0F0
F0F0
F0F0
F8F0
FFF0
FFFC
FF7C
F000
F000
F000
F000
ENDCHAR
STARTCHAR 00B6
ENCODING 182
SWIDTH 600 0
DWIDTH 15 0
BBX 12 21 1 -4
BITMAP
1FF0
7FF0
7E60
FE60
FE60
FE60
FE60
FE60
7E60
3E60
0E60
0660
0660
0660
0660
0660
0660
0660
0660
0660
0660
ENDCHAR
STARTCHAR 00B7
ENCODING 183
SWIDTH 600 0
DWIDTH 15 0
BBX 5 4 5 7
BITMAP
F8
F8
F8
F8
ENDCHAR
STARTCHAR 00B8
ENCODING 184
SWIDTH 600 0
DWIDTH 15 0
BBX 5 4 5 -5
BITMAP
38
18
98
F8
ENDCHAR
STARTCHAR 00B9
ENCODING 185
SWIDTH 600 0
DWIDTH 15 0
BBX 6 9 4 11
BITMAP
18
F8
F8
38
38
38
38
38
FC
ENDCHAR
STARTCHAR 00BA
ENCODING 186
SWIDTH 600 0
DWIDTH 15 0
BBX 7 8 4 9
BITMAP
7C
EE
C6
C6
C6
C6
7C
10
ENDCHAR
STARTCHAR 00BB
ENCODING 187
SWIDTH 600 0
DWIDTH 15 0
BBX 11 9 2 4
BITMAP
E380
7380
71C0
39E0
3CE0
39E0
71C0
7380
E380
ENDCHAR
STARTCHAR 00BC
ENCODING 188
SWIDTH 600 0
DWIDTH 15 0
BBX 15 17 0 0
BITMAP
100E
F00C
F018
3030
3060
3060
30C0
3000
FC30
0034
066C
0C6C
1CCC
188C
30FE
600C
E00C
ENDCHAR
STARTCHAR 00BD
ENCODING 189
SWIDTH 600 0
DWIDTH 15 0
BBX 15 17 0 0
BITMAP
100E
F01C
F018
3030
3060
3060
30C0
3000
FC7C
00FE
06C6
0C06
180E
181C
3070
60E0
E0FE
ENDCHAR
STARTCHAR 00BE
ENCODING 190
SWIDTH 600 0
DWIDTH 15 0
BBX 15 17 0 0
BITMAP
7C0E
FE0C
C618
0630
3C60
0E60
06C0
C600
FE30
3834
066C
0C6C
1CCC
188C
30FE
600C
E00C
ENDCHAR
STARTCHAR 00BF
ENCODING 191
SWIDTH 600 0
DWIDTH 15 0
BBX 13 18 1 -5
BITMAP
0F00
0F00
0F00
0F00
0000
0700
0700
0F00
1E00
3E00
7C00
F800
F878
F878
7CF0
7FE0
3FC0
0600
ENDCHAR
STARTCHAR 00C0
ENCODING 192
SWIDTH 600 0
DWIDTH 15 0
BBX 15 22 0 0
BITMAP
1E00
0700
0380
0000
0000
07C0
0FE0
0FE0
0FE0
0EE0
1EF0
1EF0
1CF0
3C78
3C78
3C78
3FF8
7FFC
7FFC
783C
703C
F01E
ENDCHAR
STARTCHAR 00C1
ENCODING 193
SWIDTH 600 0
DWIDTH 15 0
BBX 15 22 0 0
BITMAP
00F0
01C0
03C0
0000
0000
07C0
0FE0
0FE0
0FE0
0EE0
1EF0
1EF0
1CF0
3C78
3C78
3C78
3FF8
7FFC
7FFC
783C
703C
F01E
ENDCHAR
STARTCHAR 00C2
ENCODING 194
SWIDTH 600 0
DWIDTH 15 0
BBX 15 22 0 0
BITMAP
07C0
0EE0
1C70
0000
0000
07C0
0FE0
0FE0
0FE0
0EE0
1EF0
1EF0
1CF0
3C78
3C78
3C78
3FF8
7FFC
7FFC
783C
703C
F01E
ENDCHAR
STARTCHAR 00C3
ENCODING 195
SWIDTH 600 0
DWIDTH 15 0
BBX 15 22 0 0
BITMAP
0F30
1FF0
19E0
0000
0000
07C0
0FE0
0FE0
0FE0
0EE0
1EF0
1EF0
1CF0
3C78
3C78
3C78
3FF8
7FFC
7FFC
783C
703C
F01E
ENDCHAR
STARTCHAR 00C4
ENCODING 196
SWIDTH 600 0
DWIDTH 15 0
BBX 15 22 0 0
BITMAP
1C70
1C70
1C70
0000
0000
07C0
0FE0
0FE0
0FE0
0EE0
1EF0
1EF0
1CF0
3C78
3C78
3C78
3FF8
7FFC
7FFC
783C
703C
F01E
ENDCHAR
STARTCHAR 00C5
ENCODING 197
SWIDTH 600 0
DWIDTH 15 0
BBX 15 24 0 0
BITMAP
0180
07C0
0640
06C0
07C0
0000
0000
07C0
0FE0
0FE0
0FE0
0EE0
1EF0
1EF0
1CF0
3C78
3C78
3C78
3FF8
7FFC
7FFC
783C
703C
F01E
ENDCHAR
STARTCHAR 00C6
ENCODING 198
SWIDTH 600 0
DWIDTH 15 0
BBX 15 17 0 0
BITMAP
0FFE
0FFE
0FFC
1FE0
1DE0
1DE0
1DE0
3DFC
3DFC
39FC
39E0
7FE0
7FE0
7FE0
71FE
F1FE
F1FE
ENDCHAR
STARTCHAR 00C7
ENCODING 199
SWIDTH 600 0
DWIDTH 15 0
BBX 14 22 0 -5
BITMAP
0FE0
3FF8
7FF8
787C
783C
F83C
F83C
F800
F800
F800
F83C
783C
783C
7C7C
3FF8
3FF0
0FE0
0000
01C0
00C0
04C0
07C0
ENDCHAR
STARTCHAR 00C8
ENCODING 200
SWIDTH 600 0
DWIDTH 15 0
BBX 12 22 2 0
BITMAP
3C00
1C00
0E00
0000
0000
FFF0
FFE0
FFE0
F000
F000
F000
F000
FFE0
FFE0
FFE0
F000
F000
F000
F000
FFE0
FFF0
FFF0
ENDCHAR
STARTCHAR 00C9
ENCODING 201
SWIDTH 600 0
DWIDTH 15 0
BBX 12 22 2 0
BITMAP
03C0
0780
0700
0800
0000
FFF0
FFE0
FFE0
F000
F000
F000
F000
FFE0
FFE0
FFE0
F000
F000
F000
F000
FFE0
FFF0
FFF0
ENDCHAR
STARTCHAR 00CA
ENCODING 202
SWIDTH 600 0
DWIDTH 15 0
BBX 12 22 2 0
BITMAP
1F00
3B80
71C0
0000
0000
FFF0
FFE0
FFE0
F000
F000
F000
F000
FFE0
FFE0
FFE0
F000
F000
F000
F000
FFE0
FFF0
FFF0
ENDCHAR
STARTCHAR 00CB
ENCODING 203
SWIDTH 600 0
DWIDTH 15 0
BBX 12 22 2 0
BITMAP
71C0
71C0
71C0
0000
0000
FFF0
FFE0
FFE0
F000
F000
F000
F000
FFE0
FFE0
FFE0
F000
F000
F000
F000
FFE0
FFF0
FFF0
ENDCHAR
STARTCHAR 00CC
ENCODING 204
SWIDTH 600 0
DWIDTH 15 0
BBX 11 22 2 0
BITMAP
7800
1C00
0E00
0000
0000
FFE0
FFE0
FFE0
1F00
1F00
1F00
1F00
1F00
1F00
1F00
1F00
1F00
1F00
1F00
FFE0
FFE0
FFE0
ENDCHAR
STARTCHAR 00CD
ENCODING 205
SWIDTH 600 0
DWIDTH 15 0
BBX 11 22 2 0
BITMAP
03C0
0700
0F00
0000
0000
FFE0
FFE0
FFE0
1F00
1F00
1F00
1F00
1F00
1F00
1F00
1F00
1F00
1F00
1F00
FFE0
FFE0
FFE0
ENDCHAR
STARTCHAR 00CE
ENCODING 206
SWIDTH 600 0
DWIDTH 15 0
BBX 11 22 2 0
BITMAP
1F00
3B80
71C0
0000
0000
FFE0
FFE0
FFE0
1F00
1F00
1F00
1F00
1F00
1F00
1F00
1F00
1F00
1F00
1F00
FFE0
FFE0
FFE0
ENDCHAR
STARTCHAR 00CF
ENCODING 207
SWIDTH 600 0
DWIDTH 15 0
BBX 11 22 2 0
BITMAP
71C0
71C0
71C0
0000
0000
FFE0
FFE0
FFE0
1F00
1F00
1F00
1F00
1F00
1F00
1F00
1F00
1F00
1F00
1F00
FFE0
FFE0
FFE0
ENDCHAR
STARTCHAR 00D0
ENCODING 208
SWIDTH 600 0
DWIDTH 15 0
BBX 15 17 0 0
BITMAP
7FE0
7FF8
7FFC
7C3C
7C3E
7C1E
7C1E
FF9E
FF9E
FF9E
7C1E
7C3E
7C3E
7C7C
7FFC
7FF8
7FE0
ENDCHAR
STARTCHAR 00D1
ENCODING 209
SWIDTH 600 0
DWIDTH 15 0
BBX 13 22 1 0
BITMAP
1E60
3FE0
33C0
0000
0000
F878
F878
FC78
FC78
FC78
FE78
FE78
FF78
F778
F7F8
F3F8
F3F8
F1F8
F1F8
F0F8
F0F8
F078
ENDCHAR
STARTCHAR 00D2
ENCODING 210
SWIDTH 600 0
DWIDTH 15 0
BBX 15 22 0 0
BITMAP
1E00
0700
0380
0000
0000
0FE0
3FF8
7FFC
7C3C
783C
F83E
F83E
F83E
F83E
F83E
F83E
783E
783C
7C7C
3FF8
3FF8
0FE0
ENDCHAR
STARTCHAR 00D3
ENCODING 211
SWIDTH 600 0
DWIDTH 15 0
BBX 15 22 0 0
BITMAP
00F0
01C0
03C0
0000
0000
0FE0
3FF8
7FFC
7C3C
783C
F83E
F83E
F83E
F83E
F83E
F83E
783E
783C
7C7C
3FF8
3FF8
0FE0
ENDCHAR
STARTCHAR 00D4
ENCODING 212
SWIDTH 600 0
DWIDTH 15 0
BBX 15 22 0 0
BITMAP
07C0
0EE0
1C70
0000
0000
0FE0
3FF8
7FFC
7C3C
783C
F83E
F83E
F83E
F83E
F83E
F83E
783E
783C
7C7C
3FF8
3FF8
0FE0
ENDCHAR
STARTCHAR 00D5
ENCODING 213
SWIDTH 600 0
DWIDTH 15 0
BBX 15 22 0 0
BITMAP
0F30
1FF0
19E0
0000
0000
0FE0
3FF8
7FFC
7C3C
783C
F83E
F83E
F83E
F83E
F83E
F83E
783E
783C
7C7C
3FF8
3FF8
0FE0
ENDCHAR
STARTCHAR 00D6
ENCODING 214
SWIDTH 600 0
DWIDTH 15 0
BBX 15 22 0 0
BITMAP
1C70
1C70
1C70
0000
0000
0FE0
3FF8
7FFC
7C3C
783C
F83E
F83E
F83E
F83E
F83E
F83E
783E
783C
7C7C
3FF8
3FF8
0FE0
ENDCHAR
STARTCHAR 00D7
ENCODING 215
SWIDTH 600 0
DWIDTH 15 0
BBX 11 11 2 1
BITMAP
4040
60C0
F1E0
7BC0
3F80
1F00
1F00
3F80
7BC0
F1E0
60C0
ENDCHAR
STARTCHAR 00D8
ENCODING 216
SWIDTH 600 0
DWIDTH 15 0
BBX 15 21 0 -2
BITMAP
000E
000C
0FF8
3FF8
7FFC
7C7C
787C
F8FE
F9FE
F9BE
FBBE
FB3E
FE3E
7E3E
7C3C
7C7C
3FF8
3FF8
7FE0
6000
E000
ENDCHAR
STARTCHAR 00D9
ENCODING 217
SWIDTH 600 0
DWIDTH 15 0
BBX 13 22 1 0
BITMAP
3C00
0E00
0700
0000
0000
F078
F078
F078
F078
F078
F078
F078
F078
F078
F078
F078
F078
F078
F8F8
7FF0
7FF0
1FC0
ENDCHAR
STARTCHAR 00DA
ENCODING 218
SWIDTH 600 0
DWIDTH 15 0
BBX 13 22 1 0
BITMAP
01E0
0380
0780
0000
0000
F078
F078
F078
F078
F078
F078
F078
F078
F078
F078
F078
F078
F078
F8F8
7FF0
7FF0
1FC0
ENDCHAR
STARTCHAR 00DB
ENCODING 219
SWIDTH 600 0
DWIDTH 15 0
BBX 13 22 1 0
BITMAP
0F80
1DC0
38E0
0000
0000
F078
F078
F078
F078
F078
F078
F078
F078
F078
F078
F078
F078
F078
F8F8
7FF0
7FF0
1FC0
ENDCHAR
STARTCHAR 00DC
ENCODING 220
SWIDTH 600 0
DWIDTH 15 0
BBX 13 22 1 0
BITMAP
38E0
38E0
38E0
0000
0000
F078
F078
F078
F078
F078
F078
F078
F078
F078
F078
F078
F078
F078
F8F8
7FF0
7FF0
1FC0
ENDCHAR
STARTCHAR 00DD
ENCODING 221
SWIDTH 600 0
DWIDTH 15 0
BBX 15 22 0 0
BITMAP
00F0
01C0
03C0
0000
0000
F83E
783C
7C7C
3C78
3E78
1EF0
1FF0
0FE0
0FE0
07C0
07C0
07C0
07C0
07C0
07C0
07C0
07C0
ENDCHAR
STARTCHAR 00DE
ENCODING 222
SWIDTH 600 0
DWIDTH 15 0
BBX 14 17 1 0
BITMAP
F800
F800
F800
FFE0
FFF0
FFF8
F878
F87C
F87C
F878
FFF8
FFF0
FFE0
F800
F800
F800
F800
ENDCHAR
STARTCHAR 00DF
ENCODING 223
SWIDTH 600 0
DWIDTH 15 0
BBX 15 20 0 -2
BITMAP
07E0
1FF8
3FF8
3C3C
3C3C
FC3C
FC38
FDF8
3DF0
3DF8
3C3C
3C1C
3C1E
3C3C
3C3C
3DFC
3DF8
3DE0
3C00
3C00
ENDCHAR
STARTCHAR 00E0
ENCODING 224
SWIDTH 600 0
DWIDTH 15 0
BBX 13 19 1 0
BITMAP
1C00
0E00
0E00
0700
0000
0000
1FC0
7FE0
7FF0
70F0
00F0
0FF0
3FF0
7CF0
F0F0
F0F0
F9F0
7F78
3E78
ENDCHAR
STARTCHAR 00E1
ENCODING 225
SWIDTH 600 0
DWIDTH 15 0
BBX 13 19 1 0
BITMAP
03C0
0380
0700
0700
0800
0000
1FC0
7FE0
7FF0
70F0
00F0
0FF0
3FF0
7CF0
F0F0
F0F0
F9F0
7F78
3E78
ENDCHAR
STARTCHAR 00E2
ENCODING 226
SWIDTH 600 0
DWIDTH 15 0
BBX 13 19 1 0
BITMAP
0F00
0F80
1DC0
38C0
4020
0000
1FC0
7FE0
7FF0
70F0
00F0
0FF0
3FF0
7CF0
F0F0
F0F0
F9F0
7F78
3E78
ENDCHAR
STARTCHAR 00E3
ENCODING 227
SWIDTH 600 0
DWIDTH 15 0
BBX 13 19 1 0
BITMAP
1820
3E60
3FE0
63C0
0000
0000
1FC0
7FE0
7FF0
70F0
00F0
0FF0
3FF0
7CF0
F0F0
F0F0
F9F0
7F78
3E78
ENDCHAR
STARTCHAR 00E4
ENCODING 228
SWIDTH 600 0
DWIDTH 15 0
BBX 13 18 1 0
BITMAP
38E0
38E0
38E0
0000
0000
1FC0
7FE0
7FF0
70F0
00F0
0FF0
3FF0
7CF0
F0F0
F0F0
F9F0
7F78
3E78
ENDCHAR
STARTCHAR 00E5
ENCODING 229
SWIDTH 600 0
DWIDTH 15 0
BBX 13 20 1 0
BITMAP
0200
0F80
0980
0980
0F00
0000
0000
1FC0
7FE0
7FF0
70F0
00F0
0FF0
3FF0
7CF0
F0F0
F0F0
F9F0
7F78
3E78
ENDCHAR
STARTCHAR 00E6
ENCODING 230
SWIDTH 600 0
DWIDTH 15 0
BBX 15 13 0 0
BITMAP
3E78
7FFC
77DC
638E
038E
1FFE
7FFE
7380
E38E
E38E
F7DC
7FFC
7CF8
ENDCHAR
STARTCHAR 00E7
ENCODING 231
SWIDTH 600 0
DWIDTH 15 0
BBX 12 18 1 -5
BITMAP
0F80
3FE0
7DF0
7870
F070
F000
F000
F000
F070
7870
78F0
3FE0
1FC0
0000
0380
0180
0980
0F80
ENDCHAR
STARTCHAR 00E8
ENCODING 232
SWIDTH 600 0
DWIDTH 15 0
BBX 13 19 1 0
BITMAP
1E00
0E00
0700
0700
0080
0000
0FC0
3FE0
7FF0
7870
F078
FFF8
FFF8
F000
F078
F878
7CF0
3FF0
1FC0
ENDCHAR
STARTCHAR 00E9
ENCODING 233
SWIDTH 600 0
DWIDTH 15 0
BBX 13 19 1 0
BITMAP
01C0
0380
0380
0700
0000
0000
0FC0
3FE0
7FF0
7870
F078
FFF8
FFF8
F000
F078
F878
7CF0
3FF0
1FC0
ENDCHAR
STARTCHAR 00EA
ENCODING 234
SWIDTH 600 0
DWIDTH 15 0
BBX 13 19 1 0
BITMAP
0780
0F80
1DC0
18E0
2010
0000
0FC0
3FE0
7FF0
7870
F078
FFF8
FFF8
F000
F078
F878
7CF0
3FF0
1FC0
ENDCHAR
STARTCHAR 00EB
ENCODING 235
SWIDTH 600 0
DWIDTH 15 0
BBX 13 18 1 0
BITMAP
38E0
38E0
38E0
0000
0000
0FC0
3FE0
7FF0
7870
F078
FFF8
FFF8
F000
F078
F878
7CF0
3FF0
1FC0
ENDCHAR
STARTCHAR 00EC
ENCODING 236
SWIDTH 600 0
DWIDTH 15 0
BBX 12 19 2 0
BITMAP
3C00
1E00
0E00
0700
0000
0000
FF00
FF00
FF00
0F00
0F00
0F00
0F00
0F00
0F00
0F00
FFF0
FFF0
FFF0
ENDCHAR
STARTCHAR 00ED
ENCODING 237
SWIDTH 600 0
DWIDTH 15 0
BBX 12 19 2 0
BITMAP
03C0
0380
0700
0600
0800
0000
FF00
FF00
FF00
0F00
0F00
0F00
0F00
0F00
0F00
0F00
FFF0
FFF0
FFF0
ENDCHAR
STARTCHAR 00EE
ENCODING 238
SWIDTH 600 0
DWIDTH 15 0
BBX 12 19 2 0
BITMAP
0F00
1F80
1D80
39C0
4020
0000
FF00
FF00
FF00
0F00
0F00
0F00
0F00
0F00
0F00
0F00
FFF0
FFF0
FFF0
ENDCHAR
STARTCHAR 00EF
ENCODING 239
SWIDTH 600 0
DWIDTH 15 0
BBX 12 18 2 0
BITMAP
38E0
38E0
38E0
0000
0000
FF00
FF00
FF00
0F00
0F00
0F00
0F00
0F00
0F00
0F00
FFF0
FFF0
FFF0
ENDCHAR
STARTCHAR 00F0
ENCODING 240
SWIDTH 600 0
DWIDTH 15 0
BBX 13 18 1 0
BITMAP
3D80
1F00
1F00
37C0
03C0
1FE0
3FF0
7DF0
F8F8
F078
F078
F078
F078
F078
F078
7DF0
3FE0
1FC0
ENDCHAR
STARTCHAR 00F1
ENCODING 241
SWIDTH 600 0
DWIDTH 15 0
BBX 11 19 2 0
BITMAP
1060
7EC0
7FC0
6780
0000
0000
E780
FFE0
FFE0
F1E0
F1E0
F1E0
F1E0
F1E0
F1E0
F1E0
F1E0
F1E0
F1E0
ENDCHAR
STARTCHAR 00F2
ENCODING 242
SWIDTH 600 0
DWIDTH 15 0
BBX 13 19 1 0
BITMAP
1C00
0E00
0E00
0700
0000
0000
0F80
3FE0
7DF0
78F0
F078
F078
F078
F078
F078
F0F8
7DF0
3FE0
1FC0
ENDCHAR
STARTCHAR 00F3
ENCODING 243
SWIDTH 600 0
DWIDTH 15 0
BBX 13 19 1 0
BITMAP
03C0
0380
0700
0700
0000
0000
0F80
3FE0
7DF0
78F0
F078
F078
F078
F078
F078
F0F8
7DF0
3FE0
1FC0
ENDCHAR
STARTCHAR 00F4
ENCODING 244
SWIDTH 600 0
DWIDTH 15 0
BBX 13 19 1 0
BITMAP
0700
0F80
1DC0
38E0
0000
0000
0F80
3FE0
7DF0
78F0
F078
F078
F078
F078
F078
F0F8
7DF0
3FE0
1FC0
ENDCHAR
STARTCHAR 00F5
ENCODING 245
SWIDTH 600 0
DWIDTH 15 0
BBX 13 19 1 0
BITMAP
0C30
3F60
3FE0
63C0
0000
0000
0F80
3FE0
7DF0
78F0
F078
F078
F078
F078
F078
F0F8
7DF0
3FE0
1FC0
ENDCHAR
STARTCHAR 00F6
ENCODING 246
SWIDTH 600 0
DWIDTH 15 0
BBX 13 18 1 0
BITMAP
38E0
38E0
38E0
0000
0000
0F80
3FE0
7DF0
78F0
F078
F078
F078
F078
F078
F0F8
7DF0
3FE0
1FC0
ENDCHAR
STARTCHAR 00F7
ENCODING 247
SWIDTH 600 0
DWIDTH 15 0
BBX 13 11 1 1
BITMAP
0700
0700
0700
0000
FFF8
FFF8
FFF8
0000
0700
0700
0700
ENDCHAR
STARTCHAR 00F8
ENCODING 248
SWIDTH 600 0
DWIDTH 15 0
BBX 13 15 1 -1
BITMAP
0030
0FE0
3FE0
7DF0
79F0
F1F8
F378
F678
F678
FC78
FCF8
7DF0
3FE0
3FC0
6000
ENDCHAR
STARTCHAR 00F9
ENCODING 249
SWIDTH 600 0
DWIDTH 15 0
BBX 14 19 1 0
BITMAP
1C00
0E00
0E00
0700
0000
0000
F0F0
F0F0
F0F0
F0F0
F0F0
F0F0
F0F0
F0F0
F0F0
F8F0
7FF0
7FFC
3F7C
ENDCHAR
STARTCHAR 00FA
ENCODING 250
SWIDTH 600 0
DWIDTH 15 0
BBX 14 19 1 0
BITMAP
03C0
0380
0700
0700
0800
0000
F0F0
F0F0
F0F0
F0F0
F0F0
F0F0
F0F0
F0F0
F0F0
F8F0
7FF0
7FFC
3F7C
ENDCHAR
STARTCHAR 00FB
ENCODING 251
SWIDTH 600 0
DWIDTH 15 0
BBX 14 19 1 0
BITMAP
0F00
0F80
1DC0
38C0
4020
0000
F0F0
F0F0
F0F0
F0F0
F0F0
F0F0
F0F0
F0F0
F0F0
F8F0
7FF0
7FFC
3F7C
ENDCHAR
STARTCHAR 00FC
ENCODING 252
SWIDTH 600 0
DWIDTH 15 0
BBX 14 18 1 0
BITMAP
38E0
38E0
38E0
0000
0000
F0F0
F0F0
F0F0
F0F0
F0F0
F0F0
F0F0
F0F0
F0F0
F8F0
7FF0
7FFC
3F7C
ENDCHAR
STARTCHAR 00FD
ENCODING 253
SWIDTH 600 0
DWIDTH 15 0
BBX 13 24 1 -5
BITMAP
01C0
0380
0380
0700
0000
0000
F078
F078
7870
78F0
78F0
3CE0
3DE0
1FC0
1FC0
1FC0
0F80
0F80
0780
0F00
0F00
7E00
7C00
7000
ENDCHAR
STARTCHAR 00FE
ENCODING 254
SWIDTH 600 0
DWIDTH 15 0
BBX 12 23 2 -5
BITMAP
F000
F000
F000
F000
F000
F780
FFC0
FFE0
F0F0
F0F0
F0F0
F0F0
F0F0
F0F0
F0F0
F9E0
FFE0
F7C0
F000
F000
F000
F000
F000
ENDCHAR
STARTCHAR 00FF
ENCODING 255
SWIDTH 600 0
DWIDTH 15 0
BBX 13 23 1 -5
BITMAP
38E0
38E0
38E0
0000
0000
F078
F078
7870
78F0
78F0
3CE0
3DE0
1FC0
1FC0
1FC0
0F80
0F80
0780
0F00
0F00
7E00
7C00
7000
ENDCHAR
STARTCHAR 0152
ENCODING 140
SWIDTH 600 0
DWIDTH 15 0
BBX 15 17 0 0
BITMAP
1FFE
3FFC
7FFC
78E0
70E0
F0E0
F0E0
F0FC
F0FC
F0FC
F0E0
F0E0
70E0
78E0
7FFE
3FFE
0FFE
ENDCHAR
STARTCHAR 0153
ENCODING 156
SWIDTH 600 0
DWIDTH 15 0
BBX 15 13 0 0
BITMAP
3C78
7EFC
77DC
E38E
E38E
E3FE
E3FE
E380
E38E
E38E
77DC
7EFC
3EF8
ENDCHAR
STARTCHAR 0160
ENCODING 138
SWIDTH 600 0
DWIDTH 15 0
BBX 15 22 0 0
BITMAP
1C70
0EE0
07C0
0000
0000
1FF0
3FF8
7FFC
783C
783C
7C00
7F80
3FF0
1FF8
07FC
00FC
F03E
703C
783C
7FFC
3FF8
1FE0
ENDCHAR
STARTCHAR 0161
ENCODING 154
SWIDTH 600 0
DWIDTH 15 0
BBX 13 19 1 0
BITMAP
38E0
1DC0
1D80
0F80
0000
0000
1FC0
3FE0
7DF0
7070
7800
7FC0
3FF0
1FF0
00F8
F078
78F0
7FF0
3FC0
ENDCHAR
STARTCHAR 0178
ENCODING 159
SWIDTH 600 0
DWIDTH 15 0
BBX 15 22 0 0
BITMAP
1C70
1C70
1C70
0000
0000
F83E
783C
7C7C
3C78
3E78
1EF0
1FF0
0FE0
0FE0
07C0
07C0
07C0
07C0
07C0
07C0
07C0
07C0
ENDCHAR
STARTCHAR 017D
ENCODING 142
SWIDTH 600 0
DWIDTH 15 0
BBX 13 22 1 0
BITMAP
38E0
1DC0
0F80
0000
0000
FFF8
FFF8
FFF0
01F0
03E0
03E0
07C0
0780
0F80
1F00
1F00
3E00
3C00
7C00
FFF8
FFF8
FFF8
ENDCHAR
STARTCHAR 017E
ENCODING 158
SWIDTH 600 0
DWIDTH 15 0
BBX 11 19 2 0
BITMAP
71C0
3B80
3B00
1F00
0000
0000
FFE0
FFE0
FFC0
0780
0F80
0F00
1F00
1E00
3C00
7C00
7FE0
FFE0
FFE0
ENDCHAR
STARTCHAR 0192
ENCODING 131
SWIDTH 600 0
DWIDTH 15 0
BBX 13 23 1 -5
BITMAP
01F8
03F0
07C8
0780
0780
1FF0
1FF0
1FF0
0780
0F00
0F00
0F00
0F00
0F00
0F00
0F00
1E00
1E00
1E00
1E00
FE00
FC00
6000
ENDCHAR
STARTCHAR 02C6
ENCODING 136
SWIDTH 600 0
DWIDTH 15 0
BBX 9 4 3 15
BITMAP
1C00
3E00
7700
E380
ENDCHAR
STARTCHAR 02DC
ENCODING 152
SWIDTH 600 0
DWIDTH 15 0
BBX 11 4 2 15
BITMAP
1860
7EC0
7FC0
C780
ENDCHAR
STARTCHAR 2013
ENCODING 150
SWIDTH 600 0
DWIDTH 15 0
BBX 11 3 2 5
BITMAP
FFE0
FFE0
FFE0
ENDCHAR
STARTCHAR 2014
ENCODING 151
SWIDTH 600 0
DWIDTH 15 0
BBX 15 3 0 5
BITMAP
FFFE
FFFE
FFFE
ENDCHAR
STARTCHAR 2018
ENCODING 145
SWIDTH 600 0
DWIDTH 15 0
BBX 5 9 5 9
BITMAP
38
30
60
60
60
F8
F8
F8
F8
ENDCHAR
STARTCHAR 2019
ENCODING 146
SWIDTH 600 0
DWIDTH 15 0
BBX 5 9 5 8
BITMAP
F8
F8
F8
F8
30
30
30
60
E0
ENDCHAR
STARTCHAR 201A
ENCODING 130
SWIDTH 600 0
DWIDTH 15 0
BBX 5 9 5 -5
BITMAP
F8
F8
F8
F8
30
30
30
60
E0
ENDCHAR
STARTCHAR 201C
ENCODING 147
SWIDTH 600 0
DWIDTH 15 0
BBX 9 9 3 9
BITMAP
7180
6380
C300
C300
C700
F780
F780
F780
F780
ENDCHAR
STARTCHAR 201D
ENCODING 148
SWIDTH 600 0
DWIDTH 15 0
BBX 9 9 3 8
BITMAP
F780
F780
F780
F780
7180
6180
6180
E300
C700
ENDCHAR
STARTCHAR 201E
ENCODING 132
SWIDTH 600 0
DWIDTH 15 0
BBX 9 9 3 -5
BITMAP
F780
F780
F780
F780
7180
6180
6180
E300
C700
ENDCHAR
STARTCHAR 2020
ENCODING 134
SWIDTH 600 0
DWIDTH 15 0
BBX 13 21 1 -4
BITMAP
0700
0700
0700
0700
E738
FFF8
FFF8
0700
0700
0700
0700
0700
0700
0700
0700
0700
0700
0700
0700
0700
0700
ENDCHAR
STARTCHAR 2021
ENCODING 135
SWIDTH 600 0
DWIDTH 15 0
BBX 13 21 1 -4
BITMAP
0700
0700
0700
0700
E738
FFF8
FFF8
0700
0700
0700
0700
0700
0700
0700
FFF8
FFF8
FFF8
0700
0700
0700
0700
ENDCHAR
STARTCHAR 2022
ENCODING 149
SWIDTH 600 0
DWIDTH 15 0
BBX 9 9 3 4
BITMAP
1C00
3E00
7F00
FF00
FF80
7F00
7F00
3E00
0800
ENDCHAR
STARTCHAR 2026
ENCODING 133
SWIDTH 600 0
DWIDTH 15 0
BBX 13 4 1 0
BITMAP
E738
E738
E738
E738
ENDCHAR
STARTCHAR 2030
ENCODING 137
SWIDTH 600 0
DWIDTH 15 0
BBX 15 17 0 0
BITMAP
3C00
7E00
6600
6600
6600
7600
3C00
0000
FFFE
0000
3EF8
66CC
66CC
66CC
66CC
7EFC
3C78
ENDCHAR
STARTCHAR 2039
ENCODING 139
SWIDTH 600 0
DWIDTH 15 0
BBX 5 9 5 4
BITMAP
38
38
70
F0
E0
F0
70
38
38
ENDCHAR
STARTCHAR 203A
ENCODING 155
SWIDTH 600 0
DWIDTH 15 0
BBX 5 9 5 4
BITMAP
E0
E0
70
78
38
78
70
E0
E0
ENDCHAR
STARTCHAR 20AC
ENCODING 128
SWIDTH 600 0
DWIDTH 15 0
BBX 13 17 1 0
BITMAP
03F8
0FF8
0FF8
1F00
3E00
3C00
FFC0
FFC0
3C00
FFC0
FFC0
3C00
3E00
1F88
0FF8
07F8
03F8
ENDCHAR
STARTCHAR 2122
ENCODING 153
SWIDTH 600 0
DWIDTH 15 0
BBX 15 10 0 7
BITMAP
FF9E
FF9E
33DE
33DE
33D6
33D6
33D6
3376
3376
3376
ENDCHAR
ENDFONT
