STARTFONT 2.1
COMMENT
COMMENT Converted from OpenType font "ChivoMono-Bold.ttf" by "otf2bdf 3.0".
COMMENT
FONT -FreeType-chivo mono-Bold-R-Normal--28-200-100-100-P-135-Windows-cp1252
SIZE 20 100 100
FONTBOUNDINGBOX 17 32 0 -6
STARTPROPERTIES 19
FOUNDRY "FreeType"
FAMILY_NAME "chivo mono"
WEIGHT_NAME "Bold"
SLANT "R"
SETWIDTH_NAME "Normal"
ADD_STYLE_NAME ""
PIXEL_SIZE 28
POINT_SIZE 200
RESOLUTION_X 100
RESOLUTION_Y 100
SPACING "P"
AVERAGE_WIDTH 135
CHARSET_REGISTRY "Windows"
CHARSET_ENCODING "cp1252"
FONT_ASCENT 26
FONT_DESCENT 7
COPYRIGHT "Copyright 2018 The Chivo Project Authors (https://github.com/Omnibus-Type/Chivo)"
_OTF_FONTFILE "ChivoMono-Bold.ttf"
_OTF_PSNAME "ChivoMono-Bold"
ENDPROPERTIES
CHARS 219
STARTCHAR 000D
ENCODING 13
SWIDTH 612 0
DWIDTH 17 0
BBX 0 0 0 0
BITMAP
ENDCHAR
STARTCHAR 0020
ENCODING 32
SWIDTH 612 0
DWIDTH 17 0
BBX 0 0 0 0
BITMAP
ENDCHAR
STARTCHAR 0021
ENCODING 33
SWIDTH 612 0
DWIDTH 17 0
BBX 5 19 6 0
BITMAP
F8
F8
F8
F8
F8
F0
F0
F0
F0
70
70
70
70
00
00
F8
F8
F8
F8
ENDCHAR
STARTCHAR 0022
ENCODING 34
SWIDTH 612 0
DWIDTH 17 0
BBX 9 8 4 11
BITMAP
E780
E780
E780
E780
E780
E300
6300
6300
ENDCHAR
STARTCHAR 0023
ENCODING 35
SWIDTH 612 0
DWIDTH 17 0
BBX 17 19 0 0
BITMAP
038E00
038E00
070E00
070C00
071C00
7FFF80
7FFF80
7FFF80
0E1800
0E3800
0E3800
0C3800
FFFF00
FFFF00
1C7000
187000
387000
386000
38E000
ENDCHAR
STARTCHAR 0024
ENCODING 36
SWIDTH 612 0
DWIDTH 17 0
BBX 15 23 1 -2
BITMAP
0380
0300
07C0
1FF0
7FF8
7EFC
783C
F83C
FC00
7F80
7FF0
3FFC
07FC
00FE
F03E
F03E
F83C
7FFC
7FF8
1FF0
0300
0300
0380
ENDCHAR
STARTCHAR 0025
ENCODING 37
SWIDTH 612 0
DWIDTH 17 0
BBX 17 19 0 0
BITMAP
3C0380
7E0700
C60E00
C60C00
C61800
C63000
C67000
EE6000
7C0000
100C00
003F00
033300
067380
0E7380
1C7380
187380
303380
703F00
E01E00
ENDCHAR
STARTCHAR 0026
ENCODING 38
SWIDTH 612 0
DWIDTH 17 0
BBX 16 19 1 0
BITMAP
1F00
3F00
7F00
F800
F81C
F83C
F83C
7C3C
3FFF
3FFF
7FFF
F87C
F07C
F07C
F07C
F87C
FFFC
7FFC
1FFC
ENDCHAR
STARTCHAR 0027
ENCODING 39
SWIDTH 612 0
DWIDTH 17 0
BBX 3 8 7 11
BITMAP
E0
E0
E0
E0
E0
E0
C0
40
ENDCHAR
STARTCHAR 0028
ENCODING 40
SWIDTH 612 0
DWIDTH 17 0
BBX 7 23 5 -4
BITMAP
0E
0C
1C
3C
38
38
78
70
70
70
70
F0
70
70
70
70
78
78
38
3C
1C
1C
0E
ENDCHAR
STARTCHAR 0029
ENCODING 41
SWIDTH 612 0
DWIDTH 17 0
BBX 7 23 4 -4
BITMAP
E0
70
38
38
3C
1C
1C
1E
1E
1E
0E
0E
0E
0E
1E
1E
1C
1C
3C
38
38
70
E0
ENDCHAR
STARTCHAR 002A
ENCODING 42
SWIDTH 612 0
DWIDTH 17 0
BBX 12 11 2 8
BITMAP
0700
0700
0700
6670
FFF0
7FF0
0F00
1F80
1DC0
39E0
18C0
ENDCHAR
STARTCHAR 002B
ENCODING 43
SWIDTH 612 0
DWIDTH 17 0
BBX 14 14 1 0
BITMAP
0380
0380
0380
0380
0380
FFFC
FFFC
FFFC
0380
0380
0380
0380
0380
0380
ENDCHAR
STARTCHAR 002C
ENCODING 44
SWIDTH 612 0
DWIDTH 17 0
BBX 5 10 6 -5
BITMAP
F8
F8
F8
F8
F8
38
30
30
70
E0
ENDCHAR
STARTCHAR 002D
ENCODING 45
SWIDTH 612 0
DWIDTH 17 0
BBX 7 3 5 6
BITMAP
FE
FE
FE
ENDCHAR
STARTCHAR 002E
ENCODING 46
SWIDTH 612 0
DWIDTH 17 0
BBX 5 4 6 0
BITMAP
F8
F8
F8
F8
ENDCHAR
STARTCHAR 002F
ENCODING 47
SWIDTH 612 0
DWIDTH 17 0
BBX 16 24 0 -5
BITMAP
0007
0007
000E
001E
001C
0038
0038
0070
0070
00E0
00E0
01C0
03C0
0380
0700
0700
0E00
0E00
1C00
1C00
3800
7800
7000
E000
ENDCHAR
STARTCHAR 0030
ENCODING 48
SWIDTH 612 0
DWIDTH 17 0
BBX 15 19 1 0
BITMAP
0FE0
3FF8
7FF8
7C7C
F83C
F83C
F83E
F83E
F83E
F83E
F83E
F83E
F83E
F83C
F83C
7C7C
7FF8
3FF0
0FE0
ENDCHAR
STARTCHAR 0031
ENCODING 49
SWIDTH 612 0
DWIDTH 17 0
BBX 13 19 2 0
BITMAP
0380
1F80
FF80
FF80
FF80
0780
0780
0780
0780
0780
0780
0780
0780
0780
0780
0780
FFF8
FFF8
FFF8
ENDCHAR
STARTCHAR 0032
ENCODING 50
SWIDTH 612 0
DWIDTH 17 0
BBX 14 19 1 0
BITMAP
0FE0
3FF8
7FFC
7C7C
783C
F03C
F03C
007C
007C
00F8
03F0
07E0
1F80
3F00
7E00
7FFC
FFFC
FFFC
FFFC
ENDCHAR
STARTCHAR 0033
ENCODING 51
SWIDTH 612 0
DWIDTH 17 0
BBX 15 19 1 0
BITMAP
1FE0
3FF8
7FFC
787C
F03C
003C
007C
0078
07F0
07F0
07F8
003C
003C
F03E
F03E
F87C
7FFC
7FF8
1FE0
ENDCHAR
STARTCHAR 0034
ENCODING 52
SWIDTH 612 0
DWIDTH 17 0
BBX 15 19 1 0
BITMAP
0F80
0F00
0F30
1E30
1E70
1C70
3CF0
38F0
78F0
70F0
E0F0
FFFE
FFFE
FFFE
FFFE
00F0
00F0
00F0
00F0
ENDCHAR
STARTCHAR 0035
ENCODING 53
SWIDTH 612 0
DWIDTH 17 0
BBX 15 19 1 0
BITMAP
3FF8
3FF8
7FF8
7FF8
7800
7800
7880
7FF0
7FF8
7FFC
787C
003C
003E
F03E
F83C
7CFC
7FF8
3FF8
0FE0
ENDCHAR
STARTCHAR 0036
ENCODING 54
SWIDTH 612 0
DWIDTH 17 0
BBX 15 19 1 0
BITMAP
0FE0
3FF8
3FF8
7C7C
783C
F83C
F800
FBF0
FFF8
FFFC
FC3C
F83E
F81E
F83E
783E
7C7C
3FFC
1FF8
0FE0
ENDCHAR
STARTCHAR 0037
ENCODING 55
SWIDTH 612 0
DWIDTH 17 0
BBX 14 19 2 0
BITMAP
FFFC
FFFC
FFF8
FFF8
00F0
01E0
01E0
03C0
0780
0780
0F00
0F00
1F00
1F00
1E00
3E00
3E00
3E00
3E00
ENDCHAR
STARTCHAR 0038
ENCODING 56
SWIDTH 612 0
DWIDTH 17 0
BBX 15 19 1 0
BITMAP
0FE0
3FF0
7FF8
787C
783C
783C
783C
7C78
3FF0
1FF0
7FF8
783C
F83C
F83E
F83E
F87C
7FFC
3FF8
1FE0
ENDCHAR
STARTCHAR 0039
ENCODING 57
SWIDTH 612 0
DWIDTH 17 0
BBX 14 19 1 0
BITMAP
1FE0
3FF0
7FF8
F87C
F03C
F03C
F03C
F03C
F87C
7FFC
3FFC
1F3C
003C
F03C
F87C
7CFC
7FF8
3FF0
1FE0
ENDCHAR
STARTCHAR 003A
ENCODING 58
SWIDTH 612 0
DWIDTH 17 0
BBX 5 14 6 0
BITMAP
F8
F8
F8
F8
00
00
00
00
00
00
F8
F8
F8
F8
ENDCHAR
STARTCHAR 003B
ENCODING 59
SWIDTH 612 0
DWIDTH 17 0
BBX 5 19 6 -5
BITMAP
F8
F8
F8
F8
00
00
00
00
00
F8
F8
F8
F8
F8
38
30
30
70
E0
ENDCHAR
STARTCHAR 003C
ENCODING 60
SWIDTH 612 0
DWIDTH 17 0
BBX 14 14 1 0
BITMAP
000C
003C
01FC
0FF8
3FC0
FE00
F800
F800
FF00
3FE0
07F8
01FC
003C
000C
ENDCHAR
STARTCHAR 003D
ENCODING 61
SWIDTH 612 0
DWIDTH 17 0
BBX 14 9 1 3
BITMAP
FFFC
FFFC
FFFC
0000
0000
0000
FFFC
FFFC
FFFC
ENDCHAR
STARTCHAR 003E
ENCODING 62
SWIDTH 612 0
DWIDTH 17 0
BBX 14 14 2 0
BITMAP
C000
F000
FE00
7F80
0FF0
03FC
007C
007C
03FC
1FF0
FF80
FC00
F000
8000
ENDCHAR
STARTCHAR 003F
ENCODING 63
SWIDTH 612 0
DWIDTH 17 0
BBX 14 19 1 0
BITMAP
0FE0
3FF8
7FF8
787C
787C
F87C
007C
00FC
00F8
01F0
03C0
03C0
03C0
0000
0000
07C0
07C0
07C0
07C0
ENDCHAR
STARTCHAR 0040
ENCODING 64
SWIDTH 612 0
DWIDTH 17 0
BBX 17 24 0 -5
BITMAP
07F000
1E1C00
380E00
300600
600300
67F300
4FFB00
CF7900
CE3980
C03980
C07980
C7F980
CFF980
CE3980
DE3980
DE3900
DFFF00
4FDF00
679E00
600000
300000
180800
0FF800
01C000
ENDCHAR
STARTCHAR 0041
ENCODING 65
SWIDTH 612 0
DWIDTH 17 0
BBX 17 19 0 0
BITMAP
07E000
07F000
07F000
0FF000
0FF000
0F7800
0E7800
1E7800
1E7C00
1E3C00
1E3C00
3C3C00
3FFE00
3FFE00
7FFE00
781F00
781F00
780F00
F80F80
ENDCHAR
STARTCHAR 0042
ENCODING 66
SWIDTH 612 0
DWIDTH 17 0
BBX 15 19 1 0
BITMAP
FFF0
FFF8
FFFC
F87C
F83C
F83C
F83C
F8FC
FFF0
FFF0
FFFC
F83C
F83E
F83E
F83E
FFFE
FFFC
FFF8
FFF0
ENDCHAR
STARTCHAR 0043
ENCODING 67
SWIDTH 612 0
DWIDTH 17 0
BBX 16 19 0 0
BITMAP
0FF0
1FFC
3FFC
7E3E
7C1E
781F
781F
F81F
F800
F800
F800
F81F
781F
781F
7C1E
7E3E
3FFC
1FF8
0FF0
ENDCHAR
STARTCHAR 0044
ENCODING 68
SWIDTH 612 0
DWIDTH 17 0
BBX 15 19 1 0
BITMAP
FFE0
FFF8
FFFC
F8FE
F83E
F81E
F81E
F81E
F81E
F81E
F81E
F81E
F81E
F81E
F83E
FFFE
FFFC
FFF8
FFE0
ENDCHAR
STARTCHAR 0045
ENCODING 69
SWIDTH 612 0
DWIDTH 17 0
BBX 13 19 2 0
BITMAP
FFF8
FFF8
FFF8
F800
F800
F800
F800
F800
FFF0
FFF0
FFF0
F800
F800
F800
F800
FFF8
FFF8
FFF8
FFF8
ENDCHAR
STARTCHAR 0046
ENCODING 70
SWIDTH 612 0
DWIDTH 17 0
BBX 13 19 2 0
BITMAP
FFF8
FFF8
FFF8
FFF0
F800
F800
F800
F800
FFF0
FFF0
FFF0
F800
F800
F800
F800
F800
F800
F800
F800
ENDCHAR
STARTCHAR 0047
ENCODING 71
SWIDTH 612 0
DWIDTH 17 0
BBX 16 19 0 0
BITMAP
0FF0
1FFC
3FFE
7E3E
7C1E
781F
781F
F800
F800
F8FF
F8FF
F8FF
781F
781F
7C1F
7E3F
3FFF
1FF7
0FE7
ENDCHAR
STARTCHAR 0048
ENCODING 72
SWIDTH 612 0
DWIDTH 17 0
BBX 14 19 1 0
BITMAP
F83C
F83C
F83C
F83C
F83C
F83C
F83C
FFFC
FFFC
FFFC
FFFC
F83C
F83C
F83C
F83C
F83C
F83C
F83C
F83C
ENDCHAR
STARTCHAR 0049
ENCODING 73
SWIDTH 612 0
DWIDTH 17 0
BBX 13 19 2 0
BITMAP
FFF8
FFF8
FFF8
0F80
0F80
0F80
0F80
0F80
0F80
0F80
0F80
0F80
0F80
0F80
0F80
0F80
FFF8
FFF8
FFF8
ENDCHAR
STARTCHAR 004A
ENCODING 74
SWIDTH 612 0
DWIDTH 17 0
BBX 13 19 2 0
BITMAP
00F8
00F8
00F8
00F8
00F8
00F8
00F8
00F8
00F8
00F8
00F8
00F8
00F8
F0F8
F0F8
F9F0
7FF0
7FE0
1FC0
ENDCHAR
STARTCHAR 004B
ENCODING 75
SWIDTH 612 0
DWIDTH 17 0
BBX 16 19 1 0
BITMAP
F83E
F83C
F87C
F8F8
F8F8
F9F0
F9F0
FBE0
FFC0
FFC0
FFE0
FFE0
FDF0
F9F0
F8F8
F8FC
F87C
F83E
F83F
ENDCHAR
STARTCHAR 004C
ENCODING 76
SWIDTH 612 0
DWIDTH 17 0
BBX 13 19 2 0
BITMAP
F800
F800
F800
F800
F800
F800
F800
F800
F800
F800
F800
F800
F800
F800
F800
FFF8
FFF8
FFF8
FFF8
ENDCHAR
STARTCHAR 004D
ENCODING 77
SWIDTH 612 0
DWIDTH 17 0
BBX 15 19 1 0
BITMAP
FC7E
FC7E
FC7E
FC7E
FCFE
FCFE
FEDE
FEDE
FEDE
FEDE
FEDE
F7DE
F7DE
F79E
F79E
F79E
F79E
F79E
F79E
ENDCHAR
STARTCHAR 004E
ENCODING 78
SWIDTH 612 0
DWIDTH 17 0
BBX 14 19 1 0
BITMAP
F83C
FC3C
FC3C
FE3C
FE3C
FE3C
FF3C
FF3C
FFBC
FFBC
FBFC
FBFC
F9FC
F9FC
F8FC
F8FC
F87C
F87C
F83C
ENDCHAR
STARTCHAR 004F
ENCODING 79
SWIDTH 612 0
DWIDTH 17 0
BBX 16 19 0 0
BITMAP
0FF0
1FFC
3FFE
7E3E
7C1F
781F
781F
F81F
F81F
F81F
F81F
F81F
781F
781F
7C1F
7E3E
3FFE
1FFC
0FF0
ENDCHAR
STARTCHAR 0050
ENCODING 80
SWIDTH 612 0
DWIDTH 17 0
BBX 15 19 1 0
BITMAP
FFF0
FFFC
FFFC
F87E
F83E
F81E
F81E
F83E
FFFE
FFFC
FFF8
FFF0
F800
F800
F800
F800
F800
F800
F800
ENDCHAR
STARTCHAR 0051
ENCODING 81
SWIDTH 612 0
DWIDTH 17 0
BBX 17 23 0 -4
BITMAP
0FF000
1FFC00
3FFE00
7E3E00
7C1F00
781F00
781F00
F81F00
F81F00
F81F00
F81F00
F81F00
781F00
781F00
7C1F00
7E3E00
3FFE00
1FFC00
0FF000
01E000
01FB80
00FF80
007F00
ENDCHAR
STARTCHAR 0052
ENCODING 82
SWIDTH 612 0
DWIDTH 17 0
BBX 16 19 1 0
BITMAP
FFF0
FFFC
FFFE
F87E
F83E
F81E
F81E
F83E
FFFC
FFF0
FFF8
FFFC
F87C
F83E
F83E
F83E
F83E
F83F
F81F
ENDCHAR
STARTCHAR 0053
ENCODING 83
SWIDTH 612 0
DWIDTH 17 0
BBX 15 19 1 0
BITMAP
1FF0
3FF8
7FFC
F87C
F83E
F83E
FC00
FFC0
7FF0
3FFC
0FFE
01FE
003E
F03E
F03E
FC7E
FFFC
7FF8
1FF0
ENDCHAR
STARTCHAR 0054
ENCODING 84
SWIDTH 612 0
DWIDTH 17 0
BBX 15 19 1 0
BITMAP
FFFE
FFFE
FFFE
FFFE
07C0
07C0
07C0
07C0
07C0
07C0
07C0
07C0
07C0
07C0
07C0
07C0
07C0
07C0
07C0
ENDCHAR
STARTCHAR 0055
ENCODING 85
SWIDTH 612 0
DWIDTH 17 0
BBX 14 19 1 0
BITMAP
F83C
F83C
F83C
F83C
F83C
F83C
F83C
F83C
F83C
F83C
F83C
F83C
F83C
F83C
F83C
7C7C
7FFC
3FF8
1FF0
ENDCHAR
STARTCHAR 0056
ENCODING 86
SWIDTH 612 0
DWIDTH 17 0
BBX 17 19 0 0
BITMAP
F80F80
780F00
780F00
7C1F00
7C1E00
3C1E00
3C1E00
3E3C00
1E3C00
1E3C00
1E3C00
1F7800
0F7800
0F7800
0F7800
0FF000
07F000
07F000
07E000
ENDCHAR
STARTCHAR 0057
ENCODING 87
SWIDTH 612 0
DWIDTH 17 0
BBX 17 19 0 0
BITMAP
F1C780
F1C780
F1C700
F1E700
73E700
7BE700
7BEF00
7BEF00
7BEF00
7B6F00
7B6E00
7B7E00
7F7E00
3F7E00
3E7E00
3E7E00
3E3E00
3E3E00
3E3E00
ENDCHAR
STARTCHAR 0058
ENCODING 88
SWIDTH 612 0
DWIDTH 17 0
BBX 17 19 0 0
BITMAP
7C1F00
3E1E00
3E3E00
1F3C00
1F7C00
0FF800
0FF800
07F000
07F000
07F000
07F000
0FF800
1FF800
1E7C00
3E7C00
3C3E00
7C3E00
7C1F00
F81F80
ENDCHAR
STARTCHAR 0059
ENCODING 89
SWIDTH 612 0
DWIDTH 17 0
BBX 16 19 0 0
BITMAP
F80F
7C1F
7C1E
3E3E
3E3C
1F7C
1F78
0FF8
0FF0
07F0
07F0
03E0
03E0
03E0
03E0
03E0
03E0
03E0
03E0
ENDCHAR
STARTCHAR 005A
ENCODING 90
SWIDTH 612 0
DWIDTH 17 0
BBX 15 19 1 0
BITMAP
FFFE
FFFE
FFFC
FFF8
00F8
01F0
03F0
03E0
07C0
07C0
0F80
1F80
1F00
3E00
3E00
7FFE
FFFE
FFFE
FFFE
ENDCHAR
STARTCHAR 005B
ENCODING 91
SWIDTH 612 0
DWIDTH 17 0
BBX 7 23 6 -4
BITMAP
FE
FE
F0
F0
F0
F0
F0
F0
F0
F0
F0
F0
F0
F0
F0
F0
F0
F0
F0
F0
F0
FE
FE
ENDCHAR
STARTCHAR 005C
ENCODING 92
SWIDTH 612 0
DWIDTH 17 0
BBX 16 24 0 -5
BITMAP
F000
7000
3800
3800
1C00
1C00
0E00
0E00
0700
0780
0380
01C0
01C0
00E0
00E0
0070
0070
0038
003C
001C
000E
000E
0007
0007
ENDCHAR
STARTCHAR 005D
ENCODING 93
SWIDTH 612 0
DWIDTH 17 0
BBX 6 23 4 -4
BITMAP
FC
FC
1C
1C
1C
1C
1C
1C
1C
1C
1C
1C
1C
1C
1C
1C
1C
1C
1C
1C
1C
FC
FC
ENDCHAR
STARTCHAR 005E
ENCODING 94
SWIDTH 612 0
DWIDTH 17 0
BBX 15 14 1 0
BITMAP
0780
07C0
07C0
0FE0
0EE0
1EE0
1C70
1C70
3870
3838
7838
703C
701C
F01E
ENDCHAR
STARTCHAR 005F
ENCODING 95
SWIDTH 612 0
DWIDTH 17 0
BBX 14 3 1 -4
BITMAP
FFFC
FFFC
FFFC
ENDCHAR
STARTCHAR 0060
ENCODING 96
SWIDTH 612 0
DWIDTH 17 0
BBX 6 5 5 16
BITMAP
F0
78
38
1C
1C
ENDCHAR
STARTCHAR 0061
ENCODING 97
SWIDTH 612 0
DWIDTH 17 0
BBX 15 14 1 0
BITMAP
1FF0
3FF8
7CF8
7878
0078
03F8
3FF8
7FF8
7878
F878
F878
7FFE
7FBE
3F3E
ENDCHAR
STARTCHAR 0062
ENCODING 98
SWIDTH 612 0
DWIDTH 17 0
BBX 14 20 2 0
BITMAP
F000
F000
F000
F000
F000
F000
F7E0
FFF0
FCF8
F878
F078
F07C
F07C
F07C
F07C
F078
F878
FFF8
FFF0
F7E0
ENDCHAR
STARTCHAR 0063
ENCODING 99
SWIDTH 612 0
DWIDTH 17 0
BBX 14 14 1 0
BITMAP
1FE0
3FF0
7CF8
7838
F83C
F800
F800
F800
F83C
F83C
7838
7FF8
3FF0
0FE0
ENDCHAR
STARTCHAR 0064
ENCODING 100
SWIDTH 612 0
DWIDTH 17 0
BBX 14 20 1 0
BITMAP
007C
007C
007C
007C
007C
007C
1FFC
3FFC
7CFC
787C
F87C
F07C
F07C
F07C
F07C
F87C
F87C
7FFC
3FFC
1FBC
ENDCHAR
STARTCHAR 0065
ENCODING 101
SWIDTH 612 0
DWIDTH 17 0
BBX 14 14 1 0
BITMAP
1FF0
3FF8
7EFC
783C
F83C
FFFC
FFFC
FFFC
F800
F83C
783C
7FFC
3FF8
1FE0
ENDCHAR
STARTCHAR 0066
ENCODING 102
SWIDTH 612 0
DWIDTH 17 0
BBX 13 20 2 0
BITMAP
03F8
07F8
0FF8
0F80
0F00
0F00
FFF8
FFF8
FFF8
0F00
0F00
0F00
0F00
0F00
0F00
0F00
0F00
FFF8
FFF8
FFF8
ENDCHAR
STARTCHAR 0067
ENCODING 103
SWIDTH 612 0
DWIDTH 17 0
BBX 15 22 1 -5
BITMAP
000E
000E
001E
1FF8
3FF8
7C7C
783C
783C
7C7C
3FF8
1FF0
7FC0
7800
7C00
7FFC
3FFE
7FFE
F01E
F01E
F03E
FFFE
7FF8
ENDCHAR
STARTCHAR 0068
ENCODING 104
SWIDTH 612 0
DWIDTH 17 0
BBX 13 20 2 0
BITMAP
F000
F000
F000
F000
F000
F000
F7E0
FFF0
FFF8
F8F8
F0F8
F078
F078
F078
F078
F078
F078
F078
F078
F078
ENDCHAR
STARTCHAR 0069
ENCODING 105
SWIDTH 612 0
DWIDTH 17 0
BBX 14 20 2 0
BITMAP
0780
0780
0780
0000
0000
0000
FF80
FF80
FF80
0780
0780
0780
0780
0780
0780
0780
0780
FFFC
FFFC
FFFC
ENDCHAR
STARTCHAR 006A
ENCODING 106
SWIDTH 612 0
DWIDTH 17 0
BBX 9 25 2 -5
BITMAP
0780
0780
0780
0000
0000
0000
FF80
FF80
FF80
0780
0780
0780
0780
0780
0780
0780
0780
0780
0780
0780
0780
0780
FF80
FF00
7E00
ENDCHAR
STARTCHAR 006B
ENCODING 107
SWIDTH 612 0
DWIDTH 17 0
BBX 14 20 2 0
BITMAP
F000
F000
F000
F000
F000
F000
F0FC
F0F8
F1F0
F3E0
F7C0
F780
FF80
FFC0
FFC0
FBE0
F3F0
F1F0
F0F8
F07C
ENDCHAR
STARTCHAR 006C
ENCODING 108
SWIDTH 612 0
DWIDTH 17 0
BBX 13 20 2 0
BITMAP
FF80
FF80
FF80
0F80
0F80
0F80
0F80
0F80
0F80
0F80
0F80
0F80
0F80
0F80
0F80
0F80
0F80
FFF8
FFF8
FFF8
ENDCHAR
STARTCHAR 006D
ENCODING 109
SWIDTH 612 0
DWIDTH 17 0
BBX 15 14 1 0
BITMAP
FF7C
FFFC
FFFE
F39E
F39E
F39E
F39E
F39E
F39E
F39E
F39E
F39E
F39E
F39E
ENDCHAR
STARTCHAR 006E
ENCODING 110
SWIDTH 612 0
DWIDTH 17 0
BBX 13 14 2 0
BITMAP
F7E0
FFF0
FFF8
F8F8
F0F8
F078
F078
F078
F078
F078
F078
F078
F078
F078
ENDCHAR
STARTCHAR 006F
ENCODING 111
SWIDTH 612 0
DWIDTH 17 0
BBX 15 14 1 0
BITMAP
1FE0
3FF8
7CF8
787C
F83C
F83C
F83E
F83E
F83C
F83C
787C
7FF8
3FF0
0FE0
ENDCHAR
STARTCHAR 0070
ENCODING 112
SWIDTH 612 0
DWIDTH 17 0
BBX 14 19 2 -5
BITMAP
F7E0
FFF0
FDF8
F878
F078
F07C
F07C
F07C
F07C
F078
F878
FFF8
FFF0
F7E0
F000
F000
F000
F000
F000
ENDCHAR
STARTCHAR 0071
ENCODING 113
SWIDTH 612 0
DWIDTH 17 0
BBX 14 19 1 -5
BITMAP
1FBC
3FFC
7CFC
F87C
F87C
F07C
F07C
F07C
F07C
F87C
F87C
7FFC
3FFC
1FFC
007C
007C
007C
007C
007C
ENDCHAR
STARTCHAR 0072
ENCODING 114
SWIDTH 612 0
DWIDTH 17 0
BBX 15 14 1 0
BITMAP
FEFC
FFFC
FFFE
1F1E
1F1E
1F00
1F00
1F00
1F00
1F00
1F00
FFF8
FFF8
FFF8
ENDCHAR
STARTCHAR 0073
ENCODING 115
SWIDTH 612 0
DWIDTH 17 0
BBX 13 14 2 0
BITMAP
3FE0
7FF0
F8F0
F078
F800
FFC0
7FF0
3FF8
03F8
E078
F078
FFF8
7FF0
3FE0
ENDCHAR
STARTCHAR 0074
ENCODING 116
SWIDTH 612 0
DWIDTH 17 0
BBX 14 19 1 0
BITMAP
0700
0700
0700
0F00
0F00
FFFC
FFFC
FFFC
0F00
0F00
0F00
0F00
0F00
0F00
0F00
0F84
0FFC
07FC
03FC
ENDCHAR
STARTCHAR 0075
ENCODING 117
SWIDTH 612 0
DWIDTH 17 0
BBX 14 14 2 0
BITMAP
F0F8
F0F8
F0F8
F0F8
F0F8
F0F8
F0F8
F0F8
F0F8
F0F8
F8F8
FFFC
FFFC
7F7C
ENDCHAR
STARTCHAR 0076
ENCODING 118
SWIDTH 612 0
DWIDTH 17 0
BBX 15 14 1 0
BITMAP
F83E
F83C
783C
7C7C
7C78
3C78
3EF0
1EF0
1EF0
1FE0
0FE0
0FE0
0FC0
07C0
ENDCHAR
STARTCHAR 0077
ENCODING 119
SWIDTH 612 0
DWIDTH 17 0
BBX 17 14 0 0
BITMAP
F3C780
F3C700
F3E700
73E700
73EF00
73EF00
7F6F00
7F6E00
3F7E00
3F7E00
3E7E00
3E7E00
3E3C00
3E3C00
ENDCHAR
STARTCHAR 0078
ENCODING 120
SWIDTH 612 0
DWIDTH 17 0
BBX 15 14 1 0
BITMAP
FC3E
7C7C
3EF8
1EF0
1FF0
0FE0
07C0
0FE0
1FE0
1FF0
3EF8
7C78
787C
F83E
ENDCHAR
STARTCHAR 0079
ENCODING 121
SWIDTH 612 0
DWIDTH 17 0
BBX 15 19 1 -5
BITMAP
F83E
783C
7C3C
7C78
3C78
3E78
1EF0
1EF0
1FE0
0FE0
0FE0
0FC0
07C0
07C0
0780
0F80
7F00
7E00
7C00
ENDCHAR
STARTCHAR 007A
ENCODING 122
SWIDTH 612 0
DWIDTH 17 0
BBX 12 14 2 0
BITMAP
7FF0
7FF0
7FE0
03E0
07C0
0780
0F80
1F00
1F00
3E00
3E00
7FF0
FFF0
FFF0
ENDCHAR
STARTCHAR 007B
ENCODING 123
SWIDTH 612 0
DWIDTH 17 0
BBX 7 24 5 -5
BITMAP
1E
3E
38
38
38
38
38
38
38
38
F0
C0
F0
78
38
38
38
38
38
38
38
3C
1E
04
ENDCHAR
STARTCHAR 007C
ENCODING 124
SWIDTH 612 0
DWIDTH 17 0
BBX 3 26 7 -6
BITMAP
E0
E0
E0
E0
E0
E0
E0
E0
E0
E0
E0
E0
E0
E0
E0
E0
E0
E0
E0
E0
E0
E0
E0
E0
E0
E0
ENDCHAR
STARTCHAR 007D
ENCODING 125
SWIDTH 612 0
DWIDTH 17 0
BBX 8 24 4 -5
BITMAP
F8
FC
1C
1C
1C
1C
1C
1C
1C
1C
1F
07
0F
1C
1C
1C
1C
1C
1C
1C
1C
3C
F8
40
ENDCHAR
STARTCHAR 007E
ENCODING 126
SWIDTH 612 0
DWIDTH 17 0
BBX 16 5 0 6
BITMAP
0C01
3F83
FFFF
F3FF
C07C
ENDCHAR
STARTCHAR 00A0
ENCODING 160
SWIDTH 612 0
DWIDTH 17 0
BBX 0 0 0 0
BITMAP
ENDCHAR
STARTCHAR 00A1
ENCODING 161
SWIDTH 612 0
DWIDTH 17 0
BBX 5 19 6 -5
BITMAP
F8
F8
F8
F8
00
00
70
70
70
70
F0
F0
F0
F8
F8
F8
F8
F8
F8
ENDCHAR
STARTCHAR 00A2
ENCODING 162
SWIDTH 612 0
DWIDTH 17 0
BBX 13 19 2 0
BITMAP
0700
0700
0F80
3FE0
7FF0
F8F8
F078
F078
F000
F000
F000
F038
F078
F878
7FF0
3FE0
0F80
0700
0700
ENDCHAR
STARTCHAR 00A3
ENCODING 163
SWIDTH 612 0
DWIDTH 17 0
BBX 16 19 0 0
BITMAP
03F8
0FFE
0FFE
1F1F
1E0F
1E0F
1E00
1E00
FFE0
FFE0
FFE0
1E00
1E00
1E00
1E00
1E00
7FFE
7FFE
7FFE
ENDCHAR
STARTCHAR 00A4
ENCODING 164
SWIDTH 612 0
DWIDTH 17 0
BBX 15 15 1 2
BITMAP
4008
6FEC
FFFE
3C78
703C
701C
E01C
E01C
E01C
701C
703C
3C78
7FFC
EFEC
4108
ENDCHAR
STARTCHAR 00A5
ENCODING 165
SWIDTH 612 0
DWIDTH 17 0
BBX 16 19 0 0
BITMAP
F80F
7C1F
7C1E
3E3E
3E3C
1F7C
7F7F
7FFF
7FFF
07F0
7FFF
7FFF
7FFF
03E0
03E0
03E0
03E0
03E0
03E0
ENDCHAR
STARTCHAR 00A6
ENCODING 166
SWIDTH 612 0
DWIDTH 17 0
BBX 3 26 7 -6
BITMAP
E0
E0
E0
E0
E0
E0
E0
E0
E0
E0
00
00
00
00
00
00
E0
E0
E0
E0
E0
E0
E0
E0
E0
E0
ENDCHAR
STARTCHAR 00A7
ENCODING 167
SWIDTH 612 0
DWIDTH 17 0
BBX 13 24 2 -5
BITMAP
3FC0
7FF0
F9F0
F070
F000
F800
7E00
3F80
7FE0
F7F0
E1F8
E078
F038
F838
7F70
3FE0
0FE0
03F0
00F0
0078
F078
7FF0
7FE0
1FC0
ENDCHAR
STARTCHAR 00A8
ENCODING 168
SWIDTH 612 0
DWIDTH 17 0
BBX 10 3 3 17
BITMAP
F1C0
F1C0
F1C0
ENDCHAR
STARTCHAR 00A9
ENCODING 169
SWIDTH 612 0
DWIDTH 17 0
BBX 17 19 0 0
BITMAP
07F000
1C3C00
300C00
700600
67E300
4FF300
CE3B00
CE3900
CE0100
CE0180
CE0100
CE3900
CE3B00
4FF300
67E300
300600
300C00
1C3C00
07F000
ENDCHAR
STARTCHAR 00AA
ENCODING 170
SWIDTH 612 0
DWIDTH 17 0
BBX 9 9 4 10
BITMAP
7E00
F700
E700
3F00
FF00
E700
E700
FB80
3100
ENDCHAR
STARTCHAR 00AB
ENCODING 171
SWIDTH 612 0
DWIDTH 17 0
BBX 12 9 2 5
BITMAP
1C70
38F0
78E0
71E0
F3C0
F1C0
79E0
38E0
1C70
ENDCHAR
STARTCHAR 00AC
ENCODING 172
SWIDTH 612 0
DWIDTH 17 0
BBX 14 8 1 5
BITMAP
FFFC
FFFC
FFFC
001C
001C
001C
001C
001C
ENDCHAR
STARTCHAR 00AD
ENCODING 173
SWIDTH 612 0
DWIDTH 17 0
BBX 7 3 5 6
BITMAP
FE
FE
FE
ENDCHAR
STARTCHAR 00AE
ENCODING 174
SWIDTH 612 0
DWIDTH 17 0
BBX 17 19 0 0
BITMAP
07F000
1C3C00
300C00
700600
6FF300
4FFB00
CE3B00
CE3900
CE7900
CFE180
CFF100
CE3900
CE3B00
4E3B00
6E3F00
300600
300C00
1C3C00
07F000
ENDCHAR
STARTCHAR 00AF
ENCODING 175
SWIDTH 612 0
DWIDTH 17 0
BBX 9 2 4 17
BITMAP
FF80
FF80
ENDCHAR
STARTCHAR 00B0
ENCODING 176
SWIDTH 612 0
DWIDTH 17 0
BBX 9 8 4 11
BITMAP
3E00
7F00
E300
C380
C380
E300
7F00
3E00
ENDCHAR
STARTCHAR 00B1
ENCODING 177
SWIDTH 612 0
DWIDTH 17 0
BBX 14 14 1 0
BITMAP
0380
0380
0380
FFFC
FFFC
FFFC
0380
0380
0380
0380
0000
FFFC
FFFC
FFFC
ENDCHAR
STARTCHAR 00B2
ENCODING 178
SWIDTH 612 0
DWIDTH 17 0
BBX 8 10 4 12
BITMAP
3E
7F
63
83
07
0E
3C
70
7F
FF
ENDCHAR
STARTCHAR 00B3
ENCODING 179
SWIDTH 612 0
DWIDTH 17 0
BBX 8 11 4 11
BITMAP
3E
7F
63
03
1E
1F
03
E3
F7
7E
18
ENDCHAR
STARTCHAR 00B4
ENCODING 180
SWIDTH 612 0
DWIDTH 17 0
BBX 6 5 5 16
BITMAP
3C
38
78
70
E0
ENDCHAR
STARTCHAR 00B5
ENCODING 181
SWIDTH 612 0
DWIDTH 17 0
BBX 14 18 2 -4
BITMAP
F0F8
F0F8
F0F8
F0F8
F0F8
F0F8
F0F8
F0F8
F0F8
F0F8
F8F8
FFFC
FFFC
FF7C
F000
F000
F000
F000
ENDCHAR
STARTCHAR 00B6
ENCODING 182
SWIDTH 612 0
DWIDTH 17 0
BBX 14 24 1 -5
BITMAP
1FFC
3FFC
7F30
FF30
FF30
FF30
FF30
FF30
7F30
7F30
3F30
0F30
0330
0330
0330
0330
0330
0330
0330
0330
0330
0330
0330
0330
ENDCHAR
STARTCHAR 00B7
ENCODING 183
SWIDTH 612 0
DWIDTH 17 0
BBX 5 5 6 8
BITMAP
F8
F8
F8
F8
F8
ENDCHAR
STARTCHAR 00B8
ENCODING 184
SWIDTH 612 0
DWIDTH 17 0
BBX 7 5 5 -6
BITMAP
1C
0C
0E
FC
78
ENDCHAR
STARTCHAR 00B9
ENCODING 185
SWIDTH 612 0
DWIDTH 17 0
BBX 7 10 5 12
BITMAP
30
F0
F0
30
30
30
30
30
FE
FE
ENDCHAR
STARTCHAR 00BA
ENCODING 186
SWIDTH 612 0
DWIDTH 17 0
BBX 9 9 4 10
BITMAP
7E00
7700
E380
E380
E380
E380
F700
7E00
0800
ENDCHAR
STARTCHAR 00BB
ENCODING 187
SWIDTH 612 0
DWIDTH 17 0
BBX 13 9 2 5
BITMAP
F3C0
71E0
38E0
3CF0
1E78
3CF0
38F0
79E0
F3C0
ENDCHAR
STARTCHAR 00BC
ENCODING 188
SWIDTH 612 0
DWIDTH 17 0
BBX 17 19 0 0
BITMAP
180380
F80700
F80E00
380C00
381800
383000
387000
386000
FE0000
FE1800
001A00
033200
063600
0E6600
1C6600
187F80
307F80
700600
E00600
ENDCHAR
STARTCHAR 00BD
ENCODING 189
SWIDTH 612 0
DWIDTH 17 0
BBX 17 19 0 0
BITMAP
180380
F80600
F80E00
380C00
381800
383000
387000
386000
FE0000
FE3F00
007F00
036380
060380
0C0300
1C0F00
181C00
303800
707F80
E07F80
ENDCHAR
STARTCHAR 00BE
ENCODING 190
SWIDTH 612 0
DWIDTH 17 0
BBX 17 19 0 0
BITMAP
7E0380
7F0700
E70E00
070C00
1E1800
1E3000
077000
C36000
EF0000
7E1800
081A00
033200
063600
0E6600
1C6600
187F80
307F80
700600
E00600
ENDCHAR
STARTCHAR 00BF
ENCODING 191
SWIDTH 612 0
DWIDTH 17 0
BBX 14 19 1 -5
BITMAP
0780
0780
0780
0780
0000
0000
0780
0780
0F80
1F00
3E00
7C00
783C
F83C
783C
7C7C
7FF8
3FF0
0FC0
ENDCHAR
STARTCHAR 00C0
ENCODING 192
SWIDTH 612 0
DWIDTH 17 0
BBX 17 25 0 0
BITMAP
0F0000
070000
038000
03C000
000000
000000
07E000
07F000
07F000
0FF000
0FF000
0F7800
0E7800
1E7800
1E7C00
1E3C00
1E3C00
3C3C00
3FFE00
3FFE00
7FFE00
781F00
781F00
780F00
F80F80
ENDCHAR
STARTCHAR 00C1
ENCODING 193
SWIDTH 612 0
DWIDTH 17 0
BBX 17 25 0 0
BITMAP
007800
00F000
00E000
01C000
000000
000000
07E000
07F000
07F000
0FF000
0FF000
0F7800
0E7800
1E7800
1E7C00
1E3C00
1E3C00
3C3C00
3FFE00
3FFE00
7FFE00
781F00
781F00
780F00
F80F80
ENDCHAR
STARTCHAR 00C2
ENCODING 194
SWIDTH 612 0
DWIDTH 17 0
BBX 17 25 0 0
BITMAP
03C000
07E000
0F7000
1E3800
000400
000000
07E000
07F000
07F000
0FF000
0FF000
0F7800
0E7800
1E7800
1E7C00
1E3C00
1E3C00
3C3C00
3FFE00
3FFE00
7FFE00
781F00
781F00
780F00
F80F80
ENDCHAR
STARTCHAR 00C3
ENCODING 195
SWIDTH 612 0
DWIDTH 17 0
BBX 17 25 0 0
BITMAP
060C00
0FFC00
1FF800
18F000
000000
000000
07E000
07F000
07F000
0FF000
0FF000
0F7800
0E7800
1E7800
1E7C00
1E3C00
1E3C00
3C3C00
3FFE00
3FFE00
7FFE00
781F00
781F00
780F00
F80F80
ENDCHAR
STARTCHAR 00C4
ENCODING 196
SWIDTH 612 0
DWIDTH 17 0
BBX 17 24 0 0
BITMAP
1E3800
1E3800
1E3800
000000
000000
07E000
07F000
07F000
0FF000
0FF000
0F7800
0E7800
1E7800
1E7C00
1E3C00
1E3C00
3C3C00
3FFE00
3FFE00
7FFE00
781F00
781F00
780F00
F80F80
ENDCHAR
STARTCHAR 00C5
ENCODING 197
SWIDTH 612 0
DWIDTH 17 0
BBX 17 26 0 0
BITMAP
03E000
076000
062000
076000
03E000
000000
000000
07E000
07F000
07F000
0FF000
0FF000
0F7800
0E7800
1E7800
1E7C00
1E3C00
1E3C00
3C3C00
3FFE00
3FFE00
7FFE00
781F00
781F00
780F00
F80F80
ENDCHAR
STARTCHAR 00C6
ENCODING 198
SWIDTH 612 0
DWIDTH 17 0
BBX 17 19 0 0
BITMAP
0FFF00
0FFF00
0FFF00
0FF000
0EF000
1EF000
1EF000
1EF000
1EFE00
3CFE00
3CFE00
3CF000
3FF000
7FF000
7FF000
78FF00
78FF00
F8FF00
F8FF80
ENDCHAR
STARTCHAR 00C7
ENCODING 199
SWIDTH 612 0
DWIDTH 17 0
BBX 16 25 0 -6
BITMAP
0FF0
1FFC
3FFC
7E3E
7C1E
781F
781F
F81F
F800
F800
F800
F81F
781F
781F
7C1E
7E3E
3FFC
1FF8
0FF0
0000
00E0
0060
0070
07E0
03C0
ENDCHAR
STARTCHAR 00C8
ENCODING 200
SWIDTH 612 0
DWIDTH 17 0
BBX 13 25 2 0
BITMAP
3C00
1E00
0E00
0700
0000
0000
FFF8
FFF8
FFF8
F800
F800
F800
F800
F800
FFF0
FFF0
FFF0
F800
F800
F800
F800
FFF8
FFF8
FFF8
FFF8
ENDCHAR
STARTCHAR 00C9
ENCODING 201
SWIDTH 612 0
DWIDTH 17 0
BBX 13 25 2 0
BITMAP
01E0
01C0
03C0
0780
0000
0000
FFF8
FFF8
FFF8
F800
F800
F800
F800
F800
FFF0
FFF0
FFF0
F800
F800
F800
F800
FFF8
FFF8
FFF8
FFF8
ENDCHAR
STARTCHAR 00CA
ENCODING 202
SWIDTH 612 0
DWIDTH 17 0
BBX 13 25 2 0
BITMAP
0F80
0FC0
1DC0
78F0
0000
0000
FFF8
FFF8
FFF8
F800
F800
F800
F800
F800
FFF0
FFF0
FFF0
F800
F800
F800
F800
FFF8
FFF8
FFF8
FFF8
ENDCHAR
STARTCHAR 00CB
ENCODING 203
SWIDTH 612 0
DWIDTH 17 0
BBX 13 24 2 0
BITMAP
78F0
78F0
78F0
0000
0000
FFF8
FFF8
FFF8
F800
F800
F800
F800
F800
FFF0
FFF0
FFF0
F800
F800
F800
F800
FFF8
FFF8
FFF8
FFF8
ENDCHAR
STARTCHAR 00CC
ENCODING 204
SWIDTH 612 0
DWIDTH 17 0
BBX 13 25 2 0
BITMAP
3C00
1C00
0E00
0F00
0000
0000
FFF8
FFF8
FFF8
0F80
0F80
0F80
0F80
0F80
0F80
0F80
0F80
0F80
0F80
0F80
0F80
0F80
FFF8
FFF8
FFF8
ENDCHAR
STARTCHAR 00CD
ENCODING 205
SWIDTH 612 0
DWIDTH 17 0
BBX 13 25 2 0
BITMAP
01E0
03C0
0380
0700
0000
0000
FFF8
FFF8
FFF8
0F80
0F80
0F80
0F80
0F80
0F80
0F80
0F80
0F80
0F80
0F80
0F80
0F80
FFF8
FFF8
FFF8
ENDCHAR
STARTCHAR 00CE
ENCODING 206
SWIDTH 612 0
DWIDTH 17 0
BBX 13 25 2 0
BITMAP
0F00
1F80
3DC0
78E0
0010
0000
FFF8
FFF8
FFF8
0F80
0F80
0F80
0F80
0F80
0F80
0F80
0F80
0F80
0F80
0F80
0F80
0F80
FFF8
FFF8
FFF8
ENDCHAR
STARTCHAR 00CF
ENCODING 207
SWIDTH 612 0
DWIDTH 17 0
BBX 13 24 2 0
BITMAP
78E0
78E0
78E0
0000
0000
FFF8
FFF8
FFF8
0F80
0F80
0F80
0F80
0F80
0F80
0F80
0F80
0F80
0F80
0F80
0F80
0F80
FFF8
FFF8
FFF8
ENDCHAR
STARTCHAR 00D0
ENCODING 208
SWIDTH 612 0
DWIDTH 17 0
BBX 16 19 0 0
BITMAP
7FF0
7FFC
7FFE
7C7F
7C1F
7C0F
7C0F
7C0F
FFCF
FFCF
FFCF
7C0F
7C0F
7C0F
7C1F
7FFF
7FFE
7FFC
7FF0
ENDCHAR
STARTCHAR 00D1
ENCODING 209
SWIDTH 612 0
DWIDTH 17 0
BBX 14 25 1 0
BITMAP
0C18
1FF8
3FF0
31E0
0000
0000
F83C
FC3C
FC3C
FE3C
FE3C
FE3C
FF3C
FF3C
FFBC
FFBC
FBFC
FBFC
F9FC
F9FC
F8FC
F8FC
F87C
F87C
F83C
ENDCHAR
STARTCHAR 00D2
ENCODING 210
SWIDTH 612 0
DWIDTH 17 0
BBX 16 25 0 0
BITMAP
0F00
0700
0380
03C0
0000
0000
0FF0
1FFC
3FFE
7E3E
7C1F
781F
781F
F81F
F81F
F81F
F81F
F81F
781F
781F
7C1F
7E3E
3FFE
1FFC
0FF0
ENDCHAR
STARTCHAR 00D3
ENCODING 211
SWIDTH 612 0
DWIDTH 17 0
BBX 16 25 0 0
BITMAP
0078
00F0
00E0
01C0
0000
0000
0FF0
1FFC
3FFE
7E3E
7C1F
781F
781F
F81F
F81F
F81F
F81F
F81F
781F
781F
7C1F
7E3E
3FFE
1FFC
0FF0
ENDCHAR
STARTCHAR 00D4
ENCODING 212
SWIDTH 612 0
DWIDTH 17 0
BBX 16 25 0 0
BITMAP
03C0
07E0
0F70
1E38
0004
0000
0FF0
1FFC
3FFE
7E3E
7C1F
781F
781F
F81F
F81F
F81F
F81F
F81F
781F
781F
7C1F
7E3E
3FFE
1FFC
0FF0
ENDCHAR
STARTCHAR 00D5
ENCODING 213
SWIDTH 612 0
DWIDTH 17 0
BBX 16 25 0 0
BITMAP
060C
0FFC
1FF8
18F0
0000
0000
0FF0
1FFC
3FFE
7E3E
7C1F
781F
781F
F81F
F81F
F81F
F81F
F81F
781F
781F
7C1F
7E3E
3FFE
1FFC
0FF0
ENDCHAR
STARTCHAR 00D6
ENCODING 214
SWIDTH 612 0
DWIDTH 17 0
BBX 16 24 0 0
BITMAP
1E38
1E38
1E38
0000
0000
0FF0
1FFC
3FFE
7E3E
7C1F
781F
781F
F81F
F81F
F81F
F81F
F81F
781F
781F
7C1F
7E3E
3FFE
1FFC
0FF0
ENDCHAR
STARTCHAR 00D7
ENCODING 215
SWIDTH 612 0
DWIDTH 17 0
BBX 12 12 2 1
BITMAP
2020
F070
78F0
3DE0
1FC0
0F80
0F80
1FC0
3DE0
F8F0
7070
2020
ENDCHAR
STARTCHAR 00D8
ENCODING 216
SWIDTH 612 0
DWIDTH 17 0
BBX 16 23 0 -2
BITMAP
0003
0007
0FFE
1FFC
3FFE
7E3E
7C3F
787F
787F
F8FF
F8DF
F9DF
FB9F
FB1F
7F1F
7E1F
7E1F
7E3E
3FFE
3FFC
3FF0
7000
E000
ENDCHAR
STARTCHAR 00D9
ENCODING 217
SWIDTH 612 0
DWIDTH 17 0
BBX 14 25 1 0
BITMAP
1E00
0E00
0700
0780
0000
0000
F83C
F83C
F83C
F83C
F83C
F83C
F83C
F83C
F83C
F83C
F83C
F83C
F83C
F83C
F83C
7C7C
7FFC
3FF8
1FF0
ENDCHAR
STARTCHAR 00DA
ENCODING 218
SWIDTH 612 0
DWIDTH 17 0
BBX 14 25 1 0
BITMAP
00F0
01E0
01C0
0380
0000
0000
F83C
F83C
F83C
F83C
F83C
F83C
F83C
F83C
F83C
F83C
F83C
F83C
F83C
F83C
F83C
7C7C
7FFC
3FF8
1FF0
ENDCHAR
STARTCHAR 00DB
ENCODING 219
SWIDTH 612 0
DWIDTH 17 0
BBX 14 25 1 0
BITMAP
0780
0FC0
1EE0
3C70
0008
0000
F83C
F83C
F83C
F83C
F83C
F83C
F83C
F83C
F83C
F83C
F83C
F83C
F83C
F83C
F83C
7C7C
7FFC
3FF8
1FF0
ENDCHAR
STARTCHAR 00DC
ENCODING 220
SWIDTH 612 0
DWIDTH 17 0
BBX 14 24 1 0
BITMAP
3C70
3C70
3C70
0000
0000
F83C
F83C
F83C
F83C
F83C
F83C
F83C
F83C
F83C
F83C
F83C
F83C
F83C
F83C
F83C
7C7C
7FFC
3FF8
1FF0
ENDCHAR
STARTCHAR 00DD
ENCODING 221
SWIDTH 612 0
DWIDTH 17 0
BBX 16 25 0 0
BITMAP
0078
00F0
00E0
01C0
0000
0000
F80F
7C1F
7C1E
3E3E
3E3C
1F7C
1F78
0FF8
0FF0
07F0
07F0
03E0
03E0
03E0
03E0
03E0
03E0
03E0
03E0
ENDCHAR
STARTCHAR 00DE
ENCODING 222
SWIDTH 612 0
DWIDTH 17 0
BBX 14 19 2 0
BITMAP
F000
F000
F000
FFE0
FFF0
FFF8
FFFC
F07C
F03C
F03C
F07C
FFFC
FFF8
FFF0
FFC0
F000
F000
F000
F000
ENDCHAR
STARTCHAR 00DF
ENCODING 223
SWIDTH 612 0
DWIDTH 17 0
BBX 16 22 0 -2
BITMAP
07F0
0FFC
1FFE
3E3E
3E1E
3C1E
FC1E
FC3E
FCFC
3CF8
3CFE
3C1E
3C0F
3C0F
3C0F
3C1F
3C3F
3CFE
3CFC
3CF8
3C00
3C00
ENDCHAR
STARTCHAR 00E0
ENCODING 224
SWIDTH 612 0
DWIDTH 17 0
BBX 15 21 1 0
BITMAP
1E00
0F00
0700
0780
0380
0000
0000
1FF0
3FF8
7CF8
7878
0078
03F8
3FF8
7FF8
7878
F878
F878
7FFE
7FBE
3F3E
ENDCHAR
STARTCHAR 00E1
ENCODING 225
SWIDTH 612 0
DWIDTH 17 0
BBX 15 21 1 0
BITMAP
01E0
03C0
0380
0380
0700
0000
0000
1FF0
3FF8
7CF8
7878
0078
03F8
3FF8
7FF8
7878
F878
F878
7FFE
7FBE
3F3E
ENDCHAR
STARTCHAR 00E2
ENCODING 226
SWIDTH 612 0
DWIDTH 17 0
BBX 15 21 1 0
BITMAP
0780
0FC0
1FE0
1CE0
3870
0000
0000
1FF0
3FF8
7CF8
7878
0078
03F8
3FF8
7FF8
7878
F878
F878
7FFE
7FBE
3F3E
ENDCHAR
STARTCHAR 00E3
ENCODING 227
SWIDTH 612 0
DWIDTH 17 0
BBX 15 21 1 0
BITMAP
0C18
3F38
3FF0
33F0
6040
0000
0000
1FF0
3FF8
7CF8
7878
0078
03F8
3FF8
7FF8
7878
F878
F878
7FFE
7FBE
3F3E
ENDCHAR
STARTCHAR 00E4
ENCODING 228
SWIDTH 612 0
DWIDTH 17 0
BBX 15 20 1 0
BITMAP
3870
3870
3870
0000
0000
0000
1FF0
3FF8
7CF8
7878
0078
03F8
3FF8
7FF8
7878
F878
F878
7FFE
7FBE
3F3E
ENDCHAR
STARTCHAR 00E5
ENCODING 229
SWIDTH 612 0
DWIDTH 17 0
BBX 15 22 1 0
BITMAP
0380
0FC0
0CC0
0CC0
07C0
0380
0000
0000
1FF0
3FF8
7CF8
7878
0078
03F8
3FF8
7FF8
7878
F878
F878
7FFE
7FBE
3F3E
ENDCHAR
STARTCHAR 00E6
ENCODING 230
SWIDTH 612 0
DWIDTH 17 0
BBX 16 14 0 0
BITMAP
3F7E
7FFE
73E7
73C7
01C7
07FF
3FFF
7FC0
F1C0
E3C7
E3E7
FFFF
7FFE
3E7C
ENDCHAR
STARTCHAR 00E7
ENCODING 231
SWIDTH 612 0
DWIDTH 17 0
BBX 14 20 1 -6
BITMAP
1FE0
3FF0
7CF8
7838
F83C
F800
F800
F800
F83C
F83C
7838
7FF8
3FF0
0FE0
0000
01C0
00C0
00E0
0FC0
0780
ENDCHAR
STARTCHAR 00E8
ENCODING 232
SWIDTH 612 0
DWIDTH 17 0
BBX 14 21 1 0
BITMAP
1F00
0700
0780
0380
01C0
0000
0000
1FF0
3FF8
7EFC
783C
F83C
FFFC
FFFC
FFFC
F800
F83C
783C
7FFC
3FF8
1FE0
ENDCHAR
STARTCHAR 00E9
ENCODING 233
SWIDTH 612 0
DWIDTH 17 0
BBX 14 21 1 0
BITMAP
01F0
01E0
03C0
0380
0780
0000
0000
1FF0
3FF8
7EFC
783C
F83C
FFFC
FFFC
FFFC
F800
F83C
783C
7FFC
3FF8
1FE0
ENDCHAR
STARTCHAR 00EA
ENCODING 234
SWIDTH 612 0
DWIDTH 17 0
BBX 14 21 1 0
BITMAP
07C0
07C0
0EE0
1C70
3C78
0000
0000
1FF0
3FF8
7EFC
783C
F83C
FFFC
FFFC
FFFC
F800
F83C
783C
7FFC
3FF8
1FE0
ENDCHAR
STARTCHAR 00EB
ENCODING 235
SWIDTH 612 0
DWIDTH 17 0
BBX 14 20 1 0
BITMAP
3C78
3C78
3C78
0000
0000
0000
1FF0
3FF8
7EFC
783C
F83C
FFFC
FFFC
FFFC
F800
F83C
783C
7FFC
3FF8
1FE0
ENDCHAR
STARTCHAR 00EC
ENCODING 236
SWIDTH 612 0
DWIDTH 17 0
BBX 14 21 2 0
BITMAP
1E00
0E00
0700
0700
0380
0000
0000
FF80
FF80
FF80
0780
0780
0780
0780
0780
0780
0780
0780
FFFC
FFFC
FFFC
ENDCHAR
STARTCHAR 00ED
ENCODING 237
SWIDTH 612 0
DWIDTH 17 0
BBX 14 21 2 0
BITMAP
01E0
03C0
0380
0780
0700
0000
0000
FF80
FF80
FF80
0780
0780
0780
0780
0780
0780
0780
0780
FFFC
FFFC
FFFC
ENDCHAR
STARTCHAR 00EE
ENCODING 238
SWIDTH 612 0
DWIDTH 17 0
BBX 14 21 2 0
BITMAP
0780
0FC0
1FE0
1CE0
3870
0000
0000
FF80
FF80
FF80
0780
0780
0780
0780
0780
0780
0780
0780
FFFC
FFFC
FFFC
ENDCHAR
STARTCHAR 00EF
ENCODING 239
SWIDTH 612 0
DWIDTH 17 0
BBX 14 20 2 0
BITMAP
3870
3870
3870
0000
0000
0000
FF80
FF80
FF80
0780
0780
0780
0780
0780
0780
0780
0780
FFFC
FFFC
FFFC
ENDCHAR
STARTCHAR 00F0
ENCODING 240
SWIDTH 612 0
DWIDTH 17 0
BBX 15 20 1 0
BITMAP
3CC0
1FE0
0F80
3FC0
11E0
01F0
1FF8
3FF8
7EFC
783C
F83C
F83E
F83E
F83E
F83E
F83C
787C
7FF8
3FF8
0FE0
ENDCHAR
STARTCHAR 00F1
ENCODING 241
SWIDTH 612 0
DWIDTH 17 0
BBX 13 21 2 0
BITMAP
1C30
3E30
7FF0
63E0
6080
0000
0000
F7E0
FFF0
FFF8
F8F8
F0F8
F078
F078
F078
F078
F078
F078
F078
F078
F078
ENDCHAR
STARTCHAR 00F2
ENCODING 242
SWIDTH 612 0
DWIDTH 17 0
BBX 15 21 1 0
BITMAP
1E00
0F00
0700
0380
0380
0000
0000
1FE0
3FF8
7CF8
787C
F83C
F83C
F83E
F83E
F83C
F83C
787C
7FF8
3FF0
0FE0
ENDCHAR
STARTCHAR 00F3
ENCODING 243
SWIDTH 612 0
DWIDTH 17 0
BBX 15 21 1 0
BITMAP
01E0
01C0
03C0
0380
0700
0000
0000
1FE0
3FF8
7CF8
787C
F83C
F83C
F83E
F83E
F83C
F83C
787C
7FF8
3FF0
0FE0
ENDCHAR
STARTCHAR 00F4
ENCODING 244
SWIDTH 612 0
DWIDTH 17 0
BBX 15 21 1 0
BITMAP
07C0
0FC0
0EE0
1CF0
3878
0000
0000
1FE0
3FF8
7CF8
787C
F83C
F83C
F83E
F83E
F83C
F83C
787C
7FF8
3FF0
0FE0
ENDCHAR
STARTCHAR 00F5
ENCODING 245
SWIDTH 612 0
DWIDTH 17 0
BBX 15 21 1 0
BITMAP
0C18
1F38
3FF0
31F0
3040
0000
0000
1FE0
3FF8
7CF8
787C
F83C
F83C
F83E
F83E
F83C
F83C
787C
7FF8
3FF0
0FE0
ENDCHAR
STARTCHAR 00F6
ENCODING 246
SWIDTH 612 0
DWIDTH 17 0
BBX 15 20 1 0
BITMAP
3C70
3C70
3C70
0000
0000
0000
1FE0
3FF8
7CF8
787C
F83C
F83C
F83E
F83E
F83C
F83C
787C
7FF8
3FF0
0FE0
ENDCHAR
STARTCHAR 00F7
ENCODING 247
SWIDTH 612 0
DWIDTH 17 0
BBX 14 12 1 1
BITMAP
0380
0380
0380
0000
FFFC
FFFC
FFFC
0000
0000
0380
0380
0380
ENDCHAR
STARTCHAR 00F8
ENCODING 248
SWIDTH 612 0
DWIDTH 17 0
BBX 15 17 1 -1
BITMAP
001C
0018
1FF0
3FF8
7CF8
78FC
F8FC
F9BC
FBBE
FB3E
FE3C
FE3C
7C7C
7FF8
3FF0
3FE0
7000
ENDCHAR
STARTCHAR 00F9
ENCODING 249
SWIDTH 612 0
DWIDTH 17 0
BBX 14 21 2 0
BITMAP
3C00
1E00
0E00
0F00
0700
0000
0000
F0F8
F0F8
F0F8
F0F8
F0F8
F0F8
F0F8
F0F8
F0F8
F0F8
F8F8
FFFC
FFFC
7F7C
ENDCHAR
STARTCHAR 00FA
ENCODING 250
SWIDTH 612 0
DWIDTH 17 0
BBX 14 21 2 0
BITMAP
03C0
0380
0700
0700
0E00
0000
0000
F0F8
F0F8
F0F8
F0F8
F0F8
F0F8
F0F8
F0F8
F0F8
F0F8
F8F8
FFFC
FFFC
7F7C
ENDCHAR
STARTCHAR 00FB
ENCODING 251
SWIDTH 612 0
DWIDTH 17 0
BBX 14 21 2 0
BITMAP
0F00
1F80
3DC0
39E0
70F0
0000
0000
F0F8
F0F8
F0F8
F0F8
F0F8
F0F8
F0F8
F0F8
F0F8
F0F8
F8F8
FFFC
FFFC
7F7C
ENDCHAR
STARTCHAR 00FC
ENCODING 252
SWIDTH 612 0
DWIDTH 17 0
BBX 14 20 2 0
BITMAP
78E0
78E0
78E0
0000
0000
0000
F0F8
F0F8
F0F8
F0F8
F0F8
F0F8
F0F8
F0F8
F0F8
F0F8
F8F8
FFFC
FFFC
7F7C
ENDCHAR
STARTCHAR 00FD
ENCODING 253
SWIDTH 612 0
DWIDTH 17 0
BBX 15 26 1 -5
BITMAP
00F0
01E0
01C0
0380
0780
0000
0000
F83E
783C
7C3C
7C78
3C78
3E78
1EF0
1EF0
1FE0
0FE0
0FE0
0FC0
07C0
07C0
0780
0F80
7F00
7E00
7C00
ENDCHAR
STARTCHAR 00FE
ENCODING 254
SWIDTH 612 0
DWIDTH 17 0
BBX 14 25 2 -5
BITMAP
F000
F000
F000
F000
F000
F000
F7E0
FFF0
FDF8
F878
F078
F07C
F07C
F07C
F07C
F078
F878
FFF8
FFF0
F7E0
F000
F000
F000
F000
F000
ENDCHAR
STARTCHAR 00FF
ENCODING 255
SWIDTH 612 0
DWIDTH 17 0
BBX 15 25 1 -5
BITMAP
1C78
1C78
1C78
0000
0000
0000
F83E
783C
7C3C
7C78
3C78
3E78
1EF0
1EF0
1FE0
0FE0
0FE0
0FC0
07C0
07C0
0780
0F80
7F00
7E00
7C00
ENDCHAR
STARTCHAR 0152
ENCODING 140
SWIDTH 612 0
DWIDTH 17 0
BBX 17 19 0 0
BITMAP
0FFF00
1FFF00
3FFF00
7EF000
78F000
78F000
F0F000
F0F000
F0FE00
F0FE00
F0FE00
F0F000
F0F000
78F000
78F000
7FFF00
3FFF00
1FFF00
0FFF80
ENDCHAR
STARTCHAR 0153
ENCODING 156
SWIDTH 612 0
DWIDTH 17 0
BBX 16 14 0 0
BITMAP
3F7E
7FFE
73E7
F3C7
E1C7
E1FF
E1FF
E1C0
E1C0
E3C7
F3E7
7FFF
7FFF
3E7E
ENDCHAR
STARTCHAR 0160
ENCODING 138
SWIDTH 612 0
DWIDTH 17 0
BBX 15 25 1 0
BITMAP
3878
1CF0
0EE0
07C0
0000
0000
1FF0
3FF8
7FFC
F87C
F83E
F83E
FC00
FFC0
7FF0
3FFC
0FFE
01FE
003E
F03E
F03E
FC7E
FFFC
7FF8
1FF0
ENDCHAR
STARTCHAR 0161
ENCODING 154
SWIDTH 612 0
DWIDTH 17 0
BBX 13 21 2 0
BITMAP
78F0
39C0
1DC0
0F80
0F00
0000
0000
3FE0
7FF0
F8F0
F078
F800
FFC0
7FF0
3FF8
03F8
E078
F078
FFF8
7FF0
3FE0
ENDCHAR
STARTCHAR 0178
ENCODING 159
SWIDTH 612 0
DWIDTH 17 0
BBX 16 24 0 0
BITMAP
1E38
1E38
1E38
0000
0000
F80F
7C1F
7C1E
3E3E
3E3C
1F7C
1F78
0FF8
0FF0
07F0
07F0
03E0
03E0
03E0
03E0
03E0
03E0
03E0
03E0
ENDCHAR
STARTCHAR 017D
ENCODING 142
SWIDTH 612 0
DWIDTH 17 0
BBX 15 25 1 0
BITMAP
3878
1CF0
0EE0
07C0
0000
0000
FFFE
FFFE
FFFC
FFF8
00F8
01F0
03F0
03E0
07C0
07C0
0F80
1F80
1F00
3E00
3E00
7FFE
FFFE
FFFE
FFFE
ENDCHAR
STARTCHAR 017E
ENCODING 158
SWIDTH 612 0
DWIDTH 17 0
BBX 12 21 2 0
BITMAP
78F0
39C0
1DC0
0F80
0F00
0000
0000
7FF0
7FF0
7FE0
03E0
07C0
0780
0F80
1F00
1F00
3E00
3E00
7FF0
FFF0
FFF0
ENDCHAR
STARTCHAR 0192
ENCODING 131
SWIDTH 612 0
DWIDTH 17 0
BBX 14 25 1 -5
BITMAP
00FC
01FC
03FC
03E0
03C0
03C0
0FF8
0FF8
0FF8
07C0
0780
0780
0780
0780
0F80
0F80
0F80
0F00
0F00
0F00
0F00
1F00
FF00
FE00
FC00
ENDCHAR
STARTCHAR 02C6
ENCODING 136
SWIDTH 612 0
DWIDTH 17 0
BBX 11 5 3 16
BITMAP
1F00
3F00
3B80
73C0
E1E0
ENDCHAR
STARTCHAR 02DC
ENCODING 152
SWIDTH 612 0
DWIDTH 17 0
BBX 11 5 3 16
BITMAP
3060
7CE0
FFC0
C7C0
C100
ENDCHAR
STARTCHAR 2013
ENCODING 150
SWIDTH 612 0
DWIDTH 17 0
BBX 11 3 3 6
BITMAP
FFE0
FFE0
FFE0
ENDCHAR
STARTCHAR 2014
ENCODING 151
SWIDTH 612 0
DWIDTH 17 0
BBX 17 3 0 6
BITMAP
FFFF80
FFFF80
FFFF80
ENDCHAR
STARTCHAR 2018
ENCODING 145
SWIDTH 612 0
DWIDTH 17 0
BBX 5 10 6 10
BITMAP
38
70
60
E0
E0
E0
F8
F8
F8
F8
ENDCHAR
STARTCHAR 2019
ENCODING 146
SWIDTH 612 0
DWIDTH 17 0
BBX 5 10 6 10
BITMAP
F8
F8
F8
F8
F8
38
30
30
70
E0
ENDCHAR
STARTCHAR 201A
ENCODING 130
SWIDTH 612 0
DWIDTH 17 0
BBX 5 10 6 -5
BITMAP
F8
F8
F8
F8
F8
38
30
30
70
E0
ENDCHAR
STARTCHAR 201C
ENCODING 147
SWIDTH 612 0
DWIDTH 17 0
BBX 11 10 3 10
BITMAP
30E0
70C0
61C0
E180
C380
C380
F3E0
F3E0
F3E0
F3E0
ENDCHAR
STARTCHAR 201D
ENCODING 148
SWIDTH 612 0
DWIDTH 17 0
BBX 11 10 3 10
BITMAP
F3E0
F3E0
F3E0
F3E0
F3E0
30E0
30E0
70C0
61C0
E380
ENDCHAR
STARTCHAR 201E
ENCODING 132
SWIDTH 612 0
DWIDTH 17 0
BBX 11 10 3 -5
BITMAP
F3E0
F3E0
F3E0
F3E0
F3E0
30E0
30E0
70C0
61C0
E380
ENDCHAR
STARTCHAR 2020
ENCODING 134
SWIDTH 612 0
DWIDTH 17 0
BBX 14 24 1 -5
BITMAP
0380
0380
0380
0380
0380
FFFC
FFFC
FFFC
0380
0380
0380
0380
0380
0380
0380
0380
0380
0380
0380
0380
0380
0380
0380
0380
ENDCHAR
STARTCHAR 2021
ENCODING 135
SWIDTH 612 0
DWIDTH 17 0
BBX 14 24 1 -5
BITMAP
0380
0380
0380
0380
0380
FFFC
FFFC
FFFC
0380
0380
0380
0380
0380
0380
0380
0380
FFFC
FFFC
FBFC
0380
0380
0380
0380
0380
ENDCHAR
STARTCHAR 2022
ENCODING 149
SWIDTH 612 0
DWIDTH 17 0
BBX 9 9 4 5
BITMAP
3E00
7F00
FF00
FF80
FF80
FF80
FF00
7F00
3C00
ENDCHAR
STARTCHAR 2026
ENCODING 133
SWIDTH 612 0
DWIDTH 17 0
BBX 15 4 1 0
BITMAP
F39E
F39E
F39E
F39E
ENDCHAR
STARTCHAR 2030
ENCODING 137
SWIDTH 612 0
DWIDTH 17 0
BBX 15 19 1 0
BITMAP
7C00
FE00
C600
C600
C600
C600
FE00
7C00
0000
FFFE
0000
7C7C
EEFC
C6CE
C6CE
C6CE
C6CE
FEFC
7C78
ENDCHAR
STARTCHAR 2039
ENCODING 139
SWIDTH 612 0
DWIDTH 17 0
BBX 6 9 5 5
BITMAP
1C
3C
38
78
F0
70
78
38
1C
ENDCHAR
STARTCHAR 203A
ENCODING 155
SWIDTH 612 0
DWIDTH 17 0
BBX 7 9 5 5
BITMAP
F0
70
38
3C
1E
3C
38
78
F0
ENDCHAR
STARTCHAR 20AC
ENCODING 128
SWIDTH 612 0
DWIDTH 17 0
BBX 14 19 1 0
BITMAP
01FC
07FC
0FFC
0FE4
1F00
1E00
FFE0
FFE0
FFE0
3C00
FFE0
FFE0
FFE0
1F00
1F80
0FEC
0FFC
07FC
01FC
ENDCHAR
STARTCHAR 2122
ENCODING 153
SWIDTH 612 0
DWIDTH 17 0
BBX 17 11 0 8
BITMAP
FDC780
FDC780
31EF80
31EF80
31EF80
31EF80
31EF80
31EB80
31AB80
31BB80
31BB80
ENDCHAR
ENDFONT
