STARTFONT 2.1
COMMENT
COMMENT Converted from OpenType font "ChivoMono-Bold.ttf" by "otf2bdf 3.0".
COMMENT
FONT -FreeType-chivo mono-Bold-R-Normal--10-70-100-100-P-50-Windows-cp1252
SIZE 7 100 100
FONTBOUNDINGBOX 6 11 0 -2
STARTPROPERTIES 19
FOUNDRY "FreeType"
FAMILY_NAME "chivo mono"
WEIGHT_NAME "Bold"
SLANT "R"
SETWIDTH_NAME "Normal"
ADD_STYLE_NAME ""
PIXEL_SIZE 10
POINT_SIZE 70
RESOLUTION_X 100
RESOLUTION_Y 100
SPACING "P"
AVERAGE_WIDTH 50
CHARSET_REGISTRY "Windows"
CHARSET_ENCODING "cp1252"
FONT_ASCENT 9
FONT_DESCENT 2
COPYRIGHT "Copyright 2018 The Chivo Project Authors (https://github.com/Omnibus-Type/Chivo)"
_OTF_FONTFILE "ChivoMono-Bold.ttf"
_OTF_PSNAME "ChivoMono-Bold"
ENDPROPERTIES
CHARS 219
STARTCHAR 000D
ENCODING 13
SWIDTH 617 0
DWIDTH 6 0
BBX 0 0 0 0
BITMAP
ENDCHAR
STARTCHAR 0020
ENCODING 32
SWIDTH 617 0
DWIDTH 6 0
BBX 0 0 0 0
BITMAP
ENDCHAR
STARTCHAR 0021
ENCODING 33
SWIDTH 617 0
DWIDTH 6 0
BBX 2 7 2 0
BITMAP
C0
C0
C0
C0
80
C0
C0
ENDCHAR
STARTCHAR 0022
ENCODING 34
SWIDTH 617 0
DWIDTH 6 0
BBX 3 3 1 4
BITMAP
E0
E0
A0
ENDCHAR
STARTCHAR 0023
ENCODING 35
SWIDTH 617 0
DWIDTH 6 0
BBX 6 7 0 0
BITMAP
28
28
FC
48
F8
50
50
ENDCHAR
STARTCHAR 0024
ENCODING 36
SWIDTH 617 0
DWIDTH 6 0
BBX 5 8 0 -1
BITMAP
30
78
C0
78
08
C8
70
20
ENDCHAR
STARTCHAR 0025
ENCODING 37
SWIDTH 617 0
DWIDTH 6 0
BBX 6 7 0 0
BITMAP
44
A8
B0
C8
34
54
8C
ENDCHAR
STARTCHAR 0026
ENCODING 38
SWIDTH 617 0
DWIDTH 6 0
BBX 6 7 0 0
BITMAP
60
40
C8
7C
C8
C8
78
ENDCHAR
STARTCHAR 0027
ENCODING 39
SWIDTH 617 0
DWIDTH 6 0
BBX 2 3 2 4
BITMAP
C0
C0
80
ENDCHAR
STARTCHAR 0028
ENCODING 40
SWIDTH 617 0
DWIDTH 6 0
BBX 2 9 2 -2
BITMAP
40
40
80
80
80
80
80
40
40
ENDCHAR
STARTCHAR 0029
ENCODING 41
SWIDTH 617 0
DWIDTH 6 0
BBX 2 9 2 -2
BITMAP
80
80
C0
40
40
40
C0
80
80
ENDCHAR
STARTCHAR 002A
ENCODING 42
SWIDTH 617 0
DWIDTH 6 0
BBX 4 4 1 3
BITMAP
40
D0
60
F0
ENDCHAR
STARTCHAR 002B
ENCODING 43
SWIDTH 617 0
DWIDTH 6 0
BBX 5 5 0 0
BITMAP
20
20
F8
20
20
ENDCHAR
STARTCHAR 002C
ENCODING 44
SWIDTH 617 0
DWIDTH 6 0
BBX 2 4 2 -2
BITMAP
C0
C0
40
80
ENDCHAR
STARTCHAR 002D
ENCODING 45
SWIDTH 617 0
DWIDTH 6 0
BBX 2 1 2 2
BITMAP
C0
ENDCHAR
STARTCHAR 002E
ENCODING 46
SWIDTH 617 0
DWIDTH 6 0
BBX 2 2 2 0
BITMAP
C0
C0
ENDCHAR
STARTCHAR 002F
ENCODING 47
SWIDTH 617 0
DWIDTH 6 0
BBX 6 9 0 -2
BITMAP
04
08
18
10
20
20
40
40
80
ENDCHAR
STARTCHAR 0030
ENCODING 48
SWIDTH 617 0
DWIDTH 6 0
BBX 5 7 0 0
BITMAP
30
58
C8
C8
C8
48
78
ENDCHAR
STARTCHAR 0031
ENCODING 49
SWIDTH 617 0
DWIDTH 6 0
BBX 4 7 1 0
BITMAP
20
E0
60
60
60
60
F0
ENDCHAR
STARTCHAR 0032
ENCODING 50
SWIDTH 617 0
DWIDTH 6 0
BBX 5 7 0 0
BITMAP
30
78
C8
18
30
60
F8
ENDCHAR
STARTCHAR 0033
ENCODING 51
SWIDTH 617 0
DWIDTH 6 0
BBX 5 7 0 0
BITMAP
30
58
88
30
08
C8
78
ENDCHAR
STARTCHAR 0034
ENCODING 52
SWIDTH 617 0
DWIDTH 6 0
BBX 6 7 0 0
BITMAP
20
28
58
58
FC
18
18
ENDCHAR
STARTCHAR 0035
ENCODING 53
SWIDTH 617 0
DWIDTH 6 0
BBX 5 7 0 0
BITMAP
78
78
40
78
08
C8
78
ENDCHAR
STARTCHAR 0036
ENCODING 54
SWIDTH 617 0
DWIDTH 6 0
BBX 6 7 0 0
BITMAP
30
78
40
F8
CC
48
78
ENDCHAR
STARTCHAR 0037
ENCODING 55
SWIDTH 617 0
DWIDTH 6 0
BBX 4 7 1 0
BITMAP
F0
F0
20
60
60
40
C0
ENDCHAR
STARTCHAR 0038
ENCODING 56
SWIDTH 617 0
DWIDTH 6 0
BBX 5 7 0 0
BITMAP
30
48
48
70
48
C8
78
ENDCHAR
STARTCHAR 0039
ENCODING 57
SWIDTH 617 0
DWIDTH 6 0
BBX 5 7 0 0
BITMAP
30
58
C8
58
28
C8
78
ENDCHAR
STARTCHAR 003A
ENCODING 58
SWIDTH 617 0
DWIDTH 6 0
BBX 2 5 2 0
BITMAP
C0
C0
00
C0
C0
ENDCHAR
STARTCHAR 003B
ENCODING 59
SWIDTH 617 0
DWIDTH 6 0
BBX 2 7 2 -2
BITMAP
C0
C0
00
C0
C0
40
80
ENDCHAR
STARTCHAR 003C
ENCODING 60
SWIDTH 617 0
DWIDTH 6 0
BBX 5 5 0 0
BITMAP
08
70
C0
70
08
ENDCHAR
STARTCHAR 003D
ENCODING 61
SWIDTH 617 0
DWIDTH 6 0
BBX 5 3 0 1
BITMAP
F8
00
F8
ENDCHAR
STARTCHAR 003E
ENCODING 62
SWIDTH 617 0
DWIDTH 6 0
BBX 4 5 1 0
BITMAP
80
E0
10
70
80
ENDCHAR
STARTCHAR 003F
ENCODING 63
SWIDTH 617 0
DWIDTH 6 0
BBX 4 7 1 0
BITMAP
60
B0
90
30
60
60
60
ENDCHAR
STARTCHAR 0040
ENCODING 64
SWIDTH 617 0
DWIDTH 6 0
BBX 6 9 0 -2
BITMAP
30
48
B4
DC
BC
DC
FC
40
30
ENDCHAR
STARTCHAR 0041
ENCODING 65
SWIDTH 617 0
DWIDTH 6 0
BBX 6 7 0 0
BITMAP
30
30
78
58
48
F8
CC
ENDCHAR
STARTCHAR 0042
ENCODING 66
SWIDTH 617 0
DWIDTH 6 0
BBX 5 7 1 0
BITMAP
F0
B0
90
E0
90
98
F0
ENDCHAR
STARTCHAR 0043
ENCODING 67
SWIDTH 617 0
DWIDTH 6 0
BBX 5 7 0 0
BITMAP
30
78
C8
C0
C8
C8
78
ENDCHAR
STARTCHAR 0044
ENCODING 68
SWIDTH 617 0
DWIDTH 6 0
BBX 5 7 1 0
BITMAP
E0
F0
98
98
98
98
F0
ENDCHAR
STARTCHAR 0045
ENCODING 69
SWIDTH 617 0
DWIDTH 6 0
BBX 4 7 1 0
BITMAP
F0
F0
80
F0
80
80
F0
ENDCHAR
STARTCHAR 0046
ENCODING 70
SWIDTH 617 0
DWIDTH 6 0
BBX 4 7 1 0
BITMAP
F0
F0
80
F0
80
80
80
ENDCHAR
STARTCHAR 0047
ENCODING 71
SWIDTH 617 0
DWIDTH 6 0
BBX 6 7 0 0
BITMAP
30
78
CC
DC
CC
CC
74
ENDCHAR
STARTCHAR 0048
ENCODING 72
SWIDTH 617 0
DWIDTH 6 0
BBX 4 7 1 0
BITMAP
90
90
90
F0
90
90
90
ENDCHAR
STARTCHAR 0049
ENCODING 73
SWIDTH 617 0
DWIDTH 6 0
BBX 4 7 1 0
BITMAP
F0
F0
60
60
60
60
F0
ENDCHAR
STARTCHAR 004A
ENCODING 74
SWIDTH 617 0
DWIDTH 6 0
BBX 4 7 1 0
BITMAP
10
10
10
10
10
B0
F0
ENDCHAR
STARTCHAR 004B
ENCODING 75
SWIDTH 617 0
DWIDTH 6 0
BBX 5 7 1 0
BITMAP
98
B0
A0
E0
E0
B0
98
ENDCHAR
STARTCHAR 004C
ENCODING 76
SWIDTH 617 0
DWIDTH 6 0
BBX 4 7 1 0
BITMAP
80
80
80
80
80
80
F0
ENDCHAR
STARTCHAR 004D
ENCODING 77
SWIDTH 617 0
DWIDTH 6 0
BBX 5 7 0 0
BITMAP
C8
D8
F8
F8
F8
F8
E8
ENDCHAR
STARTCHAR 004E
ENCODING 78
SWIDTH 617 0
DWIDTH 6 0
BBX 4 7 1 0
BITMAP
90
D0
D0
F0
B0
B0
90
ENDCHAR
STARTCHAR 004F
ENCODING 79
SWIDTH 617 0
DWIDTH 6 0
BBX 6 7 0 0
BITMAP
30
78
CC
CC
CC
C8
78
ENDCHAR
STARTCHAR 0050
ENCODING 80
SWIDTH 617 0
DWIDTH 6 0
BBX 5 7 1 0
BITMAP
F0
F8
98
F0
80
80
80
ENDCHAR
STARTCHAR 0051
ENCODING 81
SWIDTH 617 0
DWIDTH 6 0
BBX 6 9 0 -2
BITMAP
30
78
CC
CC
CC
C8
78
34
08
ENDCHAR
STARTCHAR 0052
ENCODING 82
SWIDTH 617 0
DWIDTH 6 0
BBX 5 7 1 0
BITMAP
F0
F8
98
F0
B0
98
98
ENDCHAR
STARTCHAR 0053
ENCODING 83
SWIDTH 617 0
DWIDTH 6 0
BBX 6 7 0 0
BITMAP
30
D8
C4
78
1C
CC
78
ENDCHAR
STARTCHAR 0054
ENCODING 84
SWIDTH 617 0
DWIDTH 6 0
BBX 6 7 0 0
BITMAP
FC
FC
30
30
30
30
30
ENDCHAR
STARTCHAR 0055
ENCODING 85
SWIDTH 617 0
DWIDTH 6 0
BBX 5 7 0 0
BITMAP
C8
C8
C8
C8
C8
C8
78
ENDCHAR
STARTCHAR 0056
ENCODING 86
SWIDTH 617 0
DWIDTH 6 0
BBX 6 7 0 0
BITMAP
CC
C8
48
48
78
70
30
ENDCHAR
STARTCHAR 0057
ENCODING 87
SWIDTH 617 0
DWIDTH 6 0
BBX 6 7 0 0
BITMAP
B4
BC
FC
F8
F8
78
58
ENDCHAR
STARTCHAR 0058
ENCODING 88
SWIDTH 617 0
DWIDTH 6 0
BBX 6 7 0 0
BITMAP
CC
78
70
30
70
58
CC
ENDCHAR
STARTCHAR 0059
ENCODING 89
SWIDTH 617 0
DWIDTH 6 0
BBX 6 7 0 0
BITMAP
CC
48
78
30
30
30
30
ENDCHAR
STARTCHAR 005A
ENCODING 90
SWIDTH 617 0
DWIDTH 6 0
BBX 6 7 0 0
BITMAP
FC
F8
18
30
60
60
FC
ENDCHAR
STARTCHAR 005B
ENCODING 91
SWIDTH 617 0
DWIDTH 6 0
BBX 2 9 2 -2
BITMAP
C0
80
80
80
80
80
80
80
C0
ENDCHAR
STARTCHAR 005C
ENCODING 92
SWIDTH 617 0
DWIDTH 6 0
BBX 6 9 0 -2
BITMAP
80
40
40
20
20
10
18
08
04
ENDCHAR
STARTCHAR 005D
ENCODING 93
SWIDTH 617 0
DWIDTH 6 0
BBX 3 9 1 -2
BITMAP
E0
60
60
60
60
60
60
60
E0
ENDCHAR
STARTCHAR 005E
ENCODING 94
SWIDTH 617 0
DWIDTH 6 0
BBX 5 5 0 0
BITMAP
30
30
50
48
C8
ENDCHAR
STARTCHAR 005F
ENCODING 95
SWIDTH 617 0
DWIDTH 6 0
BBX 5 1 0 -1
BITMAP
F8
ENDCHAR
STARTCHAR 0060
ENCODING 96
SWIDTH 617 0
DWIDTH 6 0
BBX 2 1 2 6
BITMAP
C0
ENDCHAR
STARTCHAR 0061
ENCODING 97
SWIDTH 617 0
DWIDTH 6 0
BBX 6 5 0 0
BITMAP
78
48
78
D8
7C
ENDCHAR
STARTCHAR 0062
ENCODING 98
SWIDTH 617 0
DWIDTH 6 0
BBX 4 7 1 0
BITMAP
80
80
F0
90
90
90
F0
ENDCHAR
STARTCHAR 0063
ENCODING 99
SWIDTH 617 0
DWIDTH 6 0
BBX 5 5 0 0
BITMAP
78
48
C0
48
78
ENDCHAR
STARTCHAR 0064
ENCODING 100
SWIDTH 617 0
DWIDTH 6 0
BBX 5 7 0 0
BITMAP
08
08
78
C8
C8
C8
78
ENDCHAR
STARTCHAR 0065
ENCODING 101
SWIDTH 617 0
DWIDTH 6 0
BBX 5 5 0 0
BITMAP
78
48
F8
48
78
ENDCHAR
STARTCHAR 0066
ENCODING 102
SWIDTH 617 0
DWIDTH 6 0
BBX 4 7 1 0
BITMAP
70
60
F0
60
60
60
F0
ENDCHAR
STARTCHAR 0067
ENCODING 103
SWIDTH 617 0
DWIDTH 6 0
BBX 6 8 0 -2
BITMAP
0C
78
48
78
40
7C
CC
78
ENDCHAR
STARTCHAR 0068
ENCODING 104
SWIDTH 617 0
DWIDTH 6 0
BBX 4 7 1 0
BITMAP
80
80
F0
90
90
90
90
ENDCHAR
STARTCHAR 0069
ENCODING 105
SWIDTH 617 0
DWIDTH 6 0
BBX 4 7 1 0
BITMAP
20
00
E0
60
60
60
F0
ENDCHAR
STARTCHAR 006A
ENCODING 106
SWIDTH 617 0
DWIDTH 6 0
BBX 3 9 1 -2
BITMAP
20
00
E0
60
60
60
60
60
C0
ENDCHAR
STARTCHAR 006B
ENCODING 107
SWIDTH 617 0
DWIDTH 6 0
BBX 5 7 1 0
BITMAP
80
80
B8
A0
E0
F0
B8
ENDCHAR
STARTCHAR 006C
ENCODING 108
SWIDTH 617 0
DWIDTH 6 0
BBX 4 7 1 0
BITMAP
E0
60
60
60
60
60
F0
ENDCHAR
STARTCHAR 006D
ENCODING 109
SWIDTH 617 0
DWIDTH 6 0
BBX 5 5 0 0
BITMAP
F8
F8
F8
F8
F8
ENDCHAR
STARTCHAR 006E
ENCODING 110
SWIDTH 617 0
DWIDTH 6 0
BBX 4 5 1 0
BITMAP
F0
90
90
90
90
ENDCHAR
STARTCHAR 006F
ENCODING 111
SWIDTH 617 0
DWIDTH 6 0
BBX 5 5 0 0
BITMAP
78
48
C8
48
78
ENDCHAR
STARTCHAR 0070
ENCODING 112
SWIDTH 617 0
DWIDTH 6 0
BBX 4 7 1 -2
BITMAP
F0
90
90
90
F0
80
80
ENDCHAR
STARTCHAR 0071
ENCODING 113
SWIDTH 617 0
DWIDTH 6 0
BBX 5 7 0 -2
BITMAP
78
C8
C8
C8
78
08
08
ENDCHAR
STARTCHAR 0072
ENCODING 114
SWIDTH 617 0
DWIDTH 6 0
BBX 6 5 0 0
BITMAP
F8
6C
60
60
F8
ENDCHAR
STARTCHAR 0073
ENCODING 115
SWIDTH 617 0
DWIDTH 6 0
BBX 4 5 1 0
BITMAP
F0
80
F0
90
F0
ENDCHAR
STARTCHAR 0074
ENCODING 116
SWIDTH 617 0
DWIDTH 6 0
BBX 5 7 0 0
BITMAP
20
20
F8
20
20
20
38
ENDCHAR
STARTCHAR 0075
ENCODING 117
SWIDTH 617 0
DWIDTH 6 0
BBX 5 5 1 0
BITMAP
90
90
90
90
F8
ENDCHAR
STARTCHAR 0076
ENCODING 118
SWIDTH 617 0
DWIDTH 6 0
BBX 6 5 0 0
BITMAP
CC
48
78
30
30
ENDCHAR
STARTCHAR 0077
ENCODING 119
SWIDTH 617 0
DWIDTH 6 0
BBX 6 5 0 0
BITMAP
B4
BC
F8
78
58
ENDCHAR
STARTCHAR 0078
ENCODING 120
SWIDTH 617 0
DWIDTH 6 0
BBX 6 5 0 0
BITMAP
CC
78
30
78
CC
ENDCHAR
STARTCHAR 0079
ENCODING 121
SWIDTH 617 0
DWIDTH 6 0
BBX 6 7 0 -2
BITMAP
CC
48
78
30
30
20
60
ENDCHAR
STARTCHAR 007A
ENCODING 122
SWIDTH 617 0
DWIDTH 6 0
BBX 4 5 1 0
BITMAP
F0
20
60
C0
F0
ENDCHAR
STARTCHAR 007B
ENCODING 123
SWIDTH 617 0
DWIDTH 6 0
BBX 2 9 2 -2
BITMAP
40
C0
80
80
80
80
80
C0
40
ENDCHAR
STARTCHAR 007C
ENCODING 124
SWIDTH 617 0
DWIDTH 6 0
BBX 1 9 2 -2
BITMAP
80
80
80
80
80
80
80
80
80
ENDCHAR
STARTCHAR 007D
ENCODING 125
SWIDTH 617 0
DWIDTH 6 0
BBX 2 9 2 -2
BITMAP
80
80
80
80
40
80
80
80
80
ENDCHAR
STARTCHAR 007E
ENCODING 126
SWIDTH 617 0
DWIDTH 6 0
BBX 6 2 0 2
BITMAP
64
98
ENDCHAR
STARTCHAR 00A0
ENCODING 160
SWIDTH 617 0
DWIDTH 6 0
BBX 0 0 0 0
BITMAP
ENDCHAR
STARTCHAR 00A1
ENCODING 161
SWIDTH 617 0
DWIDTH 6 0
BBX 2 7 2 -2
BITMAP
C0
C0
80
C0
C0
C0
C0
ENDCHAR
STARTCHAR 00A2
ENCODING 162
SWIDTH 617 0
DWIDTH 6 0
BBX 4 7 1 0
BITMAP
60
70
90
80
90
F0
60
ENDCHAR
STARTCHAR 00A3
ENCODING 163
SWIDTH 617 0
DWIDTH 6 0
BBX 6 7 0 0
BITMAP
38
6C
60
F0
40
40
F8
ENDCHAR
STARTCHAR 00A4
ENCODING 164
SWIDTH 617 0
DWIDTH 6 0
BBX 5 5 0 1
BITMAP
B8
48
88
48
F8
ENDCHAR
STARTCHAR 00A5
ENCODING 165
SWIDTH 617 0
DWIDTH 6 0
BBX 6 7 0 0
BITMAP
CC
48
78
B4
FC
30
30
ENDCHAR
STARTCHAR 00A6
ENCODING 166
SWIDTH 617 0
DWIDTH 6 0
BBX 1 9 2 -2
BITMAP
80
80
80
80
00
80
80
80
80
ENDCHAR
STARTCHAR 00A7
ENCODING 167
SWIDTH 617 0
DWIDTH 6 0
BBX 4 9 1 -2
BITMAP
60
90
C0
F0
90
F0
30
90
60
ENDCHAR
STARTCHAR 00A8
ENCODING 168
SWIDTH 617 0
DWIDTH 6 0
BBX 4 1 1 6
BITMAP
B0
ENDCHAR
STARTCHAR 00A9
ENCODING 169
SWIDTH 617 0
DWIDTH 6 0
BBX 6 7 0 0
BITMAP
70
88
F4
CC
CC
B4
78
ENDCHAR
STARTCHAR 00AA
ENCODING 170
SWIDTH 617 0
DWIDTH 6 0
BBX 4 3 1 4
BITMAP
60
A0
F0
ENDCHAR
STARTCHAR 00AB
ENCODING 171
SWIDTH 617 0
DWIDTH 6 0
BBX 4 3 1 2
BITMAP
D0
A0
F0
ENDCHAR
STARTCHAR 00AC
ENCODING 172
SWIDTH 617 0
DWIDTH 6 0
BBX 5 3 0 2
BITMAP
F8
F8
08
ENDCHAR
STARTCHAR 00AD
ENCODING 173
SWIDTH 617 0
DWIDTH 6 0
BBX 2 1 2 2
BITMAP
C0
ENDCHAR
STARTCHAR 00AE
ENCODING 174
SWIDTH 617 0
DWIDTH 6 0
BBX 6 7 0 0
BITMAP
70
88
FC
F4
CC
C8
78
ENDCHAR
STARTCHAR 00AF
ENCODING 175
SWIDTH 617 0
DWIDTH 6 0
BBX 4 1 1 6
BITMAP
F0
ENDCHAR
STARTCHAR 00B0
ENCODING 176
SWIDTH 617 0
DWIDTH 6 0
BBX 3 3 1 4
BITMAP
60
A0
60
ENDCHAR
STARTCHAR 00B1
ENCODING 177
SWIDTH 617 0
DWIDTH 6 0
BBX 5 5 0 0
BITMAP
20
F8
20
20
F8
ENDCHAR
STARTCHAR 00B2
ENCODING 178
SWIDTH 617 0
DWIDTH 6 0
BBX 2 4 2 4
BITMAP
C0
C0
C0
C0
ENDCHAR
STARTCHAR 00B3
ENCODING 179
SWIDTH 617 0
DWIDTH 6 0
BBX 3 4 1 4
BITMAP
60
20
E0
60
ENDCHAR
STARTCHAR 00B4
ENCODING 180
SWIDTH 617 0
DWIDTH 6 0
BBX 2 1 2 6
BITMAP
C0
ENDCHAR
STARTCHAR 00B5
ENCODING 181
SWIDTH 617 0
DWIDTH 6 0
BBX 5 7 1 -2
BITMAP
90
90
90
90
F8
80
80
ENDCHAR
STARTCHAR 00B6
ENCODING 182
SWIDTH 617 0
DWIDTH 6 0
BBX 5 9 0 -2
BITMAP
38
68
E8
68
28
28
28
28
28
ENDCHAR
STARTCHAR 00B7
ENCODING 183
SWIDTH 617 0
DWIDTH 6 0
BBX 2 1 2 3
BITMAP
C0
ENDCHAR
STARTCHAR 00B8
ENCODING 184
SWIDTH 617 0
DWIDTH 6 0
BBX 2 2 2 -2
BITMAP
40
C0
ENDCHAR
STARTCHAR 00B9
ENCODING 185
SWIDTH 617 0
DWIDTH 6 0
BBX 2 4 2 4
BITMAP
80
80
80
C0
ENDCHAR
STARTCHAR 00BA
ENCODING 186
SWIDTH 617 0
DWIDTH 6 0
BBX 3 3 1 4
BITMAP
60
A0
E0
ENDCHAR
STARTCHAR 00BB
ENCODING 187
SWIDTH 617 0
DWIDTH 6 0
BBX 4 3 1 2
BITMAP
A0
50
B0
ENDCHAR
STARTCHAR 00BC
ENCODING 188
SWIDTH 617 0
DWIDTH 6 0
BBX 6 7 0 0
BITMAP
C4
48
50
C8
38
5C
88
ENDCHAR
STARTCHAR 00BD
ENCODING 189
SWIDTH 617 0
DWIDTH 6 0
BBX 6 7 0 0
BITMAP
C4
48
50
CC
34
48
9C
ENDCHAR
STARTCHAR 00BE
ENCODING 190
SWIDTH 617 0
DWIDTH 6 0
BBX 6 7 0 0
BITMAP
C4
28
70
E8
38
5C
88
ENDCHAR
STARTCHAR 00BF
ENCODING 191
SWIDTH 617 0
DWIDTH 6 0
BBX 4 7 1 -2
BITMAP
60
60
40
C0
90
90
60
ENDCHAR
STARTCHAR 00C0
ENCODING 192
SWIDTH 617 0
DWIDTH 6 0
BBX 6 9 0 0
BITMAP
60
20
30
30
78
58
48
F8
CC
ENDCHAR
STARTCHAR 00C1
ENCODING 193
SWIDTH 617 0
DWIDTH 6 0
BBX 6 9 0 0
BITMAP
18
30
30
30
78
58
48
F8
CC
ENDCHAR
STARTCHAR 00C2
ENCODING 194
SWIDTH 617 0
DWIDTH 6 0
BBX 6 9 0 0
BITMAP
30
58
30
30
78
58
48
F8
CC
ENDCHAR
STARTCHAR 00C3
ENCODING 195
SWIDTH 617 0
DWIDTH 6 0
BBX 6 9 0 0
BITMAP
28
50
30
30
78
58
48
F8
CC
ENDCHAR
STARTCHAR 00C4
ENCODING 196
SWIDTH 617 0
DWIDTH 6 0
BBX 6 9 0 0
BITMAP
58
58
30
30
78
58
48
F8
CC
ENDCHAR
STARTCHAR 00C5
ENCODING 197
SWIDTH 617 0
DWIDTH 6 0
BBX 6 9 0 0
BITMAP
30
30
30
30
78
58
48
F8
CC
ENDCHAR
STARTCHAR 00C6
ENCODING 198
SWIDTH 617 0
DWIDTH 6 0
BBX 6 7 0 0
BITMAP
3C
7C
50
58
50
F0
DC
ENDCHAR
STARTCHAR 00C7
ENCODING 199
SWIDTH 617 0
DWIDTH 6 0
BBX 5 9 0 -2
BITMAP
30
78
C8
C0
C8
C8
78
10
30
ENDCHAR
STARTCHAR 00C8
ENCODING 200
SWIDTH 617 0
DWIDTH 6 0
BBX 4 9 1 0
BITMAP
C0
60
F0
F0
80
F0
80
80
F0
ENDCHAR
STARTCHAR 00C9
ENCODING 201
SWIDTH 617 0
DWIDTH 6 0
BBX 4 9 1 0
BITMAP
30
20
F0
F0
80
F0
80
80
F0
ENDCHAR
STARTCHAR 00CA
ENCODING 202
SWIDTH 617 0
DWIDTH 6 0
BBX 4 9 1 0
BITMAP
60
90
F0
F0
80
F0
80
80
F0
ENDCHAR
STARTCHAR 00CB
ENCODING 203
SWIDTH 617 0
DWIDTH 6 0
BBX 4 9 1 0
BITMAP
90
90
F0
F0
80
F0
80
80
F0
ENDCHAR
STARTCHAR 00CC
ENCODING 204
SWIDTH 617 0
DWIDTH 6 0
BBX 4 9 1 0
BITMAP
C0
40
F0
F0
60
60
60
60
F0
ENDCHAR
STARTCHAR 00CD
ENCODING 205
SWIDTH 617 0
DWIDTH 6 0
BBX 4 9 1 0
BITMAP
30
60
F0
F0
60
60
60
60
F0
ENDCHAR
STARTCHAR 00CE
ENCODING 206
SWIDTH 617 0
DWIDTH 6 0
BBX 4 9 1 0
BITMAP
60
B0
F0
F0
60
60
60
60
F0
ENDCHAR
STARTCHAR 00CF
ENCODING 207
SWIDTH 617 0
DWIDTH 6 0
BBX 4 9 1 0
BITMAP
B0
B0
F0
F0
60
60
60
60
F0
ENDCHAR
STARTCHAR 00D0
ENCODING 208
SWIDTH 617 0
DWIDTH 6 0
BBX 6 7 0 0
BITMAP
70
78
4C
EC
4C
4C
78
ENDCHAR
STARTCHAR 00D1
ENCODING 209
SWIDTH 617 0
DWIDTH 6 0
BBX 4 9 1 0
BITMAP
50
A0
90
D0
D0
F0
B0
B0
90
ENDCHAR
STARTCHAR 00D2
ENCODING 210
SWIDTH 617 0
DWIDTH 6 0
BBX 6 9 0 0
BITMAP
60
20
30
78
CC
CC
CC
C8
78
ENDCHAR
STARTCHAR 00D3
ENCODING 211
SWIDTH 617 0
DWIDTH 6 0
BBX 6 9 0 0
BITMAP
18
30
30
78
CC
CC
CC
C8
78
ENDCHAR
STARTCHAR 00D4
ENCODING 212
SWIDTH 617 0
DWIDTH 6 0
BBX 6 9 0 0
BITMAP
30
58
30
78
CC
CC
CC
C8
78
ENDCHAR
STARTCHAR 00D5
ENCODING 213
SWIDTH 617 0
DWIDTH 6 0
BBX 6 9 0 0
BITMAP
28
50
30
78
CC
CC
CC
C8
78
ENDCHAR
STARTCHAR 00D6
ENCODING 214
SWIDTH 617 0
DWIDTH 6 0
BBX 6 9 0 0
BITMAP
58
58
30
78
CC
CC
CC
C8
78
ENDCHAR
STARTCHAR 00D7
ENCODING 215
SWIDTH 617 0
DWIDTH 6 0
BBX 4 5 1 0
BITMAP
90
F0
60
F0
90
ENDCHAR
STARTCHAR 00D8
ENCODING 216
SWIDTH 617 0
DWIDTH 6 0
BBX 6 8 0 -1
BITMAP
3C
78
DC
DC
EC
C8
78
80
ENDCHAR
STARTCHAR 00D9
ENCODING 217
SWIDTH 617 0
DWIDTH 6 0
BBX 5 9 0 0
BITMAP
60
30
C8
C8
C8
C8
C8
C8
78
ENDCHAR
STARTCHAR 00DA
ENCODING 218
SWIDTH 617 0
DWIDTH 6 0
BBX 5 9 0 0
BITMAP
18
30
C8
C8
C8
C8
C8
C8
78
ENDCHAR
STARTCHAR 00DB
ENCODING 219
SWIDTH 617 0
DWIDTH 6 0
BBX 5 9 0 0
BITMAP
30
58
C8
C8
C8
C8
C8
C8
78
ENDCHAR
STARTCHAR 00DC
ENCODING 220
SWIDTH 617 0
DWIDTH 6 0
BBX 5 9 0 0
BITMAP
58
58
C8
C8
C8
C8
C8
C8
78
ENDCHAR
STARTCHAR 00DD
ENCODING 221
SWIDTH 617 0
DWIDTH 6 0
BBX 6 9 0 0
BITMAP
18
30
CC
48
78
30
30
30
30
ENDCHAR
STARTCHAR 00DE
ENCODING 222
SWIDTH 617 0
DWIDTH 6 0
BBX 5 7 1 0
BITMAP
80
E0
F0
98
F0
E0
80
ENDCHAR
STARTCHAR 00DF
ENCODING 223
SWIDTH 617 0
DWIDTH 6 0
BBX 6 8 0 -1
BITMAP
78
48
C8
58
4C
4C
58
40
ENDCHAR
STARTCHAR 00E0
ENCODING 224
SWIDTH 617 0
DWIDTH 6 0
BBX 6 7 0 0
BITMAP
60
10
78
48
78
D8
7C
ENDCHAR
STARTCHAR 00E1
ENCODING 225
SWIDTH 617 0
DWIDTH 6 0
BBX 6 7 0 0
BITMAP
30
00
78
48
78
D8
7C
ENDCHAR
STARTCHAR 00E2
ENCODING 226
SWIDTH 617 0
DWIDTH 6 0
BBX 6 7 0 0
BITMAP
70
08
78
48
78
D8
7C
ENDCHAR
STARTCHAR 00E3
ENCODING 227
SWIDTH 617 0
DWIDTH 6 0
BBX 6 7 0 0
BITMAP
78
00
78
48
78
D8
7C
ENDCHAR
STARTCHAR 00E4
ENCODING 228
SWIDTH 617 0
DWIDTH 6 0
BBX 6 7 0 0
BITMAP
58
00
78
48
78
D8
7C
ENDCHAR
STARTCHAR 00E5
ENCODING 229
SWIDTH 617 0
DWIDTH 6 0
BBX 6 8 0 0
BITMAP
20
30
00
78
48
78
D8
7C
ENDCHAR
STARTCHAR 00E6
ENCODING 230
SWIDTH 617 0
DWIDTH 6 0
BBX 6 5 0 0
BITMAP
78
B4
7C
B4
F8
ENDCHAR
STARTCHAR 00E7
ENCODING 231
SWIDTH 617 0
DWIDTH 6 0
BBX 5 7 0 -2
BITMAP
78
48
C0
48
78
10
30
ENDCHAR
STARTCHAR 00E8
ENCODING 232
SWIDTH 617 0
DWIDTH 6 0
BBX 5 7 0 0
BITMAP
20
10
78
48
F8
48
78
ENDCHAR
STARTCHAR 00E9
ENCODING 233
SWIDTH 617 0
DWIDTH 6 0
BBX 5 7 0 0
BITMAP
10
20
78
48
F8
48
78
ENDCHAR
STARTCHAR 00EA
ENCODING 234
SWIDTH 617 0
DWIDTH 6 0
BBX 5 7 0 0
BITMAP
30
48
78
48
F8
48
78
ENDCHAR
STARTCHAR 00EB
ENCODING 235
SWIDTH 617 0
DWIDTH 6 0
BBX 5 7 0 0
BITMAP
48
00
78
48
F8
48
78
ENDCHAR
STARTCHAR 00EC
ENCODING 236
SWIDTH 617 0
DWIDTH 6 0
BBX 4 7 1 0
BITMAP
60
00
E0
60
60
60
F0
ENDCHAR
STARTCHAR 00ED
ENCODING 237
SWIDTH 617 0
DWIDTH 6 0
BBX 4 7 1 0
BITMAP
30
40
E0
60
60
60
F0
ENDCHAR
STARTCHAR 00EE
ENCODING 238
SWIDTH 617 0
DWIDTH 6 0
BBX 4 7 1 0
BITMAP
60
90
E0
60
60
60
F0
ENDCHAR
STARTCHAR 00EF
ENCODING 239
SWIDTH 617 0
DWIDTH 6 0
BBX 4 7 1 0
BITMAP
D0
00
E0
60
60
60
F0
ENDCHAR
STARTCHAR 00F0
ENCODING 240
SWIDTH 617 0
DWIDTH 6 0
BBX 5 7 0 0
BITMAP
70
50
78
C8
C8
C8
78
ENDCHAR
STARTCHAR 00F1
ENCODING 241
SWIDTH 617 0
DWIDTH 6 0
BBX 4 7 1 0
BITMAP
F0
00
F0
90
90
90
90
ENDCHAR
STARTCHAR 00F2
ENCODING 242
SWIDTH 617 0
DWIDTH 6 0
BBX 5 7 0 0
BITMAP
60
10
78
48
C8
48
78
ENDCHAR
STARTCHAR 00F3
ENCODING 243
SWIDTH 617 0
DWIDTH 6 0
BBX 5 7 0 0
BITMAP
30
00
78
48
C8
48
78
ENDCHAR
STARTCHAR 00F4
ENCODING 244
SWIDTH 617 0
DWIDTH 6 0
BBX 5 7 0 0
BITMAP
30
48
78
48
C8
48
78
ENDCHAR
STARTCHAR 00F5
ENCODING 245
SWIDTH 617 0
DWIDTH 6 0
BBX 5 7 0 0
BITMAP
78
00
78
48
C8
48
78
ENDCHAR
STARTCHAR 00F6
ENCODING 246
SWIDTH 617 0
DWIDTH 6 0
BBX 5 7 0 0
BITMAP
58
00
78
48
C8
48
78
ENDCHAR
STARTCHAR 00F7
ENCODING 247
SWIDTH 617 0
DWIDTH 6 0
BBX 5 5 0 0
BITMAP
20
00
F8
00
20
ENDCHAR
STARTCHAR 00F8
ENCODING 248
SWIDTH 617 0
DWIDTH 6 0
BBX 5 6 0 0
BITMAP
08
78
58
E8
68
78
ENDCHAR
STARTCHAR 00F9
ENCODING 249
SWIDTH 617 0
DWIDTH 6 0
BBX 5 7 1 0
BITMAP
C0
20
90
90
90
90
F8
ENDCHAR
STARTCHAR 00FA
ENCODING 250
SWIDTH 617 0
DWIDTH 6 0
BBX 5 7 1 0
BITMAP
60
00
90
90
90
90
F8
ENDCHAR
STARTCHAR 00FB
ENCODING 251
SWIDTH 617 0
DWIDTH 6 0
BBX 5 7 1 0
BITMAP
60
90
90
90
90
90
F8
ENDCHAR
STARTCHAR 00FC
ENCODING 252
SWIDTH 617 0
DWIDTH 6 0
BBX 5 7 1 0
BITMAP
B0
00
90
90
90
90
F8
ENDCHAR
STARTCHAR 00FD
ENCODING 253
SWIDTH 617 0
DWIDTH 6 0
BBX 6 9 0 -2
BITMAP
10
20
CC
48
78
30
30
20
60
ENDCHAR
STARTCHAR 00FE
ENCODING 254
SWIDTH 617 0
DWIDTH 6 0
BBX 4 9 1 -2
BITMAP
80
80
F0
90
90
90
F0
80
80
ENDCHAR
STARTCHAR 00FF
ENCODING 255
SWIDTH 617 0
DWIDTH 6 0
BBX 6 9 0 -2
BITMAP
48
00
CC
48
78
30
30
20
60
ENDCHAR
STARTCHAR 0152
ENCODING 140
SWIDTH 617 0
DWIDTH 6 0
BBX 6 7 0 0
BITMAP
3C
F8
D0
D8
D0
D0
7C
ENDCHAR
STARTCHAR 0153
ENCODING 156
SWIDTH 617 0
DWIDTH 6 0
BBX 6 5 0 0
BITMAP
F8
B4
BC
B4
F8
ENDCHAR
STARTCHAR 0160
ENCODING 138
SWIDTH 617 0
DWIDTH 6 0
BBX 6 9 0 0
BITMAP
48
30
30
D8
C4
78
1C
CC
78
ENDCHAR
STARTCHAR 0161
ENCODING 154
SWIDTH 617 0
DWIDTH 6 0
BBX 4 7 1 0
BITMAP
F0
00
F0
80
F0
90
F0
ENDCHAR
STARTCHAR 0178
ENCODING 159
SWIDTH 617 0
DWIDTH 6 0
BBX 6 9 0 0
BITMAP
58
58
CC
48
78
30
30
30
30
ENDCHAR
STARTCHAR 017D
ENCODING 142
SWIDTH 617 0
DWIDTH 6 0
BBX 6 9 0 0
BITMAP
48
30
FC
F8
18
30
60
60
FC
ENDCHAR
STARTCHAR 017E
ENCODING 158
SWIDTH 617 0
DWIDTH 6 0
BBX 4 7 1 0
BITMAP
F0
00
F0
20
60
C0
F0
ENDCHAR
STARTCHAR 0192
ENCODING 131
SWIDTH 617 0
DWIDTH 6 0
BBX 5 9 0 -2
BITMAP
18
30
38
30
30
20
20
20
C0
ENDCHAR
STARTCHAR 02C6
ENCODING 136
SWIDTH 617 0
DWIDTH 6 0
BBX 4 1 1 6
BITMAP
F0
ENDCHAR
STARTCHAR 02DC
ENCODING 152
SWIDTH 617 0
DWIDTH 6 0
BBX 4 1 1 6
BITMAP
F0
ENDCHAR
STARTCHAR 2013
ENCODING 150
SWIDTH 617 0
DWIDTH 6 0
BBX 4 1 1 2
BITMAP
F0
ENDCHAR
STARTCHAR 2014
ENCODING 151
SWIDTH 617 0
DWIDTH 6 0
BBX 6 1 0 2
BITMAP
FC
ENDCHAR
STARTCHAR 2018
ENCODING 145
SWIDTH 617 0
DWIDTH 6 0
BBX 2 4 2 3
BITMAP
40
80
C0
C0
ENDCHAR
STARTCHAR 2019
ENCODING 146
SWIDTH 617 0
DWIDTH 6 0
BBX 2 4 2 3
BITMAP
C0
C0
40
80
ENDCHAR
STARTCHAR 201A
ENCODING 130
SWIDTH 617 0
DWIDTH 6 0
BBX 2 4 2 -2
BITMAP
C0
C0
40
80
ENDCHAR
STARTCHAR 201C
ENCODING 147
SWIDTH 617 0
DWIDTH 6 0
BBX 4 4 1 3
BITMAP
D0
A0
F0
F0
ENDCHAR
STARTCHAR 201D
ENCODING 148
SWIDTH 617 0
DWIDTH 6 0
BBX 4 4 1 3
BITMAP
F0
F0
50
A0
ENDCHAR
STARTCHAR 201E
ENCODING 132
SWIDTH 617 0
DWIDTH 6 0
BBX 4 4 1 -2
BITMAP
F0
F0
50
A0
ENDCHAR
STARTCHAR 2020
ENCODING 134
SWIDTH 617 0
DWIDTH 6 0
BBX 5 9 0 -2
BITMAP
30
20
F8
20
20
20
20
20
30
ENDCHAR
STARTCHAR 2021
ENCODING 135
SWIDTH 617 0
DWIDTH 6 0
BBX 5 9 0 -2
BITMAP
30
20
F8
20
30
20
F8
20
30
ENDCHAR
STARTCHAR 2022
ENCODING 149
SWIDTH 617 0
DWIDTH 6 0
BBX 4 3 1 2
BITMAP
60
F0
60
ENDCHAR
STARTCHAR 2026
ENCODING 133
SWIDTH 617 0
DWIDTH 6 0
BBX 5 2 0 0
BITMAP
F8
F8
ENDCHAR
STARTCHAR 2030
ENCODING 137
SWIDTH 617 0
DWIDTH 6 0
BBX 6 7 0 0
BITMAP
40
A0
A0
FC
78
B4
78
ENDCHAR
STARTCHAR 2039
ENCODING 139
SWIDTH 617 0
DWIDTH 6 0
BBX 2 3 2 2
BITMAP
40
80
C0
ENDCHAR
STARTCHAR 203A
ENCODING 155
SWIDTH 617 0
DWIDTH 6 0
BBX 2 3 2 2
BITMAP
80
40
C0
ENDCHAR
STARTCHAR 20AC
ENCODING 128
SWIDTH 617 0
DWIDTH 6 0
BBX 5 7 0 0
BITMAP
18
38
60
F0
F0
60
38
ENDCHAR
STARTCHAR 2122
ENCODING 153
SWIDTH 617 0
DWIDTH 6 0
BBX 6 4 0 3
BITMAP
FC
7C
7C
7C
ENDCHAR
ENDFONT
