STARTFONT 2.1
COMMENT
COMMENT Converted from OpenType font "ChivoMono-Bold.ttf" by "otf2bdf 3.0".
COMMENT
FONT -FreeType-chivo mono-Bold-R-Normal--22-160-100-100-P-108-Windows-cp1252
SIZE 16 100 100
FONTBOUNDINGBOX 14 26 0 -5
STARTPROPERTIES 19
FOUNDRY "FreeType"
FAMILY_NAME "chivo mono"
WEIGHT_NAME "Bold"
SLANT "R"
SETWIDTH_NAME "Normal"
ADD_STYLE_NAME ""
PIXEL_SIZE 22
POINT_SIZE 160
RESOLUTION_X 100
RESOLUTION_Y 100
SPACING "P"
AVERAGE_WIDTH 108
CHARSET_REGISTRY "Windows"
CHARSET_ENCODING "cp1252"
FONT_ASCENT 20
FONT_DESCENT 5
COPYRIGHT "Copyright 2018 The Chivo Project Authors (https://github.com/Omnibus-Type/Chivo)"
_OTF_FONTFILE "ChivoMono-Bold.ttf"
_OTF_PSNAME "ChivoMono-Bold"
ENDPROPERTIES
CHARS 219
STARTCHAR 000D
ENCODING 13
SWIDTH 585 0
DWIDTH 13 0
BBX 0 0 0 0
BITMAP
ENDCHAR
STARTCHAR 0020
ENCODING 32
SWIDTH 585 0
DWIDTH 13 0
BBX 0 0 0 0
BITMAP
ENDCHAR
STARTCHAR 0021
ENCODING 33
SWIDTH 585 0
DWIDTH 13 0
BBX 4 15 5 0
BITMAP
F0
F0
F0
E0
E0
E0
E0
E0
E0
E0
00
00
F0
F0
F0
ENDCHAR
STARTCHAR 0022
ENCODING 34
SWIDTH 585 0
DWIDTH 13 0
BBX 7 6 3 9
BITMAP
EE
EE
EE
E6
66
46
ENDCHAR
STARTCHAR 0023
ENCODING 35
SWIDTH 585 0
DWIDTH 13 0
BBX 13 15 0 0
BITMAP
0630
0E30
0E70
0C60
7FF8
7FF8
1CE0
18C0
18C0
FFF8
FFF8
31C0
3180
3180
3180
ENDCHAR
STARTCHAR 0024
ENCODING 36
SWIDTH 585 0
DWIDTH 13 0
BBX 12 18 1 -1
BITMAP
0E00
0600
1F80
7FC0
7FE0
F0E0
F000
FC00
7F80
3FE0
07E0
00F0
E0E0
F1E0
FFE0
3FC0
0E00
0E00
ENDCHAR
STARTCHAR 0025
ENCODING 37
SWIDTH 585 0
DWIDTH 13 0
BBX 13 15 0 0
BITMAP
7818
CC30
CC60
CC40
CCC0
CD80
7800
2070
00F8
0C98
1898
1898
3098
60D8
C070
ENDCHAR
STARTCHAR 0026
ENCODING 38
SWIDTH 585 0
DWIDTH 13 0
BBX 12 15 1 0
BITMAP
3C00
7C00
F000
E0E0
E0E0
F0E0
7FF0
7FF0
F9E0
E1E0
E1E0
E1E0
FFE0
7FE0
3FE0
ENDCHAR
STARTCHAR 0027
ENCODING 39
SWIDTH 585 0
DWIDTH 13 0
BBX 3 6 5 9
BITMAP
E0
E0
E0
E0
60
40
ENDCHAR
STARTCHAR 0028
ENCODING 40
SWIDTH 585 0
DWIDTH 13 0
BBX 6 18 4 -3
BITMAP
1C
18
38
30
70
70
60
E0
E0
E0
E0
60
70
70
70
30
38
1C
ENDCHAR
STARTCHAR 0029
ENCODING 41
SWIDTH 585 0
DWIDTH 13 0
BBX 6 18 3 -3
BITMAP
E0
70
30
38
38
18
1C
1C
1C
1C
1C
1C
1C
18
38
30
30
E0
ENDCHAR
STARTCHAR 002A
ENCODING 42
SWIDTH 585 0
DWIDTH 13 0
BBX 10 9 2 6
BITMAP
0C00
0C00
CD80
FF80
3F40
1E00
3700
7300
2200
ENDCHAR
STARTCHAR 002B
ENCODING 43
SWIDTH 585 0
DWIDTH 13 0
BBX 11 11 1 0
BITMAP
0E00
0E00
0E00
0E00
FFE0
FFE0
FFE0
0E00
0E00
0E00
0E00
ENDCHAR
STARTCHAR 002C
ENCODING 44
SWIDTH 585 0
DWIDTH 13 0
BBX 3 8 5 -4
BITMAP
E0
E0
E0
E0
60
60
60
C0
ENDCHAR
STARTCHAR 002D
ENCODING 45
SWIDTH 585 0
DWIDTH 13 0
BBX 5 3 4 5
BITMAP
F8
F8
F8
ENDCHAR
STARTCHAR 002E
ENCODING 46
SWIDTH 585 0
DWIDTH 13 0
BBX 4 3 5 0
BITMAP
F0
F0
F0
ENDCHAR
STARTCHAR 002F
ENCODING 47
SWIDTH 585 0
DWIDTH 13 0
BBX 13 19 0 -4
BITMAP
0038
0030
0070
0060
00E0
00C0
0180
0380
0300
0700
0600
0E00
0C00
1C00
1800
3000
7000
6000
E000
ENDCHAR
STARTCHAR 0030
ENCODING 48
SWIDTH 585 0
DWIDTH 13 0
BBX 11 15 1 0
BITMAP
3F80
7FC0
F1E0
F0E0
E0E0
E0E0
E0E0
E0E0
E0E0
E0E0
E0E0
F0E0
7BE0
7FC0
1F80
ENDCHAR
STARTCHAR 0031
ENCODING 49
SWIDTH 585 0
DWIDTH 13 0
BBX 10 15 2 0
BITMAP
0E00
FE00
FE00
FE00
1E00
1E00
1E00
1E00
1E00
1E00
1E00
1E00
FFC0
FFC0
FFC0
ENDCHAR
STARTCHAR 0032
ENCODING 50
SWIDTH 585 0
DWIDTH 13 0
BBX 11 15 1 0
BITMAP
3F80
7FC0
79E0
E0E0
E0E0
00E0
01E0
03C0
0F80
1F00
3C00
7800
FFE0
FFE0
FFE0
ENDCHAR
STARTCHAR 0033
ENCODING 51
SWIDTH 585 0
DWIDTH 13 0
BBX 12 15 1 0
BITMAP
3F80
7FC0
F1E0
E0E0
00E0
01E0
0FC0
0FC0
01E0
00E0
E0F0
E0E0
FBE0
7FE0
3F80
ENDCHAR
STARTCHAR 0034
ENCODING 52
SWIDTH 585 0
DWIDTH 13 0
BBX 12 15 1 0
BITMAP
1E00
1CC0
1CC0
39C0
39C0
73C0
73C0
E3C0
C3C0
FFF0
FFF0
03C0
03C0
03C0
03C0
ENDCHAR
STARTCHAR 0035
ENCODING 53
SWIDTH 585 0
DWIDTH 13 0
BBX 11 15 1 0
BITMAP
7FC0
7FC0
7FC0
7000
7000
7F80
7FC0
7FE0
A0E0
00E0
E0E0
E1E0
FFE0
7FC0
3F80
ENDCHAR
STARTCHAR 0036
ENCODING 54
SWIDTH 585 0
DWIDTH 13 0
BBX 12 15 1 0
BITMAP
3F80
7FC0
79E0
F0E0
F0E0
F300
FFC0
FFE0
F0E0
F0F0
F0F0
F0E0
79E0
3FC0
1F80
ENDCHAR
STARTCHAR 0037
ENCODING 55
SWIDTH 585 0
DWIDTH 13 0
BBX 11 15 1 0
BITMAP
FFE0
FFE0
FFE0
01C0
0380
0380
0700
0F00
0E00
1E00
1E00
1C00
1C00
3C00
3C00
ENDCHAR
STARTCHAR 0038
ENCODING 56
SWIDTH 585 0
DWIDTH 13 0
BBX 11 15 1 0
BITMAP
3F80
7FC0
71E0
F0E0
70E0
71E0
3FC0
3F80
79E0
F0E0
E0E0
F0E0
F1E0
7FE0
3F80
ENDCHAR
STARTCHAR 0039
ENCODING 57
SWIDTH 585 0
DWIDTH 13 0
BBX 11 15 1 0
BITMAP
3F80
7FC0
F1E0
E0E0
E0E0
E0E0
F1E0
FFE0
7EE0
00E0
E0E0
F1E0
FBE0
7FC0
3F00
ENDCHAR
STARTCHAR 003A
ENCODING 58
SWIDTH 585 0
DWIDTH 13 0
BBX 4 11 5 0
BITMAP
F0
F0
F0
00
00
00
00
00
F0
F0
F0
ENDCHAR
STARTCHAR 003B
ENCODING 59
SWIDTH 585 0
DWIDTH 13 0
BBX 4 15 5 -4
BITMAP
F0
F0
F0
00
00
00
00
E0
E0
E0
E0
60
60
60
C0
ENDCHAR
STARTCHAR 003C
ENCODING 60
SWIDTH 585 0
DWIDTH 13 0
BBX 11 11 1 0
BITMAP
0060
03E0
0FC0
7F00
F800
E000
FC00
3F00
0FE0
01E0
0020
ENDCHAR
STARTCHAR 003D
ENCODING 61
SWIDTH 585 0
DWIDTH 13 0
BBX 11 7 1 2
BITMAP
FFE0
FFE0
0000
0000
0000
FFE0
FFE0
ENDCHAR
STARTCHAR 003E
ENCODING 62
SWIDTH 585 0
DWIDTH 13 0
BBX 12 11 1 0
BITMAP
E000
F800
7F00
0FC0
03F0
00F0
03F0
1FC0
FE00
F000
C000
ENDCHAR
STARTCHAR 003F
ENCODING 63
SWIDTH 585 0
DWIDTH 13 0
BBX 11 15 1 0
BITMAP
3F80
7FC0
71E0
F1E0
F1E0
01E0
03C0
0780
0F00
0E00
0000
0000
0F00
0F00
0F00
ENDCHAR
STARTCHAR 0040
ENCODING 64
SWIDTH 585 0
DWIDTH 13 0
BBX 13 19 0 -4
BITMAP
1FC0
3030
6010
6318
4FD8
DFC8
DCC8
C0E8
87E8
9FE8
9CE8
DCE8
DDE8
DFF8
4F70
6000
3000
1FC0
0780
ENDCHAR
STARTCHAR 0041
ENCODING 65
SWIDTH 585 0
DWIDTH 13 0
BBX 13 15 0 0
BITMAP
0F80
0F80
0FC0
1DC0
1DC0
1DE0
3DE0
38E0
38E0
3FF0
7FF0
7FF0
7078
7078
F078
ENDCHAR
STARTCHAR 0042
ENCODING 66
SWIDTH 585 0
DWIDTH 13 0
BBX 12 15 1 0
BITMAP
FFC0
FFE0
F1E0
F0E0
F0E0
F1E0
FFC0
FFC0
FFE0
F0F0
F0F0
F0F0
FFE0
FFE0
FFC0
ENDCHAR
STARTCHAR 0043
ENCODING 67
SWIDTH 585 0
DWIDTH 13 0
BBX 13 15 0 0
BITMAP
1FC0
3FE0
7CF0
7870
F070
F078
F000
F000
F000
F078
7070
7870
7FF0
3FE0
1FC0
ENDCHAR
STARTCHAR 0044
ENCODING 68
SWIDTH 585 0
DWIDTH 13 0
BBX 12 15 1 0
BITMAP
FF80
FFE0
FFE0
F0F0
F0F0
F0F0
F0F0
F0F0
F0F0
F0F0
F0F0
F0F0
FFE0
FFC0
FF80
ENDCHAR
STARTCHAR 0045
ENCODING 69
SWIDTH 585 0
DWIDTH 13 0
BBX 10 15 2 0
BITMAP
FFC0
FFC0
FFC0
E000
E000
E000
FF80
FF80
FF80
E000
E000
E000
FFC0
FFC0
FFC0
ENDCHAR
STARTCHAR 0046
ENCODING 70
SWIDTH 585 0
DWIDTH 13 0
BBX 10 15 2 0
BITMAP
FFC0
FFC0
FFC0
E000
E000
E000
FF80
FF80
FF80
E000
E000
E000
E000
E000
E000
ENDCHAR
STARTCHAR 0047
ENCODING 71
SWIDTH 585 0
DWIDTH 13 0
BBX 13 15 0 0
BITMAP
1FC0
3FE0
7CF0
7870
F078
F000
F000
F3F8
F3F8
F078
7078
7878
7FF8
3FF8
1F98
ENDCHAR
STARTCHAR 0048
ENCODING 72
SWIDTH 585 0
DWIDTH 13 0
BBX 11 15 1 0
BITMAP
F0E0
F0E0
F0E0
F0E0
F0E0
F0E0
FFE0
FFE0
FFE0
F0E0
F0E0
F0E0
F0E0
F0E0
F0E0
ENDCHAR
STARTCHAR 0049
ENCODING 73
SWIDTH 585 0
DWIDTH 13 0
BBX 10 15 2 0
BITMAP
FFC0
FFC0
1E00
1E00
1E00
1E00
1E00
1E00
1E00
1E00
1E00
1E00
FFC0
FFC0
FFC0
ENDCHAR
STARTCHAR 004A
ENCODING 74
SWIDTH 585 0
DWIDTH 13 0
BBX 10 15 2 0
BITMAP
03C0
03C0
03C0
03C0
03C0
03C0
03C0
03C0
03C0
03C0
E3C0
E3C0
F780
FF80
7F00
ENDCHAR
STARTCHAR 004B
ENCODING 75
SWIDTH 585 0
DWIDTH 13 0
BBX 12 15 1 0
BITMAP
F0F0
F1E0
F1C0
F3C0
F780
F780
FF00
FF00
FF80
FF80
F3C0
F3C0
F1E0
F1E0
F0F0
ENDCHAR
STARTCHAR 004C
ENCODING 76
SWIDTH 585 0
DWIDTH 13 0
BBX 10 15 2 0
BITMAP
F000
F000
F000
F000
F000
F000
F000
F000
F000
F000
F000
F000
FFC0
FFC0
FFC0
ENDCHAR
STARTCHAR 004D
ENCODING 77
SWIDTH 585 0
DWIDTH 13 0
BBX 12 15 1 0
BITMAP
F1F0
F9F0
F9F0
F9F0
FBF0
FBF0
FBF0
FBF0
FBF0
EEF0
EEF0
EEF0
EEF0
EEF0
EEF0
ENDCHAR
STARTCHAR 004E
ENCODING 78
SWIDTH 585 0
DWIDTH 13 0
BBX 11 15 1 0
BITMAP
F0E0
F0E0
F8E0
F8E0
FCE0
FCE0
FEE0
FEE0
F7E0
F7E0
F3E0
F3E0
F3E0
F1E0
F1E0
ENDCHAR
STARTCHAR 004F
ENCODING 79
SWIDTH 585 0
DWIDTH 13 0
BBX 13 15 0 0
BITMAP
1FC0
3FF0
7CF0
7878
F078
F078
F078
F078
F078
F078
7078
7878
7FF0
3FE0
1FC0
ENDCHAR
STARTCHAR 0050
ENCODING 80
SWIDTH 585 0
DWIDTH 13 0
BBX 12 15 1 0
BITMAP
FFC0
FFE0
FFF0
F0F0
F0F0
F0F0
FFF0
FFE0
FFC0
F000
F000
F000
F000
F000
F000
ENDCHAR
STARTCHAR 0051
ENCODING 81
SWIDTH 585 0
DWIDTH 13 0
BBX 13 18 0 -3
BITMAP
1FC0
3FF0
7CF0
7878
F078
F078
F078
F078
F078
F078
7078
7878
7FF0
3FE0
1FC0
0780
03F8
01F8
ENDCHAR
STARTCHAR 0052
ENCODING 82
SWIDTH 585 0
DWIDTH 13 0
BBX 13 15 1 0
BITMAP
FFC0
FFE0
FFF0
F0F0
F0F0
F0F0
FFE0
FFC0
FFE0
F1E0
F0F0
F0F0
F0F0
F0F0
F078
ENDCHAR
STARTCHAR 0053
ENCODING 83
SWIDTH 585 0
DWIDTH 13 0
BBX 13 15 0 0
BITMAP
1FE0
3FF0
78F0
7878
7800
7E00
7FE0
3FF0
07F8
00F8
F078
7078
7FF0
3FF0
1FC0
ENDCHAR
STARTCHAR 0054
ENCODING 84
SWIDTH 585 0
DWIDTH 13 0
BBX 12 15 1 0
BITMAP
FFF0
FFF0
FFF0
0F00
0F00
0F00
0F00
0F00
0F00
0F00
0F00
0F00
0F00
0F00
0F00
ENDCHAR
STARTCHAR 0055
ENCODING 85
SWIDTH 585 0
DWIDTH 13 0
BBX 11 15 1 0
BITMAP
F0E0
F0E0
F0E0
F0E0
F0E0
F0E0
F0E0
F0E0
F0E0
F0E0
F0E0
F0E0
FFE0
7FC0
3F80
ENDCHAR
STARTCHAR 0056
ENCODING 86
SWIDTH 585 0
DWIDTH 13 0
BBX 13 15 0 0
BITMAP
F038
7078
7070
7870
7870
38F0
38E0
3CE0
1CE0
1DE0
1DC0
1FC0
0FC0
0F80
0F80
ENDCHAR
STARTCHAR 0057
ENCODING 87
SWIDTH 585 0
DWIDTH 13 0
BBX 13 15 0 0
BITMAP
E318
E738
E738
F7B8
77B8
77B8
77B8
75B0
7DB0
7DF0
7DF0
7DF0
7CF0
3CF0
3CF0
ENDCHAR
STARTCHAR 0058
ENCODING 88
SWIDTH 585 0
DWIDTH 13 0
BBX 13 15 0 0
BITMAP
7878
7CF0
3CE0
1FE0
1FC0
0FC0
0F80
0F80
1FC0
1FC0
3DE0
39E0
78F0
78F0
F078
ENDCHAR
STARTCHAR 0059
ENCODING 89
SWIDTH 585 0
DWIDTH 13 0
BBX 13 15 0 0
BITMAP
F078
7870
78F0
3CE0
3DE0
1FC0
1FC0
0FC0
0F80
0780
0780
0780
0780
0780
0780
ENDCHAR
STARTCHAR 005A
ENCODING 90
SWIDTH 585 0
DWIDTH 13 0
BBX 12 15 1 0
BITMAP
FFF0
FFE0
FFE0
03C0
0780
0780
0F00
1F00
1E00
3C00
3C00
7800
FFF0
FFF0
FFF0
ENDCHAR
STARTCHAR 005B
ENCODING 91
SWIDTH 585 0
DWIDTH 13 0
BBX 5 19 5 -4
BITMAP
F8
E0
E0
E0
E0
E0
E0
E0
E0
E0
E0
E0
E0
E0
E0
E0
E0
F8
F8
ENDCHAR
STARTCHAR 005C
ENCODING 92
SWIDTH 585 0
DWIDTH 13 0
BBX 13 19 0 -4
BITMAP
E000
7000
3000
3800
1800
1C00
0C00
0E00
0600
0300
0380
0180
01C0
00C0
00E0
0060
0070
0030
0018
ENDCHAR
STARTCHAR 005D
ENCODING 93
SWIDTH 585 0
DWIDTH 13 0
BBX 5 19 3 -4
BITMAP
F8
38
38
38
38
38
38
38
38
38
38
38
38
38
38
38
38
F8
F8
ENDCHAR
STARTCHAR 005E
ENCODING 94
SWIDTH 585 0
DWIDTH 13 0
BBX 11 11 1 0
BITMAP
0E00
0F00
1F00
1B80
3B80
3980
31C0
70C0
60C0
E0E0
E060
ENDCHAR
STARTCHAR 005F
ENCODING 95
SWIDTH 585 0
DWIDTH 13 0
BBX 11 2 1 -3
BITMAP
FFE0
FFE0
ENDCHAR
STARTCHAR 0060
ENCODING 96
SWIDTH 585 0
DWIDTH 13 0
BBX 5 4 4 13
BITMAP
E0
70
30
38
ENDCHAR
STARTCHAR 0061
ENCODING 97
SWIDTH 585 0
DWIDTH 13 0
BBX 12 12 1 0
BITMAP
0E00
3F80
7FC0
F1E0
01E0
1FE0
7FE0
F1E0
F1E0
F3E0
FFF0
7EF0
ENDCHAR
STARTCHAR 0062
ENCODING 98
SWIDTH 585 0
DWIDTH 13 0
BBX 11 16 2 0
BITMAP
E000
E000
E000
E000
E600
FF80
FFC0
E1C0
E1C0
E1C0
E1E0
E1C0
E1C0
F3C0
FF80
FF00
ENDCHAR
STARTCHAR 0063
ENCODING 99
SWIDTH 585 0
DWIDTH 13 0
BBX 11 12 1 0
BITMAP
0E00
3F80
7FC0
F1E0
F0E0
F000
F000
F0E0
F0E0
71C0
7FC0
1F80
ENDCHAR
STARTCHAR 0064
ENCODING 100
SWIDTH 585 0
DWIDTH 13 0
BBX 11 16 1 0
BITMAP
01E0
01E0
01E0
01E0
09E0
3FE0
7FE0
F1E0
E1E0
E1E0
E1E0
E1E0
E1E0
F1E0
7FE0
3EE0
ENDCHAR
STARTCHAR 0065
ENCODING 101
SWIDTH 585 0
DWIDTH 13 0
BBX 11 12 1 0
BITMAP
0600
3F80
7FC0
F1E0
F0E0
FFE0
FFE0
F000
F0E0
71E0
7FC0
3F80
ENDCHAR
STARTCHAR 0066
ENCODING 102
SWIDTH 585 0
DWIDTH 13 0
BBX 10 16 2 0
BITMAP
0FC0
1FC0
1E40
1C00
1C00
FFC0
FFC0
1C00
1C00
1C00
1C00
1C00
1C00
FFC0
FFC0
FFC0
ENDCHAR
STARTCHAR 0067
ENCODING 103
SWIDTH 585 0
DWIDTH 13 0
BBX 12 17 1 -4
BITMAP
0070
0EE0
3FC0
79C0
70E0
70E0
79E0
3FC0
7F00
E000
FFC0
7FE0
7FF0
E070
E070
FFF0
7FE0
ENDCHAR
STARTCHAR 0068
ENCODING 104
SWIDTH 585 0
DWIDTH 13 0
BBX 10 16 2 0
BITMAP
E000
E000
E000
E000
E600
FF80
FFC0
E3C0
E3C0
E3C0
E3C0
E3C0
E3C0
E3C0
E3C0
E3C0
ENDCHAR
STARTCHAR 0069
ENCODING 105
SWIDTH 585 0
DWIDTH 13 0
BBX 11 16 2 0
BITMAP
0E00
0E00
0000
0000
0000
FE00
FE00
0E00
0E00
0E00
0E00
0E00
0E00
FFE0
FFE0
FFE0
ENDCHAR
STARTCHAR 006A
ENCODING 106
SWIDTH 585 0
DWIDTH 13 0
BBX 7 20 2 -4
BITMAP
0E
0E
00
00
00
FE
FE
0E
0E
0E
0E
0E
0E
0E
0E
0E
0E
9E
FC
F8
ENDCHAR
STARTCHAR 006B
ENCODING 107
SWIDTH 585 0
DWIDTH 13 0
BBX 12 16 1 0
BITMAP
F000
F000
F000
F000
F010
F1E0
F3C0
F380
F780
FF00
FF00
FF80
FF80
F3C0
F1E0
F1F0
ENDCHAR
STARTCHAR 006C
ENCODING 108
SWIDTH 585 0
DWIDTH 13 0
BBX 11 16 1 0
BITMAP
FF00
FF00
FF00
0F00
0F00
0F00
0F00
0F00
0F00
0F00
0F00
0F00
0F00
FFE0
FFE0
FFE0
ENDCHAR
STARTCHAR 006D
ENCODING 109
SWIDTH 585 0
DWIDTH 13 0
BBX 12 12 1 0
BITMAP
08C0
FDE0
FFE0
EE70
EE70
EE70
EE70
EE70
EE70
EE70
EE70
EE70
ENDCHAR
STARTCHAR 006E
ENCODING 110
SWIDTH 585 0
DWIDTH 13 0
BBX 10 12 2 0
BITMAP
0600
FF80
FFC0
E3C0
E3C0
E3C0
E3C0
E3C0
E3C0
E3C0
E3C0
E3C0
ENDCHAR
STARTCHAR 006F
ENCODING 111
SWIDTH 585 0
DWIDTH 13 0
BBX 11 12 1 0
BITMAP
0600
3F80
7FC0
F1E0
F0E0
F0E0
F0E0
F0E0
F0E0
71E0
7FC0
1F80
ENDCHAR
STARTCHAR 0070
ENCODING 112
SWIDTH 585 0
DWIDTH 13 0
BBX 11 16 2 -4
BITMAP
0600
FF80
FFC0
E1C0
E1C0
E1C0
E1E0
E1C0
E1C0
F3C0
FF80
FF00
E000
E000
E000
E000
ENDCHAR
STARTCHAR 0071
ENCODING 113
SWIDTH 585 0
DWIDTH 13 0
BBX 11 16 1 -4
BITMAP
0800
3EE0
7FE0
F1E0
E1E0
E1E0
E1E0
E1E0
E1E0
F1E0
7FE0
3FE0
01E0
01E0
01E0
01E0
ENDCHAR
STARTCHAR 0072
ENCODING 114
SWIDTH 585 0
DWIDTH 13 0
BBX 12 12 1 0
BITMAP
0080
FBE0
FFF0
3CF0
3C70
3C00
3C00
3C00
3C00
FFC0
FFC0
FFC0
ENDCHAR
STARTCHAR 0073
ENCODING 115
SWIDTH 585 0
DWIDTH 13 0
BBX 11 12 1 0
BITMAP
0E00
3FC0
7FC0
70E0
F800
7F80
3FE0
07E0
E0E0
F0E0
7FC0
3F80
ENDCHAR
STARTCHAR 0074
ENCODING 116
SWIDTH 585 0
DWIDTH 13 0
BBX 11 15 1 0
BITMAP
0C00
0C00
1C00
1C00
FFE0
FFE0
1C00
1C00
1C00
1C00
1C00
1E00
1F20
1FE0
07E0
ENDCHAR
STARTCHAR 0075
ENCODING 117
SWIDTH 585 0
DWIDTH 13 0
BBX 12 11 1 0
BITMAP
F1E0
F1E0
F1E0
F1E0
F1E0
F1E0
F1E0
F1E0
FBE0
7FF0
3EF0
ENDCHAR
STARTCHAR 0076
ENCODING 118
SWIDTH 585 0
DWIDTH 13 0
BBX 12 11 1 0
BITMAP
F0F0
F0E0
71E0
79C0
79C0
3BC0
3F80
3F80
1F80
1F00
1F00
ENDCHAR
STARTCHAR 0077
ENCODING 119
SWIDTH 585 0
DWIDTH 13 0
BBX 13 11 0 0
BITMAP
E738
E738
67B8
67B8
7FB0
7DB0
7DF0
7DF0
3DF0
3CF0
3CE0
ENDCHAR
STARTCHAR 0078
ENCODING 120
SWIDTH 585 0
DWIDTH 13 0
BBX 12 11 1 0
BITMAP
F1F0
79C0
3FC0
3F80
1F00
1F00
3F80
3BC0
7BC0
71E0
F1F0
ENDCHAR
STARTCHAR 0079
ENCODING 121
SWIDTH 585 0
DWIDTH 13 0
BBX 12 15 1 -4
BITMAP
F0F0
F0E0
71E0
79C0
39C0
3B80
3F80
1F80
1F00
0F00
0F00
0E00
9E00
7C00
7800
ENDCHAR
STARTCHAR 007A
ENCODING 122
SWIDTH 585 0
DWIDTH 13 0
BBX 9 11 2 0
BITMAP
FF80
FF80
0F00
0F00
1E00
1C00
3C00
7800
7800
FF80
FF80
ENDCHAR
STARTCHAR 007B
ENCODING 123
SWIDTH 585 0
DWIDTH 13 0
BBX 6 19 4 -4
BITMAP
3C
70
70
70
70
70
70
70
E0
E0
70
70
70
70
70
70
70
3C
0C
ENDCHAR
STARTCHAR 007C
ENCODING 124
SWIDTH 585 0
DWIDTH 13 0
BBX 2 20 6 -4
BITMAP
C0
C0
C0
C0
C0
C0
C0
C0
C0
C0
C0
C0
C0
C0
C0
C0
C0
C0
C0
C0
ENDCHAR
STARTCHAR 007D
ENCODING 125
SWIDTH 585 0
DWIDTH 13 0
BBX 6 19 4 -4
BITMAP
E0
70
70
70
70
70
30
30
3C
3C
30
30
70
70
70
70
70
F0
C0
ENDCHAR
STARTCHAR 007E
ENCODING 126
SWIDTH 585 0
DWIDTH 13 0
BBX 13 5 0 4
BITMAP
1808
7E18
FFF8
C1F0
8000
ENDCHAR
STARTCHAR 00A0
ENCODING 160
SWIDTH 585 0
DWIDTH 13 0
BBX 0 0 0 0
BITMAP
ENDCHAR
STARTCHAR 00A1
ENCODING 161
SWIDTH 585 0
DWIDTH 13 0
BBX 4 15 5 -4
BITMAP
F0
F0
F0
00
60
E0
E0
E0
E0
E0
E0
E0
F0
F0
F0
ENDCHAR
STARTCHAR 00A2
ENCODING 162
SWIDTH 585 0
DWIDTH 13 0
BBX 11 15 1 0
BITMAP
0600
0600
3F80
7FC0
70E0
F0E0
F000
F000
F000
F0E0
78E0
3FC0
1F80
0600
0600
ENDCHAR
STARTCHAR 00A3
ENCODING 163
SWIDTH 585 0
DWIDTH 13 0
BBX 13 16 0 0
BITMAP
0100
0FE0
1FF0
3C78
3C78
3C00
3C00
FF80
FF80
FF80
3C00
3C00
3800
7FF0
7FF0
7FF0
ENDCHAR
STARTCHAR 00A4
ENCODING 164
SWIDTH 585 0
DWIDTH 13 0
BBX 11 11 1 2
BITMAP
DF60
FFE0
71C0
E0E0
E060
C060
E060
60E0
71C0
FFE0
DF60
ENDCHAR
STARTCHAR 00A5
ENCODING 165
SWIDTH 585 0
DWIDTH 13 0
BBX 13 15 0 0
BITMAP
F078
7870
78F0
3CE0
3DE0
7FF8
7FF8
0F80
7FF8
7FF8
0780
0780
0780
0780
0780
ENDCHAR
STARTCHAR 00A6
ENCODING 166
SWIDTH 585 0
DWIDTH 13 0
BBX 2 20 6 -4
BITMAP
C0
C0
C0
C0
C0
C0
C0
C0
00
00
00
00
C0
C0
C0
C0
C0
C0
C0
C0
ENDCHAR
STARTCHAR 00A7
ENCODING 167
SWIDTH 585 0
DWIDTH 13 0
BBX 11 19 1 -4
BITMAP
3F80
7FC0
70E0
7000
7800
3E00
3F80
77C0
E1E0
E0E0
78E0
7EC0
1F80
07C0
01E0
00E0
71E0
7FC0
1F80
ENDCHAR
STARTCHAR 00A8
ENCODING 168
SWIDTH 585 0
DWIDTH 13 0
BBX 8 3 3 13
BITMAP
C7
C7
C7
ENDCHAR
STARTCHAR 00A9
ENCODING 169
SWIDTH 585 0
DWIDTH 13 0
BBX 13 15 0 0
BITMAP
1FC0
3060
6030
4F98
DDD8
D8C8
D808
D808
D8C8
DCC8
4FD8
4790
6030
3060
0FC0
ENDCHAR
STARTCHAR 00AA
ENCODING 170
SWIDTH 585 0
DWIDTH 13 0
BBX 8 7 3 8
BITMAP
7C
CE
3E
F6
CE
FF
66
ENDCHAR
STARTCHAR 00AB
ENCODING 171
SWIDTH 585 0
DWIDTH 13 0
BBX 11 7 1 4
BITMAP
1CE0
39C0
7380
F780
7380
39C0
1CE0
ENDCHAR
STARTCHAR 00AC
ENCODING 172
SWIDTH 585 0
DWIDTH 13 0
BBX 11 6 1 4
BITMAP
FFE0
FFE0
0060
0060
0060
0060
ENDCHAR
STARTCHAR 00AD
ENCODING 173
SWIDTH 585 0
DWIDTH 13 0
BBX 5 3 4 5
BITMAP
F8
F8
F8
ENDCHAR
STARTCHAR 00AE
ENCODING 174
SWIDTH 585 0
DWIDTH 13 0
BBX 13 15 0 0
BITMAP
1FC0
3060
6030
5FD8
DDD8
DCE8
DCC8
DF88
DCC8
DCC8
5CD8
5CF0
6030
3060
0FC0
ENDCHAR
STARTCHAR 00AF
ENCODING 175
SWIDTH 585 0
DWIDTH 13 0
BBX 7 1 3 14
BITMAP
FE
ENDCHAR
STARTCHAR 00B0
ENCODING 176
SWIDTH 585 0
DWIDTH 13 0
BBX 7 6 3 9
BITMAP
7C
E6
C6
C6
6E
7C
ENDCHAR
STARTCHAR 00B1
ENCODING 177
SWIDTH 585 0
DWIDTH 13 0
BBX 11 11 1 0
BITMAP
0E00
0E00
FFE0
FFE0
FFE0
0E00
0E00
0E00
0000
FFE0
FFE0
ENDCHAR
STARTCHAR 00B2
ENCODING 178
SWIDTH 585 0
DWIDTH 13 0
BBX 6 9 4 9
BITMAP
70
F8
8C
0C
18
70
E0
FC
FC
ENDCHAR
STARTCHAR 00B3
ENCODING 179
SWIDTH 585 0
DWIDTH 13 0
BBX 7 9 3 9
BITMAP
38
7C
46
0C
1C
06
C6
7E
38
ENDCHAR
STARTCHAR 00B4
ENCODING 180
SWIDTH 585 0
DWIDTH 13 0
BBX 5 4 4 13
BITMAP
38
70
70
E0
ENDCHAR
STARTCHAR 00B5
ENCODING 181
SWIDTH 585 0
DWIDTH 13 0
BBX 12 15 1 -4
BITMAP
F1E0
F1E0
F1E0
F1E0
F1E0
F1E0
F1E0
F1E0
FBE0
FFF0
FEF0
F000
F000
F000
F000
ENDCHAR
STARTCHAR 00B6
ENCODING 182
SWIDTH 585 0
DWIDTH 13 0
BBX 11 19 1 -4
BITMAP
3FE0
7C80
FC80
FC80
FC80
FC80
FC80
7C80
3C80
0C80
0C80
0C80
0C80
0C80
0C80
0C80
0C80
0C80
0C80
ENDCHAR
STARTCHAR 00B7
ENCODING 183
SWIDTH 585 0
DWIDTH 13 0
BBX 4 3 5 7
BITMAP
F0
F0
F0
ENDCHAR
STARTCHAR 00B8
ENCODING 184
SWIDTH 585 0
DWIDTH 13 0
BBX 5 4 4 -5
BITMAP
38
08
F8
70
ENDCHAR
STARTCHAR 00B9
ENCODING 185
SWIDTH 585 0
DWIDTH 13 0
BBX 5 9 4 9
BITMAP
30
F0
F0
30
30
30
30
F8
F8
ENDCHAR
STARTCHAR 00BA
ENCODING 186
SWIDTH 585 0
DWIDTH 13 0
BBX 7 8 3 8
BITMAP
10
7C
E6
C6
C6
E6
7C
18
ENDCHAR
STARTCHAR 00BB
ENCODING 187
SWIDTH 585 0
DWIDTH 13 0
BBX 10 7 2 4
BITMAP
E700
6300
7380
39C0
7380
7300
E700
ENDCHAR
STARTCHAR 00BC
ENCODING 188
SWIDTH 585 0
DWIDTH 13 0
BBX 13 16 0 0
BITMAP
1000
F018
F030
3060
3040
30C0
3180
FC60
FC50
00D0
0CB0
19B0
19F8
31F8
6030
C030
ENDCHAR
STARTCHAR 00BD
ENCODING 189
SWIDTH 585 0
DWIDTH 13 0
BBX 13 16 0 0
BITMAP
1000
F018
F030
3060
3040
30C0
3180
FC70
FCF8
0198
0C18
1838
1070
30C0
61F8
C1F8
ENDCHAR
STARTCHAR 00BE
ENCODING 190
SWIDTH 585 0
DWIDTH 13 0
BBX 13 16 0 0
BITMAP
3800
FC18
CC30
0C60
3840
0CC0
CD80
FC60
7850
00D0
0CB0
19B0
19F8
31F8
6030
C030
ENDCHAR
STARTCHAR 00BF
ENCODING 191
SWIDTH 585 0
DWIDTH 13 0
BBX 11 15 1 -4
BITMAP
0E00
0E00
0E00
0000
0E00
0E00
1E00
3C00
7800
F000
F0E0
F0E0
79E0
7FC0
1F00
ENDCHAR
STARTCHAR 00C0
ENCODING 192
SWIDTH 585 0
DWIDTH 13 0
BBX 13 20 0 0
BITMAP
1C00
0E00
0700
0000
0000
0F80
0F80
0FC0
1DC0
1DC0
1DE0
3DE0
38E0
38E0
3FF0
7FF0
7FF0
7078
7078
F078
ENDCHAR
STARTCHAR 00C1
ENCODING 193
SWIDTH 585 0
DWIDTH 13 0
BBX 13 20 0 0
BITMAP
01E0
0180
0380
0400
0000
0F80
0F80
0FC0
1DC0
1DC0
1DE0
3DE0
38E0
38E0
3FF0
7FF0
7FF0
7078
7078
F078
ENDCHAR
STARTCHAR 00C2
ENCODING 194
SWIDTH 585 0
DWIDTH 13 0
BBX 13 20 0 0
BITMAP
0700
0F80
1CC0
0020
0000
0F80
0F80
0FC0
1DC0
1DC0
1DE0
3DE0
38E0
38E0
3FF0
7FF0
7FF0
7078
7078
F078
ENDCHAR
STARTCHAR 00C3
ENCODING 195
SWIDTH 585 0
DWIDTH 13 0
BBX 13 20 0 0
BITMAP
0C60
1FE0
33C0
0000
0000
0F80
0F80
0FC0
1DC0
1DC0
1DE0
3DE0
38E0
38E0
3FF0
7FF0
7FF0
7078
7078
F078
ENDCHAR
STARTCHAR 00C4
ENCODING 196
SWIDTH 585 0
DWIDTH 13 0
BBX 13 20 0 0
BITMAP
18E0
18E0
18E0
0000
0000
0F80
0F80
0FC0
1DC0
1DC0
1DE0
3DE0
38E0
38E0
3FF0
7FF0
7FF0
7078
7078
F078
ENDCHAR
STARTCHAR 00C5
ENCODING 197
SWIDTH 585 0
DWIDTH 13 0
BBX 13 21 0 0
BITMAP
0700
0D80
0C80
0780
0000
0000
0F80
0F80
0FC0
1DC0
1DC0
1DE0
3DE0
38E0
38E0
3FF0
7FF0
7FF0
7078
7078
F078
ENDCHAR
STARTCHAR 00C6
ENCODING 198
SWIDTH 585 0
DWIDTH 13 0
BBX 13 15 0 0
BITMAP
0FF8
1FF8
1FF8
1F80
1F80
3B80
3BF0
3BF0
3BF0
7F80
7F80
7F80
73F8
F3F8
F3F8
ENDCHAR
STARTCHAR 00C7
ENCODING 199
SWIDTH 585 0
DWIDTH 13 0
BBX 13 20 0 -5
BITMAP
1FC0
3FE0
7CF0
7870
F070
F078
F000
F000
F000
F078
7070
7870
7FF0
3FE0
1FC0
0000
0380
0080
0F80
0700
ENDCHAR
STARTCHAR 00C8
ENCODING 200
SWIDTH 585 0
DWIDTH 13 0
BBX 10 20 2 0
BITMAP
7000
3800
1C00
0000
0000
FFC0
FFC0
FFC0
E000
E000
E000
FF80
FF80
FF80
E000
E000
E000
FFC0
FFC0
FFC0
ENDCHAR
STARTCHAR 00C9
ENCODING 201
SWIDTH 585 0
DWIDTH 13 0
BBX 10 20 2 0
BITMAP
0780
0700
0E00
1000
0000
FFC0
FFC0
FFC0
E000
E000
E000
FF80
FF80
FF80
E000
E000
E000
FFC0
FFC0
FFC0
ENDCHAR
STARTCHAR 00CA
ENCODING 202
SWIDTH 585 0
DWIDTH 13 0
BBX 10 20 2 0
BITMAP
1E00
3E00
7380
0000
0000
FFC0
FFC0
FFC0
E000
E000
E000
FF80
FF80
FF80
E000
E000
E000
FFC0
FFC0
FFC0
ENDCHAR
STARTCHAR 00CB
ENCODING 203
SWIDTH 585 0
DWIDTH 13 0
BBX 10 20 2 0
BITMAP
7380
7380
7380
0000
0000
FFC0
FFC0
FFC0
E000
E000
E000
FF80
FF80
FF80
E000
E000
E000
FFC0
FFC0
FFC0
ENDCHAR
STARTCHAR 00CC
ENCODING 204
SWIDTH 585 0
DWIDTH 13 0
BBX 10 20 2 0
BITMAP
7000
3800
1C00
0000
0000
FFC0
FFC0
1E00
1E00
1E00
1E00
1E00
1E00
1E00
1E00
1E00
1E00
FFC0
FFC0
FFC0
ENDCHAR
STARTCHAR 00CD
ENCODING 205
SWIDTH 585 0
DWIDTH 13 0
BBX 10 20 2 0
BITMAP
0780
0600
0E00
1000
0000
FFC0
FFC0
1E00
1E00
1E00
1E00
1E00
1E00
1E00
1E00
1E00
1E00
FFC0
FFC0
FFC0
ENDCHAR
STARTCHAR 00CE
ENCODING 206
SWIDTH 585 0
DWIDTH 13 0
BBX 10 20 2 0
BITMAP
1C00
3E00
7300
0080
0000
FFC0
FFC0
1E00
1E00
1E00
1E00
1E00
1E00
1E00
1E00
1E00
1E00
FFC0
FFC0
FFC0
ENDCHAR
STARTCHAR 00CF
ENCODING 207
SWIDTH 585 0
DWIDTH 13 0
BBX 10 20 2 0
BITMAP
6380
6380
6380
0000
0000
FFC0
FFC0
1E00
1E00
1E00
1E00
1E00
1E00
1E00
1E00
1E00
1E00
FFC0
FFC0
FFC0
ENDCHAR
STARTCHAR 00D0
ENCODING 208
SWIDTH 585 0
DWIDTH 13 0
BBX 13 15 0 0
BITMAP
7FC0
7FF0
7FF0
7878
7878
7878
FF78
FF78
FF78
7878
7878
7878
7FF0
7FE0
7FC0
ENDCHAR
STARTCHAR 00D1
ENCODING 209
SWIDTH 585 0
DWIDTH 13 0
BBX 11 20 1 0
BITMAP
18C0
3FC0
6780
0000
0000
F0E0
F0E0
F8E0
F8E0
FCE0
FCE0
FEE0
FEE0
F7E0
F7E0
F3E0
F3E0
F3E0
F1E0
F1E0
ENDCHAR
STARTCHAR 00D2
ENCODING 210
SWIDTH 585 0
DWIDTH 13 0
BBX 13 20 0 0
BITMAP
1C00
0E00
0700
0000
0000
1FC0
3FF0
7CF0
7878
F078
F078
F078
F078
F078
F078
7078
7878
7FF0
3FE0
1FC0
ENDCHAR
STARTCHAR 00D3
ENCODING 211
SWIDTH 585 0
DWIDTH 13 0
BBX 13 20 0 0
BITMAP
01E0
0180
0380
0400
0000
1FC0
3FF0
7CF0
7878
F078
F078
F078
F078
F078
F078
7078
7878
7FF0
3FE0
1FC0
ENDCHAR
STARTCHAR 00D4
ENCODING 212
SWIDTH 585 0
DWIDTH 13 0
BBX 13 20 0 0
BITMAP
0700
0F80
1CC0
0020
0000
1FC0
3FF0
7CF0
7878
F078
F078
F078
F078
F078
F078
7078
7878
7FF0
3FE0
1FC0
ENDCHAR
STARTCHAR 00D5
ENCODING 213
SWIDTH 585 0
DWIDTH 13 0
BBX 13 20 0 0
BITMAP
0C60
1FE0
33C0
0000
0000
1FC0
3FF0
7CF0
7878
F078
F078
F078
F078
F078
F078
7078
7878
7FF0
3FE0
1FC0
ENDCHAR
STARTCHAR 00D6
ENCODING 214
SWIDTH 585 0
DWIDTH 13 0
BBX 13 20 0 0
BITMAP
18E0
18E0
18E0
0000
0000
1FC0
3FF0
7CF0
7878
F078
F078
F078
F078
F078
F078
7078
7878
7FF0
3FE0
1FC0
ENDCHAR
STARTCHAR 00D7
ENCODING 215
SWIDTH 585 0
DWIDTH 13 0
BBX 10 10 2 1
BITMAP
4100
E180
F3C0
7F00
3E00
1E00
3F00
7780
E3C0
4180
ENDCHAR
STARTCHAR 00D8
ENCODING 216
SWIDTH 585 0
DWIDTH 13 0
BBX 13 18 0 -1
BITMAP
0018
0030
1FF0
3FF0
7CF0
78F8
F1F8
F1F8
F378
F378
F678
FC78
7C78
7878
7FF0
3FE0
7FC0
E000
ENDCHAR
STARTCHAR 00D9
ENCODING 217
SWIDTH 585 0
DWIDTH 13 0
BBX 11 20 1 0
BITMAP
3800
1C00
0E00
0000
0000
F0E0
F0E0
F0E0
F0E0
F0E0
F0E0
F0E0
F0E0
F0E0
F0E0
F0E0
F0E0
FFE0
7FC0
3F80
ENDCHAR
STARTCHAR 00DA
ENCODING 218
SWIDTH 585 0
DWIDTH 13 0
BBX 11 20 1 0
BITMAP
03C0
0300
0700
0800
0000
F0E0
F0E0
F0E0
F0E0
F0E0
F0E0
F0E0
F0E0
F0E0
F0E0
F0E0
F0E0
FFE0
7FC0
3F80
ENDCHAR
STARTCHAR 00DB
ENCODING 219
SWIDTH 585 0
DWIDTH 13 0
BBX 11 20 1 0
BITMAP
0E00
1F00
3980
0040
0000
F0E0
F0E0
F0E0
F0E0
F0E0
F0E0
F0E0
F0E0
F0E0
F0E0
F0E0
F0E0
FFE0
7FC0
3F80
ENDCHAR
STARTCHAR 00DC
ENCODING 220
SWIDTH 585 0
DWIDTH 13 0
BBX 11 20 1 0
BITMAP
31C0
31C0
31C0
0000
0000
F0E0
F0E0
F0E0
F0E0
F0E0
F0E0
F0E0
F0E0
F0E0
F0E0
F0E0
F0E0
FFE0
7FC0
3F80
ENDCHAR
STARTCHAR 00DD
ENCODING 221
SWIDTH 585 0
DWIDTH 13 0
BBX 13 20 0 0
BITMAP
01E0
0180
0380
0400
0000
F078
7870
78F0
3CE0
3DE0
1FC0
1FC0
0FC0
0F80
0780
0780
0780
0780
0780
0780
ENDCHAR
STARTCHAR 00DE
ENCODING 222
SWIDTH 585 0
DWIDTH 13 0
BBX 12 15 1 0
BITMAP
F000
F000
FF80
FFE0
FFE0
F0F0
F0F0
F0F0
F0F0
FFE0
FFC0
FF00
F000
F000
F000
ENDCHAR
STARTCHAR 00DF
ENCODING 223
SWIDTH 585 0
DWIDTH 13 0
BBX 13 17 0 -1
BITMAP
0FC0
1FE0
3FF0
3870
3870
F870
FBE0
3BC0
3BF0
3878
3878
3878
3878
3BF0
3BF0
3BC0
3800
ENDCHAR
STARTCHAR 00E0
ENCODING 224
SWIDTH 585 0
DWIDTH 13 0
BBX 12 17 1 0
BITMAP
3800
1C00
0C00
0E00
0000
0E00
3F80
7FC0
F1E0
01E0
1FE0
7FE0
F1E0
F1E0
F3E0
FFF0
7EF0
ENDCHAR
STARTCHAR 00E1
ENCODING 225
SWIDTH 585 0
DWIDTH 13 0
BBX 12 17 1 0
BITMAP
0780
0700
0E00
0C00
0000
0E00
3F80
7FC0
F1E0
01E0
1FE0
7FE0
F1E0
F1E0
F3E0
FFF0
7EF0
ENDCHAR
STARTCHAR 00E2
ENCODING 226
SWIDTH 585 0
DWIDTH 13 0
BBX 12 17 1 0
BITMAP
0E00
1F00
3B80
71C0
0000
0E00
3F80
7FC0
F1E0
01E0
1FE0
7FE0
F1E0
F1E0
F3E0
FFF0
7EF0
ENDCHAR
STARTCHAR 00E3
ENCODING 227
SWIDTH 585 0
DWIDTH 13 0
BBX 12 17 1 0
BITMAP
10C0
3CC0
7F80
6380
0000
0E00
3F80
7FC0
F1E0
01E0
1FE0
7FE0
F1E0
F1E0
F3E0
FFF0
7EF0
ENDCHAR
STARTCHAR 00E4
ENCODING 228
SWIDTH 585 0
DWIDTH 13 0
BBX 12 16 1 0
BITMAP
7180
7180
7180
0000
0E00
3F80
7FC0
F1E0
01E0
1FE0
7FE0
F1E0
F1E0
F3E0
FFF0
7EF0
ENDCHAR
STARTCHAR 00E5
ENCODING 229
SWIDTH 585 0
DWIDTH 13 0
BBX 12 17 1 0
BITMAP
1E00
1B00
1B00
0E00
0000
0E00
3F80
7FC0
F1E0
01E0
1FE0
7FE0
F1E0
F1E0
F3E0
FFF0
7EF0
ENDCHAR
STARTCHAR 00E6
ENCODING 230
SWIDTH 585 0
DWIDTH 13 0
BBX 13 12 0 0
BITMAP
1840
7FF0
7FF8
6718
0718
3FF8
7FF8
E700
E718
E7B8
FDF8
7DF0
ENDCHAR
STARTCHAR 00E7
ENCODING 231
SWIDTH 585 0
DWIDTH 13 0
BBX 11 17 1 -5
BITMAP
0E00
3F80
7FC0
F1E0
F0E0
F000
F000
F0E0
F0E0
71C0
7FC0
1F80
0000
0700
0100
1F00
0E00
ENDCHAR
STARTCHAR 00E8
ENCODING 232
SWIDTH 585 0
DWIDTH 13 0
BBX 11 17 1 0
BITMAP
1C00
1C00
0E00
0700
0000
0600
3F80
7FC0
F1E0
F0E0
FFE0
FFE0
F000
F0E0
71E0
7FC0
3F80
ENDCHAR
STARTCHAR 00E9
ENCODING 233
SWIDTH 585 0
DWIDTH 13 0
BBX 11 17 1 0
BITMAP
0380
0700
0600
0E00
0000
0600
3F80
7FC0
F1E0
F0E0
FFE0
FFE0
F000
F0E0
71E0
7FC0
3F80
ENDCHAR
STARTCHAR 00EA
ENCODING 234
SWIDTH 585 0
DWIDTH 13 0
BBX 11 17 1 0
BITMAP
0F00
1F00
1B80
39C0
0000
0600
3F80
7FC0
F1E0
F0E0
FFE0
FFE0
F000
F0E0
71E0
7FC0
3F80
ENDCHAR
STARTCHAR 00EB
ENCODING 235
SWIDTH 585 0
DWIDTH 13 0
BBX 11 16 1 0
BITMAP
39C0
39C0
39C0
0000
0600
3F80
7FC0
F1E0
F0E0
FFE0
FFE0
F000
F0E0
71E0
7FC0
3F80
ENDCHAR
STARTCHAR 00EC
ENCODING 236
SWIDTH 585 0
DWIDTH 13 0
BBX 11 17 2 0
BITMAP
3800
1C00
1C00
0E00
0000
0000
FE00
FE00
0E00
0E00
0E00
0E00
0E00
0E00
FFE0
FFE0
FFE0
ENDCHAR
STARTCHAR 00ED
ENCODING 237
SWIDTH 585 0
DWIDTH 13 0
BBX 11 17 2 0
BITMAP
0700
0700
0E00
1C00
0000
0000
FE00
FE00
0E00
0E00
0E00
0E00
0E00
0E00
FFE0
FFE0
FFE0
ENDCHAR
STARTCHAR 00EE
ENCODING 238
SWIDTH 585 0
DWIDTH 13 0
BBX 11 17 2 0
BITMAP
0E00
1F00
3B00
7380
0040
0000
FE00
FE00
0E00
0E00
0E00
0E00
0E00
0E00
FFE0
FFE0
FFE0
ENDCHAR
STARTCHAR 00EF
ENCODING 239
SWIDTH 585 0
DWIDTH 13 0
BBX 11 16 2 0
BITMAP
7380
7380
7380
0000
0000
FE00
FE00
0E00
0E00
0E00
0E00
0E00
0E00
FFE0
FFE0
FFE0
ENDCHAR
STARTCHAR 00F0
ENCODING 240
SWIDTH 585 0
DWIDTH 13 0
BBX 12 16 1 0
BITMAP
7B00
1E00
7F00
2780
03C0
3FC0
7FE0
F1E0
F0E0
F0E0
F0F0
F0E0
F0E0
71E0
7FC0
1F80
ENDCHAR
STARTCHAR 00F1
ENCODING 241
SWIDTH 585 0
DWIDTH 13 0
BBX 10 17 2 0
BITMAP
3080
7D80
FF80
C700
0000
0600
FF80
FFC0
E3C0
E3C0
E3C0
E3C0
E3C0
E3C0
E3C0
E3C0
E3C0
ENDCHAR
STARTCHAR 00F2
ENCODING 242
SWIDTH 585 0
DWIDTH 13 0
BBX 11 17 1 0
BITMAP
3C00
1C00
0E00
0600
0000
0600
3F80
7FC0
F1E0
F0E0
F0E0
F0E0
F0E0
F0E0
71E0
7FC0
1F80
ENDCHAR
STARTCHAR 00F3
ENCODING 243
SWIDTH 585 0
DWIDTH 13 0
BBX 11 17 1 0
BITMAP
0380
0700
0600
0E00
0000
0600
3F80
7FC0
F1E0
F0E0
F0E0
F0E0
F0E0
F0E0
71E0
7FC0
1F80
ENDCHAR
STARTCHAR 00F4
ENCODING 244
SWIDTH 585 0
DWIDTH 13 0
BBX 11 17 1 0
BITMAP
0E00
1F00
1B80
31C0
4000
0600
3F80
7FC0
F1E0
F0E0
F0E0
F0E0
F0E0
F0E0
71E0
7FC0
1F80
ENDCHAR
STARTCHAR 00F5
ENCODING 245
SWIDTH 585 0
DWIDTH 13 0
BBX 11 17 1 0
BITMAP
1040
3EC0
7FC0
6380
0000
0600
3F80
7FC0
F1E0
F0E0
F0E0
F0E0
F0E0
F0E0
71E0
7FC0
1F80
ENDCHAR
STARTCHAR 00F6
ENCODING 246
SWIDTH 585 0
DWIDTH 13 0
BBX 11 16 1 0
BITMAP
31C0
31C0
31C0
0000
0600
3F80
7FC0
F1E0
F0E0
F0E0
F0E0
F0E0
F0E0
71E0
7FC0
1F80
ENDCHAR
STARTCHAR 00F7
ENCODING 247
SWIDTH 585 0
DWIDTH 13 0
BBX 11 10 1 1
BITMAP
0E00
0E00
0E00
0000
FFE0
FFE0
FFE0
0000
0E00
0E00
ENDCHAR
STARTCHAR 00F8
ENCODING 248
SWIDTH 585 0
DWIDTH 13 0
BBX 11 14 1 -1
BITMAP
0060
06C0
3FC0
7FC0
F3E0
F3E0
F6E0
F4E0
FCE0
F8E0
71E0
7FC0
7F80
E000
ENDCHAR
STARTCHAR 00F9
ENCODING 249
SWIDTH 585 0
DWIDTH 13 0
BBX 12 17 1 0
BITMAP
3800
1C00
0C00
0600
0000
0000
F1E0
F1E0
F1E0
F1E0
F1E0
F1E0
F1E0
F1E0
FBE0
7FF0
3EF0
ENDCHAR
STARTCHAR 00FA
ENCODING 250
SWIDTH 585 0
DWIDTH 13 0
BBX 12 17 1 0
BITMAP
0380
0700
0600
0C00
0000
0000
F1E0
F1E0
F1E0
F1E0
F1E0
F1E0
F1E0
F1E0
FBE0
7FF0
3EF0
ENDCHAR
STARTCHAR 00FB
ENCODING 251
SWIDTH 585 0
DWIDTH 13 0
BBX 12 17 1 0
BITMAP
0E00
1F00
3B80
71C0
0000
0000
F1E0
F1E0
F1E0
F1E0
F1E0
F1E0
F1E0
F1E0
FBE0
7FF0
3EF0
ENDCHAR
STARTCHAR 00FC
ENCODING 252
SWIDTH 585 0
DWIDTH 13 0
BBX 12 16 1 0
BITMAP
71C0
71C0
71C0
0000
0000
F1E0
F1E0
F1E0
F1E0
F1E0
F1E0
F1E0
F1E0
FBE0
7FF0
3EF0
ENDCHAR
STARTCHAR 00FD
ENCODING 253
SWIDTH 585 0
DWIDTH 13 0
BBX 12 21 1 -4
BITMAP
0380
0700
0700
0E00
0000
0010
F0E0
F0E0
71E0
79C0
39C0
3B80
3F80
1F80
1F00
0F00
0F00
0E00
9E00
7C00
7800
ENDCHAR
STARTCHAR 00FE
ENCODING 254
SWIDTH 585 0
DWIDTH 13 0
BBX 11 20 2 -4
BITMAP
E000
E000
E000
E000
E600
FF80
FFC0
E1C0
E1C0
E1C0
E1E0
E1C0
E1C0
F3C0
FF80
EF00
E000
E000
E000
E000
ENDCHAR
STARTCHAR 00FF
ENCODING 255
SWIDTH 585 0
DWIDTH 13 0
BBX 12 20 1 -4
BITMAP
39C0
39C0
39C0
0000
0010
F0E0
F0E0
71E0
79C0
39C0
3B80
3F80
1F80
1F00
0F00
0F00
0E00
9E00
7C00
7800
ENDCHAR
STARTCHAR 0152
ENCODING 140
SWIDTH 585 0
DWIDTH 13 0
BBX 13 15 0 0
BITMAP
1FF8
3FF8
7FF0
71C0
F1C0
F1C0
F1F0
F1F0
F1F0
F1C0
F1C0
71C0
7FF8
3FF8
1FF8
ENDCHAR
STARTCHAR 0153
ENCODING 156
SWIDTH 585 0
DWIDTH 13 0
BBX 13 12 0 0
BITMAP
1840
7DF0
7FF8
E718
E718
E7F8
E7F8
E700
E718
E7B8
7FF8
3DF0
ENDCHAR
STARTCHAR 0160
ENCODING 138
SWIDTH 585 0
DWIDTH 13 0
BBX 13 20 0 0
BITMAP
18E0
0DC0
0F80
0000
0000
1FE0
3FF0
78F0
7878
7800
7E00
7FE0
3FF0
07F8
00F8
F078
7078
7FF0
3FF0
1FC0
ENDCHAR
STARTCHAR 0161
ENCODING 154
SWIDTH 585 0
DWIDTH 13 0
BBX 11 17 1 0
BITMAP
71C0
3B80
1F00
0E00
0000
0E00
3FC0
7FC0
70E0
F800
7F80
3FE0
07E0
E0E0
F0E0
7FC0
3F80
ENDCHAR
STARTCHAR 0178
ENCODING 159
SWIDTH 585 0
DWIDTH 13 0
BBX 13 20 0 0
BITMAP
18E0
18E0
18E0
0000
0000
F078
7870
78F0
3CE0
3DE0
1FC0
1FC0
0FC0
0F80
0780
0780
0780
0780
0780
0780
ENDCHAR
STARTCHAR 017D
ENCODING 142
SWIDTH 585 0
DWIDTH 13 0
BBX 12 20 1 0
BITMAP
31C0
1B80
1F00
0000
0000
FFF0
FFE0
FFE0
03C0
0780
0780
0F00
1F00
1E00
3C00
3C00
7800
FFF0
FFF0
FFF0
ENDCHAR
STARTCHAR 017E
ENCODING 158
SWIDTH 585 0
DWIDTH 13 0
BBX 9 17 2 0
BITMAP
E380
7700
3E00
1C00
0000
0000
FF80
FF80
0F00
0F00
1E00
1C00
3C00
7800
7800
FF80
FF80
ENDCHAR
STARTCHAR 0192
ENCODING 131
SWIDTH 585 0
DWIDTH 13 0
BBX 11 20 1 -4
BITMAP
03E0
07E0
0700
0700
0F20
1FC0
1FC0
0E00
0E00
0E00
0E00
1E00
1E00
1E00
1C00
1C00
1C00
3C00
FC00
F800
ENDCHAR
STARTCHAR 02C6
ENCODING 136
SWIDTH 585 0
DWIDTH 13 0
BBX 9 4 2 13
BITMAP
1C00
3E00
3700
E380
ENDCHAR
STARTCHAR 02DC
ENCODING 152
SWIDTH 585 0
DWIDTH 13 0
BBX 9 4 2 13
BITMAP
2080
7D80
FF80
C700
ENDCHAR
STARTCHAR 2013
ENCODING 150
SWIDTH 585 0
DWIDTH 13 0
BBX 9 3 2 5
BITMAP
FF80
FF80
FF80
ENDCHAR
STARTCHAR 2014
ENCODING 151
SWIDTH 585 0
DWIDTH 13 0
BBX 13 3 0 5
BITMAP
FFF8
FFF8
FFF8
ENDCHAR
STARTCHAR 2018
ENCODING 145
SWIDTH 585 0
DWIDTH 13 0
BBX 3 8 5 8
BITMAP
60
60
C0
C0
E0
E0
E0
E0
ENDCHAR
STARTCHAR 2019
ENCODING 146
SWIDTH 585 0
DWIDTH 13 0
BBX 3 8 5 8
BITMAP
E0
E0
E0
E0
60
60
60
C0
ENDCHAR
STARTCHAR 201A
ENCODING 130
SWIDTH 585 0
DWIDTH 13 0
BBX 3 8 5 -4
BITMAP
E0
E0
E0
E0
60
60
60
C0
ENDCHAR
STARTCHAR 201C
ENCODING 147
SWIDTH 585 0
DWIDTH 13 0
BBX 9 8 2 8
BITMAP
3180
6300
6300
C300
F780
F780
F780
F780
ENDCHAR
STARTCHAR 201D
ENCODING 148
SWIDTH 585 0
DWIDTH 13 0
BBX 9 8 2 8
BITMAP
F780
F780
F780
F780
3180
3180
6300
E700
ENDCHAR
STARTCHAR 201E
ENCODING 132
SWIDTH 585 0
DWIDTH 13 0
BBX 9 8 2 -4
BITMAP
F780
F780
F780
F780
3180
3180
6300
E700
ENDCHAR
STARTCHAR 2020
ENCODING 134
SWIDTH 585 0
DWIDTH 13 0
BBX 11 19 1 -4
BITMAP
0E00
0E00
0600
0600
FFE0
FFE0
0600
0600
0600
0600
0600
0600
0600
0E00
0E00
0E00
0E00
0E00
0E00
ENDCHAR
STARTCHAR 2021
ENCODING 135
SWIDTH 585 0
DWIDTH 13 0
BBX 11 19 1 -4
BITMAP
0E00
0E00
0600
0600
FFE0
FFE0
0600
0600
0E00
0E00
0E00
0600
C660
FFE0
FFE0
0600
0600
0E00
0E00
ENDCHAR
STARTCHAR 2022
ENCODING 149
SWIDTH 585 0
DWIDTH 13 0
BBX 7 7 3 4
BITMAP
7C
7E
FE
FE
FE
7E
38
ENDCHAR
STARTCHAR 2026
ENCODING 133
SWIDTH 585 0
DWIDTH 13 0
BBX 12 3 1 0
BITMAP
EE70
EE70
EE70
ENDCHAR
STARTCHAR 2030
ENCODING 137
SWIDTH 585 0
DWIDTH 13 0
BBX 13 15 0 0
BITMAP
3C00
6C00
6400
6400
6C00
7C00
0000
FFF8
1860
7DF0
6598
6598
6598
6DB0
38F0
ENDCHAR
STARTCHAR 2039
ENCODING 139
SWIDTH 585 0
DWIDTH 13 0
BBX 5 7 4 4
BITMAP
38
70
70
E0
70
70
38
ENDCHAR
STARTCHAR 203A
ENCODING 155
SWIDTH 585 0
DWIDTH 13 0
BBX 5 7 4 4
BITMAP
E0
70
38
38
38
70
E0
ENDCHAR
STARTCHAR 20AC
ENCODING 128
SWIDTH 585 0
DWIDTH 13 0
BBX 11 15 1 0
BITMAP
07E0
0FE0
1FA0
3C00
3C00
FF80
FF80
7800
FF80
FF80
3C00
3E00
1FE0
0FE0
07E0
ENDCHAR
STARTCHAR 2122
ENCODING 153
SWIDTH 585 0
DWIDTH 13 0
BBX 13 9 0 6
BITMAP
FF38
FF38
27B8
27B8
27B8
27F8
26F8
26D8
26D8
ENDCHAR
ENDFONT
