STARTFONT 2.1
COMMENT
COMMENT Converted from OpenType font "ChivoMono-Bold.ttf" by "otf2bdf 3.0".
COMMENT
FONT -FreeType-chivo mono-Bold-R-Normal--17-120-100-100-P-82-Windows-cp1252
SIZE 12 100 100
FONTBOUNDINGBOX 10 20 0 -4
STARTPROPERTIES 19
FOUNDRY "FreeType"
FAMILY_NAME "chivo mono"
WEIGHT_NAME "Bold"
SLANT "R"
SETWIDTH_NAME "Normal"
ADD_STYLE_NAME ""
PIXEL_SIZE 17
POINT_SIZE 120
RESOLUTION_X 100
RESOLUTION_Y 100
SPACING "P"
AVERAGE_WIDTH 82
CHARSET_REGISTRY "Windows"
CHARSET_ENCODING "cp1252"
FONT_ASCENT 15
FONT_DESCENT 4
COPYRIGHT "Copyright 2018 The Chivo Project Authors (https://github.com/Omnibus-Type/Chivo)"
_OTF_FONTFILE "ChivoMono-Bold.ttf"
_OTF_PSNAME "ChivoMono-Bold"
ENDPROPERTIES
CHARS 219
STARTCHAR 000D
ENCODING 13
SWIDTH 600 0
DWIDTH 10 0
BBX 0 0 0 0
BITMAP
ENDCHAR
STARTCHAR 0020
ENCODING 32
SWIDTH 600 0
DWIDTH 10 0
BBX 0 0 0 0
BITMAP
ENDCHAR
STARTCHAR 0021
ENCODING 33
SWIDTH 600 0
DWIDTH 10 0
BBX 4 11 3 0
BITMAP
F0
60
60
60
60
60
60
00
60
60
60
ENDCHAR
STARTCHAR 0022
ENCODING 34
SWIDTH 600 0
DWIDTH 10 0
BBX 6 4 2 7
BITMAP
CC
CC
CC
48
ENDCHAR
STARTCHAR 0023
ENCODING 35
SWIDTH 600 0
DWIDTH 10 0
BBX 10 12 0 0
BITMAP
0980
1980
1980
1900
7FC0
1300
3300
3300
FF80
2600
6600
6600
ENDCHAR
STARTCHAR 0024
ENCODING 36
SWIDTH 600 0
DWIDTH 10 0
BBX 8 14 1 -1
BITMAP
18
18
7E
FF
C3
E0
FC
7F
07
C3
E7
FF
3C
18
ENDCHAR
STARTCHAR 0025
ENCODING 37
SWIDTH 600 0
DWIDTH 10 0
BBX 10 11 0 0
BITMAP
F0C0
9180
9300
9200
F400
0180
1AC0
1240
2240
6240
C380
ENDCHAR
STARTCHAR 0026
ENCODING 38
SWIDTH 600 0
DWIDTH 10 0
BBX 10 12 0 0
BITMAP
0C00
3C00
7400
6180
7180
3FC0
3FC0
7380
E380
E380
7F80
3F80
ENDCHAR
STARTCHAR 0027
ENCODING 39
SWIDTH 600 0
DWIDTH 10 0
BBX 2 4 4 7
BITMAP
C0
C0
C0
C0
ENDCHAR
STARTCHAR 0028
ENCODING 40
SWIDTH 600 0
DWIDTH 10 0
BBX 4 14 3 -3
BITMAP
30
20
60
60
60
C0
C0
C0
E0
60
60
60
30
10
ENDCHAR
STARTCHAR 0029
ENCODING 41
SWIDTH 600 0
DWIDTH 10 0
BBX 4 14 3 -3
BITMAP
C0
40
60
60
60
30
30
30
70
60
60
60
C0
80
ENDCHAR
STARTCHAR 002A
ENCODING 42
SWIDTH 600 0
DWIDTH 10 0
BBX 8 6 1 5
BITMAP
18
5A
FF
18
3C
66
ENDCHAR
STARTCHAR 002B
ENCODING 43
SWIDTH 600 0
DWIDTH 10 0
BBX 8 9 1 0
BITMAP
18
18
18
18
FF
FF
18
18
18
ENDCHAR
STARTCHAR 002C
ENCODING 44
SWIDTH 600 0
DWIDTH 10 0
BBX 2 6 4 -3
BITMAP
C0
C0
C0
40
40
80
ENDCHAR
STARTCHAR 002D
ENCODING 45
SWIDTH 600 0
DWIDTH 10 0
BBX 4 3 3 3
BITMAP
F0
F0
F0
ENDCHAR
STARTCHAR 002E
ENCODING 46
SWIDTH 600 0
DWIDTH 10 0
BBX 2 3 4 0
BITMAP
C0
C0
C0
ENDCHAR
STARTCHAR 002F
ENCODING 47
SWIDTH 600 0
DWIDTH 10 0
BBX 10 14 0 -3
BITMAP
00C0
0180
0300
0300
0600
0600
0C00
0800
1800
1000
3000
6000
6000
C000
ENDCHAR
STARTCHAR 0030
ENCODING 48
SWIDTH 600 0
DWIDTH 10 0
BBX 8 12 1 0
BITMAP
18
7E
E7
C3
C3
C3
C3
C3
C3
E7
FF
7E
ENDCHAR
STARTCHAR 0031
ENCODING 49
SWIDTH 600 0
DWIDTH 10 0
BBX 8 12 1 0
BITMAP
0C
3C
FC
1C
1C
1C
1C
1C
1C
1C
FF
FF
ENDCHAR
STARTCHAR 0032
ENCODING 50
SWIDTH 600 0
DWIDTH 10 0
BBX 8 12 1 0
BITMAP
18
7E
FF
C7
C3
07
0E
3C
78
E0
FF
FF
ENDCHAR
STARTCHAR 0033
ENCODING 51
SWIDTH 600 0
DWIDTH 10 0
BBX 9 12 0 0
BITMAP
0C00
3F00
7780
6380
0380
1F00
1F00
0380
8180
6380
7F80
3F00
ENDCHAR
STARTCHAR 0034
ENCODING 52
SWIDTH 600 0
DWIDTH 10 0
BBX 10 12 0 0
BITMAP
1C00
1C00
1900
3B00
3300
7700
6700
FFC0
FFC0
0700
0700
0700
ENDCHAR
STARTCHAR 0035
ENCODING 53
SWIDTH 600 0
DWIDTH 10 0
BBX 8 11 1 0
BITMAP
7F
FF
E0
C8
FE
E7
03
C3
C7
FF
7E
ENDCHAR
STARTCHAR 0036
ENCODING 54
SWIDTH 600 0
DWIDTH 10 0
BBX 9 12 1 0
BITMAP
1800
7E00
F700
E300
E000
FE00
E700
E300
E380
E300
7F00
3E00
ENDCHAR
STARTCHAR 0037
ENCODING 55
SWIDTH 600 0
DWIDTH 10 0
BBX 8 11 1 0
BITMAP
FF
FF
06
0C
0C
18
38
38
38
30
70
ENDCHAR
STARTCHAR 0038
ENCODING 56
SWIDTH 600 0
DWIDTH 10 0
BBX 8 12 1 0
BITMAP
18
7E
E7
C3
E7
7E
7E
E7
C3
E3
FF
7E
ENDCHAR
STARTCHAR 0039
ENCODING 57
SWIDTH 600 0
DWIDTH 10 0
BBX 8 12 1 0
BITMAP
18
7E
E7
C7
C3
C7
FF
3B
C3
C7
FE
7C
ENDCHAR
STARTCHAR 003A
ENCODING 58
SWIDTH 600 0
DWIDTH 10 0
BBX 2 9 4 0
BITMAP
C0
C0
C0
00
00
00
C0
C0
C0
ENDCHAR
STARTCHAR 003B
ENCODING 59
SWIDTH 600 0
DWIDTH 10 0
BBX 2 12 4 -3
BITMAP
C0
C0
C0
00
00
00
C0
C0
C0
40
40
80
ENDCHAR
STARTCHAR 003C
ENCODING 60
SWIDTH 600 0
DWIDTH 10 0
BBX 8 9 1 0
BITMAP
01
07
1F
F8
C0
F0
7C
0F
01
ENDCHAR
STARTCHAR 003D
ENCODING 61
SWIDTH 600 0
DWIDTH 10 0
BBX 8 5 1 2
BITMAP
FF
FF
00
00
FF
ENDCHAR
STARTCHAR 003E
ENCODING 62
SWIDTH 600 0
DWIDTH 10 0
BBX 8 9 1 0
BITMAP
80
E0
F8
1F
03
0F
3E
F0
80
ENDCHAR
STARTCHAR 003F
ENCODING 63
SWIDTH 600 0
DWIDTH 10 0
BBX 8 12 1 0
BITMAP
18
7E
E7
C7
07
0F
1C
18
00
1C
1C
1C
ENDCHAR
STARTCHAR 0040
ENCODING 64
SWIDTH 600 0
DWIDTH 10 0
BBX 10 15 0 -3
BITMAP
0C00
3300
4080
4CC0
9F40
B340
8340
9F40
BB40
B340
BFC0
5D80
4000
2100
1E00
ENDCHAR
STARTCHAR 0041
ENCODING 65
SWIDTH 600 0
DWIDTH 10 0
BBX 10 11 0 0
BITMAP
1E00
1E00
3F00
3700
3300
3300
7380
7F80
7F80
61C0
E1C0
ENDCHAR
STARTCHAR 0042
ENCODING 66
SWIDTH 600 0
DWIDTH 10 0
BBX 9 11 1 0
BITMAP
FF00
FF00
C300
C700
FE00
FE00
C700
C380
C700
FF00
FE00
ENDCHAR
STARTCHAR 0043
ENCODING 67
SWIDTH 600 0
DWIDTH 10 0
BBX 9 12 0 0
BITMAP
0C00
3F00
7F80
6180
E180
E000
E000
E180
E180
7380
7F80
3F00
ENDCHAR
STARTCHAR 0044
ENCODING 68
SWIDTH 600 0
DWIDTH 10 0
BBX 9 11 1 0
BITMAP
FE00
FF00
E380
E380
E380
E380
E380
E380
E780
FF00
FE00
ENDCHAR
STARTCHAR 0045
ENCODING 69
SWIDTH 600 0
DWIDTH 10 0
BBX 8 11 1 0
BITMAP
FF
FF
E0
E0
FF
FF
E0
E0
E0
FF
FF
ENDCHAR
STARTCHAR 0046
ENCODING 70
SWIDTH 600 0
DWIDTH 10 0
BBX 8 11 1 0
BITMAP
FF
FF
E0
E0
FE
FE
E0
E0
E0
E0
E0
ENDCHAR
STARTCHAR 0047
ENCODING 71
SWIDTH 600 0
DWIDTH 10 0
BBX 10 12 0 0
BITMAP
0C00
3F00
7F80
E180
E180
E000
E780
E780
E180
7380
7F80
3EC0
ENDCHAR
STARTCHAR 0048
ENCODING 72
SWIDTH 600 0
DWIDTH 10 0
BBX 8 11 1 0
BITMAP
E7
E7
E7
E7
FF
FF
E7
E7
E7
E7
E7
ENDCHAR
STARTCHAR 0049
ENCODING 73
SWIDTH 600 0
DWIDTH 10 0
BBX 8 11 1 0
BITMAP
FF
FF
18
18
18
18
18
18
18
FF
FF
ENDCHAR
STARTCHAR 004A
ENCODING 74
SWIDTH 600 0
DWIDTH 10 0
BBX 8 11 1 0
BITMAP
07
07
07
07
07
07
07
E7
E7
7E
7E
ENDCHAR
STARTCHAR 004B
ENCODING 75
SWIDTH 600 0
DWIDTH 10 0
BBX 9 11 1 0
BITMAP
E780
E700
EE00
EE00
FC00
FC00
FC00
EE00
EF00
E700
E380
ENDCHAR
STARTCHAR 004C
ENCODING 76
SWIDTH 600 0
DWIDTH 10 0
BBX 8 11 1 0
BITMAP
E0
E0
E0
E0
E0
E0
E0
E0
E0
FF
FF
ENDCHAR
STARTCHAR 004D
ENCODING 77
SWIDTH 600 0
DWIDTH 10 0
BBX 8 11 1 0
BITMAP
E7
E7
E7
FF
FF
FF
FB
FB
DB
DB
DB
ENDCHAR
STARTCHAR 004E
ENCODING 78
SWIDTH 600 0
DWIDTH 10 0
BBX 8 11 1 0
BITMAP
E3
E3
F3
F3
FB
DB
DF
CF
CF
C7
C7
ENDCHAR
STARTCHAR 004F
ENCODING 79
SWIDTH 600 0
DWIDTH 10 0
BBX 10 12 0 0
BITMAP
0C00
3F00
7F80
61C0
E1C0
E1C0
E1C0
E1C0
E1C0
7380
7F80
3F00
ENDCHAR
STARTCHAR 0050
ENCODING 80
SWIDTH 600 0
DWIDTH 10 0
BBX 9 11 1 0
BITMAP
FF00
FF00
E380
E380
E780
FF00
FE00
E000
E000
E000
E000
ENDCHAR
STARTCHAR 0051
ENCODING 81
SWIDTH 600 0
DWIDTH 10 0
BBX 10 15 0 -3
BITMAP
0C00
3F00
7F80
61C0
E1C0
E1C0
E1C0
E1C0
E1C0
7380
7F80
3F00
0E40
07C0
0100
ENDCHAR
STARTCHAR 0052
ENCODING 82
SWIDTH 600 0
DWIDTH 10 0
BBX 9 11 1 0
BITMAP
FF00
FF80
E380
E380
E700
FE00
FF00
E700
E300
E380
E380
ENDCHAR
STARTCHAR 0053
ENCODING 83
SWIDTH 600 0
DWIDTH 10 0
BBX 10 12 0 0
BITMAP
0C00
3F80
7380
6180
7000
7F00
3F80
07C0
E1C0
E1C0
7F80
3F00
ENDCHAR
STARTCHAR 0054
ENCODING 84
SWIDTH 600 0
DWIDTH 10 0
BBX 10 11 0 0
BITMAP
FFC0
FFC0
0C00
0C00
0C00
0C00
0C00
0C00
0C00
0C00
0C00
ENDCHAR
STARTCHAR 0055
ENCODING 85
SWIDTH 600 0
DWIDTH 10 0
BBX 8 11 1 0
BITMAP
C3
C3
C3
C3
C3
C3
C3
C3
E7
FF
7E
ENDCHAR
STARTCHAR 0056
ENCODING 86
SWIDTH 600 0
DWIDTH 10 0
BBX 10 11 0 0
BITMAP
E1C0
6180
7180
7380
7380
3300
3B00
3F00
1E00
1E00
1E00
ENDCHAR
STARTCHAR 0057
ENCODING 87
SWIDTH 600 0
DWIDTH 10 0
BBX 10 11 0 0
BITMAP
CCC0
ECC0
ECC0
EFC0
6F80
7F80
7F80
7F80
7380
7380
7380
ENDCHAR
STARTCHAR 0058
ENCODING 88
SWIDTH 600 0
DWIDTH 10 0
BBX 10 11 0 0
BITMAP
F3C0
7380
3B00
3F00
1E00
1E00
3F00
3700
7380
7380
E1C0
ENDCHAR
STARTCHAR 0059
ENCODING 89
SWIDTH 600 0
DWIDTH 10 0
BBX 10 11 0 0
BITMAP
E1C0
7380
3380
3F00
3F00
1E00
1E00
0C00
0C00
0C00
0C00
ENDCHAR
STARTCHAR 005A
ENCODING 90
SWIDTH 600 0
DWIDTH 10 0
BBX 10 11 0 0
BITMAP
7F80
7F80
0700
0F00
0E00
1C00
1C00
3800
7800
7FC0
FFC0
ENDCHAR
STARTCHAR 005B
ENCODING 91
SWIDTH 600 0
DWIDTH 10 0
BBX 4 14 4 -3
BITMAP
F0
C0
C0
C0
C0
C0
C0
C0
C0
C0
C0
C0
F0
F0
ENDCHAR
STARTCHAR 005C
ENCODING 92
SWIDTH 600 0
DWIDTH 10 0
BBX 10 14 0 -3
BITMAP
C000
6000
3000
3000
1800
1800
0C00
0400
0600
0200
0300
0180
0180
00C0
ENDCHAR
STARTCHAR 005D
ENCODING 93
SWIDTH 600 0
DWIDTH 10 0
BBX 4 14 2 -3
BITMAP
F0
30
30
30
30
30
30
30
30
30
30
30
F0
F0
ENDCHAR
STARTCHAR 005E
ENCODING 94
SWIDTH 600 0
DWIDTH 10 0
BBX 8 9 1 0
BITMAP
18
18
3C
3C
66
66
66
C3
C3
ENDCHAR
STARTCHAR 005F
ENCODING 95
SWIDTH 600 0
DWIDTH 10 0
BBX 8 1 1 -2
BITMAP
FF
ENDCHAR
STARTCHAR 0060
ENCODING 96
SWIDTH 600 0
DWIDTH 10 0
BBX 4 3 3 10
BITMAP
C0
60
30
ENDCHAR
STARTCHAR 0061
ENCODING 97
SWIDTH 600 0
DWIDTH 10 0
BBX 9 9 1 0
BITMAP
3C00
7E00
E700
0700
7F00
E700
C700
FF80
FF80
ENDCHAR
STARTCHAR 0062
ENCODING 98
SWIDTH 600 0
DWIDTH 10 0
BBX 8 12 1 0
BITMAP
E0
E0
E0
EC
FF
E7
E3
E3
E3
E3
FF
DE
ENDCHAR
STARTCHAR 0063
ENCODING 99
SWIDTH 600 0
DWIDTH 10 0
BBX 8 9 1 0
BITMAP
18
7E
E7
E3
E0
E0
E3
FE
3C
ENDCHAR
STARTCHAR 0064
ENCODING 100
SWIDTH 600 0
DWIDTH 10 0
BBX 8 12 1 0
BITMAP
07
07
07
37
7F
E7
C7
C7
C7
C7
FF
7B
ENDCHAR
STARTCHAR 0065
ENCODING 101
SWIDTH 600 0
DWIDTH 10 0
BBX 8 9 1 0
BITMAP
1C
7E
E7
E3
FF
E0
E3
FF
7E
ENDCHAR
STARTCHAR 0066
ENCODING 102
SWIDTH 600 0
DWIDTH 10 0
BBX 8 12 1 0
BITMAP
0F
1F
38
FF
FF
38
38
38
38
38
FF
FF
ENDCHAR
STARTCHAR 0067
ENCODING 103
SWIDTH 600 0
DWIDTH 10 0
BBX 10 13 0 -3
BITMAP
00C0
1F80
3F00
7380
7380
3F00
3E00
6000
7F80
7FC0
61C0
E1C0
7F80
ENDCHAR
STARTCHAR 0068
ENCODING 104
SWIDTH 600 0
DWIDTH 10 0
BBX 8 12 1 0
BITMAP
E0
E0
E0
EC
FF
E7
E7
E7
E7
E7
E7
E7
ENDCHAR
STARTCHAR 0069
ENCODING 105
SWIDTH 600 0
DWIDTH 10 0
BBX 8 12 1 0
BITMAP
18
18
00
FC
FC
1C
1C
1C
1C
1C
FF
FF
ENDCHAR
STARTCHAR 006A
ENCODING 106
SWIDTH 600 0
DWIDTH 10 0
BBX 6 15 1 -3
BITMAP
1C
1C
00
FC
FC
1C
1C
1C
1C
1C
1C
1C
1C
FC
F8
ENDCHAR
STARTCHAR 006B
ENCODING 107
SWIDTH 600 0
DWIDTH 10 0
BBX 9 12 1 0
BITMAP
E000
E000
E000
E380
E700
EE00
FC00
FC00
FC00
EE00
E700
E780
ENDCHAR
STARTCHAR 006C
ENCODING 108
SWIDTH 600 0
DWIDTH 10 0
BBX 8 12 1 0
BITMAP
F8
F8
18
18
18
18
18
18
18
18
FF
FF
ENDCHAR
STARTCHAR 006D
ENCODING 109
SWIDTH 600 0
DWIDTH 10 0
BBX 8 9 1 0
BITMAP
B2
FF
DB
DB
DB
DB
DB
DB
DB
ENDCHAR
STARTCHAR 006E
ENCODING 110
SWIDTH 600 0
DWIDTH 10 0
BBX 8 9 1 0
BITMAP
CC
FF
E7
E7
E7
E7
E7
E7
E7
ENDCHAR
STARTCHAR 006F
ENCODING 111
SWIDTH 600 0
DWIDTH 10 0
BBX 8 9 1 0
BITMAP
18
7E
E7
C3
C3
C3
E7
FF
7E
ENDCHAR
STARTCHAR 0070
ENCODING 112
SWIDTH 600 0
DWIDTH 10 0
BBX 8 12 1 -3
BITMAP
CC
FF
E7
E3
E3
E3
E3
FF
FE
E0
E0
E0
ENDCHAR
STARTCHAR 0071
ENCODING 113
SWIDTH 600 0
DWIDTH 10 0
BBX 8 12 1 -3
BITMAP
33
7F
E7
C7
C7
C7
C7
FF
7F
07
07
07
ENDCHAR
STARTCHAR 0072
ENCODING 114
SWIDTH 600 0
DWIDTH 10 0
BBX 9 9 1 0
BITMAP
F600
FF00
3B80
3380
3000
3000
3000
FE00
FE00
ENDCHAR
STARTCHAR 0073
ENCODING 115
SWIDTH 600 0
DWIDTH 10 0
BBX 8 9 1 0
BITMAP
3C
7E
C7
F0
7E
1F
C3
FF
7E
ENDCHAR
STARTCHAR 0074
ENCODING 116
SWIDTH 600 0
DWIDTH 10 0
BBX 8 11 1 0
BITMAP
18
38
FF
FF
38
38
38
38
38
3F
1F
ENDCHAR
STARTCHAR 0075
ENCODING 117
SWIDTH 600 0
DWIDTH 10 0
BBX 9 9 1 0
BITMAP
E700
E700
E700
E700
E700
E700
E700
FF80
7B80
ENDCHAR
STARTCHAR 0076
ENCODING 118
SWIDTH 600 0
DWIDTH 10 0
BBX 9 9 1 0
BITMAP
C380
E300
E700
6600
7600
7E00
3C00
3C00
3C00
ENDCHAR
STARTCHAR 0077
ENCODING 119
SWIDTH 600 0
DWIDTH 10 0
BBX 10 9 0 0
BITMAP
CCC0
CCC0
CCC0
7F80
7F80
7F80
7B80
7380
7380
ENDCHAR
STARTCHAR 0078
ENCODING 120
SWIDTH 600 0
DWIDTH 10 0
BBX 10 9 0 0
BITMAP
7180
7380
3F00
1E00
1E00
1E00
3F00
7380
F3C0
ENDCHAR
STARTCHAR 0079
ENCODING 121
SWIDTH 600 0
DWIDTH 10 0
BBX 8 12 1 -3
BITMAP
C3
E3
E7
66
76
3E
3C
3C
18
18
F0
E0
ENDCHAR
STARTCHAR 007A
ENCODING 122
SWIDTH 600 0
DWIDTH 10 0
BBX 8 9 1 0
BITMAP
7E
7E
0E
1C
1C
38
70
7F
FF
ENDCHAR
STARTCHAR 007B
ENCODING 123
SWIDTH 600 0
DWIDTH 10 0
BBX 4 14 3 -2
BITMAP
70
60
60
60
60
60
C0
60
60
60
60
60
60
30
ENDCHAR
STARTCHAR 007C
ENCODING 124
SWIDTH 600 0
DWIDTH 10 0
BBX 2 15 4 -3
BITMAP
C0
C0
C0
C0
C0
C0
C0
C0
C0
C0
C0
C0
C0
C0
C0
ENDCHAR
STARTCHAR 007D
ENCODING 125
SWIDTH 600 0
DWIDTH 10 0
BBX 4 14 3 -2
BITMAP
E0
60
60
60
60
60
30
60
60
60
60
60
60
C0
ENDCHAR
STARTCHAR 007E
ENCODING 126
SWIDTH 600 0
DWIDTH 10 0
BBX 10 4 0 3
BITMAP
0040
7CC0
CF80
8000
ENDCHAR
STARTCHAR 00A0
ENCODING 160
SWIDTH 600 0
DWIDTH 10 0
BBX 0 0 0 0
BITMAP
ENDCHAR
STARTCHAR 00A1
ENCODING 161
SWIDTH 600 0
DWIDTH 10 0
BBX 4 12 3 -3
BITMAP
60
60
60
00
60
60
60
60
60
60
60
F0
ENDCHAR
STARTCHAR 00A2
ENCODING 162
SWIDTH 600 0
DWIDTH 10 0
BBX 8 12 1 0
BITMAP
18
18
3E
7F
E3
E0
E0
E3
E3
7E
1C
18
ENDCHAR
STARTCHAR 00A3
ENCODING 163
SWIDTH 600 0
DWIDTH 10 0
BBX 10 12 0 0
BITMAP
0E00
1F80
3B80
31C0
3000
FE00
FE00
3000
3000
3000
FF80
FF80
ENDCHAR
STARTCHAR 00A4
ENCODING 164
SWIDTH 600 0
DWIDTH 10 0
BBX 8 9 1 1
BITMAP
BD
FF
C3
C3
C3
C3
E7
FF
91
ENDCHAR
STARTCHAR 00A5
ENCODING 165
SWIDTH 600 0
DWIDTH 10 0
BBX 10 11 0 0
BITMAP
E1C0
7380
3300
FFC0
FFC0
1E00
FFC0
0C00
0C00
0C00
0C00
ENDCHAR
STARTCHAR 00A6
ENCODING 166
SWIDTH 600 0
DWIDTH 10 0
BBX 2 15 4 -3
BITMAP
C0
C0
C0
C0
C0
C0
00
00
00
C0
C0
C0
C0
C0
C0
ENDCHAR
STARTCHAR 00A7
ENCODING 167
SWIDTH 600 0
DWIDTH 10 0
BBX 8 15 1 -3
BITMAP
18
7E
E7
E0
70
7E
CF
C3
E3
7E
3E
07
E7
7F
3E
ENDCHAR
STARTCHAR 00A8
ENCODING 168
SWIDTH 600 0
DWIDTH 10 0
BBX 6 2 2 10
BITMAP
CC
CC
ENDCHAR
STARTCHAR 00A9
ENCODING 169
SWIDTH 600 0
DWIDTH 10 0
BBX 10 12 0 0
BITMAP
0C00
3300
4080
5E80
B340
B340
B040
B340
9E40
4E80
6180
3F00
ENDCHAR
STARTCHAR 00AA
ENCODING 170
SWIDTH 600 0
DWIDTH 10 0
BBX 6 6 2 6
BITMAP
30
D8
18
E8
D8
6C
ENDCHAR
STARTCHAR 00AB
ENCODING 171
SWIDTH 600 0
DWIDTH 10 0
BBX 8 6 1 3
BITMAP
33
66
6E
EC
66
37
ENDCHAR
STARTCHAR 00AC
ENCODING 172
SWIDTH 600 0
DWIDTH 10 0
BBX 8 5 1 3
BITMAP
FF
FF
03
03
03
ENDCHAR
STARTCHAR 00AD
ENCODING 173
SWIDTH 600 0
DWIDTH 10 0
BBX 4 3 3 3
BITMAP
F0
F0
F0
ENDCHAR
STARTCHAR 00AE
ENCODING 174
SWIDTH 600 0
DWIDTH 10 0
BBX 10 12 0 0
BITMAP
0C00
3300
4080
5E80
9340
9340
9E40
9340
9340
5380
6180
3F00
ENDCHAR
STARTCHAR 00AF
ENCODING 175
SWIDTH 600 0
DWIDTH 10 0
BBX 6 2 2 10
BITMAP
FC
FC
ENDCHAR
STARTCHAR 00B0
ENCODING 176
SWIDTH 600 0
DWIDTH 10 0
BBX 6 5 2 7
BITMAP
30
78
CC
CC
78
ENDCHAR
STARTCHAR 00B1
ENCODING 177
SWIDTH 600 0
DWIDTH 10 0
BBX 8 9 1 0
BITMAP
18
18
18
FF
18
18
18
FF
FF
ENDCHAR
STARTCHAR 00B2
ENCODING 178
SWIDTH 600 0
DWIDTH 10 0
BBX 4 6 3 7
BITMAP
F0
90
30
60
C0
F0
ENDCHAR
STARTCHAR 00B3
ENCODING 179
SWIDTH 600 0
DWIDTH 10 0
BBX 4 6 3 7
BITMAP
F0
90
70
10
90
F0
ENDCHAR
STARTCHAR 00B4
ENCODING 180
SWIDTH 600 0
DWIDTH 10 0
BBX 4 3 3 10
BITMAP
70
60
C0
ENDCHAR
STARTCHAR 00B5
ENCODING 181
SWIDTH 600 0
DWIDTH 10 0
BBX 9 12 1 -3
BITMAP
E700
E700
E700
E700
E700
E700
E700
FF80
FB80
E000
E000
E000
ENDCHAR
STARTCHAR 00B6
ENCODING 182
SWIDTH 600 0
DWIDTH 10 0
BBX 8 14 1 -3
BITMAP
7F
F6
F6
F6
F6
F6
36
16
16
16
16
16
16
16
ENDCHAR
STARTCHAR 00B7
ENCODING 183
SWIDTH 600 0
DWIDTH 10 0
BBX 2 3 4 5
BITMAP
C0
C0
C0
ENDCHAR
STARTCHAR 00B8
ENCODING 184
SWIDTH 600 0
DWIDTH 10 0
BBX 4 4 3 -4
BITMAP
40
30
B0
40
ENDCHAR
STARTCHAR 00B9
ENCODING 185
SWIDTH 600 0
DWIDTH 10 0
BBX 4 6 3 7
BITMAP
E0
60
60
60
60
F0
ENDCHAR
STARTCHAR 00BA
ENCODING 186
SWIDTH 600 0
DWIDTH 10 0
BBX 6 6 2 6
BITMAP
30
78
CC
CC
68
30
ENDCHAR
STARTCHAR 00BB
ENCODING 187
SWIDTH 600 0
DWIDTH 10 0
BBX 8 6 1 3
BITMAP
CC
66
76
37
66
EC
ENDCHAR
STARTCHAR 00BC
ENCODING 188
SWIDTH 600 0
DWIDTH 10 0
BBX 10 11 0 0
BITMAP
E0C0
6180
6300
6200
6400
F380
1A80
1280
27C0
67C0
C080
ENDCHAR
STARTCHAR 00BD
ENCODING 189
SWIDTH 600 0
DWIDTH 10 0
BBX 10 11 0 0
BITMAP
E0C0
6100
6300
6600
6000
F3C0
1EC0
10C0
2180
6300
C7C0
ENDCHAR
STARTCHAR 00BE
ENCODING 190
SWIDTH 600 0
DWIDTH 10 0
BBX 10 11 0 0
BITMAP
F0C0
9980
3300
1A00
9C00
F380
1A80
1280
27C0
67C0
C080
ENDCHAR
STARTCHAR 00BF
ENCODING 191
SWIDTH 600 0
DWIDTH 10 0
BBX 8 12 1 -3
BITMAP
38
38
38
00
18
38
70
E0
E3
E7
FE
3C
ENDCHAR
STARTCHAR 00C0
ENCODING 192
SWIDTH 600 0
DWIDTH 10 0
BBX 10 15 0 0
BITMAP
3800
1800
0C00
0000
1E00
1E00
3F00
3700
3300
3300
7380
7F80
7F80
61C0
E1C0
ENDCHAR
STARTCHAR 00C1
ENCODING 193
SWIDTH 600 0
DWIDTH 10 0
BBX 10 15 0 0
BITMAP
0700
0600
0C00
0000
1E00
1E00
3F00
3700
3300
3300
7380
7F80
7F80
61C0
E1C0
ENDCHAR
STARTCHAR 00C2
ENCODING 194
SWIDTH 600 0
DWIDTH 10 0
BBX 10 15 0 0
BITMAP
0C00
1E00
2100
0000
1E00
1E00
3F00
3700
3300
3300
7380
7F80
7F80
61C0
E1C0
ENDCHAR
STARTCHAR 00C3
ENCODING 195
SWIDTH 600 0
DWIDTH 10 0
BBX 10 15 0 0
BITMAP
1900
3F00
2200
0000
1E00
1E00
3F00
3700
3300
3300
7380
7F80
7F80
61C0
E1C0
ENDCHAR
STARTCHAR 00C4
ENCODING 196
SWIDTH 600 0
DWIDTH 10 0
BBX 10 15 0 0
BITMAP
3300
3300
0000
0000
1E00
1E00
3F00
3700
3300
3300
7380
7F80
7F80
61C0
E1C0
ENDCHAR
STARTCHAR 00C5
ENCODING 197
SWIDTH 600 0
DWIDTH 10 0
BBX 10 16 0 0
BITMAP
0C00
1200
1E00
0C00
0000
1E00
1E00
3F00
3700
3300
3300
7380
7F80
7F80
61C0
E1C0
ENDCHAR
STARTCHAR 00C6
ENCODING 198
SWIDTH 600 0
DWIDTH 10 0
BBX 10 11 0 0
BITMAP
1FC0
3FC0
3600
3600
3780
7780
7600
7E00
7E00
E7C0
E7C0
ENDCHAR
STARTCHAR 00C7
ENCODING 199
SWIDTH 600 0
DWIDTH 10 0
BBX 9 16 0 -4
BITMAP
0C00
3F00
7F80
6180
E180
E000
E000
E180
E180
7380
7F80
3F00
0800
0600
1600
0800
ENDCHAR
STARTCHAR 00C8
ENCODING 200
SWIDTH 600 0
DWIDTH 10 0
BBX 8 15 1 0
BITMAP
70
38
18
00
FF
FF
E0
E0
FF
FF
E0
E0
E0
FF
FF
ENDCHAR
STARTCHAR 00C9
ENCODING 201
SWIDTH 600 0
DWIDTH 10 0
BBX 8 15 1 0
BITMAP
0E
0C
18
00
FF
FF
E0
E0
FF
FF
E0
E0
E0
FF
FF
ENDCHAR
STARTCHAR 00CA
ENCODING 202
SWIDTH 600 0
DWIDTH 10 0
BBX 8 15 1 0
BITMAP
1C
34
42
00
FF
FF
E0
E0
FF
FF
E0
E0
E0
FF
FF
ENDCHAR
STARTCHAR 00CB
ENCODING 203
SWIDTH 600 0
DWIDTH 10 0
BBX 8 15 1 0
BITMAP
66
66
00
00
FF
FF
E0
E0
FF
FF
E0
E0
E0
FF
FF
ENDCHAR
STARTCHAR 00CC
ENCODING 204
SWIDTH 600 0
DWIDTH 10 0
BBX 8 15 1 0
BITMAP
70
30
18
00
FF
FF
18
18
18
18
18
18
18
FF
FF
ENDCHAR
STARTCHAR 00CD
ENCODING 205
SWIDTH 600 0
DWIDTH 10 0
BBX 8 15 1 0
BITMAP
0E
0C
18
00
FF
FF
18
18
18
18
18
18
18
FF
FF
ENDCHAR
STARTCHAR 00CE
ENCODING 206
SWIDTH 600 0
DWIDTH 10 0
BBX 8 15 1 0
BITMAP
18
3C
42
00
FF
FF
18
18
18
18
18
18
18
FF
FF
ENDCHAR
STARTCHAR 00CF
ENCODING 207
SWIDTH 600 0
DWIDTH 10 0
BBX 8 15 1 0
BITMAP
66
66
00
00
FF
FF
18
18
18
18
18
18
18
FF
FF
ENDCHAR
STARTCHAR 00D0
ENCODING 208
SWIDTH 600 0
DWIDTH 10 0
BBX 10 11 0 0
BITMAP
7F00
7F80
71C0
71C0
FDC0
FDC0
71C0
71C0
73C0
7F80
7F00
ENDCHAR
STARTCHAR 00D1
ENCODING 209
SWIDTH 600 0
DWIDTH 10 0
BBX 8 15 1 0
BITMAP
32
7E
44
00
E3
E3
F3
F3
FB
DB
DF
CF
CF
C7
C7
ENDCHAR
STARTCHAR 00D2
ENCODING 210
SWIDTH 600 0
DWIDTH 10 0
BBX 10 15 0 0
BITMAP
3800
1800
0C00
0C00
3F00
7F80
61C0
E1C0
E1C0
E1C0
E1C0
E1C0
7380
7F80
3F00
ENDCHAR
STARTCHAR 00D3
ENCODING 211
SWIDTH 600 0
DWIDTH 10 0
BBX 10 15 0 0
BITMAP
0700
0600
0C00
0C00
3F00
7F80
61C0
E1C0
E1C0
E1C0
E1C0
E1C0
7380
7F80
3F00
ENDCHAR
STARTCHAR 00D4
ENCODING 212
SWIDTH 600 0
DWIDTH 10 0
BBX 10 15 0 0
BITMAP
0C00
1E00
2100
0C00
3F00
7F80
61C0
E1C0
E1C0
E1C0
E1C0
E1C0
7380
7F80
3F00
ENDCHAR
STARTCHAR 00D5
ENCODING 213
SWIDTH 600 0
DWIDTH 10 0
BBX 10 15 0 0
BITMAP
1900
3F00
2200
0C00
3F00
7F80
61C0
E1C0
E1C0
E1C0
E1C0
E1C0
7380
7F80
3F00
ENDCHAR
STARTCHAR 00D6
ENCODING 214
SWIDTH 600 0
DWIDTH 10 0
BBX 10 15 0 0
BITMAP
3300
3300
0000
0C00
3F00
7F80
61C0
E1C0
E1C0
E1C0
E1C0
E1C0
7380
7F80
3F00
ENDCHAR
STARTCHAR 00D7
ENCODING 215
SWIDTH 600 0
DWIDTH 10 0
BBX 8 7 1 1
BITMAP
42
E7
7E
3C
3C
7E
E7
ENDCHAR
STARTCHAR 00D8
ENCODING 216
SWIDTH 600 0
DWIDTH 10 0
BBX 10 14 0 -1
BITMAP
00C0
0C80
3F80
7F80
63C0
E7C0
E5C0
EDC0
E9C0
F1C0
7380
7F80
7F00
C000
ENDCHAR
STARTCHAR 00D9
ENCODING 217
SWIDTH 600 0
DWIDTH 10 0
BBX 8 15 1 0
BITMAP
70
30
18
00
C3
C3
C3
C3
C3
C3
C3
C3
E7
FF
7E
ENDCHAR
STARTCHAR 00DA
ENCODING 218
SWIDTH 600 0
DWIDTH 10 0
BBX 8 15 1 0
BITMAP
0E
0C
18
00
C3
C3
C3
C3
C3
C3
C3
C3
E7
FF
7E
ENDCHAR
STARTCHAR 00DB
ENCODING 219
SWIDTH 600 0
DWIDTH 10 0
BBX 8 15 1 0
BITMAP
18
3C
42
00
C3
C3
C3
C3
C3
C3
C3
C3
E7
FF
7E
ENDCHAR
STARTCHAR 00DC
ENCODING 220
SWIDTH 600 0
DWIDTH 10 0
BBX 8 15 1 0
BITMAP
66
66
00
00
C3
C3
C3
C3
C3
C3
C3
C3
E7
FF
7E
ENDCHAR
STARTCHAR 00DD
ENCODING 221
SWIDTH 600 0
DWIDTH 10 0
BBX 10 15 0 0
BITMAP
0700
0600
0C00
8040
6180
7380
3380
3F00
3F00
1E00
1E00
0C00
0C00
0C00
0C00
ENDCHAR
STARTCHAR 00DE
ENCODING 222
SWIDTH 600 0
DWIDTH 10 0
BBX 9 11 1 0
BITMAP
E000
FC00
FF00
FF80
E380
E380
FF00
FF00
E000
E000
E000
ENDCHAR
STARTCHAR 00DF
ENCODING 223
SWIDTH 600 0
DWIDTH 10 0
BBX 10 13 0 -1
BITMAP
1F00
3F80
7180
F180
F380
7700
7380
71C0
71C0
71C0
7780
7700
7000
ENDCHAR
STARTCHAR 00E0
ENCODING 224
SWIDTH 600 0
DWIDTH 10 0
BBX 9 13 1 0
BITMAP
7000
3000
1800
0000
3C00
7E00
E700
0700
7F00
E700
C700
FF80
FF80
ENDCHAR
STARTCHAR 00E1
ENCODING 225
SWIDTH 600 0
DWIDTH 10 0
BBX 9 13 1 0
BITMAP
0C00
1C00
1800
0000
3C00
7E00
E700
0700
7F00
E700
C700
FF80
FF80
ENDCHAR
STARTCHAR 00E2
ENCODING 226
SWIDTH 600 0
DWIDTH 10 0
BBX 9 13 1 0
BITMAP
1800
3C00
6600
0000
3C00
7E00
E700
0700
7F00
E700
C700
FF80
FF80
ENDCHAR
STARTCHAR 00E3
ENCODING 227
SWIDTH 600 0
DWIDTH 10 0
BBX 9 12 1 0
BITMAP
7E00
5E00
8000
3C00
7E00
E700
0700
7F00
E700
C700
FF80
FF80
ENDCHAR
STARTCHAR 00E4
ENCODING 228
SWIDTH 600 0
DWIDTH 10 0
BBX 9 12 1 0
BITMAP
6600
6600
0000
3C00
7E00
E700
0700
7F00
E700
C700
FF80
FF80
ENDCHAR
STARTCHAR 00E5
ENCODING 229
SWIDTH 600 0
DWIDTH 10 0
BBX 9 13 1 0
BITMAP
3800
2400
3800
0000
3C00
7E00
E700
0700
7F00
E700
C700
FF80
FF80
ENDCHAR
STARTCHAR 00E6
ENCODING 230
SWIDTH 600 0
DWIDTH 10 0
BBX 10 9 0 0
BITMAP
3300
7F80
CCC0
0CC0
7FC0
CC00
CCC0
FFC0
7780
ENDCHAR
STARTCHAR 00E7
ENCODING 231
SWIDTH 600 0
DWIDTH 10 0
BBX 8 13 1 -4
BITMAP
18
7E
E7
E3
E0
E0
E3
FE
3C
10
0C
2C
10
ENDCHAR
STARTCHAR 00E8
ENCODING 232
SWIDTH 600 0
DWIDTH 10 0
BBX 8 13 1 0
BITMAP
30
38
18
00
1C
7E
E7
E3
FF
E0
E3
FF
7E
ENDCHAR
STARTCHAR 00E9
ENCODING 233
SWIDTH 600 0
DWIDTH 10 0
BBX 8 13 1 0
BITMAP
0E
0C
18
00
1C
7E
E7
E3
FF
E0
E3
FF
7E
ENDCHAR
STARTCHAR 00EA
ENCODING 234
SWIDTH 600 0
DWIDTH 10 0
BBX 8 13 1 0
BITMAP
18
3C
66
00
1C
7E
E7
E3
FF
E0
E3
FF
7E
ENDCHAR
STARTCHAR 00EB
ENCODING 235
SWIDTH 600 0
DWIDTH 10 0
BBX 8 12 1 0
BITMAP
66
66
00
1C
7E
E7
E3
FF
E0
E3
FF
7E
ENDCHAR
STARTCHAR 00EC
ENCODING 236
SWIDTH 600 0
DWIDTH 10 0
BBX 8 13 1 0
BITMAP
30
18
18
04
FC
FC
1C
1C
1C
1C
1C
FF
FF
ENDCHAR
STARTCHAR 00ED
ENCODING 237
SWIDTH 600 0
DWIDTH 10 0
BBX 8 13 1 0
BITMAP
0E
0C
18
00
FC
FC
1C
1C
1C
1C
1C
FF
FF
ENDCHAR
STARTCHAR 00EE
ENCODING 238
SWIDTH 600 0
DWIDTH 10 0
BBX 8 13 1 0
BITMAP
1C
1C
36
41
FC
FC
1C
1C
1C
1C
1C
FF
FF
ENDCHAR
STARTCHAR 00EF
ENCODING 239
SWIDTH 600 0
DWIDTH 10 0
BBX 8 12 1 0
BITMAP
66
66
00
FC
FC
1C
1C
1C
1C
1C
FF
FF
ENDCHAR
STARTCHAR 00F0
ENCODING 240
SWIDTH 600 0
DWIDTH 10 0
BBX 8 12 1 0
BITMAP
7C
38
5C
3E
7F
E7
C3
C3
C3
E7
FF
7E
ENDCHAR
STARTCHAR 00F1
ENCODING 241
SWIDTH 600 0
DWIDTH 10 0
BBX 8 12 1 0
BITMAP
7A
4E
00
CC
FF
E7
E7
E7
E7
E7
E7
E7
ENDCHAR
STARTCHAR 00F2
ENCODING 242
SWIDTH 600 0
DWIDTH 10 0
BBX 8 13 1 0
BITMAP
30
30
18
00
18
7E
E7
C3
C3
C3
E7
FF
7E
ENDCHAR
STARTCHAR 00F3
ENCODING 243
SWIDTH 600 0
DWIDTH 10 0
BBX 8 13 1 0
BITMAP
0C
0C
18
00
18
7E
E7
C3
C3
C3
E7
FF
7E
ENDCHAR
STARTCHAR 00F4
ENCODING 244
SWIDTH 600 0
DWIDTH 10 0
BBX 8 13 1 0
BITMAP
18
3C
66
00
18
7E
E7
C3
C3
C3
E7
FF
7E
ENDCHAR
STARTCHAR 00F5
ENCODING 245
SWIDTH 600 0
DWIDTH 10 0
BBX 8 12 1 0
BITMAP
7A
4E
00
18
7E
E7
C3
C3
C3
E7
FF
7E
ENDCHAR
STARTCHAR 00F6
ENCODING 246
SWIDTH 600 0
DWIDTH 10 0
BBX 8 12 1 0
BITMAP
66
66
00
18
7E
E7
C3
C3
C3
E7
FF
7E
ENDCHAR
STARTCHAR 00F7
ENCODING 247
SWIDTH 600 0
DWIDTH 10 0
BBX 8 7 1 1
BITMAP
18
18
00
FF
FF
00
18
ENDCHAR
STARTCHAR 00F8
ENCODING 248
SWIDTH 600 0
DWIDTH 10 0
BBX 8 11 1 -1
BITMAP
01
1A
7E
E7
CB
DB
D3
E7
FF
7E
C0
ENDCHAR
STARTCHAR 00F9
ENCODING 249
SWIDTH 600 0
DWIDTH 10 0
BBX 9 13 1 0
BITMAP
7000
3000
1800
0000
E700
E700
E700
E700
E700
E700
E700
FF80
7B80
ENDCHAR
STARTCHAR 00FA
ENCODING 250
SWIDTH 600 0
DWIDTH 10 0
BBX 9 13 1 0
BITMAP
0C00
1C00
1800
0000
E700
E700
E700
E700
E700
E700
E700
FF80
7B80
ENDCHAR
STARTCHAR 00FB
ENCODING 251
SWIDTH 600 0
DWIDTH 10 0
BBX 9 13 1 0
BITMAP
1800
3C00
6600
0000
E700
E700
E700
E700
E700
E700
E700
FF80
7B80
ENDCHAR
STARTCHAR 00FC
ENCODING 252
SWIDTH 600 0
DWIDTH 10 0
BBX 9 12 1 0
BITMAP
6600
6600
0000
E700
E700
E700
E700
E700
E700
E700
FF80
7B80
ENDCHAR
STARTCHAR 00FD
ENCODING 253
SWIDTH 600 0
DWIDTH 10 0
BBX 8 16 1 -3
BITMAP
0E
0C
18
00
C3
E3
E7
66
76
3E
3C
3C
18
18
F0
E0
ENDCHAR
STARTCHAR 00FE
ENCODING 254
SWIDTH 600 0
DWIDTH 10 0
BBX 8 15 1 -3
BITMAP
E0
E0
E0
EC
FE
E7
E3
E3
E3
E3
FF
FE
E0
E0
E0
ENDCHAR
STARTCHAR 00FF
ENCODING 255
SWIDTH 600 0
DWIDTH 10 0
BBX 8 15 1 -3
BITMAP
66
66
00
C3
E3
E7
66
76
3E
3C
3C
18
18
F0
E0
ENDCHAR
STARTCHAR 0152
ENCODING 140
SWIDTH 600 0
DWIDTH 10 0
BBX 10 11 0 0
BITMAP
3FC0
7F80
E600
E600
E780
E780
E600
E600
6600
7FC0
3FC0
ENDCHAR
STARTCHAR 0153
ENCODING 156
SWIDTH 600 0
DWIDTH 10 0
BBX 10 9 0 0
BITMAP
3300
7F80
CCC0
CCC0
CFC0
CC00
CCC0
FFC0
7F80
ENDCHAR
STARTCHAR 0160
ENCODING 138
SWIDTH 600 0
DWIDTH 10 0
BBX 10 15 0 0
BITMAP
3300
1E00
0000
0C00
3F80
7380
6180
7000
7F00
3F80
07C0
E1C0
E1C0
7F80
3F00
ENDCHAR
STARTCHAR 0161
ENCODING 154
SWIDTH 600 0
DWIDTH 10 0
BBX 8 13 1 0
BITMAP
66
3C
3C
00
3C
7E
C7
F0
7E
1F
C3
FF
7E
ENDCHAR
STARTCHAR 0178
ENCODING 159
SWIDTH 600 0
DWIDTH 10 0
BBX 10 15 0 0
BITMAP
3300
3300
0000
8040
6180
7380
3380
3F00
3F00
1E00
1E00
0C00
0C00
0C00
0C00
ENDCHAR
STARTCHAR 017D
ENCODING 142
SWIDTH 600 0
DWIDTH 10 0
BBX 10 15 0 0
BITMAP
3300
1E00
0000
0000
7F80
7F80
0700
0F00
0E00
1C00
1C00
3800
7800
7FC0
FFC0
ENDCHAR
STARTCHAR 017E
ENCODING 158
SWIDTH 600 0
DWIDTH 10 0
BBX 8 13 1 0
BITMAP
66
3C
3C
00
7E
7E
0E
1C
1C
38
70
7F
FF
ENDCHAR
STARTCHAR 0192
ENCODING 131
SWIDTH 600 0
DWIDTH 10 0
BBX 9 15 0 -3
BITMAP
0780
0F80
0E00
1F80
1F80
0C00
0C00
1C00
1C00
1C00
1C00
1C00
1800
7800
F000
ENDCHAR
STARTCHAR 02C6
ENCODING 136
SWIDTH 600 0
DWIDTH 10 0
BBX 6 3 2 10
BITMAP
30
78
CC
ENDCHAR
STARTCHAR 02DC
ENCODING 152
SWIDTH 600 0
DWIDTH 10 0
BBX 6 2 2 10
BITMAP
F4
9C
ENDCHAR
STARTCHAR 2013
ENCODING 150
SWIDTH 600 0
DWIDTH 10 0
BBX 6 3 2 3
BITMAP
FC
FC
FC
ENDCHAR
STARTCHAR 2014
ENCODING 151
SWIDTH 600 0
DWIDTH 10 0
BBX 10 3 0 3
BITMAP
FFC0
FFC0
FFC0
ENDCHAR
STARTCHAR 2018
ENCODING 145
SWIDTH 600 0
DWIDTH 10 0
BBX 2 6 4 6
BITMAP
40
C0
80
C0
C0
C0
ENDCHAR
STARTCHAR 2019
ENCODING 146
SWIDTH 600 0
DWIDTH 10 0
BBX 2 6 4 6
BITMAP
C0
C0
C0
40
40
80
ENDCHAR
STARTCHAR 201A
ENCODING 130
SWIDTH 600 0
DWIDTH 10 0
BBX 2 6 4 -3
BITMAP
C0
C0
C0
40
40
80
ENDCHAR
STARTCHAR 201C
ENCODING 147
SWIDTH 600 0
DWIDTH 10 0
BBX 6 6 2 6
BITMAP
44
CC
88
CC
CC
CC
ENDCHAR
STARTCHAR 201D
ENCODING 148
SWIDTH 600 0
DWIDTH 10 0
BBX 6 6 2 6
BITMAP
CC
CC
CC
44
4C
C8
ENDCHAR
STARTCHAR 201E
ENCODING 132
SWIDTH 600 0
DWIDTH 10 0
BBX 6 6 2 -3
BITMAP
CC
CC
CC
44
4C
C8
ENDCHAR
STARTCHAR 2020
ENCODING 134
SWIDTH 600 0
DWIDTH 10 0
BBX 8 14 1 -3
BITMAP
18
18
99
FF
99
18
18
18
18
18
18
18
18
18
ENDCHAR
STARTCHAR 2021
ENCODING 135
SWIDTH 600 0
DWIDTH 10 0
BBX 8 14 1 -3
BITMAP
18
18
99
FF
99
18
18
18
18
FF
FF
18
18
18
ENDCHAR
STARTCHAR 2022
ENCODING 149
SWIDTH 600 0
DWIDTH 10 0
BBX 6 5 2 3
BITMAP
78
FC
FC
78
78
ENDCHAR
STARTCHAR 2026
ENCODING 133
SWIDTH 600 0
DWIDTH 10 0
BBX 8 3 1 0
BITMAP
DB
DB
DB
ENDCHAR
STARTCHAR 2030
ENCODING 137
SWIDTH 600 0
DWIDTH 10 0
BBX 10 11 0 0
BITMAP
7800
5800
5800
7800
2000
FFC0
7380
5E80
5E80
5E80
7380
ENDCHAR
STARTCHAR 2039
ENCODING 139
SWIDTH 600 0
DWIDTH 10 0
BBX 4 6 3 3
BITMAP
30
60
60
C0
60
30
ENDCHAR
STARTCHAR 203A
ENCODING 155
SWIDTH 600 0
DWIDTH 10 0
BBX 4 6 3 3
BITMAP
C0
60
60
30
60
C0
ENDCHAR
STARTCHAR 20AC
ENCODING 128
SWIDTH 600 0
DWIDTH 10 0
BBX 9 12 0 0
BITMAP
0300
0F80
1F80
3800
FE00
FE00
3000
FE00
3800
1C00
1F80
0F80
ENDCHAR
STARTCHAR 2122
ENCODING 153
SWIDTH 600 0
DWIDTH 10 0
BBX 10 6 0 5
BITMAP
FCC0
6D40
6F40
6B40
6B40
6B40
ENDCHAR
ENDFONT
