STARTFONT 2.1
COMMENT
COMMENT Converted from OpenType font "ChivoMono-Regular.ttf" by "otf2bdf 3.0".
COMMENT
FONT -FreeType-chivo mono-Medium-R-Normal--25-180-100-100-P-114-Windows-cp1252
SIZE 18 100 100
FONTBOUNDINGBOX 15 29 0 -5
STARTPROPERTIES 19
FOUNDRY "FreeType"
FAMILY_NAME "chivo mono"
WEIGHT_NAME "Medium"
SLANT "R"
SETWIDTH_NAME "Normal"
ADD_STYLE_NAME ""
PIXEL_SIZE 25
POINT_SIZE 180
RESOLUTION_X 100
RESOLUTION_Y 100
SPACING "P"
AVERAGE_WIDTH 114
CHARSET_REGISTRY "Windows"
CHARSET_ENCODING "cp1252"
FONT_ASCENT 23
FONT_DESCENT 6
COPYRIGHT "Copyright 2018 The Chivo Project Authors (https://github.com/Omnibus-Type/Chivo)"
_OTF_FONTFILE "ChivoMono-Regular.ttf"
_OTF_PSNAME "ChivoMono-Regular"
ENDPROPERTIES
CHARS 219
STARTCHAR 000D
ENCODING 13
SWIDTH 600 0
DWIDTH 15 0
BBX 0 0 0 0
BITMAP
ENDCHAR
STARTCHAR 0020
ENCODING 32
SWIDTH 600 0
DWIDTH 15 0
BBX 0 0 0 0
BITMAP
ENDCHAR
STARTCHAR 0021
ENCODING 33
SWIDTH 600 0
DWIDTH 15 0
BBX 3 17 6 0
BITMAP
E0
E0
E0
E0
E0
E0
E0
E0
E0
E0
40
40
00
00
E0
E0
E0
ENDCHAR
STARTCHAR 0022
ENCODING 34
SWIDTH 600 0
DWIDTH 15 0
BBX 5 7 5 10
BITMAP
D8
D8
D8
D8
D8
88
88
ENDCHAR
STARTCHAR 0023
ENCODING 35
SWIDTH 600 0
DWIDTH 15 0
BBX 15 17 0 0
BITMAP
0318
0618
0618
0618
0630
7FFE
7FFE
0C30
0C60
0C60
1860
FFFC
1860
18C0
30C0
30C0
30C0
ENDCHAR
STARTCHAR 0024
ENCODING 36
SWIDTH 600 0
DWIDTH 15 0
BBX 13 21 1 -2
BITMAP
0600
0200
0F80
3FE0
7070
6030
6030
7000
7C00
3F80
0FE0
01F0
0038
E038
E038
E038
7FF0
3FE0
0600
0200
0600
ENDCHAR
STARTCHAR 0025
ENCODING 37
SWIDTH 600 0
DWIDTH 15 0
BBX 15 17 0 0
BITMAP
7806
CC0C
C418
C430
C420
C460
CCC0
7C00
1018
007C
0666
0C46
0846
1046
3046
606E
C03C
ENDCHAR
STARTCHAR 0026
ENCODING 38
SWIDTH 600 0
DWIDTH 15 0
BBX 14 17 1 0
BITMAP
1F00
3F00
7000
6000
6030
6030
7070
3FFC
1FFC
7870
6070
E070
E070
E070
7070
7FF0
1FF0
ENDCHAR
STARTCHAR 0027
ENCODING 39
SWIDTH 600 0
DWIDTH 15 0
BBX 3 7 6 10
BITMAP
E0
E0
E0
E0
40
40
40
ENDCHAR
STARTCHAR 0028
ENCODING 40
SWIDTH 600 0
DWIDTH 15 0
BBX 6 21 5 -4
BITMAP
0C
18
30
30
70
60
60
60
E0
E0
E0
E0
E0
60
60
60
30
30
10
18
0C
ENDCHAR
STARTCHAR 0029
ENCODING 41
SWIDTH 600 0
DWIDTH 15 0
BBX 6 21 4 -4
BITMAP
C0
60
30
30
38
18
18
18
1C
1C
1C
1C
1C
18
18
18
30
30
20
60
C0
ENDCHAR
STARTCHAR 002A
ENCODING 42
SWIDTH 600 0
DWIDTH 15 0
BBX 11 10 2 7
BITMAP
0600
0400
4420
F5C0
7FE0
0E00
1B00
3B00
3180
1100
ENDCHAR
STARTCHAR 002B
ENCODING 43
SWIDTH 600 0
DWIDTH 15 0
BBX 13 13 1 0
BITMAP
0700
0700
0700
0700
0700
0700
FFF8
FFF8
0700
0700
0700
0700
0700
ENDCHAR
STARTCHAR 002C
ENCODING 44
SWIDTH 600 0
DWIDTH 15 0
BBX 3 7 6 -4
BITMAP
E0
E0
E0
60
60
40
C0
ENDCHAR
STARTCHAR 002D
ENCODING 45
SWIDTH 600 0
DWIDTH 15 0
BBX 7 2 4 6
BITMAP
FE
FE
ENDCHAR
STARTCHAR 002E
ENCODING 46
SWIDTH 600 0
DWIDTH 15 0
BBX 3 3 6 0
BITMAP
E0
E0
E0
ENDCHAR
STARTCHAR 002F
ENCODING 47
SWIDTH 600 0
DWIDTH 15 0
BBX 15 21 0 -4
BITMAP
000E
000C
0018
0038
0030
0060
0060
00C0
00C0
0180
0380
0300
0600
0600
0C00
0C00
1800
1800
3000
7000
E000
ENDCHAR
STARTCHAR 0030
ENCODING 48
SWIDTH 600 0
DWIDTH 15 0
BBX 11 17 2 0
BITMAP
3F80
7FC0
E0E0
C060
C060
C060
C060
C060
C060
C060
C060
C060
C060
E0E0
E0E0
7FC0
3F80
ENDCHAR
STARTCHAR 0031
ENCODING 49
SWIDTH 600 0
DWIDTH 15 0
BBX 12 17 2 0
BITMAP
0E00
FE00
FE00
0600
0600
0600
0600
0600
0600
0600
0600
0600
0600
0600
0600
FFF0
FFF0
ENDCHAR
STARTCHAR 0032
ENCODING 50
SWIDTH 600 0
DWIDTH 15 0
BBX 13 17 1 0
BITMAP
1FC0
3FE0
7070
6030
6030
6030
0030
0070
00E0
03C0
0780
1E00
3C00
7000
7000
7FF8
FFF8
ENDCHAR
STARTCHAR 0033
ENCODING 51
SWIDTH 600 0
DWIDTH 15 0
BBX 12 17 1 0
BITMAP
1FC0
3FE0
7070
6070
6030
0070
0060
0FC0
0FC0
00E0
0070
0030
E030
E030
7070
7FE0
1FC0
ENDCHAR
STARTCHAR 0034
ENCODING 52
SWIDTH 600 0
DWIDTH 15 0
BBX 13 17 1 0
BITMAP
0700
0600
0E60
0C60
1C60
18E0
38E0
30E0
70E0
60E0
C0E0
FFF8
FFF8
00E0
00E0
00E0
00E0
ENDCHAR
STARTCHAR 0035
ENCODING 53
SWIDTH 600 0
DWIDTH 15 0
BBX 12 17 2 0
BITMAP
7FE0
7FE0
6000
6000
6000
E000
EF80
FFC0
E0E0
40E0
0060
0070
C060
C0E0
E0E0
7FC0
3F80
ENDCHAR
STARTCHAR 0036
ENCODING 54
SWIDTH 600 0
DWIDTH 15 0
BBX 12 17 2 0
BITMAP
3F80
7FC0
E0E0
E060
C060
C000
C700
DFC0
F0E0
E060
C070
C070
C070
E060
70E0
7FC0
1F80
ENDCHAR
STARTCHAR 0037
ENCODING 55
SWIDTH 600 0
DWIDTH 15 0
BBX 12 17 2 0
BITMAP
FFF0
FFE0
00E0
00C0
0180
0380
0300
0600
0600
0E00
0C00
1C00
1C00
1800
1800
3800
3800
ENDCHAR
STARTCHAR 0038
ENCODING 56
SWIDTH 600 0
DWIDTH 15 0
BBX 13 17 1 0
BITMAP
1FC0
3DE0
7070
7070
6030
7070
3060
3FE0
1FC0
78E0
6030
6030
E038
6030
7070
3FE0
1FC0
ENDCHAR
STARTCHAR 0039
ENCODING 57
SWIDTH 600 0
DWIDTH 15 0
BBX 12 17 1 0
BITMAP
1FC0
3FE0
7070
E070
E030
E030
E070
6070
78F0
3FB0
0E30
0030
6030
6070
70E0
3FE0
1F80
ENDCHAR
STARTCHAR 003A
ENCODING 58
SWIDTH 600 0
DWIDTH 15 0
BBX 3 13 6 0
BITMAP
E0
E0
E0
00
00
00
00
00
00
00
E0
E0
E0
ENDCHAR
STARTCHAR 003B
ENCODING 59
SWIDTH 600 0
DWIDTH 15 0
BBX 3 17 6 -4
BITMAP
E0
E0
E0
00
00
00
00
00
00
00
E0
E0
E0
60
60
40
C0
ENDCHAR
STARTCHAR 003C
ENCODING 60
SWIDTH 600 0
DWIDTH 15 0
BBX 13 13 1 0
BITMAP
0008
0038
01F8
07C0
3F00
F800
C000
F000
7E00
0FC0
03F0
0078
0008
ENDCHAR
STARTCHAR 003D
ENCODING 61
SWIDTH 600 0
DWIDTH 15 0
BBX 13 7 1 3
BITMAP
FFF8
FFF8
0000
0000
0000
FFF8
FFF8
ENDCHAR
STARTCHAR 003E
ENCODING 62
SWIDTH 600 0
DWIDTH 15 0
BBX 13 13 1 0
BITMAP
8000
E000
FC00
1F00
07E0
00F8
0018
0078
03F0
0F80
7E00
F000
8000
ENDCHAR
STARTCHAR 003F
ENCODING 63
SWIDTH 600 0
DWIDTH 15 0
BBX 11 17 2 0
BITMAP
3F80
7FC0
60E0
E0E0
C0E0
E0E0
00E0
01C0
0380
0700
0600
0600
0000
0000
0E00
0E00
0E00
ENDCHAR
STARTCHAR 0040
ENCODING 64
SWIDTH 600 0
DWIDTH 15 0
BBX 15 21 0 -4
BITMAP
0FE0
1838
3008
600C
47C4
4FE6
CC66
CC66
C062
8062
87E2
8E66
DC66
DC66
DC66
4FFC
4FBC
6000
3000
1C60
0FE0
ENDCHAR
STARTCHAR 0041
ENCODING 65
SWIDTH 600 0
DWIDTH 15 0
BBX 15 17 0 0
BITMAP
0380
07C0
07C0
06C0
0EE0
0CE0
0C60
1C70
1C70
1830
3838
3FF8
3FF8
701C
701C
600C
E00E
ENDCHAR
STARTCHAR 0042
ENCODING 66
SWIDTH 600 0
DWIDTH 15 0
BBX 12 17 2 0
BITMAP
FFC0
FFE0
C0E0
C060
C060
C060
C0E0
FFC0
FFC0
C1E0
C070
C070
C070
C070
C0E0
FFE0
FF80
ENDCHAR
STARTCHAR 0043
ENCODING 67
SWIDTH 600 0
DWIDTH 15 0
BBX 13 17 1 0
BITMAP
1FC0
3FE0
7070
E030
E038
E038
E000
E000
E000
E000
E038
E038
E038
6030
7070
3FE0
1FC0
ENDCHAR
STARTCHAR 0044
ENCODING 68
SWIDTH 600 0
DWIDTH 15 0
BBX 13 17 2 0
BITMAP
FF80
FFE0
E0E0
E070
E030
E030
E038
E038
E038
E038
E038
E030
E030
E070
E0E0
FFC0
FF80
ENDCHAR
STARTCHAR 0045
ENCODING 69
SWIDTH 600 0
DWIDTH 15 0
BBX 12 17 2 0
BITMAP
FFE0
FFE0
E000
E000
E000
E000
E000
FFC0
FFC0
E000
E000
E000
E000
E000
E000
FFE0
FFF0
ENDCHAR
STARTCHAR 0046
ENCODING 70
SWIDTH 600 0
DWIDTH 15 0
BBX 11 17 2 0
BITMAP
FFE0
FFE0
E000
E000
E000
E000
E000
FFC0
FFC0
E000
E000
E000
E000
E000
E000
E000
E000
ENDCHAR
STARTCHAR 0047
ENCODING 71
SWIDTH 600 0
DWIDTH 15 0
BBX 13 17 1 0
BITMAP
1FC0
3FE0
7070
E038
E038
E038
E000
E000
E3F8
E3F8
E038
E038
E038
6038
7078
3FD8
1F98
ENDCHAR
STARTCHAR 0048
ENCODING 72
SWIDTH 600 0
DWIDTH 15 0
BBX 11 17 2 0
BITMAP
C060
C060
C060
C060
C060
C060
C060
FFE0
FFE0
C060
C060
C060
C060
C060
C060
C060
C060
ENDCHAR
STARTCHAR 0049
ENCODING 73
SWIDTH 600 0
DWIDTH 15 0
BBX 9 17 3 0
BITMAP
FF80
FF80
1C00
1C00
1C00
1C00
1C00
1C00
1C00
1C00
1C00
1C00
1C00
1C00
1C00
FF80
FF80
ENDCHAR
STARTCHAR 004A
ENCODING 74
SWIDTH 600 0
DWIDTH 15 0
BBX 11 17 2 0
BITMAP
00E0
00E0
00E0
00E0
00E0
00E0
00E0
00E0
00E0
00E0
00E0
00E0
E0E0
E0E0
61C0
7FC0
3F80
ENDCHAR
STARTCHAR 004B
ENCODING 75
SWIDTH 600 0
DWIDTH 15 0
BBX 13 17 2 0
BITMAP
C070
C0E0
C0C0
C1C0
C380
C700
CF00
CE00
DE00
FF00
F700
E380
C1C0
C1C0
C0E0
C070
C078
ENDCHAR
STARTCHAR 004C
ENCODING 76
SWIDTH 600 0
DWIDTH 15 0
BBX 10 17 3 0
BITMAP
C000
C000
C000
C000
C000
C000
C000
C000
C000
C000
C000
C000
C000
C000
C000
FFC0
FFC0
ENDCHAR
STARTCHAR 004D
ENCODING 77
SWIDTH 600 0
DWIDTH 15 0
BBX 13 17 1 0
BITMAP
F078
F078
F878
F8F8
F8F8
F8F8
F8B8
E8B8
EDB8
EDB8
EDB8
EDB8
ED38
E738
E738
E738
E738
ENDCHAR
STARTCHAR 004E
ENCODING 78
SWIDTH 600 0
DWIDTH 15 0
BBX 11 17 2 0
BITMAP
E060
E060
F060
F060
F860
D860
DC60
CC60
CE60
C660
C760
C360
C3E0
C1E0
C1E0
C0E0
C0E0
ENDCHAR
STARTCHAR 004F
ENCODING 79
SWIDTH 600 0
DWIDTH 15 0
BBX 13 17 1 0
BITMAP
1FC0
3FE0
7070
E038
E038
E038
E038
E038
E038
E038
E038
E038
E038
6030
7070
3FE0
1FC0
ENDCHAR
STARTCHAR 0050
ENCODING 80
SWIDTH 600 0
DWIDTH 15 0
BBX 12 17 2 0
BITMAP
FFC0
FFE0
C0F0
C070
C030
C030
C070
C0F0
FFE0
FF80
C000
C000
C000
C000
C000
C000
C000
ENDCHAR
STARTCHAR 0051
ENCODING 81
SWIDTH 600 0
DWIDTH 15 0
BBX 13 21 1 -4
BITMAP
1FC0
3FE0
7070
E038
E038
E038
E038
E038
E038
E038
E038
E038
E038
E030
7070
3FE0
1FC0
0700
0388
01F8
0070
ENDCHAR
STARTCHAR 0052
ENCODING 82
SWIDTH 600 0
DWIDTH 15 0
BBX 13 17 2 0
BITMAP
FFC0
FFE0
C070
C070
C030
C070
C070
C1E0
FF80
FFE0
C0E0
C070
C070
C070
C070
C070
C038
ENDCHAR
STARTCHAR 0053
ENCODING 83
SWIDTH 600 0
DWIDTH 15 0
BBX 13 17 1 0
BITMAP
1FC0
7FF0
7070
E038
E038
7000
7C00
3F80
0FE0
01F0
0078
0038
C038
E038
F078
7FF0
1FC0
ENDCHAR
STARTCHAR 0054
ENCODING 84
SWIDTH 600 0
DWIDTH 15 0
BBX 13 17 1 0
BITMAP
FFF8
FFF8
0700
0700
0700
0700
0700
0700
0700
0700
0700
0700
0700
0700
0700
0700
0700
ENDCHAR
STARTCHAR 0055
ENCODING 85
SWIDTH 600 0
DWIDTH 15 0
BBX 11 17 2 0
BITMAP
C060
C060
C060
C060
C060
C060
C060
C060
C060
C060
C060
C060
C060
E0E0
E0E0
7FC0
3F80
ENDCHAR
STARTCHAR 0056
ENCODING 86
SWIDTH 600 0
DWIDTH 15 0
BBX 15 17 0 0
BITMAP
E00E
700C
701C
3018
3018
3838
1838
1830
1C70
1C70
0C60
0E60
0EE0
06C0
07C0
07C0
0380
ENDCHAR
STARTCHAR 0057
ENCODING 87
SWIDTH 600 0
DWIDTH 15 0
BBX 15 17 0 0
BITMAP
C386
E386
E38E
638C
638C
62CC
66CC
76CC
76CC
36DC
36D8
3478
3478
3C78
3C78
3C78
1C70
ENDCHAR
STARTCHAR 0058
ENCODING 88
SWIDTH 600 0
DWIDTH 15 0
BBX 15 17 0 0
BITMAP
701C
3818
3838
1C70
0E60
0EE0
07C0
0380
0380
07C0
0EE0
0CE0
1C70
3838
3838
701C
E01E
ENDCHAR
STARTCHAR 0059
ENCODING 89
SWIDTH 600 0
DWIDTH 15 0
BBX 15 17 0 0
BITMAP
F00E
701C
3838
3838
1C70
1C70
0EE0
06E0
07C0
0380
0380
0380
0380
0380
0380
0380
0380
ENDCHAR
STARTCHAR 005A
ENCODING 90
SWIDTH 600 0
DWIDTH 15 0
BBX 13 17 1 0
BITMAP
7FF8
7FF0
0070
00E0
01C0
01C0
0380
0780
0700
0E00
0E00
1C00
3800
3800
7000
FFF8
FFF8
ENDCHAR
STARTCHAR 005B
ENCODING 91
SWIDTH 600 0
DWIDTH 15 0
BBX 5 21 6 -4
BITMAP
F8
C0
C0
C0
C0
C0
C0
C0
C0
C0
C0
C0
C0
C0
C0
C0
C0
C0
C0
C0
F8
ENDCHAR
STARTCHAR 005C
ENCODING 92
SWIDTH 600 0
DWIDTH 15 0
BBX 15 21 0 -4
BITMAP
E000
6000
3000
3800
1800
0C00
0C00
0600
0600
0300
0380
0180
00C0
00C0
0060
0060
0030
0030
0018
001C
000E
ENDCHAR
STARTCHAR 005D
ENCODING 93
SWIDTH 600 0
DWIDTH 15 0
BBX 5 21 4 -4
BITMAP
F8
18
18
18
18
18
18
18
18
18
18
18
18
18
18
18
18
18
18
18
F8
ENDCHAR
STARTCHAR 005E
ENCODING 94
SWIDTH 600 0
DWIDTH 15 0
BBX 13 13 1 0
BITMAP
0700
0700
0D80
0D80
0D80
18C0
18C0
38E0
3060
3060
6030
6030
E038
ENDCHAR
STARTCHAR 005F
ENCODING 95
SWIDTH 600 0
DWIDTH 15 0
BBX 13 2 1 -3
BITMAP
FFF8
FFF8
ENDCHAR
STARTCHAR 0060
ENCODING 96
SWIDTH 600 0
DWIDTH 15 0
BBX 5 4 5 15
BITMAP
E0
60
30
38
ENDCHAR
STARTCHAR 0061
ENCODING 97
SWIDTH 600 0
DWIDTH 15 0
BBX 12 13 2 0
BITMAP
3F00
7FC0
E1C0
C0C0
00C0
01C0
7FC0
E0C0
C0C0
C0C0
C1C0
FFF0
7EF0
ENDCHAR
STARTCHAR 0062
ENCODING 98
SWIDTH 600 0
DWIDTH 15 0
BBX 12 18 2 0
BITMAP
E000
E000
E000
E000
E000
EF80
FFC0
F0E0
E060
E060
E070
E070
E070
E060
E060
F0E0
DFC0
CF80
ENDCHAR
STARTCHAR 0063
ENCODING 99
SWIDTH 600 0
DWIDTH 15 0
BBX 11 13 2 0
BITMAP
1F00
7F80
60C0
E0E0
C060
C000
C000
C000
C060
E0E0
E0C0
7FC0
3F80
ENDCHAR
STARTCHAR 0064
ENCODING 100
SWIDTH 600 0
DWIDTH 15 0
BBX 12 18 1 0
BITMAP
0070
0070
0070
0070
0070
1F70
3FF0
70F0
6070
6070
E070
E070
E070
6070
6070
70F0
3FF0
1F30
ENDCHAR
STARTCHAR 0065
ENCODING 101
SWIDTH 600 0
DWIDTH 15 0
BBX 11 13 2 0
BITMAP
1F00
7FC0
60C0
E0E0
C060
FFE0
FFE0
C000
C060
E060
E0E0
7FC0
3F80
ENDCHAR
STARTCHAR 0066
ENCODING 102
SWIDTH 600 0
DWIDTH 15 0
BBX 12 18 2 0
BITMAP
03F0
0FF0
0E00
0C00
0C00
FFE0
FFE0
0C00
0C00
0C00
0C00
0C00
0C00
0C00
0C00
0C00
FFE0
FFE0
ENDCHAR
STARTCHAR 0067
ENCODING 103
SWIDTH 600 0
DWIDTH 15 0
BBX 13 20 1 -5
BITMAP
0018
0018
0FF0
3FE0
3070
7030
7030
3070
3FE0
3FC0
7000
6000
7000
3FF0
7FF8
E018
C018
E038
7FF0
3FE0
ENDCHAR
STARTCHAR 0068
ENCODING 104
SWIDTH 600 0
DWIDTH 15 0
BBX 11 18 2 0
BITMAP
E000
E000
E000
E000
E000
EF80
FFC0
F1E0
E0E0
E0E0
E0E0
E0E0
E0E0
E0E0
E0E0
E0E0
E0E0
E0E0
ENDCHAR
STARTCHAR 0069
ENCODING 105
SWIDTH 600 0
DWIDTH 15 0
BBX 12 18 2 0
BITMAP
0600
0600
0600
0000
0000
FE00
FE00
0600
0600
0600
0600
0600
0600
0600
0600
0600
FFF0
FFF0
ENDCHAR
STARTCHAR 006A
ENCODING 106
SWIDTH 600 0
DWIDTH 15 0
BBX 7 23 2 -5
BITMAP
06
06
06
00
00
FE
FE
06
06
06
06
06
06
06
06
06
06
06
06
06
8E
FC
30
ENDCHAR
STARTCHAR 006B
ENCODING 107
SWIDTH 600 0
DWIDTH 15 0
BBX 12 18 2 0
BITMAP
C000
C000
C000
C000
C000
C0E0
C1C0
C380
C380
C700
CE00
DE00
FE00
F700
E380
C1C0
C1C0
C0F0
ENDCHAR
STARTCHAR 006C
ENCODING 108
SWIDTH 600 0
DWIDTH 15 0
BBX 11 18 2 0
BITMAP
FE00
FE00
0E00
0E00
0E00
0E00
0E00
0E00
0E00
0E00
0E00
0E00
0E00
0E00
0E00
0E00
FFE0
FFE0
ENDCHAR
STARTCHAR 006D
ENCODING 109
SWIDTH 600 0
DWIDTH 15 0
BBX 13 13 1 0
BITMAP
DCF0
FFF0
E738
C718
C718
C718
C718
C718
C718
C718
C718
C718
C718
ENDCHAR
STARTCHAR 006E
ENCODING 110
SWIDTH 600 0
DWIDTH 15 0
BBX 11 13 2 0
BITMAP
CF80
DFC0
F1E0
E0E0
E0E0
E0E0
E0E0
E0E0
E0E0
E0E0
E0E0
E0E0
E0E0
ENDCHAR
STARTCHAR 006F
ENCODING 111
SWIDTH 600 0
DWIDTH 15 0
BBX 11 13 2 0
BITMAP
1F00
7FC0
60C0
E0E0
C060
C060
C060
C060
C060
E0E0
E0E0
7FC0
3F80
ENDCHAR
STARTCHAR 0070
ENCODING 112
SWIDTH 600 0
DWIDTH 15 0
BBX 12 18 2 -5
BITMAP
CF80
DFC0
F0E0
E060
E060
E070
E070
E070
E060
E060
F0E0
FFC0
EF80
E000
E000
E000
E000
E000
ENDCHAR
STARTCHAR 0071
ENCODING 113
SWIDTH 600 0
DWIDTH 15 0
BBX 12 18 1 -5
BITMAP
1F30
3FB0
70F0
6070
6070
E070
E070
E070
6070
6070
70F0
3FF0
1F70
0070
0070
0070
0070
0070
ENDCHAR
STARTCHAR 0072
ENCODING 114
SWIDTH 600 0
DWIDTH 15 0
BBX 13 13 1 0
BITMAP
F9E0
FBF0
1E38
1C18
1C18
1C00
1C00
1C00
1C00
1C00
1C00
FFF0
FFF0
ENDCHAR
STARTCHAR 0073
ENCODING 115
SWIDTH 600 0
DWIDTH 15 0
BBX 11 13 2 0
BITMAP
1F00
7FC0
E0E0
E0E0
E000
7E00
3FC0
07E0
00E0
C060
E0E0
7FC0
3F80
ENDCHAR
STARTCHAR 0074
ENCODING 116
SWIDTH 600 0
DWIDTH 15 0
BBX 12 17 1 0
BITMAP
0400
0400
0C00
0C00
FFF0
FFF0
0C00
0C00
0C00
0C00
0C00
0C00
0C00
0C00
0E00
07F0
03F0
ENDCHAR
STARTCHAR 0075
ENCODING 117
SWIDTH 600 0
DWIDTH 15 0
BBX 12 13 2 0
BITMAP
C0E0
C0E0
C0E0
C0E0
C0E0
C0E0
C0E0
C0E0
C0E0
E0E0
E1E0
7FF0
3E70
ENDCHAR
STARTCHAR 0076
ENCODING 118
SWIDTH 600 0
DWIDTH 15 0
BBX 13 13 1 0
BITMAP
E038
6030
7070
7070
3060
38E0
18C0
1CC0
1DC0
0D80
0F80
0700
0700
ENDCHAR
STARTCHAR 0077
ENCODING 119
SWIDTH 600 0
DWIDTH 15 0
BBX 15 13 0 0
BITMAP
C386
C386
638E
63CC
66CC
66CC
76CC
3658
3478
3C78
3C78
1C78
1C30
ENDCHAR
STARTCHAR 0078
ENCODING 120
SWIDTH 600 0
DWIDTH 15 0
BBX 13 13 1 0
BITMAP
7070
3070
38E0
1DC0
0D80
0F80
0700
0F80
1DC0
19C0
38E0
7070
E078
ENDCHAR
STARTCHAR 0079
ENCODING 121
SWIDTH 600 0
DWIDTH 15 0
BBX 13 18 1 -5
BITMAP
E038
7030
7070
3060
3860
38E0
18C0
1CC0
0D80
0F80
0F80
0700
0700
0600
0600
4C00
7C00
3000
ENDCHAR
STARTCHAR 007A
ENCODING 122
SWIDTH 600 0
DWIDTH 15 0
BBX 9 13 3 0
BITMAP
FF80
FF80
0700
0700
0E00
0C00
1C00
3800
3800
7000
6000
FF80
FF80
ENDCHAR
STARTCHAR 007B
ENCODING 123
SWIDTH 600 0
DWIDTH 15 0
BBX 6 21 5 -4
BITMAP
1C
30
30
30
30
30
20
20
60
E0
80
E0
60
20
20
30
30
30
30
30
1C
ENDCHAR
STARTCHAR 007C
ENCODING 124
SWIDTH 600 0
DWIDTH 15 0
BBX 1 23 7 -5
BITMAP
80
80
80
80
80
80
80
80
80
80
80
80
80
80
80
80
80
80
80
80
80
80
80
ENDCHAR
STARTCHAR 007D
ENCODING 125
SWIDTH 600 0
DWIDTH 15 0
BBX 6 21 4 -4
BITMAP
E0
30
30
38
38
18
18
18
18
1C
04
1C
18
18
18
38
38
38
30
30
E0
ENDCHAR
STARTCHAR 007E
ENCODING 126
SWIDTH 600 0
DWIDTH 15 0
BBX 15 5 0 5
BITMAP
0002
3E06
7FFC
C1F8
8000
ENDCHAR
STARTCHAR 00A0
ENCODING 160
SWIDTH 600 0
DWIDTH 15 0
BBX 0 0 0 0
BITMAP
ENDCHAR
STARTCHAR 00A1
ENCODING 161
SWIDTH 600 0
DWIDTH 15 0
BBX 3 17 6 -4
BITMAP
E0
E0
E0
00
00
40
40
E0
E0
E0
E0
E0
E0
E0
E0
E0
E0
ENDCHAR
STARTCHAR 00A2
ENCODING 162
SWIDTH 600 0
DWIDTH 15 0
BBX 11 17 2 0
BITMAP
0600
0400
1F80
7FC0
70E0
E060
E060
E000
E000
E000
E060
E060
70E0
3FC0
1F00
0400
0600
ENDCHAR
STARTCHAR 00A3
ENCODING 163
SWIDTH 600 0
DWIDTH 15 0
BBX 13 18 1 0
BITMAP
0100
0FE0
1FF0
1838
3838
3838
3800
3800
3800
FF80
FF80
3800
3800
3800
3800
3800
FFF0
FFF0
ENDCHAR
STARTCHAR 00A4
ENCODING 164
SWIDTH 600 0
DWIDTH 15 0
BBX 13 13 1 2
BITMAP
4210
FFF8
78F0
6030
6030
C018
C018
C018
6030
6030
7070
FFF8
4710
ENDCHAR
STARTCHAR 00A5
ENCODING 165
SWIDTH 600 0
DWIDTH 15 0
BBX 15 17 0 0
BITMAP
F00E
701C
3838
3838
1C70
1C70
7EFC
7EFC
07C0
7FFC
7FFC
0380
0380
0380
0380
0380
0380
ENDCHAR
STARTCHAR 00A6
ENCODING 166
SWIDTH 600 0
DWIDTH 15 0
BBX 1 23 7 -5
BITMAP
80
80
80
80
80
80
80
80
80
00
00
00
00
00
80
80
80
80
80
80
80
80
80
ENDCHAR
STARTCHAR 00A7
ENCODING 167
SWIDTH 600 0
DWIDTH 15 0
BBX 11 22 2 -5
BITMAP
3F80
71C0
E0E0
E0E0
E000
7000
3C00
7F80
E3C0
C0E0
C060
E060
7860
3EC0
0F80
03C0
00C0
00E0
E0E0
71C0
3F80
0E00
ENDCHAR
STARTCHAR 00A8
ENCODING 168
SWIDTH 600 0
DWIDTH 15 0
BBX 7 3 4 15
BITMAP
C6
C6
C6
ENDCHAR
STARTCHAR 00A9
ENCODING 169
SWIDTH 600 0
DWIDTH 15 0
BBX 15 17 0 0
BITMAP
0FE0
1010
2008
43C4
4EE4
CC26
9832
9802
9802
9802
8832
4C24
4FE4
4384
2008
1010
0FE0
ENDCHAR
STARTCHAR 00AA
ENCODING 170
SWIDTH 600 0
DWIDTH 15 0
BBX 8 8 4 9
BITMAP
FC
C4
04
7C
C4
8C
FF
62
ENDCHAR
STARTCHAR 00AB
ENCODING 171
SWIDTH 600 0
DWIDTH 15 0
BBX 10 9 2 4
BITMAP
18C0
18C0
3180
6380
E700
6300
3180
31C0
18C0
ENDCHAR
STARTCHAR 00AC
ENCODING 172
SWIDTH 600 0
DWIDTH 15 0
BBX 13 7 1 4
BITMAP
FFF8
FFF8
0018
0018
0018
0018
0018
ENDCHAR
STARTCHAR 00AD
ENCODING 173
SWIDTH 600 0
DWIDTH 15 0
BBX 7 2 4 6
BITMAP
FE
FE
ENDCHAR
STARTCHAR 00AE
ENCODING 174
SWIDTH 600 0
DWIDTH 15 0
BBX 15 17 0 0
BITMAP
0FE0
1010
2008
4FC4
4FE4
CC26
8C32
8C62
8FC2
8C62
8C62
4C24
4C24
4C14
2008
1010
0FE0
ENDCHAR
STARTCHAR 00AF
ENCODING 175
SWIDTH 600 0
DWIDTH 15 0
BBX 7 1 4 16
BITMAP
FE
ENDCHAR
STARTCHAR 00B0
ENCODING 176
SWIDTH 600 0
DWIDTH 15 0
BBX 7 7 4 10
BITMAP
7C
C6
82
82
86
EE
7C
ENDCHAR
STARTCHAR 00B1
ENCODING 177
SWIDTH 600 0
DWIDTH 15 0
BBX 13 13 1 0
BITMAP
0700
0700
0700
0700
FFF8
FFF8
0700
0700
0700
0700
0000
FFF8
FFF8
ENDCHAR
STARTCHAR 00B2
ENCODING 178
SWIDTH 600 0
DWIDTH 15 0
BBX 7 9 4 11
BITMAP
7C
4C
C6
06
0C
18
30
60
FE
ENDCHAR
STARTCHAR 00B3
ENCODING 179
SWIDTH 600 0
DWIDTH 15 0
BBX 7 10 4 10
BITMAP
78
EC
C6
04
3C
0C
06
C6
FC
38
ENDCHAR
STARTCHAR 00B4
ENCODING 180
SWIDTH 600 0
DWIDTH 15 0
BBX 5 4 5 15
BITMAP
38
30
60
E0
ENDCHAR
STARTCHAR 00B5
ENCODING 181
SWIDTH 600 0
DWIDTH 15 0
BBX 12 17 2 -4
BITMAP
C0E0
C0E0
C0E0
C0E0
C0E0
C0E0
C0E0
C0E0
C0E0
E0E0
E1E0
FFF0
FE70
C000
C000
C000
C000
ENDCHAR
STARTCHAR 00B6
ENCODING 182
SWIDTH 600 0
DWIDTH 15 0
BBX 12 21 1 -4
BITMAP
1FF0
3EC0
7EC0
FEC0
FEC0
FEC0
FEC0
7EC0
7EC0
3EC0
0EC0
06C0
06C0
06C0
06C0
06C0
06C0
06C0
06C0
06C0
06C0
ENDCHAR
STARTCHAR 00B7
ENCODING 183
SWIDTH 600 0
DWIDTH 15 0
BBX 3 3 6 8
BITMAP
E0
E0
E0
ENDCHAR
STARTCHAR 00B8
ENCODING 184
SWIDTH 600 0
DWIDTH 15 0
BBX 5 4 5 -5
BITMAP
38
08
98
F0
ENDCHAR
STARTCHAR 00B9
ENCODING 185
SWIDTH 600 0
DWIDTH 15 0
BBX 6 9 4 11
BITMAP
30
F0
10
10
10
10
10
10
FC
ENDCHAR
STARTCHAR 00BA
ENCODING 186
SWIDTH 600 0
DWIDTH 15 0
BBX 7 8 4 9
BITMAP
7C
C6
C6
C6
C6
C6
7C
10
ENDCHAR
STARTCHAR 00BB
ENCODING 187
SWIDTH 600 0
DWIDTH 15 0
BBX 10 9 3 4
BITMAP
C600
C600
6300
7180
39C0
3180
6300
E300
C600
ENDCHAR
STARTCHAR 00BC
ENCODING 188
SWIDTH 600 0
DWIDTH 15 0
BBX 15 17 0 0
BITMAP
3006
F00C
3018
3030
3020
3060
30C0
3000
FC10
0034
0624
0C6C
084C
10CC
30FE
600C
C00C
ENDCHAR
STARTCHAR 00BD
ENCODING 189
SWIDTH 600 0
DWIDTH 15 0
BBX 15 17 0 0
BITMAP
3006
F00C
3018
3030
3020
3040
30C0
3000
FC3C
006E
06C6
0C06
1806
101C
3030
6060
C0FE
ENDCHAR
STARTCHAR 00BE
ENCODING 190
SWIDTH 600 0
DWIDTH 15 0
BBX 15 17 0 0
BITMAP
7806
EC0C
C618
0430
3820
0C60
06C0
C600
FC10
3834
0624
0C6C
084C
10CC
30FE
600C
C00C
ENDCHAR
STARTCHAR 00BF
ENCODING 191
SWIDTH 600 0
DWIDTH 15 0
BBX 11 18 2 -5
BITMAP
0E00
0E00
0E00
0000
0000
0C00
0C00
0C00
1C00
7800
7000
E080
E060
E0E0
E0E0
7BC0
3F80
0C00
ENDCHAR
STARTCHAR 00C0
ENCODING 192
SWIDTH 600 0
DWIDTH 15 0
BBX 15 22 0 0
BITMAP
0E00
0700
0380
0000
0000
0380
07C0
07C0
06C0
0EE0
0CE0
0C60
1C70
1C70
1830
3838
3FF8
3FF8
701C
701C
600C
E00E
ENDCHAR
STARTCHAR 00C1
ENCODING 193
SWIDTH 600 0
DWIDTH 15 0
BBX 15 22 0 0
BITMAP
00E0
00C0
0180
0200
0000
0380
07C0
07C0
06C0
0EE0
0CE0
0C60
1C70
1C70
1830
3838
3FF8
3FF8
701C
701C
600C
E00E
ENDCHAR
STARTCHAR 00C2
ENCODING 194
SWIDTH 600 0
DWIDTH 15 0
BBX 15 22 0 0
BITMAP
0380
06C0
1C70
0000
0000
0380
07C0
07C0
06C0
0EE0
0CE0
0C60
1C70
1C70
1830
3838
3FF8
3FF8
701C
701C
600C
E00E
ENDCHAR
STARTCHAR 00C3
ENCODING 195
SWIDTH 600 0
DWIDTH 15 0
BBX 15 22 0 0
BITMAP
0F30
1FF0
18E0
0000
0000
0380
07C0
07C0
06C0
0EE0
0CE0
0C60
1C70
1C70
1830
3838
3FF8
3FF8
701C
701C
600C
E00E
ENDCHAR
STARTCHAR 00C4
ENCODING 196
SWIDTH 600 0
DWIDTH 15 0
BBX 15 22 0 0
BITMAP
0C60
0C60
0C60
0000
0000
0380
07C0
07C0
06C0
0EE0
0CE0
0C60
1C70
1C70
1830
3838
3FF8
3FF8
701C
701C
600C
E00E
ENDCHAR
STARTCHAR 00C5
ENCODING 197
SWIDTH 600 0
DWIDTH 15 0
BBX 15 24 0 0
BITMAP
0100
07C0
0440
0440
07C0
0000
0000
0380
07C0
07C0
06C0
0EE0
0CE0
0C60
1C70
1C70
1830
3838
3FF8
3FF8
701C
701C
600C
E00E
ENDCHAR
STARTCHAR 00C6
ENCODING 198
SWIDTH 600 0
DWIDTH 15 0
BBX 15 17 0 0
BITMAP
07FE
07FC
07C0
0FC0
0DC0
0DC0
1DC0
1DF8
19F8
39C0
39C0
3FC0
7FC0
71C0
61C0
E1FC
E1FE
ENDCHAR
STARTCHAR 00C7
ENCODING 199
SWIDTH 600 0
DWIDTH 15 0
BBX 13 22 1 -5
BITMAP
1FC0
3FE0
7070
E030
E038
E038
E000
E000
E000
E000
E038
E038
E038
6030
7070
3FE0
1FC0
0000
0380
0080
0980
0F00
ENDCHAR
STARTCHAR 00C8
ENCODING 200
SWIDTH 600 0
DWIDTH 15 0
BBX 12 22 2 0
BITMAP
3800
0C00
0600
0000
0000
FFE0
FFE0
E000
E000
E000
E000
E000
FFC0
FFC0
E000
E000
E000
E000
E000
E000
FFE0
FFF0
ENDCHAR
STARTCHAR 00C9
ENCODING 201
SWIDTH 600 0
DWIDTH 15 0
BBX 12 22 2 0
BITMAP
01C0
0300
0600
0000
0000
FFE0
FFE0
E000
E000
E000
E000
E000
FFC0
FFC0
E000
E000
E000
E000
E000
E000
FFE0
FFF0
ENDCHAR
STARTCHAR 00CA
ENCODING 202
SWIDTH 600 0
DWIDTH 15 0
BBX 12 22 2 0
BITMAP
0F00
1B80
31C0
0000
0000
FFE0
FFE0
E000
E000
E000
E000
E000
FFC0
FFC0
E000
E000
E000
E000
E000
E000
FFE0
FFF0
ENDCHAR
STARTCHAR 00CB
ENCODING 203
SWIDTH 600 0
DWIDTH 15 0
BBX 12 22 2 0
BITMAP
31C0
31C0
31C0
0000
0000
FFE0
FFE0
E000
E000
E000
E000
E000
FFC0
FFC0
E000
E000
E000
E000
E000
E000
FFE0
FFF0
ENDCHAR
STARTCHAR 00CC
ENCODING 204
SWIDTH 600 0
DWIDTH 15 0
BBX 9 22 3 0
BITMAP
7000
3800
1C00
0000
0000
FF80
FF80
1C00
1C00
1C00
1C00
1C00
1C00
1C00
1C00
1C00
1C00
1C00
1C00
1C00
FF80
FF80
ENDCHAR
STARTCHAR 00CD
ENCODING 205
SWIDTH 600 0
DWIDTH 15 0
BBX 9 22 3 0
BITMAP
0700
0600
0C00
1000
0000
FF80
FF80
1C00
1C00
1C00
1C00
1C00
1C00
1C00
1C00
1C00
1C00
1C00
1C00
1C00
FF80
FF80
ENDCHAR
STARTCHAR 00CE
ENCODING 206
SWIDTH 600 0
DWIDTH 15 0
BBX 9 22 3 0
BITMAP
1C00
3600
E380
0000
0000
FF80
FF80
1C00
1C00
1C00
1C00
1C00
1C00
1C00
1C00
1C00
1C00
1C00
1C00
1C00
FF80
FF80
ENDCHAR
STARTCHAR 00CF
ENCODING 207
SWIDTH 600 0
DWIDTH 15 0
BBX 9 22 3 0
BITMAP
6300
6300
6300
0000
0000
FF80
FF80
1C00
1C00
1C00
1C00
1C00
1C00
1C00
1C00
1C00
1C00
1C00
1C00
1C00
FF80
FF80
ENDCHAR
STARTCHAR 00D0
ENCODING 208
SWIDTH 600 0
DWIDTH 15 0
BBX 15 17 0 0
BITMAP
3FE0
3FF8
3838
381C
380C
380C
380E
380E
FF8E
380E
380E
380C
380C
381C
3838
3FF0
3FE0
ENDCHAR
STARTCHAR 00D1
ENCODING 209
SWIDTH 600 0
DWIDTH 15 0
BBX 11 22 2 0
BITMAP
3CC0
7FC0
6380
0000
0000
E060
E060
F060
F060
F860
D860
DC60
CC60
CE60
C660
C760
C360
C3E0
C1E0
C1E0
C0E0
C0E0
ENDCHAR
STARTCHAR 00D2
ENCODING 210
SWIDTH 600 0
DWIDTH 15 0
BBX 13 22 1 0
BITMAP
1C00
0E00
0700
0000
0000
1FC0
3FE0
7070
E038
E038
E038
E038
E038
E038
E038
E038
E038
E038
6030
7070
3FE0
1FC0
ENDCHAR
STARTCHAR 00D3
ENCODING 211
SWIDTH 600 0
DWIDTH 15 0
BBX 13 22 1 0
BITMAP
01C0
0180
0300
0400
0000
1FC0
3FE0
7070
E038
E038
E038
E038
E038
E038
E038
E038
E038
E038
6030
7070
3FE0
1FC0
ENDCHAR
STARTCHAR 00D4
ENCODING 212
SWIDTH 600 0
DWIDTH 15 0
BBX 13 22 1 0
BITMAP
0700
0D80
38E0
0000
0000
1FC0
3FE0
7070
E038
E038
E038
E038
E038
E038
E038
E038
E038
E038
6030
7070
3FE0
1FC0
ENDCHAR
STARTCHAR 00D5
ENCODING 213
SWIDTH 600 0
DWIDTH 15 0
BBX 13 22 1 0
BITMAP
1E60
3FE0
31C0
0000
0000
1FC0
3FE0
7070
E038
E038
E038
E038
E038
E038
E038
E038
E038
E038
6030
7070
3FE0
1FC0
ENDCHAR
STARTCHAR 00D6
ENCODING 214
SWIDTH 600 0
DWIDTH 15 0
BBX 13 22 1 0
BITMAP
18C0
18C0
18C0
0000
0000
1FC0
3FE0
7070
E038
E038
E038
E038
E038
E038
E038
E038
E038
E038
6030
7070
3FE0
1FC0
ENDCHAR
STARTCHAR 00D7
ENCODING 215
SWIDTH 600 0
DWIDTH 15 0
BBX 11 11 2 1
BITMAP
4040
E0E0
71C0
3B80
1F00
0E00
1F00
3B80
71C0
E0E0
4040
ENDCHAR
STARTCHAR 00D8
ENCODING 216
SWIDTH 600 0
DWIDTH 15 0
BBX 13 21 1 -2
BITMAP
0008
0018
1FF0
3FE0
7070
E078
E0F8
E1B8
E138
E338
E238
E638
EC38
E838
F838
7030
7070
7FE0
5FC0
C000
8000
ENDCHAR
STARTCHAR 00D9
ENCODING 217
SWIDTH 600 0
DWIDTH 15 0
BBX 11 22 2 0
BITMAP
3800
1C00
0E00
0000
0000
C060
C060
C060
C060
C060
C060
C060
C060
C060
C060
C060
C060
C060
E0E0
E0E0
7FC0
3F80
ENDCHAR
STARTCHAR 00DA
ENCODING 218
SWIDTH 600 0
DWIDTH 15 0
BBX 11 22 2 0
BITMAP
0380
0300
0600
0800
0000
C060
C060
C060
C060
C060
C060
C060
C060
C060
C060
C060
C060
C060
E0E0
E0E0
7FC0
3F80
ENDCHAR
STARTCHAR 00DB
ENCODING 219
SWIDTH 600 0
DWIDTH 15 0
BBX 11 22 2 0
BITMAP
0E00
1B00
71C0
0000
0000
C060
C060
C060
C060
C060
C060
C060
C060
C060
C060
C060
C060
C060
E0E0
E0E0
7FC0
3F80
ENDCHAR
STARTCHAR 00DC
ENCODING 220
SWIDTH 600 0
DWIDTH 15 0
BBX 11 22 2 0
BITMAP
3180
3180
3180
0000
0000
C060
C060
C060
C060
C060
C060
C060
C060
C060
C060
C060
C060
C060
E0E0
E0E0
7FC0
3F80
ENDCHAR
STARTCHAR 00DD
ENCODING 221
SWIDTH 600 0
DWIDTH 15 0
BBX 15 22 0 0
BITMAP
00E0
00C0
0180
0200
8002
700C
701C
3838
3838
1C70
1C70
0EE0
06E0
07C0
0380
0380
0380
0380
0380
0380
0380
0380
ENDCHAR
STARTCHAR 00DE
ENCODING 222
SWIDTH 600 0
DWIDTH 15 0
BBX 12 17 2 0
BITMAP
E000
E000
E000
FFC0
FFE0
E0F0
E070
E030
E030
E070
E0F0
FFE0
FF80
E000
E000
E000
E000
ENDCHAR
STARTCHAR 00DF
ENCODING 223
SWIDTH 600 0
DWIDTH 15 0
BBX 14 20 0 -2
BITMAP
07E0
1FF0
1C38
3818
3818
F818
F838
38F0
3BE0
3878
3818
381C
381C
381C
381C
3838
3BF0
3BE0
3800
3800
ENDCHAR
STARTCHAR 00E0
ENCODING 224
SWIDTH 600 0
DWIDTH 15 0
BBX 12 19 2 0
BITMAP
3800
1800
0C00
0C00
0200
0000
3F00
7FC0
E1C0
C0C0
00C0
01C0
7FC0
E0C0
C0C0
C0C0
C1C0
FFF0
7EF0
ENDCHAR
STARTCHAR 00E1
ENCODING 225
SWIDTH 600 0
DWIDTH 15 0
BBX 12 19 2 0
BITMAP
0300
0600
0600
0C00
0000
0000
3F00
7FC0
E1C0
C0C0
00C0
01C0
7FC0
E0C0
C0C0
C0C0
C1C0
FFF0
7EF0
ENDCHAR
STARTCHAR 00E2
ENCODING 226
SWIDTH 600 0
DWIDTH 15 0
BBX 12 19 2 0
BITMAP
0E00
1E00
3B00
7180
0040
0000
3F00
7FC0
E1C0
C0C0
00C0
01C0
7FC0
E0C0
C0C0
C0C0
C1C0
FFF0
7EF0
ENDCHAR
STARTCHAR 00E3
ENCODING 227
SWIDTH 600 0
DWIDTH 15 0
BBX 12 18 2 0
BITMAP
3CC0
7F80
4300
0000
0000
3F00
7FC0
E1C0
C0C0
00C0
01C0
7FC0
E0C0
C0C0
C0C0
C1C0
FFF0
7EF0
ENDCHAR
STARTCHAR 00E4
ENCODING 228
SWIDTH 600 0
DWIDTH 15 0
BBX 12 18 2 0
BITMAP
7180
7180
7180
0000
0000
3F00
7FC0
E1C0
C0C0
00C0
01C0
7FC0
E0C0
C0C0
C0C0
C1C0
FFF0
7EF0
ENDCHAR
STARTCHAR 00E5
ENCODING 229
SWIDTH 600 0
DWIDTH 15 0
BBX 12 20 2 0
BITMAP
0C00
1F00
1100
1300
1E00
0000
0000
3F00
7FC0
E1C0
C0C0
00C0
01C0
7FC0
E0C0
C0C0
C0C0
C1C0
FFF0
7EF0
ENDCHAR
STARTCHAR 00E6
ENCODING 230
SWIDTH 600 0
DWIDTH 15 0
BBX 15 13 0 0
BITMAP
3C78
7EFC
638C
638C
0386
03FE
3FFE
6380
E386
C386
C38C
7EFC
7CF8
ENDCHAR
STARTCHAR 00E7
ENCODING 231
SWIDTH 600 0
DWIDTH 15 0
BBX 11 18 2 -5
BITMAP
1F00
7F80
60C0
E0E0
C060
C000
C000
C000
C060
E0E0
E0C0
7FC0
3F80
0000
0700
0100
1300
1E00
ENDCHAR
STARTCHAR 00E8
ENCODING 232
SWIDTH 600 0
DWIDTH 15 0
BBX 11 19 2 0
BITMAP
1800
1C00
0C00
0600
0000
0000
1F00
7FC0
60C0
E0E0
C060
FFE0
FFE0
C000
C060
E060
E0E0
7FC0
3F80
ENDCHAR
STARTCHAR 00E9
ENCODING 233
SWIDTH 600 0
DWIDTH 15 0
BBX 11 19 2 0
BITMAP
0380
0300
0600
0600
0800
0000
1F00
7FC0
60C0
E0E0
C060
FFE0
FFE0
C000
C060
E060
E0E0
7FC0
3F80
ENDCHAR
STARTCHAR 00EA
ENCODING 234
SWIDTH 600 0
DWIDTH 15 0
BBX 11 19 2 0
BITMAP
0E00
1F00
1B80
3180
4040
0000
1F00
7FC0
60C0
E0E0
C060
FFE0
FFE0
C000
C060
E060
E0E0
7FC0
3F80
ENDCHAR
STARTCHAR 00EB
ENCODING 235
SWIDTH 600 0
DWIDTH 15 0
BBX 11 18 2 0
BITMAP
31C0
31C0
31C0
0000
0000
1F00
7FC0
60C0
E0E0
C060
FFE0
FFE0
C000
C060
E060
E0E0
7FC0
3F80
ENDCHAR
STARTCHAR 00EC
ENCODING 236
SWIDTH 600 0
DWIDTH 15 0
BBX 12 19 2 0
BITMAP
1C00
0C00
0C00
0600
0000
0000
FE00
FE00
0600
0600
0600
0600
0600
0600
0600
0600
0600
FFF0
FFF0
ENDCHAR
STARTCHAR 00ED
ENCODING 237
SWIDTH 600 0
DWIDTH 15 0
BBX 12 19 2 0
BITMAP
0380
0300
0700
0600
0000
0000
FE00
FE00
0600
0600
0600
0600
0600
0600
0600
0600
0600
FFF0
FFF0
ENDCHAR
STARTCHAR 00EE
ENCODING 238
SWIDTH 600 0
DWIDTH 15 0
BBX 12 19 2 0
BITMAP
0600
0F00
1980
38C0
0000
0000
FE00
FE00
0600
0600
0600
0600
0600
0600
0600
0600
0600
FFF0
FFF0
ENDCHAR
STARTCHAR 00EF
ENCODING 239
SWIDTH 600 0
DWIDTH 15 0
BBX 12 18 2 0
BITMAP
30C0
30C0
30C0
0000
0000
FE00
FE00
0600
0600
0600
0600
0600
0600
0600
0600
0600
FFF0
FFF0
ENDCHAR
STARTCHAR 00F0
ENCODING 240
SWIDTH 600 0
DWIDTH 15 0
BBX 11 18 2 0
BITMAP
7300
1E00
3E00
6700
0380
1F80
7FC0
60E0
E0E0
C060
C060
C060
C060
C060
E0E0
E0E0
7FC0
3F80
ENDCHAR
STARTCHAR 00F1
ENCODING 241
SWIDTH 600 0
DWIDTH 15 0
BBX 11 18 2 0
BITMAP
3C40
7FC0
6380
0000
0000
CF80
DFC0
F1E0
E0E0
E0E0
E0E0
E0E0
E0E0
E0E0
E0E0
E0E0
E0E0
E0E0
ENDCHAR
STARTCHAR 00F2
ENCODING 242
SWIDTH 600 0
DWIDTH 15 0
BBX 11 19 2 0
BITMAP
3800
1800
0C00
0C00
0200
0000
1F00
7FC0
60C0
E0E0
C060
C060
C060
C060
C060
E0E0
E0E0
7FC0
3F80
ENDCHAR
STARTCHAR 00F3
ENCODING 243
SWIDTH 600 0
DWIDTH 15 0
BBX 11 19 2 0
BITMAP
0300
0700
0600
0C00
0000
0000
1F00
7FC0
60C0
E0E0
C060
C060
C060
C060
C060
E0E0
E0E0
7FC0
3F80
ENDCHAR
STARTCHAR 00F4
ENCODING 244
SWIDTH 600 0
DWIDTH 15 0
BBX 11 19 2 0
BITMAP
0E00
1B00
1B00
3180
4040
0000
1F00
7FC0
60C0
E0E0
C060
C060
C060
C060
C060
E0E0
E0E0
7FC0
3F80
ENDCHAR
STARTCHAR 00F5
ENCODING 245
SWIDTH 600 0
DWIDTH 15 0
BBX 11 18 2 0
BITMAP
3CC0
6FC0
4380
0000
0000
1F00
7FC0
60C0
E0E0
C060
C060
C060
C060
C060
E0E0
E0E0
7FC0
3F80
ENDCHAR
STARTCHAR 00F6
ENCODING 246
SWIDTH 600 0
DWIDTH 15 0
BBX 11 18 2 0
BITMAP
3180
3180
3180
0000
0000
1F00
7FC0
60C0
E0E0
C060
C060
C060
C060
C060
E0E0
E0E0
7FC0
3F80
ENDCHAR
STARTCHAR 00F7
ENCODING 247
SWIDTH 600 0
DWIDTH 15 0
BBX 13 10 1 1
BITMAP
0700
0700
0000
0000
FFF8
FFF8
0000
0700
0700
0700
ENDCHAR
STARTCHAR 00F8
ENCODING 248
SWIDTH 600 0
DWIDTH 15 0
BBX 11 15 2 -1
BITMAP
0060
1FC0
7FC0
61C0
E1E0
C360
C660
C460
CC60
D860
F0E0
F0E0
7FC0
7F80
C000
ENDCHAR
STARTCHAR 00F9
ENCODING 249
SWIDTH 600 0
DWIDTH 15 0
BBX 12 19 2 0
BITMAP
3800
1800
0C00
0C00
0200
0000
C0E0
C0E0
C0E0
C0E0
C0E0
C0E0
C0E0
C0E0
C0E0
E0E0
E1E0
7FF0
3E70
ENDCHAR
STARTCHAR 00FA
ENCODING 250
SWIDTH 600 0
DWIDTH 15 0
BBX 12 19 2 0
BITMAP
0300
0600
0600
0C00
0000
0000
C0E0
C0E0
C0E0
C0E0
C0E0
C0E0
C0E0
C0E0
C0E0
E0E0
E1E0
7FF0
3E70
ENDCHAR
STARTCHAR 00FB
ENCODING 251
SWIDTH 600 0
DWIDTH 15 0
BBX 12 19 2 0
BITMAP
0E00
1E00
3B00
7180
0040
0000
C0E0
C0E0
C0E0
C0E0
C0E0
C0E0
C0E0
C0E0
C0E0
E0E0
E1E0
7FF0
3E70
ENDCHAR
STARTCHAR 00FC
ENCODING 252
SWIDTH 600 0
DWIDTH 15 0
BBX 12 18 2 0
BITMAP
7180
7180
7180
0000
0000
C0E0
C0E0
C0E0
C0E0
C0E0
C0E0
C0E0
C0E0
C0E0
E0E0
E1E0
7FF0
3E70
ENDCHAR
STARTCHAR 00FD
ENCODING 253
SWIDTH 600 0
DWIDTH 15 0
BBX 13 24 1 -5
BITMAP
01C0
0180
0300
0300
0400
0000
E038
7030
7070
3060
3860
38E0
18C0
1CC0
0D80
0F80
0F80
0700
0700
0600
0600
4C00
7C00
3000
ENDCHAR
STARTCHAR 00FE
ENCODING 254
SWIDTH 600 0
DWIDTH 15 0
BBX 12 23 2 -5
BITMAP
E000
E000
E000
E000
E000
EF80
FFC0
F0E0
E060
E060
E070
E070
E070
E060
E060
F0E0
FFC0
EF80
E000
E000
E000
E000
E000
ENDCHAR
STARTCHAR 00FF
ENCODING 255
SWIDTH 600 0
DWIDTH 15 0
BBX 13 23 1 -5
BITMAP
18E0
18E0
18E0
0000
0000
E038
7030
7070
3060
3860
38E0
18C0
1CC0
0D80
0F80
0F80
0700
0700
0600
0600
4C00
7C00
3000
ENDCHAR
STARTCHAR 0152
ENCODING 140
SWIDTH 600 0
DWIDTH 15 0
BBX 14 17 1 0
BITMAP
1FFC
7FF8
7180
E180
C180
C180
C180
C1F8
C1F8
C180
C180
C180
C180
E180
7180
7FFC
1FFC
ENDCHAR
STARTCHAR 0153
ENCODING 156
SWIDTH 600 0
DWIDTH 15 0
BBX 15 13 0 0
BITMAP
3C78
7EFC
638C
638C
C386
C3FE
C3FE
C380
C386
4386
638C
7EFC
3E78
ENDCHAR
STARTCHAR 0160
ENCODING 138
SWIDTH 600 0
DWIDTH 15 0
BBX 13 22 1 0
BITMAP
38E0
0D80
0700
0000
0000
1FC0
7FF0
7070
E038
E038
7000
7C00
3F80
0FE0
01F0
0078
0038
C038
E038
F078
7FF0
1FC0
ENDCHAR
STARTCHAR 0161
ENCODING 154
SWIDTH 600 0
DWIDTH 15 0
BBX 11 19 2 0
BITMAP
71C0
3180
1B00
0E00
0000
0000
1F00
7FC0
E0E0
E0E0
E000
7E00
3FC0
07E0
00E0
C060
E0E0
7FC0
3F80
ENDCHAR
STARTCHAR 0178
ENCODING 159
SWIDTH 600 0
DWIDTH 15 0
BBX 15 22 0 0
BITMAP
0C60
0C60
0C60
0000
8002
700C
701C
3838
3838
1C70
1C70
0EE0
06E0
07C0
0380
0380
0380
0380
0380
0380
0380
0380
ENDCHAR
STARTCHAR 017D
ENCODING 142
SWIDTH 600 0
DWIDTH 15 0
BBX 13 22 1 0
BITMAP
38E0
0D80
0700
0000
0000
7FF8
7FF0
0070
00E0
01C0
01C0
0380
0780
0700
0E00
0E00
1C00
3800
3800
7000
FFF8
FFF8
ENDCHAR
STARTCHAR 017E
ENCODING 158
SWIDTH 600 0
DWIDTH 15 0
BBX 9 19 3 0
BITMAP
E380
6300
3600
1C00
0000
0000
FF80
FF80
0700
0700
0E00
0C00
1C00
3800
3800
7000
6000
FF80
FF80
ENDCHAR
STARTCHAR 0192
ENCODING 131
SWIDTH 600 0
DWIDTH 15 0
BBX 12 23 1 -5
BITMAP
01F0
03F0
0380
0300
0300
0FE0
0FE0
0700
0700
0600
0600
0600
0E00
0E00
0E00
0E00
0C00
0C00
0C00
1C00
9C00
F800
6000
ENDCHAR
STARTCHAR 02C6
ENCODING 136
SWIDTH 600 0
DWIDTH 15 0
BBX 9 4 3 15
BITMAP
1C00
3600
3600
E380
ENDCHAR
STARTCHAR 02DC
ENCODING 152
SWIDTH 600 0
DWIDTH 15 0
BBX 9 3 3 15
BITMAP
7980
DF80
8700
ENDCHAR
STARTCHAR 2013
ENCODING 150
SWIDTH 600 0
DWIDTH 15 0
BBX 11 2 2 6
BITMAP
FFE0
FFE0
ENDCHAR
STARTCHAR 2014
ENCODING 151
SWIDTH 600 0
DWIDTH 15 0
BBX 15 2 0 6
BITMAP
FFFE
FFFE
ENDCHAR
STARTCHAR 2018
ENCODING 145
SWIDTH 600 0
DWIDTH 15 0
BBX 3 7 6 10
BITMAP
60
40
C0
E0
E0
E0
E0
ENDCHAR
STARTCHAR 2019
ENCODING 146
SWIDTH 600 0
DWIDTH 15 0
BBX 3 7 6 10
BITMAP
E0
E0
E0
60
60
40
C0
ENDCHAR
STARTCHAR 201A
ENCODING 130
SWIDTH 600 0
DWIDTH 15 0
BBX 3 7 6 -4
BITMAP
E0
E0
E0
60
60
40
C0
ENDCHAR
STARTCHAR 201C
ENCODING 147
SWIDTH 600 0
DWIDTH 15 0
BBX 7 7 4 10
BITMAP
66
C6
84
EE
EE
EE
EE
ENDCHAR
STARTCHAR 201D
ENCODING 148
SWIDTH 600 0
DWIDTH 15 0
BBX 7 7 4 10
BITMAP
EE
EE
EE
42
46
C6
8C
ENDCHAR
STARTCHAR 201E
ENCODING 132
SWIDTH 600 0
DWIDTH 15 0
BBX 7 7 4 -4
BITMAP
EE
EE
EE
42
46
C6
8C
ENDCHAR
STARTCHAR 2020
ENCODING 134
SWIDTH 600 0
DWIDTH 15 0
BBX 11 21 2 -4
BITMAP
0E00
0600
0400
0400
E4E0
FFE0
8420
0400
0400
0400
0400
0400
0400
0400
0400
0400
0E00
0E00
0E00
0E00
0E00
ENDCHAR
STARTCHAR 2021
ENCODING 135
SWIDTH 600 0
DWIDTH 15 0
BBX 11 21 2 -4
BITMAP
0E00
0600
0400
0400
E4E0
FFE0
8420
0400
0400
0E00
0E00
0E00
0400
0400
0400
FFE0
FFE0
0400
0400
0400
0E00
ENDCHAR
STARTCHAR 2022
ENCODING 149
SWIDTH 600 0
DWIDTH 15 0
BBX 7 7 4 5
BITMAP
7C
FE
FE
FE
FE
FE
7C
ENDCHAR
STARTCHAR 2026
ENCODING 133
SWIDTH 600 0
DWIDTH 15 0
BBX 13 3 1 0
BITMAP
E738
E738
E738
ENDCHAR
STARTCHAR 2030
ENCODING 137
SWIDTH 600 0
DWIDTH 15 0
BBX 15 17 0 0
BITMAP
3C00
6600
6200
6200
6200
6600
3C00
0000
FFFE
0000
3C78
66CC
628C
628C
668C
7EFC
3C78
ENDCHAR
STARTCHAR 2039
ENCODING 139
SWIDTH 600 0
DWIDTH 15 0
BBX 5 9 5 4
BITMAP
18
30
30
60
E0
60
70
30
18
ENDCHAR
STARTCHAR 203A
ENCODING 155
SWIDTH 600 0
DWIDTH 15 0
BBX 5 9 5 4
BITMAP
C0
60
60
30
38
30
70
60
C0
ENDCHAR
STARTCHAR 20AC
ENCODING 128
SWIDTH 600 0
DWIDTH 15 0
BBX 12 17 1 0
BITMAP
03F0
07F0
0F00
1C00
1800
3800
FFC0
FFC0
3000
FFC0
FFC0
3800
1C00
1C00
0F00
07F0
01F0
ENDCHAR
STARTCHAR 2122
ENCODING 153
SWIDTH 600 0
DWIDTH 15 0
BBX 15 10 0 7
BITMAP
FF8E
338E
338E
339E
33D6
3356
3356
3356
3376
3366
ENDCHAR
ENDFONT
