STARTFONT 2.1
COMMENT
COMMENT Converted from OpenType font "ChivoMono-Regular.ttf" by "otf2bdf 3.0".
COMMENT
FONT -FreeType-chivo mono cp1252-Medium-R-Normal--19-140-100-100-P-89-ISO10646-1
SIZE 14 100 100
FONTBOUNDINGBOX 12 22 0 -4
STARTPROPERTIES 19
FOUNDRY "FreeType"
FAMILY_NAME "chivo mono cp1252"
WEIGHT_NAME "Medium"
SLANT "R"
SETWIDTH_NAME "Normal"
ADD_STYLE_NAME ""
PIXEL_SIZE 19
POINT_SIZE 140
RESOLUTION_X 100
RESOLUTION_Y 100
SPACING "P"
AVERAGE_WIDTH 89
CHARSET_REGISTRY "ISO10646"
CHARSET_ENCODING "1"
FONT_ASCENT 17
FONT_DESCENT 4
COPYRIGHT "Copyright 2018 The Chivo Project Authors (https://github.com/Omnibus-Type/Chivo)"
_OTF_FONTFILE "ChivoMono-Regular.ttf"
_OTF_PSNAME "ChivoMono-Regular"
ENDPROPERTIES
CHARS 219
STARTCHAR 000D
ENCODING 13
SWIDTH 617 0
DWIDTH 12 0
BBX 0 0 0 0
BITMAP
ENDCHAR
STARTCHAR 0020
ENCODING 32
SWIDTH 617 0
DWIDTH 12 0
BBX 0 0 0 0
BITMAP
ENDCHAR
STARTCHAR 0021
ENCODING 33
SWIDTH 617 0
DWIDTH 12 0
BBX 2 13 5 0
BITMAP
C0
C0
C0
C0
C0
C0
C0
C0
C0
00
00
C0
C0
ENDCHAR
STARTCHAR 0022
ENCODING 34
SWIDTH 617 0
DWIDTH 12 0
BBX 4 5 4 8
BITMAP
B0
B0
B0
90
90
ENDCHAR
STARTCHAR 0023
ENCODING 35
SWIDTH 617 0
DWIDTH 12 0
BBX 12 14 0 0
BITMAP
0440
0C40
0CC0
08C0
0880
7FF0
1880
1180
1180
FFE0
3100
3300
2300
2300
ENDCHAR
STARTCHAR 0024
ENCODING 36
SWIDTH 617 0
DWIDTH 12 0
BBX 10 16 1 -1
BITMAP
0800
0800
3F00
7380
C180
C080
E000
7E00
1F80
01C0
00C0
C0C0
C180
7F80
1C00
0800
ENDCHAR
STARTCHAR 0025
ENCODING 37
SWIDTH 617 0
DWIDTH 12 0
BBX 12 13 0 0
BITMAP
7030
8840
8880
8980
8B00
F000
00C0
01A0
0930
1130
2130
6130
C0E0
ENDCHAR
STARTCHAR 0026
ENCODING 38
SWIDTH 617 0
DWIDTH 12 0
BBX 11 14 1 0
BITMAP
0800
7C00
6000
C000
C180
6180
7FE0
3FE0
6180
C180
C180
C180
7F80
3F80
ENDCHAR
STARTCHAR 0027
ENCODING 39
SWIDTH 617 0
DWIDTH 12 0
BBX 2 5 5 8
BITMAP
C0
C0
C0
80
80
ENDCHAR
STARTCHAR 0028
ENCODING 40
SWIDTH 617 0
DWIDTH 12 0
BBX 4 16 4 -3
BITMAP
10
20
60
60
40
C0
C0
C0
C0
C0
C0
40
60
20
20
10
ENDCHAR
STARTCHAR 0029
ENCODING 41
SWIDTH 617 0
DWIDTH 12 0
BBX 5 16 3 -3
BITMAP
C0
60
20
30
30
10
10
18
18
10
10
30
30
20
60
C0
ENDCHAR
STARTCHAR 002A
ENCODING 42
SWIDTH 617 0
DWIDTH 12 0
BBX 8 7 2 6
BITMAP
18
10
D7
3C
38
2C
66
ENDCHAR
STARTCHAR 002B
ENCODING 43
SWIDTH 617 0
DWIDTH 12 0
BBX 10 10 1 0
BITMAP
0C00
0C00
0C00
0C00
FFC0
FFC0
0C00
0C00
0C00
0C00
ENDCHAR
STARTCHAR 002C
ENCODING 44
SWIDTH 617 0
DWIDTH 12 0
BBX 2 6 5 -3
BITMAP
C0
C0
C0
40
C0
80
ENDCHAR
STARTCHAR 002D
ENCODING 45
SWIDTH 617 0
DWIDTH 12 0
BBX 5 2 3 4
BITMAP
F8
F8
ENDCHAR
STARTCHAR 002E
ENCODING 46
SWIDTH 617 0
DWIDTH 12 0
BBX 2 2 5 0
BITMAP
C0
C0
ENDCHAR
STARTCHAR 002F
ENCODING 47
SWIDTH 617 0
DWIDTH 12 0
BBX 11 16 0 -3
BITMAP
0060
0040
00C0
0080
0180
0300
0200
0600
0400
0C00
0800
1800
3000
3000
6000
C000
ENDCHAR
STARTCHAR 0030
ENCODING 48
SWIDTH 617 0
DWIDTH 12 0
BBX 9 14 1 0
BITMAP
0C00
3F00
6380
C180
C180
C180
C180
C180
C180
C180
C180
6180
7380
3E00
ENDCHAR
STARTCHAR 0031
ENCODING 49
SWIDTH 617 0
DWIDTH 12 0
BBX 9 14 2 0
BITMAP
0800
7800
F800
1800
1800
1800
1800
1800
1800
1800
1800
1800
FF80
FF80
ENDCHAR
STARTCHAR 0032
ENCODING 50
SWIDTH 617 0
DWIDTH 12 0
BBX 10 14 1 0
BITMAP
0C00
3F00
6380
C180
C180
0180
0180
0300
0E00
1C00
7000
6000
FFC0
FFC0
ENDCHAR
STARTCHAR 0033
ENCODING 51
SWIDTH 617 0
DWIDTH 12 0
BBX 9 14 1 0
BITMAP
0800
7F00
6380
C180
0180
0180
1F00
1F00
0180
0180
C080
C180
7380
3F00
ENDCHAR
STARTCHAR 0034
ENCODING 52
SWIDTH 617 0
DWIDTH 12 0
BBX 10 14 1 0
BITMAP
0C00
1800
1900
1900
3300
3300
6300
4300
C300
FFC0
FFC0
0300
0300
0300
ENDCHAR
STARTCHAR 0035
ENCODING 53
SWIDTH 617 0
DWIDTH 12 0
BBX 10 13 1 0
BITMAP
7F80
6000
6000
6000
6E00
7F00
6180
0180
00C0
C180
6180
7380
3E00
ENDCHAR
STARTCHAR 0036
ENCODING 54
SWIDTH 617 0
DWIDTH 12 0
BBX 10 14 1 0
BITMAP
0C00
3F00
7380
6180
C080
C000
DF00
E180
E1C0
C0C0
C0C0
6180
7380
3F00
ENDCHAR
STARTCHAR 0037
ENCODING 55
SWIDTH 617 0
DWIDTH 12 0
BBX 10 13 1 0
BITMAP
FFC0
0180
0300
0300
0600
0400
0C00
0C00
1800
1800
1800
1800
3800
ENDCHAR
STARTCHAR 0038
ENCODING 56
SWIDTH 617 0
DWIDTH 12 0
BBX 10 14 1 0
BITMAP
0800
3F00
6180
6180
4180
6180
3F00
3F00
6180
C180
C0C0
C180
6380
3F00
ENDCHAR
STARTCHAR 0039
ENCODING 57
SWIDTH 617 0
DWIDTH 12 0
BBX 9 14 1 0
BITMAP
0800
3F00
6380
C180
C180
C180
C180
7380
3D80
0180
C180
C180
7700
3E00
ENDCHAR
STARTCHAR 003A
ENCODING 58
SWIDTH 617 0
DWIDTH 12 0
BBX 2 10 5 0
BITMAP
C0
C0
00
00
00
00
00
00
C0
C0
ENDCHAR
STARTCHAR 003B
ENCODING 59
SWIDTH 617 0
DWIDTH 12 0
BBX 2 13 5 -3
BITMAP
C0
C0
00
00
00
00
00
C0
C0
C0
40
C0
80
ENDCHAR
STARTCHAR 003C
ENCODING 60
SWIDTH 617 0
DWIDTH 12 0
BBX 10 10 1 0
BITMAP
0040
03C0
0F00
7800
E000
C000
7800
1F00
03C0
0040
ENDCHAR
STARTCHAR 003D
ENCODING 61
SWIDTH 617 0
DWIDTH 12 0
BBX 10 6 1 2
BITMAP
FFC0
FFC0
0000
0000
FFC0
FFC0
ENDCHAR
STARTCHAR 003E
ENCODING 62
SWIDTH 617 0
DWIDTH 12 0
BBX 10 10 1 0
BITMAP
8000
E000
3C00
0F80
01C0
01C0
0780
3C00
F000
8000
ENDCHAR
STARTCHAR 003F
ENCODING 63
SWIDTH 617 0
DWIDTH 12 0
BBX 8 14 2 0
BITMAP
18
7E
C7
C3
83
43
06
0C
18
18
00
00
18
18
ENDCHAR
STARTCHAR 0040
ENCODING 64
SWIDTH 617 0
DWIDTH 12 0
BBX 12 17 0 -3
BITMAP
0600
1980
2040
4020
4F20
99A0
91B0
8190
8790
9D90
91B0
91A0
9BA0
5EE0
4000
2000
1F80
ENDCHAR
STARTCHAR 0041
ENCODING 65
SWIDTH 617 0
DWIDTH 12 0
BBX 11 13 0 0
BITMAP
0E00
0F00
0B00
1B00
1980
1980
3180
30C0
3FC0
7FC0
6060
6060
C060
ENDCHAR
STARTCHAR 0042
ENCODING 66
SWIDTH 617 0
DWIDTH 12 0
BBX 10 13 1 0
BITMAP
FF00
C180
C180
C180
C180
FF00
FF00
C180
C0C0
C0C0
C1C0
FF80
FF00
ENDCHAR
STARTCHAR 0043
ENCODING 67
SWIDTH 617 0
DWIDTH 12 0
BBX 10 14 1 0
BITMAP
0C00
7F00
6180
C180
C0C0
C0C0
C000
C000
C000
C0C0
C0C0
C180
7380
3F00
ENDCHAR
STARTCHAR 0044
ENCODING 68
SWIDTH 617 0
DWIDTH 12 0
BBX 10 13 1 0
BITMAP
FF00
E380
E0C0
E0C0
E0C0
E0C0
E0C0
E0C0
E0C0
E0C0
E1C0
FF80
FF00
ENDCHAR
STARTCHAR 0045
ENCODING 69
SWIDTH 617 0
DWIDTH 12 0
BBX 9 13 2 0
BITMAP
FF00
C000
C000
C000
C000
FF00
FF00
C000
C000
C000
C000
FF00
FF80
ENDCHAR
STARTCHAR 0046
ENCODING 70
SWIDTH 617 0
DWIDTH 12 0
BBX 8 13 2 0
BITMAP
FF
C0
C0
C0
C0
FE
FE
C0
C0
C0
C0
C0
C0
ENDCHAR
STARTCHAR 0047
ENCODING 71
SWIDTH 617 0
DWIDTH 12 0
BBX 10 14 1 0
BITMAP
0C00
7F00
6180
C1C0
C0C0
C000
C000
CFC0
C0C0
C0C0
C0C0
C1C0
73C0
3E40
ENDCHAR
STARTCHAR 0048
ENCODING 72
SWIDTH 617 0
DWIDTH 12 0
BBX 9 13 1 0
BITMAP
C180
C180
C180
C180
C180
FF80
FF80
C180
C180
C180
C180
C180
C180
ENDCHAR
STARTCHAR 0049
ENCODING 73
SWIDTH 617 0
DWIDTH 12 0
BBX 8 13 2 0
BITMAP
FF
18
18
18
18
18
18
18
18
18
18
FF
FF
ENDCHAR
STARTCHAR 004A
ENCODING 74
SWIDTH 617 0
DWIDTH 12 0
BBX 8 13 2 0
BITMAP
03
03
03
03
03
03
03
03
03
C3
C3
EE
7C
ENDCHAR
STARTCHAR 004B
ENCODING 75
SWIDTH 617 0
DWIDTH 12 0
BBX 10 13 1 0
BITMAP
C1C0
C180
C300
C600
CE00
CC00
DC00
FE00
E600
C300
C380
C180
C0C0
ENDCHAR
STARTCHAR 004C
ENCODING 76
SWIDTH 617 0
DWIDTH 12 0
BBX 8 13 2 0
BITMAP
C0
C0
C0
C0
C0
C0
C0
C0
C0
C0
C0
FF
FF
ENDCHAR
STARTCHAR 004D
ENCODING 77
SWIDTH 617 0
DWIDTH 12 0
BBX 10 13 1 0
BITMAP
E1C0
E3C0
E2C0
F2C0
F2C0
F2C0
D2C0
D6C0
D4C0
DCC0
DCC0
CCC0
CCC0
ENDCHAR
STARTCHAR 004E
ENCODING 78
SWIDTH 617 0
DWIDTH 12 0
BBX 9 13 1 0
BITMAP
E180
E180
F180
F180
D980
D980
CD80
CD80
C780
C780
C380
C380
C180
ENDCHAR
STARTCHAR 004F
ENCODING 79
SWIDTH 617 0
DWIDTH 12 0
BBX 10 14 1 0
BITMAP
0C00
7F00
6380
C1C0
C0C0
C0C0
C0C0
C0C0
C0C0
C0C0
C0C0
C180
7380
3F00
ENDCHAR
STARTCHAR 0050
ENCODING 80
SWIDTH 617 0
DWIDTH 12 0
BBX 10 13 1 0
BITMAP
FF80
C1C0
C0C0
C0C0
C0C0
C1C0
FF80
C000
C000
C000
C000
C000
C000
ENDCHAR
STARTCHAR 0051
ENCODING 81
SWIDTH 617 0
DWIDTH 12 0
BBX 10 17 1 -3
BITMAP
0C00
7F00
6380
C1C0
C0C0
C0C0
C0C0
C0C0
C0C0
C0C0
C0C0
C180
7380
3F00
0C00
07C0
03C0
ENDCHAR
STARTCHAR 0052
ENCODING 82
SWIDTH 617 0
DWIDTH 12 0
BBX 11 13 1 0
BITMAP
FF80
C1C0
C0C0
C0C0
C0C0
C180
FF00
C380
C1C0
C0C0
C0C0
C0C0
C0E0
ENDCHAR
STARTCHAR 0053
ENCODING 83
SWIDTH 617 0
DWIDTH 12 0
BBX 10 14 1 0
BITMAP
0C00
7F00
E180
C0C0
C000
E000
7E00
1F80
03C0
00C0
C0C0
C0C0
FF80
3F00
ENDCHAR
STARTCHAR 0054
ENCODING 84
SWIDTH 617 0
DWIDTH 12 0
BBX 10 13 1 0
BITMAP
FFC0
0C00
0C00
0C00
0C00
0C00
0C00
0C00
0C00
0C00
0C00
0C00
0C00
ENDCHAR
STARTCHAR 0055
ENCODING 85
SWIDTH 617 0
DWIDTH 12 0
BBX 9 13 1 0
BITMAP
C180
C180
C180
C180
C180
C180
C180
C180
C180
C180
6180
7780
3F00
ENDCHAR
STARTCHAR 0056
ENCODING 86
SWIDTH 617 0
DWIDTH 12 0
BBX 11 13 0 0
BITMAP
E060
6060
6040
30C0
30C0
30C0
3180
1980
1980
1B00
0F00
0F00
0E00
ENDCHAR
STARTCHAR 0057
ENCODING 87
SWIDTH 617 0
DWIDTH 12 0
BBX 12 13 0 0
BITMAP
C630
C620
C620
4E60
6F60
6B60
6B60
6940
6940
29C0
39C0
39C0
31C0
ENDCHAR
STARTCHAR 0058
ENCODING 88
SWIDTH 617 0
DWIDTH 12 0
BBX 11 13 0 0
BITMAP
60E0
30C0
3980
1980
0F00
0E00
0E00
0F00
1B80
3180
30C0
60E0
E060
ENDCHAR
STARTCHAR 0059
ENCODING 89
SWIDTH 617 0
DWIDTH 12 0
BBX 11 13 0 0
BITMAP
E060
70C0
30C0
3980
1980
1F00
0F00
0600
0600
0600
0600
0600
0600
ENDCHAR
STARTCHAR 005A
ENCODING 90
SWIDTH 617 0
DWIDTH 12 0
BBX 10 13 1 0
BITMAP
FFC0
0180
0300
0700
0600
0C00
1C00
1800
3800
3000
6000
FFC0
FFC0
ENDCHAR
STARTCHAR 005B
ENCODING 91
SWIDTH 617 0
DWIDTH 12 0
BBX 4 16 5 -3
BITMAP
F0
80
80
80
80
80
80
80
80
80
80
80
80
80
80
F0
ENDCHAR
STARTCHAR 005C
ENCODING 92
SWIDTH 617 0
DWIDTH 12 0
BBX 11 16 0 -3
BITMAP
C000
6000
3000
3000
1800
0800
0C00
0400
0600
0200
0300
0180
0080
00C0
0040
0060
ENDCHAR
STARTCHAR 005D
ENCODING 93
SWIDTH 617 0
DWIDTH 12 0
BBX 4 16 3 -3
BITMAP
F0
30
30
30
30
30
30
30
30
30
30
30
30
30
30
F0
ENDCHAR
STARTCHAR 005E
ENCODING 94
SWIDTH 617 0
DWIDTH 12 0
BBX 10 10 1 0
BITMAP
0C00
1C00
1E00
3200
3300
2300
6100
6180
4180
C0C0
ENDCHAR
STARTCHAR 005F
ENCODING 95
SWIDTH 617 0
DWIDTH 12 0
BBX 10 2 1 -3
BITMAP
FFC0
FFC0
ENDCHAR
STARTCHAR 0060
ENCODING 96
SWIDTH 617 0
DWIDTH 12 0
BBX 3 4 4 11
BITMAP
C0
40
60
20
ENDCHAR
STARTCHAR 0061
ENCODING 97
SWIDTH 617 0
DWIDTH 12 0
BBX 10 10 1 0
BITMAP
3E00
6300
4180
0180
1F80
7180
C180
C380
E780
7DC0
ENDCHAR
STARTCHAR 0062
ENCODING 98
SWIDTH 617 0
DWIDTH 12 0
BBX 9 14 2 0
BITMAP
C000
C000
C000
C000
FE00
E700
C300
C100
C180
C180
C100
C300
E700
BE00
ENDCHAR
STARTCHAR 0063
ENCODING 99
SWIDTH 617 0
DWIDTH 12 0
BBX 9 10 1 0
BITMAP
3E00
7300
6180
C180
C000
C000
C180
6180
7300
3E00
ENDCHAR
STARTCHAR 0064
ENCODING 100
SWIDTH 617 0
DWIDTH 12 0
BBX 9 14 1 0
BITMAP
0180
0180
0180
0180
3D80
6380
4180
C180
C180
C180
C180
C180
6380
3D80
ENDCHAR
STARTCHAR 0065
ENCODING 101
SWIDTH 617 0
DWIDTH 12 0
BBX 9 10 1 0
BITMAP
3E00
7300
6180
C180
FF80
C000
C180
6180
7380
3F00
ENDCHAR
STARTCHAR 0066
ENCODING 102
SWIDTH 617 0
DWIDTH 12 0
BBX 9 14 2 0
BITMAP
0F80
1880
3000
3000
FF00
FF00
3000
3000
3000
3000
3000
3000
FF00
FF00
ENDCHAR
STARTCHAR 0067
ENCODING 103
SWIDTH 617 0
DWIDTH 12 0
BBX 10 16 1 -4
BITMAP
00C0
00C0
3F80
6380
6180
6180
6180
3F00
6000
4000
7F80
7FC0
C0C0
C0C0
FFC0
3F00
ENDCHAR
STARTCHAR 0068
ENCODING 104
SWIDTH 617 0
DWIDTH 12 0
BBX 8 14 2 0
BITMAP
C0
C0
C0
C0
FE
E7
C3
C3
C3
C3
C3
C3
C3
C3
ENDCHAR
STARTCHAR 0069
ENCODING 105
SWIDTH 617 0
DWIDTH 12 0
BBX 9 14 2 0
BITMAP
1800
1800
0000
0000
F800
F800
1800
1800
1800
1800
1800
1800
FF80
FF80
ENDCHAR
STARTCHAR 006A
ENCODING 106
SWIDTH 617 0
DWIDTH 12 0
BBX 5 18 2 -4
BITMAP
18
18
00
00
F8
F8
18
18
18
18
18
18
18
18
18
18
F8
60
ENDCHAR
STARTCHAR 006B
ENCODING 107
SWIDTH 617 0
DWIDTH 12 0
BBX 9 14 2 0
BITMAP
8000
8000
8000
8000
8300
8600
8C00
9800
B800
F800
FC00
CE00
8600
8380
ENDCHAR
STARTCHAR 006C
ENCODING 108
SWIDTH 617 0
DWIDTH 12 0
BBX 9 14 1 0
BITMAP
FC00
FC00
0C00
0C00
0C00
0C00
0C00
0C00
0C00
0C00
0C00
0C00
FF80
FF80
ENDCHAR
STARTCHAR 006D
ENCODING 109
SWIDTH 617 0
DWIDTH 12 0
BBX 10 10 1 0
BITMAP
BB80
DDC0
CCC0
CCC0
CCC0
CCC0
CCC0
CCC0
CCC0
CCC0
ENDCHAR
STARTCHAR 006E
ENCODING 110
SWIDTH 617 0
DWIDTH 12 0
BBX 8 10 2 0
BITMAP
BE
E7
C3
C3
C3
C3
C3
C3
C3
C3
ENDCHAR
STARTCHAR 006F
ENCODING 111
SWIDTH 617 0
DWIDTH 12 0
BBX 9 10 1 0
BITMAP
3E00
7300
6180
C180
C180
C180
C180
6180
7300
3E00
ENDCHAR
STARTCHAR 0070
ENCODING 112
SWIDTH 617 0
DWIDTH 12 0
BBX 9 14 2 -4
BITMAP
BE00
E700
C300
C100
C180
C180
C100
C300
E700
FE00
C000
C000
C000
C000
ENDCHAR
STARTCHAR 0071
ENCODING 113
SWIDTH 617 0
DWIDTH 12 0
BBX 9 14 1 -4
BITMAP
3D80
6380
4180
C180
C180
C180
C180
C180
6380
3D80
0180
0180
0180
0180
ENDCHAR
STARTCHAR 0072
ENCODING 114
SWIDTH 617 0
DWIDTH 12 0
BBX 10 10 1 0
BITMAP
F780
FDC0
38C0
30C0
3000
3000
3000
3000
FF80
FF80
ENDCHAR
STARTCHAR 0073
ENCODING 115
SWIDTH 617 0
DWIDTH 12 0
BBX 8 10 2 0
BITMAP
7E
C7
C3
C0
FC
1F
03
83
C3
7E
ENDCHAR
STARTCHAR 0074
ENCODING 116
SWIDTH 617 0
DWIDTH 12 0
BBX 9 13 1 0
BITMAP
1800
1800
1800
FF80
FF80
1800
1800
1800
1800
1800
1800
1C80
0F80
ENDCHAR
STARTCHAR 0075
ENCODING 117
SWIDTH 617 0
DWIDTH 12 0
BBX 10 10 1 0
BITMAP
C180
C180
C180
C180
C180
C180
C180
6180
7780
3DC0
ENDCHAR
STARTCHAR 0076
ENCODING 118
SWIDTH 617 0
DWIDTH 12 0
BBX 10 10 1 0
BITMAP
C0C0
E180
6180
6100
3300
3300
3600
1E00
1C00
0C00
ENDCHAR
STARTCHAR 0077
ENCODING 119
SWIDTH 617 0
DWIDTH 12 0
BBX 12 10 0 0
BITMAP
C630
C620
4E20
4F60
6B60
6940
6940
39C0
39C0
31C0
ENDCHAR
STARTCHAR 0078
ENCODING 120
SWIDTH 617 0
DWIDTH 12 0
BBX 10 10 1 0
BITMAP
E180
7300
3300
1E00
1C00
1C00
3E00
3300
6380
E1C0
ENDCHAR
STARTCHAR 0079
ENCODING 121
SWIDTH 617 0
DWIDTH 12 0
BBX 10 14 1 -4
BITMAP
C0C0
6180
6180
6300
3300
3200
1E00
1E00
1C00
0C00
0C00
1800
7000
6000
ENDCHAR
STARTCHAR 007A
ENCODING 122
SWIDTH 617 0
DWIDTH 12 0
BBX 8 10 2 0
BITMAP
FE
06
0C
0C
18
38
30
60
60
FF
ENDCHAR
STARTCHAR 007B
ENCODING 123
SWIDTH 617 0
DWIDTH 12 0
BBX 4 16 4 -3
BITMAP
30
60
60
60
60
60
40
C0
C0
60
60
60
60
60
60
30
ENDCHAR
STARTCHAR 007C
ENCODING 124
SWIDTH 617 0
DWIDTH 12 0
BBX 2 18 5 -4
BITMAP
C0
C0
C0
C0
C0
C0
C0
C0
C0
C0
C0
C0
C0
C0
C0
C0
C0
C0
ENDCHAR
STARTCHAR 007D
ENCODING 125
SWIDTH 617 0
DWIDTH 12 0
BBX 5 16 3 -3
BITMAP
E0
30
30
30
30
30
30
18
18
30
30
30
30
30
30
E0
ENDCHAR
STARTCHAR 007E
ENCODING 126
SWIDTH 617 0
DWIDTH 12 0
BBX 11 3 0 4
BITMAP
7C20
C7E0
8180
ENDCHAR
STARTCHAR 00A0
ENCODING 160
SWIDTH 617 0
DWIDTH 12 0
BBX 0 0 0 0
BITMAP
ENDCHAR
STARTCHAR 00A1
ENCODING 161
SWIDTH 617 0
DWIDTH 12 0
BBX 2 13 5 -3
BITMAP
C0
C0
00
00
C0
C0
C0
C0
C0
C0
C0
C0
C0
ENDCHAR
STARTCHAR 00A2
ENCODING 162
SWIDTH 617 0
DWIDTH 12 0
BBX 9 13 1 0
BITMAP
0C00
1E00
3F00
6180
6180
6000
E000
6080
6180
6180
3F00
0C00
0C00
ENDCHAR
STARTCHAR 00A3
ENCODING 163
SWIDTH 617 0
DWIDTH 12 0
BBX 10 14 1 0
BITMAP
0600
1F80
31C0
30C0
3000
3000
3000
FE00
3000
2000
2000
2000
FF80
FF80
ENDCHAR
STARTCHAR 00A4
ENCODING 164
SWIDTH 617 0
DWIDTH 12 0
BBX 10 10 1 2
BITMAP
0080
FFC0
6180
C080
C0C0
80C0
C0C0
C080
6380
FEC0
ENDCHAR
STARTCHAR 00A5
ENCODING 165
SWIDTH 617 0
DWIDTH 12 0
BBX 11 13 0 0
BITMAP
E060
70C0
30C0
3980
79E0
7FE0
0F00
7FE0
0600
0600
0600
0600
0600
ENDCHAR
STARTCHAR 00A6
ENCODING 166
SWIDTH 617 0
DWIDTH 12 0
BBX 2 18 5 -4
BITMAP
C0
C0
C0
C0
C0
C0
C0
00
00
00
00
C0
C0
C0
C0
C0
C0
C0
ENDCHAR
STARTCHAR 00A7
ENCODING 167
SWIDTH 617 0
DWIDTH 12 0
BBX 8 18 2 -4
BITMAP
10
7E
C3
C3
C0
70
7C
8E
83
C1
E3
3E
0E
07
03
C3
7E
18
ENDCHAR
STARTCHAR 00A8
ENCODING 168
SWIDTH 617 0
DWIDTH 12 0
BBX 6 2 3 12
BITMAP
CC
CC
ENDCHAR
STARTCHAR 00A9
ENCODING 169
SWIDTH 617 0
DWIDTH 12 0
BBX 12 14 0 0
BITMAP
0E00
1180
2040
4E20
99A0
90A0
9010
9010
9090
90A0
5F20
4020
2040
1F80
ENDCHAR
STARTCHAR 00AA
ENCODING 170
SWIDTH 617 0
DWIDTH 12 0
BBX 6 7 3 7
BITMAP
20
D8
08
78
88
98
6C
ENDCHAR
STARTCHAR 00AB
ENCODING 171
SWIDTH 617 0
DWIDTH 12 0
BBX 8 7 2 3
BITMAP
33
66
4C
CC
44
66
33
ENDCHAR
STARTCHAR 00AC
ENCODING 172
SWIDTH 617 0
DWIDTH 12 0
BBX 10 6 1 3
BITMAP
FFC0
FFC0
00C0
00C0
00C0
00C0
ENDCHAR
STARTCHAR 00AD
ENCODING 173
SWIDTH 617 0
DWIDTH 12 0
BBX 5 2 3 4
BITMAP
F8
F8
ENDCHAR
STARTCHAR 00AE
ENCODING 174
SWIDTH 617 0
DWIDTH 12 0
BBX 12 14 0 0
BITMAP
0E00
1180
2040
5E20
91A0
90A0
9190
9F10
9190
91A0
50A0
4020
2040
1F80
ENDCHAR
STARTCHAR 00AF
ENCODING 175
SWIDTH 617 0
DWIDTH 12 0
BBX 6 1 3 12
BITMAP
FC
ENDCHAR
STARTCHAR 00B0
ENCODING 176
SWIDTH 617 0
DWIDTH 12 0
BBX 6 6 3 8
BITMAP
20
F8
8C
84
8C
78
ENDCHAR
STARTCHAR 00B1
ENCODING 177
SWIDTH 617 0
DWIDTH 12 0
BBX 10 10 1 0
BITMAP
0C00
0C00
0C00
FFC0
FFC0
0C00
0C00
0000
FFC0
FFC0
ENDCHAR
STARTCHAR 00B2
ENCODING 178
SWIDTH 617 0
DWIDTH 12 0
BBX 5 8 3 8
BITMAP
30
58
88
08
18
60
C0
F8
ENDCHAR
STARTCHAR 00B3
ENCODING 179
SWIDTH 617 0
DWIDTH 12 0
BBX 5 8 3 8
BITMAP
20
58
88
18
38
08
C8
78
ENDCHAR
STARTCHAR 00B4
ENCODING 180
SWIDTH 617 0
DWIDTH 12 0
BBX 3 4 4 11
BITMAP
20
60
40
C0
ENDCHAR
STARTCHAR 00B5
ENCODING 181
SWIDTH 617 0
DWIDTH 12 0
BBX 10 13 1 -3
BITMAP
C180
C180
C180
C180
C180
C180
C180
E180
F780
FDC0
C000
C000
C000
ENDCHAR
STARTCHAR 00B6
ENCODING 182
SWIDTH 617 0
DWIDTH 12 0
BBX 9 16 1 -3
BITMAP
7F80
7B00
FB00
FB00
FB00
FB00
7B00
3B00
0B00
0B00
0B00
0B00
0B00
0B00
0B00
0B00
ENDCHAR
STARTCHAR 00B7
ENCODING 183
SWIDTH 617 0
DWIDTH 12 0
BBX 2 3 5 6
BITMAP
C0
C0
C0
ENDCHAR
STARTCHAR 00B8
ENCODING 184
SWIDTH 617 0
DWIDTH 12 0
BBX 4 3 4 -4
BITMAP
70
10
E0
ENDCHAR
STARTCHAR 00B9
ENCODING 185
SWIDTH 617 0
DWIDTH 12 0
BBX 5 7 3 8
BITMAP
E0
20
20
20
20
20
F8
ENDCHAR
STARTCHAR 00BA
ENCODING 186
SWIDTH 617 0
DWIDTH 12 0
BBX 6 7 3 7
BITMAP
20
58
8C
8C
8C
48
30
ENDCHAR
STARTCHAR 00BB
ENCODING 187
SWIDTH 617 0
DWIDTH 12 0
BBX 8 7 2 3
BITMAP
CC
64
66
33
66
44
CC
ENDCHAR
STARTCHAR 00BC
ENCODING 188
SWIDTH 617 0
DWIDTH 12 0
BBX 12 13 0 0
BITMAP
E030
2040
2080
2180
2300
2040
F880
00A0
0920
1120
23F0
6020
C020
ENDCHAR
STARTCHAR 00BD
ENCODING 189
SWIDTH 617 0
DWIDTH 12 0
BBX 12 13 0 0
BITMAP
E030
2040
2080
2180
2300
20C0
F9A0
0130
1830
1060
2080
4100
C1F0
ENDCHAR
STARTCHAR 00BE
ENCODING 190
SWIDTH 617 0
DWIDTH 12 0
BBX 12 14 0 0
BITMAP
2010
D820
8840
1880
3980
0B00
8840
7080
00A0
0920
1120
23F0
6020
C020
ENDCHAR
STARTCHAR 00BF
ENCODING 191
SWIDTH 617 0
DWIDTH 12 0
BBX 8 14 2 -4
BITMAP
38
38
00
00
10
10
30
E0
C0
C3
C3
C7
7E
18
ENDCHAR
STARTCHAR 00C0
ENCODING 192
SWIDTH 617 0
DWIDTH 12 0
BBX 11 17 0 0
BITMAP
1800
0C00
0200
0000
0E00
0F00
0B00
1B00
1980
1980
3180
30C0
3FC0
7FC0
6060
6060
C060
ENDCHAR
STARTCHAR 00C1
ENCODING 193
SWIDTH 617 0
DWIDTH 12 0
BBX 11 17 0 0
BITMAP
0380
0600
0000
0000
0E00
0F00
0B00
1B00
1980
1980
3180
30C0
3FC0
7FC0
6060
6060
C060
ENDCHAR
STARTCHAR 00C2
ENCODING 194
SWIDTH 617 0
DWIDTH 12 0
BBX 11 17 0 0
BITMAP
0E00
1980
0000
0000
0E00
0F00
0B00
1B00
1980
1980
3180
30C0
3FC0
7FC0
6060
6060
C060
ENDCHAR
STARTCHAR 00C3
ENCODING 195
SWIDTH 617 0
DWIDTH 12 0
BBX 11 17 0 0
BITMAP
1C80
3780
0000
0000
0E00
0F00
0B00
1B00
1980
1980
3180
30C0
3FC0
7FC0
6060
6060
C060
ENDCHAR
STARTCHAR 00C4
ENCODING 196
SWIDTH 617 0
DWIDTH 12 0
BBX 11 17 0 0
BITMAP
1980
1980
0000
0000
0E00
0F00
0B00
1B00
1980
1980
3180
30C0
3FC0
7FC0
6060
6060
C060
ENDCHAR
STARTCHAR 00C5
ENCODING 197
SWIDTH 617 0
DWIDTH 12 0
BBX 11 18 0 0
BITMAP
0F00
0900
0B00
0400
0000
0E00
0F00
0B00
1B00
1980
1980
3180
30C0
3FC0
7FC0
6060
6060
C060
ENDCHAR
STARTCHAR 00C6
ENCODING 198
SWIDTH 617 0
DWIDTH 12 0
BBX 11 13 0 0
BITMAP
0FE0
0F00
1B00
1B00
1B00
33C0
33C0
3300
7F00
7F00
6300
C3E0
C3E0
ENDCHAR
STARTCHAR 00C7
ENCODING 199
SWIDTH 617 0
DWIDTH 12 0
BBX 10 18 1 -4
BITMAP
0C00
7F00
6180
C180
C0C0
C0C0
C000
C000
C000
C0C0
C0C0
C180
7380
3F00
0800
0600
0200
1C00
ENDCHAR
STARTCHAR 00C8
ENCODING 200
SWIDTH 617 0
DWIDTH 12 0
BBX 9 17 2 0
BITMAP
7000
1800
0000
0000
FF00
C000
C000
C000
C000
FF00
FF00
C000
C000
C000
C000
FF00
FF80
ENDCHAR
STARTCHAR 00C9
ENCODING 201
SWIDTH 617 0
DWIDTH 12 0
BBX 9 17 2 0
BITMAP
0600
0C00
1000
0000
FF00
C000
C000
C000
C000
FF00
FF00
C000
C000
C000
C000
FF00
FF80
ENDCHAR
STARTCHAR 00CA
ENCODING 202
SWIDTH 617 0
DWIDTH 12 0
BBX 9 17 2 0
BITMAP
3C00
6600
0000
0000
FF00
C000
C000
C000
C000
FF00
FF00
C000
C000
C000
C000
FF00
FF80
ENDCHAR
STARTCHAR 00CB
ENCODING 203
SWIDTH 617 0
DWIDTH 12 0
BBX 9 17 2 0
BITMAP
6600
6600
0000
0000
FF00
C000
C000
C000
C000
FF00
FF00
C000
C000
C000
C000
FF00
FF80
ENDCHAR
STARTCHAR 00CC
ENCODING 204
SWIDTH 617 0
DWIDTH 12 0
BBX 8 17 2 0
BITMAP
60
30
08
00
FF
18
18
18
18
18
18
18
18
18
18
FF
FF
ENDCHAR
STARTCHAR 00CD
ENCODING 205
SWIDTH 617 0
DWIDTH 12 0
BBX 8 17 2 0
BITMAP
0E
18
00
00
FF
18
18
18
18
18
18
18
18
18
18
FF
FF
ENDCHAR
STARTCHAR 00CE
ENCODING 206
SWIDTH 617 0
DWIDTH 12 0
BBX 8 17 2 0
BITMAP
38
66
00
00
FF
18
18
18
18
18
18
18
18
18
18
FF
FF
ENDCHAR
STARTCHAR 00CF
ENCODING 207
SWIDTH 617 0
DWIDTH 12 0
BBX 8 17 2 0
BITMAP
66
66
00
00
FF
18
18
18
18
18
18
18
18
18
18
FF
FF
ENDCHAR
STARTCHAR 00D0
ENCODING 208
SWIDTH 617 0
DWIDTH 12 0
BBX 11 13 0 0
BITMAP
7F80
71C0
7060
7060
7060
7060
FE60
7060
7060
7060
70E0
7FC0
7F80
ENDCHAR
STARTCHAR 00D1
ENCODING 209
SWIDTH 617 0
DWIDTH 12 0
BBX 9 17 1 0
BITMAP
3900
6F00
0000
0000
E180
E180
F180
F180
D980
D980
CD80
CD80
C780
C780
C380
C380
C180
ENDCHAR
STARTCHAR 00D2
ENCODING 210
SWIDTH 617 0
DWIDTH 12 0
BBX 10 17 1 0
BITMAP
3000
1800
0400
0C00
7F00
6380
C1C0
C0C0
C0C0
C0C0
C0C0
C0C0
C0C0
C0C0
C180
7380
3F00
ENDCHAR
STARTCHAR 00D3
ENCODING 211
SWIDTH 617 0
DWIDTH 12 0
BBX 10 17 1 0
BITMAP
0700
0C00
0000
0C00
7F00
6380
C1C0
C0C0
C0C0
C0C0
C0C0
C0C0
C0C0
C0C0
C180
7380
3F00
ENDCHAR
STARTCHAR 00D4
ENCODING 212
SWIDTH 617 0
DWIDTH 12 0
BBX 10 17 1 0
BITMAP
1C00
3300
0000
0C00
7F00
6380
C1C0
C0C0
C0C0
C0C0
C0C0
C0C0
C0C0
C0C0
C180
7380
3F00
ENDCHAR
STARTCHAR 00D5
ENCODING 213
SWIDTH 617 0
DWIDTH 12 0
BBX 10 17 1 0
BITMAP
3900
6F00
0000
0C00
7F00
6380
C1C0
C0C0
C0C0
C0C0
C0C0
C0C0
C0C0
C0C0
C180
7380
3F00
ENDCHAR
STARTCHAR 00D6
ENCODING 214
SWIDTH 617 0
DWIDTH 12 0
BBX 10 17 1 0
BITMAP
3300
3300
0000
0C00
7F00
6380
C1C0
C0C0
C0C0
C0C0
C0C0
C0C0
C0C0
C0C0
C180
7380
3F00
ENDCHAR
STARTCHAR 00D7
ENCODING 215
SWIDTH 617 0
DWIDTH 12 0
BBX 8 8 2 1
BITMAP
82
C7
6C
38
38
6C
C6
83
ENDCHAR
STARTCHAR 00D8
ENCODING 216
SWIDTH 617 0
DWIDTH 12 0
BBX 11 16 0 -1
BITMAP
0020
0660
3FC0
31C0
61E0
6160
6360
6260
6460
6C60
6860
7860
70C0
39C0
7F80
C000
ENDCHAR
STARTCHAR 00D9
ENCODING 217
SWIDTH 617 0
DWIDTH 12 0
BBX 9 17 1 0
BITMAP
3000
1800
0400
0000
C180
C180
C180
C180
C180
C180
C180
C180
C180
C180
6180
7780
3F00
ENDCHAR
STARTCHAR 00DA
ENCODING 218
SWIDTH 617 0
DWIDTH 12 0
BBX 9 17 1 0
BITMAP
0700
0C00
0000
0000
C180
C180
C180
C180
C180
C180
C180
C180
C180
C180
6180
7780
3F00
ENDCHAR
STARTCHAR 00DB
ENCODING 219
SWIDTH 617 0
DWIDTH 12 0
BBX 9 17 1 0
BITMAP
1C00
3300
0000
0000
C180
C180
C180
C180
C180
C180
C180
C180
C180
C180
6180
7780
3F00
ENDCHAR
STARTCHAR 00DC
ENCODING 220
SWIDTH 617 0
DWIDTH 12 0
BBX 9 17 1 0
BITMAP
3300
3300
0000
0000
C180
C180
C180
C180
C180
C180
C180
C180
C180
C180
6180
7780
3F00
ENDCHAR
STARTCHAR 00DD
ENCODING 221
SWIDTH 617 0
DWIDTH 12 0
BBX 11 17 0 0
BITMAP
0380
0600
0000
8000
6060
70C0
30C0
3980
1980
1F00
0F00
0600
0600
0600
0600
0600
0600
ENDCHAR
STARTCHAR 00DE
ENCODING 222
SWIDTH 617 0
DWIDTH 12 0
BBX 10 13 1 0
BITMAP
E000
E000
FF00
FF80
E0C0
E0C0
E0C0
E0C0
FF80
FF00
E000
E000
E000
ENDCHAR
STARTCHAR 00DF
ENCODING 223
SWIDTH 617 0
DWIDTH 12 0
BBX 11 15 0 -1
BITMAP
1F80
39C0
30C0
30C0
F0C0
F1C0
3700
31C0
30C0
3060
3060
30C0
37C0
3780
3000
ENDCHAR
STARTCHAR 00E0
ENCODING 224
SWIDTH 617 0
DWIDTH 12 0
BBX 10 15 1 0
BITMAP
3000
1800
0800
0C00
0000
3E00
6300
4180
0180
1F80
7180
C180
C380
E780
7DC0
ENDCHAR
STARTCHAR 00E1
ENCODING 225
SWIDTH 617 0
DWIDTH 12 0
BBX 10 15 1 0
BITMAP
0600
0400
0C00
0800
0000
3E00
6300
4180
0180
1F80
7180
C180
C380
E780
7DC0
ENDCHAR
STARTCHAR 00E2
ENCODING 226
SWIDTH 617 0
DWIDTH 12 0
BBX 10 15 1 0
BITMAP
0C00
1C00
3200
6300
0000
3E00
6300
4180
0180
1F80
7180
C180
C380
E780
7DC0
ENDCHAR
STARTCHAR 00E3
ENCODING 227
SWIDTH 617 0
DWIDTH 12 0
BBX 10 14 1 0
BITMAP
3900
4F00
0000
0000
3E00
6300
4180
0180
1F80
7180
C180
C380
E780
7DC0
ENDCHAR
STARTCHAR 00E4
ENCODING 228
SWIDTH 617 0
DWIDTH 12 0
BBX 10 14 1 0
BITMAP
2300
2300
0000
0000
3E00
6300
4180
0180
1F80
7180
C180
C380
E780
7DC0
ENDCHAR
STARTCHAR 00E5
ENCODING 229
SWIDTH 617 0
DWIDTH 12 0
BBX 10 15 1 0
BITMAP
1C00
1200
1600
0800
0000
3E00
6300
4180
0180
1F80
7180
C180
C380
E780
7DC0
ENDCHAR
STARTCHAR 00E6
ENCODING 230
SWIDTH 617 0
DWIDTH 12 0
BBX 11 10 0 0
BITMAP
39C0
6F60
4620
0620
3FE0
6600
C620
C620
CF60
7BC0
ENDCHAR
STARTCHAR 00E7
ENCODING 231
SWIDTH 617 0
DWIDTH 12 0
BBX 9 14 1 -4
BITMAP
3E00
7300
6180
C180
C000
C000
C180
6180
7300
3E00
0800
0600
0200
1C00
ENDCHAR
STARTCHAR 00E8
ENCODING 232
SWIDTH 617 0
DWIDTH 12 0
BBX 9 15 1 0
BITMAP
1000
1800
0800
0400
0000
3E00
7300
6180
C180
FF80
C000
C180
6180
7380
3F00
ENDCHAR
STARTCHAR 00E9
ENCODING 233
SWIDTH 617 0
DWIDTH 12 0
BBX 9 15 1 0
BITMAP
0600
0600
0C00
0800
0000
3E00
7300
6180
C180
FF80
C000
C180
6180
7380
3F00
ENDCHAR
STARTCHAR 00EA
ENCODING 234
SWIDTH 617 0
DWIDTH 12 0
BBX 9 15 1 0
BITMAP
0C00
1E00
3200
2100
0000
3E00
7300
6180
C180
FF80
C000
C180
6180
7380
3F00
ENDCHAR
STARTCHAR 00EB
ENCODING 235
SWIDTH 617 0
DWIDTH 12 0
BBX 9 14 1 0
BITMAP
3300
3300
0000
0000
3E00
7300
6180
C180
FF80
C000
C180
6180
7380
3F00
ENDCHAR
STARTCHAR 00EC
ENCODING 236
SWIDTH 617 0
DWIDTH 12 0
BBX 9 15 2 0
BITMAP
3000
1000
1800
0800
0000
F800
F800
1800
1800
1800
1800
1800
1800
FF80
FF80
ENDCHAR
STARTCHAR 00ED
ENCODING 237
SWIDTH 617 0
DWIDTH 12 0
BBX 9 15 2 0
BITMAP
0600
0C00
0800
1800
0000
F800
F800
1800
1800
1800
1800
1800
1800
FF80
FF80
ENDCHAR
STARTCHAR 00EE
ENCODING 238
SWIDTH 617 0
DWIDTH 12 0
BBX 9 15 2 0
BITMAP
1800
3C00
2600
6300
0000
F800
F800
1800
1800
1800
1800
1800
1800
FF80
FF80
ENDCHAR
STARTCHAR 00EF
ENCODING 239
SWIDTH 617 0
DWIDTH 12 0
BBX 9 14 2 0
BITMAP
6600
6600
0000
0000
F800
F800
1800
1800
1800
1800
1800
1800
FF80
FF80
ENDCHAR
STARTCHAR 00F0
ENCODING 240
SWIDTH 617 0
DWIDTH 12 0
BBX 9 14 1 0
BITMAP
7600
1800
6C00
0600
3F00
7380
6180
C180
C180
C180
C180
6180
7300
3E00
ENDCHAR
STARTCHAR 00F1
ENCODING 241
SWIDTH 617 0
DWIDTH 12 0
BBX 8 14 2 0
BITMAP
72
DE
00
00
BE
E7
C3
C3
C3
C3
C3
C3
C3
C3
ENDCHAR
STARTCHAR 00F2
ENCODING 242
SWIDTH 617 0
DWIDTH 12 0
BBX 9 15 1 0
BITMAP
3000
1800
0800
0C00
0000
3E00
7300
6180
C180
C180
C180
C180
6180
7300
3E00
ENDCHAR
STARTCHAR 00F3
ENCODING 243
SWIDTH 617 0
DWIDTH 12 0
BBX 9 15 1 0
BITMAP
0600
0400
0C00
0800
0000
3E00
7300
6180
C180
C180
C180
C180
6180
7300
3E00
ENDCHAR
STARTCHAR 00F4
ENCODING 244
SWIDTH 617 0
DWIDTH 12 0
BBX 9 15 1 0
BITMAP
0C00
1E00
3200
2300
0000
3E00
7300
6180
C180
C180
C180
C180
6180
7300
3E00
ENDCHAR
STARTCHAR 00F5
ENCODING 245
SWIDTH 617 0
DWIDTH 12 0
BBX 9 14 1 0
BITMAP
3900
6F00
0000
0000
3E00
7300
6180
C180
C180
C180
C180
6180
7300
3E00
ENDCHAR
STARTCHAR 00F6
ENCODING 246
SWIDTH 617 0
DWIDTH 12 0
BBX 9 14 1 0
BITMAP
3300
3300
0000
0000
3E00
7300
6180
C180
C180
C180
C180
6180
7300
3E00
ENDCHAR
STARTCHAR 00F7
ENCODING 247
SWIDTH 617 0
DWIDTH 12 0
BBX 10 8 1 1
BITMAP
0C00
0C00
0000
FFC0
FFC0
0000
0C00
0C00
ENDCHAR
STARTCHAR 00F8
ENCODING 248
SWIDTH 617 0
DWIDTH 12 0
BBX 9 12 1 -1
BITMAP
0080
3F00
7300
6380
C580
CD80
C980
D180
7180
7300
7E00
C000
ENDCHAR
STARTCHAR 00F9
ENCODING 249
SWIDTH 617 0
DWIDTH 12 0
BBX 10 15 1 0
BITMAP
3000
1800
0800
0C00
0000
C180
C180
C180
C180
C180
C180
C180
6180
7780
3DC0
ENDCHAR
STARTCHAR 00FA
ENCODING 250
SWIDTH 617 0
DWIDTH 12 0
BBX 10 15 1 0
BITMAP
0600
0400
0C00
0800
0000
C180
C180
C180
C180
C180
C180
C180
6180
7780
3DC0
ENDCHAR
STARTCHAR 00FB
ENCODING 251
SWIDTH 617 0
DWIDTH 12 0
BBX 10 15 1 0
BITMAP
0C00
1C00
3200
6300
0000
C180
C180
C180
C180
C180
C180
C180
6180
7780
3DC0
ENDCHAR
STARTCHAR 00FC
ENCODING 252
SWIDTH 617 0
DWIDTH 12 0
BBX 10 14 1 0
BITMAP
2300
2300
0000
0000
C180
C180
C180
C180
C180
C180
C180
6180
7780
3DC0
ENDCHAR
STARTCHAR 00FD
ENCODING 253
SWIDTH 617 0
DWIDTH 12 0
BBX 10 19 1 -4
BITMAP
0600
0600
0C00
0800
0000
C0C0
6180
6180
6300
3300
3200
1E00
1E00
1C00
0C00
0C00
1800
7000
6000
ENDCHAR
STARTCHAR 00FE
ENCODING 254
SWIDTH 617 0
DWIDTH 12 0
BBX 9 18 2 -4
BITMAP
C000
C000
C000
C000
FE00
E700
C300
C100
C180
C180
C100
C300
E700
FE00
C000
C000
C000
C000
ENDCHAR
STARTCHAR 00FF
ENCODING 255
SWIDTH 617 0
DWIDTH 12 0
BBX 10 18 1 -4
BITMAP
3300
3300
0000
0000
C0C0
6180
6180
6300
3300
3200
1E00
1E00
1C00
0C00
0C00
1800
7000
6000
ENDCHAR
STARTCHAR 0152
ENCODING 140
SWIDTH 617 0
DWIDTH 12 0
BBX 10 13 1 0
BITMAP
7FC0
E600
C600
C600
C600
C7C0
C7C0
C600
C600
C600
C600
7FC0
3FC0
ENDCHAR
STARTCHAR 0153
ENCODING 156
SWIDTH 617 0
DWIDTH 12 0
BBX 11 10 0 0
BITMAP
79C0
6F60
C620
C620
C7E0
C600
C620
C620
6F60
79C0
ENDCHAR
STARTCHAR 0160
ENCODING 138
SWIDTH 617 0
DWIDTH 12 0
BBX 10 17 1 0
BITMAP
3300
1E00
0000
0C00
7F00
E180
C0C0
C000
E000
7E00
1F80
03C0
00C0
C0C0
C0C0
FF80
3F00
ENDCHAR
STARTCHAR 0161
ENCODING 154
SWIDTH 617 0
DWIDTH 12 0
BBX 8 15 2 0
BITMAP
C6
64
38
18
00
7E
C7
C3
C0
FC
1F
03
83
C3
7E
ENDCHAR
STARTCHAR 0178
ENCODING 159
SWIDTH 617 0
DWIDTH 12 0
BBX 11 17 0 0
BITMAP
1980
1980
0000
8000
6060
70C0
30C0
3980
1980
1F00
0F00
0600
0600
0600
0600
0600
0600
ENDCHAR
STARTCHAR 017D
ENCODING 142
SWIDTH 617 0
DWIDTH 12 0
BBX 10 17 1 0
BITMAP
3300
1E00
0000
0000
FFC0
0180
0300
0700
0600
0C00
1C00
1800
3800
3000
6000
FFC0
FFC0
ENDCHAR
STARTCHAR 017E
ENCODING 158
SWIDTH 617 0
DWIDTH 12 0
BBX 8 15 2 0
BITMAP
C6
64
38
18
00
FE
06
0C
0C
18
38
30
60
60
FF
ENDCHAR
STARTCHAR 0192
ENCODING 131
SWIDTH 617 0
DWIDTH 12 0
BBX 9 18 1 -4
BITMAP
0780
0E80
0C00
0C00
1F00
1F00
0C00
0800
1800
1800
1800
1800
1800
1800
1800
3000
F000
4000
ENDCHAR
STARTCHAR 02C6
ENCODING 136
SWIDTH 617 0
DWIDTH 12 0
BBX 6 4 3 11
BITMAP
30
78
C8
8C
ENDCHAR
STARTCHAR 02DC
ENCODING 152
SWIDTH 617 0
DWIDTH 12 0
BBX 7 2 2 12
BITMAP
72
DE
ENDCHAR
STARTCHAR 2013
ENCODING 150
SWIDTH 617 0
DWIDTH 12 0
BBX 8 2 2 4
BITMAP
FF
FF
ENDCHAR
STARTCHAR 2014
ENCODING 151
SWIDTH 617 0
DWIDTH 12 0
BBX 12 2 0 4
BITMAP
FFF0
FFF0
ENDCHAR
STARTCHAR 2018
ENCODING 145
SWIDTH 617 0
DWIDTH 12 0
BBX 2 5 5 8
BITMAP
C0
80
C0
C0
C0
ENDCHAR
STARTCHAR 2019
ENCODING 146
SWIDTH 617 0
DWIDTH 12 0
BBX 2 6 5 8
BITMAP
C0
C0
C0
40
C0
80
ENDCHAR
STARTCHAR 201A
ENCODING 130
SWIDTH 617 0
DWIDTH 12 0
BBX 2 6 5 -3
BITMAP
C0
C0
C0
40
C0
80
ENDCHAR
STARTCHAR 201C
ENCODING 147
SWIDTH 617 0
DWIDTH 12 0
BBX 6 5 3 8
BITMAP
CC
88
CC
CC
CC
ENDCHAR
STARTCHAR 201D
ENCODING 148
SWIDTH 617 0
DWIDTH 12 0
BBX 6 6 3 8
BITMAP
CC
CC
CC
44
48
88
ENDCHAR
STARTCHAR 201E
ENCODING 132
SWIDTH 617 0
DWIDTH 12 0
BBX 6 6 3 -3
BITMAP
CC
CC
CC
44
48
88
ENDCHAR
STARTCHAR 2020
ENCODING 134
SWIDTH 617 0
DWIDTH 12 0
BBX 9 16 1 -3
BITMAP
0C00
0C00
0800
FF80
FF80
0800
0800
0800
0C00
0C00
0C00
0C00
0C00
0C00
0C00
0C00
ENDCHAR
STARTCHAR 2021
ENCODING 135
SWIDTH 617 0
DWIDTH 12 0
BBX 9 16 1 -3
BITMAP
0C00
0C00
0800
FF80
FF80
0800
0C00
0C00
0C00
0C00
0800
FB80
FF80
0800
0C00
0C00
ENDCHAR
STARTCHAR 2022
ENCODING 149
SWIDTH 617 0
DWIDTH 12 0
BBX 6 6 3 4
BITMAP
30
78
FC
FC
FC
78
ENDCHAR
STARTCHAR 2026
ENCODING 133
SWIDTH 617 0
DWIDTH 12 0
BBX 10 2 1 0
BITMAP
CCC0
CCC0
ENDCHAR
STARTCHAR 2030
ENCODING 137
SWIDTH 617 0
DWIDTH 12 0
BBX 11 13 0 0
BITMAP
7800
4C00
4C00
4C00
7800
1000
FFE0
31C0
4B60
4E20
4E20
4B60
39C0
ENDCHAR
STARTCHAR 2039
ENCODING 139
SWIDTH 617 0
DWIDTH 12 0
BBX 4 7 4 3
BITMAP
30
60
40
C0
40
60
30
ENDCHAR
STARTCHAR 203A
ENCODING 155
SWIDTH 617 0
DWIDTH 12 0
BBX 4 7 4 3
BITMAP
C0
40
60
30
60
40
C0
ENDCHAR
STARTCHAR 20AC
ENCODING 128
SWIDTH 617 0
DWIDTH 12 0
BBX 9 14 1 0
BITMAP
0100
0F80
1C00
3800
3000
FE00
FE00
6000
FE00
3000
3000
3800
1F80
0780
ENDCHAR
STARTCHAR 2122
ENCODING 153
SWIDTH 617 0
DWIDTH 12 0
BBX 11 7 0 6
BITMAP
F660
2660
2660
2560
25A0
25A0
25A0
ENDCHAR
ENDFONT
