STARTFONT 2.1
COMMENT
COMMENT Converted from OpenType font "ChivoMono-Bold.ttf" by "otf2bdf 3.0".
COMMENT
FONT -FreeType-chivo mono-Bold-R-Normal--33-240-100-100-P-161-Windows-cp1252
SIZE 24 100 100
FONTBOUNDINGBOX 21 39 0 -7
STARTPROPERTIES 19
FOUNDRY "FreeType"
FAMILY_NAME "chivo mono"
WEIGHT_NAME "Bold"
SLANT "R"
SETWIDTH_NAME "Normal"
ADD_STYLE_NAME ""
PIXEL_SIZE 33
POINT_SIZE 240
RESOLUTION_X 100
RESOLUTION_Y 100
SPACING "P"
AVERAGE_WIDTH 161
CHARSET_REGISTRY "Windows"
CHARSET_ENCODING "cp1252"
FONT_ASCENT 31
FONT_DESCENT 8
COPYRIGHT "Copyright 2018 The Chivo Project Authors (https://github.com/Omnibus-Type/Chivo)"
_OTF_FONTFILE "ChivoMono-Bold.ttf"
_OTF_PSNAME "ChivoMono-Bold"
ENDPROPERTIES
CHARS 219
STARTCHAR 000D
ENCODING 13
SWIDTH 600 0
DWIDTH 20 0
BBX 0 0 0 0
BITMAP
ENDCHAR
STARTCHAR 0020
ENCODING 32
SWIDTH 600 0
DWIDTH 20 0
BBX 0 0 0 0
BITMAP
ENDCHAR
STARTCHAR 0021
ENCODING 33
SWIDTH 600 0
DWIDTH 20 0
BBX 6 23 7 0
BITMAP
FC
FC
FC
FC
FC
FC
FC
7C
78
78
78
78
78
78
78
78
00
00
FC
FC
FC
FC
FC
ENDCHAR
STARTCHAR 0022
ENCODING 34
SWIDTH 600 0
DWIDTH 20 0
BBX 10 10 5 13
BITMAP
F3C0
F3C0
F3C0
F3C0
F3C0
F3C0
F3C0
E1C0
6180
6180
ENDCHAR
STARTCHAR 0023
ENCODING 35
SWIDTH 600 0
DWIDTH 20 0
BBX 20 23 0 0
BITMAP
01E1C0
01C1C0
01C3C0
01C380
03C380
03C380
7FFFF0
7FFFF0
7FFFF0
7FFFF0
070700
070F00
070F00
0F0E00
FFFFE0
FFFFE0
FFFFE0
1E1C00
1E1C00
1C1C00
1C3C00
1C3C00
3C3800
ENDCHAR
STARTCHAR 0024
ENCODING 36
SWIDTH 600 0
DWIDTH 20 0
BBX 18 27 1 -2
BITMAP
01E000
01C000
01C000
0FFC00
1FFF00
3FFF00
7F3F80
7C0F80
7C0780
7C0000
7F8000
7FF000
3FFE00
1FFF00
07FF80
00FFC0
000FC0
F80FC0
F807C0
FC0FC0
7FFF80
7FFF80
3FFF00
0FFC00
01C000
01C000
01E000
ENDCHAR
STARTCHAR 0025
ENCODING 37
SWIDTH 600 0
DWIDTH 20 0
BBX 20 23 0 0
BITMAP
3C0070
7F00E0
F701C0
E38180
E38380
E38700
E38E00
E38C00
E39C00
F72000
7F0000
1C0380
0007E0
004FF0
019C70
031C70
071C70
0E1C70
1C1C70
1C1C70
380E70
700FE0
F007C0
ENDCHAR
STARTCHAR 0026
ENCODING 38
SWIDTH 600 0
DWIDTH 20 0
BBX 19 23 1 0
BITMAP
07C000
1FC000
3FC000
7FC000
7E0000
FC0780
FC0780
7C0F80
7C0F80
3FFFE0
1FFFE0
1FFFE0
3FFFE0
7F0F80
FC0F80
F80F80
F80F80
F80F80
FC0F80
FFFF80
7FFF80
3FFF80
07FF80
ENDCHAR
STARTCHAR 0027
ENCODING 39
SWIDTH 600 0
DWIDTH 20 0
BBX 4 10 8 13
BITMAP
F0
F0
F0
F0
F0
F0
F0
60
60
60
ENDCHAR
STARTCHAR 0028
ENCODING 40
SWIDTH 600 0
DWIDTH 20 0
BBX 8 28 7 -5
BITMAP
07
0E
1E
3C
3C
78
78
78
F8
F0
F0
F0
F0
F0
F0
F0
F0
F0
F0
F0
78
78
78
3C
3C
1C
1E
0F
ENDCHAR
STARTCHAR 0029
ENCODING 41
SWIDTH 600 0
DWIDTH 20 0
BBX 8 28 5 -5
BITMAP
E0
70
78
3C
3C
1E
1E
1E
1F
0F
0F
0F
0F
0F
0F
0F
0F
0F
0F
0F
1E
1E
1E
3C
3C
38
78
F0
ENDCHAR
STARTCHAR 002A
ENCODING 42
SWIDTH 600 0
DWIDTH 20 0
BBX 14 14 3 9
BITMAP
0780
0780
0780
8304
F31C
FFFC
FFFC
0FC0
0FC0
1FE0
3CE0
7CF8
3860
0840
ENDCHAR
STARTCHAR 002B
ENCODING 43
SWIDTH 600 0
DWIDTH 20 0
BBX 18 17 1 0
BITMAP
01E000
01E000
01E000
01E000
01E000
01E000
01E000
FFFFC0
FFFFC0
FFFFC0
01E000
01E000
01E000
01E000
01E000
01E000
01E000
ENDCHAR
STARTCHAR 002C
ENCODING 44
SWIDTH 600 0
DWIDTH 20 0
BBX 6 12 7 -6
BITMAP
FC
FC
FC
FC
FC
FC
1C
18
38
38
70
F0
ENDCHAR
STARTCHAR 002D
ENCODING 45
SWIDTH 600 0
DWIDTH 20 0
BBX 8 4 6 7
BITMAP
FF
FF
FF
FF
ENDCHAR
STARTCHAR 002E
ENCODING 46
SWIDTH 600 0
DWIDTH 20 0
BBX 6 5 7 0
BITMAP
FC
FC
FC
FC
FC
ENDCHAR
STARTCHAR 002F
ENCODING 47
SWIDTH 600 0
DWIDTH 20 0
BBX 20 29 0 -6
BITMAP
0000F0
0001E0
0001C0
0003C0
000380
000780
000700
000F00
001E00
001E00
003C00
003800
007800
007000
00F000
00E000
01E000
03C000
03C000
078000
078000
0F0000
0E0000
1E0000
1C0000
3C0000
780000
780000
F00000
ENDCHAR
STARTCHAR 0030
ENCODING 48
SWIDTH 600 0
DWIDTH 20 0
BBX 18 23 1 0
BITMAP
07F800
1FFE00
3FFF00
3FFF00
7E1F80
7C0F80
FC0FC0
FC0FC0
FC0FC0
FC0FC0
FC0FC0
FC0FC0
FC0FC0
FC0FC0
FC0FC0
FC0FC0
FC0FC0
7C0F80
7E1F80
3FFF00
3FFF00
1FFE00
07F800
ENDCHAR
STARTCHAR 0031
ENCODING 49
SWIDTH 600 0
DWIDTH 20 0
BBX 17 23 2 0
BITMAP
00E000
03E000
3FE000
FFE000
FFE000
FFE000
03E000
03E000
03E000
03E000
03E000
03E000
03E000
03E000
03E000
03E000
03E000
03E000
03E000
FFFF80
FFFF80
FFFF80
FFFF80
ENDCHAR
STARTCHAR 0032
ENCODING 50
SWIDTH 600 0
DWIDTH 20 0
BBX 18 23 1 0
BITMAP
07F800
1FFE00
3FFF00
3FFF80
7E1F80
7C0F80
780F80
780FC0
000F80
001F80
001F80
007F00
00FE00
01FC00
07F800
0FE000
1FC000
3F0000
7FFFC0
7FFFC0
7FFFC0
FFFFC0
FFFFC0
ENDCHAR
STARTCHAR 0033
ENCODING 51
SWIDTH 600 0
DWIDTH 20 0
BBX 18 23 1 0
BITMAP
07F800
1FFE00
3FFF00
7FFF80
7C1F80
780F80
780F80
000F80
001F80
007F00
03FE00
03FE00
03FF00
001F80
000F80
000FC0
F80FC0
F80FC0
FC1FC0
7FFF80
7FFF00
3FFE00
0FFC00
ENDCHAR
STARTCHAR 0034
ENCODING 52
SWIDTH 600 0
DWIDTH 20 0
BBX 18 23 1 0
BITMAP
03E000
07C000
07C000
078E00
0F8E00
0F8E00
1F1E00
1F1E00
1E3E00
3C3E00
3C3E00
783E00
783E00
F03E00
FFFFC0
FFFFC0
FFFFC0
FFFFC0
003E00
003E00
003E00
003E00
003E00
ENDCHAR
STARTCHAR 0035
ENCODING 53
SWIDTH 600 0
DWIDTH 20 0
BBX 18 23 1 0
BITMAP
3FFF00
3FFF00
3FFF00
3FFF00
3FFF00
3C0000
3C0000
3C0000
3DFC00
7FFE00
7FFF00
7FFF80
7C1F80
000F80
000FC0
000FC0
F80FC0
FC0F80
7C1F80
7FFF80
3FFF00
1FFE00
07F800
ENDCHAR
STARTCHAR 0036
ENCODING 54
SWIDTH 600 0
DWIDTH 20 0
BBX 17 23 2 0
BITMAP
07F000
1FFC00
3FFE00
7FFF00
FC3F00
F81F00
F80F00
F80000
F84000
FBFC00
FFFE00
FFFF00
FC1F00
F81F80
F80F80
F80F80
F80F80
F81F80
FC1F00
7FFF00
3FFE00
1FFC00
0FF800
ENDCHAR
STARTCHAR 0037
ENCODING 55
SWIDTH 600 0
DWIDTH 20 0
BBX 17 23 2 0
BITMAP
FFFF80
FFFF80
FFFF80
FFFF00
FFFE00
003E00
007C00
007800
00F800
01F000
01F000
03E000
03E000
07C000
07C000
0FC000
0F8000
0F8000
1F8000
1F8000
1F8000
1F8000
1F8000
ENDCHAR
STARTCHAR 0038
ENCODING 56
SWIDTH 600 0
DWIDTH 20 0
BBX 18 23 1 0
BITMAP
07F800
1FFE00
3FFF00
3F3F00
7E1F80
7C0F80
7C0F80
7C0F80
3C0F80
3F3F00
1FFE00
0FFC00
3FFF00
7E1F80
7C0F80
7C0FC0
FC0FC0
FC0FC0
7C0F80
7F3F80
3FFF00
1FFE00
0FFC00
ENDCHAR
STARTCHAR 0039
ENCODING 57
SWIDTH 600 0
DWIDTH 20 0
BBX 17 23 1 0
BITMAP
07F000
1FFC00
3FFE00
7FFF00
7C1F80
FC0F80
F80F80
F80F80
F80F80
FC0F80
7C1F80
7FFF80
3FFF80
1FEF80
038F80
800F80
780F80
7C0F80
7C1F80
7FFF00
3FFE00
1FFC00
0FF800
ENDCHAR
STARTCHAR 003A
ENCODING 58
SWIDTH 600 0
DWIDTH 20 0
BBX 6 17 7 0
BITMAP
FC
FC
FC
FC
FC
00
00
00
00
00
00
00
FC
FC
FC
FC
FC
ENDCHAR
STARTCHAR 003B
ENCODING 59
SWIDTH 600 0
DWIDTH 20 0
BBX 6 23 7 -6
BITMAP
FC
FC
FC
FC
FC
00
00
00
00
00
00
FC
FC
FC
FC
FC
FC
1C
18
38
38
70
F0
ENDCHAR
STARTCHAR 003C
ENCODING 60
SWIDTH 600 0
DWIDTH 20 0
BBX 17 17 1 0
BITMAP
000080
000780
003F80
00FF80
07FE00
1FF800
FFC000
FE0000
F80000
FE0000
FFC000
3FF800
07FE00
00FF80
003F80
000780
000180
ENDCHAR
STARTCHAR 003D
ENCODING 61
SWIDTH 600 0
DWIDTH 20 0
BBX 18 11 1 3
BITMAP
FFFFC0
FFFFC0
FFFFC0
FFFFC0
000000
000000
000000
FFFFC0
FFFFC0
FFFFC0
FFFFC0
ENDCHAR
STARTCHAR 003E
ENCODING 62
SWIDTH 600 0
DWIDTH 20 0
BBX 17 17 2 0
BITMAP
800000
F00000
FE0000
FF8000
3FF000
0FFC00
01FF80
003F80
000F80
003F80
01FF80
0FFC00
3FF000
FF8000
FE0000
F00000
C00000
ENDCHAR
STARTCHAR 003F
ENCODING 63
SWIDTH 600 0
DWIDTH 20 0
BBX 16 23 2 0
BITMAP
0FF0
1FFC
7FFE
7FFE
FC3F
F83F
F81F
F83F
003F
007E
00FE
01F8
03F0
03E0
03E0
03E0
0000
0000
03E0
03E0
03E0
03E0
03E0
ENDCHAR
STARTCHAR 0040
ENCODING 64
SWIDTH 600 0
DWIDTH 20 0
BBX 20 29 0 -6
BITMAP
03FC00
07FF00
1E0380
1801C0
3800C0
300060
61FC60
67FE60
67FE70
E79F30
C78F30
C00F30
C00F30
C1FF30
C7FF30
C7CF30
CF8F30
CF0F30
CF0F30
EF9F70
6FFFE0
67F7E0
63E3C0
300000
380000
1C0000
0F0E00
07FE00
00E000
ENDCHAR
STARTCHAR 0041
ENCODING 65
SWIDTH 600 0
DWIDTH 20 0
BBX 20 23 0 0
BITMAP
03FC00
03FC00
03FC00
03FC00
07FE00
07FE00
07BE00
0F9F00
0F9F00
0F9F00
0F1F00
1F0F80
1F0F80
1F0F80
1E0F80
3FFFC0
3FFFC0
3FFFC0
7E07E0
7C07E0
7C03E0
7C03E0
FC03F0
ENDCHAR
STARTCHAR 0042
ENCODING 66
SWIDTH 600 0
DWIDTH 20 0
BBX 17 23 2 0
BITMAP
FFF800
FFFE00
FFFF00
FFFF00
F83F00
F81F80
F81F00
F81F00
F81F00
FFFE00
FFFC00
FFF800
FFFE00
F83F00
F81F80
F80F80
F80F80
F81F80
F83F80
FFFF80
FFFF00
FFFE00
FFF800
ENDCHAR
STARTCHAR 0043
ENCODING 67
SWIDTH 600 0
DWIDTH 20 0
BBX 18 23 1 0
BITMAP
07F800
1FFE00
3FFF00
7FFF00
7E1F80
FC0F80
FC0FC0
F80FC0
F807C0
F80000
F80000
F80000
F80000
F80000
F807C0
F807C0
F807C0
FC0F80
FE1F80
7FFF00
3FFF00
1FFE00
0FF800
ENDCHAR
STARTCHAR 0044
ENCODING 68
SWIDTH 600 0
DWIDTH 20 0
BBX 18 23 2 0
BITMAP
FFF000
FFFC00
FFFE00
FFFF00
F87F80
F81F80
F80FC0
F80FC0
F80FC0
F80FC0
F80FC0
F80FC0
F80FC0
F80FC0
F80FC0
F80FC0
F80FC0
F81F80
F87F80
FFFF00
FFFE00
FFFC00
FFF000
ENDCHAR
STARTCHAR 0045
ENCODING 69
SWIDTH 600 0
DWIDTH 20 0
BBX 16 23 2 0
BITMAP
FFFF
FFFF
FFFF
FFFF
FC00
FC00
FC00
FC00
FC00
FFFE
FFFE
FFFE
FFFE
FC00
FC00
FC00
FC00
FC00
FC00
FFFF
FFFF
FFFF
FFFF
ENDCHAR
STARTCHAR 0046
ENCODING 70
SWIDTH 600 0
DWIDTH 20 0
BBX 16 23 2 0
BITMAP
FFFF
FFFF
FFFF
FFFE
FFFE
FC00
FC00
FC00
FC00
FC00
FFFC
FFFC
FFFC
FFFC
FC00
FC00
FC00
FC00
FC00
FC00
FC00
FC00
FC00
ENDCHAR
STARTCHAR 0047
ENCODING 71
SWIDTH 600 0
DWIDTH 20 0
BBX 18 23 1 0
BITMAP
07F800
1FFE00
3FFF00
7FFF80
7E1F80
FC0FC0
F807C0
F807C0
F80000
F80000
F87FC0
F87FC0
F87FC0
F87FC0
F807C0
F807C0
F807C0
FC0FC0
FE1FC0
7FFFC0
3FFFC0
1FF9C0
0FF1C0
ENDCHAR
STARTCHAR 0048
ENCODING 72
SWIDTH 600 0
DWIDTH 20 0
BBX 16 23 2 0
BITMAP
F81F
F81F
F81F
F81F
F81F
F81F
F81F
F81F
F81F
FFFF
FFFF
FFFF
FFFF
FFFF
F81F
F81F
F81F
F81F
F81F
F81F
F81F
F81F
F81F
ENDCHAR
STARTCHAR 0049
ENCODING 73
SWIDTH 600 0
DWIDTH 20 0
BBX 15 23 3 0
BITMAP
FFFE
FFFE
FFFE
FFFE
0FC0
0FC0
0FC0
0FC0
0FC0
0FC0
0FC0
0FC0
0FC0
0FC0
0FC0
0FC0
0FC0
0FC0
0FC0
FFFE
FFFE
FFFE
FFFE
ENDCHAR
STARTCHAR 004A
ENCODING 74
SWIDTH 600 0
DWIDTH 20 0
BBX 16 23 2 0
BITMAP
003F
003F
003F
003F
003F
003F
003F
003F
003F
003F
003F
003F
003F
003F
003F
FC3F
FC3F
FC3F
7C3E
7FFE
7FFE
3FFC
0FF0
ENDCHAR
STARTCHAR 004B
ENCODING 75
SWIDTH 600 0
DWIDTH 20 0
BBX 18 23 2 0
BITMAP
F80F80
F81F80
F83F00
F83F00
F87E00
F87C00
F8FC00
F9F800
F9F800
FBF000
FBF000
FFE000
FFF000
FFF000
FFF800
FDFC00
FCFC00
F87E00
F87E00
F83F00
F83F00
F81F80
F80FC0
ENDCHAR
STARTCHAR 004C
ENCODING 76
SWIDTH 600 0
DWIDTH 20 0
BBX 15 23 3 0
BITMAP
F800
F800
F800
F800
F800
F800
F800
F800
F800
F800
F800
F800
F800
F800
F800
F800
F800
F800
FFFE
FFFE
FFFE
FFFE
FFFE
ENDCHAR
STARTCHAR 004D
ENCODING 77
SWIDTH 600 0
DWIDTH 20 0
BBX 18 23 1 0
BITMAP
FE1FC0
FE1FC0
FE1FC0
FE1FC0
FF3FC0
FF3FC0
FF3FC0
FF3FC0
FF3FC0
FF37C0
FF37C0
FF77C0
FFF7C0
FBF7C0
FBF7C0
FBF7C0
FBE7C0
FBE7C0
FBE7C0
FBE7C0
F9E7C0
F9E7C0
F9E7C0
ENDCHAR
STARTCHAR 004E
ENCODING 78
SWIDTH 600 0
DWIDTH 20 0
BBX 16 23 2 0
BITMAP
F81F
FC1F
FC1F
FE1F
FE1F
FF1F
FF1F
FF1F
FF9F
FF9F
FFDF
FBDF
FBFF
FBFF
F9FF
F9FF
F8FF
F8FF
F87F
F87F
F83F
F83F
F81F
ENDCHAR
STARTCHAR 004F
ENCODING 79
SWIDTH 600 0
DWIDTH 20 0
BBX 18 23 1 0
BITMAP
07F800
1FFE00
3FFF00
7FFF80
7E1F80
FC0FC0
FC07C0
F807C0
F807C0
F807C0
F807C0
F807C0
F807C0
F807C0
F807C0
F807C0
F807C0
FC0FC0
FE1FC0
7FFF80
3FFF00
1FFE00
0FFC00
ENDCHAR
STARTCHAR 0050
ENCODING 80
SWIDTH 600 0
DWIDTH 20 0
BBX 18 23 2 0
BITMAP
FFF800
FFFE00
FFFF00
FFFF80
F83F80
F81F80
F80FC0
F80FC0
F80FC0
F81F80
FFFF80
FFFF00
FFFE00
FFFC00
F80000
F80000
F80000
F80000
F80000
F80000
F80000
F80000
F80000
ENDCHAR
STARTCHAR 0051
ENCODING 81
SWIDTH 600 0
DWIDTH 20 0
BBX 19 28 1 -5
BITMAP
07F800
1FFE00
3FFF00
7FFF80
7E1F80
FC0FC0
FC07C0
F807C0
F807C0
F807C0
F807C0
F807C0
F807C0
F807C0
F807C0
F807C0
F807C0
FC0FC0
FE1FC0
7FFF80
3FFF00
1FFE00
0FFC00
01F000
01FC20
00FFE0
007FE0
001FC0
ENDCHAR
STARTCHAR 0052
ENCODING 82
SWIDTH 600 0
DWIDTH 20 0
BBX 19 23 2 0
BITMAP
FFF800
FFFE00
FFFF00
FFFF80
F83F80
F80F80
F80F80
F80F80
F80F80
F81F80
FFFF00
FFFC00
FFFE00
FFFF00
F87F00
F81F80
F81F80
F81F80
F81F80
F81F80
F80F80
F80FC0
F807E0
ENDCHAR
STARTCHAR 0053
ENCODING 83
SWIDTH 600 0
DWIDTH 20 0
BBX 18 23 1 0
BITMAP
07FC00
1FFE00
3FFF80
7FFF80
FE0FC0
FC07C0
FC07C0
FC0000
FF8000
7FF800
7FFE00
3FFF80
0FFF80
01FFC0
001FC0
F80FC0
F807C0
F80FC0
FC0FC0
FFFFC0
7FFF80
3FFF00
0FFC00
ENDCHAR
STARTCHAR 0054
ENCODING 84
SWIDTH 600 0
DWIDTH 20 0
BBX 18 23 1 0
BITMAP
FFFFC0
FFFFC0
FFFFC0
FFFFC0
FFFFC0
03F000
03F000
03F000
03F000
03F000
03F000
03F000
03F000
03F000
03F000
03F000
03F000
03F000
03F000
03F000
03F000
03F000
03F000
ENDCHAR
STARTCHAR 0055
ENCODING 85
SWIDTH 600 0
DWIDTH 20 0
BBX 18 23 1 0
BITMAP
FC0FC0
FC0FC0
FC0FC0
FC0FC0
FC0FC0
FC0FC0
FC0FC0
FC0FC0
FC0FC0
FC0FC0
FC0FC0
FC0FC0
FC0FC0
FC0FC0
FC0FC0
FC0FC0
FC0FC0
7C0F80
7E1F80
7FFF80
3FFF00
1FFE00
0FFC00
ENDCHAR
STARTCHAR 0056
ENCODING 86
SWIDTH 600 0
DWIDTH 20 0
BBX 20 23 0 0
BITMAP
FC03F0
7C03E0
7C03E0
7E03E0
7E03E0
3E07C0
3E07C0
3F07C0
1F07C0
1F0F80
1F0F80
1F0F80
0F8F00
0F9F00
0F9F00
0F9F00
07DE00
07DE00
07FE00
03FE00
03FC00
03FC00
03FC00
ENDCHAR
STARTCHAR 0057
ENCODING 87
SWIDTH 600 0
DWIDTH 20 0
BBX 20 23 0 0
BITMAP
F8F0F0
F8F0F0
F8F0F0
F8F9F0
78F9F0
78F9E0
78F9E0
7DF9E0
7DF9E0
7DF9E0
7DF9E0
7DFFE0
7DFFE0
3D9FC0
3D9FC0
3F9FC0
3F9FC0
3F9FC0
3F9FC0
3F9FC0
3F8FC0
3F0FC0
1F0F80
ENDCHAR
STARTCHAR 0058
ENCODING 88
SWIDTH 600 0
DWIDTH 20 0
BBX 20 23 0 0
BITMAP
7E03E0
3F07E0
3F07C0
1F8F80
1F8F80
0FDF00
0FDF00
07FE00
07FE00
03FC00
03FC00
03FC00
03FC00
07FE00
07FE00
0FBF00
0FBF80
1F1F80
3F1FC0
3E0FC0
7E0FE0
7E07E0
FC07F0
ENDCHAR
STARTCHAR 0059
ENCODING 89
SWIDTH 600 0
DWIDTH 20 0
BBX 20 23 0 0
BITMAP
FC03F0
7E03E0
7E07E0
3F07C0
3F0FC0
1F8F80
1F9F80
0F9F00
0FDF00
07FE00
07FE00
03FC00
03FC00
01F800
01F800
01F800
01F800
01F800
01F800
01F800
01F800
01F800
01F800
ENDCHAR
STARTCHAR 005A
ENCODING 90
SWIDTH 600 0
DWIDTH 20 0
BBX 18 23 1 0
BITMAP
7FFFC0
7FFFC0
7FFFC0
7FFF80
003F00
007F00
007E00
00FE00
00FC00
01F800
03F800
03F000
07F000
07E000
0FC000
1FC000
1F8000
3F0000
7F0000
7FFFC0
FFFFC0
FFFFC0
FFFFC0
ENDCHAR
STARTCHAR 005B
ENCODING 91
SWIDTH 600 0
DWIDTH 20 0
BBX 7 28 8 -5
BITMAP
FE
FE
F0
F0
F0
F0
F0
F0
F0
F0
F0
F0
F0
F0
F0
F0
F0
F0
F0
F0
F0
F0
F0
F0
F0
F0
FE
FE
ENDCHAR
STARTCHAR 005C
ENCODING 92
SWIDTH 600 0
DWIDTH 20 0
BBX 20 29 0 -6
BITMAP
F00000
780000
380000
3C0000
1C0000
1E0000
0E0000
0F0000
078000
078000
03C000
01C000
01E000
00E000
00F000
007000
007800
003C00
003C00
001E00
001E00
000F00
000700
000780
000380
0003C0
0001E0
0001E0
0000F0
ENDCHAR
STARTCHAR 005D
ENCODING 93
SWIDTH 600 0
DWIDTH 20 0
BBX 7 28 5 -5
BITMAP
FE
FE
1E
1E
1E
1E
1E
1E
1E
1E
1E
1E
1E
1E
1E
1E
1E
1E
1E
1E
1E
1E
1E
1E
1E
1E
FE
FE
ENDCHAR
STARTCHAR 005E
ENCODING 94
SWIDTH 600 0
DWIDTH 20 0
BBX 18 17 1 0
BITMAP
01E000
03F000
03F000
03F000
07F800
07F800
0F3C00
0F3C00
0E1C00
1E1E00
1E1E00
3C0F00
3C0F00
3C0F00
780780
780780
F003C0
ENDCHAR
STARTCHAR 005F
ENCODING 95
SWIDTH 600 0
DWIDTH 20 0
BBX 16 3 2 -5
BITMAP
FFFF
FFFF
FFFF
ENDCHAR
STARTCHAR 0060
ENCODING 96
SWIDTH 600 0
DWIDTH 20 0
BBX 8 5 6 20
BITMAP
F8
7C
3C
1E
1F
ENDCHAR
STARTCHAR 0061
ENCODING 97
SWIDTH 600 0
DWIDTH 20 0
BBX 17 17 2 0
BITMAP
1FF800
3FFC00
7FFE00
FC3E00
F83E00
003E00
003E00
1FFE00
7FFE00
FE3E00
F83E00
F83E00
F83E00
F87E00
FFFF80
7FDF80
3F9F80
ENDCHAR
STARTCHAR 0062
ENCODING 98
SWIDTH 600 0
DWIDTH 20 0
BBX 17 24 2 0
BITMAP
FC0000
FC0000
FC0000
FC0000
FC0000
FC0000
FC0000
FDF800
FFFE00
FFFE00
FE3F00
FC1F00
FC1F80
FC1F80
FC1F80
FC1F80
FC1F80
FC1F80
FC1F00
FC1F00
FE3F00
FFFE00
FFFC00
F9F800
ENDCHAR
STARTCHAR 0063
ENCODING 99
SWIDTH 600 0
DWIDTH 20 0
BBX 17 17 1 0
BITMAP
07F800
1FFE00
3FFE00
3E1F00
7C0F00
7C0F80
FC0F80
FC0000
FC0000
FC0000
7C0F80
7C0F80
7C0F00
3E1F00
3FFE00
1FFE00
07F800
ENDCHAR
STARTCHAR 0064
ENCODING 100
SWIDTH 600 0
DWIDTH 20 0
BBX 17 24 1 0
BITMAP
001F80
001F80
001F80
001F80
001F80
001F80
001F80
0FFF80
1FFF80
3FFF80
7E3F80
7C1F80
FC1F80
FC1F80
FC1F80
FC1F80
FC1F80
FC1F80
FC1F80
7C1F80
7E3F80
3FFF80
3FFF80
0FCF80
ENDCHAR
STARTCHAR 0065
ENCODING 101
SWIDTH 600 0
DWIDTH 20 0
BBX 17 17 1 0
BITMAP
07FC00
1FFE00
3FFF00
3E1F80
7E0F80
7C0F80
7C0F80
FFFF80
FFFF80
FC0000
7C0000
7C0F80
7C0F80
7E1F80
3FFF00
1FFE00
07FC00
ENDCHAR
STARTCHAR 0066
ENCODING 102
SWIDTH 600 0
DWIDTH 20 0
BBX 15 24 3 0
BITMAP
01FE
07FE
07FE
0FE2
0F80
0F80
0F80
FFFE
FFFE
FFFE
FFFE
0F80
0F80
0F80
0F80
0F80
0F80
0F80
0F80
0F80
FFFE
FFFE
FFFE
FFFE
ENDCHAR
STARTCHAR 0067
ENCODING 103
SWIDTH 600 0
DWIDTH 20 0
BBX 19 26 1 -6
BITMAP
0003E0
0003C0
0007C0
0FFF80
1FFE00
3FFF00
3E0F80
7C0F80
7C0F80
3E0F80
3FBF00
1FFF00
1FFC00
3E0000
7C0000
7C0000
7FFF00
3FFF80
3FFFC0
7FFFC0
F807E0
F003E0
F803C0
FFFFC0
7FFF80
3FFF00
ENDCHAR
STARTCHAR 0068
ENCODING 104
SWIDTH 600 0
DWIDTH 20 0
BBX 16 24 2 0
BITMAP
FC00
FC00
FC00
FC00
FC00
FC00
FC00
FDFC
FFFE
FFFE
FFFF
FC3F
FC1F
FC1F
FC1F
FC1F
FC1F
FC1F
FC1F
FC1F
FC1F
FC1F
FC1F
FC1F
ENDCHAR
STARTCHAR 0069
ENCODING 105
SWIDTH 600 0
DWIDTH 20 0
BBX 16 24 3 0
BITMAP
03C0
03C0
03C0
03C0
0000
0000
0000
FFE0
FFE0
FFE0
FFE0
07E0
07E0
07E0
07E0
07E0
07E0
07E0
07E0
07E0
FFFF
FFFF
FFFF
FFFF
ENDCHAR
STARTCHAR 006A
ENCODING 106
SWIDTH 600 0
DWIDTH 20 0
BBX 11 30 3 -6
BITMAP
03C0
03C0
03C0
03C0
0000
0000
0000
FFE0
FFE0
FFE0
FFE0
07E0
07E0
07E0
07E0
07E0
07E0
07E0
07E0
07E0
07E0
07E0
07E0
07E0
07E0
07E0
CFC0
FFC0
FF80
FF00
ENDCHAR
STARTCHAR 006B
ENCODING 107
SWIDTH 600 0
DWIDTH 20 0
BBX 17 24 2 0
BITMAP
F80000
F80000
F80000
F80000
F80000
F80000
F80000
F81F80
F83F00
F87E00
F8FC00
F8FC00
F9F800
FBF000
FFE000
FFE000
FFF000
FFF800
FFFC00
FCFC00
F87E00
F87F00
F83F00
F81F80
ENDCHAR
STARTCHAR 006C
ENCODING 108
SWIDTH 600 0
DWIDTH 20 0
BBX 16 24 2 0
BITMAP
FFE0
FFE0
FFE0
FFE0
03E0
03E0
03E0
03E0
03E0
03E0
03E0
03E0
03E0
03E0
03E0
03E0
03E0
03E0
03E0
03E0
FFFF
FFFF
FFFF
FFFF
ENDCHAR
STARTCHAR 006D
ENCODING 109
SWIDTH 600 0
DWIDTH 20 0
BBX 18 17 1 0
BITMAP
E7CF80
EFDF80
FFFFC0
FFFFC0
F9E7C0
F9E3C0
F9E3C0
F9E3C0
F9E3C0
F9E3C0
F9E3C0
F9E3C0
F9E3C0
F9E3C0
F9E3C0
F9E3C0
F9E3C0
ENDCHAR
STARTCHAR 006E
ENCODING 110
SWIDTH 600 0
DWIDTH 20 0
BBX 16 17 2 0
BITMAP
FBF8
FFFE
FFFE
FFFF
FC3F
FC1F
FC1F
FC1F
FC1F
FC1F
FC1F
FC1F
FC1F
FC1F
FC1F
FC1F
FC1F
ENDCHAR
STARTCHAR 006F
ENCODING 111
SWIDTH 600 0
DWIDTH 20 0
BBX 18 17 1 0
BITMAP
07F800
1FFE00
3FFF00
7E1F00
7C0F80
7C0F80
FC0FC0
FC0FC0
FC0FC0
FC0FC0
FC0FC0
7C0F80
7C0F80
3E1F00
3FFF00
1FFE00
07F800
ENDCHAR
STARTCHAR 0070
ENCODING 112
SWIDTH 600 0
DWIDTH 20 0
BBX 17 23 2 -6
BITMAP
F9F800
FFFE00
FFFE00
FE3F00
FC1F00
FC1F80
FC1F80
FC1F80
FC1F80
FC1F80
FC1F80
FC1F00
FC1F00
FE3F00
FFFE00
FFFC00
FDF800
FC0000
FC0000
FC0000
FC0000
FC0000
FC0000
ENDCHAR
STARTCHAR 0071
ENCODING 113
SWIDTH 600 0
DWIDTH 20 0
BBX 17 23 1 -6
BITMAP
0FEF80
1FFF80
3FFF80
7E3F80
7C1F80
FC1F80
FC1F80
FC1F80
FC1F80
FC1F80
FC1F80
FC1F80
7C1F80
7E3F80
3FFF80
3FFF80
0FDF80
001F80
001F80
001F80
001F80
001F80
001F80
ENDCHAR
STARTCHAR 0072
ENCODING 114
SWIDTH 600 0
DWIDTH 20 0
BBX 17 17 2 0
BITMAP
FE7E00
FFFF00
FFFF80
FFFF80
1F8F80
1F0780
1F0780
1F0000
1F0000
1F0000
1F0000
1F0000
1F0000
FFFE00
FFFE00
FFFE00
FFFE00
ENDCHAR
STARTCHAR 0073
ENCODING 115
SWIDTH 600 0
DWIDTH 20 0
BBX 16 17 2 0
BITMAP
1FF8
3FFC
7FFE
F83E
F81E
FC00
FFC0
7FFC
3FFE
1FFF
00FF
001F
F01F
F81F
7FFE
7FFC
1FF8
ENDCHAR
STARTCHAR 0074
ENCODING 116
SWIDTH 600 0
DWIDTH 20 0
BBX 17 22 1 0
BITMAP
01C000
03C000
03C000
03C000
07C000
FFFF80
FFFF80
FFFF80
FFFF80
07C000
07C000
07C000
07C000
07C000
07C000
07C000
07C000
07E000
07FF80
03FF80
03FF80
00FF80
ENDCHAR
STARTCHAR 0075
ENCODING 117
SWIDTH 600 0
DWIDTH 20 0
BBX 17 17 2 0
BITMAP
F83F00
F83F00
F83F00
F83F00
F83F00
F83F00
F83F00
F83F00
F83F00
F83F00
F83F00
F83F00
FC3F00
FFFF00
FFFF80
7FFF80
3FCF80
ENDCHAR
STARTCHAR 0076
ENCODING 118
SWIDTH 600 0
DWIDTH 20 0
BBX 18 17 1 0
BITMAP
FC07C0
7C0F80
7C0F80
7E0F80
3E1F00
3E1F00
3F1F00
1F3E00
1F3E00
1FBE00
0FFC00
0FFC00
0FFC00
07F800
07F800
07F000
03F000
ENDCHAR
STARTCHAR 0077
ENCODING 119
SWIDTH 600 0
DWIDTH 20 0
BBX 20 17 0 0
BITMAP
F0F0F0
F0F0F0
F9F9F0
79F9E0
79F9E0
79F9E0
79F9E0
79F9E0
7FFFE0
3FDFC0
3F9FC0
3F9FC0
3F9FC0
3F9FC0
1F9F80
1F8F80
1F0F80
ENDCHAR
STARTCHAR 0078
ENCODING 120
SWIDTH 600 0
DWIDTH 20 0
BBX 18 17 1 0
BITMAP
FE0FC0
7E1F80
3F1F00
1F3F00
1FFE00
0FFC00
07FC00
07F800
07F800
07F800
0FFC00
1FFE00
1F7E00
3F3F00
7E1F80
7C1F80
FC0FC0
ENDCHAR
STARTCHAR 0079
ENCODING 121
SWIDTH 600 0
DWIDTH 20 0
BBX 18 23 1 -6
BITMAP
FC07C0
7C0F80
7E0F80
7E0F80
3E1F00
3F1F00
1F1E00
1F3E00
1FBE00
0FBC00
0FFC00
07FC00
07F800
07F800
03F000
03F000
01F000
03E000
03E000
4FC000
7F8000
7F8000
7E0000
ENDCHAR
STARTCHAR 007A
ENCODING 122
SWIDTH 600 0
DWIDTH 20 0
BBX 14 17 3 0
BITMAP
FFFC
FFFC
FFF8
01F8
03F0
03F0
07E0
07C0
0FC0
1F80
1F80
3F00
3E00
7E00
FFFC
FFFC
FFFC
ENDCHAR
STARTCHAR 007B
ENCODING 123
SWIDTH 600 0
DWIDTH 20 0
BBX 10 28 5 -6
BITMAP
07C0
0FC0
1F00
1E00
1E00
1E00
1E00
1E00
1E00
1E00
1E00
1E00
3C00
FC00
F000
FC00
1E00
1E00
1E00
1E00
1E00
1E00
1E00
1E00
1E00
1E00
0FC0
0FC0
ENDCHAR
STARTCHAR 007C
ENCODING 124
SWIDTH 600 0
DWIDTH 20 0
BBX 4 31 8 -7
BITMAP
F0
F0
F0
F0
F0
F0
F0
F0
F0
F0
F0
F0
F0
F0
F0
F0
F0
F0
F0
F0
F0
F0
F0
F0
F0
F0
F0
F0
F0
F0
F0
ENDCHAR
STARTCHAR 007D
ENCODING 125
SWIDTH 600 0
DWIDTH 20 0
BBX 10 28 5 -6
BITMAP
F800
FC00
3E00
1E00
1E00
1E00
1E00
1E00
1E00
1E00
1E00
1E00
0F00
0FC0
03C0
0FC0
1E00
1E00
1E00
1E00
1E00
1E00
1E00
1E00
1E00
1E00
FC00
FC00
ENDCHAR
STARTCHAR 007E
ENCODING 126
SWIDTH 600 0
DWIDTH 20 0
BBX 18 6 1 7
BITMAP
1E0040
7F80C0
FFFFC0
FFFFC0
C0FF80
801E00
ENDCHAR
STARTCHAR 00A0
ENCODING 160
SWIDTH 600 0
DWIDTH 20 0
BBX 0 0 0 0
BITMAP
ENDCHAR
STARTCHAR 00A1
ENCODING 161
SWIDTH 600 0
DWIDTH 20 0
BBX 6 23 7 -6
BITMAP
FC
FC
FC
FC
FC
00
00
78
78
78
78
78
78
78
78
7C
FC
FC
FC
FC
FC
FC
FC
ENDCHAR
STARTCHAR 00A2
ENCODING 162
SWIDTH 600 0
DWIDTH 20 0
BBX 16 23 2 0
BITMAP
03C0
01C0
01C0
0FF0
1FFC
3FFE
7E3E
7C1F
FC0F
F80F
F800
F800
F800
F80F
FC0F
FC0F
7E1F
3FFE
1FFC
0FF8
01C0
01C0
03C0
ENDCHAR
STARTCHAR 00A3
ENCODING 163
SWIDTH 600 0
DWIDTH 20 0
BBX 18 23 1 0
BITMAP
03FC00
07FF00
0FFF80
1FFFC0
1F0FC0
3F07C0
3F07C0
3F0000
3F0000
3F0000
FFF000
FFF000
FFF000
FFF000
3F0000
3E0000
3E0000
3E0000
3E0000
FFFF80
FFFF80
FFFF80
FFFF80
ENDCHAR
STARTCHAR 00A4
ENCODING 164
SWIDTH 600 0
DWIDTH 20 0
BBX 18 17 1 3
BITMAP
208100
77FB80
FFFFC0
3FFF00
3C0F00
780780
780780
700380
700380
700380
700380
780780
3C0F00
3E1F00
7FFF80
FFFFC0
63F100
ENDCHAR
STARTCHAR 00A5
ENCODING 165
SWIDTH 600 0
DWIDTH 20 0
BBX 20 23 0 0
BITMAP
FC03F0
7E03E0
7E07E0
3F07C0
3F0FC0
1F8F80
1F9F80
0F9F00
7FDFE0
7FFFE0
7FFFE0
03FC00
03FC00
7FFFE0
7FFFE0
01F800
01F800
01F800
01F800
01F800
01F800
01F800
01F800
ENDCHAR
STARTCHAR 00A6
ENCODING 166
SWIDTH 600 0
DWIDTH 20 0
BBX 4 31 8 -7
BITMAP
F0
F0
F0
F0
F0
F0
F0
F0
F0
F0
F0
F0
00
00
00
00
00
00
00
F0
F0
F0
F0
F0
F0
F0
F0
F0
F0
F0
F0
ENDCHAR
STARTCHAR 00A7
ENCODING 167
SWIDTH 600 0
DWIDTH 20 0
BBX 16 29 2 -6
BITMAP
0FF0
3FFC
7FFE
7C3E
F81E
F800
7C00
7F00
3FC0
1FF0
3FFC
7BFE
F07F
F01F
F00F
F80F
FE0F
7F9E
3FFC
0FF8
03FC
00FE
003E
001F
781E
7C3E
7FFE
3FFC
0FF0
ENDCHAR
STARTCHAR 00A8
ENCODING 168
SWIDTH 600 0
DWIDTH 20 0
BBX 12 4 4 20
BITMAP
F0F0
F0F0
F0F0
F0F0
ENDCHAR
STARTCHAR 00A9
ENCODING 169
SWIDTH 600 0
DWIDTH 20 0
BBX 20 23 0 0
BITMAP
03FC00
0FFF00
1C0380
3801C0
3060C0
71FCE0
63FE60
678E60
E70E70
CF0F30
CF0030
CF0030
CF0030
C70730
E70E70
678E60
67FE60
63FCE0
3060C0
3801C0
1C0380
0FFF00
03FC00
ENDCHAR
STARTCHAR 00AA
ENCODING 170
SWIDTH 600 0
DWIDTH 20 0
BBX 11 11 5 12
BITMAP
7F00
FF80
E380
0380
3F80
FF80
E380
E380
FFE0
FDE0
1080
ENDCHAR
STARTCHAR 00AB
ENCODING 171
SWIDTH 600 0
DWIDTH 20 0
BBX 15 12 2 5
BITMAP
0F1E
1E1E
3E3C
3C7C
7C78
F8F8
78F8
7C78
3C3C
1E3C
1E1E
0F0E
ENDCHAR
STARTCHAR 00AC
ENCODING 172
SWIDTH 600 0
DWIDTH 20 0
BBX 18 11 1 5
BITMAP
FFFFC0
FFFFC0
FFFFC0
FFFFC0
0007C0
0007C0
0007C0
0007C0
0007C0
0007C0
0007C0
ENDCHAR
STARTCHAR 00AD
ENCODING 173
SWIDTH 600 0
DWIDTH 20 0
BBX 8 4 6 7
BITMAP
FF
FF
FF
FF
ENDCHAR
STARTCHAR 00AE
ENCODING 174
SWIDTH 600 0
DWIDTH 20 0
BBX 20 23 0 0
BITMAP
03FC00
0FFF00
1C0380
3801C0
3000C0
77FCE0
67FE60
678F60
E78F70
C78F30
C7FE30
C7F830
C7FE30
C78E30
E78E70
678F60
678F60
678FE0
3783C0
3801C0
1C0380
0FFF00
03FC00
ENDCHAR
STARTCHAR 00AF
ENCODING 175
SWIDTH 600 0
DWIDTH 20 0
BBX 12 3 4 20
BITMAP
FFF0
FFF0
FFF0
ENDCHAR
STARTCHAR 00B0
ENCODING 176
SWIDTH 600 0
DWIDTH 20 0
BBX 10 10 5 13
BITMAP
3F00
7F80
F3C0
E1C0
E1C0
E1C0
E1C0
7F80
7F80
1E00
ENDCHAR
STARTCHAR 00B1
ENCODING 177
SWIDTH 600 0
DWIDTH 20 0
BBX 18 17 1 0
BITMAP
01E000
01E000
01E000
01E000
FFFFC0
FFFFC0
FFFFC0
FFFFC0
01E000
01E000
01E000
01E000
000000
7FFFC0
7FFFC0
7FFFC0
7FFFC0
ENDCHAR
STARTCHAR 00B2
ENCODING 178
SWIDTH 600 0
DWIDTH 20 0
BBX 10 13 5 14
BITMAP
1E00
7F80
7F80
E380
E3C0
0380
0780
0F00
1E00
7800
7FC0
FFC0
FFC0
ENDCHAR
STARTCHAR 00B3
ENCODING 179
SWIDTH 600 0
DWIDTH 20 0
BBX 10 13 5 14
BITMAP
1E00
7F80
7F80
E380
0180
0780
1F00
1F80
01C0
E1C0
E3C0
7F80
3F00
ENDCHAR
STARTCHAR 00B4
ENCODING 180
SWIDTH 600 0
DWIDTH 20 0
BBX 8 5 6 20
BITMAP
1F
3C
3C
78
F0
ENDCHAR
STARTCHAR 00B5
ENCODING 181
SWIDTH 600 0
DWIDTH 20 0
BBX 17 22 2 -5
BITMAP
F83F00
F83F00
F83F00
F83F00
F83F00
F83F00
F83F00
F83F00
F83F00
F83F00
F83F00
F83F00
FC3F00
FFFF00
FFFF80
FFFF80
FFCF80
F80000
F80000
F80000
F80000
F80000
ENDCHAR
STARTCHAR 00B6
ENCODING 182
SWIDTH 600 0
DWIDTH 20 0
BBX 17 28 1 -5
BITMAP
07FF80
1FFF80
3FCE00
7FCE00
7FCE00
FFCE00
FFCE00
FFCE00
FFCE00
FFCE00
7FCE00
7FCE00
3FCE00
0FCE00
03CE00
01CE00
01CE00
01CE00
01CE00
01CE00
01CE00
01CE00
01CE00
01CE00
01CE00
01CE00
01CE00
01CE00
ENDCHAR
STARTCHAR 00B7
ENCODING 183
SWIDTH 600 0
DWIDTH 20 0
BBX 6 5 7 10
BITMAP
FC
FC
FC
FC
FC
ENDCHAR
STARTCHAR 00B8
ENCODING 184
SWIDTH 600 0
DWIDTH 20 0
BBX 8 6 6 -7
BITMAP
1C
1F
07
47
FE
7C
ENDCHAR
STARTCHAR 00B9
ENCODING 185
SWIDTH 600 0
DWIDTH 20 0
BBX 8 13 6 14
BITMAP
08
38
F8
F8
38
38
38
38
38
38
38
FF
FF
ENDCHAR
STARTCHAR 00BA
ENCODING 186
SWIDTH 600 0
DWIDTH 20 0
BBX 10 10 5 13
BITMAP
3F00
7F80
F3C0
E1C0
E1C0
E1C0
E1C0
F3C0
7F80
3F00
ENDCHAR
STARTCHAR 00BB
ENCODING 187
SWIDTH 600 0
DWIDTH 20 0
BBX 15 12 3 5
BITMAP
F1E0
F0F0
78F8
7C78
3C7C
3E3E
3E3C
3C7C
7878
78F0
F0F0
E1E0
ENDCHAR
STARTCHAR 00BC
ENCODING 188
SWIDTH 600 0
DWIDTH 20 0
BBX 20 23 0 0
BITMAP
040070
3C00E0
FC01C0
FC0180
1C0380
1C0700
1C0E00
1C0C00
1C1C00
1C2000
1C0700
FF0700
FF0640
004EC0
018CC0
031CC0
0718C0
0E38C0
1C3FF0
1C3FF0
3800C0
7000C0
F000C0
ENDCHAR
STARTCHAR 00BD
ENCODING 189
SWIDTH 600 0
DWIDTH 20 0
BBX 20 23 0 0
BITMAP
040070
3C00E0
FC01C0
FC0380
1C0380
1C0700
1C0E00
1C0C00
1C1C00
1C2000
1C07C0
FF0FE0
FF1FF0
005C70
039C70
030070
0700E0
0E03C0
1C0780
1C0F00
381FF0
701FF0
E01FF0
ENDCHAR
STARTCHAR 00BE
ENCODING 190
SWIDTH 600 0
DWIDTH 20 0
BBX 20 24 0 0
BITMAP
1E0000
7F0070
7F80E0
E381C0
038180
078380
1F0700
1F8E00
01CC00
E1DC00
E3E000
FF8700
7F0700
000640
004EC0
018CC0
031CC0
0718C0
0E38C0
1C3FF0
1C3FF0
3800C0
7000C0
F000C0
ENDCHAR
STARTCHAR 00BF
ENCODING 191
SWIDTH 600 0
DWIDTH 20 0
BBX 16 23 2 -6
BITMAP
07C0
07C0
07C0
07C0
07C0
0000
0000
07C0
07C0
07C0
0FC0
1F80
7F00
7E00
FC00
FC1F
F81F
FC1F
FC3F
7FFE
7FFC
3FF8
0FE0
ENDCHAR
STARTCHAR 00C0
ENCODING 192
SWIDTH 600 0
DWIDTH 20 0
BBX 20 30 0 0
BITMAP
0F8000
07C000
03E000
01E000
00F000
000000
000000
03FC00
03FC00
03FC00
03FC00
07FE00
07FE00
07BE00
0F9F00
0F9F00
0F9F00
0F1F00
1F0F80
1F0F80
1F0F80
1E0F80
3FFFC0
3FFFC0
3FFFC0
7E07E0
7C07E0
7C03E0
7C03E0
FC03F0
ENDCHAR
STARTCHAR 00C1
ENCODING 193
SWIDTH 600 0
DWIDTH 20 0
BBX 20 30 0 0
BITMAP
001F00
003E00
003C00
007800
00F000
000000
000000
03FC00
03FC00
03FC00
03FC00
07FE00
07FE00
07BE00
0F9F00
0F9F00
0F9F00
0F1F00
1F0F80
1F0F80
1F0F80
1E0F80
3FFFC0
3FFFC0
3FFFC0
7E07E0
7C07E0
7C03E0
7C03E0
FC03F0
ENDCHAR
STARTCHAR 00C2
ENCODING 194
SWIDTH 600 0
DWIDTH 20 0
BBX 20 30 0 0
BITMAP
00F000
01F800
03FC00
079E00
0F0F00
000000
000000
03FC00
03FC00
03FC00
03FC00
07FE00
07FE00
07BE00
0F9F00
0F9F00
0F9F00
0F1F00
1F0F80
1F0F80
1F0F80
1E0F80
3FFFC0
3FFFC0
3FFFC0
7E07E0
7C07E0
7C03E0
7C03E0
FC03F0
ENDCHAR
STARTCHAR 00C3
ENCODING 195
SWIDTH 600 0
DWIDTH 20 0
BBX 20 30 0 0
BITMAP
030380
07E700
0FFF00
0FFF00
0C3C00
100000
000000
03FC00
03FC00
03FC00
03FC00
07FE00
07FE00
07BE00
0F9F00
0F9F00
0F9F00
0F1F00
1F0F80
1F0F80
1F0F80
1E0F80
3FFFC0
3FFFC0
3FFFC0
7E07E0
7C07E0
7C03E0
7C03E0
FC03F0
ENDCHAR
STARTCHAR 00C4
ENCODING 196
SWIDTH 600 0
DWIDTH 20 0
BBX 20 29 0 0
BITMAP
0F0F00
0F0F00
0F0F00
0F0F00
000000
000000
03FC00
03FC00
03FC00
03FC00
07FE00
07FE00
07BE00
0F9F00
0F9F00
0F9F00
0F1F00
1F0F80
1F0F80
1F0F80
1E0F80
3FFFC0
3FFFC0
3FFFC0
7E07E0
7C07E0
7C03E0
7C03E0
FC03F0
ENDCHAR
STARTCHAR 00C5
ENCODING 197
SWIDTH 600 0
DWIDTH 20 0
BBX 20 32 0 0
BITMAP
006000
01F800
01F800
039C00
039C00
01F800
00F000
000000
000000
03FC00
03FC00
03FC00
03FC00
07FE00
07FE00
07BE00
0F9F00
0F9F00
0F9F00
0F1F00
1F0F80
1F0F80
1F0F80
1E0F80
3FFFC0
3FFFC0
3FFFC0
7E07E0
7C07E0
7C03E0
7C03E0
FC03F0
ENDCHAR
STARTCHAR 00C6
ENCODING 198
SWIDTH 600 0
DWIDTH 20 0
BBX 20 23 0 0
BITMAP
07FFF0
07FFF0
07FFE0
07FFE0
0FFC00
0FFC00
0FFC00
0F7C00
0F7C00
1F7FE0
1F7FE0
1F7FE0
1E7FE0
3E7C00
3E7C00
3FFC00
3FFC00
7FFC00
7C7C00
7C7FE0
7C7FF0
FC7FF0
F87FF0
ENDCHAR
STARTCHAR 00C7
ENCODING 199
SWIDTH 600 0
DWIDTH 20 0
BBX 18 30 1 -7
BITMAP
07F800
1FFE00
3FFF00
7FFF00
7E1F80
FC0F80
FC0FC0
F80FC0
F807C0
F80000
F80000
F80000
F80000
F80000
F807C0
F807C0
F807C0
FC0F80
FE1F80
7FFF00
3FFF00
1FFE00
0FF800
000000
00E000
00F800
003800
023800
07F000
03E000
ENDCHAR
STARTCHAR 00C8
ENCODING 200
SWIDTH 600 0
DWIDTH 20 0
BBX 16 30 2 0
BITMAP
1E00
0F00
0F80
07C0
03E0
0000
0000
FFFF
FFFF
FFFF
FFFF
FC00
FC00
FC00
FC00
FC00
FFFE
FFFE
FFFE
FFFE
FC00
FC00
FC00
FC00
FC00
FC00
FFFF
FFFF
FFFF
FFFF
ENDCHAR
STARTCHAR 00C9
ENCODING 201
SWIDTH 600 0
DWIDTH 20 0
BBX 16 30 2 0
BITMAP
007C
0078
00F0
01E0
03C0
0000
0000
FFFF
FFFF
FFFF
FFFF
FC00
FC00
FC00
FC00
FC00
FFFE
FFFE
FFFE
FFFE
FC00
FC00
FC00
FC00
FC00
FC00
FFFF
FFFF
FFFF
FFFF
ENDCHAR
STARTCHAR 00CA
ENCODING 202
SWIDTH 600 0
DWIDTH 20 0
BBX 16 30 2 0
BITMAP
03E0
07F0
0F70
1E78
3C3C
0000
0000
FFFF
FFFF
FFFF
FFFF
FC00
FC00
FC00
FC00
FC00
FFFE
FFFE
FFFE
FFFE
FC00
FC00
FC00
FC00
FC00
FC00
FFFF
FFFF
FFFF
FFFF
ENDCHAR
STARTCHAR 00CB
ENCODING 203
SWIDTH 600 0
DWIDTH 20 0
BBX 16 29 2 0
BITMAP
3C3C
3C3C
3C3C
3C3C
0000
0000
FFFF
FFFF
FFFF
FFFF
FC00
FC00
FC00
FC00
FC00
FFFE
FFFE
FFFE
FFFE
FC00
FC00
FC00
FC00
FC00
FC00
FFFF
FFFF
FFFF
FFFF
ENDCHAR
STARTCHAR 00CC
ENCODING 204
SWIDTH 600 0
DWIDTH 20 0
BBX 15 30 3 0
BITMAP
7C00
3E00
1F00
0F00
0780
0000
0000
FFFE
FFFE
FFFE
FFFE
0FC0
0FC0
0FC0
0FC0
0FC0
0FC0
0FC0
0FC0
0FC0
0FC0
0FC0
0FC0
0FC0
0FC0
0FC0
FFFE
FFFE
FFFE
FFFE
ENDCHAR
STARTCHAR 00CD
ENCODING 205
SWIDTH 600 0
DWIDTH 20 0
BBX 15 30 3 0
BITMAP
00F8
01F0
01E0
03C0
0780
0000
0000
FFFE
FFFE
FFFE
FFFE
0FC0
0FC0
0FC0
0FC0
0FC0
0FC0
0FC0
0FC0
0FC0
0FC0
0FC0
0FC0
0FC0
0FC0
0FC0
FFFE
FFFE
FFFE
FFFE
ENDCHAR
STARTCHAR 00CE
ENCODING 206
SWIDTH 600 0
DWIDTH 20 0
BBX 15 30 3 0
BITMAP
0780
0FC0
1FE0
3CF0
7878
0000
0000
FFFE
FFFE
FFFE
FFFE
0FC0
0FC0
0FC0
0FC0
0FC0
0FC0
0FC0
0FC0
0FC0
0FC0
0FC0
0FC0
0FC0
0FC0
0FC0
FFFE
FFFE
FFFE
FFFE
ENDCHAR
STARTCHAR 00CF
ENCODING 207
SWIDTH 600 0
DWIDTH 20 0
BBX 15 29 3 0
BITMAP
7878
7878
7878
7878
0000
0000
FFFE
FFFE
FFFE
FFFE
0FC0
0FC0
0FC0
0FC0
0FC0
0FC0
0FC0
0FC0
0FC0
0FC0
0FC0
0FC0
0FC0
0FC0
0FC0
FFFE
FFFE
FFFE
FFFE
ENDCHAR
STARTCHAR 00D0
ENCODING 208
SWIDTH 600 0
DWIDTH 20 0
BBX 20 23 0 0
BITMAP
3FFC00
3FFF00
3FFF80
3FFFC0
3E1FE0
3E07E0
3E03F0
3E03F0
3E03F0
3E03F0
FFF3F0
FFF3F0
FFF3F0
3E03F0
3E03F0
3E03F0
3E03F0
3E07E0
3E1FE0
3FFFC0
3FFF80
3FFF00
3FFC00
ENDCHAR
STARTCHAR 00D1
ENCODING 209
SWIDTH 600 0
DWIDTH 20 0
BBX 16 30 2 0
BITMAP
0C0E
1F9C
3FFC
3FFC
30F0
4000
0000
F81F
FC1F
FC1F
FE1F
FE1F
FF1F
FF1F
FF1F
FF9F
FF9F
FFDF
FBDF
FBFF
FBFF
F9FF
F9FF
F8FF
F8FF
F87F
F87F
F83F
F83F
F81F
ENDCHAR
STARTCHAR 00D2
ENCODING 210
SWIDTH 600 0
DWIDTH 20 0
BBX 18 30 1 0
BITMAP
1F0000
0F8000
07C000
03C000
01E000
000000
000000
07F800
1FFE00
3FFF00
7FFF80
7E1F80
FC0FC0
FC07C0
F807C0
F807C0
F807C0
F807C0
F807C0
F807C0
F807C0
F807C0
F807C0
F807C0
FC0FC0
FE1FC0
7FFF80
3FFF00
1FFE00
0FFC00
ENDCHAR
STARTCHAR 00D3
ENCODING 211
SWIDTH 600 0
DWIDTH 20 0
BBX 18 30 1 0
BITMAP
003E00
007C00
007800
00F000
01E000
000000
000000
07F800
1FFE00
3FFF00
7FFF80
7E1F80
FC0FC0
FC07C0
F807C0
F807C0
F807C0
F807C0
F807C0
F807C0
F807C0
F807C0
F807C0
F807C0
FC0FC0
FE1FC0
7FFF80
3FFF00
1FFE00
0FFC00
ENDCHAR
STARTCHAR 00D4
ENCODING 212
SWIDTH 600 0
DWIDTH 20 0
BBX 18 30 1 0
BITMAP
01E000
03F000
07F800
0F3C00
1E1E00
000000
000000
07F800
1FFE00
3FFF00
7FFF80
7E1F80
FC0FC0
FC07C0
F807C0
F807C0
F807C0
F807C0
F807C0
F807C0
F807C0
F807C0
F807C0
F807C0
FC0FC0
FE1FC0
7FFF80
3FFF00
1FFE00
0FFC00
ENDCHAR
STARTCHAR 00D5
ENCODING 213
SWIDTH 600 0
DWIDTH 20 0
BBX 18 30 1 0
BITMAP
060700
0FCE00
1FFE00
1FFE00
187800
200000
000000
07F800
1FFE00
3FFF00
7FFF80
7E1F80
FC0FC0
FC07C0
F807C0
F807C0
F807C0
F807C0
F807C0
F807C0
F807C0
F807C0
F807C0
F807C0
FC0FC0
FE1FC0
7FFF80
3FFF00
1FFE00
0FFC00
ENDCHAR
STARTCHAR 00D6
ENCODING 214
SWIDTH 600 0
DWIDTH 20 0
BBX 18 29 1 0
BITMAP
1E1E00
1E1E00
1E1E00
1E1E00
000000
000000
07F800
1FFE00
3FFF00
7FFF80
7E1F80
FC0FC0
FC07C0
F807C0
F807C0
F807C0
F807C0
F807C0
F807C0
F807C0
F807C0
F807C0
F807C0
FC0FC0
FE1FC0
7FFF80
3FFF00
1FFE00
0FFC00
ENDCHAR
STARTCHAR 00D7
ENCODING 215
SWIDTH 600 0
DWIDTH 20 0
BBX 14 15 3 1
BITMAP
2010
7038
F87C
FCFC
7FF8
3FF0
1FE0
0FC0
1FE0
3FF0
7FF8
FCFC
F87C
7038
2010
ENDCHAR
STARTCHAR 00D8
ENCODING 216
SWIDTH 600 0
DWIDTH 20 0
BBX 20 27 0 -2
BITMAP
0000F0
0000E0
03FDC0
0FFFC0
1FFF80
3FFFC0
3F0FC0
7E0FE0
7E0FE0
7C1FE0
7C3BE0
7C3BE0
7C73E0
7C73E0
7CE3E0
7DC3E0
7DC3E0
7F83E0
7F83E0
7F07E0
7F0FE0
3FFFC0
1FFF80
3FFF00
3FFE00
700000
F00000
ENDCHAR
STARTCHAR 00D9
ENCODING 217
SWIDTH 600 0
DWIDTH 20 0
BBX 18 30 1 0
BITMAP
1F0000
0F8000
07C000
03C000
01E000
000000
000000
FC0FC0
FC0FC0
FC0FC0
FC0FC0
FC0FC0
FC0FC0
FC0FC0
FC0FC0
FC0FC0
FC0FC0
FC0FC0
FC0FC0
FC0FC0
FC0FC0
FC0FC0
FC0FC0
FC0FC0
7C0F80
7E1F80
7FFF80
3FFF00
1FFE00
0FFC00
ENDCHAR
STARTCHAR 00DA
ENCODING 218
SWIDTH 600 0
DWIDTH 20 0
BBX 18 30 1 0
BITMAP
003E00
007C00
007800
00F000
01E000
000000
000000
FC0FC0
FC0FC0
FC0FC0
FC0FC0
FC0FC0
FC0FC0
FC0FC0
FC0FC0
FC0FC0
FC0FC0
FC0FC0
FC0FC0
FC0FC0
FC0FC0
FC0FC0
FC0FC0
FC0FC0
7C0F80
7E1F80
7FFF80
3FFF00
1FFE00
0FFC00
ENDCHAR
STARTCHAR 00DB
ENCODING 219
SWIDTH 600 0
DWIDTH 20 0
BBX 18 30 1 0
BITMAP
01E000
03F000
07F800
0F3C00
1E1E00
000000
000000
FC0FC0
FC0FC0
FC0FC0
FC0FC0
FC0FC0
FC0FC0
FC0FC0
FC0FC0
FC0FC0
FC0FC0
FC0FC0
FC0FC0
FC0FC0
FC0FC0
FC0FC0
FC0FC0
FC0FC0
7C0F80
7E1F80
7FFF80
3FFF00
1FFE00
0FFC00
ENDCHAR
STARTCHAR 00DC
ENCODING 220
SWIDTH 600 0
DWIDTH 20 0
BBX 18 29 1 0
BITMAP
1E1E00
1E1E00
1E1E00
1E1E00
000000
000000
FC0FC0
FC0FC0
FC0FC0
FC0FC0
FC0FC0
FC0FC0
FC0FC0
FC0FC0
FC0FC0
FC0FC0
FC0FC0
FC0FC0
FC0FC0
FC0FC0
FC0FC0
FC0FC0
FC0FC0
7C0F80
7E1F80
7FFF80
3FFF00
1FFE00
0FFC00
ENDCHAR
STARTCHAR 00DD
ENCODING 221
SWIDTH 600 0
DWIDTH 20 0
BBX 20 30 0 0
BITMAP
001F00
003E00
003C00
007800
00F000
000000
000000
FC03F0
7E03E0
7E07E0
3F07C0
3F0FC0
1F8F80
1F9F80
0F9F00
0FDF00
07FE00
07FE00
03FC00
03FC00
01F800
01F800
01F800
01F800
01F800
01F800
01F800
01F800
01F800
01F800
ENDCHAR
STARTCHAR 00DE
ENCODING 222
SWIDTH 600 0
DWIDTH 20 0
BBX 18 23 2 0
BITMAP
F80000
F80000
F80000
F80000
FFF800
FFFE00
FFFF00
FFFF80
F81F80
F80F80
F80FC0
F80F80
F80F80
F81F80
FFFF80
FFFF00
FFFE00
FFF800
F80000
F80000
F80000
F80000
F80000
ENDCHAR
STARTCHAR 00DF
ENCODING 223
SWIDTH 600 0
DWIDTH 20 0
BBX 19 26 0 -2
BITMAP
03FE00
07FF00
0FFF80
1FFFC0
1F87C0
1F07E0
3F03E0
FF07C0
FF07C0
FF1F80
FF7F00
3F7F00
3F7FC0
3F07C0
3F03E0
3F03E0
3F03E0
3F03E0
3F03E0
3F07E0
3F7FC0
3F7FC0
3F7F80
3F7E00
3F0000
3F0000
ENDCHAR
STARTCHAR 00E0
ENCODING 224
SWIDTH 600 0
DWIDTH 20 0
BBX 17 25 2 0
BITMAP
1F0000
0F0000
078000
078000
03C000
000000
000000
000000
1FF800
3FFC00
7FFE00
FC3E00
F83E00
003E00
003E00
1FFE00
7FFE00
FE3E00
F83E00
F83E00
F83E00
F87E00
FFFF80
7FDF80
3F9F80
ENDCHAR
STARTCHAR 00E1
ENCODING 225
SWIDTH 600 0
DWIDTH 20 0
BBX 17 25 2 0
BITMAP
00F000
01E000
01E000
03C000
038000
040000
000000
000000
1FF800
3FFC00
7FFE00
FC3E00
F83E00
003E00
003E00
1FFE00
7FFE00
FE3E00
F83E00
F83E00
F83E00
F87E00
FFFF80
7FDF80
3F9F80
ENDCHAR
STARTCHAR 00E2
ENCODING 226
SWIDTH 600 0
DWIDTH 20 0
BBX 17 25 2 0
BITMAP
07C000
0FE000
0EF000
1E7800
3C7800
783C00
000000
000000
1FF800
3FFC00
7FFE00
FC3E00
F83E00
003E00
003E00
1FFE00
7FFE00
FE3E00
F83E00
F83E00
F83E00
F87E00
FFFF80
7FDF80
3F9F80
ENDCHAR
STARTCHAR 00E3
ENCODING 227
SWIDTH 600 0
DWIDTH 20 0
BBX 17 25 2 0
BITMAP
1E0C00
3F8C00
3FFC00
77F800
70F800
000000
000000
000000
1FF800
3FFC00
7FFE00
FC3E00
F83E00
003E00
003E00
1FFE00
7FFE00
FE3E00
F83E00
F83E00
F83E00
F87E00
FFFF80
7FDF80
3F9F80
ENDCHAR
STARTCHAR 00E4
ENCODING 228
SWIDTH 600 0
DWIDTH 20 0
BBX 17 24 2 0
BITMAP
3C3C00
3C3C00
3C3C00
3C3C00
000000
000000
000000
1FF800
3FFC00
7FFE00
FC3E00
F83E00
003E00
003E00
1FFE00
7FFE00
FE3E00
F83E00
F83E00
F83E00
F87E00
FFFF80
7FDF80
3F9F80
ENDCHAR
STARTCHAR 00E5
ENCODING 229
SWIDTH 600 0
DWIDTH 20 0
BBX 17 26 2 0
BITMAP
07C000
07E000
0C6000
0C6000
0EE000
07C000
010000
000000
000000
1FF800
3FFC00
7FFE00
FC3E00
F83E00
003E00
003E00
1FFE00
7FFE00
FE3E00
F83E00
F83E00
F83E00
F87E00
FFFF80
7FDF80
3F9F80
ENDCHAR
STARTCHAR 00E6
ENCODING 230
SWIDTH 600 0
DWIDTH 20 0
BBX 20 17 0 0
BITMAP
1F8F80
3FDFC0
7FFFE0
79F9E0
70F8E0
00F0F0
00F0F0
1FFFF0
3FFFF0
7CF000
F0F000
F0F0F0
F0F8F0
F1F8E0
7FFFE0
7FBFC0
3F1F80
ENDCHAR
STARTCHAR 00E7
ENCODING 231
SWIDTH 600 0
DWIDTH 20 0
BBX 17 24 1 -7
BITMAP
07F800
1FFE00
3FFE00
3E1F00
7C0F00
7C0F80
FC0F80
FC0000
FC0000
FC0000
7C0F80
7C0F80
7C0F00
3E1F00
3FFE00
1FFE00
07F800
000000
00E000
00F800
003800
023800
07F000
03E000
ENDCHAR
STARTCHAR 00E8
ENCODING 232
SWIDTH 600 0
DWIDTH 20 0
BBX 17 25 1 0
BITMAP
0F8000
03C000
03C000
01E000
00E000
001000
000000
000000
07FC00
1FFE00
3FFF00
3E1F80
7E0F80
7C0F80
7C0F80
FFFF80
FFFF80
FC0000
7C0000
7C0F80
7C0F80
7E1F80
3FFF00
1FFE00
07FC00
ENDCHAR
STARTCHAR 00E9
ENCODING 233
SWIDTH 600 0
DWIDTH 20 0
BBX 17 25 1 0
BITMAP
007C00
007800
00F000
00F000
01E000
000000
000000
000000
07FC00
1FFE00
3FFF00
3E1F80
7E0F80
7C0F80
7C0F80
FFFF80
FFFF80
FC0000
7C0000
7C0F80
7C0F80
7E1F80
3FFF00
1FFE00
07FC00
ENDCHAR
STARTCHAR 00EA
ENCODING 234
SWIDTH 600 0
DWIDTH 20 0
BBX 17 25 1 0
BITMAP
01F000
03F800
07B800
0F3C00
0E1E00
1E0F00
000000
000000
07FC00
1FFE00
3FFF00
3E1F80
7E0F80
7C0F80
7C0F80
FFFF80
FFFF80
FC0000
7C0000
7C0F80
7C0F80
7E1F80
3FFF00
1FFE00
07FC00
ENDCHAR
STARTCHAR 00EB
ENCODING 235
SWIDTH 600 0
DWIDTH 20 0
BBX 17 24 1 0
BITMAP
1E1E00
1E1E00
1E1E00
1E1E00
000000
000000
000000
07FC00
1FFE00
3FFF00
3E1F80
7E0F80
7C0F80
7C0F80
FFFF80
FFFF80
FC0000
7C0000
7C0F80
7C0F80
7E1F80
3FFF00
1FFE00
07FC00
ENDCHAR
STARTCHAR 00EC
ENCODING 236
SWIDTH 600 0
DWIDTH 20 0
BBX 16 25 3 0
BITMAP
1F00
0F00
0780
0780
03C0
0000
0000
0000
FFE0
FFE0
FFE0
FFE0
07E0
07E0
07E0
07E0
07E0
07E0
07E0
07E0
07E0
FFFF
FFFF
FFFF
FFFF
ENDCHAR
STARTCHAR 00ED
ENCODING 237
SWIDTH 600 0
DWIDTH 20 0
BBX 16 25 3 0
BITMAP
00F8
01E0
01E0
03C0
0380
0400
0000
0000
FFE0
FFE0
FFE0
FFE0
07E0
07E0
07E0
07E0
07E0
07E0
07E0
07E0
07E0
FFFF
FFFF
FFFF
FFFF
ENDCHAR
STARTCHAR 00EE
ENCODING 238
SWIDTH 600 0
DWIDTH 20 0
BBX 16 25 3 0
BITMAP
07C0
0FE0
0FF0
1E78
3C38
783C
0000
0000
FFE0
FFE0
FFE0
FFE0
07E0
07E0
07E0
07E0
07E0
07E0
07E0
07E0
07E0
FFFF
FFFF
FFFF
FFFF
ENDCHAR
STARTCHAR 00EF
ENCODING 239
SWIDTH 600 0
DWIDTH 20 0
BBX 16 24 3 0
BITMAP
3C3C
3C3C
3C3C
3C3C
0000
0000
0000
FFE0
FFE0
FFE0
FFE0
07E0
07E0
07E0
07E0
07E0
07E0
07E0
07E0
07E0
FFFF
FFFF
FFFF
FFFF
ENDCHAR
STARTCHAR 00F0
ENCODING 240
SWIDTH 600 0
DWIDTH 20 0
BBX 18 25 1 0
BITMAP
040000
3F3000
0FF800
07E000
0FF000
3DF800
08FC00
007E00
0FFE00
1FFF00
3FFF00
7E1F80
7C0F80
7C0F80
FC0FC0
FC0FC0
FC0FC0
FC0FC0
FC0FC0
7C0F80
7C0F80
7E1F80
3FFF00
1FFE00
07F800
ENDCHAR
STARTCHAR 00F1
ENCODING 241
SWIDTH 600 0
DWIDTH 20 0
BBX 16 25 2 0
BITMAP
0E0E
1F8E
3FFC
3BFC
70F8
0000
0000
0000
FBF8
FFFE
FFFE
FFFF
FC3F
FC1F
FC1F
FC1F
FC1F
FC1F
FC1F
FC1F
FC1F
FC1F
FC1F
FC1F
FC1F
ENDCHAR
STARTCHAR 00F2
ENCODING 242
SWIDTH 600 0
DWIDTH 20 0
BBX 18 25 1 0
BITMAP
0F8000
07C000
03C000
01C000
01E000
000000
000000
000000
07F800
1FFE00
3FFF00
7E1F00
7C0F80
7C0F80
FC0FC0
FC0FC0
FC0FC0
FC0FC0
FC0FC0
7C0F80
7C0F80
3E1F00
3FFF00
1FFE00
07F800
ENDCHAR
STARTCHAR 00F3
ENCODING 243
SWIDTH 600 0
DWIDTH 20 0
BBX 18 25 1 0
BITMAP
007C00
00F800
00F000
01E000
01E000
020000
000000
000000
07F800
1FFE00
3FFF00
7E1F00
7C0F80
7C0F80
FC0FC0
FC0FC0
FC0FC0
FC0FC0
FC0FC0
7C0F80
7C0F80
3E1F00
3FFF00
1FFE00
07F800
ENDCHAR
STARTCHAR 00F4
ENCODING 244
SWIDTH 600 0
DWIDTH 20 0
BBX 18 25 1 0
BITMAP
03F000
03F000
07F800
0F3C00
1E1E00
1C1E00
000000
000000
07F800
1FFE00
3FFF00
7E1F00
7C0F80
7C0F80
FC0FC0
FC0FC0
FC0FC0
FC0FC0
FC0FC0
7C0F80
7C0F80
3E1F00
3FFF00
1FFE00
07F800
ENDCHAR
STARTCHAR 00F5
ENCODING 245
SWIDTH 600 0
DWIDTH 20 0
BBX 18 25 1 0
BITMAP
070700
0FC700
1FFE00
1DFE00
387C00
000000
000000
000000
07F800
1FFE00
3FFF00
7E1F00
7C0F80
7C0F80
FC0FC0
FC0FC0
FC0FC0
FC0FC0
FC0FC0
7C0F80
7C0F80
3E1F00
3FFF00
1FFE00
07F800
ENDCHAR
STARTCHAR 00F6
ENCODING 246
SWIDTH 600 0
DWIDTH 20 0
BBX 18 24 1 0
BITMAP
1E1E00
1E1E00
1E1E00
1E1E00
000000
000000
000000
07F800
1FFE00
3FFF00
7E1F00
7C0F80
7C0F80
FC0FC0
FC0FC0
FC0FC0
FC0FC0
FC0FC0
7C0F80
7C0F80
3E1F00
3FFF00
1FFE00
07F800
ENDCHAR
STARTCHAR 00F7
ENCODING 247
SWIDTH 600 0
DWIDTH 20 0
BBX 18 15 1 1
BITMAP
01E000
01E000
01E000
01E000
000000
000000
FFFFC0
FFFFC0
FFFFC0
000000
000000
01E000
01E000
01E000
01E000
ENDCHAR
STARTCHAR 00F8
ENCODING 248
SWIDTH 600 0
DWIDTH 20 0
BBX 18 21 1 -2
BITMAP
000380
000700
07FE00
1FFE00
3FFF00
7E1F00
7C3F80
7C7F80
FC6FC0
FCEFC0
FCCFC0
FDCFC0
FF8FC0
7F0F80
7F0F80
3E1F00
3FFF00
1FFE00
3FF800
380000
700000
ENDCHAR
STARTCHAR 00F9
ENCODING 249
SWIDTH 600 0
DWIDTH 20 0
BBX 17 25 2 0
BITMAP
1F0000
0F0000
078000
078000
03C000
000000
000000
000000
F83F00
F83F00
F83F00
F83F00
F83F00
F83F00
F83F00
F83F00
F83F00
F83F00
F83F00
F83F00
FC3F00
FFFF00
FFFF80
7FFF80
3FCF80
ENDCHAR
STARTCHAR 00FA
ENCODING 250
SWIDTH 600 0
DWIDTH 20 0
BBX 17 25 2 0
BITMAP
00F800
01E000
01E000
03C000
038000
040000
000000
000000
F83F00
F83F00
F83F00
F83F00
F83F00
F83F00
F83F00
F83F00
F83F00
F83F00
F83F00
F83F00
FC3F00
FFFF00
FFFF80
7FFF80
3FCF80
ENDCHAR
STARTCHAR 00FB
ENCODING 251
SWIDTH 600 0
DWIDTH 20 0
BBX 17 25 2 0
BITMAP
07C000
0FE000
0FF000
1E7800
3C3800
783C00
000000
000000
F83F00
F83F00
F83F00
F83F00
F83F00
F83F00
F83F00
F83F00
F83F00
F83F00
F83F00
F83F00
FC3F00
FFFF00
FFFF80
7FFF80
3FCF80
ENDCHAR
STARTCHAR 00FC
ENCODING 252
SWIDTH 600 0
DWIDTH 20 0
BBX 17 24 2 0
BITMAP
3C3C00
3C3C00
3C3C00
3C3C00
000000
000000
000000
F83F00
F83F00
F83F00
F83F00
F83F00
F83F00
F83F00
F83F00
F83F00
F83F00
F83F00
F83F00
FC3F00
FFFF00
FFFF80
7FFF80
3FCF80
ENDCHAR
STARTCHAR 00FD
ENCODING 253
SWIDTH 600 0
DWIDTH 20 0
BBX 18 31 1 -6
BITMAP
007C00
007800
00F000
00F000
01E000
000000
000000
000000
FC07C0
7C0F80
7E0F80
7E0F80
3E1F00
3F1F00
1F1E00
1F3E00
1FBE00
0FBC00
0FFC00
07FC00
07F800
07F800
03F000
03F000
01F000
03E000
03E000
4FC000
7F8000
7F8000
7E0000
ENDCHAR
STARTCHAR 00FE
ENCODING 254
SWIDTH 600 0
DWIDTH 20 0
BBX 17 30 2 -6
BITMAP
FC0000
FC0000
FC0000
FC0000
FC0000
FC0000
FC0000
FDF800
FFFC00
FFFE00
FE3F00
FC1F00
FC1F00
FC1F80
FC1F80
FC1F80
FC1F80
FC1F80
FC1F80
FC1F00
FE3F00
FFFE00
FFFE00
FDF800
FC0000
FC0000
FC0000
FC0000
FC0000
FC0000
ENDCHAR
STARTCHAR 00FF
ENCODING 255
SWIDTH 600 0
DWIDTH 20 0
BBX 18 30 1 -6
BITMAP
1E1E00
1E1E00
1E1E00
1E1E00
000000
000000
000000
FC07C0
7C0F80
7E0F80
7E0F80
3E1F00
3F1F00
1F1E00
1F3E00
1FBE00
0FBC00
0FFC00
07FC00
07F800
07F800
03F000
03F000
01F000
03E000
03E000
4FC000
7F8000
7F8000
7E0000
ENDCHAR
STARTCHAR 0152
ENCODING 140
SWIDTH 600 0
DWIDTH 20 0
BBX 19 23 1 0
BITMAP
07FFE0
1FFFC0
3FFFC0
7FFFC0
FE7C00
F87C00
F07C00
F07C00
F07C00
F07FC0
F07FC0
F07FC0
F07FC0
F07FC0
F07C00
F07C00
F07C00
F87C00
FC7C00
7FFFC0
7FFFE0
1FFFE0
0FFFE0
ENDCHAR
STARTCHAR 0153
ENCODING 156
SWIDTH 600 0
DWIDTH 20 0
BBX 20 17 0 0
BITMAP
1F9F80
3FFFC0
7FFFE0
79F9E0
F0F8E0
F0F0F0
F0F0F0
F0FFF0
F0FFF0
F0F000
F0F000
F0F0F0
F0F8F0
79F8E0
7FFFE0
3FFFC0
1F9F80
ENDCHAR
STARTCHAR 0160
ENCODING 138
SWIDTH 600 0
DWIDTH 20 0
BBX 18 30 1 0
BITMAP
1E1E00
0F1C00
073C00
07F800
03F000
000000
000000
07FC00
1FFE00
3FFF80
7FFF80
FE0FC0
FC07C0
FC07C0
FC0000
FF8000
7FF800
7FFE00
3FFF80
0FFF80
01FFC0
001FC0
F80FC0
F807C0
F80FC0
FC0FC0
FFFFC0
7FFF80
3FFF00
0FFC00
ENDCHAR
STARTCHAR 0161
ENCODING 154
SWIDTH 600 0
DWIDTH 20 0
BBX 16 25 2 0
BITMAP
7C3C
1E78
0EF0
0FF0
07E0
03C0
0000
0000
1FF8
3FFC
7FFE
F83E
F81E
FC00
FFC0
7FFC
3FFE
1FFF
00FF
001F
F01F
F81F
7FFE
7FFC
1FF8
ENDCHAR
STARTCHAR 0178
ENCODING 159
SWIDTH 600 0
DWIDTH 20 0
BBX 20 29 0 0
BITMAP
0F0F00
0F0F00
0F0F00
0F0F00
000000
000000
FC03F0
7E03E0
7E07E0
3F07C0
3F0FC0
1F8F80
1F9F80
0F9F00
0FDF00
07FE00
07FE00
03FC00
03FC00
01F800
01F800
01F800
01F800
01F800
01F800
01F800
01F800
01F800
01F800
ENDCHAR
STARTCHAR 017D
ENCODING 142
SWIDTH 600 0
DWIDTH 20 0
BBX 18 30 1 0
BITMAP
1E1E00
0F1C00
073C00
07F800
03F000
000000
000000
7FFFC0
7FFFC0
7FFFC0
7FFF80
003F00
007F00
007E00
00FE00
00FC00
01F800
03F800
03F000
07F000
07E000
0FC000
1FC000
1F8000
3F0000
7F0000
7FFFC0
FFFFC0
FFFFC0
FFFFC0
ENDCHAR
STARTCHAR 017E
ENCODING 158
SWIDTH 600 0
DWIDTH 20 0
BBX 14 25 3 0
BITMAP
F878
3CF0
1DE0
1FE0
0FC0
0780
0000
0000
FFFC
FFFC
FFF8
01F8
03F0
03F0
07E0
07C0
0FC0
1F80
1F80
3F00
3E00
7E00
FFFC
FFFC
FFFC
ENDCHAR
STARTCHAR 0192
ENCODING 131
SWIDTH 600 0
DWIDTH 20 0
BBX 17 30 1 -6
BITMAP
003F80
007F80
00FF80
00F800
01F800
01F800
01F000
07FF00
07FF00
07FF00
0FFF00
03F000
03F000
03E000
03E000
03E000
03E000
03E000
07E000
07E000
07C000
07C000
07C000
07C000
07C000
0FC000
8F8000
FF8000
FF0000
FE0000
ENDCHAR
STARTCHAR 02C6
ENCODING 136
SWIDTH 600 0
DWIDTH 20 0
BBX 12 6 4 19
BITMAP
1F80
1F80
3FC0
79E0
F0F0
E0F0
ENDCHAR
STARTCHAR 02DC
ENCODING 152
SWIDTH 600 0
DWIDTH 20 0
BBX 14 5 3 20
BITMAP
1C1C
3F1C
7FF8
77F8
E1F0
ENDCHAR
STARTCHAR 2013
ENCODING 150
SWIDTH 600 0
DWIDTH 20 0
BBX 14 4 3 7
BITMAP
FFFC
FFFC
FFFC
FFFC
ENDCHAR
STARTCHAR 2014
ENCODING 151
SWIDTH 600 0
DWIDTH 20 0
BBX 20 4 0 7
BITMAP
FFFFF0
FFFFF0
FFFFF0
FFFFF0
ENDCHAR
STARTCHAR 2018
ENCODING 145
SWIDTH 600 0
DWIDTH 20 0
BBX 6 12 7 11
BITMAP
3C
38
70
70
E0
E0
FC
FC
FC
FC
FC
FC
ENDCHAR
STARTCHAR 2019
ENCODING 146
SWIDTH 600 0
DWIDTH 20 0
BBX 6 12 7 12
BITMAP
FC
FC
FC
FC
FC
FC
1C
18
38
38
70
F0
ENDCHAR
STARTCHAR 201A
ENCODING 130
SWIDTH 600 0
DWIDTH 20 0
BBX 6 12 7 -6
BITMAP
FC
FC
FC
FC
FC
FC
1C
18
38
38
70
F0
ENDCHAR
STARTCHAR 201C
ENCODING 147
SWIDTH 600 0
DWIDTH 20 0
BBX 14 12 3 11
BITMAP
3C3C
3878
7070
7060
70E0
E0E0
FCFC
FCFC
FCFC
FCFC
FCFC
FCFC
ENDCHAR
STARTCHAR 201D
ENCODING 148
SWIDTH 600 0
DWIDTH 20 0
BBX 14 12 3 12
BITMAP
FCFC
FCFC
FCFC
FCFC
FCFC
FCFC
1C1C
1C38
3838
3838
7070
F0E0
ENDCHAR
STARTCHAR 201E
ENCODING 132
SWIDTH 600 0
DWIDTH 20 0
BBX 14 12 3 -6
BITMAP
FCFC
FCFC
FCFC
FCFC
FCFC
FCFC
1C1C
1C38
3838
3838
7070
F0E0
ENDCHAR
STARTCHAR 2020
ENCODING 134
SWIDTH 600 0
DWIDTH 20 0
BBX 16 29 2 -6
BITMAP
03C0
03C0
03C0
03C0
03C0
01C0
F99F
FFFF
FFFF
F99F
0180
0180
01C0
03C0
03C0
03C0
03C0
03C0
03C0
03C0
03C0
03C0
03C0
03C0
03C0
03C0
03C0
03C0
03C0
ENDCHAR
STARTCHAR 2021
ENCODING 135
SWIDTH 600 0
DWIDTH 20 0
BBX 16 29 2 -6
BITMAP
03C0
03C0
03C0
03C0
03C0
01C0
F99F
FFFF
FFFF
F99F
03C0
03C0
03C0
03C0
03C0
03C0
03C0
03C0
01C0
FDBF
FFFF
FFFF
F19F
03C0
03C0
03C0
03C0
03C0
03C0
ENDCHAR
STARTCHAR 2022
ENCODING 149
SWIDTH 600 0
DWIDTH 20 0
BBX 10 11 5 6
BITMAP
1E00
7F80
FF80
FFC0
FFC0
FFC0
FFC0
FFC0
FFC0
7F80
1E00
ENDCHAR
STARTCHAR 2026
ENCODING 133
SWIDTH 600 0
DWIDTH 20 0
BBX 18 5 1 0
BITMAP
F9E7C0
F9E7C0
F9E7C0
F9E7C0
F9E7C0
ENDCHAR
STARTCHAR 2030
ENCODING 137
SWIDTH 600 0
DWIDTH 20 0
BBX 18 23 1 0
BITMAP
3C0000
7F0000
F70000
E38000
E38000
E38000
E38000
E70000
7F0000
3E0000
000000
FFFFC0
FFFFC0
3E1F00
7F3F80
F73BC0
E3F1C0
E3F1C0
E3F1C0
E3F1C0
F73BC0
7F3F80
3E1F00
ENDCHAR
STARTCHAR 2039
ENCODING 139
SWIDTH 600 0
DWIDTH 20 0
BBX 8 12 6 5
BITMAP
0F
1E
3E
3C
78
F8
78
7C
3C
1E
1E
0F
ENDCHAR
STARTCHAR 203A
ENCODING 155
SWIDTH 600 0
DWIDTH 20 0
BBX 8 12 6 5
BITMAP
F0
78
3C
3C
1E
1F
1E
3E
3C
78
78
F0
ENDCHAR
STARTCHAR 20AC
ENCODING 128
SWIDTH 600 0
DWIDTH 20 0
BBX 17 23 1 0
BITMAP
003F80
01FF80
03FF80
07FF80
0FF080
0FC000
1F8000
1F8000
FFFC00
FFFC00
FFFC00
1F0000
1F0000
FFFC00
FFFC00
1F8000
1F8000
0FC000
0FF080
07FF80
03FF80
01FF80
007F80
ENDCHAR
STARTCHAR 2122
ENCODING 153
SWIDTH 600 0
DWIDTH 20 0
BBX 20 13 0 10
BITMAP
FEF1F0
FEF1F0
FEF9F0
38F9F0
38D9F0
38D9F0
38DBF0
38DB70
38DB70
38DF70
38CF70
38CF70
38CF70
ENDCHAR
ENDFONT
