STARTFONT 2.1
COMMENT
COMMENT Converted from OpenType font "ChivoMono-Regular.ttf" by "otf2bdf 3.0".
COMMENT
FONT -FreeType-chivo mono cp1252-Medium-R-Normal--22-160-100-100-P-102-ISO10646-1
SIZE 16 100 100
FONTBOUNDINGBOX 13 26 0 -5
STARTPROPERTIES 19
FOUNDRY "FreeType"
FAMILY_NAME "chivo mono cp1252"
WEIGHT_NAME "Medium"
SLANT "R"
SETWIDTH_NAME "Normal"
ADD_STYLE_NAME ""
PIXEL_SIZE 22
POINT_SIZE 160
RESOLUTION_X 100
RESOLUTION_Y 100
SPACING "P"
AVERAGE_WIDTH 102
CHARSET_REGISTRY "ISO10646"
CHARSET_ENCODING "1"
FONT_ASCENT 20
FONT_DESCENT 5
COPYRIGHT "Copyright 2018 The Chivo Project Authors (https://github.com/Omnibus-Type/Chivo)"
_OTF_FONTFILE "ChivoMono-Regular.ttf"
_OTF_PSNAME "ChivoMono-Regular"
ENDPROPERTIES
CHARS 219
STARTCHAR 000D
ENCODING 13
SWIDTH 585 0
DWIDTH 13 0
BBX 0 0 0 0
BITMAP
ENDCHAR
STARTCHAR 0020
ENCODING 32
SWIDTH 585 0
DWIDTH 13 0
BBX 0 0 0 0
BITMAP
ENDCHAR
STARTCHAR 0021
ENCODING 33
SWIDTH 585 0
DWIDTH 13 0
BBX 3 15 5 0
BITMAP
E0
E0
E0
60
60
60
60
60
60
60
40
00
E0
E0
E0
ENDCHAR
STARTCHAR 0022
ENCODING 34
SWIDTH 585 0
DWIDTH 13 0
BBX 5 6 4 9
BITMAP
D8
D8
D8
D8
C8
C8
ENDCHAR
STARTCHAR 0023
ENCODING 35
SWIDTH 585 0
DWIDTH 13 0
BBX 13 15 0 0
BITMAP
0630
0420
0420
0C60
7FF8
7FF8
0840
18C0
18C0
FFF0
FFF0
1080
3180
3180
3180
ENDCHAR
STARTCHAR 0024
ENCODING 36
SWIDTH 585 0
DWIDTH 13 0
BBX 11 18 1 -1
BITMAP
0400
0400
1F00
7FC0
60E0
E060
E000
7000
3F00
1FC0
01E0
0060
C060
C060
70E0
3FC0
0E00
0400
ENDCHAR
STARTCHAR 0025
ENCODING 37
SWIDTH 585 0
DWIDTH 13 0
BBX 13 15 0 0
BITMAP
7818
C830
8C20
8C40
8CC0
C980
7800
2070
00D8
0C88
0888
1088
3088
60D8
C070
ENDCHAR
STARTCHAR 0026
ENCODING 38
SWIDTH 585 0
DWIDTH 13 0
BBX 12 15 1 0
BITMAP
3E00
7200
6000
E040
6040
60C0
3FF0
3FF0
70C0
E0C0
C0C0
C0C0
E0C0
7FC0
1FC0
ENDCHAR
STARTCHAR 0027
ENCODING 39
SWIDTH 585 0
DWIDTH 13 0
BBX 2 6 6 9
BITMAP
C0
C0
C0
C0
80
80
ENDCHAR
STARTCHAR 0028
ENCODING 40
SWIDTH 585 0
DWIDTH 13 0
BBX 5 18 5 -3
BITMAP
18
30
60
60
40
C0
C0
C0
C0
C0
C0
C0
C0
C0
60
60
20
38
ENDCHAR
STARTCHAR 0029
ENCODING 41
SWIDTH 585 0
DWIDTH 13 0
BBX 5 18 4 -3
BITMAP
C0
40
60
20
30
30
30
18
18
18
18
30
30
30
30
60
60
C0
ENDCHAR
STARTCHAR 002A
ENCODING 42
SWIDTH 585 0
DWIDTH 13 0
BBX 9 8 2 7
BITMAP
0C00
0800
C880
FF80
0C00
1400
3600
6300
ENDCHAR
STARTCHAR 002B
ENCODING 43
SWIDTH 585 0
DWIDTH 13 0
BBX 11 11 1 0
BITMAP
0600
0600
0600
0600
FFE0
FFE0
0600
0600
0600
0600
0600
ENDCHAR
STARTCHAR 002C
ENCODING 44
SWIDTH 585 0
DWIDTH 13 0
BBX 3 6 5 -3
BITMAP
E0
E0
E0
60
60
C0
ENDCHAR
STARTCHAR 002D
ENCODING 45
SWIDTH 585 0
DWIDTH 13 0
BBX 5 2 4 5
BITMAP
F8
F8
ENDCHAR
STARTCHAR 002E
ENCODING 46
SWIDTH 585 0
DWIDTH 13 0
BBX 3 3 5 0
BITMAP
E0
E0
E0
ENDCHAR
STARTCHAR 002F
ENCODING 47
SWIDTH 585 0
DWIDTH 13 0
BBX 13 19 0 -4
BITMAP
0018
0030
0020
0060
00C0
00C0
0180
0180
0300
0200
0600
0C00
0C00
1800
1800
3000
3000
6000
C000
ENDCHAR
STARTCHAR 0030
ENCODING 48
SWIDTH 585 0
DWIDTH 13 0
BBX 11 15 1 0
BITMAP
3F80
79C0
60E0
E060
E060
E060
E060
E060
E060
E060
E060
60E0
60C0
3FC0
1F80
ENDCHAR
STARTCHAR 0031
ENCODING 49
SWIDTH 585 0
DWIDTH 13 0
BBX 10 15 2 0
BITMAP
3C00
FC00
0C00
0C00
0C00
0C00
0C00
0C00
0C00
0C00
0C00
0C00
0C00
FFC0
FFC0
ENDCHAR
STARTCHAR 0032
ENCODING 50
SWIDTH 585 0
DWIDTH 13 0
BBX 11 15 1 0
BITMAP
3F80
79C0
60E0
6060
E060
00E0
00C0
01C0
0780
0E00
3C00
7000
6000
FFE0
FFE0
ENDCHAR
STARTCHAR 0033
ENCODING 51
SWIDTH 585 0
DWIDTH 13 0
BBX 11 15 1 0
BITMAP
3F80
71C0
60C0
C0E0
00E0
00C0
0F80
0F80
00C0
00E0
0060
C060
E0E0
7FC0
3F80
ENDCHAR
STARTCHAR 0034
ENCODING 52
SWIDTH 585 0
DWIDTH 13 0
BBX 11 15 1 0
BITMAP
0E00
0C00
1C80
1880
3980
3180
7180
6180
C180
FFE0
FFE0
0180
0180
0180
0180
ENDCHAR
STARTCHAR 0035
ENCODING 53
SWIDTH 585 0
DWIDTH 13 0
BBX 11 15 1 0
BITMAP
3FC0
7FC0
6000
6000
6000
6F00
7FC0
70C0
00E0
0060
E060
6060
60C0
3FC0
1F80
ENDCHAR
STARTCHAR 0036
ENCODING 54
SWIDTH 585 0
DWIDTH 13 0
BBX 10 15 2 0
BITMAP
3F00
7380
C1C0
C0C0
C0C0
CC00
FF80
E180
C0C0
C0C0
C0C0
C0C0
E1C0
7F80
3F00
ENDCHAR
STARTCHAR 0037
ENCODING 55
SWIDTH 585 0
DWIDTH 13 0
BBX 11 15 1 0
BITMAP
FFE0
FFE0
00C0
0180
0380
0300
0600
0600
0E00
0C00
0C00
1C00
1C00
1C00
1C00
ENDCHAR
STARTCHAR 0038
ENCODING 56
SWIDTH 585 0
DWIDTH 13 0
BBX 11 15 1 0
BITMAP
3F80
71C0
60C0
60E0
60C0
60C0
3F80
3F80
70C0
6060
E060
E060
60E0
7BC0
3F80
ENDCHAR
STARTCHAR 0039
ENCODING 57
SWIDTH 585 0
DWIDTH 13 0
BBX 11 15 1 0
BITMAP
3F80
71C0
60C0
C0E0
C0E0
C0E0
E0E0
71E0
3FE0
00E0
C0E0
E0E0
60C0
7FC0
1F00
ENDCHAR
STARTCHAR 003A
ENCODING 58
SWIDTH 585 0
DWIDTH 13 0
BBX 3 12 5 0
BITMAP
E0
E0
E0
00
00
00
00
00
00
E0
E0
E0
ENDCHAR
STARTCHAR 003B
ENCODING 59
SWIDTH 585 0
DWIDTH 13 0
BBX 3 15 5 -3
BITMAP
E0
E0
E0
00
00
00
00
00
00
E0
E0
E0
60
60
C0
ENDCHAR
STARTCHAR 003C
ENCODING 60
SWIDTH 585 0
DWIDTH 13 0
BBX 11 11 1 0
BITMAP
0060
01E0
0F80
3E00
F000
C000
F800
3E00
07C0
01E0
0020
ENDCHAR
STARTCHAR 003D
ENCODING 61
SWIDTH 585 0
DWIDTH 13 0
BBX 11 7 1 2
BITMAP
FFE0
FFE0
0000
0000
0000
FFE0
FFE0
ENDCHAR
STARTCHAR 003E
ENCODING 62
SWIDTH 585 0
DWIDTH 13 0
BBX 12 11 1 0
BITMAP
C000
F800
3E00
07C0
01F0
0070
01F0
0F80
7C00
F000
8000
ENDCHAR
STARTCHAR 003F
ENCODING 63
SWIDTH 585 0
DWIDTH 13 0
BBX 10 15 2 0
BITMAP
3F00
6380
C180
C1C0
C1C0
0180
0380
0600
0C00
0C00
0C00
0000
1C00
1C00
1C00
ENDCHAR
STARTCHAR 0040
ENCODING 64
SWIDTH 585 0
DWIDTH 13 0
BBX 13 19 0 -4
BITMAP
1FC0
3030
6010
4318
4F88
D8C8
98C8
80C8
83C8
8FC8
98C8
98C8
D8C8
DDD8
4F70
6000
3000
1FC0
0600
ENDCHAR
STARTCHAR 0041
ENCODING 65
SWIDTH 585 0
DWIDTH 13 0
BBX 13 15 0 0
BITMAP
0700
0780
0D80
0D80
0DC0
18C0
18C0
18E0
3860
3060
3FF0
7FF0
6030
6038
E038
ENDCHAR
STARTCHAR 0042
ENCODING 66
SWIDTH 585 0
DWIDTH 13 0
BBX 10 15 2 0
BITMAP
FF80
FF80
C1C0
C0C0
C0C0
C180
FF00
FF00
C1C0
C0C0
C0C0
C0C0
C1C0
FF80
FF00
ENDCHAR
STARTCHAR 0043
ENCODING 67
SWIDTH 585 0
DWIDTH 13 0
BBX 11 15 1 0
BITMAP
3F80
79C0
60E0
E060
C060
C060
C000
C000
C000
C060
C060
E060
60E0
7FC0
3F80
ENDCHAR
STARTCHAR 0044
ENCODING 68
SWIDTH 585 0
DWIDTH 13 0
BBX 11 15 2 0
BITMAP
FF00
FFC0
C1C0
C0E0
C0E0
C060
C060
C060
C060
C060
C0E0
C0E0
C1C0
FF80
FF00
ENDCHAR
STARTCHAR 0045
ENCODING 69
SWIDTH 585 0
DWIDTH 13 0
BBX 10 15 2 0
BITMAP
FFC0
FFC0
C000
C000
C000
C000
FF80
FF80
C000
C000
C000
C000
C000
FFC0
FFC0
ENDCHAR
STARTCHAR 0046
ENCODING 70
SWIDTH 585 0
DWIDTH 13 0
BBX 10 15 2 0
BITMAP
FFC0
FF80
C000
C000
C000
C000
FF00
FF00
C000
C000
C000
C000
C000
C000
C000
ENDCHAR
STARTCHAR 0047
ENCODING 71
SWIDTH 585 0
DWIDTH 13 0
BBX 11 15 1 0
BITMAP
3F80
79C0
E0E0
E060
C060
C000
C000
C7E0
C7E0
C060
C060
E060
60E0
7FA0
3F20
ENDCHAR
STARTCHAR 0048
ENCODING 72
SWIDTH 585 0
DWIDTH 13 0
BBX 10 15 2 0
BITMAP
C1C0
C1C0
C1C0
C1C0
C1C0
C1C0
FFC0
FFC0
C1C0
C1C0
C1C0
C1C0
C1C0
C1C0
C1C0
ENDCHAR
STARTCHAR 0049
ENCODING 73
SWIDTH 585 0
DWIDTH 13 0
BBX 9 15 2 0
BITMAP
FF80
FF80
1C00
1C00
1C00
1C00
1C00
1C00
1C00
1C00
1C00
1C00
1C00
FF80
FF80
ENDCHAR
STARTCHAR 004A
ENCODING 74
SWIDTH 585 0
DWIDTH 13 0
BBX 9 15 2 0
BITMAP
0180
0180
0180
0180
0180
0180
0180
0180
0180
0180
C180
C180
E180
7F80
3F00
ENDCHAR
STARTCHAR 004B
ENCODING 75
SWIDTH 585 0
DWIDTH 13 0
BBX 11 15 2 0
BITMAP
C0E0
C1C0
C380
C700
C600
CE00
DC00
FC00
FE00
E600
C700
C380
C180
C1C0
C0E0
ENDCHAR
STARTCHAR 004C
ENCODING 76
SWIDTH 585 0
DWIDTH 13 0
BBX 10 15 2 0
BITMAP
E000
E000
E000
E000
E000
E000
E000
E000
E000
E000
E000
E000
E000
FFC0
FFC0
ENDCHAR
STARTCHAR 004D
ENCODING 77
SWIDTH 585 0
DWIDTH 13 0
BBX 11 15 1 0
BITMAP
F0E0
F0E0
F1E0
F1E0
D160
D160
D960
DB60
DB60
CB60
CA60
CE60
CE60
CE60
CE60
ENDCHAR
STARTCHAR 004E
ENCODING 78
SWIDTH 585 0
DWIDTH 13 0
BBX 10 15 2 0
BITMAP
C0C0
E0C0
E0C0
F0C0
F0C0
D8C0
D8C0
CCC0
CCC0
C6C0
C6C0
C3C0
C3C0
C1C0
C1C0
ENDCHAR
STARTCHAR 004F
ENCODING 79
SWIDTH 585 0
DWIDTH 13 0
BBX 12 15 1 0
BITMAP
3F80
79C0
60E0
E060
C060
C060
C070
C070
C070
C060
C060
E060
60E0
7FC0
3F80
ENDCHAR
STARTCHAR 0050
ENCODING 80
SWIDTH 585 0
DWIDTH 13 0
BBX 11 15 2 0
BITMAP
FF80
FFC0
C0C0
C0E0
C0E0
C0E0
C1C0
FF80
FE00
C000
C000
C000
C000
C000
C000
ENDCHAR
STARTCHAR 0051
ENCODING 81
SWIDTH 585 0
DWIDTH 13 0
BBX 12 18 1 -3
BITMAP
3F80
79C0
60E0
E060
C060
C060
C070
C070
C070
C060
C060
E060
60E0
7FC0
1F80
0600
0710
03F0
ENDCHAR
STARTCHAR 0052
ENCODING 82
SWIDTH 585 0
DWIDTH 13 0
BBX 11 15 2 0
BITMAP
FF80
FFC0
C0C0
C0E0
C0C0
C0C0
C1C0
FF00
FF80
C1C0
C0C0
C0C0
C0C0
C0C0
C060
ENDCHAR
STARTCHAR 0053
ENCODING 83
SWIDTH 585 0
DWIDTH 13 0
BBX 11 15 1 0
BITMAP
3F80
71C0
E060
E060
E000
7000
7F00
1FC0
01E0
0060
C060
C060
E0E0
7FE0
3F80
ENDCHAR
STARTCHAR 0054
ENCODING 84
SWIDTH 585 0
DWIDTH 13 0
BBX 12 15 1 0
BITMAP
FFF0
FFF0
0600
0600
0600
0600
0600
0600
0600
0600
0600
0600
0600
0600
0600
ENDCHAR
STARTCHAR 0055
ENCODING 85
SWIDTH 585 0
DWIDTH 13 0
BBX 11 15 1 0
BITMAP
E060
E060
E060
E060
E060
E060
E060
E060
E060
E060
E060
60E0
60C0
7FC0
1F80
ENDCHAR
STARTCHAR 0056
ENCODING 86
SWIDTH 585 0
DWIDTH 13 0
BBX 13 15 0 0
BITMAP
E018
6030
7030
3030
3070
3060
3860
18E0
18C0
1CC0
0DC0
0D80
0F80
0780
0700
ENDCHAR
STARTCHAR 0057
ENCODING 87
SWIDTH 585 0
DWIDTH 13 0
BBX 13 15 0 0
BITMAP
C318
C318
E718
6718
6798
6590
65B0
65B0
7DB0
3CB0
3CB0
38E0
38E0
38E0
38E0
ENDCHAR
STARTCHAR 0058
ENCODING 88
SWIDTH 585 0
DWIDTH 13 0
BBX 13 15 0 0
BITMAP
7038
3070
3860
1CC0
0DC0
0F80
0700
0700
0F80
0DC0
18C0
38E0
3070
7030
E038
ENDCHAR
STARTCHAR 0059
ENCODING 89
SWIDTH 585 0
DWIDTH 13 0
BBX 13 15 0 0
BITMAP
E038
7030
3060
3860
18C0
1CC0
0F80
0780
0700
0300
0300
0300
0300
0300
0300
ENDCHAR
STARTCHAR 005A
ENCODING 90
SWIDTH 585 0
DWIDTH 13 0
BBX 11 15 1 0
BITMAP
FFE0
FFE0
01C0
0180
0380
0700
0600
0E00
0C00
1C00
3800
3000
7000
FFE0
FFE0
ENDCHAR
STARTCHAR 005B
ENCODING 91
SWIDTH 585 0
DWIDTH 13 0
BBX 5 19 5 -4
BITMAP
F8
C0
C0
C0
C0
C0
C0
C0
C0
C0
C0
C0
C0
C0
C0
C0
C0
F8
F8
ENDCHAR
STARTCHAR 005C
ENCODING 92
SWIDTH 585 0
DWIDTH 13 0
BBX 13 19 0 -4
BITMAP
E000
6000
3000
3000
1800
0800
0C00
0600
0600
0300
0300
0180
0080
00C0
0060
0060
0030
0030
0018
ENDCHAR
STARTCHAR 005D
ENCODING 93
SWIDTH 585 0
DWIDTH 13 0
BBX 5 19 3 -4
BITMAP
F8
18
18
18
18
18
18
18
18
18
18
18
18
18
18
18
18
F8
F8
ENDCHAR
STARTCHAR 005E
ENCODING 94
SWIDTH 585 0
DWIDTH 13 0
BBX 11 11 1 0
BITMAP
0E00
0F00
1B00
1B00
1980
3180
3080
60C0
60C0
6060
C060
ENDCHAR
STARTCHAR 005F
ENCODING 95
SWIDTH 585 0
DWIDTH 13 0
BBX 11 2 1 -3
BITMAP
FFE0
FFE0
ENDCHAR
STARTCHAR 0060
ENCODING 96
SWIDTH 585 0
DWIDTH 13 0
BBX 4 4 5 13
BITMAP
C0
C0
60
30
ENDCHAR
STARTCHAR 0061
ENCODING 97
SWIDTH 585 0
DWIDTH 13 0
BBX 12 12 1 0
BITMAP
0E00
3F80
71C0
60C0
00C0
0FC0
3FC0
60C0
E0C0
61C0
73D0
3EF0
ENDCHAR
STARTCHAR 0062
ENCODING 98
SWIDTH 585 0
DWIDTH 13 0
BBX 10 16 2 0
BITMAP
C000
C000
C000
C000
C400
DF00
E180
E1C0
C0C0
C0C0
C0C0
C0C0
C0C0
E1C0
F380
DF00
ENDCHAR
STARTCHAR 0063
ENCODING 99
SWIDTH 585 0
DWIDTH 13 0
BBX 10 12 1 0
BITMAP
0600
3F80
71C0
60C0
60C0
E000
E000
E000
60C0
60C0
39C0
1F00
ENDCHAR
STARTCHAR 0064
ENCODING 100
SWIDTH 585 0
DWIDTH 13 0
BBX 10 16 1 0
BITMAP
00C0
00C0
00C0
00C0
0CC0
3FC0
71C0
60C0
E0C0
C0C0
C0C0
E0C0
E0C0
61C0
73C0
3EC0
ENDCHAR
STARTCHAR 0065
ENCODING 101
SWIDTH 585 0
DWIDTH 13 0
BBX 11 12 1 0
BITMAP
0600
3F80
71C0
60C0
6060
FFE0
FFE0
E000
6060
60C0
39C0
1F80
ENDCHAR
STARTCHAR 0066
ENCODING 102
SWIDTH 585 0
DWIDTH 13 0
BBX 10 16 2 0
BITMAP
07C0
0FC0
1C00
1800
1800
FFC0
1800
1800
1800
1800
1800
1800
1800
1800
FFC0
FFC0
ENDCHAR
STARTCHAR 0067
ENCODING 103
SWIDTH 585 0
DWIDTH 13 0
BBX 12 17 1 -4
BITMAP
0030
0660
3F80
70C0
60C0
60C0
70C0
3F80
7E00
6000
6000
7FC0
7FE0
C070
C030
E060
7FC0
ENDCHAR
STARTCHAR 0068
ENCODING 104
SWIDTH 585 0
DWIDTH 13 0
BBX 10 16 2 0
BITMAP
C000
C000
C000
C000
C400
DF00
E380
C180
C1C0
C1C0
C1C0
C1C0
C1C0
C1C0
C1C0
C1C0
ENDCHAR
STARTCHAR 0069
ENCODING 105
SWIDTH 585 0
DWIDTH 13 0
BBX 10 16 2 0
BITMAP
0C00
0C00
0000
0000
0000
FC00
0C00
0C00
0C00
0C00
0C00
0C00
0C00
0C00
FFC0
FFC0
ENDCHAR
STARTCHAR 006A
ENCODING 106
SWIDTH 585 0
DWIDTH 13 0
BBX 6 20 2 -4
BITMAP
0C
0C
00
00
00
FC
0C
0C
0C
0C
0C
0C
0C
0C
0C
0C
0C
0C
FC
F8
ENDCHAR
STARTCHAR 006B
ENCODING 107
SWIDTH 585 0
DWIDTH 13 0
BBX 10 16 2 0
BITMAP
C000
C000
C000
C000
C040
C380
C300
C600
CE00
DC00
FC00
FE00
E600
C700
C380
C1C0
ENDCHAR
STARTCHAR 006C
ENCODING 108
SWIDTH 585 0
DWIDTH 13 0
BBX 10 16 2 0
BITMAP
FC00
FC00
0C00
0C00
0C00
0C00
0C00
0C00
0C00
0C00
0C00
0C00
0C00
0C00
FFC0
FFC0
ENDCHAR
STARTCHAR 006D
ENCODING 109
SWIDTH 585 0
DWIDTH 13 0
BBX 11 12 1 0
BITMAP
1880
FDE0
EE60
C660
C660
C660
C660
C660
C660
C660
C660
C660
ENDCHAR
STARTCHAR 006E
ENCODING 110
SWIDTH 585 0
DWIDTH 13 0
BBX 10 12 2 0
BITMAP
0400
FF00
E380
E180
C1C0
C1C0
C1C0
C1C0
C1C0
C1C0
C1C0
C1C0
ENDCHAR
STARTCHAR 006F
ENCODING 111
SWIDTH 585 0
DWIDTH 13 0
BBX 11 12 1 0
BITMAP
0600
3F80
71C0
60C0
60E0
E060
E060
E060
60E0
60C0
39C0
1F00
ENDCHAR
STARTCHAR 0070
ENCODING 112
SWIDTH 585 0
DWIDTH 13 0
BBX 10 16 2 -4
BITMAP
0400
DF80
E180
E1C0
C0C0
C0C0
C0C0
C0C0
C0C0
E1C0
F380
DF00
C000
C000
C000
C000
ENDCHAR
STARTCHAR 0071
ENCODING 113
SWIDTH 585 0
DWIDTH 13 0
BBX 10 16 1 -4
BITMAP
0C00
3FC0
71C0
60C0
E0C0
C0C0
C0C0
C0C0
E0C0
61C0
73C0
3EC0
00C0
00C0
00C0
00C0
ENDCHAR
STARTCHAR 0072
ENCODING 114
SWIDTH 585 0
DWIDTH 13 0
BBX 11 12 1 0
BITMAP
0180
FFE0
1C60
1860
1860
1800
1800
1800
1800
1800
FFC0
FFC0
ENDCHAR
STARTCHAR 0073
ENCODING 115
SWIDTH 585 0
DWIDTH 13 0
BBX 10 12 2 0
BITMAP
0C00
7F00
C180
C180
E000
FC00
3F80
0380
C1C0
C1C0
E380
7F00
ENDCHAR
STARTCHAR 0074
ENCODING 116
SWIDTH 585 0
DWIDTH 13 0
BBX 11 15 1 0
BITMAP
0C00
0C00
0C00
1C00
FFE0
1C00
1C00
1C00
1C00
1C00
1C00
1C00
1C00
0FE0
07E0
ENDCHAR
STARTCHAR 0075
ENCODING 117
SWIDTH 585 0
DWIDTH 13 0
BBX 11 11 2 0
BITMAP
C180
C180
C180
C180
C180
C180
C180
C180
C380
FFE0
7CE0
ENDCHAR
STARTCHAR 0076
ENCODING 118
SWIDTH 585 0
DWIDTH 13 0
BBX 11 11 1 0
BITMAP
E060
60E0
70C0
30C0
3180
3980
1980
1B00
1F00
0E00
0E00
ENDCHAR
STARTCHAR 0077
ENCODING 119
SWIDTH 585 0
DWIDTH 13 0
BBX 13 11 0 0
BITMAP
C318
C718
6718
6790
65B0
6DB0
2CB0
3CB0
38E0
38E0
38E0
ENDCHAR
STARTCHAR 0078
ENCODING 120
SWIDTH 585 0
DWIDTH 13 0
BBX 11 11 1 0
BITMAP
F0E0
31C0
3980
1F00
0F00
0E00
1F00
1B80
3180
70C0
E0E0
ENDCHAR
STARTCHAR 0079
ENCODING 121
SWIDTH 585 0
DWIDTH 13 0
BBX 11 15 1 -4
BITMAP
E060
60C0
70C0
30C0
3180
1980
1B00
1F00
0F00
0E00
0E00
0C00
0C00
7800
7800
ENDCHAR
STARTCHAR 007A
ENCODING 122
SWIDTH 585 0
DWIDTH 13 0
BBX 9 11 2 0
BITMAP
7F80
0300
0700
0E00
0C00
1C00
1800
3000
7000
7F80
FF80
ENDCHAR
STARTCHAR 007B
ENCODING 123
SWIDTH 585 0
DWIDTH 13 0
BBX 5 19 4 -4
BITMAP
38
30
30
30
30
30
20
20
E0
E0
20
20
30
30
30
30
30
38
08
ENDCHAR
STARTCHAR 007C
ENCODING 124
SWIDTH 585 0
DWIDTH 13 0
BBX 1 20 6 -4
BITMAP
80
80
80
80
80
80
80
80
80
80
80
80
80
80
80
80
80
80
80
80
ENDCHAR
STARTCHAR 007D
ENCODING 125
SWIDTH 585 0
DWIDTH 13 0
BBX 5 19 4 -4
BITMAP
E0
20
30
30
30
30
30
30
38
18
30
30
30
30
30
30
30
E0
80
ENDCHAR
STARTCHAR 007E
ENCODING 126
SWIDTH 585 0
DWIDTH 13 0
BBX 13 4 0 5
BITMAP
0008
3E08
FFF8
81E0
ENDCHAR
STARTCHAR 00A0
ENCODING 160
SWIDTH 585 0
DWIDTH 13 0
BBX 0 0 0 0
BITMAP
ENDCHAR
STARTCHAR 00A1
ENCODING 161
SWIDTH 585 0
DWIDTH 13 0
BBX 3 15 5 -4
BITMAP
E0
E0
00
00
40
60
60
60
60
60
60
E0
E0
E0
E0
ENDCHAR
STARTCHAR 00A2
ENCODING 162
SWIDTH 585 0
DWIDTH 13 0
BBX 10 15 2 0
BITMAP
0C00
0800
3F00
6180
C180
C0C0
C000
C000
C000
C0C0
E180
7380
3F00
0800
0C00
ENDCHAR
STARTCHAR 00A3
ENCODING 163
SWIDTH 585 0
DWIDTH 13 0
BBX 11 16 1 0
BITMAP
0200
1FC0
1CE0
3060
3060
3000
3000
3000
FF00
3000
3000
3000
3000
3000
FFE0
FFE0
ENDCHAR
STARTCHAR 00A4
ENCODING 164
SWIDTH 585 0
DWIDTH 13 0
BBX 11 11 1 2
BITMAP
DF20
7FE0
60C0
C060
C060
C020
C060
C060
60C0
7FE0
DF20
ENDCHAR
STARTCHAR 00A5
ENCODING 165
SWIDTH 585 0
DWIDTH 13 0
BBX 13 15 0 0
BITMAP
E038
7030
3060
3860
18C0
7CF0
7FF0
0780
7FF0
7FF0
0300
0300
0300
0300
0300
ENDCHAR
STARTCHAR 00A6
ENCODING 166
SWIDTH 585 0
DWIDTH 13 0
BBX 1 20 6 -4
BITMAP
80
80
80
80
80
80
80
80
00
00
00
00
80
80
80
80
80
80
80
80
ENDCHAR
STARTCHAR 00A7
ENCODING 167
SWIDTH 585 0
DWIDTH 13 0
BBX 10 19 2 -4
BITMAP
7F00
E380
C180
C000
E000
7800
7E00
C780
C180
C0C0
E080
7980
1F00
0700
0180
0180
C180
7380
3E00
ENDCHAR
STARTCHAR 00A8
ENCODING 168
SWIDTH 585 0
DWIDTH 13 0
BBX 7 2 3 14
BITMAP
C6
C6
ENDCHAR
STARTCHAR 00A9
ENCODING 169
SWIDTH 585 0
DWIDTH 13 0
BBX 13 15 0 0
BITMAP
1FC0
2020
4010
4F88
98C8
9848
9808
9808
9848
9848
48C8
4790
6010
3020
0FC0
ENDCHAR
STARTCHAR 00AA
ENCODING 170
SWIDTH 585 0
DWIDTH 13 0
BBX 7 7 3 8
BITMAP
7C
C4
1C
64
C4
CE
76
ENDCHAR
STARTCHAR 00AB
ENCODING 171
SWIDTH 585 0
DWIDTH 13 0
BBX 9 7 2 4
BITMAP
3180
2300
6600
C600
6600
2300
3180
ENDCHAR
STARTCHAR 00AC
ENCODING 172
SWIDTH 585 0
DWIDTH 13 0
BBX 11 6 1 4
BITMAP
FFE0
FFE0
0060
0060
0060
0060
ENDCHAR
STARTCHAR 00AD
ENCODING 173
SWIDTH 585 0
DWIDTH 13 0
BBX 5 2 4 5
BITMAP
F8
F8
ENDCHAR
STARTCHAR 00AE
ENCODING 174
SWIDTH 585 0
DWIDTH 13 0
BBX 13 15 0 0
BITMAP
1FC0
2020
4010
4F88
88C8
8848
88C8
8F88
88C8
88C8
4848
4870
6010
3020
0FC0
ENDCHAR
STARTCHAR 00AF
ENCODING 175
SWIDTH 585 0
DWIDTH 13 0
BBX 7 1 3 14
BITMAP
FE
ENDCHAR
STARTCHAR 00B0
ENCODING 176
SWIDTH 585 0
DWIDTH 13 0
BBX 7 6 3 9
BITMAP
7C
46
C2
C2
46
7C
ENDCHAR
STARTCHAR 00B1
ENCODING 177
SWIDTH 585 0
DWIDTH 13 0
BBX 11 11 1 0
BITMAP
0600
0600
0600
FFE0
FFE0
0600
0600
0600
0000
FFE0
FFE0
ENDCHAR
STARTCHAR 00B2
ENCODING 178
SWIDTH 585 0
DWIDTH 13 0
BBX 6 9 4 9
BITMAP
70
D8
8C
08
18
30
C0
FC
FC
ENDCHAR
STARTCHAR 00B3
ENCODING 179
SWIDTH 585 0
DWIDTH 13 0
BBX 6 9 4 9
BITMAP
70
D8
88
08
38
08
8C
D8
70
ENDCHAR
STARTCHAR 00B4
ENCODING 180
SWIDTH 585 0
DWIDTH 13 0
BBX 4 4 5 13
BITMAP
70
60
C0
C0
ENDCHAR
STARTCHAR 00B5
ENCODING 181
SWIDTH 585 0
DWIDTH 13 0
BBX 11 15 2 -4
BITMAP
C180
C180
C180
C180
C180
C180
C180
C180
C380
FFE0
FCE0
C000
C000
C000
C000
ENDCHAR
STARTCHAR 00B6
ENCODING 182
SWIDTH 585 0
DWIDTH 13 0
BBX 10 19 1 -4
BITMAP
3FC0
7D80
FD80
FD80
FD80
FD80
FD80
7D80
3D80
0D80
0D80
0D80
0D80
0D80
0D80
0D80
0D80
0D80
0D80
ENDCHAR
STARTCHAR 00B7
ENCODING 183
SWIDTH 585 0
DWIDTH 13 0
BBX 3 3 5 7
BITMAP
E0
E0
E0
ENDCHAR
STARTCHAR 00B8
ENCODING 184
SWIDTH 585 0
DWIDTH 13 0
BBX 5 4 4 -5
BITMAP
38
08
F8
60
ENDCHAR
STARTCHAR 00B9
ENCODING 185
SWIDTH 585 0
DWIDTH 13 0
BBX 5 9 4 9
BITMAP
20
E0
20
20
20
20
20
F8
F8
ENDCHAR
STARTCHAR 00BA
ENCODING 186
SWIDTH 585 0
DWIDTH 13 0
BBX 7 8 3 8
BITMAP
10
7C
46
C6
C6
46
6C
18
ENDCHAR
STARTCHAR 00BB
ENCODING 187
SWIDTH 585 0
DWIDTH 13 0
BBX 9 7 2 4
BITMAP
E600
6300
3380
3980
3380
6300
E600
ENDCHAR
STARTCHAR 00BC
ENCODING 188
SWIDTH 585 0
DWIDTH 13 0
BBX 13 16 0 0
BITMAP
3000
F018
3030
3020
3040
30C0
3180
F820
F860
0050
0CD0
0890
11F8
31F8
6010
C010
ENDCHAR
STARTCHAR 00BD
ENCODING 189
SWIDTH 585 0
DWIDTH 13 0
BBX 13 16 0 0
BITMAP
3000
F018
3030
3020
3040
3080
3180
F870
F8D8
0188
0C08
1818
1070
20C0
60F8
C1F8
ENDCHAR
STARTCHAR 00BE
ENCODING 190
SWIDTH 585 0
DWIDTH 13 0
BBX 13 16 0 0
BITMAP
3800
CC18
8C30
0C20
3840
0CC0
8580
CC20
7860
0050
0CD0
0890
11F8
31F8
6010
C010
ENDCHAR
STARTCHAR 00BF
ENCODING 191
SWIDTH 585 0
DWIDTH 13 0
BBX 10 15 2 -4
BITMAP
1C00
1C00
0000
0000
1800
1800
1800
7000
E000
C000
C1C0
C180
E180
7F00
3E00
ENDCHAR
STARTCHAR 00C0
ENCODING 192
SWIDTH 585 0
DWIDTH 13 0
BBX 13 20 0 0
BITMAP
1C00
0E00
0600
0100
0000
0700
0780
0D80
0D80
0DC0
18C0
18C0
18E0
3860
3060
3FF0
7FF0
6030
6038
E038
ENDCHAR
STARTCHAR 00C1
ENCODING 193
SWIDTH 585 0
DWIDTH 13 0
BBX 13 20 0 0
BITMAP
00C0
0180
0300
0000
0000
0700
0780
0D80
0D80
0DC0
18C0
18C0
18E0
3860
3060
3FF0
7FF0
6030
6038
E038
ENDCHAR
STARTCHAR 00C2
ENCODING 194
SWIDTH 585 0
DWIDTH 13 0
BBX 13 20 0 0
BITMAP
0700
0D80
18C0
0000
0000
0700
0780
0D80
0D80
0DC0
18C0
18C0
18E0
3860
3060
3FF0
7FF0
6030
6038
E038
ENDCHAR
STARTCHAR 00C3
ENCODING 195
SWIDTH 585 0
DWIDTH 13 0
BBX 13 20 0 0
BITMAP
0460
1FC0
13C0
0000
0000
0700
0780
0D80
0D80
0DC0
18C0
18C0
18E0
3860
3060
3FF0
7FF0
6030
6038
E038
ENDCHAR
STARTCHAR 00C4
ENCODING 196
SWIDTH 585 0
DWIDTH 13 0
BBX 13 19 0 0
BITMAP
18C0
18C0
0000
0000
0700
0780
0D80
0D80
0DC0
18C0
18C0
18E0
3860
3060
3FF0
7FF0
6030
6038
E038
ENDCHAR
STARTCHAR 00C5
ENCODING 197
SWIDTH 585 0
DWIDTH 13 0
BBX 13 21 0 0
BITMAP
0700
0C80
0880
0780
0000
0000
0700
0780
0D80
0D80
0DC0
18C0
18C0
18E0
3860
3060
3FF0
7FF0
6030
6038
E038
ENDCHAR
STARTCHAR 00C6
ENCODING 198
SWIDTH 585 0
DWIDTH 13 0
BBX 13 15 0 0
BITMAP
07F8
0FF8
0D80
0D80
1D80
1980
19F0
39F0
3180
3180
7F80
7F80
6180
E1F8
C1F8
ENDCHAR
STARTCHAR 00C7
ENCODING 199
SWIDTH 585 0
DWIDTH 13 0
BBX 11 20 1 -5
BITMAP
3F80
79C0
60E0
E060
C060
C060
C000
C000
C000
C060
C060
E060
60E0
7FC0
3F80
0000
0700
0100
1F00
0C00
ENDCHAR
STARTCHAR 00C8
ENCODING 200
SWIDTH 585 0
DWIDTH 13 0
BBX 10 20 2 0
BITMAP
3000
1800
0C00
0000
0000
FFC0
FFC0
C000
C000
C000
C000
FF80
FF80
C000
C000
C000
C000
C000
FFC0
FFC0
ENDCHAR
STARTCHAR 00C9
ENCODING 201
SWIDTH 585 0
DWIDTH 13 0
BBX 10 20 2 0
BITMAP
0300
0600
0E00
0000
0000
FFC0
FFC0
C000
C000
C000
C000
FF80
FF80
C000
C000
C000
C000
C000
FFC0
FFC0
ENDCHAR
STARTCHAR 00CA
ENCODING 202
SWIDTH 585 0
DWIDTH 13 0
BBX 10 20 2 0
BITMAP
0C00
1E00
7300
0080
0000
FFC0
FFC0
C000
C000
C000
C000
FF80
FF80
C000
C000
C000
C000
C000
FFC0
FFC0
ENDCHAR
STARTCHAR 00CB
ENCODING 203
SWIDTH 585 0
DWIDTH 13 0
BBX 10 19 2 0
BITMAP
7300
7300
0000
0000
FFC0
FFC0
C000
C000
C000
C000
FF80
FF80
C000
C000
C000
C000
C000
FFC0
FFC0
ENDCHAR
STARTCHAR 00CC
ENCODING 204
SWIDTH 585 0
DWIDTH 13 0
BBX 9 20 2 0
BITMAP
7000
3800
1800
0400
0000
FF80
FF80
1C00
1C00
1C00
1C00
1C00
1C00
1C00
1C00
1C00
1C00
1C00
FF80
FF80
ENDCHAR
STARTCHAR 00CD
ENCODING 205
SWIDTH 585 0
DWIDTH 13 0
BBX 9 20 2 0
BITMAP
0300
0600
0C00
0000
0000
FF80
FF80
1C00
1C00
1C00
1C00
1C00
1C00
1C00
1C00
1C00
1C00
1C00
FF80
FF80
ENDCHAR
STARTCHAR 00CE
ENCODING 206
SWIDTH 585 0
DWIDTH 13 0
BBX 9 20 2 0
BITMAP
1C00
3600
6300
0000
0000
FF80
FF80
1C00
1C00
1C00
1C00
1C00
1C00
1C00
1C00
1C00
1C00
1C00
FF80
FF80
ENDCHAR
STARTCHAR 00CF
ENCODING 207
SWIDTH 585 0
DWIDTH 13 0
BBX 9 19 2 0
BITMAP
6300
6300
0000
0000
FF80
FF80
1C00
1C00
1C00
1C00
1C00
1C00
1C00
1C00
1C00
1C00
1C00
FF80
FF80
ENDCHAR
STARTCHAR 00D0
ENCODING 208
SWIDTH 585 0
DWIDTH 13 0
BBX 13 15 0 0
BITMAP
3FC0
3FF0
3070
3038
3038
3018
3018
FF18
3018
3018
3038
3038
3070
3FE0
3FC0
ENDCHAR
STARTCHAR 00D1
ENCODING 209
SWIDTH 585 0
DWIDTH 13 0
BBX 10 20 2 0
BITMAP
1180
7F00
4F00
0000
0000
C0C0
E0C0
E0C0
F0C0
F0C0
D8C0
D8C0
CCC0
CCC0
C6C0
C6C0
C3C0
C3C0
C1C0
C1C0
ENDCHAR
STARTCHAR 00D2
ENCODING 210
SWIDTH 585 0
DWIDTH 13 0
BBX 12 20 1 0
BITMAP
3800
1C00
0C00
0200
0000
3F80
79C0
60E0
E060
C060
C060
C070
C070
C070
C060
C060
E060
60E0
7FC0
3F80
ENDCHAR
STARTCHAR 00D3
ENCODING 211
SWIDTH 585 0
DWIDTH 13 0
BBX 12 20 1 0
BITMAP
0180
0300
0600
0000
0000
3F80
79C0
60E0
E060
C060
C060
C070
C070
C070
C060
C060
E060
60E0
7FC0
3F80
ENDCHAR
STARTCHAR 00D4
ENCODING 212
SWIDTH 585 0
DWIDTH 13 0
BBX 12 20 1 0
BITMAP
0E00
1B00
3180
0000
0000
3F80
79C0
60E0
E060
C060
C060
C070
C070
C070
C060
C060
E060
60E0
7FC0
3F80
ENDCHAR
STARTCHAR 00D5
ENCODING 213
SWIDTH 585 0
DWIDTH 13 0
BBX 12 20 1 0
BITMAP
08C0
3F80
2780
0000
0000
3F80
79C0
60E0
E060
C060
C060
C070
C070
C070
C060
C060
E060
60E0
7FC0
3F80
ENDCHAR
STARTCHAR 00D6
ENCODING 214
SWIDTH 585 0
DWIDTH 13 0
BBX 12 19 1 0
BITMAP
3180
3180
0000
0000
3F80
79C0
60E0
E060
C060
C060
C070
C070
C070
C060
C060
E060
60E0
7FC0
3F80
ENDCHAR
STARTCHAR 00D7
ENCODING 215
SWIDTH 585 0
DWIDTH 13 0
BBX 9 9 2 1
BITMAP
C180
6380
3700
1E00
1C00
3E00
7300
E180
4080
ENDCHAR
STARTCHAR 00D8
ENCODING 216
SWIDTH 585 0
DWIDTH 13 0
BBX 13 18 0 -1
BITMAP
0018
0010
1FE0
3CE0
3070
70F0
60B0
61B0
6338
6238
6638
6430
6C30
7830
3070
3FE0
3FC0
E000
ENDCHAR
STARTCHAR 00D9
ENCODING 217
SWIDTH 585 0
DWIDTH 13 0
BBX 11 20 1 0
BITMAP
3800
1C00
0C00
0200
0000
E060
E060
E060
E060
E060
E060
E060
E060
E060
E060
E060
60E0
60C0
7FC0
1F80
ENDCHAR
STARTCHAR 00DA
ENCODING 218
SWIDTH 585 0
DWIDTH 13 0
BBX 11 20 1 0
BITMAP
0180
0300
0600
0000
0000
E060
E060
E060
E060
E060
E060
E060
E060
E060
E060
E060
60E0
60C0
7FC0
1F80
ENDCHAR
STARTCHAR 00DB
ENCODING 219
SWIDTH 585 0
DWIDTH 13 0
BBX 11 20 1 0
BITMAP
0E00
1B00
3180
0000
0000
E060
E060
E060
E060
E060
E060
E060
E060
E060
E060
E060
60E0
60C0
7FC0
1F80
ENDCHAR
STARTCHAR 00DC
ENCODING 220
SWIDTH 585 0
DWIDTH 13 0
BBX 11 19 1 0
BITMAP
3180
3180
0000
0000
E060
E060
E060
E060
E060
E060
E060
E060
E060
E060
E060
60E0
60C0
7FC0
1F80
ENDCHAR
STARTCHAR 00DD
ENCODING 221
SWIDTH 585 0
DWIDTH 13 0
BBX 13 20 0 0
BITMAP
00C0
0180
0300
0000
8000
6038
7030
3060
3860
18C0
1CC0
0F80
0780
0700
0300
0300
0300
0300
0300
0300
ENDCHAR
STARTCHAR 00DE
ENCODING 222
SWIDTH 585 0
DWIDTH 13 0
BBX 11 15 2 0
BITMAP
C000
C000
C000
FF80
C1C0
C0E0
C0E0
C0E0
C0C0
C3C0
FF80
C000
C000
C000
C000
ENDCHAR
STARTCHAR 00DF
ENCODING 223
SWIDTH 585 0
DWIDTH 13 0
BBX 12 17 0 -1
BITMAP
0FC0
1FE0
3870
3030
3030
F060
30E0
33C0
30E0
3030
3030
3030
3030
3070
33E0
33C0
3000
ENDCHAR
STARTCHAR 00E0
ENCODING 224
SWIDTH 585 0
DWIDTH 13 0
BBX 12 17 1 0
BITMAP
1800
1800
0C00
0600
0000
0E00
3F80
71C0
60C0
00C0
0FC0
3FC0
60C0
E0C0
61C0
73D0
3EF0
ENDCHAR
STARTCHAR 00E1
ENCODING 225
SWIDTH 585 0
DWIDTH 13 0
BBX 12 17 1 0
BITMAP
0300
0600
0600
0C00
0000
0E00
3F80
71C0
60C0
00C0
0FC0
3FC0
60C0
E0C0
61C0
73D0
3EF0
ENDCHAR
STARTCHAR 00E2
ENCODING 226
SWIDTH 585 0
DWIDTH 13 0
BBX 12 17 1 0
BITMAP
0E00
0A00
1B00
3180
0000
0E00
3F80
71C0
60C0
00C0
0FC0
3FC0
60C0
E0C0
61C0
73D0
3EF0
ENDCHAR
STARTCHAR 00E3
ENCODING 227
SWIDTH 585 0
DWIDTH 13 0
BBX 12 16 1 0
BITMAP
3C80
2F80
6300
0000
0E00
3F80
71C0
60C0
00C0
0FC0
3FC0
60C0
E0C0
61C0
73D0
3EF0
ENDCHAR
STARTCHAR 00E4
ENCODING 228
SWIDTH 585 0
DWIDTH 13 0
BBX 12 16 1 0
BITMAP
3180
3180
0000
0000
0E00
3F80
71C0
60C0
00C0
0FC0
3FC0
60C0
E0C0
61C0
73D0
3EF0
ENDCHAR
STARTCHAR 00E5
ENCODING 229
SWIDTH 585 0
DWIDTH 13 0
BBX 12 17 1 0
BITMAP
1E00
1100
1300
0E00
0000
0E00
3F80
71C0
60C0
00C0
0FC0
3FC0
60C0
E0C0
61C0
73D0
3EF0
ENDCHAR
STARTCHAR 00E6
ENCODING 230
SWIDTH 585 0
DWIDTH 13 0
BBX 13 12 0 0
BITMAP
1840
7DF0
6718
4318
0318
1FF8
7FF8
6300
C318
C718
6DB0
79F0
ENDCHAR
STARTCHAR 00E7
ENCODING 231
SWIDTH 585 0
DWIDTH 13 0
BBX 10 17 1 -5
BITMAP
0600
3F80
71C0
60C0
60C0
E000
E000
E000
60C0
60C0
39C0
1F00
0000
0700
0100
1F00
0C00
ENDCHAR
STARTCHAR 00E8
ENCODING 232
SWIDTH 585 0
DWIDTH 13 0
BBX 11 17 1 0
BITMAP
1800
0C00
0C00
0600
0000
0600
3F80
71C0
60C0
6060
FFE0
FFE0
E000
6060
60C0
39C0
1F80
ENDCHAR
STARTCHAR 00E9
ENCODING 233
SWIDTH 585 0
DWIDTH 13 0
BBX 11 17 1 0
BITMAP
0300
0300
0600
0400
0000
0600
3F80
71C0
60C0
6060
FFE0
FFE0
E000
6060
60C0
39C0
1F80
ENDCHAR
STARTCHAR 00EA
ENCODING 234
SWIDTH 585 0
DWIDTH 13 0
BBX 11 17 1 0
BITMAP
0600
0F00
1980
31C0
0000
0600
3F80
71C0
60C0
6060
FFE0
FFE0
E000
6060
60C0
39C0
1F80
ENDCHAR
STARTCHAR 00EB
ENCODING 235
SWIDTH 585 0
DWIDTH 13 0
BBX 11 16 1 0
BITMAP
3180
3180
0000
0000
0600
3F80
71C0
60C0
6060
FFE0
FFE0
E000
6060
60C0
39C0
1F80
ENDCHAR
STARTCHAR 00EC
ENCODING 236
SWIDTH 585 0
DWIDTH 13 0
BBX 10 17 2 0
BITMAP
3800
1800
0C00
0C00
0000
0000
FC00
0C00
0C00
0C00
0C00
0C00
0C00
0C00
0C00
FFC0
FFC0
ENDCHAR
STARTCHAR 00ED
ENCODING 237
SWIDTH 585 0
DWIDTH 13 0
BBX 10 17 2 0
BITMAP
0300
0600
0400
0C00
0000
0000
FC00
0C00
0C00
0C00
0C00
0C00
0C00
0C00
0C00
FFC0
FFC0
ENDCHAR
STARTCHAR 00EE
ENCODING 238
SWIDTH 585 0
DWIDTH 13 0
BBX 10 17 2 0
BITMAP
0C00
1E00
3300
7180
0000
0000
FC00
0C00
0C00
0C00
0C00
0C00
0C00
0C00
0C00
FFC0
FFC0
ENDCHAR
STARTCHAR 00EF
ENCODING 239
SWIDTH 585 0
DWIDTH 13 0
BBX 10 16 2 0
BITMAP
3180
3180
0000
0000
0000
FC00
0C00
0C00
0C00
0C00
0C00
0C00
0C00
0C00
FFC0
FFC0
ENDCHAR
STARTCHAR 00F0
ENCODING 240
SWIDTH 585 0
DWIDTH 13 0
BBX 11 16 1 0
BITMAP
3300
1E00
3E00
0300
0D80
3FC0
71C0
60E0
6060
E060
E060
E060
60E0
60C0
39C0
1F80
ENDCHAR
STARTCHAR 00F1
ENCODING 241
SWIDTH 585 0
DWIDTH 13 0
BBX 10 16 2 0
BITMAP
7980
4F00
4200
0000
0400
FF00
E380
E180
C1C0
C1C0
C1C0
C1C0
C1C0
C1C0
C1C0
C1C0
ENDCHAR
STARTCHAR 00F2
ENCODING 242
SWIDTH 585 0
DWIDTH 13 0
BBX 11 17 1 0
BITMAP
1800
0C00
0C00
0600
0000
0600
3F80
71C0
60C0
60E0
E060
E060
E060
60E0
60C0
39C0
1F00
ENDCHAR
STARTCHAR 00F3
ENCODING 243
SWIDTH 585 0
DWIDTH 13 0
BBX 11 17 1 0
BITMAP
0300
0300
0600
0C00
0000
0600
3F80
71C0
60C0
60E0
E060
E060
E060
60E0
60C0
39C0
1F00
ENDCHAR
STARTCHAR 00F4
ENCODING 244
SWIDTH 585 0
DWIDTH 13 0
BBX 11 17 1 0
BITMAP
0E00
0F00
1B00
3180
0000
0600
3F80
71C0
60C0
60E0
E060
E060
E060
60E0
60C0
39C0
1F00
ENDCHAR
STARTCHAR 00F5
ENCODING 245
SWIDTH 585 0
DWIDTH 13 0
BBX 11 16 1 0
BITMAP
3CC0
2780
2100
0000
0600
3F80
71C0
60C0
60E0
E060
E060
E060
60E0
60C0
39C0
1F00
ENDCHAR
STARTCHAR 00F6
ENCODING 246
SWIDTH 585 0
DWIDTH 13 0
BBX 11 16 1 0
BITMAP
3180
3180
0000
0000
0600
3F80
71C0
60C0
60E0
E060
E060
E060
60E0
60C0
39C0
1F00
ENDCHAR
STARTCHAR 00F7
ENCODING 247
SWIDTH 585 0
DWIDTH 13 0
BBX 11 9 1 1
BITMAP
0600
0600
0000
FFE0
FFE0
0000
0000
0600
0600
ENDCHAR
STARTCHAR 00F8
ENCODING 248
SWIDTH 585 0
DWIDTH 13 0
BBX 11 14 1 -1
BITMAP
0060
0640
3F80
71C0
61C0
62E0
E660
E460
EC60
68E0
70C0
39C0
3F00
4000
ENDCHAR
STARTCHAR 00F9
ENCODING 249
SWIDTH 585 0
DWIDTH 13 0
BBX 11 17 2 0
BITMAP
3000
1000
1800
0C00
0000
0000
C180
C180
C180
C180
C180
C180
C180
C180
C380
FFE0
7CE0
ENDCHAR
STARTCHAR 00FA
ENCODING 250
SWIDTH 585 0
DWIDTH 13 0
BBX 11 17 2 0
BITMAP
0600
0C00
0C00
1800
0000
0000
C180
C180
C180
C180
C180
C180
C180
C180
C380
FFE0
7CE0
ENDCHAR
STARTCHAR 00FB
ENCODING 251
SWIDTH 585 0
DWIDTH 13 0
BBX 11 17 2 0
BITMAP
1C00
1400
3600
6300
0000
0000
C180
C180
C180
C180
C180
C180
C180
C180
C380
FFE0
7CE0
ENDCHAR
STARTCHAR 00FC
ENCODING 252
SWIDTH 585 0
DWIDTH 13 0
BBX 11 16 2 0
BITMAP
6300
6300
0000
0000
0000
C180
C180
C180
C180
C180
C180
C180
C180
C380
FFE0
7CE0
ENDCHAR
STARTCHAR 00FD
ENCODING 253
SWIDTH 585 0
DWIDTH 13 0
BBX 11 21 1 -4
BITMAP
0380
0300
0600
0600
0000
0000
E060
60C0
70C0
30C0
3180
1980
1B00
1F00
0F00
0E00
0E00
0C00
0C00
7800
7800
ENDCHAR
STARTCHAR 00FE
ENCODING 254
SWIDTH 585 0
DWIDTH 13 0
BBX 10 20 2 -4
BITMAP
C000
C000
C000
C000
C400
DF00
E180
E1C0
C0C0
C0C0
C0C0
C0C0
C0C0
E1C0
F380
DF00
C000
C000
C000
C000
ENDCHAR
STARTCHAR 00FF
ENCODING 255
SWIDTH 585 0
DWIDTH 13 0
BBX 11 20 1 -4
BITMAP
3180
3180
0000
0000
0000
E060
60C0
70C0
30C0
3180
1980
1B00
1F00
0F00
0E00
0E00
0C00
0C00
7800
7800
ENDCHAR
STARTCHAR 0152
ENCODING 140
SWIDTH 585 0
DWIDTH 13 0
BBX 12 15 1 0
BITMAP
3FF0
7FF0
E300
C300
C300
C300
C3E0
C3E0
C300
C300
C300
C300
E300
7FF0
3FF0
ENDCHAR
STARTCHAR 0153
ENCODING 156
SWIDTH 585 0
DWIDTH 13 0
BBX 13 12 0 0
BITMAP
1840
7DF0
6718
C318
C318
C3F8
C3F8
C300
C318
4718
67B0
3CF0
ENDCHAR
STARTCHAR 0160
ENCODING 138
SWIDTH 585 0
DWIDTH 13 0
BBX 11 20 1 0
BITMAP
3180
1B00
0E00
0000
0000
3F80
71C0
E060
E060
E000
7000
7F00
1FC0
01E0
0060
C060
C060
E0E0
7FE0
3F80
ENDCHAR
STARTCHAR 0161
ENCODING 154
SWIDTH 585 0
DWIDTH 13 0
BBX 10 17 2 0
BITMAP
6300
3200
1600
1C00
0000
0C00
7F00
C180
C180
E000
FC00
3F80
0380
C1C0
C1C0
E380
7F00
ENDCHAR
STARTCHAR 0178
ENCODING 159
SWIDTH 585 0
DWIDTH 13 0
BBX 13 19 0 0
BITMAP
18C0
18C0
0000
8000
6038
7030
3060
3860
18C0
1CC0
0F80
0780
0700
0300
0300
0300
0300
0300
0300
ENDCHAR
STARTCHAR 017D
ENCODING 142
SWIDTH 585 0
DWIDTH 13 0
BBX 11 20 1 0
BITMAP
3180
1B00
0E00
0000
0000
FFE0
FFE0
01C0
0180
0380
0700
0600
0E00
0C00
1C00
3800
3000
7000
FFE0
FFE0
ENDCHAR
STARTCHAR 017E
ENCODING 158
SWIDTH 585 0
DWIDTH 13 0
BBX 9 17 2 0
BITMAP
6300
3200
1600
1C00
0000
0000
7F80
0300
0700
0E00
0C00
1C00
1800
3000
7000
7F80
FF80
ENDCHAR
STARTCHAR 0192
ENCODING 131
SWIDTH 585 0
DWIDTH 13 0
BBX 10 20 1 -4
BITMAP
03C0
0740
0600
0600
0600
1FC0
0600
0E00
0C00
0C00
0C00
0C00
0C00
0C00
1C00
1800
1800
1800
F800
F000
ENDCHAR
STARTCHAR 02C6
ENCODING 136
SWIDTH 585 0
DWIDTH 13 0
BBX 7 4 3 13
BITMAP
38
3C
6C
C6
ENDCHAR
STARTCHAR 02DC
ENCODING 152
SWIDTH 585 0
DWIDTH 13 0
BBX 8 3 3 13
BITMAP
F3
9E
84
ENDCHAR
STARTCHAR 2013
ENCODING 150
SWIDTH 585 0
DWIDTH 13 0
BBX 9 2 2 5
BITMAP
FF80
FF80
ENDCHAR
STARTCHAR 2014
ENCODING 151
SWIDTH 585 0
DWIDTH 13 0
BBX 13 2 0 5
BITMAP
FFF8
FFF8
ENDCHAR
STARTCHAR 2018
ENCODING 145
SWIDTH 585 0
DWIDTH 13 0
BBX 3 6 5 9
BITMAP
60
40
C0
E0
E0
E0
ENDCHAR
STARTCHAR 2019
ENCODING 146
SWIDTH 585 0
DWIDTH 13 0
BBX 3 6 5 10
BITMAP
E0
E0
E0
60
60
C0
ENDCHAR
STARTCHAR 201A
ENCODING 130
SWIDTH 585 0
DWIDTH 13 0
BBX 3 6 5 -3
BITMAP
E0
E0
E0
60
60
C0
ENDCHAR
STARTCHAR 201C
ENCODING 147
SWIDTH 585 0
DWIDTH 13 0
BBX 7 6 3 9
BITMAP
66
44
C4
E6
E6
E6
ENDCHAR
STARTCHAR 201D
ENCODING 148
SWIDTH 585 0
DWIDTH 13 0
BBX 7 6 3 10
BITMAP
E6
E6
E6
62
46
CC
ENDCHAR
STARTCHAR 201E
ENCODING 132
SWIDTH 585 0
DWIDTH 13 0
BBX 7 6 3 -3
BITMAP
E6
E6
E6
62
46
CC
ENDCHAR
STARTCHAR 2020
ENCODING 134
SWIDTH 585 0
DWIDTH 13 0
BBX 11 19 1 -4
BITMAP
0600
0600
0400
0400
FFE0
E460
0400
0400
0400
0400
0400
0400
0600
0600
0600
0600
0600
0600
0600
ENDCHAR
STARTCHAR 2021
ENCODING 135
SWIDTH 585 0
DWIDTH 13 0
BBX 11 19 1 -4
BITMAP
0600
0600
0400
0400
FFE0
E460
0400
0600
0600
0600
0600
0400
0400
FFE0
FFE0
0400
0400
0600
0600
ENDCHAR
STARTCHAR 2022
ENCODING 149
SWIDTH 585 0
DWIDTH 13 0
BBX 7 7 3 4
BITMAP
38
7C
FE
FE
7E
7C
38
ENDCHAR
STARTCHAR 2026
ENCODING 133
SWIDTH 585 0
DWIDTH 13 0
BBX 11 3 1 0
BITMAP
EE60
EE60
EE60
ENDCHAR
STARTCHAR 2030
ENCODING 137
SWIDTH 585 0
DWIDTH 13 0
BBX 13 15 0 0
BITMAP
3C00
6400
4400
4400
4400
7C00
0000
FFF8
1860
7DF0
4510
4510
4510
6590
38E0
ENDCHAR
STARTCHAR 2039
ENCODING 139
SWIDTH 585 0
DWIDTH 13 0
BBX 4 7 5 4
BITMAP
30
60
C0
C0
C0
60
30
ENDCHAR
STARTCHAR 203A
ENCODING 155
SWIDTH 585 0
DWIDTH 13 0
BBX 4 7 5 4
BITMAP
C0
40
60
30
60
40
C0
ENDCHAR
STARTCHAR 20AC
ENCODING 128
SWIDTH 585 0
DWIDTH 13 0
BBX 11 15 1 0
BITMAP
07E0
0F20
1C00
3800
3000
FF80
FF80
3000
FF80
FF80
3800
1800
1C00
0FE0
03E0
ENDCHAR
STARTCHAR 2122
ENCODING 153
SWIDTH 585 0
DWIDTH 13 0
BBX 13 9 0 6
BITMAP
FB18
2318
2328
23A8
22A8
22A8
22C8
22C8
22C8
ENDCHAR
ENDFONT
