STARTFONT 2.1
COMMENT
COMMENT Converted from OpenType font "ChivoMono-Regular.ttf" by "otf2bdf 3.0".
COMMENT
FONT -FreeType-chivo mono cp1252-Medium-R-Normal--28-200-100-100-P-126-ISO10646-1
SIZE 20 100 100
FONTBOUNDINGBOX 17 32 0 -6
STARTPROPERTIES 19
FOUNDRY "FreeType"
FAMILY_NAME "chivo mono cp1252"
WEIGHT_NAME "Medium"
SLANT "R"
SETWIDTH_NAME "Normal"
ADD_STYLE_NAME ""
PIXEL_SIZE 28
POINT_SIZE 200
RESOLUTION_X 100
RESOLUTION_Y 100
SPACING "P"
AVERAGE_WIDTH 126
CHARSET_REGISTRY "ISO10646"
CHARSET_ENCODING "1"
FONT_ASCENT 26
FONT_DESCENT 7
COPYRIGHT "Copyright 2018 The Chivo Project Authors (https://github.com/Omnibus-Type/Chivo)"
_OTF_FONTFILE "ChivoMono-Regular.ttf"
_OTF_PSNAME "ChivoMono-Regular"
ENDPROPERTIES
CHARS 219
STARTCHAR 000D
ENCODING 13
SWIDTH 612 0
DWIDTH 17 0
BBX 0 0 0 0
BITMAP
ENDCHAR
STARTCHAR 0020
ENCODING 32
SWIDTH 612 0
DWIDTH 17 0
BBX 0 0 0 0
BITMAP
ENDCHAR
STARTCHAR 0021
ENCODING 33
SWIDTH 612 0
DWIDTH 17 0
BBX 3 19 7 0
BITMAP
E0
E0
E0
E0
E0
E0
E0
E0
E0
E0
E0
C0
C0
C0
00
00
E0
E0
E0
ENDCHAR
STARTCHAR 0022
ENCODING 34
SWIDTH 612 0
DWIDTH 17 0
BBX 7 8 5 11
BITMAP
CE
CE
CE
CE
CE
CC
C4
44
ENDCHAR
STARTCHAR 0023
ENCODING 35
SWIDTH 612 0
DWIDTH 17 0
BBX 16 19 0 0
BITMAP
0386
030E
030C
030C
070C
7FFF
7FFF
7FFF
0E18
0C18
0C38
0C30
FFFE
FFFE
1870
1860
1860
3860
30E0
ENDCHAR
STARTCHAR 0024
ENCODING 36
SWIDTH 612 0
DWIDTH 17 0
BBX 14 23 1 -2
BITMAP
0300
0300
07C0
1FF0
3EF8
701C
701C
701C
7000
7E00
3FE0
0FF8
00FC
001C
001C
E00C
E01C
703C
7FF8
1FF0
0300
0300
0300
ENDCHAR
STARTCHAR 0025
ENCODING 37
SWIDTH 612 0
DWIDTH 17 0
BBX 17 19 0 0
BITMAP
780380
EC0600
C60600
C60C00
C61800
C61000
C63000
C66000
7C0000
100E00
003F00
033100
063180
0C3180
083180
183180
303180
603F00
E01E00
ENDCHAR
STARTCHAR 0026
ENCODING 38
SWIDTH 612 0
DWIDTH 17 0
BBX 16 19 1 0
BITMAP
0F80
3F80
7800
7000
7018
7018
7018
3818
1FFF
1FFF
3C38
7038
6038
E038
E038
7038
7838
3FF8
0FF8
ENDCHAR
STARTCHAR 0027
ENCODING 39
SWIDTH 612 0
DWIDTH 17 0
BBX 3 8 7 11
BITMAP
E0
E0
E0
E0
C0
C0
40
40
ENDCHAR
STARTCHAR 0028
ENCODING 40
SWIDTH 612 0
DWIDTH 17 0
BBX 6 23 6 -4
BITMAP
0C
18
38
30
70
60
60
E0
E0
C0
C0
C0
C0
C0
E0
E0
60
60
70
30
30
18
0C
ENDCHAR
STARTCHAR 0029
ENCODING 41
SWIDTH 612 0
DWIDTH 17 0
BBX 6 23 5 -4
BITMAP
C0
60
60
30
30
38
18
18
18
1C
1C
1C
1C
1C
1C
18
18
38
30
30
60
60
C0
ENDCHAR
STARTCHAR 002A
ENCODING 42
SWIDTH 612 0
DWIDTH 17 0
BBX 11 11 3 8
BITMAP
0E00
0C00
0C00
C460
F7E0
3F00
0E00
1B00
3380
71C0
2100
ENDCHAR
STARTCHAR 002B
ENCODING 43
SWIDTH 612 0
DWIDTH 17 0
BBX 14 14 1 0
BITMAP
0380
0380
0380
0380
0380
0380
FFFC
FFFC
0380
0380
0380
0380
0380
0380
ENDCHAR
STARTCHAR 002C
ENCODING 44
SWIDTH 612 0
DWIDTH 17 0
BBX 3 8 7 -4
BITMAP
E0
E0
E0
E0
60
60
C0
C0
ENDCHAR
STARTCHAR 002D
ENCODING 45
SWIDTH 612 0
DWIDTH 17 0
BBX 7 3 5 6
BITMAP
FE
FE
FE
ENDCHAR
STARTCHAR 002E
ENCODING 46
SWIDTH 612 0
DWIDTH 17 0
BBX 3 3 7 0
BITMAP
E0
E0
E0
ENDCHAR
STARTCHAR 002F
ENCODING 47
SWIDTH 612 0
DWIDTH 17 0
BBX 16 24 0 -5
BITMAP
0003
0006
000E
000C
001C
0018
0038
0030
0060
00E0
00C0
01C0
0180
0380
0300
0600
0600
0C00
1C00
1800
3800
3000
7000
E000
ENDCHAR
STARTCHAR 0030
ENCODING 48
SWIDTH 612 0
DWIDTH 17 0
BBX 13 19 2 0
BITMAP
1FC0
3FE0
70F0
E070
E038
E038
E038
E038
E038
E038
E038
E038
E038
E038
E038
E070
70F0
3FE0
1FC0
ENDCHAR
STARTCHAR 0031
ENCODING 49
SWIDTH 612 0
DWIDTH 17 0
BBX 13 19 2 0
BITMAP
0700
FF00
FF00
0700
0700
0700
0700
0700
0700
0700
0700
0700
0700
0700
0700
0700
0700
FFF8
FFF8
ENDCHAR
STARTCHAR 0032
ENCODING 50
SWIDTH 612 0
DWIDTH 17 0
BBX 13 19 2 0
BITMAP
1FC0
3FE0
7070
E038
E038
C038
E038
0038
0070
00E0
03C0
0780
1F00
3C00
7800
E000
E000
FFF8
FFF8
ENDCHAR
STARTCHAR 0033
ENCODING 51
SWIDTH 612 0
DWIDTH 17 0
BBX 14 19 1 0
BITMAP
1FE0
3FF0
7878
7038
601C
0018
0038
0038
07F0
07E0
00F8
0038
001C
E01C
E01C
601C
7878
3FF0
1FE0
ENDCHAR
STARTCHAR 0034
ENCODING 52
SWIDTH 612 0
DWIDTH 17 0
BBX 14 19 1 0
BITMAP
0380
0700
0700
0E30
0E30
0C70
1C70
1870
3870
7070
6070
E070
FFFC
FFFC
0070
0070
0070
0070
0070
ENDCHAR
STARTCHAR 0035
ENCODING 53
SWIDTH 612 0
DWIDTH 17 0
BBX 13 19 2 0
BITMAP
7FF0
7FF0
7FF0
6000
6000
6000
6000
6FC0
7FE0
F070
6038
0038
0038
C038
E038
E078
70F0
3FE0
1FC0
ENDCHAR
STARTCHAR 0036
ENCODING 54
SWIDTH 612 0
DWIDTH 17 0
BBX 13 19 2 0
BITMAP
1FC0
3FE0
7870
F030
E038
E038
E000
E7C0
FFE0
F870
F038
E038
E038
E038
E038
E038
7870
3FE0
1FC0
ENDCHAR
STARTCHAR 0037
ENCODING 55
SWIDTH 612 0
DWIDTH 17 0
BBX 13 19 2 0
BITMAP
FFF8
FFF8
FFF0
0070
00E0
00C0
01C0
0380
0380
0700
0700
0E00
0E00
0E00
1C00
1C00
1C00
1C00
1C00
ENDCHAR
STARTCHAR 0038
ENCODING 56
SWIDTH 612 0
DWIDTH 17 0
BBX 13 19 2 0
BITMAP
1FC0
3FE0
7070
E070
E030
E030
E070
7070
3FE0
3FC0
78F0
E038
E038
E038
E038
E038
F070
7FF0
3FC0
ENDCHAR
STARTCHAR 0039
ENCODING 57
SWIDTH 612 0
DWIDTH 17 0
BBX 14 19 1 0
BITMAP
0FE0
3FF0
7878
7038
601C
E01C
E01C
601C
703C
787C
3FDC
0F9C
001C
601C
701C
7038
3878
3FF0
0FC0
ENDCHAR
STARTCHAR 003A
ENCODING 58
SWIDTH 612 0
DWIDTH 17 0
BBX 3 14 7 0
BITMAP
E0
E0
E0
00
00
00
00
00
00
00
00
E0
E0
E0
ENDCHAR
STARTCHAR 003B
ENCODING 59
SWIDTH 612 0
DWIDTH 17 0
BBX 3 18 7 -4
BITMAP
E0
E0
E0
00
00
00
00
00
00
00
E0
E0
E0
E0
60
60
C0
C0
ENDCHAR
STARTCHAR 003C
ENCODING 60
SWIDTH 612 0
DWIDTH 17 0
BBX 14 14 1 0
BITMAP
0004
003C
00FC
07E0
1F80
FC00
E000
F000
FC00
1F80
07F0
00FC
001C
0004
ENDCHAR
STARTCHAR 003D
ENCODING 61
SWIDTH 612 0
DWIDTH 17 0
BBX 14 8 1 3
BITMAP
FFFC
FFFC
0000
0000
0000
0000
FFFC
FFFC
ENDCHAR
STARTCHAR 003E
ENCODING 62
SWIDTH 612 0
DWIDTH 17 0
BBX 14 14 2 0
BITMAP
8000
E000
FC00
3F80
07E0
00FC
003C
003C
01F8
07E0
3F00
FC00
E000
8000
ENDCHAR
STARTCHAR 003F
ENCODING 63
SWIDTH 612 0
DWIDTH 17 0
BBX 12 19 2 0
BITMAP
1FC0
3FE0
70F0
6070
E070
E070
0070
0070
00E0
03C0
0380
0700
0700
0700
0000
0000
0700
0700
0700
ENDCHAR
STARTCHAR 0040
ENCODING 64
SWIDTH 612 0
DWIDTH 17 0
BBX 17 23 0 -4
BITMAP
07F000
1C1C00
380600
300600
600300
67E300
4F7100
CE3900
CC3980
C03980
C03980
C3F980
CFB980
CE3980
CC3900
CC3900
CC7B00
4FDF00
67DE00
600000
300000
1C0800
0FF800
ENDCHAR
STARTCHAR 0041
ENCODING 65
SWIDTH 612 0
DWIDTH 17 0
BBX 16 19 0 0
BITMAP
03C0
03E0
03E0
07E0
0770
0670
0E70
0E38
0C38
1C38
1C1C
1C1C
3FFC
3FFE
3FFE
700E
7006
7007
E007
ENDCHAR
STARTCHAR 0042
ENCODING 66
SWIDTH 612 0
DWIDTH 17 0
BBX 13 19 2 0
BITMAP
FFE0
FFF0
E078
E038
E038
E038
E038
E070
FFE0
FFE0
E0F0
E038
E038
E018
E038
E038
E0F8
FFF0
FFC0
ENDCHAR
STARTCHAR 0043
ENCODING 67
SWIDTH 612 0
DWIDTH 17 0
BBX 14 19 1 0
BITMAP
1FE0
3FF8
7838
701C
E01C
E01C
E00C
E000
E000
E000
E000
E000
E00C
E00C
E01C
701C
7838
3FF0
0FE0
ENDCHAR
STARTCHAR 0044
ENCODING 68
SWIDTH 612 0
DWIDTH 17 0
BBX 14 19 2 0
BITMAP
FFC0
FFF0
E0F8
E038
E01C
E01C
E01C
E01C
E01C
E01C
E01C
E01C
E01C
E01C
E01C
E038
E1F8
FFF0
FFC0
ENDCHAR
STARTCHAR 0045
ENCODING 69
SWIDTH 612 0
DWIDTH 17 0
BBX 13 19 2 0
BITMAP
FFF8
FFF8
E000
E000
E000
E000
E000
E000
FFF0
FFF0
E000
E000
E000
E000
E000
E000
E000
FFF8
FFF8
ENDCHAR
STARTCHAR 0046
ENCODING 70
SWIDTH 612 0
DWIDTH 17 0
BBX 12 19 2 0
BITMAP
FFF0
FFF0
E000
E000
E000
E000
E000
E000
FFE0
FFE0
FFE0
E000
E000
E000
E000
E000
E000
E000
E000
ENDCHAR
STARTCHAR 0047
ENCODING 71
SWIDTH 612 0
DWIDTH 17 0
BBX 15 19 1 0
BITMAP
1FE0
3FF8
7838
701C
E01C
E00C
E00C
E000
E000
E1FC
E1FC
E00C
E00C
E00C
E01C
701C
783C
3FF4
1FC6
ENDCHAR
STARTCHAR 0048
ENCODING 72
SWIDTH 612 0
DWIDTH 17 0
BBX 13 19 2 0
BITMAP
E038
E038
E038
E038
E038
E038
E038
E038
FFF8
FFF8
E038
E038
E038
E038
E038
E038
E038
E038
E038
ENDCHAR
STARTCHAR 0049
ENCODING 73
SWIDTH 612 0
DWIDTH 17 0
BBX 11 19 3 0
BITMAP
FFE0
FFE0
0E00
0E00
0E00
0E00
0E00
0E00
0E00
0E00
0E00
0E00
0E00
0E00
0E00
0E00
0E00
FFE0
FFE0
ENDCHAR
STARTCHAR 004A
ENCODING 74
SWIDTH 612 0
DWIDTH 17 0
BBX 11 19 3 0
BITMAP
00E0
00E0
00E0
00E0
00E0
00E0
00E0
00E0
00E0
00E0
00E0
00E0
00E0
C0E0
C0E0
E0E0
E1E0
7FC0
3F80
ENDCHAR
STARTCHAR 004B
ENCODING 75
SWIDTH 612 0
DWIDTH 17 0
BBX 14 19 2 0
BITMAP
E03C
E038
E070
E0E0
E1E0
E1C0
E380
E700
EF00
EF00
FF80
FB80
F1C0
E1E0
E0E0
E070
E078
E038
E01C
ENDCHAR
STARTCHAR 004C
ENCODING 76
SWIDTH 612 0
DWIDTH 17 0
BBX 12 19 3 0
BITMAP
E000
E000
E000
E000
E000
E000
E000
E000
E000
E000
E000
E000
E000
E000
E000
E000
E000
FFF0
FFF0
ENDCHAR
STARTCHAR 004D
ENCODING 77
SWIDTH 612 0
DWIDTH 17 0
BBX 13 19 2 0
BITMAP
F078
F078
F078
F0F8
F0F8
D8F8
D8F8
D8F8
D8B8
D9B8
D9B8
CDB8
CDB8
CD38
CF38
CF38
CF38
C738
C738
ENDCHAR
STARTCHAR 004E
ENCODING 78
SWIDTH 612 0
DWIDTH 17 0
BBX 13 19 2 0
BITMAP
E038
F038
F038
F838
F838
FC38
FC38
EE38
EE38
E738
E738
E3B8
E3B8
E1F8
E1F8
E0F8
E0F8
E078
E078
ENDCHAR
STARTCHAR 004F
ENCODING 79
SWIDTH 612 0
DWIDTH 17 0
BBX 15 19 1 0
BITMAP
1FE0
3FF8
7838
701C
E01C
E01C
E00E
E00E
E00E
E00E
E00E
E00E
E00E
E01C
E01C
701C
7878
3FF0
0FE0
ENDCHAR
STARTCHAR 0050
ENCODING 80
SWIDTH 612 0
DWIDTH 17 0
BBX 14 19 2 0
BITMAP
FFE0
FFF0
E078
E03C
E01C
E01C
E01C
E03C
E0F8
FFF0
FFE0
E000
E000
E000
E000
E000
E000
E000
E000
ENDCHAR
STARTCHAR 0051
ENCODING 81
SWIDTH 612 0
DWIDTH 17 0
BBX 15 23 1 -4
BITMAP
1FE0
3FF8
7838
701C
E01C
E01C
E00E
E00E
E00E
E00E
E00E
E00E
E00E
E01C
E01C
701C
7878
3FF0
0FE0
0380
01C2
01FE
007C
ENDCHAR
STARTCHAR 0052
ENCODING 82
SWIDTH 612 0
DWIDTH 17 0
BBX 15 19 2 0
BITMAP
FFE0
FFF0
E078
E038
E01C
E01C
E018
E038
E0F0
FFE0
FFF0
E078
E038
E038
E038
E038
E038
E01C
E01E
ENDCHAR
STARTCHAR 0053
ENCODING 83
SWIDTH 612 0
DWIDTH 17 0
BBX 15 19 1 0
BITMAP
1FE0
3FF8
783C
701C
601C
7000
7000
7E00
3FE0
0FF8
01FC
003C
001E
E00E
E00E
E01C
783C
3FF8
1FE0
ENDCHAR
STARTCHAR 0054
ENCODING 84
SWIDTH 612 0
DWIDTH 17 0
BBX 15 19 1 0
BITMAP
FFFE
FFFE
0380
0380
0380
0380
0380
0380
0380
0380
0380
0380
0380
0380
0380
0380
0380
0380
0380
ENDCHAR
STARTCHAR 0055
ENCODING 85
SWIDTH 612 0
DWIDTH 17 0
BBX 13 19 2 0
BITMAP
E038
E038
E038
E038
E038
E038
E038
E038
E038
E038
E038
E038
E038
E038
E038
E078
70F0
7FE0
1FC0
ENDCHAR
STARTCHAR 0056
ENCODING 86
SWIDTH 612 0
DWIDTH 17 0
BBX 16 19 0 0
BITMAP
F007
7007
7006
300E
380E
380E
181C
1C1C
1C1C
1C18
0E38
0E38
0E30
0770
0770
0760
03E0
03E0
03C0
ENDCHAR
STARTCHAR 0057
ENCODING 87
SWIDTH 612 0
DWIDTH 17 0
BBX 17 19 0 0
BITMAP
E1C380
E1C300
E1C300
61C300
61C300
73E700
736700
736700
736600
736600
326600
3E7E00
3E3E00
3E3E00
3E3C00
3E3C00
1E3C00
1C3C00
1C3C00
ENDCHAR
STARTCHAR 0058
ENCODING 88
SWIDTH 612 0
DWIDTH 17 0
BBX 16 19 0 0
BITMAP
780F
380E
3C1C
1C1C
0E38
0F70
0770
03E0
03E0
03E0
03E0
07F0
0E70
0E38
1C3C
381C
381E
700E
F007
ENDCHAR
STARTCHAR 0059
ENCODING 89
SWIDTH 612 0
DWIDTH 17 0
BBX 16 19 0 0
BITMAP
F007
780E
380E
3C1C
1C1C
1E38
0E38
0770
0770
03E0
03E0
01C0
01C0
01C0
01C0
01C0
01C0
01C0
01C0
ENDCHAR
STARTCHAR 005A
ENCODING 90
SWIDTH 612 0
DWIDTH 17 0
BBX 15 19 1 0
BITMAP
7FFC
7FFC
0038
0078
0070
00E0
01E0
01C0
03C0
0380
0700
0F00
0E00
1C00
3C00
3800
7000
FFFE
FFFE
ENDCHAR
STARTCHAR 005B
ENCODING 91
SWIDTH 612 0
DWIDTH 17 0
BBX 5 23 7 -4
BITMAP
F8
C0
C0
C0
C0
C0
C0
C0
C0
C0
C0
C0
C0
C0
C0
C0
C0
C0
C0
C0
C0
C0
F8
ENDCHAR
STARTCHAR 005C
ENCODING 92
SWIDTH 612 0
DWIDTH 17 0
BBX 16 24 0 -5
BITMAP
E000
7000
3000
3800
1800
0C00
0C00
0600
0700
0300
0380
0180
00C0
00C0
0060
0070
0030
0038
0018
001C
000C
0006
0007
0003
ENDCHAR
STARTCHAR 005D
ENCODING 93
SWIDTH 612 0
DWIDTH 17 0
BBX 6 23 4 -4
BITMAP
FC
1C
1C
1C
1C
1C
1C
1C
1C
1C
1C
1C
1C
1C
1C
1C
1C
1C
1C
1C
1C
1C
FC
ENDCHAR
STARTCHAR 005E
ENCODING 94
SWIDTH 612 0
DWIDTH 17 0
BBX 14 14 1 0
BITMAP
0380
0780
07C0
0EC0
0CE0
0C60
1C60
1870
3830
3838
3018
7018
601C
E00C
ENDCHAR
STARTCHAR 005F
ENCODING 95
SWIDTH 612 0
DWIDTH 17 0
BBX 14 2 1 -4
BITMAP
FFFC
FFFC
ENDCHAR
STARTCHAR 0060
ENCODING 96
SWIDTH 612 0
DWIDTH 17 0
BBX 5 5 6 16
BITMAP
E0
60
70
30
18
ENDCHAR
STARTCHAR 0061
ENCODING 97
SWIDTH 612 0
DWIDTH 17 0
BBX 14 14 2 0
BITMAP
3FC0
7FE0
E070
E070
0070
0070
3FF0
7C70
E070
E070
E0F0
E0F0
FFFC
7F3C
ENDCHAR
STARTCHAR 0062
ENCODING 98
SWIDTH 612 0
DWIDTH 17 0
BBX 12 20 3 0
BITMAP
C000
C000
C000
C000
C000
C000
DFC0
FFE0
E0E0
E070
C070
C070
C070
C070
C070
E070
E070
F0E0
FFC0
DF80
ENDCHAR
STARTCHAR 0063
ENCODING 99
SWIDTH 612 0
DWIDTH 17 0
BBX 12 14 2 0
BITMAP
1FC0
3FE0
7070
E070
E030
E000
E000
E000
E030
E030
E070
7070
3FE0
1FC0
ENDCHAR
STARTCHAR 0064
ENCODING 100
SWIDTH 612 0
DWIDTH 17 0
BBX 12 20 2 0
BITMAP
0070
0070
0070
0070
0070
0070
3F70
7FF0
F0F0
E070
E070
C070
C070
C070
C070
E070
E070
F0F0
7FB0
3F30
ENDCHAR
STARTCHAR 0065
ENCODING 101
SWIDTH 612 0
DWIDTH 17 0
BBX 13 14 2 0
BITMAP
1FC0
3FE0
7070
E030
E038
E038
FFF8
E000
E000
E038
E030
7070
3FE0
1FC0
ENDCHAR
STARTCHAR 0066
ENCODING 102
SWIDTH 612 0
DWIDTH 17 0
BBX 13 20 2 0
BITMAP
01F8
07F8
0700
0E00
0E00
0E00
FFF8
FFF8
0E00
0E00
0E00
0E00
0E00
0E00
0E00
0E00
0E00
0E00
FFF8
FFF8
ENDCHAR
STARTCHAR 0067
ENCODING 103
SWIDTH 612 0
DWIDTH 17 0
BBX 15 22 1 -5
BITMAP
0006
000E
001C
1FF8
3C78
3838
3018
3018
3838
3C78
1FF0
3F00
7000
7000
7FE0
3FFC
7FFC
600E
E00E
E00E
7FFC
3FF8
ENDCHAR
STARTCHAR 0068
ENCODING 104
SWIDTH 612 0
DWIDTH 17 0
BBX 12 20 2 0
BITMAP
E000
E000
E000
E000
E000
E000
EFE0
FFF0
F070
F070
E030
E030
E030
E030
E030
E030
E030
E030
E030
E030
ENDCHAR
STARTCHAR 0069
ENCODING 105
SWIDTH 612 0
DWIDTH 17 0
BBX 12 20 3 0
BITMAP
0600
0600
0600
0000
0000
0000
FF00
FF00
0700
0700
0700
0700
0700
0700
0700
0700
0700
0700
FFF0
FFF0
ENDCHAR
STARTCHAR 006A
ENCODING 106
SWIDTH 612 0
DWIDTH 17 0
BBX 8 25 3 -5
BITMAP
06
06
06
00
00
00
FF
FF
07
07
07
07
07
07
07
07
07
07
07
07
07
06
8E
FE
FC
ENDCHAR
STARTCHAR 006B
ENCODING 107
SWIDTH 612 0
DWIDTH 17 0
BBX 13 20 2 0
BITMAP
E000
E000
E000
E000
E000
E008
E070
E0E0
E1E0
E3C0
E380
E700
EE00
FF00
FF80
F3C0
E1C0
E0E0
E070
E078
ENDCHAR
STARTCHAR 006C
ENCODING 108
SWIDTH 612 0
DWIDTH 17 0
BBX 13 20 2 0
BITMAP
FF00
FF00
0700
0700
0700
0700
0700
0700
0700
0700
0700
0700
0700
0700
0700
0700
0700
0700
FFF8
FFF8
ENDCHAR
STARTCHAR 006D
ENCODING 109
SWIDTH 612 0
DWIDTH 17 0
BBX 14 14 1 0
BITMAP
DE78
FFFC
E38C
E38C
E38C
E38C
E38C
E38C
E38C
E38C
E38C
E38C
E38C
E38C
ENDCHAR
STARTCHAR 006E
ENCODING 110
SWIDTH 612 0
DWIDTH 17 0
BBX 12 14 2 0
BITMAP
EFE0
FFF0
F070
F070
E030
E030
E030
E030
E030
E030
E030
E030
E030
E030
ENDCHAR
STARTCHAR 006F
ENCODING 111
SWIDTH 612 0
DWIDTH 17 0
BBX 13 14 2 0
BITMAP
1FC0
7FE0
7070
E070
E038
E038
E038
E038
E038
E038
E070
7070
3FE0
1FC0
ENDCHAR
STARTCHAR 0070
ENCODING 112
SWIDTH 612 0
DWIDTH 17 0
BBX 12 19 3 -5
BITMAP
DFC0
FFE0
E0E0
E070
C070
C070
C070
C070
C070
E070
E070
F0E0
FFC0
DF80
C000
C000
C000
C000
C000
ENDCHAR
STARTCHAR 0071
ENCODING 113
SWIDTH 612 0
DWIDTH 17 0
BBX 12 19 2 -5
BITMAP
3F30
7FB0
E0F0
E070
E070
C070
C070
C070
C070
E070
E070
F0F0
7FF0
3F70
0070
0070
0070
0070
0070
ENDCHAR
STARTCHAR 0072
ENCODING 114
SWIDTH 612 0
DWIDTH 17 0
BBX 15 14 1 0
BITMAP
FDF8
FFFC
0F1C
0E0E
0E0E
0E00
0E00
0E00
0E00
0E00
0E00
0E00
FFF8
FFF8
ENDCHAR
STARTCHAR 0073
ENCODING 115
SWIDTH 612 0
DWIDTH 17 0
BBX 13 14 2 0
BITMAP
3FC0
7DE0
6070
E070
7000
7E00
3FC0
0FF0
0070
0038
E038
E070
7FF0
3FC0
ENDCHAR
STARTCHAR 0074
ENCODING 116
SWIDTH 612 0
DWIDTH 17 0
BBX 14 19 1 0
BITMAP
0600
0600
0600
0600
0600
FFFC
FFFC
0E00
0E00
0E00
0E00
0E00
0E00
0E00
0E00
0600
0704
07FC
03FC
ENDCHAR
STARTCHAR 0075
ENCODING 117
SWIDTH 612 0
DWIDTH 17 0
BBX 14 14 2 0
BITMAP
E070
E070
E070
E070
E070
E070
E070
E070
E070
E070
E070
F0F0
7FBC
3F3C
ENDCHAR
STARTCHAR 0076
ENCODING 118
SWIDTH 612 0
DWIDTH 17 0
BBX 14 14 1 0
BITMAP
F01C
701C
7018
3838
3838
1870
1C70
1C60
0EE0
0EE0
0EC0
07C0
0780
0380
ENDCHAR
STARTCHAR 0077
ENCODING 119
SWIDTH 612 0
DWIDTH 17 0
BBX 17 14 0 0
BITMAP
C1C380
E1C300
61C300
636300
636700
736600
336600
366600
363E00
3E3E00
3E3C00
1E3C00
1C3C00
1C1C00
ENDCHAR
STARTCHAR 0078
ENCODING 120
SWIDTH 612 0
DWIDTH 17 0
BBX 13 14 2 0
BITMAP
F078
7070
38E0
3DC0
1DC0
0F80
0700
0F80
1F80
1DC0
38E0
70E0
7070
E038
ENDCHAR
STARTCHAR 0079
ENCODING 121
SWIDTH 612 0
DWIDTH 17 0
BBX 14 19 1 -5
BITMAP
F01C
701C
3038
3838
3830
1C70
1C70
0C60
0EE0
0EC0
07C0
07C0
0380
0380
0300
0700
0600
7E00
7C00
ENDCHAR
STARTCHAR 007A
ENCODING 122
SWIDTH 612 0
DWIDTH 17 0
BBX 11 14 3 0
BITMAP
FFE0
FFC0
0380
0380
0700
0F00
0E00
1C00
1C00
3800
7800
7000
FFE0
FFE0
ENDCHAR
STARTCHAR 007B
ENCODING 123
SWIDTH 612 0
DWIDTH 17 0
BBX 7 23 5 -5
BITMAP
0E
1C
38
38
38
30
30
30
30
30
70
E0
F0
30
30
30
30
30
30
38
38
38
1E
ENDCHAR
STARTCHAR 007C
ENCODING 124
SWIDTH 612 0
DWIDTH 17 0
BBX 2 26 7 -6
BITMAP
C0
C0
C0
C0
C0
C0
C0
C0
C0
C0
C0
C0
C0
C0
C0
C0
C0
C0
C0
C0
C0
C0
C0
C0
C0
C0
ENDCHAR
STARTCHAR 007D
ENCODING 125
SWIDTH 612 0
DWIDTH 17 0
BBX 7 23 5 -5
BITMAP
E0
70
30
30
30
30
30
30
30
38
1C
06
1E
38
30
30
30
30
30
30
30
30
F0
ENDCHAR
STARTCHAR 007E
ENCODING 126
SWIDTH 612 0
DWIDTH 17 0
BBX 16 5 0 6
BITMAP
0001
3F01
7FFF
E0FE
8038
ENDCHAR
STARTCHAR 00A0
ENCODING 160
SWIDTH 612 0
DWIDTH 17 0
BBX 0 0 0 0
BITMAP
ENDCHAR
STARTCHAR 00A1
ENCODING 161
SWIDTH 612 0
DWIDTH 17 0
BBX 3 19 7 -5
BITMAP
E0
E0
E0
00
00
C0
C0
C0
C0
E0
E0
E0
E0
E0
E0
E0
E0
E0
E0
ENDCHAR
STARTCHAR 00A2
ENCODING 162
SWIDTH 612 0
DWIDTH 17 0
BBX 13 19 2 0
BITMAP
0700
0200
0F80
3FE0
78F0
7070
E030
E038
E000
E000
E000
E038
E030
7030
38F0
1FE0
0F80
0200
0700
ENDCHAR
STARTCHAR 00A3
ENCODING 163
SWIDTH 612 0
DWIDTH 17 0
BBX 15 19 1 0
BITMAP
07F0
0FF8
1E1C
1C0C
1C0C
1C02
1C00
1C00
FFE0
FFE0
FFE0
1800
1800
1800
1800
1800
1800
FFFC
FFFC
ENDCHAR
STARTCHAR 00A4
ENCODING 164
SWIDTH 612 0
DWIDTH 17 0
BBX 14 14 1 2
BITMAP
EFCC
7FFC
3838
701C
600C
600C
C00C
C00C
600C
601C
3038
7EFC
EFEC
4104
ENDCHAR
STARTCHAR 00A5
ENCODING 165
SWIDTH 612 0
DWIDTH 17 0
BBX 16 19 0 0
BITMAP
F007
780E
380E
3C1C
1C1C
1E38
0E38
7F7F
7F7F
03E0
03E0
7FFF
01C0
01C0
01C0
01C0
01C0
01C0
01C0
ENDCHAR
STARTCHAR 00A6
ENCODING 166
SWIDTH 612 0
DWIDTH 17 0
BBX 2 26 7 -6
BITMAP
C0
C0
C0
C0
C0
C0
C0
C0
C0
C0
00
00
00
00
00
00
C0
C0
C0
C0
C0
C0
C0
C0
C0
C0
ENDCHAR
STARTCHAR 00A7
ENCODING 167
SWIDTH 612 0
DWIDTH 17 0
BBX 12 24 2 -5
BITMAP
1FC0
7FE0
7070
6030
6000
7000
7C00
1F00
3FC0
61E0
E070
E030
E030
7030
3E70
1FE0
07C0
01E0
0070
0030
6070
7070
3FE0
1FC0
ENDCHAR
STARTCHAR 00A8
ENCODING 168
SWIDTH 612 0
DWIDTH 17 0
BBX 9 3 4 17
BITMAP
E380
E380
E380
ENDCHAR
STARTCHAR 00A9
ENCODING 169
SWIDTH 612 0
DWIDTH 17 0
BBX 17 19 0 0
BITMAP
07F000
180800
300400
200200
47E300
4E3100
CC1900
8C1900
8C0100
8C0180
8C0100
8C1900
CC1900
463100
47E300
200200
300400
181800
07F000
ENDCHAR
STARTCHAR 00AA
ENCODING 170
SWIDTH 612 0
DWIDTH 17 0
BBX 9 9 4 10
BITMAP
7E00
E600
C300
1F00
7B00
C300
C700
FF80
2100
ENDCHAR
STARTCHAR 00AB
ENCODING 171
SWIDTH 612 0
DWIDTH 17 0
BBX 11 9 3 5
BITMAP
18E0
31C0
7180
E380
E700
E380
6180
31C0
38E0
ENDCHAR
STARTCHAR 00AC
ENCODING 172
SWIDTH 612 0
DWIDTH 17 0
BBX 14 8 1 5
BITMAP
FFFC
FFFC
FFFC
000C
000C
000C
000C
000C
ENDCHAR
STARTCHAR 00AD
ENCODING 173
SWIDTH 612 0
DWIDTH 17 0
BBX 7 3 5 6
BITMAP
FE
FE
FE
ENDCHAR
STARTCHAR 00AE
ENCODING 174
SWIDTH 612 0
DWIDTH 17 0
BBX 17 19 0 0
BITMAP
07F000
180800
300400
200200
4FF300
4C3100
CC1900
8C1900
8C3100
8FE180
8C3100
8C3100
CC1900
4C1900
4C1B00
200200
300400
181800
07F000
ENDCHAR
STARTCHAR 00AF
ENCODING 175
SWIDTH 612 0
DWIDTH 17 0
BBX 9 2 4 17
BITMAP
FF80
FF80
ENDCHAR
STARTCHAR 00B0
ENCODING 176
SWIDTH 612 0
DWIDTH 17 0
BBX 9 8 4 11
BITMAP
3E00
6700
C100
C180
C180
C300
7F00
3C00
ENDCHAR
STARTCHAR 00B1
ENCODING 177
SWIDTH 612 0
DWIDTH 17 0
BBX 14 14 1 0
BITMAP
0380
0380
0380
0380
FFFC
FFFC
0380
0380
0380
0380
0000
0000
FFFC
FFFC
ENDCHAR
STARTCHAR 00B2
ENCODING 178
SWIDTH 612 0
DWIDTH 17 0
BBX 7 10 5 12
BITMAP
7C
CE
86
86
0E
1C
30
60
C0
FE
ENDCHAR
STARTCHAR 00B3
ENCODING 179
SWIDTH 612 0
DWIDTH 17 0
BBX 8 11 4 11
BITMAP
3E
67
43
03
1E
1E
03
C3
63
7E
18
ENDCHAR
STARTCHAR 00B4
ENCODING 180
SWIDTH 612 0
DWIDTH 17 0
BBX 5 5 6 16
BITMAP
38
70
60
E0
C0
ENDCHAR
STARTCHAR 00B5
ENCODING 181
SWIDTH 612 0
DWIDTH 17 0
BBX 14 18 2 -4
BITMAP
E070
E070
E070
E070
E070
E070
E070
E070
E070
E070
E070
F0F0
FFBC
FF3C
E000
E000
E000
E000
ENDCHAR
STARTCHAR 00B6
ENCODING 182
SWIDTH 612 0
DWIDTH 17 0
BBX 13 24 1 -5
BITMAP
0FF8
3FF8
7E60
7E60
FE60
FE60
FE60
FE60
7E60
7E60
3E60
0E60
0260
0260
0260
0260
0260
0260
0260
0260
0260
0260
0260
0260
ENDCHAR
STARTCHAR 00B7
ENCODING 183
SWIDTH 612 0
DWIDTH 17 0
BBX 3 3 7 9
BITMAP
E0
E0
E0
ENDCHAR
STARTCHAR 00B8
ENCODING 184
SWIDTH 612 0
DWIDTH 17 0
BBX 6 5 5 -6
BITMAP
1C
0C
0C
FC
78
ENDCHAR
STARTCHAR 00B9
ENCODING 185
SWIDTH 612 0
DWIDTH 17 0
BBX 6 10 5 12
BITMAP
30
F0
30
30
30
30
30
30
30
FC
ENDCHAR
STARTCHAR 00BA
ENCODING 186
SWIDTH 612 0
DWIDTH 17 0
BBX 8 9 4 10
BITMAP
3E
63
C3
C3
C3
C3
63
3E
08
ENDCHAR
STARTCHAR 00BB
ENCODING 187
SWIDTH 612 0
DWIDTH 17 0
BBX 11 9 3 5
BITMAP
E300
6180
71C0
38C0
18E0
38C0
31C0
6180
E300
ENDCHAR
STARTCHAR 00BC
ENCODING 188
SWIDTH 612 0
DWIDTH 17 0
BBX 17 19 0 0
BITMAP
300380
F00600
100600
100C00
101800
101000
103000
106000
100000
FE0C00
001A00
031A00
063200
0C3200
086200
187F80
307F80
600200
E00200
ENDCHAR
STARTCHAR 00BD
ENCODING 189
SWIDTH 612 0
DWIDTH 17 0
BBX 17 19 0 0
BITMAP
300380
F00600
100600
100C00
101800
103000
102000
106000
100000
FE1F00
003300
036180
066180
0C0300
180700
180C00
303800
603000
C07F80
ENDCHAR
STARTCHAR 00BE
ENCODING 190
SWIDTH 612 0
DWIDTH 17 0
BBX 17 19 0 0
BITMAP
7C0380
E60600
C20600
060C00
3C1800
3E1000
023000
C36000
C60000
7E0C00
101A00
031A00
063200
0C3200
086200
187F80
307F80
600200
E00200
ENDCHAR
STARTCHAR 00BF
ENCODING 191
SWIDTH 612 0
DWIDTH 17 0
BBX 12 19 2 -5
BITMAP
0F00
0F00
0F00
0000
0000
0600
0600
0E00
0E00
3C00
7800
7000
E000
E030
E030
7070
70F0
3FE0
1F80
ENDCHAR
STARTCHAR 00C0
ENCODING 192
SWIDTH 612 0
DWIDTH 17 0
BBX 16 25 0 0
BITMAP
0E00
0700
0380
01C0
0000
0000
03C0
03E0
03E0
07E0
0770
0670
0E70
0E38
0C38
1C38
1C1C
1C1C
3FFC
3FFE
3FFE
700E
7006
7007
E007
ENDCHAR
STARTCHAR 00C1
ENCODING 193
SWIDTH 612 0
DWIDTH 17 0
BBX 16 25 0 0
BITMAP
0038
0070
00E0
01C0
0000
0000
03C0
03E0
03E0
07E0
0770
0670
0E70
0E38
0C38
1C38
1C1C
1C1C
3FFC
3FFE
3FFE
700E
7006
7007
E007
ENDCHAR
STARTCHAR 00C2
ENCODING 194
SWIDTH 612 0
DWIDTH 17 0
BBX 16 25 0 0
BITMAP
01C0
03E0
0670
0E38
0000
0000
03C0
03E0
03E0
07E0
0770
0670
0E70
0E38
0C38
1C38
1C1C
1C1C
3FFC
3FFE
3FFE
700E
7006
7007
E007
ENDCHAR
STARTCHAR 00C3
ENCODING 195
SWIDTH 612 0
DWIDTH 17 0
BBX 16 24 0 0
BITMAP
0F98
0FF8
1860
0000
0000
03C0
03E0
03E0
07E0
0770
0670
0E70
0E38
0C38
1C38
1C1C
1C1C
3FFC
3FFE
3FFE
700E
7006
7007
E007
ENDCHAR
STARTCHAR 00C4
ENCODING 196
SWIDTH 612 0
DWIDTH 17 0
BBX 16 24 0 0
BITMAP
0E38
0E38
0E38
0000
0000
03C0
03E0
03E0
07E0
0770
0670
0E70
0E38
0C38
1C38
1C1C
1C1C
3FFC
3FFE
3FFE
700E
7006
7007
E007
ENDCHAR
STARTCHAR 00C5
ENCODING 197
SWIDTH 612 0
DWIDTH 17 0
BBX 16 26 0 0
BITMAP
03C0
0260
0620
0260
03E0
0000
0000
03C0
03E0
03E0
07E0
0770
0670
0E70
0E38
0C38
1C38
1C1C
1C1C
3FFC
3FFE
3FFE
700E
7006
7007
E007
ENDCHAR
STARTCHAR 00C6
ENCODING 198
SWIDTH 612 0
DWIDTH 17 0
BBX 16 19 0 0
BITMAP
03FF
03FF
07E0
07E0
06E0
0EE0
0EE0
0CE0
1CFE
1CFE
1CE0
38E0
3FE0
3FE0
7FE0
70E0
70E0
E0FF
E0FF
ENDCHAR
STARTCHAR 00C7
ENCODING 199
SWIDTH 612 0
DWIDTH 17 0
BBX 14 25 1 -6
BITMAP
1FE0
3FF8
7838
701C
E01C
E01C
E00C
E000
E000
E000
E000
E000
E00C
E00C
E01C
701C
7838
3FF0
0FE0
0000
01C0
00C0
00C0
0FC0
0780
ENDCHAR
STARTCHAR 00C8
ENCODING 200
SWIDTH 612 0
DWIDTH 17 0
BBX 13 25 2 0
BITMAP
1C00
0C00
0E00
0700
0000
0000
FFF8
FFF8
E000
E000
E000
E000
E000
E000
FFF0
FFF0
E000
E000
E000
E000
E000
E000
E000
FFF8
FFF8
ENDCHAR
STARTCHAR 00C9
ENCODING 201
SWIDTH 612 0
DWIDTH 17 0
BBX 13 25 2 0
BITMAP
00E0
01C0
0180
0300
0000
0000
FFF8
FFF8
E000
E000
E000
E000
E000
E000
FFF0
FFF0
E000
E000
E000
E000
E000
E000
E000
FFF8
FFF8
ENDCHAR
STARTCHAR 00CA
ENCODING 202
SWIDTH 612 0
DWIDTH 17 0
BBX 13 25 2 0
BITMAP
0700
0F80
1CC0
3860
0000
0000
FFF8
FFF8
E000
E000
E000
E000
E000
E000
FFF0
FFF0
E000
E000
E000
E000
E000
E000
E000
FFF8
FFF8
ENDCHAR
STARTCHAR 00CB
ENCODING 203
SWIDTH 612 0
DWIDTH 17 0
BBX 13 24 2 0
BITMAP
3860
3860
3860
0000
0000
FFF8
FFF8
E000
E000
E000
E000
E000
E000
FFF0
FFF0
E000
E000
E000
E000
E000
E000
E000
FFF8
FFF8
ENDCHAR
STARTCHAR 00CC
ENCODING 204
SWIDTH 612 0
DWIDTH 17 0
BBX 11 25 3 0
BITMAP
7000
3800
1C00
0E00
0000
0000
FFE0
FFE0
0E00
0E00
0E00
0E00
0E00
0E00
0E00
0E00
0E00
0E00
0E00
0E00
0E00
0E00
0E00
FFE0
FFE0
ENDCHAR
STARTCHAR 00CD
ENCODING 205
SWIDTH 612 0
DWIDTH 17 0
BBX 11 25 3 0
BITMAP
01C0
0380
0700
0E00
0000
0000
FFE0
FFE0
0E00
0E00
0E00
0E00
0E00
0E00
0E00
0E00
0E00
0E00
0E00
0E00
0E00
0E00
0E00
FFE0
FFE0
ENDCHAR
STARTCHAR 00CE
ENCODING 206
SWIDTH 612 0
DWIDTH 17 0
BBX 11 25 3 0
BITMAP
0E00
1F00
3380
71C0
0000
0000
FFE0
FFE0
0E00
0E00
0E00
0E00
0E00
0E00
0E00
0E00
0E00
0E00
0E00
0E00
0E00
0E00
0E00
FFE0
FFE0
ENDCHAR
STARTCHAR 00CF
ENCODING 207
SWIDTH 612 0
DWIDTH 17 0
BBX 11 24 3 0
BITMAP
71C0
71C0
71C0
0000
0000
FFE0
FFE0
0E00
0E00
0E00
0E00
0E00
0E00
0E00
0E00
0E00
0E00
0E00
0E00
0E00
0E00
0E00
FFE0
FFE0
ENDCHAR
STARTCHAR 00D0
ENCODING 208
SWIDTH 612 0
DWIDTH 17 0
BBX 16 19 0 0
BITMAP
3FF0
3FFC
383E
380E
3807
3807
3807
3807
FFC7
FFC7
3807
3807
3807
3807
3807
380E
387E
3FFC
3FF0
ENDCHAR
STARTCHAR 00D1
ENCODING 209
SWIDTH 612 0
DWIDTH 17 0
BBX 13 24 2 0
BITMAP
3E60
3FE0
6180
0000
0000
E038
F038
F038
F838
F838
FC38
FC38
EE38
EE38
E738
E738
E3B8
E3B8
E1F8
E1F8
E0F8
E0F8
E078
E078
ENDCHAR
STARTCHAR 00D2
ENCODING 210
SWIDTH 612 0
DWIDTH 17 0
BBX 15 25 1 0
BITMAP
1C00
0E00
0700
0380
0000
0000
1FE0
3FF8
7838
701C
E01C
E01C
E00E
E00E
E00E
E00E
E00E
E00E
E00E
E01C
E01C
701C
7878
3FF0
0FE0
ENDCHAR
STARTCHAR 00D3
ENCODING 211
SWIDTH 612 0
DWIDTH 17 0
BBX 15 25 1 0
BITMAP
0070
00E0
01C0
0380
0000
0000
1FE0
3FF8
7838
701C
E01C
E01C
E00E
E00E
E00E
E00E
E00E
E00E
E00E
E01C
E01C
701C
7878
3FF0
0FE0
ENDCHAR
STARTCHAR 00D4
ENCODING 212
SWIDTH 612 0
DWIDTH 17 0
BBX 15 25 1 0
BITMAP
0380
07C0
0CE0
1C70
0000
0000
1FE0
3FF8
7838
701C
E01C
E01C
E00E
E00E
E00E
E00E
E00E
E00E
E00E
E01C
E01C
701C
7878
3FF0
0FE0
ENDCHAR
STARTCHAR 00D5
ENCODING 213
SWIDTH 612 0
DWIDTH 17 0
BBX 15 24 1 0
BITMAP
1F30
1FF0
30C0
0000
0000
1FE0
3FF8
7838
701C
E01C
E01C
E00E
E00E
E00E
E00E
E00E
E00E
E00E
E01C
E01C
701C
7878
3FF0
0FE0
ENDCHAR
STARTCHAR 00D6
ENCODING 214
SWIDTH 612 0
DWIDTH 17 0
BBX 15 24 1 0
BITMAP
1C70
1C70
1C70
0000
0000
1FE0
3FF8
7838
701C
E01C
E01C
E00E
E00E
E00E
E00E
E00E
E00E
E00E
E01C
E01C
701C
7878
3FF0
0FE0
ENDCHAR
STARTCHAR 00D7
ENCODING 215
SWIDTH 612 0
DWIDTH 17 0
BBX 11 12 3 1
BITMAP
4040
E0E0
F1C0
7B80
3F00
1E00
1F00
3F80
73C0
E1E0
C0E0
4040
ENDCHAR
STARTCHAR 00D8
ENCODING 216
SWIDTH 612 0
DWIDTH 17 0
BBX 15 23 1 -2
BITMAP
0006
000C
1FEC
3FF8
7838
703C
E07C
E07C
E0CE
E08E
E18E
E30E
E30E
E60E
E40E
EC1C
F81C
781C
7878
3FF0
6FE0
C000
C000
ENDCHAR
STARTCHAR 00D9
ENCODING 217
SWIDTH 612 0
DWIDTH 17 0
BBX 13 25 2 0
BITMAP
3800
1C00
0E00
0700
0000
0000
E038
E038
E038
E038
E038
E038
E038
E038
E038
E038
E038
E038
E038
E038
E038
E078
70F0
7FE0
1FC0
ENDCHAR
STARTCHAR 00DA
ENCODING 218
SWIDTH 612 0
DWIDTH 17 0
BBX 13 25 2 0
BITMAP
00E0
01C0
0380
0700
0000
0000
E038
E038
E038
E038
E038
E038
E038
E038
E038
E038
E038
E038
E038
E038
E038
E078
70F0
7FE0
1FC0
ENDCHAR
STARTCHAR 00DB
ENCODING 219
SWIDTH 612 0
DWIDTH 17 0
BBX 13 25 2 0
BITMAP
0700
0F80
19C0
38E0
0000
0000
E038
E038
E038
E038
E038
E038
E038
E038
E038
E038
E038
E038
E038
E038
E038
E078
70F0
7FE0
1FC0
ENDCHAR
STARTCHAR 00DC
ENCODING 220
SWIDTH 612 0
DWIDTH 17 0
BBX 13 24 2 0
BITMAP
38E0
38E0
38E0
0000
0000
E038
E038
E038
E038
E038
E038
E038
E038
E038
E038
E038
E038
E038
E038
E038
E078
70F0
7FE0
1FC0
ENDCHAR
STARTCHAR 00DD
ENCODING 221
SWIDTH 612 0
DWIDTH 17 0
BBX 16 25 0 0
BITMAP
0038
0070
00E0
01C0
0000
8000
7007
780E
380E
3C1C
1C1C
1E38
0E38
0770
0770
03E0
03E0
01C0
01C0
01C0
01C0
01C0
01C0
01C0
01C0
ENDCHAR
STARTCHAR 00DE
ENCODING 222
SWIDTH 612 0
DWIDTH 17 0
BBX 14 19 2 0
BITMAP
E000
E000
E000
FFC0
FFF0
FFF8
E038
E01C
E01C
E01C
E01C
E038
FFF8
FFE0
E000
E000
E000
E000
E000
ENDCHAR
STARTCHAR 00DF
ENCODING 223
SWIDTH 612 0
DWIDTH 17 0
BBX 15 22 0 -2
BITMAP
07F0
0FF8
1E1C
1C0E
180E
380E
F80C
F81C
39F8
39F8
383C
380E
380E
3806
3806
380E
380E
383C
39F8
39F0
3800
3800
ENDCHAR
STARTCHAR 00E0
ENCODING 224
SWIDTH 612 0
DWIDTH 17 0
BBX 14 21 2 0
BITMAP
1C00
0C00
0C00
0600
0600
0000
0000
3FC0
7FE0
E070
E070
0070
0070
3FF0
7C70
E070
E070
E0F0
E0F0
FFFC
7F3C
ENDCHAR
STARTCHAR 00E1
ENCODING 225
SWIDTH 612 0
DWIDTH 17 0
BBX 14 21 2 0
BITMAP
0380
0300
0300
0600
0600
0000
0000
3FC0
7FE0
E070
E070
0070
0070
3FF0
7C70
E070
E070
E0F0
E0F0
FFFC
7F3C
ENDCHAR
STARTCHAR 00E2
ENCODING 226
SWIDTH 612 0
DWIDTH 17 0
BBX 14 21 2 0
BITMAP
0F00
0F00
1980
38C0
70E0
0000
0000
3FC0
7FE0
E070
E070
0070
0070
3FF0
7C70
E070
E070
E0F0
E0F0
FFFC
7F3C
ENDCHAR
STARTCHAR 00E3
ENCODING 227
SWIDTH 612 0
DWIDTH 17 0
BBX 14 20 2 0
BITMAP
3C60
7FE0
63C0
0000
0000
0000
3FC0
7FE0
E070
E070
0070
0070
3FF0
7C70
E070
E070
E0F0
E0F0
FFFC
7F3C
ENDCHAR
STARTCHAR 00E4
ENCODING 228
SWIDTH 612 0
DWIDTH 17 0
BBX 14 20 2 0
BITMAP
30C0
30C0
30C0
0000
0000
0000
3FC0
7FE0
E070
E070
0070
0070
3FF0
7C70
E070
E070
E0F0
E0F0
FFFC
7F3C
ENDCHAR
STARTCHAR 00E5
ENCODING 229
SWIDTH 612 0
DWIDTH 17 0
BBX 14 22 2 0
BITMAP
0700
0F80
1880
1980
0F80
0600
0000
0000
3FC0
7FE0
E070
E070
0070
0070
3FF0
7C70
E070
E070
E0F0
E0F0
FFFC
7F3C
ENDCHAR
STARTCHAR 00E6
ENCODING 230
SWIDTH 612 0
DWIDTH 17 0
BBX 16 14 0 0
BITMAP
3F7E
7F7E
61C3
61C3
01C3
01C3
1FFF
79C0
61C0
E1C3
E1C3
63C3
7F7E
3E7C
ENDCHAR
STARTCHAR 00E7
ENCODING 231
SWIDTH 612 0
DWIDTH 17 0
BBX 12 20 2 -6
BITMAP
1FC0
3FE0
7070
E070
E030
E000
E000
E000
E030
E030
E070
7070
3FE0
1FC0
0000
0380
0180
0180
1F80
0F00
ENDCHAR
STARTCHAR 00E8
ENCODING 232
SWIDTH 612 0
DWIDTH 17 0
BBX 13 21 2 0
BITMAP
1C00
0C00
0600
0600
0300
0000
0000
1FC0
3FE0
7070
E030
E038
E038
FFF8
E000
E000
E038
E030
7070
3FE0
1FC0
ENDCHAR
STARTCHAR 00E9
ENCODING 233
SWIDTH 612 0
DWIDTH 17 0
BBX 13 21 2 0
BITMAP
01C0
0380
0300
0300
0600
0000
0000
1FC0
3FE0
7070
E030
E038
E038
FFF8
E000
E000
E038
E030
7070
3FE0
1FC0
ENDCHAR
STARTCHAR 00EA
ENCODING 234
SWIDTH 612 0
DWIDTH 17 0
BBX 13 21 2 0
BITMAP
0700
0F80
1DC0
18C0
3060
0000
0000
1FC0
3FE0
7070
E030
E038
E038
FFF8
E000
E000
E038
E030
7070
3FE0
1FC0
ENDCHAR
STARTCHAR 00EB
ENCODING 235
SWIDTH 612 0
DWIDTH 17 0
BBX 13 20 2 0
BITMAP
38E0
38E0
38E0
0000
0000
0000
1FC0
3FE0
7070
E030
E038
E038
FFF8
E000
E000
E038
E030
7070
3FE0
1FC0
ENDCHAR
STARTCHAR 00EC
ENCODING 236
SWIDTH 612 0
DWIDTH 17 0
BBX 12 21 3 0
BITMAP
1800
1C00
0C00
0600
0600
0000
0000
FF00
FF00
0700
0700
0700
0700
0700
0700
0700
0700
0700
0700
FFF0
FFF0
ENDCHAR
STARTCHAR 00ED
ENCODING 237
SWIDTH 612 0
DWIDTH 17 0
BBX 12 21 3 0
BITMAP
0380
0300
0700
0600
0C00
0000
0000
FF00
FF00
0700
0700
0700
0700
0700
0700
0700
0700
0700
0700
FFF0
FFF0
ENDCHAR
STARTCHAR 00EE
ENCODING 238
SWIDTH 612 0
DWIDTH 17 0
BBX 12 21 3 0
BITMAP
0F00
0F00
1980
31C0
70E0
0000
0000
FF00
FF00
0700
0700
0700
0700
0700
0700
0700
0700
0700
0700
FFF0
FFF0
ENDCHAR
STARTCHAR 00EF
ENCODING 239
SWIDTH 612 0
DWIDTH 17 0
BBX 12 20 3 0
BITMAP
30C0
30C0
30C0
0000
0000
0000
FF00
FF00
0700
0700
0700
0700
0700
0700
0700
0700
0700
0700
FFF0
FFF0
ENDCHAR
STARTCHAR 00F0
ENCODING 240
SWIDTH 612 0
DWIDTH 17 0
BBX 13 20 2 0
BITMAP
7880
1F00
1E00
7780
03C0
01C0
3FE0
7FF0
7070
E030
E038
E038
E038
E038
E038
E038
E070
7070
3FE0
1FC0
ENDCHAR
STARTCHAR 00F1
ENCODING 241
SWIDTH 612 0
DWIDTH 17 0
BBX 12 20 2 0
BITMAP
3E20
3FE0
23C0
4000
0000
0000
EFE0
FFF0
F070
F070
E030
E030
E030
E030
E030
E030
E030
E030
E030
E030
ENDCHAR
STARTCHAR 00F2
ENCODING 242
SWIDTH 612 0
DWIDTH 17 0
BBX 13 21 2 0
BITMAP
1C00
0C00
0E00
0600
0300
0000
0000
1FC0
7FE0
7070
E070
E038
E038
E038
E038
E038
E038
E070
7070
3FE0
1FC0
ENDCHAR
STARTCHAR 00F3
ENCODING 243
SWIDTH 612 0
DWIDTH 17 0
BBX 13 21 2 0
BITMAP
01C0
0380
0300
0700
0600
0000
0000
1FC0
7FE0
7070
E070
E038
E038
E038
E038
E038
E038
E070
7070
3FE0
1FC0
ENDCHAR
STARTCHAR 00F4
ENCODING 244
SWIDTH 612 0
DWIDTH 17 0
BBX 13 21 2 0
BITMAP
0700
0F80
1D80
38C0
3060
0000
0000
1FC0
7FE0
7070
E070
E038
E038
E038
E038
E038
E038
E070
7070
3FE0
1FC0
ENDCHAR
STARTCHAR 00F5
ENCODING 245
SWIDTH 612 0
DWIDTH 17 0
BBX 13 20 2 0
BITMAP
3E20
3FE0
63C0
0000
0000
0000
1FC0
7FE0
7070
E070
E038
E038
E038
E038
E038
E038
E070
7070
3FE0
1FC0
ENDCHAR
STARTCHAR 00F6
ENCODING 246
SWIDTH 612 0
DWIDTH 17 0
BBX 13 20 2 0
BITMAP
38E0
38E0
38E0
0000
0000
0000
1FC0
7FE0
7070
E070
E038
E038
E038
E038
E038
E038
E070
7070
3FE0
1FC0
ENDCHAR
STARTCHAR 00F7
ENCODING 247
SWIDTH 612 0
DWIDTH 17 0
BBX 14 12 1 1
BITMAP
0380
0380
0380
0000
0000
FFFC
FFFC
0000
0000
0380
0380
0380
ENDCHAR
STARTCHAR 00F8
ENCODING 248
SWIDTH 612 0
DWIDTH 17 0
BBX 13 17 2 -1
BITMAP
0018
0030
1FE0
7FE0
70F0
E0F0
E1B8
E338
E238
E638
EC38
E838
F870
7070
3FE0
7FC0
C000
ENDCHAR
STARTCHAR 00F9
ENCODING 249
SWIDTH 612 0
DWIDTH 17 0
BBX 14 21 2 0
BITMAP
1C00
0C00
0C00
0600
0600
0000
0000
E070
E070
E070
E070
E070
E070
E070
E070
E070
E070
E070
F0F0
7FBC
3F3C
ENDCHAR
STARTCHAR 00FA
ENCODING 250
SWIDTH 612 0
DWIDTH 17 0
BBX 14 21 2 0
BITMAP
0380
0300
0300
0600
0600
0000
0000
E070
E070
E070
E070
E070
E070
E070
E070
E070
E070
E070
F0F0
7FBC
3F3C
ENDCHAR
STARTCHAR 00FB
ENCODING 251
SWIDTH 612 0
DWIDTH 17 0
BBX 14 21 2 0
BITMAP
0F00
0F00
1980
38C0
70E0
0000
0000
E070
E070
E070
E070
E070
E070
E070
E070
E070
E070
E070
F0F0
7FBC
3F3C
ENDCHAR
STARTCHAR 00FC
ENCODING 252
SWIDTH 612 0
DWIDTH 17 0
BBX 14 20 2 0
BITMAP
30C0
30C0
30C0
0000
0000
0000
E070
E070
E070
E070
E070
E070
E070
E070
E070
E070
E070
F0F0
7FBC
3F3C
ENDCHAR
STARTCHAR 00FD
ENCODING 253
SWIDTH 612 0
DWIDTH 17 0
BBX 14 26 1 -5
BITMAP
00E0
00C0
0180
0180
0300
0000
8000
701C
701C
3038
3838
3830
1C70
1C70
0C60
0EE0
0EC0
07C0
07C0
0380
0380
0300
0700
0600
7E00
7C00
ENDCHAR
STARTCHAR 00FE
ENCODING 254
SWIDTH 612 0
DWIDTH 17 0
BBX 12 25 3 -5
BITMAP
C000
C000
C000
C000
C000
C000
DFC0
FFE0
E0E0
E070
C070
C070
C070
C070
C070
C070
E070
F0E0
DFC0
CF80
C000
C000
C000
C000
C000
ENDCHAR
STARTCHAR 00FF
ENCODING 255
SWIDTH 612 0
DWIDTH 17 0
BBX 14 25 1 -5
BITMAP
1C70
1C70
1C70
0000
0000
8000
701C
701C
3038
3838
3830
1C70
1C70
0C60
0EE0
0EC0
07C0
07C0
0380
0380
0300
0700
0600
7E00
7C00
ENDCHAR
STARTCHAR 0152
ENCODING 140
SWIDTH 612 0
DWIDTH 17 0
BBX 15 19 1 0
BITMAP
1FFE
3FFE
78C0
60C0
E0C0
E0C0
E0C0
E0C0
E0FC
E0FC
E0FC
E0C0
E0C0
E0C0
E0C0
60C0
78C0
3FFE
1FFE
ENDCHAR
STARTCHAR 0153
ENCODING 156
SWIDTH 612 0
DWIDTH 17 0
BBX 16 14 0 0
BITMAP
3E7E
7F7E
61C3
61C3
E1C3
E1C3
E1FF
E1C0
E1C0
E1C3
61C3
63C3
7F7E
3E3E
ENDCHAR
STARTCHAR 0160
ENCODING 138
SWIDTH 612 0
DWIDTH 17 0
BBX 15 25 1 0
BITMAP
1830
0C60
06C0
0380
0000
0000
1FE0
3FF8
783C
701C
601C
7000
7000
7E00
3FE0
0FF8
01FC
003C
001E
E00E
E00E
E01C
783C
3FF8
1FE0
ENDCHAR
STARTCHAR 0161
ENCODING 154
SWIDTH 612 0
DWIDTH 17 0
BBX 13 21 2 0
BITMAP
30E0
18C0
1D80
0F00
0700
0000
0000
3FC0
7DE0
6070
E070
7000
7E00
3FC0
0FF0
0070
0038
E038
E070
7FF0
3FC0
ENDCHAR
STARTCHAR 0178
ENCODING 159
SWIDTH 612 0
DWIDTH 17 0
BBX 16 24 0 0
BITMAP
0E38
0E38
0E38
0000
8000
7007
780E
380E
3C1C
1C1C
1E38
0E38
0770
0770
03E0
03E0
01C0
01C0
01C0
01C0
01C0
01C0
01C0
01C0
ENDCHAR
STARTCHAR 017D
ENCODING 142
SWIDTH 612 0
DWIDTH 17 0
BBX 15 25 1 0
BITMAP
1830
0C60
06C0
0380
0000
0000
7FFC
7FFC
0038
0078
0070
00E0
01E0
01C0
03C0
0380
0700
0F00
0E00
1C00
3C00
3800
7000
FFFE
FFFE
ENDCHAR
STARTCHAR 017E
ENCODING 158
SWIDTH 612 0
DWIDTH 17 0
BBX 11 21 3 0
BITMAP
61C0
3180
3B00
1E00
0E00
0000
0000
FFE0
FFC0
0380
0380
0700
0F00
0E00
1C00
1C00
3800
7800
7000
FFE0
FFE0
ENDCHAR
STARTCHAR 0192
ENCODING 131
SWIDTH 612 0
DWIDTH 17 0
BBX 13 25 1 -5
BITMAP
00F8
01F8
01C0
0180
0380
0380
0FF0
0FF0
0380
0300
0300
0700
0700
0700
0700
0700
0600
0600
0E00
0E00
0E00
0E00
0E00
FC00
F800
ENDCHAR
STARTCHAR 02C6
ENCODING 136
SWIDTH 612 0
DWIDTH 17 0
BBX 9 5 4 16
BITMAP
1C00
3E00
7600
E300
C180
ENDCHAR
STARTCHAR 02DC
ENCODING 152
SWIDTH 612 0
DWIDTH 17 0
BBX 10 3 3 17
BITMAP
7C40
7FC0
C780
ENDCHAR
STARTCHAR 2013
ENCODING 150
SWIDTH 612 0
DWIDTH 17 0
BBX 11 3 3 6
BITMAP
FFE0
FFE0
FFE0
ENDCHAR
STARTCHAR 2014
ENCODING 151
SWIDTH 612 0
DWIDTH 17 0
BBX 17 3 0 6
BITMAP
FFFF80
FFFF80
FFFF80
ENDCHAR
STARTCHAR 2018
ENCODING 145
SWIDTH 612 0
DWIDTH 17 0
BBX 3 8 7 11
BITMAP
60
C0
C0
C0
E0
E0
E0
E0
ENDCHAR
STARTCHAR 2019
ENCODING 146
SWIDTH 612 0
DWIDTH 17 0
BBX 3 8 7 12
BITMAP
E0
E0
E0
E0
60
60
C0
C0
ENDCHAR
STARTCHAR 201A
ENCODING 130
SWIDTH 612 0
DWIDTH 17 0
BBX 3 8 7 -4
BITMAP
E0
E0
E0
E0
60
60
C0
C0
ENDCHAR
STARTCHAR 201C
ENCODING 147
SWIDTH 612 0
DWIDTH 17 0
BBX 9 8 4 11
BITMAP
6180
6300
C300
C600
E780
E780
E780
E780
ENDCHAR
STARTCHAR 201D
ENCODING 148
SWIDTH 612 0
DWIDTH 17 0
BBX 9 8 4 12
BITMAP
E780
E780
E780
E780
6180
6100
6300
C600
ENDCHAR
STARTCHAR 201E
ENCODING 132
SWIDTH 612 0
DWIDTH 17 0
BBX 9 8 4 -4
BITMAP
E780
E780
E780
E780
6180
6100
6300
C600
ENDCHAR
STARTCHAR 2020
ENCODING 134
SWIDTH 612 0
DWIDTH 17 0
BBX 13 24 2 -5
BITMAP
0700
0600
0600
0600
0600
FFF8
FFF8
0200
0600
0600
0600
0600
0600
0600
0600
0600
0600
0600
0600
0600
0700
0700
0700
0700
ENDCHAR
STARTCHAR 2021
ENCODING 135
SWIDTH 612 0
DWIDTH 17 0
BBX 13 24 2 -5
BITMAP
0700
0600
0600
0600
0600
FFF8
FFF8
0600
0600
0600
0600
0700
0700
0600
0600
0600
8208
FFF8
FFF8
0600
0600
0600
0600
0700
ENDCHAR
STARTCHAR 2022
ENCODING 149
SWIDTH 612 0
DWIDTH 17 0
BBX 9 9 4 5
BITMAP
1C00
7E00
7F00
FF00
FF80
FF00
7F00
7E00
1800
ENDCHAR
STARTCHAR 2026
ENCODING 133
SWIDTH 612 0
DWIDTH 17 0
BBX 14 3 1 0
BITMAP
E39C
E39C
E39C
ENDCHAR
STARTCHAR 2030
ENCODING 137
SWIDTH 612 0
DWIDTH 17 0
BBX 15 19 1 0
BITMAP
3C00
6E00
C600
C600
C600
C600
EE00
7C00
0000
FFFE
0000
7C78
EECC
C6C6
C686
C686
C6C4
7CFC
3878
ENDCHAR
STARTCHAR 2039
ENCODING 139
SWIDTH 612 0
DWIDTH 17 0
BBX 5 9 6 5
BITMAP
18
30
70
E0
E0
E0
60
30
38
ENDCHAR
STARTCHAR 203A
ENCODING 155
SWIDTH 612 0
DWIDTH 17 0
BBX 5 9 6 5
BITMAP
C0
60
70
30
38
30
70
60
C0
ENDCHAR
STARTCHAR 20AC
ENCODING 128
SWIDTH 612 0
DWIDTH 17 0
BBX 14 19 1 0
BITMAP
01FC
03FC
0780
0F00
1E00
1C00
1C00
FFE0
FFE0
3800
3800
FFE0
1C00
1C00
1E00
0F00
0780
03FC
01FC
ENDCHAR
STARTCHAR 2122
ENCODING 153
SWIDTH 612 0
DWIDTH 17 0
BBX 16 11 0 8
BITMAP
FDC3
FDC7
3145
3145
3165
316D
312D
3129
3129
3139
3139
ENDCHAR
ENDFONT
