STARTFONT 2.1
COMMENT
COMMENT Converted from OpenType font "ChivoMono-Bold.ttf" by "otf2bdf 3.0".
COMMENT
FONT -FreeType-chivo mono-Bold-R-Normal--19-140-100-100-P-96-Windows-cp1252
SIZE 14 100 100
FONTBOUNDINGBOX 12 22 0 -4
STARTPROPERTIES 19
FOUNDRY "FreeType"
FAMILY_NAME "chivo mono"
WEIGHT_NAME "Bold"
SLANT "R"
SETWIDTH_NAME "Normal"
ADD_STYLE_NAME ""
PIXEL_SIZE 19
POINT_SIZE 140
RESOLUTION_X 100
RESOLUTION_Y 100
SPACING "P"
AVERAGE_WIDTH 96
CHARSET_REGISTRY "Windows"
CHARSET_ENCODING "cp1252"
FONT_ASCENT 17
FONT_DESCENT 4
COPYRIGHT "Copyright 2018 The Chivo Project Authors (https://github.com/Omnibus-Type/Chivo)"
_OTF_FONTFILE "ChivoMono-Bold.ttf"
_OTF_PSNAME "ChivoMono-Bold"
ENDPROPERTIES
CHARS 219
STARTCHAR 000D
ENCODING 13
SWIDTH 617 0
DWIDTH 12 0
BBX 0 0 0 0
BITMAP
ENDCHAR
STARTCHAR 0020
ENCODING 32
SWIDTH 617 0
DWIDTH 12 0
BBX 0 0 0 0
BITMAP
ENDCHAR
STARTCHAR 0021
ENCODING 33
SWIDTH 617 0
DWIDTH 12 0
BBX 4 13 4 0
BITMAP
F0
F0
E0
E0
E0
60
60
60
60
00
E0
E0
E0
ENDCHAR
STARTCHAR 0022
ENCODING 34
SWIDTH 617 0
DWIDTH 12 0
BBX 6 5 3 8
BITMAP
DC
DC
DC
CC
C8
ENDCHAR
STARTCHAR 0023
ENCODING 35
SWIDTH 617 0
DWIDTH 12 0
BBX 12 14 0 0
BITMAP
0C60
0CC0
0CC0
0CC0
7FF0
7FF0
1980
1980
1180
FFE0
FFE0
3300
3300
6300
ENDCHAR
STARTCHAR 0024
ENCODING 36
SWIDTH 617 0
DWIDTH 12 0
BBX 10 16 1 -1
BITMAP
0C00
0C00
3F00
7F80
E3C0
E1C0
F000
7F00
3F80
07C0
C1C0
E1C0
FFC0
7F80
1C00
0C00
ENDCHAR
STARTCHAR 0025
ENCODING 37
SWIDTH 617 0
DWIDTH 12 0
BBX 12 13 0 0
BITMAP
7870
D840
D8C0
D980
DB00
F800
00C0
05E0
1930
1130
3130
6120
C1E0
ENDCHAR
STARTCHAR 0026
ENCODING 38
SWIDTH 617 0
DWIDTH 12 0
BBX 12 14 0 0
BITMAP
0400
3E00
7E00
70C0
70C0
70C0
3FF0
3FF0
79C0
71C0
F1C0
71C0
7FC0
1FC0
ENDCHAR
STARTCHAR 0027
ENCODING 39
SWIDTH 617 0
DWIDTH 12 0
BBX 2 5 5 8
BITMAP
C0
C0
C0
C0
C0
ENDCHAR
STARTCHAR 0028
ENCODING 40
SWIDTH 617 0
DWIDTH 12 0
BBX 5 16 4 -3
BITMAP
38
30
60
60
E0
E0
C0
C0
C0
C0
E0
E0
60
60
30
38
ENDCHAR
STARTCHAR 0029
ENCODING 41
SWIDTH 617 0
DWIDTH 12 0
BBX 5 16 3 -3
BITMAP
C0
60
70
30
30
38
38
38
38
38
38
30
30
60
60
C0
ENDCHAR
STARTCHAR 002A
ENCODING 42
SWIDTH 617 0
DWIDTH 12 0
BBX 8 8 2 5
BITMAP
18
18
DF
FF
38
6C
66
24
ENDCHAR
STARTCHAR 002B
ENCODING 43
SWIDTH 617 0
DWIDTH 12 0
BBX 10 10 1 0
BITMAP
0C00
0C00
0C00
0C00
FFC0
FFC0
0C00
0C00
0C00
0C00
ENDCHAR
STARTCHAR 002C
ENCODING 44
SWIDTH 617 0
DWIDTH 12 0
BBX 3 7 4 -4
BITMAP
E0
E0
E0
20
60
60
C0
ENDCHAR
STARTCHAR 002D
ENCODING 45
SWIDTH 617 0
DWIDTH 12 0
BBX 5 3 3 4
BITMAP
F8
F8
F8
ENDCHAR
STARTCHAR 002E
ENCODING 46
SWIDTH 617 0
DWIDTH 12 0
BBX 3 3 4 0
BITMAP
E0
E0
E0
ENDCHAR
STARTCHAR 002F
ENCODING 47
SWIDTH 617 0
DWIDTH 12 0
BBX 12 16 0 -3
BITMAP
0070
00E0
00C0
0180
0180
0300
0300
0600
0E00
0C00
1C00
1800
3000
3000
6000
E000
ENDCHAR
STARTCHAR 0030
ENCODING 48
SWIDTH 617 0
DWIDTH 12 0
BBX 10 14 1 0
BITMAP
0C00
3F00
7F80
E3C0
E1C0
E1C0
E1C0
E1C0
E1C0
E1C0
E1C0
F380
7F80
3F00
ENDCHAR
STARTCHAR 0031
ENCODING 49
SWIDTH 617 0
DWIDTH 12 0
BBX 10 14 1 0
BITMAP
0200
1E00
FE00
FE00
0E00
0E00
0E00
0E00
0E00
0E00
0E00
0E00
FFC0
FFC0
ENDCHAR
STARTCHAR 0032
ENCODING 50
SWIDTH 617 0
DWIDTH 12 0
BBX 10 14 1 0
BITMAP
0C00
3F00
7F80
E3C0
E1C0
01C0
0380
0780
1F00
3C00
7800
FFC0
FFC0
FFC0
ENDCHAR
STARTCHAR 0033
ENCODING 51
SWIDTH 617 0
DWIDTH 12 0
BBX 10 14 1 0
BITMAP
0C00
7F00
FF80
E3C0
E1C0
0380
1F00
1F00
0380
01C0
C1C0
E3C0
FF80
7F00
ENDCHAR
STARTCHAR 0034
ENCODING 52
SWIDTH 617 0
DWIDTH 12 0
BBX 10 14 1 0
BITMAP
1C00
1C00
3900
3900
3300
7300
6700
E700
C700
FFC0
FFC0
0700
0700
0700
ENDCHAR
STARTCHAR 0035
ENCODING 53
SWIDTH 617 0
DWIDTH 12 0
BBX 10 13 1 0
BITMAP
7F80
7F80
6000
6000
EE00
FF80
F780
01C0
01C0
E1C0
F3C0
7F80
3F00
ENDCHAR
STARTCHAR 0036
ENCODING 54
SWIDTH 617 0
DWIDTH 12 0
BBX 10 14 1 0
BITMAP
0C00
3F00
7F80
F1C0
E1C0
E000
FF80
FBC0
E1C0
E1C0
E1C0
F3C0
7F80
3F00
ENDCHAR
STARTCHAR 0037
ENCODING 55
SWIDTH 617 0
DWIDTH 12 0
BBX 10 13 1 0
BITMAP
FFC0
FFC0
0380
0300
0700
0E00
0E00
1C00
1C00
3C00
3800
3800
3800
ENDCHAR
STARTCHAR 0038
ENCODING 56
SWIDTH 617 0
DWIDTH 12 0
BBX 10 14 1 0
BITMAP
0C00
3F00
7F80
E380
E180
E380
7F80
7F00
F380
E1C0
E1C0
E3C0
7F80
3F00
ENDCHAR
STARTCHAR 0039
ENCODING 57
SWIDTH 617 0
DWIDTH 12 0
BBX 10 14 1 0
BITMAP
0800
7F00
FF80
E380
E1C0
E1C0
E3C0
FFC0
7DC0
01C0
E3C0
E380
7F80
3E00
ENDCHAR
STARTCHAR 003A
ENCODING 58
SWIDTH 617 0
DWIDTH 12 0
BBX 3 10 4 0
BITMAP
E0
E0
E0
00
00
00
00
E0
E0
E0
ENDCHAR
STARTCHAR 003B
ENCODING 59
SWIDTH 617 0
DWIDTH 12 0
BBX 3 14 4 -4
BITMAP
E0
E0
E0
00
00
00
00
E0
E0
E0
20
60
60
C0
ENDCHAR
STARTCHAR 003C
ENCODING 60
SWIDTH 617 0
DWIDTH 12 0
BBX 10 10 1 0
BITMAP
00C0
03C0
1F80
7C00
F000
E000
FC00
1F80
07C0
00C0
ENDCHAR
STARTCHAR 003D
ENCODING 61
SWIDTH 617 0
DWIDTH 12 0
BBX 10 6 1 2
BITMAP
FFC0
FFC0
0000
0000
FFC0
FFC0
ENDCHAR
STARTCHAR 003E
ENCODING 62
SWIDTH 617 0
DWIDTH 12 0
BBX 10 10 1 0
BITMAP
8000
F000
7E00
1F80
03C0
03C0
0F80
7E00
F000
C000
ENDCHAR
STARTCHAR 003F
ENCODING 63
SWIDTH 617 0
DWIDTH 12 0
BBX 10 14 1 0
BITMAP
0C00
3F00
7F80
E3C0
E3C0
0380
0780
0F00
0E00
0C00
0000
1E00
1E00
1E00
ENDCHAR
STARTCHAR 0040
ENCODING 64
SWIDTH 617 0
DWIDTH 12 0
BBX 12 17 0 -3
BITMAP
0600
1F80
2040
4020
4F20
DFA0
99B0
81B0
8FB0
9FB0
B9B0
B9A0
FFE0
5EE0
4000
2000
1F80
ENDCHAR
STARTCHAR 0041
ENCODING 65
SWIDTH 617 0
DWIDTH 12 0
BBX 12 13 0 0
BITMAP
0F00
1F00
1F80
1B80
3B80
3980
39C0
31C0
7FC0
7FE0
70E0
70E0
E0F0
ENDCHAR
STARTCHAR 0042
ENCODING 66
SWIDTH 617 0
DWIDTH 12 0
BBX 10 13 1 0
BITMAP
FF80
FFC0
E3C0
E1C0
E380
FF80
FF80
E3C0
E1C0
E1C0
E3C0
FF80
FF00
ENDCHAR
STARTCHAR 0043
ENCODING 67
SWIDTH 617 0
DWIDTH 12 0
BBX 11 14 0 0
BITMAP
0600
3F80
7FC0
71E0
F0E0
F0E0
F000
F000
F000
F0E0
70E0
79C0
3FC0
1F80
ENDCHAR
STARTCHAR 0044
ENCODING 68
SWIDTH 617 0
DWIDTH 12 0
BBX 11 13 1 0
BITMAP
FF00
FFC0
E3C0
E1C0
E1C0
E1E0
E1E0
E1E0
E1C0
E1C0
E7C0
FF80
FF00
ENDCHAR
STARTCHAR 0045
ENCODING 69
SWIDTH 617 0
DWIDTH 12 0
BBX 10 13 1 0
BITMAP
FFC0
FF80
F000
F000
F000
FF80
FF80
F000
F000
F000
FF80
FF80
FFC0
ENDCHAR
STARTCHAR 0046
ENCODING 70
SWIDTH 617 0
DWIDTH 12 0
BBX 9 13 1 0
BITMAP
FF80
FF80
F000
F000
F000
FF80
FF80
FF80
F000
F000
F000
F000
F000
ENDCHAR
STARTCHAR 0047
ENCODING 71
SWIDTH 617 0
DWIDTH 12 0
BBX 11 14 0 0
BITMAP
0600
3F80
7FC0
71E0
F0E0
F000
F000
F3E0
F3E0
F0E0
70E0
79E0
3FE0
1F60
ENDCHAR
STARTCHAR 0048
ENCODING 72
SWIDTH 617 0
DWIDTH 12 0
BBX 10 13 1 0
BITMAP
E1C0
E1C0
E1C0
E1C0
E1C0
FFC0
FFC0
E1C0
E1C0
E1C0
E1C0
E1C0
E1C0
ENDCHAR
STARTCHAR 0049
ENCODING 73
SWIDTH 617 0
DWIDTH 12 0
BBX 9 13 1 0
BITMAP
FF80
FF80
1C00
1C00
1C00
1C00
1C00
1C00
1C00
1C00
1C00
FF80
FF80
ENDCHAR
STARTCHAR 004A
ENCODING 74
SWIDTH 617 0
DWIDTH 12 0
BBX 9 13 1 0
BITMAP
0380
0380
0380
0380
0380
0380
0380
0380
0380
E380
7380
7F80
3F00
ENDCHAR
STARTCHAR 004B
ENCODING 75
SWIDTH 617 0
DWIDTH 12 0
BBX 11 13 1 0
BITMAP
E1C0
E380
E780
E700
EF00
EE00
FE00
FE00
FF00
E780
E380
E3C0
E1E0
ENDCHAR
STARTCHAR 004C
ENCODING 76
SWIDTH 617 0
DWIDTH 12 0
BBX 9 13 2 0
BITMAP
E000
E000
E000
E000
E000
E000
E000
E000
E000
E000
FF00
FF00
FF80
ENDCHAR
STARTCHAR 004D
ENCODING 77
SWIDTH 617 0
DWIDTH 12 0
BBX 10 13 1 0
BITMAP
F3C0
F3C0
F3C0
F3C0
F7C0
D7C0
DFC0
DFC0
DDC0
DDC0
DDC0
DDC0
CDC0
ENDCHAR
STARTCHAR 004E
ENCODING 78
SWIDTH 617 0
DWIDTH 12 0
BBX 10 13 1 0
BITMAP
E1C0
F1C0
F1C0
F9C0
F9C0
FDC0
FDC0
EFC0
EFC0
E7C0
E7C0
E3C0
E3C0
ENDCHAR
STARTCHAR 004F
ENCODING 79
SWIDTH 617 0
DWIDTH 12 0
BBX 11 14 0 0
BITMAP
0600
3F80
7FC0
71E0
F0E0
F0E0
F0E0
F0E0
F0E0
F0E0
70E0
79E0
3FC0
1F80
ENDCHAR
STARTCHAR 0050
ENCODING 80
SWIDTH 617 0
DWIDTH 12 0
BBX 10 13 1 0
BITMAP
FF80
FFC0
E1C0
E1C0
E1C0
FFC0
FFC0
FF00
E000
E000
E000
E000
E000
ENDCHAR
STARTCHAR 0051
ENCODING 81
SWIDTH 617 0
DWIDTH 12 0
BBX 12 17 0 -3
BITMAP
0600
3F80
7FC0
71E0
F0E0
F0E0
F0E0
F0E0
F0E0
F0E0
70E0
79E0
3FC0
1F80
0700
07F0
03E0
ENDCHAR
STARTCHAR 0052
ENCODING 82
SWIDTH 617 0
DWIDTH 12 0
BBX 11 13 1 0
BITMAP
FF80
FFC0
E1C0
E1C0
E1C0
FFC0
FF00
FF80
E3C0
E1C0
E1C0
E1C0
E1E0
ENDCHAR
STARTCHAR 0053
ENCODING 83
SWIDTH 617 0
DWIDTH 12 0
BBX 11 14 0 0
BITMAP
0600
3FC0
7FE0
70E0
70E0
7C00
7F80
3FC0
07E0
00E0
E0E0
79E0
7FC0
1F80
ENDCHAR
STARTCHAR 0054
ENCODING 84
SWIDTH 617 0
DWIDTH 12 0
BBX 10 13 1 0
BITMAP
FFC0
FFC0
1C00
1C00
1C00
1C00
1C00
1C00
1C00
1C00
1C00
1C00
1C00
ENDCHAR
STARTCHAR 0055
ENCODING 85
SWIDTH 617 0
DWIDTH 12 0
BBX 10 13 1 0
BITMAP
E1C0
E1C0
E1C0
E1C0
E1C0
E1C0
E1C0
E1C0
E1C0
E1C0
F3C0
7F80
3F00
ENDCHAR
STARTCHAR 0056
ENCODING 86
SWIDTH 617 0
DWIDTH 12 0
BBX 12 13 0 0
BITMAP
F0F0
70E0
70E0
70E0
79C0
39C0
39C0
3980
1B80
1F80
1F80
1F00
0F00
ENDCHAR
STARTCHAR 0057
ENCODING 87
SWIDTH 617 0
DWIDTH 12 0
BBX 12 13 0 0
BITMAP
E670
E660
E660
EF60
6F60
6F60
7FE0
7BE0
7BE0
7BE0
79C0
79C0
39C0
ENDCHAR
STARTCHAR 0058
ENCODING 88
SWIDTH 617 0
DWIDTH 12 0
BBX 12 13 0 0
BITMAP
F8E0
79C0
3DC0
3F80
1F80
0F00
1F00
1F80
3B80
3BC0
79C0
71E0
F0F0
ENDCHAR
STARTCHAR 0059
ENCODING 89
SWIDTH 617 0
DWIDTH 12 0
BBX 12 13 0 0
BITMAP
F0F0
70E0
79C0
39C0
3F80
1F80
1F00
0F00
0E00
0E00
0E00
0E00
0E00
ENDCHAR
STARTCHAR 005A
ENCODING 90
SWIDTH 617 0
DWIDTH 12 0
BBX 11 13 0 0
BITMAP
7FE0
7FE0
03C0
0380
0780
0F00
0F00
1E00
1C00
3C00
7FE0
7FE0
FFE0
ENDCHAR
STARTCHAR 005B
ENCODING 91
SWIDTH 617 0
DWIDTH 12 0
BBX 5 16 4 -3
BITMAP
F8
E0
E0
E0
E0
E0
E0
E0
E0
E0
E0
E0
E0
E0
E0
F8
ENDCHAR
STARTCHAR 005C
ENCODING 92
SWIDTH 617 0
DWIDTH 12 0
BBX 12 16 0 -3
BITMAP
E000
6000
3000
3000
1800
1C00
0C00
0E00
0600
0300
0300
0180
0180
00C0
00E0
0070
ENDCHAR
STARTCHAR 005D
ENCODING 93
SWIDTH 617 0
DWIDTH 12 0
BBX 4 16 3 -3
BITMAP
F0
30
30
30
30
30
30
30
30
30
30
30
30
30
30
F0
ENDCHAR
STARTCHAR 005E
ENCODING 94
SWIDTH 617 0
DWIDTH 12 0
BBX 10 10 1 0
BITMAP
1C00
1E00
1E00
3E00
3300
3300
6380
6180
E180
C1C0
ENDCHAR
STARTCHAR 005F
ENCODING 95
SWIDTH 617 0
DWIDTH 12 0
BBX 10 2 1 -3
BITMAP
FFC0
FFC0
ENDCHAR
STARTCHAR 0060
ENCODING 96
SWIDTH 617 0
DWIDTH 12 0
BBX 4 4 4 11
BITMAP
C0
E0
60
30
ENDCHAR
STARTCHAR 0061
ENCODING 97
SWIDTH 617 0
DWIDTH 12 0
BBX 10 10 1 0
BITMAP
3F00
7F80
E380
0380
3F80
FF80
E380
E380
FFC0
7DC0
ENDCHAR
STARTCHAR 0062
ENCODING 98
SWIDTH 617 0
DWIDTH 12 0
BBX 10 14 1 0
BITMAP
E000
E000
E000
E000
EF00
FF80
F3C0
E1C0
E1C0
E1C0
E1C0
F1C0
FF80
EF00
ENDCHAR
STARTCHAR 0063
ENCODING 99
SWIDTH 617 0
DWIDTH 12 0
BBX 9 10 1 0
BITMAP
3E00
7F80
E380
E180
E000
E000
E180
E380
7F80
3F00
ENDCHAR
STARTCHAR 0064
ENCODING 100
SWIDTH 617 0
DWIDTH 12 0
BBX 9 14 1 0
BITMAP
0380
0380
0380
0380
3F80
7F80
E380
E380
E380
E380
E380
E380
FF80
7D80
ENDCHAR
STARTCHAR 0065
ENCODING 101
SWIDTH 617 0
DWIDTH 12 0
BBX 10 10 1 0
BITMAP
3F00
7F80
F380
E1C0
FFC0
FFC0
E1C0
E1C0
7F80
3F00
ENDCHAR
STARTCHAR 0066
ENCODING 102
SWIDTH 617 0
DWIDTH 12 0
BBX 9 14 2 0
BITMAP
1F80
3F80
3800
3800
FF00
FF00
3800
3800
3800
3800
3800
3800
FF80
FF80
ENDCHAR
STARTCHAR 0067
ENCODING 103
SWIDTH 617 0
DWIDTH 12 0
BBX 10 16 1 -4
BITMAP
00C0
00C0
3F80
7F80
E180
E180
7F80
3F00
E000
E000
FFC0
FFC0
C0C0
C1C0
FFC0
7F00
ENDCHAR
STARTCHAR 0068
ENCODING 104
SWIDTH 617 0
DWIDTH 12 0
BBX 9 14 1 0
BITMAP
E000
E000
E000
E000
EF00
FF80
F380
E380
E380
E380
E380
E380
E380
E380
ENDCHAR
STARTCHAR 0069
ENCODING 105
SWIDTH 617 0
DWIDTH 12 0
BBX 9 14 2 0
BITMAP
1800
1800
0000
0000
FC00
FC00
1C00
1C00
1C00
1C00
1C00
1C00
FF80
FF80
ENDCHAR
STARTCHAR 006A
ENCODING 106
SWIDTH 617 0
DWIDTH 12 0
BBX 6 18 2 -4
BITMAP
1C
1C
00
00
FC
FC
1C
1C
1C
1C
1C
1C
1C
1C
1C
BC
F8
60
ENDCHAR
STARTCHAR 006B
ENCODING 107
SWIDTH 617 0
DWIDTH 12 0
BBX 10 14 1 0
BITMAP
E000
E000
E000
E000
E3C0
E380
E700
EE00
FE00
FE00
FF00
E780
E380
E3C0
ENDCHAR
STARTCHAR 006C
ENCODING 108
SWIDTH 617 0
DWIDTH 12 0
BBX 10 14 1 0
BITMAP
FE00
FE00
0E00
0E00
0E00
0E00
0E00
0E00
0E00
0E00
0E00
0E00
FFC0
FFC0
ENDCHAR
STARTCHAR 006D
ENCODING 109
SWIDTH 617 0
DWIDTH 12 0
BBX 10 10 1 0
BITMAP
FB80
FFC0
CDC0
CDC0
CDC0
CDC0
CDC0
CDC0
CDC0
CDC0
ENDCHAR
STARTCHAR 006E
ENCODING 110
SWIDTH 617 0
DWIDTH 12 0
BBX 9 10 1 0
BITMAP
EF00
FF80
F380
E380
E380
E380
E380
E380
E380
E380
ENDCHAR
STARTCHAR 006F
ENCODING 111
SWIDTH 617 0
DWIDTH 12 0
BBX 10 10 1 0
BITMAP
3F00
7F80
E380
E1C0
E1C0
E1C0
E1C0
E380
7F80
3F00
ENDCHAR
STARTCHAR 0070
ENCODING 112
SWIDTH 617 0
DWIDTH 12 0
BBX 10 14 1 -4
BITMAP
EF00
FF80
F3C0
E1C0
E1C0
E1C0
E1C0
F1C0
FF80
EF00
E000
E000
E000
E000
ENDCHAR
STARTCHAR 0071
ENCODING 113
SWIDTH 617 0
DWIDTH 12 0
BBX 9 14 1 -4
BITMAP
3D80
7F80
E380
E380
E380
E380
E380
E380
FF80
7F80
0380
0380
0380
0380
ENDCHAR
STARTCHAR 0072
ENCODING 114
SWIDTH 617 0
DWIDTH 12 0
BBX 10 10 1 0
BITMAP
FF80
FFC0
39C0
38C0
3800
3800
3800
3800
FF80
FF80
ENDCHAR
STARTCHAR 0073
ENCODING 115
SWIDTH 617 0
DWIDTH 12 0
BBX 10 10 1 0
BITMAP
3F00
7F80
E380
F000
7F00
3F80
03C0
E180
FF80
7F00
ENDCHAR
STARTCHAR 0074
ENCODING 116
SWIDTH 617 0
DWIDTH 12 0
BBX 10 13 1 0
BITMAP
1800
1800
1800
FFC0
FFC0
3800
3800
3800
3800
3800
1C40
1FC0
0FC0
ENDCHAR
STARTCHAR 0075
ENCODING 117
SWIDTH 617 0
DWIDTH 12 0
BBX 10 10 1 0
BITMAP
E380
E380
E380
E380
E380
E380
E380
F380
FFC0
7DC0
ENDCHAR
STARTCHAR 0076
ENCODING 118
SWIDTH 617 0
DWIDTH 12 0
BBX 10 10 1 0
BITMAP
E1C0
E1C0
F380
7380
7380
3F00
3F00
3E00
1E00
1E00
ENDCHAR
STARTCHAR 0077
ENCODING 119
SWIDTH 617 0
DWIDTH 12 0
BBX 12 10 0 0
BITMAP
C670
EE60
EF60
6F60
6F60
6FE0
7BE0
79C0
79C0
39C0
ENDCHAR
STARTCHAR 0078
ENCODING 120
SWIDTH 617 0
DWIDTH 12 0
BBX 11 10 0 0
BITMAP
79E0
39C0
3F80
1F80
0F00
1F00
1F80
3BC0
79C0
F1E0
ENDCHAR
STARTCHAR 0079
ENCODING 121
SWIDTH 617 0
DWIDTH 12 0
BBX 10 14 1 -4
BITMAP
E1C0
E180
7380
7380
7300
3F00
3F00
1E00
1E00
1C00
1C00
B800
F800
6000
ENDCHAR
STARTCHAR 007A
ENCODING 122
SWIDTH 617 0
DWIDTH 12 0
BBX 8 10 2 0
BITMAP
FF
FF
0E
1C
3C
38
78
70
FF
FF
ENDCHAR
STARTCHAR 007B
ENCODING 123
SWIDTH 617 0
DWIDTH 12 0
BBX 6 16 3 -3
BITMAP
3C
30
30
30
30
30
30
E0
E0
30
30
30
30
30
30
3C
ENDCHAR
STARTCHAR 007C
ENCODING 124
SWIDTH 617 0
DWIDTH 12 0
BBX 2 18 5 -4
BITMAP
C0
C0
C0
C0
C0
C0
C0
C0
C0
C0
C0
C0
C0
C0
C0
C0
C0
C0
ENDCHAR
STARTCHAR 007D
ENCODING 125
SWIDTH 617 0
DWIDTH 12 0
BBX 5 16 3 -3
BITMAP
F0
30
30
30
30
30
30
18
38
30
30
30
30
30
70
E0
ENDCHAR
STARTCHAR 007E
ENCODING 126
SWIDTH 617 0
DWIDTH 12 0
BBX 11 4 0 4
BITMAP
0020
7E20
FFE0
83C0
ENDCHAR
STARTCHAR 00A0
ENCODING 160
SWIDTH 617 0
DWIDTH 12 0
BBX 0 0 0 0
BITMAP
ENDCHAR
STARTCHAR 00A1
ENCODING 161
SWIDTH 617 0
DWIDTH 12 0
BBX 4 13 4 -3
BITMAP
E0
E0
E0
00
60
60
60
60
E0
E0
E0
F0
F0
ENDCHAR
STARTCHAR 00A2
ENCODING 162
SWIDTH 617 0
DWIDTH 12 0
BBX 10 13 1 0
BITMAP
0C00
1E00
7F80
7380
E1C0
E000
E000
E1C0
F180
7B80
3F00
0C00
0C00
ENDCHAR
STARTCHAR 00A3
ENCODING 163
SWIDTH 617 0
DWIDTH 12 0
BBX 11 14 0 0
BITMAP
0700
1FC0
3FE0
38E0
38E0
3800
FF00
FF00
FF00
3800
3800
3800
7FC0
7FC0
ENDCHAR
STARTCHAR 00A4
ENCODING 164
SWIDTH 617 0
DWIDTH 12 0
BBX 10 10 1 2
BITMAP
8080
FFC0
7380
E180
C0C0
C0C0
C0C0
E180
7F80
FEC0
ENDCHAR
STARTCHAR 00A5
ENCODING 165
SWIDTH 617 0
DWIDTH 12 0
BBX 12 13 0 0
BITMAP
F0F0
70E0
39C0
39C0
FFE0
FFE0
1F00
FFE0
FFE0
0E00
0E00
0E00
0E00
ENDCHAR
STARTCHAR 00A6
ENCODING 166
SWIDTH 617 0
DWIDTH 12 0
BBX 2 18 5 -4
BITMAP
C0
C0
C0
C0
C0
C0
C0
00
00
00
00
C0
C0
C0
C0
C0
C0
C0
ENDCHAR
STARTCHAR 00A7
ENCODING 167
SWIDTH 617 0
DWIDTH 12 0
BBX 10 18 1 -4
BITMAP
0800
7F00
7380
E180
7000
7C00
7F00
6F80
E380
E1C0
7980
3F00
0F80
0380
0180
7380
7F00
0C00
ENDCHAR
STARTCHAR 00A8
ENCODING 168
SWIDTH 617 0
DWIDTH 12 0
BBX 7 2 2 12
BITMAP
E6
E6
ENDCHAR
STARTCHAR 00A9
ENCODING 169
SWIDTH 617 0
DWIDTH 12 0
BBX 12 14 0 0
BITMAP
0400
3F80
6040
4E60
DFA0
99A0
99B0
9830
99A0
D9A0
5F20
4060
20C0
1F80
ENDCHAR
STARTCHAR 00AA
ENCODING 170
SWIDTH 617 0
DWIDTH 12 0
BBX 6 7 3 7
BITMAP
20
F8
08
F8
C8
FC
6C
ENDCHAR
STARTCHAR 00AB
ENCODING 171
SWIDTH 617 0
DWIDTH 12 0
BBX 9 7 1 3
BITMAP
3980
3300
7700
E600
7700
3300
3980
ENDCHAR
STARTCHAR 00AC
ENCODING 172
SWIDTH 617 0
DWIDTH 12 0
BBX 10 6 1 3
BITMAP
FFC0
FFC0
01C0
01C0
01C0
01C0
ENDCHAR
STARTCHAR 00AD
ENCODING 173
SWIDTH 617 0
DWIDTH 12 0
BBX 5 3 3 4
BITMAP
F8
F8
F8
ENDCHAR
STARTCHAR 00AE
ENCODING 174
SWIDTH 617 0
DWIDTH 12 0
BBX 12 14 0 0
BITMAP
0400
3F80
6040
5F60
DFA0
99A0
99B0
9F30
99A0
D9A0
59A0
4060
30C0
1F80
ENDCHAR
STARTCHAR 00AF
ENCODING 175
SWIDTH 617 0
DWIDTH 12 0
BBX 7 2 2 12
BITMAP
FE
FE
ENDCHAR
STARTCHAR 00B0
ENCODING 176
SWIDTH 617 0
DWIDTH 12 0
BBX 6 6 3 8
BITMAP
20
F8
CC
8C
CC
78
ENDCHAR
STARTCHAR 00B1
ENCODING 177
SWIDTH 617 0
DWIDTH 12 0
BBX 10 10 1 0
BITMAP
0C00
0C00
0C00
FFC0
FFC0
0C00
0C00
0000
FFC0
FFC0
ENDCHAR
STARTCHAR 00B2
ENCODING 178
SWIDTH 617 0
DWIDTH 12 0
BBX 6 8 3 8
BITMAP
30
F8
C8
18
38
60
FC
FC
ENDCHAR
STARTCHAR 00B3
ENCODING 179
SWIDTH 617 0
DWIDTH 12 0
BBX 6 8 3 8
BITMAP
30
F8
C8
18
38
0C
DC
78
ENDCHAR
STARTCHAR 00B4
ENCODING 180
SWIDTH 617 0
DWIDTH 12 0
BBX 4 4 4 11
BITMAP
70
60
C0
C0
ENDCHAR
STARTCHAR 00B5
ENCODING 181
SWIDTH 617 0
DWIDTH 12 0
BBX 10 13 1 -3
BITMAP
E380
E380
E380
E380
E380
E380
E380
F380
FFC0
FDC0
E000
E000
E000
ENDCHAR
STARTCHAR 00B6
ENCODING 182
SWIDTH 617 0
DWIDTH 12 0
BBX 9 16 1 -3
BITMAP
7F80
F900
F900
F900
F900
F900
7900
3900
0900
0900
0900
0900
0900
0900
0900
0900
ENDCHAR
STARTCHAR 00B7
ENCODING 183
SWIDTH 617 0
DWIDTH 12 0
BBX 3 3 4 6
BITMAP
E0
E0
E0
ENDCHAR
STARTCHAR 00B8
ENCODING 184
SWIDTH 617 0
DWIDTH 12 0
BBX 4 3 4 -4
BITMAP
70
10
F0
ENDCHAR
STARTCHAR 00B9
ENCODING 185
SWIDTH 617 0
DWIDTH 12 0
BBX 5 7 3 8
BITMAP
F0
30
30
30
30
F8
F8
ENDCHAR
STARTCHAR 00BA
ENCODING 186
SWIDTH 617 0
DWIDTH 12 0
BBX 6 7 3 7
BITMAP
30
F8
CC
CC
CC
F8
30
ENDCHAR
STARTCHAR 00BB
ENCODING 187
SWIDTH 617 0
DWIDTH 12 0
BBX 8 7 2 3
BITMAP
CC
E6
67
73
67
E6
CC
ENDCHAR
STARTCHAR 00BC
ENCODING 188
SWIDTH 617 0
DWIDTH 12 0
BBX 12 13 0 0
BITMAP
E070
2040
20C0
2180
2300
F800
F9A0
05A0
1960
1260
33F0
6060
C060
ENDCHAR
STARTCHAR 00BD
ENCODING 189
SWIDTH 617 0
DWIDTH 12 0
BBX 12 13 0 0
BITMAP
E070
2040
2080
2180
2300
F8C0
F9E0
0730
1830
1060
31C0
63F0
C3F0
ENDCHAR
STARTCHAR 00BE
ENCODING 190
SWIDTH 617 0
DWIDTH 12 0
BBX 12 14 0 0
BITMAP
3010
F860
C840
18C0
3980
0F00
DC00
79A0
05A0
1960
1260
33F0
6060
C060
ENDCHAR
STARTCHAR 00BF
ENCODING 191
SWIDTH 617 0
DWIDTH 12 0
BBX 10 14 1 -4
BITMAP
1C00
1C00
1C00
0000
1C00
1C00
3C00
7800
F000
E1C0
E380
7F80
7F00
0C00
ENDCHAR
STARTCHAR 00C0
ENCODING 192
SWIDTH 617 0
DWIDTH 12 0
BBX 12 17 0 0
BITMAP
1C00
0E00
0000
0000
0F00
1F00
1F80
1B80
3B80
3980
39C0
31C0
7FC0
7FE0
70E0
70E0
E0F0
ENDCHAR
STARTCHAR 00C1
ENCODING 193
SWIDTH 617 0
DWIDTH 12 0
BBX 12 17 0 0
BITMAP
0380
0700
0000
0000
0F00
1F00
1F80
1B80
3B80
3980
39C0
31C0
7FC0
7FE0
70E0
70E0
E0F0
ENDCHAR
STARTCHAR 00C2
ENCODING 194
SWIDTH 617 0
DWIDTH 12 0
BBX 12 17 0 0
BITMAP
0F00
1B80
2000
0000
0F00
1F00
1F80
1B80
3B80
3980
39C0
31C0
7FC0
7FE0
70E0
70E0
E0F0
ENDCHAR
STARTCHAR 00C3
ENCODING 195
SWIDTH 617 0
DWIDTH 12 0
BBX 12 17 0 0
BITMAP
1EC0
3F80
0000
0000
0F00
1F00
1F80
1B80
3B80
3980
39C0
31C0
7FC0
7FE0
70E0
70E0
E0F0
ENDCHAR
STARTCHAR 00C4
ENCODING 196
SWIDTH 617 0
DWIDTH 12 0
BBX 12 17 0 0
BITMAP
3980
3980
0000
0000
0F00
1F00
1F80
1B80
3B80
3980
39C0
31C0
7FC0
7FE0
70E0
70E0
E0F0
ENDCHAR
STARTCHAR 00C5
ENCODING 197
SWIDTH 617 0
DWIDTH 12 0
BBX 12 18 0 0
BITMAP
0F00
0900
0F00
0400
0000
0F00
1F00
1F80
1B80
3B80
3980
39C0
31C0
7FC0
7FE0
70E0
70E0
E0F0
ENDCHAR
STARTCHAR 00C6
ENCODING 198
SWIDTH 617 0
DWIDTH 12 0
BBX 12 13 0 0
BITMAP
1FF0
1FE0
1F00
3F00
3F00
3FE0
37E0
7700
7F00
7F00
77E0
E7E0
E7F0
ENDCHAR
STARTCHAR 00C7
ENCODING 199
SWIDTH 617 0
DWIDTH 12 0
BBX 11 18 0 -4
BITMAP
0600
3F80
7FC0
71E0
F0E0
F0E0
F000
F000
F000
F0E0
70E0
79C0
3FC0
1F80
0000
0700
0100
0F00
ENDCHAR
STARTCHAR 00C8
ENCODING 200
SWIDTH 617 0
DWIDTH 12 0
BBX 10 17 1 0
BITMAP
3800
1C00
0000
0000
FFC0
FF80
F000
F000
F000
FF80
FF80
F000
F000
F000
FF80
FF80
FFC0
ENDCHAR
STARTCHAR 00C9
ENCODING 201
SWIDTH 617 0
DWIDTH 12 0
BBX 10 17 1 0
BITMAP
0700
0E00
0000
0000
FFC0
FF80
F000
F000
F000
FF80
FF80
F000
F000
F000
FF80
FF80
FFC0
ENDCHAR
STARTCHAR 00CA
ENCODING 202
SWIDTH 617 0
DWIDTH 12 0
BBX 10 17 1 0
BITMAP
1E00
3300
4080
0000
FFC0
FF80
F000
F000
F000
FF80
FF80
F000
F000
F000
FF80
FF80
FFC0
ENDCHAR
STARTCHAR 00CB
ENCODING 203
SWIDTH 617 0
DWIDTH 12 0
BBX 10 17 1 0
BITMAP
7380
7380
0000
0000
FFC0
FF80
F000
F000
F000
FF80
FF80
F000
F000
F000
FF80
FF80
FFC0
ENDCHAR
STARTCHAR 00CC
ENCODING 204
SWIDTH 617 0
DWIDTH 12 0
BBX 9 17 1 0
BITMAP
3800
1C00
0000
0000
FF80
FF80
1C00
1C00
1C00
1C00
1C00
1C00
1C00
1C00
1C00
FF80
FF80
ENDCHAR
STARTCHAR 00CD
ENCODING 205
SWIDTH 617 0
DWIDTH 12 0
BBX 9 17 1 0
BITMAP
0700
0E00
0000
0000
FF80
FF80
1C00
1C00
1C00
1C00
1C00
1C00
1C00
1C00
1C00
FF80
FF80
ENDCHAR
STARTCHAR 00CE
ENCODING 206
SWIDTH 617 0
DWIDTH 12 0
BBX 9 17 1 0
BITMAP
1E00
3700
4000
0000
FF80
FF80
1C00
1C00
1C00
1C00
1C00
1C00
1C00
1C00
1C00
FF80
FF80
ENDCHAR
STARTCHAR 00CF
ENCODING 207
SWIDTH 617 0
DWIDTH 12 0
BBX 9 17 1 0
BITMAP
7300
7300
0000
0000
FF80
FF80
1C00
1C00
1C00
1C00
1C00
1C00
1C00
1C00
1C00
FF80
FF80
ENDCHAR
STARTCHAR 00D0
ENCODING 208
SWIDTH 617 0
DWIDTH 12 0
BBX 12 13 0 0
BITMAP
7F80
7FE0
71E0
70E0
70E0
FEF0
FEF0
70F0
70E0
70E0
73E0
7FC0
7F80
ENDCHAR
STARTCHAR 00D1
ENCODING 209
SWIDTH 617 0
DWIDTH 12 0
BBX 10 17 1 0
BITMAP
3D80
7F00
0000
0000
E1C0
F1C0
F1C0
F9C0
F9C0
FDC0
FDC0
EFC0
EFC0
E7C0
E7C0
E3C0
E3C0
ENDCHAR
STARTCHAR 00D2
ENCODING 210
SWIDTH 617 0
DWIDTH 12 0
BBX 11 17 0 0
BITMAP
1C00
0E00
0000
0600
3F80
7FC0
71E0
F0E0
F0E0
F0E0
F0E0
F0E0
F0E0
70E0
79E0
3FC0
1F80
ENDCHAR
STARTCHAR 00D3
ENCODING 211
SWIDTH 617 0
DWIDTH 12 0
BBX 11 17 0 0
BITMAP
0380
0700
0000
0600
3F80
7FC0
71E0
F0E0
F0E0
F0E0
F0E0
F0E0
F0E0
70E0
79E0
3FC0
1F80
ENDCHAR
STARTCHAR 00D4
ENCODING 212
SWIDTH 617 0
DWIDTH 12 0
BBX 11 17 0 0
BITMAP
0F00
1B80
2000
0600
3F80
7FC0
71E0
F0E0
F0E0
F0E0
F0E0
F0E0
F0E0
70E0
79E0
3FC0
1F80
ENDCHAR
STARTCHAR 00D5
ENCODING 213
SWIDTH 617 0
DWIDTH 12 0
BBX 11 17 0 0
BITMAP
1EC0
3F80
0000
0600
3F80
7FC0
71E0
F0E0
F0E0
F0E0
F0E0
F0E0
F0E0
70E0
79E0
3FC0
1F80
ENDCHAR
STARTCHAR 00D6
ENCODING 214
SWIDTH 617 0
DWIDTH 12 0
BBX 11 17 0 0
BITMAP
3980
3980
0000
0600
3F80
7FC0
71E0
F0E0
F0E0
F0E0
F0E0
F0E0
F0E0
70E0
79E0
3FC0
1F80
ENDCHAR
STARTCHAR 00D7
ENCODING 215
SWIDTH 617 0
DWIDTH 12 0
BBX 8 8 2 1
BITMAP
C2
E7
7E
3C
3C
7E
E7
C2
ENDCHAR
STARTCHAR 00D8
ENCODING 216
SWIDTH 617 0
DWIDTH 12 0
BBX 11 16 0 -1
BITMAP
0020
0660
3FC0
7FC0
71E0
F1E0
F3E0
F6E0
F6E0
FCE0
F8E0
78E0
79E0
3FC0
7F80
C000
ENDCHAR
STARTCHAR 00D9
ENCODING 217
SWIDTH 617 0
DWIDTH 12 0
BBX 10 17 1 0
BITMAP
3800
1C00
0000
0000
E1C0
E1C0
E1C0
E1C0
E1C0
E1C0
E1C0
E1C0
E1C0
E1C0
F3C0
7F80
3F00
ENDCHAR
STARTCHAR 00DA
ENCODING 218
SWIDTH 617 0
DWIDTH 12 0
BBX 10 17 1 0
BITMAP
0700
0E00
0000
0000
E1C0
E1C0
E1C0
E1C0
E1C0
E1C0
E1C0
E1C0
E1C0
E1C0
F3C0
7F80
3F00
ENDCHAR
STARTCHAR 00DB
ENCODING 219
SWIDTH 617 0
DWIDTH 12 0
BBX 10 17 1 0
BITMAP
1E00
3700
4000
0000
E1C0
E1C0
E1C0
E1C0
E1C0
E1C0
E1C0
E1C0
E1C0
E1C0
F3C0
7F80
3F00
ENDCHAR
STARTCHAR 00DC
ENCODING 220
SWIDTH 617 0
DWIDTH 12 0
BBX 10 17 1 0
BITMAP
7300
7300
0000
0000
E1C0
E1C0
E1C0
E1C0
E1C0
E1C0
E1C0
E1C0
E1C0
E1C0
F3C0
7F80
3F00
ENDCHAR
STARTCHAR 00DD
ENCODING 221
SWIDTH 617 0
DWIDTH 12 0
BBX 12 17 0 0
BITMAP
0380
0700
0000
0010
F0E0
70E0
79C0
39C0
3F80
1F80
1F00
0F00
0E00
0E00
0E00
0E00
0E00
ENDCHAR
STARTCHAR 00DE
ENCODING 222
SWIDTH 617 0
DWIDTH 12 0
BBX 10 13 1 0
BITMAP
E000
E000
FF80
FFC0
E3C0
E1C0
E1C0
E3C0
FFC0
FF00
E000
E000
E000
ENDCHAR
STARTCHAR 00DF
ENCODING 223
SWIDTH 617 0
DWIDTH 12 0
BBX 11 15 0 -1
BITMAP
1F80
3FC0
39E0
78E0
F0E0
F1C0
7780
77C0
70E0
70E0
70E0
71E0
77C0
7780
7000
ENDCHAR
STARTCHAR 00E0
ENCODING 224
SWIDTH 617 0
DWIDTH 12 0
BBX 10 15 1 0
BITMAP
3800
1800
1C00
0C00
0000
3F00
7F80
E380
0380
3F80
FF80
E380
E380
FFC0
7DC0
ENDCHAR
STARTCHAR 00E1
ENCODING 225
SWIDTH 617 0
DWIDTH 12 0
BBX 10 15 1 0
BITMAP
0600
0E00
0C00
1800
0000
3F00
7F80
E380
0380
3F80
FF80
E380
E380
FFC0
7DC0
ENDCHAR
STARTCHAR 00E2
ENCODING 226
SWIDTH 617 0
DWIDTH 12 0
BBX 10 15 1 0
BITMAP
1C00
1E00
3700
6300
0000
3F00
7F80
E380
0380
3F80
FF80
E380
E380
FFC0
7DC0
ENDCHAR
STARTCHAR 00E3
ENCODING 227
SWIDTH 617 0
DWIDTH 12 0
BBX 10 15 1 0
BITMAP
0180
7D00
6F00
4200
0000
3F00
7F80
E380
0380
3F80
FF80
E380
E380
FFC0
7DC0
ENDCHAR
STARTCHAR 00E4
ENCODING 228
SWIDTH 617 0
DWIDTH 12 0
BBX 10 14 1 0
BITMAP
7300
7300
0000
0000
3F00
7F80
E380
0380
3F80
FF80
E380
E380
FFC0
7DC0
ENDCHAR
STARTCHAR 00E5
ENCODING 229
SWIDTH 617 0
DWIDTH 12 0
BBX 10 15 1 0
BITMAP
1C00
1600
1600
0C00
0000
3F00
7F80
E380
0380
3F80
FF80
E380
E380
FFC0
7DC0
ENDCHAR
STARTCHAR 00E6
ENCODING 230
SWIDTH 617 0
DWIDTH 12 0
BBX 12 10 0 0
BITMAP
79C0
7FE0
EE60
0660
3FF0
7600
C660
CE60
FFE0
7BC0
ENDCHAR
STARTCHAR 00E7
ENCODING 231
SWIDTH 617 0
DWIDTH 12 0
BBX 9 14 1 -4
BITMAP
3E00
7F80
E380
E180
E000
E000
E180
E380
7F80
3F00
0000
0E00
0200
1E00
ENDCHAR
STARTCHAR 00E8
ENCODING 232
SWIDTH 617 0
DWIDTH 12 0
BBX 10 15 1 0
BITMAP
3800
1800
0C00
0C00
0000
3F00
7F80
F380
E1C0
FFC0
FFC0
E1C0
E1C0
7F80
3F00
ENDCHAR
STARTCHAR 00E9
ENCODING 233
SWIDTH 617 0
DWIDTH 12 0
BBX 10 15 1 0
BITMAP
0700
0600
0C00
1C00
0000
3F00
7F80
F380
E1C0
FFC0
FFC0
E1C0
E1C0
7F80
3F00
ENDCHAR
STARTCHAR 00EA
ENCODING 234
SWIDTH 617 0
DWIDTH 12 0
BBX 10 15 1 0
BITMAP
0C00
1E00
3300
7380
0000
3F00
7F80
F380
E1C0
FFC0
FFC0
E1C0
E1C0
7F80
3F00
ENDCHAR
STARTCHAR 00EB
ENCODING 235
SWIDTH 617 0
DWIDTH 12 0
BBX 10 14 1 0
BITMAP
7380
7380
0000
0000
3F00
7F80
F380
E1C0
FFC0
FFC0
E1C0
E1C0
7F80
3F00
ENDCHAR
STARTCHAR 00EC
ENCODING 236
SWIDTH 617 0
DWIDTH 12 0
BBX 9 15 2 0
BITMAP
7000
3800
1800
0C00
0000
FC00
FC00
1C00
1C00
1C00
1C00
1C00
1C00
FF80
FF80
ENDCHAR
STARTCHAR 00ED
ENCODING 237
SWIDTH 617 0
DWIDTH 12 0
BBX 9 15 2 0
BITMAP
0E00
0C00
1C00
1800
0000
FC00
FC00
1C00
1C00
1C00
1C00
1C00
1C00
FF80
FF80
ENDCHAR
STARTCHAR 00EE
ENCODING 238
SWIDTH 617 0
DWIDTH 12 0
BBX 9 15 2 0
BITMAP
1C00
3C00
7600
6300
0000
FC00
FC00
1C00
1C00
1C00
1C00
1C00
1C00
FF80
FF80
ENDCHAR
STARTCHAR 00EF
ENCODING 239
SWIDTH 617 0
DWIDTH 12 0
BBX 9 14 2 0
BITMAP
6700
6700
0000
0000
FC00
FC00
1C00
1C00
1C00
1C00
1C00
1C00
FF80
FF80
ENDCHAR
STARTCHAR 00F0
ENCODING 240
SWIDTH 617 0
DWIDTH 12 0
BBX 10 14 1 0
BITMAP
7600
1C00
7E00
0700
3F80
7F80
E3C0
E1C0
E1C0
E1C0
E1C0
E380
7F80
3F00
ENDCHAR
STARTCHAR 00F1
ENCODING 241
SWIDTH 617 0
DWIDTH 12 0
BBX 9 15 1 0
BITMAP
0180
3D80
6F00
4200
0000
EF00
FF80
F380
E380
E380
E380
E380
E380
E380
E380
ENDCHAR
STARTCHAR 00F2
ENCODING 242
SWIDTH 617 0
DWIDTH 12 0
BBX 10 15 1 0
BITMAP
3800
1800
1C00
0C00
0000
3F00
7F80
E380
E1C0
E1C0
E1C0
E1C0
E380
7F80
3F00
ENDCHAR
STARTCHAR 00F3
ENCODING 243
SWIDTH 617 0
DWIDTH 12 0
BBX 10 15 1 0
BITMAP
0700
0E00
0C00
1800
0000
3F00
7F80
E380
E1C0
E1C0
E1C0
E1C0
E380
7F80
3F00
ENDCHAR
STARTCHAR 00F4
ENCODING 244
SWIDTH 617 0
DWIDTH 12 0
BBX 10 15 1 0
BITMAP
1C00
1E00
3700
6380
0000
3F00
7F80
E380
E1C0
E1C0
E1C0
E1C0
E380
7F80
3F00
ENDCHAR
STARTCHAR 00F5
ENCODING 245
SWIDTH 617 0
DWIDTH 12 0
BBX 10 15 1 0
BITMAP
0180
7D80
6F00
4200
0000
3F00
7F80
E380
E1C0
E1C0
E1C0
E1C0
E380
7F80
3F00
ENDCHAR
STARTCHAR 00F6
ENCODING 246
SWIDTH 617 0
DWIDTH 12 0
BBX 10 14 1 0
BITMAP
7300
7300
0000
0000
3F00
7F80
E380
E1C0
E1C0
E1C0
E1C0
E380
7F80
3F00
ENDCHAR
STARTCHAR 00F7
ENCODING 247
SWIDTH 617 0
DWIDTH 12 0
BBX 10 8 1 1
BITMAP
0C00
0C00
0000
FFC0
FFC0
0000
0C00
0C00
ENDCHAR
STARTCHAR 00F8
ENCODING 248
SWIDTH 617 0
DWIDTH 12 0
BBX 10 12 1 -1
BITMAP
0180
3F00
7F80
E380
E5C0
EDC0
E9C0
F9C0
F380
7F80
7F00
C000
ENDCHAR
STARTCHAR 00F9
ENCODING 249
SWIDTH 617 0
DWIDTH 12 0
BBX 10 15 1 0
BITMAP
3800
1800
1C00
0C00
0000
E380
E380
E380
E380
E380
E380
E380
F380
FFC0
7DC0
ENDCHAR
STARTCHAR 00FA
ENCODING 250
SWIDTH 617 0
DWIDTH 12 0
BBX 10 15 1 0
BITMAP
0700
0E00
0C00
1800
0000
E380
E380
E380
E380
E380
E380
E380
F380
FFC0
7DC0
ENDCHAR
STARTCHAR 00FB
ENCODING 251
SWIDTH 617 0
DWIDTH 12 0
BBX 10 15 1 0
BITMAP
1C00
1E00
3700
6380
0000
E380
E380
E380
E380
E380
E380
E380
F380
FFC0
7DC0
ENDCHAR
STARTCHAR 00FC
ENCODING 252
SWIDTH 617 0
DWIDTH 12 0
BBX 10 14 1 0
BITMAP
7300
7300
0000
0000
E380
E380
E380
E380
E380
E380
E380
F380
FFC0
7DC0
ENDCHAR
STARTCHAR 00FD
ENCODING 253
SWIDTH 617 0
DWIDTH 12 0
BBX 10 19 1 -4
BITMAP
0700
0600
0C00
0C00
0000
E1C0
E180
7380
7380
7300
3F00
3F00
1E00
1E00
1C00
1C00
B800
F800
6000
ENDCHAR
STARTCHAR 00FE
ENCODING 254
SWIDTH 617 0
DWIDTH 12 0
BBX 10 18 1 -4
BITMAP
E000
E000
E000
E000
EF00
FF80
F3C0
E1C0
E1C0
E1C0
E1C0
F3C0
FF80
EF00
E000
E000
E000
E000
ENDCHAR
STARTCHAR 00FF
ENCODING 255
SWIDTH 617 0
DWIDTH 12 0
BBX 10 18 1 -4
BITMAP
7380
7380
0000
0000
E1C0
E180
7380
7380
7300
3F00
3F00
1E00
1E00
1C00
1C00
B800
F800
6000
ENDCHAR
STARTCHAR 0152
ENCODING 140
SWIDTH 617 0
DWIDTH 12 0
BBX 12 13 0 0
BITMAP
3FE0
7FE0
7300
E300
E300
E3E0
E3E0
E3E0
E300
E300
7B00
7FE0
1FF0
ENDCHAR
STARTCHAR 0153
ENCODING 156
SWIDTH 617 0
DWIDTH 12 0
BBX 12 10 0 0
BITMAP
79C0
7FE0
EE60
C660
C7F0
C600
C660
EE60
7FE0
7BC0
ENDCHAR
STARTCHAR 0160
ENCODING 138
SWIDTH 617 0
DWIDTH 12 0
BBX 11 17 0 0
BITMAP
3980
0F00
0000
0600
3FC0
7FE0
70E0
70E0
7C00
7F80
3FC0
07E0
00E0
E0E0
79E0
7FC0
1F80
ENDCHAR
STARTCHAR 0161
ENCODING 154
SWIDTH 617 0
DWIDTH 12 0
BBX 10 15 1 0
BITMAP
7380
3700
1E00
1C00
0000
3F00
7F80
E380
F000
7F00
3F80
03C0
E180
FF80
7F00
ENDCHAR
STARTCHAR 0178
ENCODING 159
SWIDTH 617 0
DWIDTH 12 0
BBX 12 17 0 0
BITMAP
3980
3980
0000
0010
F0E0
70E0
79C0
39C0
3F80
1F80
1F00
0F00
0E00
0E00
0E00
0E00
0E00
ENDCHAR
STARTCHAR 017D
ENCODING 142
SWIDTH 617 0
DWIDTH 12 0
BBX 11 17 0 0
BITMAP
3980
0F00
0000
0000
7FE0
7FE0
03C0
0380
0780
0F00
0F00
1E00
1C00
3C00
7FE0
7FE0
FFE0
ENDCHAR
STARTCHAR 017E
ENCODING 158
SWIDTH 617 0
DWIDTH 12 0
BBX 8 15 2 0
BITMAP
E7
6E
3C
38
00
FF
FF
0E
1C
3C
38
78
70
FF
FF
ENDCHAR
STARTCHAR 0192
ENCODING 131
SWIDTH 617 0
DWIDTH 12 0
BBX 10 18 1 -4
BITMAP
07C0
0F80
0E00
0E00
3F80
3F80
1C00
1C00
1C00
1C00
1C00
1C00
1C00
3800
3800
B800
F800
6000
ENDCHAR
STARTCHAR 02C6
ENCODING 136
SWIDTH 617 0
DWIDTH 12 0
BBX 8 4 2 11
BITMAP
38
3C
6E
C7
ENDCHAR
STARTCHAR 02DC
ENCODING 152
SWIDTH 617 0
DWIDTH 12 0
BBX 8 4 2 11
BITMAP
03
FB
DE
84
ENDCHAR
STARTCHAR 2013
ENCODING 150
SWIDTH 617 0
DWIDTH 12 0
BBX 8 3 2 4
BITMAP
FF
FF
FF
ENDCHAR
STARTCHAR 2014
ENCODING 151
SWIDTH 617 0
DWIDTH 12 0
BBX 12 3 0 4
BITMAP
FFF0
FFF0
FFF0
ENDCHAR
STARTCHAR 2018
ENCODING 145
SWIDTH 617 0
DWIDTH 12 0
BBX 3 7 4 7
BITMAP
20
60
40
C0
E0
E0
E0
ENDCHAR
STARTCHAR 2019
ENCODING 146
SWIDTH 617 0
DWIDTH 12 0
BBX 3 7 4 6
BITMAP
E0
E0
E0
20
60
60
C0
ENDCHAR
STARTCHAR 201A
ENCODING 130
SWIDTH 617 0
DWIDTH 12 0
BBX 3 7 4 -4
BITMAP
E0
E0
E0
20
60
60
C0
ENDCHAR
STARTCHAR 201C
ENCODING 147
SWIDTH 617 0
DWIDTH 12 0
BBX 8 7 2 7
BITMAP
63
66
C4
C4
EF
EF
EF
ENDCHAR
STARTCHAR 201D
ENCODING 148
SWIDTH 617 0
DWIDTH 12 0
BBX 8 7 2 6
BITMAP
E7
E7
E7
63
62
46
C4
ENDCHAR
STARTCHAR 201E
ENCODING 132
SWIDTH 617 0
DWIDTH 12 0
BBX 8 7 2 -4
BITMAP
E7
E7
E7
63
62
46
C4
ENDCHAR
STARTCHAR 2020
ENCODING 134
SWIDTH 617 0
DWIDTH 12 0
BBX 10 16 1 -3
BITMAP
0C00
0C00
0C00
FFC0
FFC0
0C00
0C00
0C00
0C00
0C00
0C00
0C00
0C00
0C00
0C00
0C00
ENDCHAR
STARTCHAR 2021
ENCODING 135
SWIDTH 617 0
DWIDTH 12 0
BBX 10 16 1 -3
BITMAP
0C00
0C00
0C00
FFC0
FFC0
0C00
0C00
0C00
0C00
0C00
0C00
FFC0
FFC0
0C00
0C00
0C00
ENDCHAR
STARTCHAR 2022
ENCODING 149
SWIDTH 617 0
DWIDTH 12 0
BBX 6 7 3 3
BITMAP
70
F8
FC
FC
FC
78
20
ENDCHAR
STARTCHAR 2026
ENCODING 133
SWIDTH 617 0
DWIDTH 12 0
BBX 10 3 1 0
BITMAP
CDC0
CDC0
CDC0
ENDCHAR
STARTCHAR 2030
ENCODING 137
SWIDTH 617 0
DWIDTH 12 0
BBX 11 13 0 0
BITMAP
7800
4C00
4C00
4C00
7800
0000
FFE0
39C0
6B60
4F60
4F60
6F60
39C0
ENDCHAR
STARTCHAR 2039
ENCODING 139
SWIDTH 617 0
DWIDTH 12 0
BBX 4 7 4 3
BITMAP
30
60
E0
C0
E0
60
30
ENDCHAR
STARTCHAR 203A
ENCODING 155
SWIDTH 617 0
DWIDTH 12 0
BBX 4 7 4 3
BITMAP
C0
E0
60
70
60
E0
C0
ENDCHAR
STARTCHAR 20AC
ENCODING 128
SWIDTH 617 0
DWIDTH 12 0
BBX 10 13 1 0
BITMAP
0FC0
1FC0
3C00
3800
FF00
FF00
7000
FF00
FF00
3800
3E40
1FC0
0FC0
ENDCHAR
STARTCHAR 2122
ENCODING 153
SWIDTH 617 0
DWIDTH 12 0
BBX 12 7 0 6
BITMAP
F670
6670
6770
67F0
65B0
65B0
65B0
ENDCHAR
ENDFONT
