STARTFONT 2.1
COMMENT
COMMENT Converted from OpenType font "ChivoMono-Regular.ttf" by "otf2bdf 3.0".
COMMENT
FONT -FreeType-chivo mono cp1252-Medium-R-Normal--17-120-100-100-P-77-ISO10646-1
SIZE 12 100 100
FONTBOUNDINGBOX 10 19 0 -3
STARTPROPERTIES 19
FOUNDRY "FreeType"
FAMILY_NAME "chivo mono cp1252"
WEIGHT_NAME "Medium"
SLANT "R"
SETWIDTH_NAME "Normal"
ADD_STYLE_NAME ""
PIXEL_SIZE 17
POINT_SIZE 120
RESOLUTION_X 100
RESOLUTION_Y 100
SPACING "P"
AVERAGE_WIDTH 77
CHARSET_REGISTRY "ISO10646"
CHARSET_ENCODING "1"
FONT_ASCENT 15
FONT_DESCENT 4
COPYRIGHT "Copyright 2018 The Chivo Project Authors (https://github.com/Omnibus-Type/Chivo)"
_OTF_FONTFILE "ChivoMono-Regular.ttf"
_OTF_PSNAME "ChivoMono-Regular"
ENDPROPERTIES
CHARS 219
STARTCHAR 000D
ENCODING 13
SWIDTH 600 0
DWIDTH 10 0
BBX 0 0 0 0
BITMAP
ENDCHAR
STARTCHAR 0020
ENCODING 32
SWIDTH 600 0
DWIDTH 10 0
BBX 0 0 0 0
BITMAP
ENDCHAR
STARTCHAR 0021
ENCODING 33
SWIDTH 600 0
DWIDTH 10 0
BBX 2 11 4 0
BITMAP
C0
C0
C0
C0
C0
C0
C0
C0
00
C0
C0
ENDCHAR
STARTCHAR 0022
ENCODING 34
SWIDTH 600 0
DWIDTH 10 0
BBX 4 4 3 7
BITMAP
90
90
90
90
ENDCHAR
STARTCHAR 0023
ENCODING 35
SWIDTH 600 0
DWIDTH 10 0
BBX 10 12 0 0
BITMAP
0880
0980
1900
1100
7FC0
1100
1300
3200
FF80
2200
2600
6400
ENDCHAR
STARTCHAR 0024
ENCODING 36
SWIDTH 600 0
DWIDTH 10 0
BBX 8 14 1 -1
BITMAP
18
10
7E
C3
C3
C0
78
1E
03
81
C3
FF
3C
18
ENDCHAR
STARTCHAR 0025
ENCODING 37
SWIDTH 600 0
DWIDTH 10 0
BBX 10 11 0 0
BITMAP
F0C0
9100
9100
9200
F400
0180
0A40
1240
2240
4240
C380
ENDCHAR
STARTCHAR 0026
ENCODING 38
SWIDTH 600 0
DWIDTH 10 0
BBX 9 12 1 0
BITMAP
1800
7800
C000
C200
C200
7F80
7F80
C200
C200
C200
E200
7E00
ENDCHAR
STARTCHAR 0027
ENCODING 39
SWIDTH 600 0
DWIDTH 10 0
BBX 2 4 4 7
BITMAP
C0
C0
C0
80
ENDCHAR
STARTCHAR 0028
ENCODING 40
SWIDTH 600 0
DWIDTH 10 0
BBX 3 14 4 -3
BITMAP
60
40
C0
80
80
80
80
80
80
80
C0
40
40
20
ENDCHAR
STARTCHAR 0029
ENCODING 41
SWIDTH 600 0
DWIDTH 10 0
BBX 3 14 3 -3
BITMAP
C0
40
60
20
20
20
20
20
20
20
60
40
40
80
ENDCHAR
STARTCHAR 002A
ENCODING 42
SWIDTH 600 0
DWIDTH 10 0
BBX 6 6 2 5
BITMAP
30
B4
FC
30
58
CC
ENDCHAR
STARTCHAR 002B
ENCODING 43
SWIDTH 600 0
DWIDTH 10 0
BBX 8 9 1 0
BITMAP
18
18
18
18
FF
18
18
18
18
ENDCHAR
STARTCHAR 002C
ENCODING 44
SWIDTH 600 0
DWIDTH 10 0
BBX 2 4 4 -2
BITMAP
C0
C0
40
C0
ENDCHAR
STARTCHAR 002D
ENCODING 45
SWIDTH 600 0
DWIDTH 10 0
BBX 4 1 3 4
BITMAP
F0
ENDCHAR
STARTCHAR 002E
ENCODING 46
SWIDTH 600 0
DWIDTH 10 0
BBX 2 2 4 0
BITMAP
C0
C0
ENDCHAR
STARTCHAR 002F
ENCODING 47
SWIDTH 600 0
DWIDTH 10 0
BBX 10 14 0 -3
BITMAP
00C0
0180
0100
0300
0200
0400
0C00
0800
1800
1000
3000
2000
4000
C000
ENDCHAR
STARTCHAR 0030
ENCODING 48
SWIDTH 600 0
DWIDTH 10 0
BBX 8 12 1 0
BITMAP
18
7E
C3
C3
C3
C3
C3
C3
C3
C3
66
3C
ENDCHAR
STARTCHAR 0031
ENCODING 49
SWIDTH 600 0
DWIDTH 10 0
BBX 8 12 1 0
BITMAP
08
F8
F8
18
18
18
18
18
18
18
18
FF
ENDCHAR
STARTCHAR 0032
ENCODING 50
SWIDTH 600 0
DWIDTH 10 0
BBX 8 12 1 0
BITMAP
18
7E
C3
C3
C3
03
06
1C
70
60
C0
FF
ENDCHAR
STARTCHAR 0033
ENCODING 51
SWIDTH 600 0
DWIDTH 10 0
BBX 8 12 1 0
BITMAP
18
7E
C3
C3
03
0E
1E
03
03
83
C7
7E
ENDCHAR
STARTCHAR 0034
ENCODING 52
SWIDTH 600 0
DWIDTH 10 0
BBX 8 12 1 0
BITMAP
18
10
32
36
66
46
C6
86
FF
06
06
06
ENDCHAR
STARTCHAR 0035
ENCODING 53
SWIDTH 600 0
DWIDTH 10 0
BBX 8 11 1 0
BITMAP
7E
40
40
40
7E
C3
03
C3
C3
66
3C
ENDCHAR
STARTCHAR 0036
ENCODING 54
SWIDTH 600 0
DWIDTH 10 0
BBX 8 12 1 0
BITMAP
18
7E
43
C3
C0
FE
E3
C3
C3
C3
67
3E
ENDCHAR
STARTCHAR 0037
ENCODING 55
SWIDTH 600 0
DWIDTH 10 0
BBX 8 11 1 0
BITMAP
FF
02
06
0C
08
18
18
30
30
30
30
ENDCHAR
STARTCHAR 0038
ENCODING 56
SWIDTH 600 0
DWIDTH 10 0
BBX 8 12 1 0
BITMAP
18
7E
43
C3
C3
66
7E
C3
C3
C3
C3
7E
ENDCHAR
STARTCHAR 0039
ENCODING 57
SWIDTH 600 0
DWIDTH 10 0
BBX 8 12 1 0
BITMAP
18
7E
C2
C3
C3
C3
6F
3B
C3
C3
66
7C
ENDCHAR
STARTCHAR 003A
ENCODING 58
SWIDTH 600 0
DWIDTH 10 0
BBX 2 8 4 0
BITMAP
C0
C0
00
00
00
00
C0
C0
ENDCHAR
STARTCHAR 003B
ENCODING 59
SWIDTH 600 0
DWIDTH 10 0
BBX 2 10 4 -2
BITMAP
C0
C0
00
00
00
00
C0
C0
40
C0
ENDCHAR
STARTCHAR 003C
ENCODING 60
SWIDTH 600 0
DWIDTH 10 0
BBX 8 8 1 0
BITMAP
03
1E
70
C0
E0
3C
0F
01
ENDCHAR
STARTCHAR 003D
ENCODING 61
SWIDTH 600 0
DWIDTH 10 0
BBX 8 5 1 2
BITMAP
FF
FF
00
00
FF
ENDCHAR
STARTCHAR 003E
ENCODING 62
SWIDTH 600 0
DWIDTH 10 0
BBX 8 8 1 0
BITMAP
C0
78
0E
03
07
3C
F0
80
ENDCHAR
STARTCHAR 003F
ENCODING 63
SWIDTH 600 0
DWIDTH 10 0
BBX 8 12 1 0
BITMAP
18
7E
42
C3
03
06
0C
18
18
00
18
18
ENDCHAR
STARTCHAR 0040
ENCODING 64
SWIDTH 600 0
DWIDTH 10 0
BBX 10 15 0 -3
BITMAP
0E00
3100
4080
4C40
9E40
B340
8340
9F40
B340
B340
B340
5D80
4000
2100
1E00
ENDCHAR
STARTCHAR 0041
ENCODING 65
SWIDTH 600 0
DWIDTH 10 0
BBX 10 11 0 0
BITMAP
0C00
1E00
1E00
1200
3300
3300
2100
7F80
6180
4080
C0C0
ENDCHAR
STARTCHAR 0042
ENCODING 66
SWIDTH 600 0
DWIDTH 10 0
BBX 8 11 1 0
BITMAP
FE
C3
C3
C3
FE
FE
C3
C1
C3
C7
FE
ENDCHAR
STARTCHAR 0043
ENCODING 67
SWIDTH 600 0
DWIDTH 10 0
BBX 8 12 1 0
BITMAP
18
7E
C3
C3
81
80
80
80
81
C3
E7
7E
ENDCHAR
STARTCHAR 0044
ENCODING 68
SWIDTH 600 0
DWIDTH 10 0
BBX 9 11 1 0
BITMAP
FE00
C300
C180
C180
C180
C180
C180
C180
C300
C700
FE00
ENDCHAR
STARTCHAR 0045
ENCODING 69
SWIDTH 600 0
DWIDTH 10 0
BBX 8 11 1 0
BITMAP
FF
C0
C0
C0
FE
FE
C0
C0
C0
C0
FF
ENDCHAR
STARTCHAR 0046
ENCODING 70
SWIDTH 600 0
DWIDTH 10 0
BBX 8 11 1 0
BITMAP
FF
C0
C0
C0
C0
FE
C0
C0
C0
C0
C0
ENDCHAR
STARTCHAR 0047
ENCODING 71
SWIDTH 600 0
DWIDTH 10 0
BBX 8 12 1 0
BITMAP
18
7E
C3
C3
81
80
8F
81
81
C3
E7
7D
ENDCHAR
STARTCHAR 0048
ENCODING 72
SWIDTH 600 0
DWIDTH 10 0
BBX 8 11 1 0
BITMAP
C3
C3
C3
C3
FF
FF
C3
C3
C3
C3
C3
ENDCHAR
STARTCHAR 0049
ENCODING 73
SWIDTH 600 0
DWIDTH 10 0
BBX 6 11 2 0
BITMAP
FC
30
30
30
30
30
30
30
30
30
FC
ENDCHAR
STARTCHAR 004A
ENCODING 74
SWIDTH 600 0
DWIDTH 10 0
BBX 6 11 2 0
BITMAP
04
04
04
04
04
04
04
04
84
CC
78
ENDCHAR
STARTCHAR 004B
ENCODING 75
SWIDTH 600 0
DWIDTH 10 0
BBX 9 11 1 0
BITMAP
C380
C600
CC00
CC00
D800
F800
EC00
CE00
C600
C300
C380
ENDCHAR
STARTCHAR 004C
ENCODING 76
SWIDTH 600 0
DWIDTH 10 0
BBX 7 11 2 0
BITMAP
80
80
80
80
80
80
80
80
80
80
FE
ENDCHAR
STARTCHAR 004D
ENCODING 77
SWIDTH 600 0
DWIDTH 10 0
BBX 8 11 1 0
BITMAP
E7
E7
A7
A7
A7
A7
BB
9B
9B
9B
9B
ENDCHAR
STARTCHAR 004E
ENCODING 78
SWIDTH 600 0
DWIDTH 10 0
BBX 8 11 1 0
BITMAP
C3
E3
E3
F3
D3
DB
CB
CF
C7
C7
C3
ENDCHAR
STARTCHAR 004F
ENCODING 79
SWIDTH 600 0
DWIDTH 10 0
BBX 8 12 1 0
BITMAP
18
7E
C3
C3
81
81
81
81
81
C3
E7
7E
ENDCHAR
STARTCHAR 0050
ENCODING 80
SWIDTH 600 0
DWIDTH 10 0
BBX 9 11 1 0
BITMAP
FF00
C300
C180
C100
C300
FE00
C000
C000
C000
C000
C000
ENDCHAR
STARTCHAR 0051
ENCODING 81
SWIDTH 600 0
DWIDTH 10 0
BBX 9 14 1 -2
BITMAP
1800
7E00
C300
C300
8100
8100
8100
8100
8100
C300
E700
7E00
1800
0F80
ENDCHAR
STARTCHAR 0052
ENCODING 82
SWIDTH 600 0
DWIDTH 10 0
BBX 9 11 1 0
BITMAP
FF00
C300
C100
C100
C300
FE00
C300
C300
C300
C300
C180
ENDCHAR
STARTCHAR 0053
ENCODING 83
SWIDTH 600 0
DWIDTH 10 0
BBX 8 12 1 0
BITMAP
18
7E
C3
C3
C0
78
1E
03
81
83
C3
7E
ENDCHAR
STARTCHAR 0054
ENCODING 84
SWIDTH 600 0
DWIDTH 10 0
BBX 8 11 1 0
BITMAP
FF
18
18
18
18
18
18
18
18
18
18
ENDCHAR
STARTCHAR 0055
ENCODING 85
SWIDTH 600 0
DWIDTH 10 0
BBX 8 11 1 0
BITMAP
C3
C3
C3
C3
C3
C3
C3
C3
C3
66
7E
ENDCHAR
STARTCHAR 0056
ENCODING 86
SWIDTH 600 0
DWIDTH 10 0
BBX 10 11 0 0
BITMAP
C0C0
6180
6180
2180
3100
3300
3300
1200
1E00
1E00
0C00
ENDCHAR
STARTCHAR 0057
ENCODING 87
SWIDTH 600 0
DWIDTH 10 0
BBX 10 11 0 0
BITMAP
CCC0
CCC0
CCC0
4C80
4E80
7E80
7380
7380
7380
3300
3300
ENDCHAR
STARTCHAR 0058
ENCODING 88
SWIDTH 600 0
DWIDTH 10 0
BBX 10 11 0 0
BITMAP
6180
3100
3300
1E00
0C00
0C00
1E00
3300
3300
6180
C0C0
ENDCHAR
STARTCHAR 0059
ENCODING 89
SWIDTH 600 0
DWIDTH 10 0
BBX 10 11 0 0
BITMAP
E1C0
6180
3300
3300
1E00
1E00
0C00
0C00
0C00
0C00
0C00
ENDCHAR
STARTCHAR 005A
ENCODING 90
SWIDTH 600 0
DWIDTH 10 0
BBX 8 11 1 0
BITMAP
FF
06
06
0C
18
18
30
70
60
C0
FF
ENDCHAR
STARTCHAR 005B
ENCODING 91
SWIDTH 600 0
DWIDTH 10 0
BBX 3 14 4 -3
BITMAP
E0
C0
C0
C0
C0
C0
C0
C0
C0
C0
C0
C0
C0
E0
ENDCHAR
STARTCHAR 005C
ENCODING 92
SWIDTH 600 0
DWIDTH 10 0
BBX 10 14 0 -3
BITMAP
C000
6000
2000
3000
1000
0800
0C00
0400
0600
0200
0300
0100
0080
00C0
ENDCHAR
STARTCHAR 005D
ENCODING 93
SWIDTH 600 0
DWIDTH 10 0
BBX 3 14 3 -3
BITMAP
E0
60
60
60
60
60
60
60
60
60
60
60
60
E0
ENDCHAR
STARTCHAR 005E
ENCODING 94
SWIDTH 600 0
DWIDTH 10 0
BBX 8 9 1 0
BITMAP
18
18
3C
24
24
66
42
C3
81
ENDCHAR
STARTCHAR 005F
ENCODING 95
SWIDTH 600 0
DWIDTH 10 0
BBX 8 1 1 -2
BITMAP
FF
ENDCHAR
STARTCHAR 0060
ENCODING 96
SWIDTH 600 0
DWIDTH 10 0
BBX 2 3 4 10
BITMAP
80
C0
40
ENDCHAR
STARTCHAR 0061
ENCODING 97
SWIDTH 600 0
DWIDTH 10 0
BBX 8 9 1 0
BITMAP
38
7E
C2
02
3E
C2
C6
C6
7B
ENDCHAR
STARTCHAR 0062
ENCODING 98
SWIDTH 600 0
DWIDTH 10 0
BBX 7 12 2 0
BITMAP
80
80
80
B8
FC
C6
86
86
86
86
C4
BC
ENDCHAR
STARTCHAR 0063
ENCODING 99
SWIDTH 600 0
DWIDTH 10 0
BBX 8 9 1 0
BITMAP
18
7E
C2
C3
C0
C0
C3
66
3C
ENDCHAR
STARTCHAR 0064
ENCODING 100
SWIDTH 600 0
DWIDTH 10 0
BBX 7 12 1 0
BITMAP
02
02
02
3A
7E
C6
C2
C2
C2
C2
C6
7A
ENDCHAR
STARTCHAR 0065
ENCODING 101
SWIDTH 600 0
DWIDTH 10 0
BBX 8 9 1 0
BITMAP
18
7E
C3
C3
FF
C0
C3
62
3C
ENDCHAR
STARTCHAR 0066
ENCODING 102
SWIDTH 600 0
DWIDTH 10 0
BBX 8 12 1 0
BITMAP
0F
18
10
FF
FF
10
10
10
10
10
10
FF
ENDCHAR
STARTCHAR 0067
ENCODING 103
SWIDTH 600 0
DWIDTH 10 0
BBX 9 13 1 -3
BITMAP
0180
1F00
6600
4300
4300
6600
7C00
C000
FE00
7F00
8180
8100
FF00
ENDCHAR
STARTCHAR 0068
ENCODING 104
SWIDTH 600 0
DWIDTH 10 0
BBX 8 12 1 0
BITMAP
C0
C0
C0
CC
FE
C3
C3
C3
C3
C3
C3
C3
ENDCHAR
STARTCHAR 0069
ENCODING 105
SWIDTH 600 0
DWIDTH 10 0
BBX 7 12 2 0
BITMAP
10
10
00
F0
F0
10
10
10
10
10
10
FE
ENDCHAR
STARTCHAR 006A
ENCODING 106
SWIDTH 600 0
DWIDTH 10 0
BBX 4 15 2 -3
BITMAP
10
10
00
F0
F0
10
10
10
10
10
10
10
10
B0
E0
ENDCHAR
STARTCHAR 006B
ENCODING 107
SWIDTH 600 0
DWIDTH 10 0
BBX 8 12 1 0
BITMAP
C0
C0
C0
C3
C6
CC
D8
D8
F8
CC
C6
C3
ENDCHAR
STARTCHAR 006C
ENCODING 108
SWIDTH 600 0
DWIDTH 10 0
BBX 8 12 1 0
BITMAP
F8
18
18
18
18
18
18
18
18
18
18
FF
ENDCHAR
STARTCHAR 006D
ENCODING 109
SWIDTH 600 0
DWIDTH 10 0
BBX 8 9 1 0
BITMAP
B6
FF
99
99
99
99
99
99
99
ENDCHAR
STARTCHAR 006E
ENCODING 110
SWIDTH 600 0
DWIDTH 10 0
BBX 8 9 1 0
BITMAP
DC
FE
C3
C3
C3
C3
C3
C3
C3
ENDCHAR
STARTCHAR 006F
ENCODING 111
SWIDTH 600 0
DWIDTH 10 0
BBX 8 9 1 0
BITMAP
18
7E
C3
C3
C3
C3
C3
66
3C
ENDCHAR
STARTCHAR 0070
ENCODING 112
SWIDTH 600 0
DWIDTH 10 0
BBX 7 12 2 -3
BITMAP
B8
FC
C6
86
86
86
86
C4
BC
80
80
80
ENDCHAR
STARTCHAR 0071
ENCODING 113
SWIDTH 600 0
DWIDTH 10 0
BBX 7 12 1 -3
BITMAP
3A
7E
C6
C2
C2
C2
C2
C6
7A
02
02
02
ENDCHAR
STARTCHAR 0072
ENCODING 114
SWIDTH 600 0
DWIDTH 10 0
BBX 8 9 1 0
BITMAP
E6
FF
31
31
30
30
30
30
FE
ENDCHAR
STARTCHAR 0073
ENCODING 115
SWIDTH 600 0
DWIDTH 10 0
BBX 8 9 1 0
BITMAP
18
7E
C2
60
7C
07
C3
C3
7E
ENDCHAR
STARTCHAR 0074
ENCODING 116
SWIDTH 600 0
DWIDTH 10 0
BBX 8 11 1 0
BITMAP
10
10
FF
FF
30
30
30
30
30
39
1F
ENDCHAR
STARTCHAR 0075
ENCODING 117
SWIDTH 600 0
DWIDTH 10 0
BBX 9 9 1 0
BITMAP
C200
C200
C200
C200
C200
C200
C200
E600
7B80
ENDCHAR
STARTCHAR 0076
ENCODING 118
SWIDTH 600 0
DWIDTH 10 0
BBX 8 9 1 0
BITMAP
C1
C3
42
66
66
24
3C
18
18
ENDCHAR
STARTCHAR 0077
ENCODING 119
SWIDTH 600 0
DWIDTH 10 0
BBX 10 9 0 0
BITMAP
8C40
CCC0
CCC0
4E80
5A80
7280
7380
3300
3300
ENDCHAR
STARTCHAR 0078
ENCODING 120
SWIDTH 600 0
DWIDTH 10 0
BBX 8 9 1 0
BITMAP
C3
66
26
3C
18
3C
2C
66
C3
ENDCHAR
STARTCHAR 0079
ENCODING 121
SWIDTH 600 0
DWIDTH 10 0
BBX 8 12 1 -3
BITMAP
C3
C3
42
66
66
34
3C
18
18
18
30
E0
ENDCHAR
STARTCHAR 007A
ENCODING 122
SWIDTH 600 0
DWIDTH 10 0
BBX 6 9 2 0
BITMAP
FC
FC
18
18
30
20
60
C0
FC
ENDCHAR
STARTCHAR 007B
ENCODING 123
SWIDTH 600 0
DWIDTH 10 0
BBX 4 15 3 -3
BITMAP
10
20
60
60
60
60
60
C0
40
60
60
60
60
60
10
ENDCHAR
STARTCHAR 007C
ENCODING 124
SWIDTH 600 0
DWIDTH 10 0
BBX 2 15 4 -3
BITMAP
C0
C0
C0
C0
C0
C0
C0
C0
C0
C0
C0
C0
C0
C0
C0
ENDCHAR
STARTCHAR 007D
ENCODING 125
SWIDTH 600 0
DWIDTH 10 0
BBX 4 15 3 -3
BITMAP
80
40
60
60
60
60
60
30
20
60
60
60
60
60
80
ENDCHAR
STARTCHAR 007E
ENCODING 126
SWIDTH 600 0
DWIDTH 10 0
BBX 10 2 0 4
BITMAP
7840
C780
ENDCHAR
STARTCHAR 00A0
ENCODING 160
SWIDTH 600 0
DWIDTH 10 0
BBX 0 0 0 0
BITMAP
ENDCHAR
STARTCHAR 00A1
ENCODING 161
SWIDTH 600 0
DWIDTH 10 0
BBX 2 12 4 -3
BITMAP
C0
C0
C0
00
C0
C0
C0
C0
C0
C0
C0
C0
ENDCHAR
STARTCHAR 00A2
ENCODING 162
SWIDTH 600 0
DWIDTH 10 0
BBX 8 12 1 0
BITMAP
18
08
3C
62
C3
C0
C0
C3
43
76
1C
18
ENDCHAR
STARTCHAR 00A3
ENCODING 163
SWIDTH 600 0
DWIDTH 10 0
BBX 9 12 0 0
BITMAP
0600
1F80
3180
3080
3000
3000
FE00
3000
3000
3000
3000
7F80
ENDCHAR
STARTCHAR 00A4
ENCODING 164
SWIDTH 600 0
DWIDTH 10 0
BBX 8 9 1 1
BITMAP
99
E7
C3
81
81
81
C3
FF
91
ENDCHAR
STARTCHAR 00A5
ENCODING 165
SWIDTH 600 0
DWIDTH 10 0
BBX 10 11 0 0
BITMAP
E1C0
6180
3300
3300
7F80
1E00
7F80
0C00
0C00
0C00
0C00
ENDCHAR
STARTCHAR 00A6
ENCODING 166
SWIDTH 600 0
DWIDTH 10 0
BBX 2 15 4 -3
BITMAP
C0
C0
C0
C0
C0
C0
00
00
00
C0
C0
C0
C0
C0
C0
ENDCHAR
STARTCHAR 00A7
ENCODING 167
SWIDTH 600 0
DWIDTH 10 0
BBX 8 15 1 -3
BITMAP
18
7E
42
40
70
7C
46
C3
63
7A
1C
06
42
42
3C
ENDCHAR
STARTCHAR 00A8
ENCODING 168
SWIDTH 600 0
DWIDTH 10 0
BBX 6 2 2 10
BITMAP
CC
CC
ENDCHAR
STARTCHAR 00A9
ENCODING 169
SWIDTH 600 0
DWIDTH 10 0
BBX 10 12 0 0
BITMAP
1E00
2100
4080
9E40
B140
B140
B040
B140
9240
4E80
4080
3F00
ENDCHAR
STARTCHAR 00AA
ENCODING 170
SWIDTH 600 0
DWIDTH 10 0
BBX 6 6 2 6
BITMAP
30
48
38
48
D8
6C
ENDCHAR
STARTCHAR 00AB
ENCODING 171
SWIDTH 600 0
DWIDTH 10 0
BBX 6 6 2 3
BITMAP
24
4C
C8
98
C8
6C
ENDCHAR
STARTCHAR 00AC
ENCODING 172
SWIDTH 600 0
DWIDTH 10 0
BBX 8 5 1 3
BITMAP
FF
FF
01
01
01
ENDCHAR
STARTCHAR 00AD
ENCODING 173
SWIDTH 600 0
DWIDTH 10 0
BBX 4 1 3 4
BITMAP
F0
ENDCHAR
STARTCHAR 00AE
ENCODING 174
SWIDTH 600 0
DWIDTH 10 0
BBX 10 12 0 0
BITMAP
1E00
2100
4080
9E40
9340
9240
9E40
9240
9340
5180
4080
3F00
ENDCHAR
STARTCHAR 00AF
ENCODING 175
SWIDTH 600 0
DWIDTH 10 0
BBX 6 1 2 10
BITMAP
FC
ENDCHAR
STARTCHAR 00B0
ENCODING 176
SWIDTH 600 0
DWIDTH 10 0
BBX 6 5 2 7
BITMAP
30
48
CC
4C
78
ENDCHAR
STARTCHAR 00B1
ENCODING 177
SWIDTH 600 0
DWIDTH 10 0
BBX 8 9 1 0
BITMAP
18
18
18
FF
18
18
18
00
FF
ENDCHAR
STARTCHAR 00B2
ENCODING 178
SWIDTH 600 0
DWIDTH 10 0
BBX 4 6 3 7
BITMAP
F0
90
10
60
C0
F0
ENDCHAR
STARTCHAR 00B3
ENCODING 179
SWIDTH 600 0
DWIDTH 10 0
BBX 4 6 3 7
BITMAP
F0
90
70
10
90
F0
ENDCHAR
STARTCHAR 00B4
ENCODING 180
SWIDTH 600 0
DWIDTH 10 0
BBX 2 3 4 10
BITMAP
40
C0
80
ENDCHAR
STARTCHAR 00B5
ENCODING 181
SWIDTH 600 0
DWIDTH 10 0
BBX 9 12 1 -3
BITMAP
C200
C200
C200
C200
C200
C200
C200
E600
FB80
C000
C000
C000
ENDCHAR
STARTCHAR 00B6
ENCODING 182
SWIDTH 600 0
DWIDTH 10 0
BBX 7 14 1 -3
BITMAP
7E
F4
F4
F4
F4
74
34
14
14
14
14
14
14
14
ENDCHAR
STARTCHAR 00B7
ENCODING 183
SWIDTH 600 0
DWIDTH 10 0
BBX 2 2 4 5
BITMAP
C0
C0
ENDCHAR
STARTCHAR 00B8
ENCODING 184
SWIDTH 600 0
DWIDTH 10 0
BBX 4 3 3 -3
BITMAP
60
10
F0
ENDCHAR
STARTCHAR 00B9
ENCODING 185
SWIDTH 600 0
DWIDTH 10 0
BBX 4 6 3 7
BITMAP
E0
60
60
60
60
F0
ENDCHAR
STARTCHAR 00BA
ENCODING 186
SWIDTH 600 0
DWIDTH 10 0
BBX 4 6 3 6
BITMAP
60
90
90
90
90
60
ENDCHAR
STARTCHAR 00BB
ENCODING 187
SWIDTH 600 0
DWIDTH 10 0
BBX 6 6 2 3
BITMAP
90
C8
4C
64
4C
D8
ENDCHAR
STARTCHAR 00BC
ENCODING 188
SWIDTH 600 0
DWIDTH 10 0
BBX 10 11 0 0
BITMAP
E0C0
2100
2100
2200
2400
F100
0B80
1280
2480
43C0
C080
ENDCHAR
STARTCHAR 00BD
ENCODING 189
SWIDTH 600 0
DWIDTH 10 0
BBX 10 11 0 0
BITMAP
E0C0
2100
2100
2200
2400
F3C0
1A40
1040
2180
4200
C3C0
ENDCHAR
STARTCHAR 00BE
ENCODING 190
SWIDTH 600 0
DWIDTH 10 0
BBX 10 11 0 0
BITMAP
F0C0
9100
7100
1200
9C00
F100
0B80
1280
2480
43C0
C080
ENDCHAR
STARTCHAR 00BF
ENCODING 191
SWIDTH 600 0
DWIDTH 10 0
BBX 8 12 1 -3
BITMAP
18
18
18
00
18
10
70
60
C3
C3
66
3C
ENDCHAR
STARTCHAR 00C0
ENCODING 192
SWIDTH 600 0
DWIDTH 10 0
BBX 10 15 0 0
BITMAP
1000
0800
0400
0000
0C00
1E00
1E00
1200
3300
3300
2100
7F80
6180
4080
C0C0
ENDCHAR
STARTCHAR 00C1
ENCODING 193
SWIDTH 600 0
DWIDTH 10 0
BBX 10 15 0 0
BITMAP
0300
0400
0800
0000
0C00
1E00
1E00
1200
3300
3300
2100
7F80
6180
4080
C0C0
ENDCHAR
STARTCHAR 00C2
ENCODING 194
SWIDTH 600 0
DWIDTH 10 0
BBX 10 15 0 0
BITMAP
0C00
1200
2100
0000
0C00
1E00
1E00
1200
3300
3300
2100
7F80
6180
4080
C0C0
ENDCHAR
STARTCHAR 00C3
ENCODING 195
SWIDTH 600 0
DWIDTH 10 0
BBX 10 15 0 0
BITMAP
1900
3F00
0000
0000
0C00
1E00
1E00
1200
3300
3300
2100
7F80
6180
4080
C0C0
ENDCHAR
STARTCHAR 00C4
ENCODING 196
SWIDTH 600 0
DWIDTH 10 0
BBX 10 14 0 0
BITMAP
3300
0000
0000
0C00
1E00
1E00
1200
3300
3300
2100
7F80
6180
4080
C0C0
ENDCHAR
STARTCHAR 00C5
ENCODING 197
SWIDTH 600 0
DWIDTH 10 0
BBX 10 16 0 0
BITMAP
0C00
1200
1200
0C00
0000
0C00
1E00
1E00
1200
3300
3300
2100
7F80
6180
4080
C0C0
ENDCHAR
STARTCHAR 00C6
ENCODING 198
SWIDTH 600 0
DWIDTH 10 0
BBX 10 11 0 0
BITMAP
1FC0
1E00
1600
3600
3780
2780
6600
7E00
4600
C600
C7C0
ENDCHAR
STARTCHAR 00C7
ENCODING 199
SWIDTH 600 0
DWIDTH 10 0
BBX 8 15 1 -3
BITMAP
18
7E
C3
C3
81
80
80
80
81
C3
E7
7E
18
04
3C
ENDCHAR
STARTCHAR 00C8
ENCODING 200
SWIDTH 600 0
DWIDTH 10 0
BBX 8 15 1 0
BITMAP
30
10
08
00
FF
C0
C0
C0
FE
FE
C0
C0
C0
C0
FF
ENDCHAR
STARTCHAR 00C9
ENCODING 201
SWIDTH 600 0
DWIDTH 10 0
BBX 8 15 1 0
BITMAP
06
0C
00
00
FF
C0
C0
C0
FE
FE
C0
C0
C0
C0
FF
ENDCHAR
STARTCHAR 00CA
ENCODING 202
SWIDTH 600 0
DWIDTH 10 0
BBX 8 15 1 0
BITMAP
18
34
42
00
FF
C0
C0
C0
FE
FE
C0
C0
C0
C0
FF
ENDCHAR
STARTCHAR 00CB
ENCODING 203
SWIDTH 600 0
DWIDTH 10 0
BBX 8 14 1 0
BITMAP
26
00
00
FF
C0
C0
C0
FE
FE
C0
C0
C0
C0
FF
ENDCHAR
STARTCHAR 00CC
ENCODING 204
SWIDTH 600 0
DWIDTH 10 0
BBX 6 15 2 0
BITMAP
40
20
10
00
FC
30
30
30
30
30
30
30
30
30
FC
ENDCHAR
STARTCHAR 00CD
ENCODING 205
SWIDTH 600 0
DWIDTH 10 0
BBX 6 15 2 0
BITMAP
0C
10
20
00
FC
30
30
30
30
30
30
30
30
30
FC
ENDCHAR
STARTCHAR 00CE
ENCODING 206
SWIDTH 600 0
DWIDTH 10 0
BBX 6 15 2 0
BITMAP
30
48
84
00
FC
30
30
30
30
30
30
30
30
30
FC
ENDCHAR
STARTCHAR 00CF
ENCODING 207
SWIDTH 600 0
DWIDTH 10 0
BBX 6 14 2 0
BITMAP
CC
00
00
FC
30
30
30
30
30
30
30
30
30
FC
ENDCHAR
STARTCHAR 00D0
ENCODING 208
SWIDTH 600 0
DWIDTH 10 0
BBX 10 11 0 0
BITMAP
7F00
6180
60C0
60C0
60C0
FCC0
60C0
60C0
6180
6380
7F00
ENDCHAR
STARTCHAR 00D1
ENCODING 209
SWIDTH 600 0
DWIDTH 10 0
BBX 8 15 1 0
BITMAP
32
7E
00
00
C3
E3
E3
F3
D3
DB
CB
CF
C7
C7
C3
ENDCHAR
STARTCHAR 00D2
ENCODING 210
SWIDTH 600 0
DWIDTH 10 0
BBX 8 15 1 0
BITMAP
20
10
08
18
7E
C3
C3
81
81
81
81
81
C3
E7
7E
ENDCHAR
STARTCHAR 00D3
ENCODING 211
SWIDTH 600 0
DWIDTH 10 0
BBX 8 15 1 0
BITMAP
06
08
10
18
7E
C3
C3
81
81
81
81
81
C3
E7
7E
ENDCHAR
STARTCHAR 00D4
ENCODING 212
SWIDTH 600 0
DWIDTH 10 0
BBX 8 15 1 0
BITMAP
18
24
42
18
7E
C3
C3
81
81
81
81
81
C3
E7
7E
ENDCHAR
STARTCHAR 00D5
ENCODING 213
SWIDTH 600 0
DWIDTH 10 0
BBX 8 15 1 0
BITMAP
32
7E
00
18
7E
C3
C3
81
81
81
81
81
C3
E7
7E
ENDCHAR
STARTCHAR 00D6
ENCODING 214
SWIDTH 600 0
DWIDTH 10 0
BBX 8 14 1 0
BITMAP
66
00
18
7E
C3
C3
81
81
81
81
81
C3
E7
7E
ENDCHAR
STARTCHAR 00D7
ENCODING 215
SWIDTH 600 0
DWIDTH 10 0
BBX 7 7 2 1
BITMAP
84
CE
78
30
78
CC
84
ENDCHAR
STARTCHAR 00D8
ENCODING 216
SWIDTH 600 0
DWIDTH 10 0
BBX 10 14 0 -1
BITMAP
00C0
0C80
3F00
6180
6380
4280
4480
4880
4880
5080
7180
7380
7F00
C000
ENDCHAR
STARTCHAR 00D9
ENCODING 217
SWIDTH 600 0
DWIDTH 10 0
BBX 8 15 1 0
BITMAP
20
10
08
00
C3
C3
C3
C3
C3
C3
C3
C3
C3
66
7E
ENDCHAR
STARTCHAR 00DA
ENCODING 218
SWIDTH 600 0
DWIDTH 10 0
BBX 8 15 1 0
BITMAP
06
08
10
00
C3
C3
C3
C3
C3
C3
C3
C3
C3
66
7E
ENDCHAR
STARTCHAR 00DB
ENCODING 219
SWIDTH 600 0
DWIDTH 10 0
BBX 8 15 1 0
BITMAP
18
24
42
00
C3
C3
C3
C3
C3
C3
C3
C3
C3
66
7E
ENDCHAR
STARTCHAR 00DC
ENCODING 220
SWIDTH 600 0
DWIDTH 10 0
BBX 8 14 1 0
BITMAP
66
00
00
C3
C3
C3
C3
C3
C3
C3
C3
C3
66
7E
ENDCHAR
STARTCHAR 00DD
ENCODING 221
SWIDTH 600 0
DWIDTH 10 0
BBX 10 15 0 0
BITMAP
0300
0400
0800
8040
6180
6180
3300
3300
1E00
1E00
0C00
0C00
0C00
0C00
0C00
ENDCHAR
STARTCHAR 00DE
ENCODING 222
SWIDTH 600 0
DWIDTH 10 0
BBX 9 11 1 0
BITMAP
C000
C000
FF00
C300
C180
C180
C300
FE00
C000
C000
C000
ENDCHAR
STARTCHAR 00DF
ENCODING 223
SWIDTH 600 0
DWIDTH 10 0
BBX 9 13 0 -1
BITMAP
1F00
3300
2180
E180
E100
6E00
6380
6180
6080
6180
6380
6E00
6000
ENDCHAR
STARTCHAR 00E0
ENCODING 224
SWIDTH 600 0
DWIDTH 10 0
BBX 8 13 1 0
BITMAP
20
30
10
08
38
7E
C2
02
3E
C2
C6
C6
7B
ENDCHAR
STARTCHAR 00E1
ENCODING 225
SWIDTH 600 0
DWIDTH 10 0
BBX 8 13 1 0
BITMAP
0C
08
18
00
38
7E
C2
02
3E
C2
C6
C6
7B
ENDCHAR
STARTCHAR 00E2
ENCODING 226
SWIDTH 600 0
DWIDTH 10 0
BBX 8 13 1 0
BITMAP
18
38
64
02
38
7E
C2
02
3E
C2
C6
C6
7B
ENDCHAR
STARTCHAR 00E3
ENCODING 227
SWIDTH 600 0
DWIDTH 10 0
BBX 8 12 1 0
BITMAP
72
4C
00
38
7E
C2
02
3E
C2
C6
C6
7B
ENDCHAR
STARTCHAR 00E4
ENCODING 228
SWIDTH 600 0
DWIDTH 10 0
BBX 8 12 1 0
BITMAP
64
64
00
38
7E
C2
02
3E
C2
C6
C6
7B
ENDCHAR
STARTCHAR 00E5
ENCODING 229
SWIDTH 600 0
DWIDTH 10 0
BBX 8 13 1 0
BITMAP
38
24
38
00
38
7E
C2
02
3E
C2
C6
C6
7B
ENDCHAR
STARTCHAR 00E6
ENCODING 230
SWIDTH 600 0
DWIDTH 10 0
BBX 10 9 0 0
BITMAP
3300
7F80
4CC0
0CC0
7FC0
4C00
CCC0
CCC0
7780
ENDCHAR
STARTCHAR 00E7
ENCODING 231
SWIDTH 600 0
DWIDTH 10 0
BBX 8 12 1 -3
BITMAP
18
7E
C2
C3
C0
C0
C3
66
3C
18
04
3C
ENDCHAR
STARTCHAR 00E8
ENCODING 232
SWIDTH 600 0
DWIDTH 10 0
BBX 8 13 1 0
BITMAP
30
10
18
00
18
7E
C3
C3
FF
C0
C3
62
3C
ENDCHAR
STARTCHAR 00E9
ENCODING 233
SWIDTH 600 0
DWIDTH 10 0
BBX 8 13 1 0
BITMAP
0C
08
18
00
18
7E
C3
C3
FF
C0
C3
62
3C
ENDCHAR
STARTCHAR 00EA
ENCODING 234
SWIDTH 600 0
DWIDTH 10 0
BBX 8 13 1 0
BITMAP
18
1C
26
40
18
7E
C3
C3
FF
C0
C3
62
3C
ENDCHAR
STARTCHAR 00EB
ENCODING 235
SWIDTH 600 0
DWIDTH 10 0
BBX 8 12 1 0
BITMAP
66
66
00
18
7E
C3
C3
FF
C0
C3
62
3C
ENDCHAR
STARTCHAR 00EC
ENCODING 236
SWIDTH 600 0
DWIDTH 10 0
BBX 7 13 2 0
BITMAP
60
20
10
00
F0
F0
10
10
10
10
10
10
FE
ENDCHAR
STARTCHAR 00ED
ENCODING 237
SWIDTH 600 0
DWIDTH 10 0
BBX 7 13 2 0
BITMAP
08
18
10
20
F0
F0
10
10
10
10
10
10
FE
ENDCHAR
STARTCHAR 00EE
ENCODING 238
SWIDTH 600 0
DWIDTH 10 0
BBX 7 13 2 0
BITMAP
10
38
4C
00
F0
F0
10
10
10
10
10
10
FE
ENDCHAR
STARTCHAR 00EF
ENCODING 239
SWIDTH 600 0
DWIDTH 10 0
BBX 7 12 2 0
BITMAP
4C
4C
00
F0
F0
10
10
10
10
10
10
FE
ENDCHAR
STARTCHAR 00F0
ENCODING 240
SWIDTH 600 0
DWIDTH 10 0
BBX 8 12 1 0
BITMAP
6C
38
4C
3E
7E
C3
C3
C3
C3
C3
66
3C
ENDCHAR
STARTCHAR 00F1
ENCODING 241
SWIDTH 600 0
DWIDTH 10 0
BBX 8 12 1 0
BITMAP
3A
4C
00
DC
FE
C3
C3
C3
C3
C3
C3
C3
ENDCHAR
STARTCHAR 00F2
ENCODING 242
SWIDTH 600 0
DWIDTH 10 0
BBX 8 13 1 0
BITMAP
30
10
18
00
18
7E
C3
C3
C3
C3
C3
66
3C
ENDCHAR
STARTCHAR 00F3
ENCODING 243
SWIDTH 600 0
DWIDTH 10 0
BBX 8 13 1 0
BITMAP
0C
08
18
00
18
7E
C3
C3
C3
C3
C3
66
3C
ENDCHAR
STARTCHAR 00F4
ENCODING 244
SWIDTH 600 0
DWIDTH 10 0
BBX 8 13 1 0
BITMAP
18
3C
66
00
18
7E
C3
C3
C3
C3
C3
66
3C
ENDCHAR
STARTCHAR 00F5
ENCODING 245
SWIDTH 600 0
DWIDTH 10 0
BBX 8 12 1 0
BITMAP
7A
4C
00
18
7E
C3
C3
C3
C3
C3
66
3C
ENDCHAR
STARTCHAR 00F6
ENCODING 246
SWIDTH 600 0
DWIDTH 10 0
BBX 8 12 1 0
BITMAP
66
66
00
18
7E
C3
C3
C3
C3
C3
66
3C
ENDCHAR
STARTCHAR 00F7
ENCODING 247
SWIDTH 600 0
DWIDTH 10 0
BBX 8 7 1 1
BITMAP
18
18
00
FF
00
00
18
ENDCHAR
STARTCHAR 00F8
ENCODING 248
SWIDTH 600 0
DWIDTH 10 0
BBX 8 11 1 -1
BITMAP
01
1A
7E
C7
CB
CB
D3
E3
66
7C
80
ENDCHAR
STARTCHAR 00F9
ENCODING 249
SWIDTH 600 0
DWIDTH 10 0
BBX 9 13 1 0
BITMAP
2000
3000
1800
0000
C200
C200
C200
C200
C200
C200
C200
E600
7B80
ENDCHAR
STARTCHAR 00FA
ENCODING 250
SWIDTH 600 0
DWIDTH 10 0
BBX 9 13 1 0
BITMAP
0C00
0800
1800
0000
C200
C200
C200
C200
C200
C200
C200
E600
7B80
ENDCHAR
STARTCHAR 00FB
ENCODING 251
SWIDTH 600 0
DWIDTH 10 0
BBX 9 13 1 0
BITMAP
1800
3800
6400
0200
C200
C200
C200
C200
C200
C200
C200
E600
7B80
ENDCHAR
STARTCHAR 00FC
ENCODING 252
SWIDTH 600 0
DWIDTH 10 0
BBX 9 12 1 0
BITMAP
6400
6400
0000
C200
C200
C200
C200
C200
C200
C200
E600
7B80
ENDCHAR
STARTCHAR 00FD
ENCODING 253
SWIDTH 600 0
DWIDTH 10 0
BBX 8 16 1 -3
BITMAP
0C
08
18
00
C3
C3
42
66
66
34
3C
18
18
18
30
E0
ENDCHAR
STARTCHAR 00FE
ENCODING 254
SWIDTH 600 0
DWIDTH 10 0
BBX 7 15 2 -3
BITMAP
80
80
80
B8
FC
C6
86
86
86
86
C4
BC
80
80
80
ENDCHAR
STARTCHAR 00FF
ENCODING 255
SWIDTH 600 0
DWIDTH 10 0
BBX 8 15 1 -3
BITMAP
26
26
00
C3
C3
42
66
66
34
3C
18
18
18
30
E0
ENDCHAR
STARTCHAR 0152
ENCODING 140
SWIDTH 600 0
DWIDTH 10 0
BBX 9 11 1 0
BITMAP
7F80
CC00
8C00
8C00
8C00
8F00
8C00
8C00
8C00
EC00
7F80
ENDCHAR
STARTCHAR 0153
ENCODING 156
SWIDTH 600 0
DWIDTH 10 0
BBX 10 9 0 0
BITMAP
3300
7F80
CCC0
CCC0
CFC0
CC00
CCC0
4CC0
7B80
ENDCHAR
STARTCHAR 0160
ENCODING 138
SWIDTH 600 0
DWIDTH 10 0
BBX 8 15 1 0
BITMAP
66
3C
00
18
7E
C3
C3
C0
78
1E
03
81
83
C3
7E
ENDCHAR
STARTCHAR 0161
ENCODING 154
SWIDTH 600 0
DWIDTH 10 0
BBX 8 13 1 0
BITMAP
66
24
18
00
18
7E
C2
60
7C
07
C3
C3
7E
ENDCHAR
STARTCHAR 0178
ENCODING 159
SWIDTH 600 0
DWIDTH 10 0
BBX 10 14 0 0
BITMAP
3300
0000
8040
6180
6180
3300
3300
1E00
1E00
0C00
0C00
0C00
0C00
0C00
ENDCHAR
STARTCHAR 017D
ENCODING 142
SWIDTH 600 0
DWIDTH 10 0
BBX 8 15 1 0
BITMAP
66
3C
00
00
FF
06
06
0C
18
18
30
70
60
C0
FF
ENDCHAR
STARTCHAR 017E
ENCODING 158
SWIDTH 600 0
DWIDTH 10 0
BBX 6 13 2 0
BITMAP
CC
48
30
00
FC
FC
18
18
30
20
60
C0
FC
ENDCHAR
STARTCHAR 0192
ENCODING 131
SWIDTH 600 0
DWIDTH 10 0
BBX 7 15 1 -3
BITMAP
0E
08
18
3E
3E
18
18
10
10
30
30
30
30
30
E0
ENDCHAR
STARTCHAR 02C6
ENCODING 136
SWIDTH 600 0
DWIDTH 10 0
BBX 6 3 2 10
BITMAP
30
78
CC
ENDCHAR
STARTCHAR 02DC
ENCODING 152
SWIDTH 600 0
DWIDTH 10 0
BBX 6 2 2 10
BITMAP
F4
98
ENDCHAR
STARTCHAR 2013
ENCODING 150
SWIDTH 600 0
DWIDTH 10 0
BBX 6 1 2 4
BITMAP
FC
ENDCHAR
STARTCHAR 2014
ENCODING 151
SWIDTH 600 0
DWIDTH 10 0
BBX 10 1 0 4
BITMAP
FFC0
ENDCHAR
STARTCHAR 2018
ENCODING 145
SWIDTH 600 0
DWIDTH 10 0
BBX 2 4 4 7
BITMAP
C0
80
C0
C0
ENDCHAR
STARTCHAR 2019
ENCODING 146
SWIDTH 600 0
DWIDTH 10 0
BBX 2 4 4 7
BITMAP
C0
C0
40
C0
ENDCHAR
STARTCHAR 201A
ENCODING 130
SWIDTH 600 0
DWIDTH 10 0
BBX 2 4 4 -2
BITMAP
C0
C0
40
C0
ENDCHAR
STARTCHAR 201C
ENCODING 147
SWIDTH 600 0
DWIDTH 10 0
BBX 6 4 2 7
BITMAP
4C
48
CC
CC
ENDCHAR
STARTCHAR 201D
ENCODING 148
SWIDTH 600 0
DWIDTH 10 0
BBX 6 4 2 7
BITMAP
CC
CC
48
C8
ENDCHAR
STARTCHAR 201E
ENCODING 132
SWIDTH 600 0
DWIDTH 10 0
BBX 6 4 2 -2
BITMAP
CC
CC
48
C8
ENDCHAR
STARTCHAR 2020
ENCODING 134
SWIDTH 600 0
DWIDTH 10 0
BBX 8 14 1 -3
BITMAP
18
18
89
FF
08
18
18
18
18
18
18
18
18
18
ENDCHAR
STARTCHAR 2021
ENCODING 135
SWIDTH 600 0
DWIDTH 10 0
BBX 8 14 1 -3
BITMAP
18
18
89
FF
18
18
18
18
18
89
FF
18
18
18
ENDCHAR
STARTCHAR 2022
ENCODING 149
SWIDTH 600 0
DWIDTH 10 0
BBX 6 5 2 3
BITMAP
78
78
FC
78
30
ENDCHAR
STARTCHAR 2026
ENCODING 133
SWIDTH 600 0
DWIDTH 10 0
BBX 8 2 1 0
BITMAP
DB
DB
ENDCHAR
STARTCHAR 2030
ENCODING 137
SWIDTH 600 0
DWIDTH 10 0
BBX 10 11 0 0
BITMAP
7800
4800
4800
5800
2000
FFC0
7380
4C80
4C80
4C80
7380
ENDCHAR
STARTCHAR 2039
ENCODING 139
SWIDTH 600 0
DWIDTH 10 0
BBX 4 6 3 3
BITMAP
30
20
60
C0
60
30
ENDCHAR
STARTCHAR 203A
ENCODING 155
SWIDTH 600 0
DWIDTH 10 0
BBX 4 6 3 3
BITMAP
C0
40
60
30
60
C0
ENDCHAR
STARTCHAR 20AC
ENCODING 128
SWIDTH 600 0
DWIDTH 10 0
BBX 9 12 0 0
BITMAP
0300
0F80
1800
3000
3000
FE00
3000
FE00
3000
1800
1C00
0780
ENDCHAR
STARTCHAR 2122
ENCODING 153
SWIDTH 600 0
DWIDTH 10 0
BBX 10 6 0 5
BITMAP
FCC0
4CC0
4D40
4B40
4B40
4B40
ENDCHAR
ENDFONT
