STARTFONT 2.1
COMMENT
COMMENT Converted from OpenType font "ChivoMono-Regular.ttf" by "otf2bdf 3.0".
COMMENT
FONT -FreeType-chivo mono-Medium-R-Normal--14-100-100-100-P-65-Windows-cp1252
SIZE 10 100 100
FONTBOUNDINGBOX 8 16 0 -3
STARTPROPERTIES 19
FOUNDRY "FreeType"
FAMILY_NAME "chivo mono"
WEIGHT_NAME "Medium"
SLANT "R"
SETWIDTH_NAME "Normal"
ADD_STYLE_NAME ""
PIXEL_SIZE 14
POINT_SIZE 100
RESOLUTION_X 100
RESOLUTION_Y 100
SPACING "P"
AVERAGE_WIDTH 65
CHARSET_REGISTRY "Windows"
CHARSET_ENCODING "cp1252"
FONT_ASCENT 13
FONT_DESCENT 3
COPYRIGHT "Copyright 2018 The Chivo Project Authors (https://github.com/Omnibus-Type/Chivo)"
_OTF_FONTFILE "ChivoMono-Regular.ttf"
_OTF_PSNAME "ChivoMono-Regular"
ENDPROPERTIES
CHARS 219
STARTCHAR 000D
ENCODING 13
SWIDTH 576 0
DWIDTH 8 0
BBX 0 0 0 0
BITMAP
ENDCHAR
STARTCHAR 0020
ENCODING 32
SWIDTH 576 0
DWIDTH 8 0
BBX 0 0 0 0
BITMAP
ENDCHAR
STARTCHAR 0021
ENCODING 33
SWIDTH 576 0
DWIDTH 8 0
BBX 2 10 3 0
BITMAP
C0
C0
C0
C0
40
40
40
00
C0
C0
ENDCHAR
STARTCHAR 0022
ENCODING 34
SWIDTH 576 0
DWIDTH 8 0
BBX 3 4 3 6
BITMAP
A0
A0
A0
A0
ENDCHAR
STARTCHAR 0023
ENCODING 35
SWIDTH 576 0
DWIDTH 8 0
BBX 8 10 0 0
BITMAP
12
12
12
7F
26
24
FF
24
44
48
ENDCHAR
STARTCHAR 0024
ENCODING 36
SWIDTH 576 0
DWIDTH 8 0
BBX 7 12 1 -1
BITMAP
10
10
7C
84
80
F0
3C
06
86
CC
38
10
ENDCHAR
STARTCHAR 0025
ENCODING 37
SWIDTH 576 0
DWIDTH 8 0
BBX 8 10 0 0
BITMAP
41
A1
92
94
E8
03
15
25
45
87
ENDCHAR
STARTCHAR 0026
ENCODING 38
SWIDTH 576 0
DWIDTH 8 0
BBX 7 10 1 0
BITMAP
30
F0
80
84
64
7E
84
84
C4
7C
ENDCHAR
STARTCHAR 0027
ENCODING 39
SWIDTH 576 0
DWIDTH 8 0
BBX 1 4 4 6
BITMAP
80
80
80
80
ENDCHAR
STARTCHAR 0028
ENCODING 40
SWIDTH 576 0
DWIDTH 8 0
BBX 3 12 3 -2
BITMAP
20
40
40
C0
80
80
80
80
80
40
40
20
ENDCHAR
STARTCHAR 0029
ENCODING 41
SWIDTH 576 0
DWIDTH 8 0
BBX 3 12 2 -2
BITMAP
80
40
60
20
20
20
20
20
20
20
40
C0
ENDCHAR
STARTCHAR 002A
ENCODING 42
SWIDTH 576 0
DWIDTH 8 0
BBX 6 6 1 4
BITMAP
10
10
DC
30
38
48
ENDCHAR
STARTCHAR 002B
ENCODING 43
SWIDTH 576 0
DWIDTH 8 0
BBX 7 7 1 0
BITMAP
10
10
10
FE
10
10
10
ENDCHAR
STARTCHAR 002C
ENCODING 44
SWIDTH 576 0
DWIDTH 8 0
BBX 2 4 3 -2
BITMAP
C0
C0
40
C0
ENDCHAR
STARTCHAR 002D
ENCODING 45
SWIDTH 576 0
DWIDTH 8 0
BBX 4 1 2 3
BITMAP
F0
ENDCHAR
STARTCHAR 002E
ENCODING 46
SWIDTH 576 0
DWIDTH 8 0
BBX 2 2 3 0
BITMAP
C0
C0
ENDCHAR
STARTCHAR 002F
ENCODING 47
SWIDTH 576 0
DWIDTH 8 0
BBX 8 12 0 -2
BITMAP
01
03
02
04
04
08
08
10
30
20
40
C0
ENDCHAR
STARTCHAR 0030
ENCODING 48
SWIDTH 576 0
DWIDTH 8 0
BBX 6 10 1 0
BITMAP
30
6C
84
84
84
84
84
84
CC
78
ENDCHAR
STARTCHAR 0031
ENCODING 49
SWIDTH 576 0
DWIDTH 8 0
BBX 7 10 1 0
BITMAP
10
F0
10
10
10
10
10
10
10
FE
ENDCHAR
STARTCHAR 0032
ENCODING 50
SWIDTH 576 0
DWIDTH 8 0
BBX 7 10 1 0
BITMAP
38
7C
84
84
04
1C
30
60
C0
FE
ENDCHAR
STARTCHAR 0033
ENCODING 51
SWIDTH 576 0
DWIDTH 8 0
BBX 6 10 1 0
BITMAP
30
FC
84
04
0C
3C
04
84
84
78
ENDCHAR
STARTCHAR 0034
ENCODING 52
SWIDTH 576 0
DWIDTH 8 0
BBX 7 10 1 0
BITMAP
30
20
24
68
48
88
FE
FE
08
08
ENDCHAR
STARTCHAR 0035
ENCODING 53
SWIDTH 576 0
DWIDTH 8 0
BBX 7 10 1 0
BITMAP
7C
7C
C0
C0
FC
C4
06
84
CC
78
ENDCHAR
STARTCHAR 0036
ENCODING 54
SWIDTH 576 0
DWIDTH 8 0
BBX 7 10 1 0
BITMAP
30
6C
C4
80
B8
C4
86
86
C4
78
ENDCHAR
STARTCHAR 0037
ENCODING 55
SWIDTH 576 0
DWIDTH 8 0
BBX 7 10 1 0
BITMAP
FE
FC
0C
08
10
10
30
20
20
60
ENDCHAR
STARTCHAR 0038
ENCODING 56
SWIDTH 576 0
DWIDTH 8 0
BBX 7 10 1 0
BITMAP
30
4C
84
84
4C
7C
84
86
C4
7C
ENDCHAR
STARTCHAR 0039
ENCODING 57
SWIDTH 576 0
DWIDTH 8 0
BBX 6 10 1 0
BITMAP
30
CC
84
84
84
FC
04
84
CC
78
ENDCHAR
STARTCHAR 003A
ENCODING 58
SWIDTH 576 0
DWIDTH 8 0
BBX 2 7 3 0
BITMAP
C0
C0
00
00
00
C0
C0
ENDCHAR
STARTCHAR 003B
ENCODING 59
SWIDTH 576 0
DWIDTH 8 0
BBX 2 9 3 -2
BITMAP
C0
C0
00
00
00
C0
C0
40
C0
ENDCHAR
STARTCHAR 003C
ENCODING 60
SWIDTH 576 0
DWIDTH 8 0
BBX 8 7 0 0
BITMAP
03
0E
70
C0
70
0E
03
ENDCHAR
STARTCHAR 003D
ENCODING 61
SWIDTH 576 0
DWIDTH 8 0
BBX 7 5 1 1
BITMAP
FE
FE
00
FE
FE
ENDCHAR
STARTCHAR 003E
ENCODING 62
SWIDTH 576 0
DWIDTH 8 0
BBX 7 7 1 0
BITMAP
80
70
1C
02
1C
E0
80
ENDCHAR
STARTCHAR 003F
ENCODING 63
SWIDTH 576 0
DWIDTH 8 0
BBX 6 10 1 0
BITMAP
30
6C
C4
C4
0C
18
10
00
30
30
ENDCHAR
STARTCHAR 0040
ENCODING 64
SWIDTH 576 0
DWIDTH 8 0
BBX 8 12 0 -2
BITMAP
1C
62
41
BD
A5
85
BD
A5
A5
BB
40
3C
ENDCHAR
STARTCHAR 0041
ENCODING 65
SWIDTH 576 0
DWIDTH 8 0
BBX 8 10 0 0
BITMAP
18
18
1C
34
24
26
62
7E
43
C1
ENDCHAR
STARTCHAR 0042
ENCODING 66
SWIDTH 576 0
DWIDTH 8 0
BBX 7 10 1 0
BITMAP
F0
FC
84
84
8C
FC
86
86
84
FC
ENDCHAR
STARTCHAR 0043
ENCODING 67
SWIDTH 576 0
DWIDTH 8 0
BBX 7 10 1 0
BITMAP
38
FC
84
86
80
80
86
86
C4
78
ENDCHAR
STARTCHAR 0044
ENCODING 68
SWIDTH 576 0
DWIDTH 8 0
BBX 7 10 1 0
BITMAP
F0
FC
C6
C2
C2
C2
C2
C6
C6
F8
ENDCHAR
STARTCHAR 0045
ENCODING 69
SWIDTH 576 0
DWIDTH 8 0
BBX 7 10 1 0
BITMAP
FC
FC
C0
C0
C0
FC
C0
C0
C0
FE
ENDCHAR
STARTCHAR 0046
ENCODING 70
SWIDTH 576 0
DWIDTH 8 0
BBX 6 10 1 0
BITMAP
FC
FC
C0
C0
C0
F8
C0
C0
C0
C0
ENDCHAR
STARTCHAR 0047
ENCODING 71
SWIDTH 576 0
DWIDTH 8 0
BBX 7 10 1 0
BITMAP
30
FC
86
86
80
9E
86
86
C6
7A
ENDCHAR
STARTCHAR 0048
ENCODING 72
SWIDTH 576 0
DWIDTH 8 0
BBX 6 10 1 0
BITMAP
84
84
84
84
84
FC
84
84
84
84
ENDCHAR
STARTCHAR 0049
ENCODING 73
SWIDTH 576 0
DWIDTH 8 0
BBX 6 10 1 0
BITMAP
FC
FC
30
30
30
30
30
30
30
FC
ENDCHAR
STARTCHAR 004A
ENCODING 74
SWIDTH 576 0
DWIDTH 8 0
BBX 6 10 1 0
BITMAP
04
04
04
04
04
04
04
C4
CC
78
ENDCHAR
STARTCHAR 004B
ENCODING 75
SWIDTH 576 0
DWIDTH 8 0
BBX 7 10 1 0
BITMAP
86
84
8C
98
B0
B0
D8
8C
8C
86
ENDCHAR
STARTCHAR 004C
ENCODING 76
SWIDTH 576 0
DWIDTH 8 0
BBX 6 10 1 0
BITMAP
C0
C0
C0
C0
C0
C0
C0
C0
C0
FC
ENDCHAR
STARTCHAR 004D
ENCODING 77
SWIDTH 576 0
DWIDTH 8 0
BBX 7 10 1 0
BITMAP
C6
CE
CE
CE
EE
AE
B6
B6
B6
B6
ENDCHAR
STARTCHAR 004E
ENCODING 78
SWIDTH 576 0
DWIDTH 8 0
BBX 6 10 1 0
BITMAP
84
C4
C4
A4
B4
94
9C
8C
8C
84
ENDCHAR
STARTCHAR 004F
ENCODING 79
SWIDTH 576 0
DWIDTH 8 0
BBX 7 10 1 0
BITMAP
38
FC
86
86
86
86
86
86
C4
78
ENDCHAR
STARTCHAR 0050
ENCODING 80
SWIDTH 576 0
DWIDTH 8 0
BBX 7 10 1 0
BITMAP
F8
FC
86
86
86
FC
80
80
80
80
ENDCHAR
STARTCHAR 0051
ENCODING 81
SWIDTH 576 0
DWIDTH 8 0
BBX 7 12 1 -2
BITMAP
38
FC
86
86
86
86
86
86
C4
78
10
1E
ENDCHAR
STARTCHAR 0052
ENCODING 82
SWIDTH 576 0
DWIDTH 8 0
BBX 7 10 1 0
BITMAP
F8
FC
86
86
84
FC
84
86
86
86
ENDCHAR
STARTCHAR 0053
ENCODING 83
SWIDTH 576 0
DWIDTH 8 0
BBX 7 10 1 0
BITMAP
38
EC
86
80
F0
3C
06
86
86
7C
ENDCHAR
STARTCHAR 0054
ENCODING 84
SWIDTH 576 0
DWIDTH 8 0
BBX 8 10 0 0
BITMAP
FF
FF
18
18
18
18
18
18
18
18
ENDCHAR
STARTCHAR 0055
ENCODING 85
SWIDTH 576 0
DWIDTH 8 0
BBX 6 10 1 0
BITMAP
84
84
84
84
84
84
84
84
CC
78
ENDCHAR
STARTCHAR 0056
ENCODING 86
SWIDTH 576 0
DWIDTH 8 0
BBX 8 10 0 0
BITMAP
C1
43
42
62
26
26
34
34
1C
18
ENDCHAR
STARTCHAR 0057
ENCODING 87
SWIDTH 576 0
DWIDTH 8 0
BBX 8 10 0 0
BITMAP
89
99
D9
D9
59
57
56
66
66
66
ENDCHAR
STARTCHAR 0058
ENCODING 88
SWIDTH 576 0
DWIDTH 8 0
BBX 8 10 0 0
BITMAP
C3
62
26
34
18
18
3C
26
62
C3
ENDCHAR
STARTCHAR 0059
ENCODING 89
SWIDTH 576 0
DWIDTH 8 0
BBX 8 10 0 0
BITMAP
C1
43
62
24
3C
18
18
18
18
18
ENDCHAR
STARTCHAR 005A
ENCODING 90
SWIDTH 576 0
DWIDTH 8 0
BBX 7 10 1 0
BITMAP
FE
FC
0C
18
10
30
60
40
C0
FE
ENDCHAR
STARTCHAR 005B
ENCODING 91
SWIDTH 576 0
DWIDTH 8 0
BBX 3 12 3 -2
BITMAP
E0
C0
C0
C0
C0
C0
C0
C0
C0
C0
C0
E0
ENDCHAR
STARTCHAR 005C
ENCODING 92
SWIDTH 576 0
DWIDTH 8 0
BBX 8 12 0 -2
BITMAP
80
40
60
20
10
10
08
08
04
04
02
03
ENDCHAR
STARTCHAR 005D
ENCODING 93
SWIDTH 576 0
DWIDTH 8 0
BBX 3 12 2 -2
BITMAP
E0
20
20
20
20
20
20
20
20
20
20
E0
ENDCHAR
STARTCHAR 005E
ENCODING 94
SWIDTH 576 0
DWIDTH 8 0
BBX 7 7 1 0
BITMAP
30
38
68
48
4C
84
86
ENDCHAR
STARTCHAR 005F
ENCODING 95
SWIDTH 576 0
DWIDTH 8 0
BBX 7 1 1 -2
BITMAP
FE
ENDCHAR
STARTCHAR 0060
ENCODING 96
SWIDTH 576 0
DWIDTH 8 0
BBX 2 3 3 8
BITMAP
80
40
40
ENDCHAR
STARTCHAR 0061
ENCODING 97
SWIDTH 576 0
DWIDTH 8 0
BBX 7 7 1 0
BITMAP
78
CC
0C
7C
8C
8C
F6
ENDCHAR
STARTCHAR 0062
ENCODING 98
SWIDTH 576 0
DWIDTH 8 0
BBX 7 10 1 0
BITMAP
C0
C0
C0
FC
C4
C6
C6
C4
C4
B8
ENDCHAR
STARTCHAR 0063
ENCODING 99
SWIDTH 576 0
DWIDTH 8 0
BBX 6 7 1 0
BITMAP
78
C4
84
80
84
C4
78
ENDCHAR
STARTCHAR 0064
ENCODING 100
SWIDTH 576 0
DWIDTH 8 0
BBX 6 10 1 0
BITMAP
04
04
04
7C
CC
84
84
84
CC
74
ENDCHAR
STARTCHAR 0065
ENCODING 101
SWIDTH 576 0
DWIDTH 8 0
BBX 6 7 1 0
BITMAP
78
C4
84
FC
84
C4
78
ENDCHAR
STARTCHAR 0066
ENCODING 102
SWIDTH 576 0
DWIDTH 8 0
BBX 7 10 1 0
BITMAP
1E
30
30
FC
30
30
30
30
30
FC
ENDCHAR
STARTCHAR 0067
ENCODING 103
SWIDTH 576 0
DWIDTH 8 0
BBX 7 11 1 -3
BITMAP
06
7C
C4
C4
7C
C0
C0
7E
82
86
7C
ENDCHAR
STARTCHAR 0068
ENCODING 104
SWIDTH 576 0
DWIDTH 8 0
BBX 6 10 1 0
BITMAP
C0
C0
C0
FC
C4
C4
C4
C4
C4
C4
ENDCHAR
STARTCHAR 0069
ENCODING 105
SWIDTH 576 0
DWIDTH 8 0
BBX 7 10 1 0
BITMAP
10
00
00
F0
10
10
10
10
10
FE
ENDCHAR
STARTCHAR 006A
ENCODING 106
SWIDTH 576 0
DWIDTH 8 0
BBX 4 13 1 -3
BITMAP
10
00
00
F0
10
10
10
10
10
10
10
B0
60
ENDCHAR
STARTCHAR 006B
ENCODING 107
SWIDTH 576 0
DWIDTH 8 0
BBX 7 10 1 0
BITMAP
80
80
80
8C
98
90
B0
D8
88
8E
ENDCHAR
STARTCHAR 006C
ENCODING 108
SWIDTH 576 0
DWIDTH 8 0
BBX 6 10 1 0
BITMAP
F0
10
10
10
10
10
10
10
10
FC
ENDCHAR
STARTCHAR 006D
ENCODING 109
SWIDTH 576 0
DWIDTH 8 0
BBX 7 7 1 0
BITMAP
EC
96
96
96
96
96
96
ENDCHAR
STARTCHAR 006E
ENCODING 110
SWIDTH 576 0
DWIDTH 8 0
BBX 6 7 1 0
BITMAP
BC
C4
C4
C4
C4
C4
C4
ENDCHAR
STARTCHAR 006F
ENCODING 111
SWIDTH 576 0
DWIDTH 8 0
BBX 6 7 1 0
BITMAP
78
C4
84
84
84
C4
78
ENDCHAR
STARTCHAR 0070
ENCODING 112
SWIDTH 576 0
DWIDTH 8 0
BBX 7 10 1 -3
BITMAP
BC
C4
C6
C6
C4
C4
F8
C0
C0
C0
ENDCHAR
STARTCHAR 0071
ENCODING 113
SWIDTH 576 0
DWIDTH 8 0
BBX 6 10 1 -3
BITMAP
7C
CC
84
84
84
CC
74
04
04
04
ENDCHAR
STARTCHAR 0072
ENCODING 114
SWIDTH 576 0
DWIDTH 8 0
BBX 7 7 1 0
BITMAP
FC
66
62
60
60
60
FC
ENDCHAR
STARTCHAR 0073
ENCODING 115
SWIDTH 576 0
DWIDTH 8 0
BBX 6 7 1 0
BITMAP
7C
C4
C0
7C
04
84
7C
ENDCHAR
STARTCHAR 0074
ENCODING 116
SWIDTH 576 0
DWIDTH 8 0
BBX 6 9 1 0
BITMAP
20
20
FC
20
20
20
20
20
3C
ENDCHAR
STARTCHAR 0075
ENCODING 117
SWIDTH 576 0
DWIDTH 8 0
BBX 7 7 1 0
BITMAP
84
84
84
84
84
CC
76
ENDCHAR
STARTCHAR 0076
ENCODING 118
SWIDTH 576 0
DWIDTH 8 0
BBX 7 7 1 0
BITMAP
86
C4
4C
68
68
30
30
ENDCHAR
STARTCHAR 0077
ENCODING 119
SWIDTH 576 0
DWIDTH 8 0
BBX 8 7 0 0
BITMAP
99
D9
59
57
56
66
66
ENDCHAR
STARTCHAR 0078
ENCODING 120
SWIDTH 576 0
DWIDTH 8 0
BBX 7 7 1 0
BITMAP
C4
68
38
30
78
4C
C6
ENDCHAR
STARTCHAR 0079
ENCODING 121
SWIDTH 576 0
DWIDTH 8 0
BBX 7 10 1 -3
BITMAP
86
C4
4C
68
28
30
30
30
E0
40
ENDCHAR
STARTCHAR 007A
ENCODING 122
SWIDTH 576 0
DWIDTH 8 0
BBX 6 7 1 0
BITMAP
7C
08
10
30
20
60
FC
ENDCHAR
STARTCHAR 007B
ENCODING 123
SWIDTH 576 0
DWIDTH 8 0
BBX 3 12 3 -2
BITMAP
20
40
40
40
40
C0
80
40
40
40
40
60
ENDCHAR
STARTCHAR 007C
ENCODING 124
SWIDTH 576 0
DWIDTH 8 0
BBX 1 13 4 -3
BITMAP
80
80
80
80
80
80
80
80
80
80
80
80
80
ENDCHAR
STARTCHAR 007D
ENCODING 125
SWIDTH 576 0
DWIDTH 8 0
BBX 4 12 2 -2
BITMAP
80
60
20
20
20
20
30
20
20
20
20
C0
ENDCHAR
STARTCHAR 007E
ENCODING 126
SWIDTH 576 0
DWIDTH 8 0
BBX 8 2 0 3
BITMAP
79
8E
ENDCHAR
STARTCHAR 00A0
ENCODING 160
SWIDTH 576 0
DWIDTH 8 0
BBX 0 0 0 0
BITMAP
ENDCHAR
STARTCHAR 00A1
ENCODING 161
SWIDTH 576 0
DWIDTH 8 0
BBX 2 9 3 -2
BITMAP
C0
C0
40
40
40
40
C0
C0
C0
ENDCHAR
STARTCHAR 00A2
ENCODING 162
SWIDTH 576 0
DWIDTH 8 0
BBX 6 10 1 0
BITMAP
10
10
7C
C4
C0
C0
C4
44
38
10
ENDCHAR
STARTCHAR 00A3
ENCODING 163
SWIDTH 576 0
DWIDTH 8 0
BBX 8 10 0 0
BITMAP
0C
36
23
20
20
FC
20
20
20
7E
ENDCHAR
STARTCHAR 00A4
ENCODING 164
SWIDTH 576 0
DWIDTH 8 0
BBX 7 7 1 1
BITMAP
FE
C4
86
82
84
CC
B2
ENDCHAR
STARTCHAR 00A5
ENCODING 165
SWIDTH 576 0
DWIDTH 8 0
BBX 8 10 0 0
BITMAP
C1
43
62
24
7F
18
7F
18
18
18
ENDCHAR
STARTCHAR 00A6
ENCODING 166
SWIDTH 576 0
DWIDTH 8 0
BBX 1 13 4 -3
BITMAP
80
80
80
80
80
00
00
00
80
80
80
80
80
ENDCHAR
STARTCHAR 00A7
ENCODING 167
SWIDTH 576 0
DWIDTH 8 0
BBX 6 13 1 -3
BITMAP
30
4C
C4
40
70
8C
84
64
38
0C
C4
4C
30
ENDCHAR
STARTCHAR 00A8
ENCODING 168
SWIDTH 576 0
DWIDTH 8 0
BBX 4 1 2 9
BITMAP
90
ENDCHAR
STARTCHAR 00A9
ENCODING 169
SWIDTH 576 0
DWIDTH 8 0
BBX 8 10 0 0
BITMAP
3C
42
99
A5
A3
A1
A5
BD
41
3E
ENDCHAR
STARTCHAR 00AA
ENCODING 170
SWIDTH 576 0
DWIDTH 8 0
BBX 4 5 2 5
BITMAP
60
90
70
90
F0
ENDCHAR
STARTCHAR 00AB
ENCODING 171
SWIDTH 576 0
DWIDTH 8 0
BBX 6 5 1 2
BITMAP
2C
48
D8
48
24
ENDCHAR
STARTCHAR 00AC
ENCODING 172
SWIDTH 576 0
DWIDTH 8 0
BBX 7 4 1 2
BITMAP
FE
06
06
06
ENDCHAR
STARTCHAR 00AD
ENCODING 173
SWIDTH 576 0
DWIDTH 8 0
BBX 4 1 2 3
BITMAP
F0
ENDCHAR
STARTCHAR 00AE
ENCODING 174
SWIDTH 576 0
DWIDTH 8 0
BBX 8 10 0 0
BITMAP
3C
42
B9
A5
A5
BD
A5
A7
41
3E
ENDCHAR
STARTCHAR 00AF
ENCODING 175
SWIDTH 576 0
DWIDTH 8 0
BBX 4 1 2 9
BITMAP
F0
ENDCHAR
STARTCHAR 00B0
ENCODING 176
SWIDTH 576 0
DWIDTH 8 0
BBX 4 5 2 5
BITMAP
60
90
90
D0
20
ENDCHAR
STARTCHAR 00B1
ENCODING 177
SWIDTH 576 0
DWIDTH 8 0
BBX 7 7 1 0
BITMAP
10
10
FE
10
10
00
FE
ENDCHAR
STARTCHAR 00B2
ENCODING 178
SWIDTH 576 0
DWIDTH 8 0
BBX 4 5 2 6
BITMAP
70
90
30
40
F0
ENDCHAR
STARTCHAR 00B3
ENCODING 179
SWIDTH 576 0
DWIDTH 8 0
BBX 4 5 2 6
BITMAP
70
90
60
10
F0
ENDCHAR
STARTCHAR 00B4
ENCODING 180
SWIDTH 576 0
DWIDTH 8 0
BBX 2 3 3 8
BITMAP
40
40
80
ENDCHAR
STARTCHAR 00B5
ENCODING 181
SWIDTH 576 0
DWIDTH 8 0
BBX 7 9 1 -2
BITMAP
84
84
84
84
84
CC
F6
80
80
ENDCHAR
STARTCHAR 00B6
ENCODING 182
SWIDTH 576 0
DWIDTH 8 0
BBX 6 12 1 -2
BITMAP
3C
E8
E8
E8
E8
E8
28
28
28
28
28
28
ENDCHAR
STARTCHAR 00B7
ENCODING 183
SWIDTH 576 0
DWIDTH 8 0
BBX 2 2 3 4
BITMAP
C0
C0
ENDCHAR
STARTCHAR 00B8
ENCODING 184
SWIDTH 576 0
DWIDTH 8 0
BBX 3 3 3 -3
BITMAP
40
20
C0
ENDCHAR
STARTCHAR 00B9
ENCODING 185
SWIDTH 576 0
DWIDTH 8 0
BBX 4 5 2 6
BITMAP
E0
20
20
20
F0
ENDCHAR
STARTCHAR 00BA
ENCODING 186
SWIDTH 576 0
DWIDTH 8 0
BBX 4 5 2 5
BITMAP
60
90
90
90
60
ENDCHAR
STARTCHAR 00BB
ENCODING 187
SWIDTH 576 0
DWIDTH 8 0
BBX 5 5 2 2
BITMAP
B0
D0
48
90
A0
ENDCHAR
STARTCHAR 00BC
ENCODING 188
SWIDTH 576 0
DWIDTH 8 0
BBX 8 10 0 0
BITMAP
01
C1
42
44
48
E2
15
25
4F
81
ENDCHAR
STARTCHAR 00BD
ENCODING 189
SWIDTH 576 0
DWIDTH 8 0
BBX 8 10 0 0
BITMAP
01
C2
42
44
48
E7
15
21
46
87
ENDCHAR
STARTCHAR 00BE
ENCODING 190
SWIDTH 576 0
DWIDTH 8 0
BBX 8 10 0 0
BITMAP
E1
11
62
14
F8
02
15
25
4F
81
ENDCHAR
STARTCHAR 00BF
ENCODING 191
SWIDTH 576 0
DWIDTH 8 0
BBX 6 10 1 -3
BITMAP
30
30
30
30
20
C0
C4
C4
7C
30
ENDCHAR
STARTCHAR 00C0
ENCODING 192
SWIDTH 576 0
DWIDTH 8 0
BBX 8 12 0 0
BITMAP
30
08
18
18
1C
34
24
26
62
7E
43
C1
ENDCHAR
STARTCHAR 00C1
ENCODING 193
SWIDTH 576 0
DWIDTH 8 0
BBX 8 12 0 0
BITMAP
0C
08
18
18
1C
34
24
26
62
7E
43
C1
ENDCHAR
STARTCHAR 00C2
ENCODING 194
SWIDTH 576 0
DWIDTH 8 0
BBX 8 12 0 0
BITMAP
1C
20
18
18
1C
34
24
26
62
7E
43
C1
ENDCHAR
STARTCHAR 00C3
ENCODING 195
SWIDTH 576 0
DWIDTH 8 0
BBX 8 12 0 0
BITMAP
3E
00
18
18
1C
34
24
26
62
7E
43
C1
ENDCHAR
STARTCHAR 00C4
ENCODING 196
SWIDTH 576 0
DWIDTH 8 0
BBX 8 12 0 0
BITMAP
24
00
18
18
1C
34
24
26
62
7E
43
C1
ENDCHAR
STARTCHAR 00C5
ENCODING 197
SWIDTH 576 0
DWIDTH 8 0
BBX 8 13 0 0
BITMAP
18
14
18
18
18
1C
34
24
26
62
7E
43
C1
ENDCHAR
STARTCHAR 00C6
ENCODING 198
SWIDTH 576 0
DWIDTH 8 0
BBX 8 10 0 0
BITMAP
1F
1F
38
28
28
6E
68
78
C8
CF
ENDCHAR
STARTCHAR 00C7
ENCODING 199
SWIDTH 576 0
DWIDTH 8 0
BBX 7 13 1 -3
BITMAP
38
FC
84
86
80
80
86
86
C4
78
10
08
30
ENDCHAR
STARTCHAR 00C8
ENCODING 200
SWIDTH 576 0
DWIDTH 8 0
BBX 7 12 1 0
BITMAP
60
10
FC
FC
C0
C0
C0
FC
C0
C0
C0
FE
ENDCHAR
STARTCHAR 00C9
ENCODING 201
SWIDTH 576 0
DWIDTH 8 0
BBX 7 12 1 0
BITMAP
0C
10
FC
FC
C0
C0
C0
FC
C0
C0
C0
FE
ENDCHAR
STARTCHAR 00CA
ENCODING 202
SWIDTH 576 0
DWIDTH 8 0
BBX 7 12 1 0
BITMAP
38
44
FC
FC
C0
C0
C0
FC
C0
C0
C0
FE
ENDCHAR
STARTCHAR 00CB
ENCODING 203
SWIDTH 576 0
DWIDTH 8 0
BBX 7 12 1 0
BITMAP
6C
00
FC
FC
C0
C0
C0
FC
C0
C0
C0
FE
ENDCHAR
STARTCHAR 00CC
ENCODING 204
SWIDTH 576 0
DWIDTH 8 0
BBX 6 12 1 0
BITMAP
60
10
FC
FC
30
30
30
30
30
30
30
FC
ENDCHAR
STARTCHAR 00CD
ENCODING 205
SWIDTH 576 0
DWIDTH 8 0
BBX 6 12 1 0
BITMAP
18
10
FC
FC
30
30
30
30
30
30
30
FC
ENDCHAR
STARTCHAR 00CE
ENCODING 206
SWIDTH 576 0
DWIDTH 8 0
BBX 6 12 1 0
BITMAP
38
40
FC
FC
30
30
30
30
30
30
30
FC
ENDCHAR
STARTCHAR 00CF
ENCODING 207
SWIDTH 576 0
DWIDTH 8 0
BBX 6 12 1 0
BITMAP
48
00
FC
FC
30
30
30
30
30
30
30
FC
ENDCHAR
STARTCHAR 00D0
ENCODING 208
SWIDTH 576 0
DWIDTH 8 0
BBX 8 10 0 0
BITMAP
78
7E
63
61
61
F9
61
63
63
7C
ENDCHAR
STARTCHAR 00D1
ENCODING 209
SWIDTH 576 0
DWIDTH 8 0
BBX 6 12 1 0
BITMAP
7C
00
84
C4
C4
A4
B4
94
9C
8C
8C
84
ENDCHAR
STARTCHAR 00D2
ENCODING 210
SWIDTH 576 0
DWIDTH 8 0
BBX 7 12 1 0
BITMAP
60
10
38
FC
86
86
86
86
86
86
C4
78
ENDCHAR
STARTCHAR 00D3
ENCODING 211
SWIDTH 576 0
DWIDTH 8 0
BBX 7 12 1 0
BITMAP
18
10
38
FC
86
86
86
86
86
86
C4
78
ENDCHAR
STARTCHAR 00D4
ENCODING 212
SWIDTH 576 0
DWIDTH 8 0
BBX 7 12 1 0
BITMAP
38
40
38
FC
86
86
86
86
86
86
C4
78
ENDCHAR
STARTCHAR 00D5
ENCODING 213
SWIDTH 576 0
DWIDTH 8 0
BBX 7 12 1 0
BITMAP
7C
00
38
FC
86
86
86
86
86
86
C4
78
ENDCHAR
STARTCHAR 00D6
ENCODING 214
SWIDTH 576 0
DWIDTH 8 0
BBX 7 12 1 0
BITMAP
48
00
38
FC
86
86
86
86
86
86
C4
78
ENDCHAR
STARTCHAR 00D7
ENCODING 215
SWIDTH 576 0
DWIDTH 8 0
BBX 6 5 1 1
BITMAP
CC
78
30
78
CC
ENDCHAR
STARTCHAR 00D8
ENCODING 216
SWIDTH 576 0
DWIDTH 8 0
BBX 8 11 0 -1
BITMAP
1F
7E
47
47
4B
53
53
63
62
7C
C0
ENDCHAR
STARTCHAR 00D9
ENCODING 217
SWIDTH 576 0
DWIDTH 8 0
BBX 6 12 1 0
BITMAP
60
10
84
84
84
84
84
84
84
84
CC
78
ENDCHAR
STARTCHAR 00DA
ENCODING 218
SWIDTH 576 0
DWIDTH 8 0
BBX 6 12 1 0
BITMAP
18
10
84
84
84
84
84
84
84
84
CC
78
ENDCHAR
STARTCHAR 00DB
ENCODING 219
SWIDTH 576 0
DWIDTH 8 0
BBX 6 12 1 0
BITMAP
38
40
84
84
84
84
84
84
84
84
CC
78
ENDCHAR
STARTCHAR 00DC
ENCODING 220
SWIDTH 576 0
DWIDTH 8 0
BBX 6 12 1 0
BITMAP
48
00
84
84
84
84
84
84
84
84
CC
78
ENDCHAR
STARTCHAR 00DD
ENCODING 221
SWIDTH 576 0
DWIDTH 8 0
BBX 8 12 0 0
BITMAP
0C
08
C1
43
62
24
3C
18
18
18
18
18
ENDCHAR
STARTCHAR 00DE
ENCODING 222
SWIDTH 576 0
DWIDTH 8 0
BBX 7 10 1 0
BITMAP
C0
C0
F8
C6
C6
C6
CC
F8
C0
C0
ENDCHAR
STARTCHAR 00DF
ENCODING 223
SWIDTH 576 0
DWIDTH 8 0
BBX 8 11 0 -1
BITMAP
3C
62
62
E2
7C
62
63
63
62
7C
60
ENDCHAR
STARTCHAR 00E0
ENCODING 224
SWIDTH 576 0
DWIDTH 8 0
BBX 7 11 1 0
BITMAP
60
20
10
00
78
CC
0C
7C
8C
8C
F6
ENDCHAR
STARTCHAR 00E1
ENCODING 225
SWIDTH 576 0
DWIDTH 8 0
BBX 7 11 1 0
BITMAP
18
10
20
00
78
CC
0C
7C
8C
8C
F6
ENDCHAR
STARTCHAR 00E2
ENCODING 226
SWIDTH 576 0
DWIDTH 8 0
BBX 7 11 1 0
BITMAP
30
30
48
00
78
CC
0C
7C
8C
8C
F6
ENDCHAR
STARTCHAR 00E3
ENCODING 227
SWIDTH 576 0
DWIDTH 8 0
BBX 7 10 1 0
BITMAP
7C
98
00
78
CC
0C
7C
8C
8C
F6
ENDCHAR
STARTCHAR 00E4
ENCODING 228
SWIDTH 576 0
DWIDTH 8 0
BBX 7 10 1 0
BITMAP
48
00
00
78
CC
0C
7C
8C
8C
F6
ENDCHAR
STARTCHAR 00E5
ENCODING 229
SWIDTH 576 0
DWIDTH 8 0
BBX 7 11 1 0
BITMAP
30
48
30
00
78
CC
0C
7C
8C
8C
F6
ENDCHAR
STARTCHAR 00E6
ENCODING 230
SWIDTH 576 0
DWIDTH 8 0
BBX 8 7 0 0
BITMAP
77
D9
09
7F
89
99
7F
ENDCHAR
STARTCHAR 00E7
ENCODING 231
SWIDTH 576 0
DWIDTH 8 0
BBX 6 10 1 -3
BITMAP
78
C4
84
80
84
C4
78
10
08
30
ENDCHAR
STARTCHAR 00E8
ENCODING 232
SWIDTH 576 0
DWIDTH 8 0
BBX 6 11 1 0
BITMAP
20
20
10
00
78
C4
84
FC
84
C4
78
ENDCHAR
STARTCHAR 00E9
ENCODING 233
SWIDTH 576 0
DWIDTH 8 0
BBX 6 11 1 0
BITMAP
08
10
30
00
78
C4
84
FC
84
C4
78
ENDCHAR
STARTCHAR 00EA
ENCODING 234
SWIDTH 576 0
DWIDTH 8 0
BBX 6 11 1 0
BITMAP
10
38
4C
00
78
C4
84
FC
84
C4
78
ENDCHAR
STARTCHAR 00EB
ENCODING 235
SWIDTH 576 0
DWIDTH 8 0
BBX 6 10 1 0
BITMAP
48
00
00
78
C4
84
FC
84
C4
78
ENDCHAR
STARTCHAR 00EC
ENCODING 236
SWIDTH 576 0
DWIDTH 8 0
BBX 7 11 1 0
BITMAP
20
30
10
00
F0
10
10
10
10
10
FE
ENDCHAR
STARTCHAR 00ED
ENCODING 237
SWIDTH 576 0
DWIDTH 8 0
BBX 7 11 1 0
BITMAP
08
18
10
00
F0
10
10
10
10
10
FE
ENDCHAR
STARTCHAR 00EE
ENCODING 238
SWIDTH 576 0
DWIDTH 8 0
BBX 7 11 1 0
BITMAP
10
28
6C
00
F0
10
10
10
10
10
FE
ENDCHAR
STARTCHAR 00EF
ENCODING 239
SWIDTH 576 0
DWIDTH 8 0
BBX 7 10 1 0
BITMAP
6C
00
00
F0
10
10
10
10
10
FE
ENDCHAR
STARTCHAR 00F0
ENCODING 240
SWIDTH 576 0
DWIDTH 8 0
BBX 6 10 1 0
BITMAP
78
70
18
7C
C4
84
84
84
C4
78
ENDCHAR
STARTCHAR 00F1
ENCODING 241
SWIDTH 576 0
DWIDTH 8 0
BBX 6 10 1 0
BITMAP
74
48
00
BC
C4
C4
C4
C4
C4
C4
ENDCHAR
STARTCHAR 00F2
ENCODING 242
SWIDTH 576 0
DWIDTH 8 0
BBX 6 11 1 0
BITMAP
60
20
10
00
78
C4
84
84
84
C4
78
ENDCHAR
STARTCHAR 00F3
ENCODING 243
SWIDTH 576 0
DWIDTH 8 0
BBX 6 11 1 0
BITMAP
18
10
30
00
78
C4
84
84
84
C4
78
ENDCHAR
STARTCHAR 00F4
ENCODING 244
SWIDTH 576 0
DWIDTH 8 0
BBX 6 11 1 0
BITMAP
10
38
4C
00
78
C4
84
84
84
C4
78
ENDCHAR
STARTCHAR 00F5
ENCODING 245
SWIDTH 576 0
DWIDTH 8 0
BBX 6 10 1 0
BITMAP
74
48
00
78
C4
84
84
84
C4
78
ENDCHAR
STARTCHAR 00F6
ENCODING 246
SWIDTH 576 0
DWIDTH 8 0
BBX 6 10 1 0
BITMAP
48
00
00
78
C4
84
84
84
C4
78
ENDCHAR
STARTCHAR 00F7
ENCODING 247
SWIDTH 576 0
DWIDTH 8 0
BBX 7 5 1 1
BITMAP
10
00
FE
00
10
ENDCHAR
STARTCHAR 00F8
ENCODING 248
SWIDTH 576 0
DWIDTH 8 0
BBX 6 9 1 -1
BITMAP
04
78
CC
94
94
A4
C4
78
80
ENDCHAR
STARTCHAR 00F9
ENCODING 249
SWIDTH 576 0
DWIDTH 8 0
BBX 7 11 1 0
BITMAP
60
20
10
00
84
84
84
84
84
CC
76
ENDCHAR
STARTCHAR 00FA
ENCODING 250
SWIDTH 576 0
DWIDTH 8 0
BBX 7 11 1 0
BITMAP
18
10
20
00
84
84
84
84
84
CC
76
ENDCHAR
STARTCHAR 00FB
ENCODING 251
SWIDTH 576 0
DWIDTH 8 0
BBX 7 11 1 0
BITMAP
30
30
48
00
84
84
84
84
84
CC
76
ENDCHAR
STARTCHAR 00FC
ENCODING 252
SWIDTH 576 0
DWIDTH 8 0
BBX 7 10 1 0
BITMAP
48
00
00
84
84
84
84
84
CC
76
ENDCHAR
STARTCHAR 00FD
ENCODING 253
SWIDTH 576 0
DWIDTH 8 0
BBX 7 14 1 -3
BITMAP
08
10
10
00
86
C4
4C
68
28
30
30
30
E0
40
ENDCHAR
STARTCHAR 00FE
ENCODING 254
SWIDTH 576 0
DWIDTH 8 0
BBX 7 13 1 -3
BITMAP
C0
C0
C0
FC
C4
C4
C6
C4
C4
F8
C0
C0
C0
ENDCHAR
STARTCHAR 00FF
ENCODING 255
SWIDTH 576 0
DWIDTH 8 0
BBX 7 13 1 -3
BITMAP
48
00
00
86
C4
4C
68
28
30
30
30
E0
40
ENDCHAR
STARTCHAR 0152
ENCODING 140
SWIDTH 576 0
DWIDTH 8 0
BBX 7 10 1 0
BITMAP
3E
FE
98
98
98
9E
98
98
98
7E
ENDCHAR
STARTCHAR 0153
ENCODING 156
SWIDTH 576 0
DWIDTH 8 0
BBX 8 7 0 0
BITMAP
7E
99
89
8F
89
D9
77
ENDCHAR
STARTCHAR 0160
ENCODING 138
SWIDTH 576 0
DWIDTH 8 0
BBX 7 12 1 0
BITMAP
7C
00
38
EC
86
80
F0
3C
06
86
86
7C
ENDCHAR
STARTCHAR 0161
ENCODING 154
SWIDTH 576 0
DWIDTH 8 0
BBX 6 11 1 0
BITMAP
48
28
30
00
7C
C4
C0
7C
04
84
7C
ENDCHAR
STARTCHAR 0178
ENCODING 159
SWIDTH 576 0
DWIDTH 8 0
BBX 8 12 0 0
BITMAP
24
00
C1
43
62
24
3C
18
18
18
18
18
ENDCHAR
STARTCHAR 017D
ENCODING 142
SWIDTH 576 0
DWIDTH 8 0
BBX 7 12 1 0
BITMAP
7C
00
FE
FC
0C
18
10
30
60
40
C0
FE
ENDCHAR
STARTCHAR 017E
ENCODING 158
SWIDTH 576 0
DWIDTH 8 0
BBX 6 11 1 0
BITMAP
48
28
30
00
7C
08
10
30
20
60
FC
ENDCHAR
STARTCHAR 0192
ENCODING 131
SWIDTH 576 0
DWIDTH 8 0
BBX 6 13 1 -3
BITMAP
1C
10
10
3C
30
30
20
20
20
20
20
E0
80
ENDCHAR
STARTCHAR 02C6
ENCODING 136
SWIDTH 576 0
DWIDTH 8 0
BBX 5 3 2 8
BITMAP
20
70
98
ENDCHAR
STARTCHAR 02DC
ENCODING 152
SWIDTH 576 0
DWIDTH 8 0
BBX 5 2 2 8
BITMAP
E8
90
ENDCHAR
STARTCHAR 2013
ENCODING 150
SWIDTH 576 0
DWIDTH 8 0
BBX 6 1 1 3
BITMAP
FC
ENDCHAR
STARTCHAR 2014
ENCODING 151
SWIDTH 576 0
DWIDTH 8 0
BBX 8 1 0 3
BITMAP
FF
ENDCHAR
STARTCHAR 2018
ENCODING 145
SWIDTH 576 0
DWIDTH 8 0
BBX 2 4 3 6
BITMAP
40
40
C0
C0
ENDCHAR
STARTCHAR 2019
ENCODING 146
SWIDTH 576 0
DWIDTH 8 0
BBX 2 4 3 6
BITMAP
C0
C0
40
C0
ENDCHAR
STARTCHAR 201A
ENCODING 130
SWIDTH 576 0
DWIDTH 8 0
BBX 2 4 3 -2
BITMAP
C0
C0
40
C0
ENDCHAR
STARTCHAR 201C
ENCODING 147
SWIDTH 576 0
DWIDTH 8 0
BBX 4 4 2 6
BITMAP
50
90
D0
D0
ENDCHAR
STARTCHAR 201D
ENCODING 148
SWIDTH 576 0
DWIDTH 8 0
BBX 4 4 2 6
BITMAP
D0
D0
50
90
ENDCHAR
STARTCHAR 201E
ENCODING 132
SWIDTH 576 0
DWIDTH 8 0
BBX 4 4 2 -2
BITMAP
D0
D0
50
90
ENDCHAR
STARTCHAR 2020
ENCODING 134
SWIDTH 576 0
DWIDTH 8 0
BBX 6 12 1 -2
BITMAP
10
10
10
FC
10
10
10
10
10
10
10
10
ENDCHAR
STARTCHAR 2021
ENCODING 135
SWIDTH 576 0
DWIDTH 8 0
BBX 6 12 1 -2
BITMAP
10
10
10
FC
10
10
10
10
10
FC
10
10
ENDCHAR
STARTCHAR 2022
ENCODING 149
SWIDTH 576 0
DWIDTH 8 0
BBX 4 4 2 3
BITMAP
60
F0
F0
70
ENDCHAR
STARTCHAR 2026
ENCODING 133
SWIDTH 576 0
DWIDTH 8 0
BBX 7 2 1 0
BITMAP
B6
B6
ENDCHAR
STARTCHAR 2030
ENCODING 137
SWIDTH 576 0
DWIDTH 8 0
BBX 8 10 0 0
BITMAP
20
50
90
50
60
FF
76
99
99
76
ENDCHAR
STARTCHAR 2039
ENCODING 139
SWIDTH 576 0
DWIDTH 8 0
BBX 3 5 3 2
BITMAP
60
C0
80
40
60
ENDCHAR
STARTCHAR 203A
ENCODING 155
SWIDTH 576 0
DWIDTH 8 0
BBX 3 5 3 2
BITMAP
80
40
60
C0
80
ENDCHAR
STARTCHAR 20AC
ENCODING 128
SWIDTH 576 0
DWIDTH 8 0
BBX 7 10 0 0
BITMAP
06
1E
30
20
FC
20
FC
30
18
0E
ENDCHAR
STARTCHAR 2122
ENCODING 153
SWIDTH 576 0
DWIDTH 8 0
BBX 8 6 0 4
BITMAP
F9
59
5B
57
57
55
ENDCHAR
ENDFONT
