STARTFONT 2.1
COMMENT
COMMENT Converted from OpenType font "ChivoMono-Regular.ttf" by "otf2bdf 3.0".
COMMENT
FONT -FreeType-chivo mono-Medium-R-Normal--33-240-100-100-P-150-Windows-cp1252
SIZE 24 100 100
FONTBOUNDINGBOX 20 38 0 -7
STARTPROPERTIES 19
FOUNDRY "FreeType"
FAMILY_NAME "chivo mono"
WEIGHT_NAME "Medium"
SLANT "R"
SETWIDTH_NAME "Normal"
ADD_STYLE_NAME ""
PIXEL_SIZE 33
POINT_SIZE 240
RESOLUTION_X 100
RESOLUTION_Y 100
SPACING "P"
AVERAGE_WIDTH 150
CHARSET_REGISTRY "Windows"
CHARSET_ENCODING "cp1252"
FONT_ASCENT 31
FONT_DESCENT 8
COPYRIGHT "Copyright 2018 The Chivo Project Authors (https://github.com/Omnibus-Type/Chivo)"
_OTF_FONTFILE "ChivoMono-Regular.ttf"
_OTF_PSNAME "ChivoMono-Regular"
ENDPROPERTIES
CHARS 219
STARTCHAR 000D
ENCODING 13
SWIDTH 600 0
DWIDTH 20 0
BBX 0 0 0 0
BITMAP
ENDCHAR
STARTCHAR 0020
ENCODING 32
SWIDTH 600 0
DWIDTH 20 0
BBX 0 0 0 0
BITMAP
ENDCHAR
STARTCHAR 0021
ENCODING 33
SWIDTH 600 0
DWIDTH 20 0
BBX 4 23 8 0
BITMAP
F0
F0
F0
F0
F0
F0
F0
F0
F0
F0
70
60
60
60
60
60
60
00
00
F0
F0
F0
F0
ENDCHAR
STARTCHAR 0022
ENCODING 34
SWIDTH 600 0
DWIDTH 20 0
BBX 8 9 6 14
BITMAP
E7
E7
E7
E7
E7
E7
E7
E6
42
ENDCHAR
STARTCHAR 0023
ENCODING 35
SWIDTH 600 0
DWIDTH 20 0
BBX 20 23 0 0
BITMAP
00C1C0
01C1C0
01C180
01C380
018380
038380
038300
3FFFF0
3FFFF0
030700
070700
070600
070E00
060E00
FFFFE0
FFFFE0
FFFFE0
0C1C00
0C1C00
1C1800
1C1800
1C3800
183800
ENDCHAR
STARTCHAR 0024
ENCODING 36
SWIDTH 600 0
DWIDTH 20 0
BBX 16 27 2 -2
BITMAP
0180
0180
0180
1FF8
3FFC
7C3E
F00F
E007
E007
F000
F800
7F80
3FF0
0FFC
01FE
001F
000F
E007
E007
E007
F00F
7E7E
7FFE
1FF8
0180
0180
0180
ENDCHAR
STARTCHAR 0025
ENCODING 37
SWIDTH 600 0
DWIDTH 20 0
BBX 20 23 0 0
BITMAP
3C0070
7E0060
E300C0
C30180
C30380
C30300
C30600
C30C00
C31800
E70000
7E0000
3C0180
0007E0
000E70
018C30
030C30
060C30
0E0C30
0C0C30
180C30
300C70
700FE0
E003C0
ENDCHAR
STARTCHAR 0026
ENCODING 38
SWIDTH 600 0
DWIDTH 20 0
BBX 18 23 2 0
BITMAP
0FC000
3FC000
7FC000
780000
F00000
F00600
F00E00
F00E00
700E00
3C0E00
1FFFC0
1FFFC0
3FFFC0
780E00
F00E00
E00E00
E00E00
E00E00
E00E00
F00E00
7FFE00
3FFE00
0FFE00
ENDCHAR
STARTCHAR 0027
ENCODING 39
SWIDTH 600 0
DWIDTH 20 0
BBX 2 9 9 14
BITMAP
C0
C0
C0
C0
C0
C0
C0
C0
C0
ENDCHAR
STARTCHAR 0028
ENCODING 40
SWIDTH 600 0
DWIDTH 20 0
BBX 7 28 7 -5
BITMAP
06
0C
0C
18
38
38
30
70
70
60
E0
E0
E0
E0
E0
E0
E0
E0
60
70
70
70
30
38
18
1C
0C
06
ENDCHAR
STARTCHAR 0029
ENCODING 41
SWIDTH 600 0
DWIDTH 20 0
BBX 7 28 6 -5
BITMAP
C0
60
60
30
38
38
18
1C
1C
1C
0E
0E
0E
0E
0E
0E
0E
0E
0C
1C
1C
1C
38
38
30
70
60
C0
ENDCHAR
STARTCHAR 002A
ENCODING 42
SWIDTH 600 0
DWIDTH 20 0
BBX 14 13 3 10
BITMAP
0300
0300
0300
8300
6318
FFFC
3FF0
0780
0F80
0CC0
1CE0
3870
1060
ENDCHAR
STARTCHAR 002B
ENCODING 43
SWIDTH 600 0
DWIDTH 20 0
BBX 18 17 1 0
BITMAP
00C000
00C000
00C000
00C000
00C000
00C000
00C000
FFFFC0
FFFFC0
FFFFC0
00C000
00C000
00C000
00C000
00C000
00C000
00C000
ENDCHAR
STARTCHAR 002C
ENCODING 44
SWIDTH 600 0
DWIDTH 20 0
BBX 4 10 8 -5
BITMAP
F0
F0
F0
F0
F0
30
30
60
60
C0
ENDCHAR
STARTCHAR 002D
ENCODING 45
SWIDTH 600 0
DWIDTH 20 0
BBX 8 4 6 7
BITMAP
FF
FF
FF
FF
ENDCHAR
STARTCHAR 002E
ENCODING 46
SWIDTH 600 0
DWIDTH 20 0
BBX 4 4 8 0
BITMAP
F0
F0
F0
F0
ENDCHAR
STARTCHAR 002F
ENCODING 47
SWIDTH 600 0
DWIDTH 20 0
BBX 18 29 1 -6
BITMAP
0001C0
0001C0
000380
000380
000700
000600
000E00
001C00
001C00
003800
003800
007000
006000
00E000
00C000
01C000
038000
038000
070000
070000
0E0000
0C0000
1C0000
380000
380000
700000
700000
E00000
C00000
ENDCHAR
STARTCHAR 0030
ENCODING 48
SWIDTH 600 0
DWIDTH 20 0
BBX 16 23 2 0
BITMAP
0FF0
1FF8
3FFC
781E
700E
F00F
F00F
E007
E007
E007
E007
E007
E007
E007
E007
E007
E00F
F00F
700E
781E
3E7C
1FF8
0FF0
ENDCHAR
STARTCHAR 0031
ENCODING 49
SWIDTH 600 0
DWIDTH 20 0
BBX 15 23 3 0
BITMAP
0380
1F80
FF80
FF80
0380
0380
0380
0380
0380
0380
0380
0380
0380
0380
0380
0380
0380
0380
0380
0380
FFFE
FFFE
FFFE
ENDCHAR
STARTCHAR 0032
ENCODING 50
SWIDTH 600 0
DWIDTH 20 0
BBX 16 23 2 0
BITMAP
07F0
1FFC
3FFE
781E
700F
F00F
E00F
E00F
000F
000E
001E
003C
00F8
01F0
07E0
0F80
3E00
7C00
7800
F000
FFFF
FFFF
FFFF
ENDCHAR
STARTCHAR 0033
ENCODING 51
SWIDTH 600 0
DWIDTH 20 0
BBX 16 23 2 0
BITMAP
0FF0
3FF8
7FFC
701E
F00E
E00E
E00E
000E
001E
003C
07F8
07F8
07FC
001E
000F
000F
E007
E00F
E00F
F01E
7E7E
3FFC
1FF0
ENDCHAR
STARTCHAR 0034
ENCODING 52
SWIDTH 600 0
DWIDTH 20 0
BBX 17 23 1 0
BITMAP
01E000
01C000
03C000
038400
078400
070C00
070C00
0E1C00
0E1C00
1C1C00
1C1C00
381C00
701C00
701C00
FFFF80
FFFF80
FFFF80
001C00
001C00
001C00
001C00
001C00
001C00
ENDCHAR
STARTCHAR 0035
ENCODING 53
SWIDTH 600 0
DWIDTH 20 0
BBX 16 23 2 0
BITMAP
3FFE
3FFE
3FFE
3800
3800
7000
7000
7000
73E0
77F8
7FFC
783E
700E
000F
0007
0007
E007
F00F
700F
781E
3E7C
1FF8
0FF0
ENDCHAR
STARTCHAR 0036
ENCODING 54
SWIDTH 600 0
DWIDTH 20 0
BBX 16 23 2 0
BITMAP
07F0
1FF8
3FFC
781E
780E
700F
F007
F000
F000
F3F8
FFFC
FC1E
F80F
F00F
F007
F007
F007
7007
700F
780E
3E3E
1FFC
0FF0
ENDCHAR
STARTCHAR 0037
ENCODING 55
SWIDTH 600 0
DWIDTH 20 0
BBX 16 23 2 0
BITMAP
FFFF
FFFF
FFFF
000E
001C
003C
0038
0070
00F0
00E0
01E0
01C0
03C0
0380
0780
0780
0700
0700
0F00
0F00
0F00
0F00
0F00
ENDCHAR
STARTCHAR 0038
ENCODING 56
SWIDTH 600 0
DWIDTH 20 0
BBX 16 23 2 0
BITMAP
0FF0
1FF8
3E7C
781E
700E
700E
700E
700E
700E
3C3C
1FF8
1FF8
3FFC
781E
F00F
E007
E007
E007
F00F
F00F
7C3E
3FFC
0FF8
ENDCHAR
STARTCHAR 0039
ENCODING 57
SWIDTH 600 0
DWIDTH 20 0
BBX 16 23 2 0
BITMAP
0FE0
3FF8
7EFC
781E
F01E
E00E
E00F
E00F
E00F
E00F
F01F
783F
3FFF
1FEF
020F
000F
E00F
E00E
F00E
781E
7EFC
3FF8
0FF0
ENDCHAR
STARTCHAR 003A
ENCODING 58
SWIDTH 600 0
DWIDTH 20 0
BBX 4 17 8 0
BITMAP
F0
F0
F0
F0
00
00
00
00
00
00
00
00
00
F0
F0
F0
F0
ENDCHAR
STARTCHAR 003B
ENCODING 59
SWIDTH 600 0
DWIDTH 20 0
BBX 4 22 8 -5
BITMAP
F0
F0
F0
F0
00
00
00
00
00
00
00
00
F0
F0
F0
F0
F0
30
30
60
60
C0
ENDCHAR
STARTCHAR 003C
ENCODING 60
SWIDTH 600 0
DWIDTH 20 0
BBX 17 17 1 0
BITMAP
000080
000380
001F80
007F00
03FC00
0FE000
7F0000
FC0000
E00000
FC0000
7F0000
1FE000
03F800
00FF00
001F80
000380
000080
ENDCHAR
STARTCHAR 003D
ENCODING 61
SWIDTH 600 0
DWIDTH 20 0
BBX 18 9 1 4
BITMAP
FFFFC0
FFFFC0
000000
000000
000000
000000
000000
FFFFC0
FFFFC0
ENDCHAR
STARTCHAR 003E
ENCODING 62
SWIDTH 600 0
DWIDTH 20 0
BBX 17 17 2 0
BITMAP
800000
E00000
FC0000
7F0000
1FE000
03FC00
007F00
001F80
000380
001F80
007F00
03FC00
0FE000
7F0000
FC0000
E00000
800000
ENDCHAR
STARTCHAR 003F
ENCODING 63
SWIDTH 600 0
DWIDTH 20 0
BBX 14 23 3 0
BITMAP
0FE0
3FF0
7FF8
F03C
E03C
E01C
E01C
E01C
003C
0078
00F8
01F0
03C0
0380
0380
0380
0380
0000
0000
07C0
07C0
07C0
07C0
ENDCHAR
STARTCHAR 0040
ENCODING 64
SWIDTH 600 0
DWIDTH 20 0
BBX 20 28 0 -5
BITMAP
03FC00
07FF00
1C0380
1801C0
3000C0
300060
61F860
63FC60
670E30
C70E30
C70E30
C00630
C00630
C0FE30
C3FE30
C78630
C70630
CE0E30
CE0E30
CE0E20
671E60
67F7E0
63E3C0
300000
380000
1C0000
0F9E00
07FE00
ENDCHAR
STARTCHAR 0041
ENCODING 65
SWIDTH 600 0
DWIDTH 20 0
BBX 20 23 0 0
BITMAP
00F000
01F800
01F800
01F800
03FC00
039C00
039C00
079E00
071E00
070E00
0F0E00
0E0F00
0E0700
0E0700
1E0780
1FFF80
1FFF80
3FFFC0
3801C0
3801C0
7801E0
7000E0
F000F0
ENDCHAR
STARTCHAR 0042
ENCODING 66
SWIDTH 600 0
DWIDTH 20 0
BBX 16 23 2 0
BITMAP
FFF0
FFFC
FFFE
F01F
F00F
F00F
F00F
F00F
F00E
F01E
FFF8
FFF8
FFFE
F00F
F007
F007
F007
F007
F00F
F01F
FFFE
FFFC
FFF8
ENDCHAR
STARTCHAR 0043
ENCODING 67
SWIDTH 600 0
DWIDTH 20 0
BBX 17 23 1 0
BITMAP
07F800
1FFE00
3FFF00
3C0F00
780780
700380
700380
F00380
F00380
F00000
F00000
F00000
F00000
F00000
F00380
F00380
F00380
700380
780780
3C0700
3FFF00
1FFE00
07F800
ENDCHAR
STARTCHAR 0044
ENCODING 68
SWIDTH 600 0
DWIDTH 20 0
BBX 17 23 2 0
BITMAP
FFE000
FFFC00
FFFE00
F01F00
F00F00
F00780
F00380
F00380
F00380
F00380
F00380
F00380
F00380
F00380
F00380
F00380
F00380
F00780
F00780
F01F00
FFFE00
FFFC00
FFF000
ENDCHAR
STARTCHAR 0045
ENCODING 69
SWIDTH 600 0
DWIDTH 20 0
BBX 15 23 3 0
BITMAP
FFFE
FFFE
FFFC
E000
E000
E000
E000
E000
E000
E000
FFF8
FFF8
FFF8
E000
E000
E000
E000
E000
E000
E000
FFFE
FFFE
FFFE
ENDCHAR
STARTCHAR 0046
ENCODING 70
SWIDTH 600 0
DWIDTH 20 0
BBX 14 23 3 0
BITMAP
FFFC
FFFC
FFFC
E000
E000
E000
E000
E000
E000
E000
FFF8
FFF8
FFF8
E000
E000
E000
E000
E000
E000
E000
E000
E000
E000
ENDCHAR
STARTCHAR 0047
ENCODING 71
SWIDTH 600 0
DWIDTH 20 0
BBX 18 23 1 0
BITMAP
07F800
1FFE00
3FFF00
3C0F00
780780
700380
700380
F00380
F00000
F00000
F00000
F0FF80
F0FF80
F0FF80
F00380
F00380
F00380
700380
780780
3C0F80
3FFF80
1FFDC0
07F0C0
ENDCHAR
STARTCHAR 0048
ENCODING 72
SWIDTH 600 0
DWIDTH 20 0
BBX 16 23 2 0
BITMAP
F00F
F00F
F00F
F00F
F00F
F00F
F00F
F00F
F00F
F00F
FFFF
FFFF
FFFF
F00F
F00F
F00F
F00F
F00F
F00F
F00F
F00F
F00F
F00F
ENDCHAR
STARTCHAR 0049
ENCODING 73
SWIDTH 600 0
DWIDTH 20 0
BBX 12 23 4 0
BITMAP
FFF0
FFF0
FFF0
0F00
0F00
0F00
0F00
0F00
0F00
0F00
0F00
0F00
0F00
0F00
0F00
0F00
0F00
0F00
0F00
0F00
FFF0
FFF0
FFF0
ENDCHAR
STARTCHAR 004A
ENCODING 74
SWIDTH 600 0
DWIDTH 20 0
BBX 14 23 3 0
BITMAP
003C
003C
003C
003C
003C
003C
003C
003C
003C
003C
003C
003C
003C
003C
003C
003C
E03C
E03C
F03C
F03C
7CF8
3FF0
1FE0
ENDCHAR
STARTCHAR 004B
ENCODING 75
SWIDTH 600 0
DWIDTH 20 0
BBX 18 23 2 0
BITMAP
F00780
F00F00
F00E00
F01E00
F03C00
F07800
F07800
F0F000
F1E000
F3C000
F7C000
F7C000
FFE000
FDE000
FCF000
F87800
F07800
F03C00
F01E00
F01E00
F00F00
F00780
F007C0
ENDCHAR
STARTCHAR 004C
ENCODING 76
SWIDTH 600 0
DWIDTH 20 0
BBX 15 23 3 0
BITMAP
F000
F000
F000
F000
F000
F000
F000
F000
F000
F000
F000
F000
F000
F000
F000
F000
F000
F000
F000
F000
FFFC
FFFE
FFFE
ENDCHAR
STARTCHAR 004D
ENCODING 77
SWIDTH 600 0
DWIDTH 20 0
BBX 16 23 2 0
BITMAP
F81F
F81F
F81F
F81F
FC1F
FC37
FC37
EC37
EC37
EC37
EE77
EE67
EE67
E667
E667
E667
E7E7
E7C7
E7C7
E3C7
E3C7
E3C7
E387
ENDCHAR
STARTCHAR 004E
ENCODING 78
SWIDTH 600 0
DWIDTH 20 0
BBX 16 23 2 0
BITMAP
F00F
F80F
F80F
FC0F
FC0F
FE0F
FE0F
FF0F
F70F
F78F
F38F
F3CF
F1CF
F1EF
F0EF
F0FF
F07F
F07F
F03F
F03F
F01F
F01F
F00F
ENDCHAR
STARTCHAR 004F
ENCODING 79
SWIDTH 600 0
DWIDTH 20 0
BBX 18 23 1 0
BITMAP
07F800
1FFE00
3FFF00
3C0F00
780780
700380
700380
F003C0
F003C0
F003C0
F003C0
F003C0
F003C0
F003C0
F003C0
F003C0
F00380
700380
780780
3C0F00
3FFF00
1FFE00
07F800
ENDCHAR
STARTCHAR 0050
ENCODING 80
SWIDTH 600 0
DWIDTH 20 0
BBX 17 23 2 0
BITMAP
FFF800
FFFE00
FFFF00
F00F00
F00780
F00780
F00380
F00780
F00780
F00F80
F01F00
FFFE00
FFFC00
F00000
F00000
F00000
F00000
F00000
F00000
F00000
F00000
F00000
F00000
ENDCHAR
STARTCHAR 0051
ENCODING 81
SWIDTH 600 0
DWIDTH 20 0
BBX 18 28 1 -5
BITMAP
07F800
1FFE00
3FFF00
3C0F00
780780
700380
700380
F003C0
F003C0
F003C0
F003C0
F003C0
F003C0
F003C0
F003C0
F003C0
F00380
700380
780780
7C0F00
3FFF00
1FFE00
07F800
00E000
00F000
00FDC0
007FC0
000F00
ENDCHAR
STARTCHAR 0052
ENCODING 82
SWIDTH 600 0
DWIDTH 20 0
BBX 18 23 2 0
BITMAP
FFF800
FFFE00
FFFF00
F00F00
F00780
F00780
F00780
F00780
F00700
F00F00
FFFE00
FFF800
FFFC00
F03E00
F00F00
F00F00
F00700
F00700
F00700
F00700
F00780
F00780
F003C0
ENDCHAR
STARTCHAR 0053
ENCODING 83
SWIDTH 600 0
DWIDTH 20 0
BBX 18 23 1 0
BITMAP
07F800
1FFE00
3FFF00
780780
780380
700380
700380
780000
7C0000
3FC000
1FF800
07FE00
00FF00
001F80
0007C0
0003C0
F003C0
F003C0
700380
780780
3FFF00
3FFF00
0FFC00
ENDCHAR
STARTCHAR 0054
ENCODING 84
SWIDTH 600 0
DWIDTH 20 0
BBX 18 23 1 0
BITMAP
FFFFC0
FFFFC0
FFFFC0
01E000
01E000
01E000
01E000
01E000
01E000
01E000
01E000
01E000
01E000
01E000
01E000
01E000
01E000
01E000
01E000
01E000
01E000
01E000
01E000
ENDCHAR
STARTCHAR 0055
ENCODING 85
SWIDTH 600 0
DWIDTH 20 0
BBX 16 23 2 0
BITMAP
F00F
F00F
F00F
F00F
F00F
F00F
F00F
F00F
F00F
F00F
F00F
F00F
F00F
F00F
F00F
F00F
F00F
F00F
F00E
781E
7FFE
3FFC
0FF0
ENDCHAR
STARTCHAR 0056
ENCODING 86
SWIDTH 600 0
DWIDTH 20 0
BBX 20 23 0 0
BITMAP
F000F0
7000E0
7801E0
3801C0
3801C0
3C03C0
1C03C0
1C0380
1E0380
0E0780
0E0700
0F0700
0F0F00
070E00
070E00
079E00
039C00
039C00
03DC00
01F800
01F800
01F800
00F000
ENDCHAR
STARTCHAR 0057
ENCODING 87
SWIDTH 600 0
DWIDTH 20 0
BBX 20 23 0 0
BITMAP
E07070
E0F070
F0F070
70F060
70F0E0
70F8E0
70F8E0
70F8E0
79F8E0
7998E0
3998C0
3999C0
399DC0
399DC0
3B9DC0
3F8DC0
1F0D80
1F0F80
1F0F80
1F0F80
1F0F80
1F0F80
1E0780
ENDCHAR
STARTCHAR 0058
ENCODING 88
SWIDTH 600 0
DWIDTH 20 0
BBX 20 23 0 0
BITMAP
7801E0
3C01C0
1E03C0
1E0780
0F0700
0F0F00
079E00
03DC00
03FC00
01F800
01F800
01F800
01F800
03FC00
03BC00
079E00
0F0F00
0E0F00
1E0780
3C07C0
3C03C0
7801E0
F001F0
ENDCHAR
STARTCHAR 0059
ENCODING 89
SWIDTH 600 0
DWIDTH 20 0
BBX 18 23 1 0
BITMAP
F001C0
F003C0
780380
780780
3C0700
3C0F00
1E1E00
0E1E00
0F3C00
073800
07F800
03F000
03F000
01E000
01E000
01E000
01E000
01E000
01E000
01E000
01E000
01E000
01E000
ENDCHAR
STARTCHAR 005A
ENCODING 90
SWIDTH 600 0
DWIDTH 20 0
BBX 18 23 1 0
BITMAP
7FFF80
7FFF80
7FFF80
000F00
001E00
001E00
003C00
007C00
007800
00F000
00F000
01E000
03C000
03C000
078000
0F0000
0F0000
1E0000
3C0000
3C0000
7FFFC0
FFFFC0
FFFFC0
ENDCHAR
STARTCHAR 005B
ENCODING 91
SWIDTH 600 0
DWIDTH 20 0
BBX 7 28 8 -5
BITMAP
FE
FE
E0
E0
E0
E0
E0
E0
E0
E0
E0
E0
E0
E0
E0
E0
E0
E0
E0
E0
E0
E0
E0
E0
E0
E0
E0
FE
ENDCHAR
STARTCHAR 005C
ENCODING 92
SWIDTH 600 0
DWIDTH 20 0
BBX 18 29 1 -6
BITMAP
E00000
E00000
700000
700000
380000
180000
1C0000
0C0000
0E0000
070000
070000
038000
018000
01C000
00C000
00E000
007000
007000
003800
003800
001C00
000C00
000E00
000700
000700
000380
000380
0001C0
0000C0
ENDCHAR
STARTCHAR 005D
ENCODING 93
SWIDTH 600 0
DWIDTH 20 0
BBX 7 28 5 -5
BITMAP
FE
FE
0E
0E
0E
0E
0E
0E
0E
0E
0E
0E
0E
0E
0E
0E
0E
0E
0E
0E
0E
0E
0E
0E
0E
0E
0E
FE
ENDCHAR
STARTCHAR 005E
ENCODING 94
SWIDTH 600 0
DWIDTH 20 0
BBX 16 17 2 0
BITMAP
03C0
03C0
07E0
07E0
0E60
0E70
0E70
1C38
1C38
1818
381C
381C
700E
700E
700E
E007
E007
ENDCHAR
STARTCHAR 005F
ENCODING 95
SWIDTH 600 0
DWIDTH 20 0
BBX 16 2 2 -4
BITMAP
FFFF
FFFF
ENDCHAR
STARTCHAR 0060
ENCODING 96
SWIDTH 600 0
DWIDTH 20 0
BBX 6 5 7 20
BITMAP
F0
70
30
38
1C
ENDCHAR
STARTCHAR 0061
ENCODING 97
SWIDTH 600 0
DWIDTH 20 0
BBX 17 17 2 0
BITMAP
1FF000
3FF800
783C00
701C00
701E00
001E00
001E00
07FE00
3FFE00
7C1E00
701E00
F01E00
F01E00
F03E00
787E00
7FEF80
3FCF80
ENDCHAR
STARTCHAR 0062
ENCODING 98
SWIDTH 600 0
DWIDTH 20 0
BBX 15 24 3 0
BITMAP
E000
E000
E000
E000
E000
E000
E000
E7F0
EFF8
FC3C
F01C
F01E
F00E
E00E
E00E
E00E
E00E
E00E
F00E
F01E
F01C
FC7C
EFF8
E7F0
ENDCHAR
STARTCHAR 0063
ENCODING 99
SWIDTH 600 0
DWIDTH 20 0
BBX 15 17 2 0
BITMAP
0FF0
1FF8
3C3C
781C
700E
F00E
F00E
F000
F000
F000
F00E
F00E
700E
781E
3C3C
1FF8
0FF0
ENDCHAR
STARTCHAR 0064
ENCODING 100
SWIDTH 600 0
DWIDTH 20 0
BBX 15 24 2 0
BITMAP
000E
000E
000E
000E
000E
000E
000E
1FCE
3FEE
7C7E
701E
F01E
E01E
E00E
E00E
E00E
E00E
E00E
E01E
F01E
703E
7C7E
3FEE
1FCE
ENDCHAR
STARTCHAR 0065
ENCODING 101
SWIDTH 600 0
DWIDTH 20 0
BBX 16 17 2 0
BITMAP
0FF0
1FF8
3C3C
781E
700E
F00E
F00F
FFFF
FFFF
F000
F000
F00F
700E
780E
3C3C
1FFC
0FF0
ENDCHAR
STARTCHAR 0066
ENCODING 102
SWIDTH 600 0
DWIDTH 20 0
BBX 15 24 3 0
BITMAP
01FE
03FE
07C2
0700
0700
0700
0700
FFFE
FFFE
FFFE
0700
0700
0700
0700
0700
0700
0700
0700
0700
0700
0700
FFFE
FFFE
FFFE
ENDCHAR
STARTCHAR 0067
ENCODING 103
SWIDTH 600 0
DWIDTH 20 0
BBX 17 26 2 -6
BITMAP
000380
000380
000700
0FFE00
3FFC00
3C1E00
780E00
700E00
700E00
780E00
381E00
3FFC00
1FF800
7C0000
700000
700000
700000
7FFE00
3FFF00
7FFF80
E00780
E00380
E00380
E00780
FFFF00
7FFE00
ENDCHAR
STARTCHAR 0068
ENCODING 104
SWIDTH 600 0
DWIDTH 20 0
BBX 14 24 3 0
BITMAP
E000
E000
E000
E000
E000
E000
E000
E7F0
EFF8
FC7C
F03C
F01C
E01C
E01C
E01C
E01C
E01C
E01C
E01C
E01C
E01C
E01C
E01C
E01C
ENDCHAR
STARTCHAR 0069
ENCODING 105
SWIDTH 600 0
DWIDTH 20 0
BBX 15 24 3 0
BITMAP
0380
0380
0380
0000
0000
0000
0000
FFC0
FFC0
FFC0
03C0
03C0
03C0
03C0
03C0
03C0
03C0
03C0
03C0
03C0
03C0
FFFE
FFFE
FFFE
ENDCHAR
STARTCHAR 006A
ENCODING 106
SWIDTH 600 0
DWIDTH 20 0
BBX 10 30 3 -6
BITMAP
0380
0380
0380
0000
0000
0000
0000
FFC0
FFC0
FFC0
03C0
03C0
03C0
03C0
03C0
03C0
03C0
03C0
03C0
03C0
03C0
03C0
03C0
03C0
03C0
03C0
0380
C780
FF00
7E00
ENDCHAR
STARTCHAR 006B
ENCODING 107
SWIDTH 600 0
DWIDTH 20 0
BBX 15 24 3 0
BITMAP
E000
E000
E000
E000
E000
E000
E000
E03E
E038
E078
E0F0
E1E0
E3C0
E780
EF00
EF00
FF80
FBC0
F1E0
E1F0
E0F0
E078
E03C
E01E
ENDCHAR
STARTCHAR 006C
ENCODING 108
SWIDTH 600 0
DWIDTH 20 0
BBX 16 24 2 0
BITMAP
FFC0
FFC0
FFC0
01C0
01C0
01C0
01C0
01C0
01C0
01C0
01C0
01C0
01C0
01C0
01C0
01C0
01C0
01C0
01C0
01C0
01C0
FFFF
FFFF
FFFF
ENDCHAR
STARTCHAR 006D
ENCODING 109
SWIDTH 600 0
DWIDTH 20 0
BBX 16 17 2 0
BITMAP
DF3E
FFFF
F3EF
E3C7
E187
E187
E187
E187
E187
E187
E187
E187
E187
E187
E187
E187
E187
ENDCHAR
STARTCHAR 006E
ENCODING 110
SWIDTH 600 0
DWIDTH 20 0
BBX 14 17 3 0
BITMAP
E7F0
FFF8
FC7C
F03C
F01C
E01C
E01C
E01C
E01C
E01C
E01C
E01C
E01C
E01C
E01C
E01C
E01C
ENDCHAR
STARTCHAR 006F
ENCODING 111
SWIDTH 600 0
DWIDTH 20 0
BBX 16 17 2 0
BITMAP
0FF0
1FF8
3C3C
781E
700E
F00F
F00F
F00F
F00F
F00F
F00F
F00F
700E
781E
3C3C
1FF8
0FF0
ENDCHAR
STARTCHAR 0070
ENCODING 112
SWIDTH 600 0
DWIDTH 20 0
BBX 15 23 3 -6
BITMAP
E7F0
EFF8
FC3C
F01C
F01E
F00E
E00E
E00E
E00E
E00E
E00E
F00E
F01E
F01C
FC7C
EFF8
E7E0
E000
E000
E000
E000
E000
E000
ENDCHAR
STARTCHAR 0071
ENCODING 113
SWIDTH 600 0
DWIDTH 20 0
BBX 15 23 2 -6
BITMAP
0FCE
3FEE
7C7E
701E
F01E
E01E
E00E
E00E
E00E
E00E
E00E
E01E
F01E
703E
7C7E
3FEE
1FCE
000E
000E
000E
000E
000E
000E
ENDCHAR
STARTCHAR 0072
ENCODING 114
SWIDTH 600 0
DWIDTH 20 0
BBX 18 17 1 0
BITMAP
7F7F00
7FFF80
7FCF80
078380
0701C0
0701C0
070000
070000
070000
070000
070000
070000
070000
070000
FFFF00
FFFF00
FFFF00
ENDCHAR
STARTCHAR 0073
ENCODING 115
SWIDTH 600 0
DWIDTH 20 0
BBX 14 17 3 0
BITMAP
1FE0
7FF8
F038
E01C
E01C
F000
FC00
7FE0
3FF8
03FC
003C
001C
E01C
E01C
F03C
7FF8
3FF0
ENDCHAR
STARTCHAR 0074
ENCODING 116
SWIDTH 600 0
DWIDTH 20 0
BBX 16 22 2 0
BITMAP
0300
0700
0700
0700
0700
FFFF
FFFF
FFFF
0700
0700
0700
0700
0700
0700
0700
0700
0700
0700
0780
07E7
03FF
01FE
ENDCHAR
STARTCHAR 0075
ENCODING 117
SWIDTH 600 0
DWIDTH 20 0
BBX 17 17 2 0
BITMAP
F00E00
F00E00
F00E00
F00E00
F00E00
F00E00
F00E00
F00E00
F00E00
F00E00
F00E00
F01E00
701E00
783E00
7C7E00
3FEF80
1FCF80
ENDCHAR
STARTCHAR 0076
ENCODING 118
SWIDTH 600 0
DWIDTH 20 0
BBX 16 17 2 0
BITMAP
E007
F007
700E
700E
781E
381C
3C1C
1C38
1C38
1E38
0E70
0F70
0FF0
07E0
07E0
03C0
03C0
ENDCHAR
STARTCHAR 0077
ENCODING 119
SWIDTH 600 0
DWIDTH 20 0
BBX 20 17 0 0
BITMAP
E0F070
E0F070
60F060
70F0E0
70F8E0
71F8E0
71D8E0
3998C0
399DC0
3B9DC0
3B8DC0
1F0D80
1F0F80
1F0F80
1F0F80
0F0780
0E0700
ENDCHAR
STARTCHAR 0078
ENCODING 120
SWIDTH 600 0
DWIDTH 20 0
BBX 16 17 2 0
BITMAP
F80F
781E
3C1C
1E38
1E78
0FF0
07E0
07E0
03C0
07E0
0FF0
0E70
1E78
3C3C
381C
781E
F00F
ENDCHAR
STARTCHAR 0079
ENCODING 121
SWIDTH 600 0
DWIDTH 20 0
BBX 16 23 2 -6
BITMAP
F007
F00F
700E
780E
381C
381C
3C1C
1C38
1E38
0E70
0E70
0F70
07E0
07E0
03E0
03C0
03C0
0380
0380
0700
4F00
7E00
7C00
ENDCHAR
STARTCHAR 007A
ENCODING 122
SWIDTH 600 0
DWIDTH 20 0
BBX 14 17 3 0
BITMAP
7FF8
7FF8
0070
00F0
01E0
01E0
03C0
0380
0780
0F00
0F00
1E00
3C00
3C00
7800
7FFC
FFFC
ENDCHAR
STARTCHAR 007B
ENCODING 123
SWIDTH 600 0
DWIDTH 20 0
BBX 8 28 6 -5
BITMAP
07
0F
1C
18
18
18
18
18
18
18
18
18
38
F0
E0
F8
38
18
18
18
18
18
18
18
18
1C
1E
0F
ENDCHAR
STARTCHAR 007C
ENCODING 124
SWIDTH 600 0
DWIDTH 20 0
BBX 2 31 9 -7
BITMAP
C0
C0
C0
C0
C0
C0
C0
C0
C0
C0
C0
C0
C0
C0
C0
C0
C0
C0
C0
C0
C0
C0
C0
C0
C0
C0
C0
C0
C0
C0
C0
ENDCHAR
STARTCHAR 007D
ENCODING 125
SWIDTH 600 0
DWIDTH 20 0
BBX 8 28 6 -5
BITMAP
E0
F8
38
18
18
18
18
18
18
18
18
18
1C
0F
07
1F
1C
18
18
18
18
18
18
18
18
38
78
F0
ENDCHAR
STARTCHAR 007E
ENCODING 126
SWIDTH 600 0
DWIDTH 20 0
BBX 18 6 1 7
BITMAP
000040
3F8040
FFE3C0
F3FFC0
807F00
800800
ENDCHAR
STARTCHAR 00A0
ENCODING 160
SWIDTH 600 0
DWIDTH 20 0
BBX 0 0 0 0
BITMAP
ENDCHAR
STARTCHAR 00A1
ENCODING 161
SWIDTH 600 0
DWIDTH 20 0
BBX 4 23 8 -6
BITMAP
F0
F0
F0
F0
00
00
60
60
60
60
60
60
60
F0
F0
F0
F0
F0
F0
F0
F0
F0
F0
ENDCHAR
STARTCHAR 00A2
ENCODING 162
SWIDTH 600 0
DWIDTH 20 0
BBX 15 23 3 0
BITMAP
0380
0300
0300
0FE0
3FF0
7C78
701C
F01C
E01C
E01E
E000
E000
E000
E00E
E00C
F01C
701C
7838
3FF8
1FE0
0300
0300
0380
ENDCHAR
STARTCHAR 00A3
ENCODING 163
SWIDTH 600 0
DWIDTH 20 0
BBX 18 23 1 0
BITMAP
01FC00
07FF00
0FDF80
0F0780
0E0380
1E03C0
1E03C0
1E0000
1E0000
1E0000
FFF800
FFF800
FFF800
1E0000
1E0000
1E0000
1E0000
1E0000
1E0000
1C0000
FFFF80
FFFF80
FFFF80
ENDCHAR
STARTCHAR 00A4
ENCODING 164
SWIDTH 600 0
DWIDTH 20 0
BBX 16 17 2 3
BITMAP
4102
CFF3
FFFF
781E
700E
E007
E007
C003
C003
C003
C003
E007
6006
700E
7C3E
FFFF
C7E3
ENDCHAR
STARTCHAR 00A5
ENCODING 165
SWIDTH 600 0
DWIDTH 20 0
BBX 18 23 1 0
BITMAP
F001C0
F003C0
780380
780780
3C0700
3C0F00
1E1E00
0E1C00
FF3FC0
FF3FC0
07F800
03F000
03F000
FFFFC0
FFFFC0
01E000
01E000
01E000
01E000
01E000
01E000
01E000
01E000
ENDCHAR
STARTCHAR 00A6
ENCODING 166
SWIDTH 600 0
DWIDTH 20 0
BBX 2 31 9 -7
BITMAP
C0
C0
C0
C0
C0
C0
C0
C0
C0
C0
C0
C0
00
00
00
00
00
00
00
C0
C0
C0
C0
C0
C0
C0
C0
C0
C0
C0
C0
ENDCHAR
STARTCHAR 00A7
ENCODING 167
SWIDTH 600 0
DWIDTH 20 0
BBX 14 29 3 -6
BITMAP
1FE0
3FF0
7878
F01C
E01C
E000
F000
7800
3E00
1F80
7FE0
E1F8
E07C
C01C
E01C
E00C
F81C
7E1C
1FF8
07E0
01F0
0078
003C
001C
E01C
F03C
7878
3FF0
1FE0
ENDCHAR
STARTCHAR 00A8
ENCODING 168
SWIDTH 600 0
DWIDTH 20 0
BBX 10 4 5 20
BITMAP
E1C0
E1C0
E1C0
E1C0
ENDCHAR
STARTCHAR 00A9
ENCODING 169
SWIDTH 600 0
DWIDTH 20 0
BBX 20 23 0 0
BITMAP
03FC00
0E0700
180180
3000C0
206040
61FC60
439E20
470620
C60630
C60630
C60130
C60030
C60030
C60730
C60630
460620
478E20
63FC60
20F040
3000C0
180180
0E0700
03FC00
ENDCHAR
STARTCHAR 00AA
ENCODING 170
SWIDTH 600 0
DWIDTH 20 0
BBX 10 11 5 12
BITMAP
3F00
7780
C180
0180
1F80
7F80
C180
C380
E780
FDC0
3080
ENDCHAR
STARTCHAR 00AB
ENCODING 171
SWIDTH 600 0
DWIDTH 20 0
BBX 13 12 3 5
BITMAP
0E18
1C38
3870
38F0
70E0
F1C0
71E0
70E0
3870
1C30
1C38
0E18
ENDCHAR
STARTCHAR 00AC
ENCODING 172
SWIDTH 600 0
DWIDTH 20 0
BBX 17 9 1 6
BITMAP
FFFF80
FFFF80
FFFF80
000380
000380
000380
000380
000380
000380
ENDCHAR
STARTCHAR 00AD
ENCODING 173
SWIDTH 600 0
DWIDTH 20 0
BBX 8 4 6 7
BITMAP
FF
FF
FF
FF
ENDCHAR
STARTCHAR 00AE
ENCODING 174
SWIDTH 600 0
DWIDTH 20 0
BBX 20 23 0 0
BITMAP
03FC00
0E0700
180180
3000C0
200040
67FC60
47FE20
470620
C70630
C70630
C70E30
C7F830
C71C30
C70E30
C70630
470620
470620
670760
270140
3000C0
180180
0E0700
03FC00
ENDCHAR
STARTCHAR 00AF
ENCODING 175
SWIDTH 600 0
DWIDTH 20 0
BBX 10 2 5 21
BITMAP
FFC0
FFC0
ENDCHAR
STARTCHAR 00B0
ENCODING 176
SWIDTH 600 0
DWIDTH 20 0
BBX 10 10 5 13
BITMAP
3F00
7F80
E1C0
C0C0
C0C0
C0C0
C0C0
6180
7F80
1E00
ENDCHAR
STARTCHAR 00B1
ENCODING 177
SWIDTH 600 0
DWIDTH 20 0
BBX 18 17 1 0
BITMAP
00C000
00C000
00C000
00C000
00C000
FFFFC0
FFFFC0
FFFFC0
00C000
00C000
00C000
00C000
00C000
000000
7FFF80
7FFF80
7FFF80
ENDCHAR
STARTCHAR 00B2
ENCODING 178
SWIDTH 600 0
DWIDTH 20 0
BBX 9 13 5 14
BITMAP
1E00
3F00
6380
6180
6180
0180
0380
0F00
1C00
3800
6000
7F80
FF80
ENDCHAR
STARTCHAR 00B3
ENCODING 179
SWIDTH 600 0
DWIDTH 20 0
BBX 9 13 5 14
BITMAP
1E00
3F00
6380
6180
0180
0380
1E00
0780
0180
C180
E180
7F80
3F00
ENDCHAR
STARTCHAR 00B4
ENCODING 180
SWIDTH 600 0
DWIDTH 20 0
BBX 6 5 7 20
BITMAP
3C
38
70
70
E0
ENDCHAR
STARTCHAR 00B5
ENCODING 181
SWIDTH 600 0
DWIDTH 20 0
BBX 17 22 2 -5
BITMAP
F00E00
F00E00
F00E00
F00E00
F00E00
F00E00
F00E00
F00E00
F00E00
F00E00
F00E00
F01E00
F01E00
F83E00
FC7E00
FFEF80
FFCF80
F00000
F00000
F00000
F00000
F00000
ENDCHAR
STARTCHAR 00B6
ENCODING 182
SWIDTH 600 0
DWIDTH 20 0
BBX 16 29 1 -6
BITMAP
07FF
1FFF
3F9C
7F9C
7F9C
7F9C
FF9C
FF9C
7F9C
7F9C
7F9C
3F9C
3F9C
0F9C
039C
019C
019C
019C
019C
019C
019C
019C
019C
019C
019C
019C
019C
019C
019C
ENDCHAR
STARTCHAR 00B7
ENCODING 183
SWIDTH 600 0
DWIDTH 20 0
BBX 4 5 8 10
BITMAP
F0
F0
F0
F0
F0
ENDCHAR
STARTCHAR 00B8
ENCODING 184
SWIDTH 600 0
DWIDTH 20 0
BBX 8 6 6 -7
BITMAP
1C
0E
07
06
7E
FC
ENDCHAR
STARTCHAR 00B9
ENCODING 185
SWIDTH 600 0
DWIDTH 20 0
BBX 8 13 6 14
BITMAP
08
F8
F8
18
18
18
18
18
18
18
18
FF
FF
ENDCHAR
STARTCHAR 00BA
ENCODING 186
SWIDTH 600 0
DWIDTH 20 0
BBX 10 10 5 13
BITMAP
3F00
7380
6180
E1C0
E1C0
E1C0
E1C0
6180
7380
3F00
ENDCHAR
STARTCHAR 00BB
ENCODING 187
SWIDTH 600 0
DWIDTH 20 0
BBX 13 12 4 5
BITMAP
C380
E1C0
70E0
38E0
3870
1C78
3C70
3870
70E0
61C0
E1C0
C380
ENDCHAR
STARTCHAR 00BC
ENCODING 188
SWIDTH 600 0
DWIDTH 20 0
BBX 20 23 0 0
BITMAP
080070
780060
F800C0
180180
180380
180300
180600
180C00
181800
180000
180300
FF0300
FF0340
000640
0186C0
030CC0
060CC0
0E18C0
0C1FF0
181FF0
3000C0
7000C0
E000C0
ENDCHAR
STARTCHAR 00BD
ENCODING 189
SWIDTH 600 0
DWIDTH 20 0
BBX 20 23 0 0
BITMAP
080070
7800E0
F800C0
180180
180300
180700
180600
180C00
181800
180000
1803C0
FF0FE0
FF0C70
001830
019830
030070
060060
0C01C0
1C0380
180E00
300C00
701FF0
E01FF0
ENDCHAR
STARTCHAR 00BE
ENCODING 190
SWIDTH 600 0
DWIDTH 20 0
BBX 20 24 0 0
BITMAP
1C0000
7F0070
E38060
C180C0
018180
030380
1E0300
070600
018C00
C19800
C18000
F70300
7E0300
000340
000640
0186C0
030CC0
060CC0
0E18C0
0C1FF0
181FF0
3000C0
7000C0
E000C0
ENDCHAR
STARTCHAR 00BF
ENCODING 191
SWIDTH 600 0
DWIDTH 20 0
BBX 14 23 3 -6
BITMAP
0F80
0F80
0F80
0F80
0000
0000
0700
0700
0700
0700
0F00
3E00
7C00
7800
F000
E01C
E01C
E01C
F01C
F038
7EF8
3FF0
1FC0
ENDCHAR
STARTCHAR 00C0
ENCODING 192
SWIDTH 600 0
DWIDTH 20 0
BBX 20 30 0 0
BITMAP
070000
038000
01C000
00E000
007000
000000
000000
00F000
01F800
01F800
01F800
03FC00
039C00
039C00
079E00
071E00
070E00
0F0E00
0E0F00
0E0700
0E0700
1E0780
1FFF80
1FFF80
3FFFC0
3801C0
3801C0
7801E0
7000E0
F000F0
ENDCHAR
STARTCHAR 00C1
ENCODING 193
SWIDTH 600 0
DWIDTH 20 0
BBX 20 30 0 0
BITMAP
000E00
001C00
003800
003000
007000
000000
000000
00F000
01F800
01F800
01F800
03FC00
039C00
039C00
079E00
071E00
070E00
0F0E00
0E0F00
0E0700
0E0700
1E0780
1FFF80
1FFF80
3FFFC0
3801C0
3801C0
7801E0
7000E0
F000F0
ENDCHAR
STARTCHAR 00C2
ENCODING 194
SWIDTH 600 0
DWIDTH 20 0
BBX 20 30 0 0
BITMAP
00F000
01F800
039C00
071C00
0F0F00
000000
000000
00F000
01F800
01F800
01F800
03FC00
039C00
039C00
079E00
071E00
070E00
0F0E00
0E0F00
0E0700
0E0700
1E0780
1FFF80
1FFF80
3FFFC0
3801C0
3801C0
7801E0
7000E0
F000F0
ENDCHAR
STARTCHAR 00C3
ENCODING 195
SWIDTH 600 0
DWIDTH 20 0
BBX 20 29 0 0
BITMAP
07E300
07FE00
0C7E00
000000
000000
000000
00F000
01F800
01F800
01F800
03FC00
039C00
039C00
079E00
071E00
070E00
0F0E00
0E0F00
0E0700
0E0700
1E0780
1FFF80
1FFF80
3FFFC0
3801C0
3801C0
7801E0
7000E0
F000F0
ENDCHAR
STARTCHAR 00C4
ENCODING 196
SWIDTH 600 0
DWIDTH 20 0
BBX 20 29 0 0
BITMAP
070E00
070E00
070E00
000000
000000
000000
00F000
01F800
01F800
01F800
03FC00
039C00
039C00
079E00
071E00
070E00
0F0E00
0E0F00
0E0700
0E0700
1E0780
1FFF80
1FFF80
3FFFC0
3801C0
3801C0
7801E0
7000E0
F000F0
ENDCHAR
STARTCHAR 00C5
ENCODING 197
SWIDTH 600 0
DWIDTH 20 0
BBX 20 31 0 0
BITMAP
01F800
019800
030C00
010C00
019800
00F000
000000
000000
00F000
01F800
01F800
01F800
03FC00
039C00
039C00
079E00
071E00
070E00
0F0E00
0E0F00
0E0700
0E0700
1E0780
1FFF80
1FFF80
3FFFC0
3801C0
3801C0
7801E0
7000E0
F000F0
ENDCHAR
STARTCHAR 00C6
ENCODING 198
SWIDTH 600 0
DWIDTH 20 0
BBX 20 23 0 0
BITMAP
01FFE0
01FFE0
01FFE0
03F800
03B800
03B800
07B800
073800
073800
0F3800
0E3FC0
0E3FC0
1E3FC0
1C3800
1C3800
3FF800
3FF800
3FF800
783800
783800
703FE0
F03FE0
F03FF0
ENDCHAR
STARTCHAR 00C7
ENCODING 199
SWIDTH 600 0
DWIDTH 20 0
BBX 17 30 1 -7
BITMAP
07F800
1FFE00
3FFF00
3C0F00
780780
700380
700380
F00380
F00380
F00000
F00000
F00000
F00000
F00000
F00380
F00380
F00380
700380
780780
3C0700
3FFF00
1FFE00
07F800
000000
00E000
007000
003800
003000
03F000
07E000
ENDCHAR
STARTCHAR 00C8
ENCODING 200
SWIDTH 600 0
DWIDTH 20 0
BBX 15 30 3 0
BITMAP
3C00
1E00
0E00
0700
0380
0000
0000
FFFE
FFFE
FFFC
E000
E000
E000
E000
E000
E000
E000
FFF8
FFF8
FFF8
E000
E000
E000
E000
E000
E000
E000
FFFE
FFFE
FFFE
ENDCHAR
STARTCHAR 00C9
ENCODING 201
SWIDTH 600 0
DWIDTH 20 0
BBX 15 30 3 0
BITMAP
0078
0070
00E0
01C0
0380
0000
0000
FFFE
FFFE
FFFC
E000
E000
E000
E000
E000
E000
E000
FFF8
FFF8
FFF8
E000
E000
E000
E000
E000
E000
E000
FFFE
FFFE
FFFE
ENDCHAR
STARTCHAR 00CA
ENCODING 202
SWIDTH 600 0
DWIDTH 20 0
BBX 15 30 3 0
BITMAP
0380
07C0
0EE0
1C70
3838
0000
0000
FFFE
FFFE
FFFC
E000
E000
E000
E000
E000
E000
E000
FFF8
FFF8
FFF8
E000
E000
E000
E000
E000
E000
E000
FFFE
FFFE
FFFE
ENDCHAR
STARTCHAR 00CB
ENCODING 203
SWIDTH 600 0
DWIDTH 20 0
BBX 15 29 3 0
BITMAP
3838
3838
3838
0000
0000
0000
FFFE
FFFE
FFFC
E000
E000
E000
E000
E000
E000
E000
FFF8
FFF8
FFF8
E000
E000
E000
E000
E000
E000
E000
FFFE
FFFE
FFFE
ENDCHAR
STARTCHAR 00CC
ENCODING 204
SWIDTH 600 0
DWIDTH 20 0
BBX 12 30 4 0
BITMAP
7000
3800
1C00
0E00
0700
0000
0000
FFF0
FFF0
FFF0
0F00
0F00
0F00
0F00
0F00
0F00
0F00
0F00
0F00
0F00
0F00
0F00
0F00
0F00
0F00
0F00
0F00
FFF0
FFF0
FFF0
ENDCHAR
STARTCHAR 00CD
ENCODING 205
SWIDTH 600 0
DWIDTH 20 0
BBX 12 30 4 0
BITMAP
00E0
01C0
0380
0300
0700
0000
0000
FFF0
FFF0
FFF0
0F00
0F00
0F00
0F00
0F00
0F00
0F00
0F00
0F00
0F00
0F00
0F00
0F00
0F00
0F00
0F00
0F00
FFF0
FFF0
FFF0
ENDCHAR
STARTCHAR 00CE
ENCODING 206
SWIDTH 600 0
DWIDTH 20 0
BBX 12 30 4 0
BITMAP
0F00
1F80
39C0
71C0
F0F0
0000
0000
FFF0
FFF0
FFF0
0F00
0F00
0F00
0F00
0F00
0F00
0F00
0F00
0F00
0F00
0F00
0F00
0F00
0F00
0F00
0F00
0F00
FFF0
FFF0
FFF0
ENDCHAR
STARTCHAR 00CF
ENCODING 207
SWIDTH 600 0
DWIDTH 20 0
BBX 12 29 4 0
BITMAP
70E0
70E0
70E0
0000
0000
0000
FFF0
FFF0
FFF0
0F00
0F00
0F00
0F00
0F00
0F00
0F00
0F00
0F00
0F00
0F00
0F00
0F00
0F00
0F00
0F00
0F00
FFF0
FFF0
FFF0
ENDCHAR
STARTCHAR 00D0
ENCODING 208
SWIDTH 600 0
DWIDTH 20 0
BBX 19 23 0 0
BITMAP
3FF800
3FFF00
3FFF80
3C07C0
3C03C0
3C01E0
3C00E0
3C00E0
3C00E0
3C00E0
FFF0E0
FFF0E0
FFF0E0
3C00E0
3C00E0
3C00E0
3C00E0
3C01E0
3C01E0
3C07C0
3FFF80
3FFF00
3FFC00
ENDCHAR
STARTCHAR 00D1
ENCODING 209
SWIDTH 600 0
DWIDTH 20 0
BBX 16 29 2 0
BITMAP
1F8C
1FF8
31F8
0000
0000
0000
F00F
F80F
F80F
FC0F
FC0F
FE0F
FE0F
FF0F
F70F
F78F
F38F
F3CF
F1CF
F1EF
F0EF
F0FF
F07F
F07F
F03F
F03F
F01F
F01F
F00F
ENDCHAR
STARTCHAR 00D2
ENCODING 210
SWIDTH 600 0
DWIDTH 20 0
BBX 18 30 1 0
BITMAP
0E0000
070000
038000
01C000
00E000
000000
000000
07F800
1FFE00
3FFF00
3C0F00
780780
700380
700380
F003C0
F003C0
F003C0
F003C0
F003C0
F003C0
F003C0
F003C0
F003C0
F00380
700380
780780
3C0F00
3FFF00
1FFE00
07F800
ENDCHAR
STARTCHAR 00D3
ENCODING 211
SWIDTH 600 0
DWIDTH 20 0
BBX 18 30 1 0
BITMAP
001C00
003800
007000
006000
00E000
000000
000000
07F800
1FFE00
3FFF00
3C0F00
780780
700380
700380
F003C0
F003C0
F003C0
F003C0
F003C0
F003C0
F003C0
F003C0
F003C0
F00380
700380
780780
3C0F00
3FFF00
1FFE00
07F800
ENDCHAR
STARTCHAR 00D4
ENCODING 212
SWIDTH 600 0
DWIDTH 20 0
BBX 18 30 1 0
BITMAP
01E000
03F000
073800
0E3800
1E1E00
000000
000000
07F800
1FFE00
3FFF00
3C0F00
780780
700380
700380
F003C0
F003C0
F003C0
F003C0
F003C0
F003C0
F003C0
F003C0
F003C0
F00380
700380
780780
3C0F00
3FFF00
1FFE00
07F800
ENDCHAR
STARTCHAR 00D5
ENCODING 213
SWIDTH 600 0
DWIDTH 20 0
BBX 18 29 1 0
BITMAP
0FC600
0FFC00
18FC00
000000
000000
000000
07F800
1FFE00
3FFF00
3C0F00
780780
700380
700380
F003C0
F003C0
F003C0
F003C0
F003C0
F003C0
F003C0
F003C0
F003C0
F00380
700380
780780
3C0F00
3FFF00
1FFE00
07F800
ENDCHAR
STARTCHAR 00D6
ENCODING 214
SWIDTH 600 0
DWIDTH 20 0
BBX 18 29 1 0
BITMAP
0E1C00
0E1C00
0E1C00
000000
000000
000000
07F800
1FFE00
3FFF00
3C0F00
780780
700380
700380
F003C0
F003C0
F003C0
F003C0
F003C0
F003C0
F003C0
F003C0
F003C0
F00380
700380
780780
3C0F00
3FFF00
1FFE00
07F800
ENDCHAR
STARTCHAR 00D7
ENCODING 215
SWIDTH 600 0
DWIDTH 20 0
BBX 14 14 3 2
BITMAP
4008
6018
F03C
7878
3CF0
1FE0
0FC0
0780
0FC0
1FE0
3CF0
7878
F03C
6018
ENDCHAR
STARTCHAR 00D8
ENCODING 216
SWIDTH 600 0
DWIDTH 20 0
BBX 18 27 1 -2
BITMAP
0000C0
000180
07F980
1FFF00
3FFF00
3C0F00
780F80
700F80
701B80
F03BC0
F033C0
F063C0
F063C0
F0C3C0
F1C3C0
F183C0
F303C0
F303C0
F60380
7E0380
7C0780
3C0F00
3FFF00
3FFE00
77F800
600000
C00000
ENDCHAR
STARTCHAR 00D9
ENCODING 217
SWIDTH 600 0
DWIDTH 20 0
BBX 16 30 2 0
BITMAP
1C00
0E00
0700
0380
01C0
0000
0000
F00F
F00F
F00F
F00F
F00F
F00F
F00F
F00F
F00F
F00F
F00F
F00F
F00F
F00F
F00F
F00F
F00F
F00F
F00E
781E
7FFE
3FFC
0FF0
ENDCHAR
STARTCHAR 00DA
ENCODING 218
SWIDTH 600 0
DWIDTH 20 0
BBX 16 30 2 0
BITMAP
0038
0070
00E0
00C0
01C0
0000
0000
F00F
F00F
F00F
F00F
F00F
F00F
F00F
F00F
F00F
F00F
F00F
F00F
F00F
F00F
F00F
F00F
F00F
F00F
F00E
781E
7FFE
3FFC
0FF0
ENDCHAR
STARTCHAR 00DB
ENCODING 219
SWIDTH 600 0
DWIDTH 20 0
BBX 16 30 2 0
BITMAP
03C0
07E0
0E70
1C70
3C3C
0000
0000
F00F
F00F
F00F
F00F
F00F
F00F
F00F
F00F
F00F
F00F
F00F
F00F
F00F
F00F
F00F
F00F
F00F
F00F
F00E
781E
7FFE
3FFC
0FF0
ENDCHAR
STARTCHAR 00DC
ENCODING 220
SWIDTH 600 0
DWIDTH 20 0
BBX 16 29 2 0
BITMAP
1C38
1C38
1C38
0000
0000
0000
F00F
F00F
F00F
F00F
F00F
F00F
F00F
F00F
F00F
F00F
F00F
F00F
F00F
F00F
F00F
F00F
F00F
F00F
F00E
781E
7FFE
3FFC
0FF0
ENDCHAR
STARTCHAR 00DD
ENCODING 221
SWIDTH 600 0
DWIDTH 20 0
BBX 18 30 1 0
BITMAP
001C00
003800
007000
006000
00E000
000000
000000
F001C0
F003C0
780380
780780
3C0700
3C0F00
1E1E00
0E1E00
0F3C00
073800
07F800
03F000
03F000
01E000
01E000
01E000
01E000
01E000
01E000
01E000
01E000
01E000
01E000
ENDCHAR
STARTCHAR 00DE
ENCODING 222
SWIDTH 600 0
DWIDTH 20 0
BBX 16 23 3 0
BITMAP
E000
E000
E000
E000
FFE0
FFF8
FFFC
E01E
E00F
E00F
E007
E007
E00F
E00F
E03E
FFFC
FFF8
E000
E000
E000
E000
E000
E000
ENDCHAR
STARTCHAR 00DF
ENCODING 223
SWIDTH 600 0
DWIDTH 20 0
BBX 18 26 0 -2
BITMAP
01FC00
07FF00
0FDF80
0E0780
1E03C0
1C03C0
1C03C0
FC0380
FC0380
FC0700
1CFE00
1CFE00
1C1F80
1C0380
1C03C0
1C01C0
1C01C0
1C01C0
1C01C0
1C03C0
1C07C0
1CFF80
1CFF00
1CFC00
1C0000
1C0000
ENDCHAR
STARTCHAR 00E0
ENCODING 224
SWIDTH 600 0
DWIDTH 20 0
BBX 17 25 2 0
BITMAP
0E0000
070000
070000
030000
038000
000000
000000
000000
1FF000
3FF800
783C00
701C00
701E00
001E00
001E00
07FE00
3FFE00
7C1E00
701E00
F01E00
F01E00
F03E00
787E00
7FEF80
3FCF80
ENDCHAR
STARTCHAR 00E1
ENCODING 225
SWIDTH 600 0
DWIDTH 20 0
BBX 17 25 2 0
BITMAP
00F000
00E000
01C000
018000
038000
000000
000000
000000
1FF000
3FF800
783C00
701C00
701E00
001E00
001E00
07FE00
3FFE00
7C1E00
701E00
F01E00
F01E00
F03E00
787E00
7FEF80
3FCF80
ENDCHAR
STARTCHAR 00E2
ENCODING 226
SWIDTH 600 0
DWIDTH 20 0
BBX 17 25 2 0
BITMAP
03C000
07C000
0EE000
1C7000
1C3800
200000
000000
000000
1FF000
3FF800
783C00
701C00
701E00
001E00
001E00
07FE00
3FFE00
7C1E00
701E00
F01E00
F01E00
F03E00
787E00
7FEF80
3FCF80
ENDCHAR
STARTCHAR 00E3
ENCODING 227
SWIDTH 600 0
DWIDTH 20 0
BBX 17 24 2 0
BITMAP
1F0C00
3FF800
31F800
207000
000000
000000
000000
1FF000
3FF800
783C00
701C00
701E00
001E00
001E00
07FE00
3FFE00
7C1E00
701E00
F01E00
F01E00
F03E00
787E00
7FEF80
3FCF80
ENDCHAR
STARTCHAR 00E4
ENCODING 228
SWIDTH 600 0
DWIDTH 20 0
BBX 17 24 2 0
BITMAP
3C3800
3C3800
3C3800
3C3800
000000
000000
000000
1FF000
3FF800
783C00
701C00
701E00
001E00
001E00
07FE00
3FFE00
7C1E00
701E00
F01E00
F01E00
F03E00
787E00
7FEF80
3FCF80
ENDCHAR
STARTCHAR 00E5
ENCODING 229
SWIDTH 600 0
DWIDTH 20 0
BBX 17 26 2 0
BITMAP
07C000
06E000
0C6000
0C6000
0E6000
07C000
010000
000000
000000
1FF000
3FF800
783C00
701C00
701E00
001E00
001E00
07FE00
3FFE00
7C1E00
701E00
F01E00
F01E00
F03E00
787E00
7FEF80
3FCF80
ENDCHAR
STARTCHAR 00E6
ENCODING 230
SWIDTH 600 0
DWIDTH 20 0
BBX 20 17 0 0
BITMAP
1F8F80
3FDFC0
70F8E0
70F0E0
707060
007060
007060
0FFFF0
3FFFF0
787000
707010
607060
E0F060
60F060
71F8E0
7FBFC0
3F0F80
ENDCHAR
STARTCHAR 00E7
ENCODING 231
SWIDTH 600 0
DWIDTH 20 0
BBX 15 24 2 -7
BITMAP
0FF0
1FF8
3C3C
781C
700E
F00E
F00E
F000
F000
F000
F00E
F00E
700E
781E
3C3C
1FF8
0FF0
0000
01C0
00E0
0070
0060
07E0
0FC0
ENDCHAR
STARTCHAR 00E8
ENCODING 232
SWIDTH 600 0
DWIDTH 20 0
BBX 16 25 2 0
BITMAP
0F00
0700
0380
0380
01C0
0000
0000
0000
0FF0
1FF8
3C3C
781E
700E
F00E
F00F
FFFF
FFFF
F000
F000
F00F
700E
780E
3C3C
1FFC
0FF0
ENDCHAR
STARTCHAR 00E9
ENCODING 233
SWIDTH 600 0
DWIDTH 20 0
BBX 16 25 2 0
BITMAP
0070
00E0
00E0
01C0
0180
0200
0000
0000
0FF0
1FF8
3C3C
781E
700E
F00E
F00F
FFFF
FFFF
F000
F000
F00F
700E
780E
3C3C
1FFC
0FF0
ENDCHAR
STARTCHAR 00EA
ENCODING 234
SWIDTH 600 0
DWIDTH 20 0
BBX 16 25 2 0
BITMAP
03C0
07E0
0770
0E30
1C38
0004
0000
0000
0FF0
1FF8
3C3C
781E
700E
F00E
F00F
FFFF
FFFF
F000
F000
F00F
700E
780E
3C3C
1FFC
0FF0
ENDCHAR
STARTCHAR 00EB
ENCODING 235
SWIDTH 600 0
DWIDTH 20 0
BBX 16 24 2 0
BITMAP
1C38
1C38
1C38
1C38
0000
0000
0000
0FF0
1FF8
3C3C
781E
700E
F00E
F00F
FFFF
FFFF
F000
F000
F00F
700E
780E
3C3C
1FFC
0FF0
ENDCHAR
STARTCHAR 00EC
ENCODING 236
SWIDTH 600 0
DWIDTH 20 0
BBX 15 25 3 0
BITMAP
0E00
0700
0700
0300
0380
0000
0000
0000
FFC0
FFC0
FFC0
03C0
03C0
03C0
03C0
03C0
03C0
03C0
03C0
03C0
03C0
03C0
FFFE
FFFE
FFFE
ENDCHAR
STARTCHAR 00ED
ENCODING 237
SWIDTH 600 0
DWIDTH 20 0
BBX 15 25 3 0
BITMAP
00F0
00E0
01C0
0180
0380
0000
0000
0000
FFC0
FFC0
FFC0
03C0
03C0
03C0
03C0
03C0
03C0
03C0
03C0
03C0
03C0
03C0
FFFE
FFFE
FFFE
ENDCHAR
STARTCHAR 00EE
ENCODING 238
SWIDTH 600 0
DWIDTH 20 0
BBX 15 25 3 0
BITMAP
03C0
07C0
0EE0
1C70
1C38
2000
0000
0000
FFC0
FFC0
FFC0
03C0
03C0
03C0
03C0
03C0
03C0
03C0
03C0
03C0
03C0
03C0
FFFE
FFFE
FFFE
ENDCHAR
STARTCHAR 00EF
ENCODING 239
SWIDTH 600 0
DWIDTH 20 0
BBX 15 24 3 0
BITMAP
3C38
3C38
3C38
3C38
0000
0000
0000
FFC0
FFC0
FFC0
03C0
03C0
03C0
03C0
03C0
03C0
03C0
03C0
03C0
03C0
03C0
FFFE
FFFE
FFFE
ENDCHAR
STARTCHAR 00F0
ENCODING 240
SWIDTH 600 0
DWIDTH 20 0
BBX 16 24 2 0
BITMAP
3C20
0EF0
0780
1FC0
39E0
00F0
0078
0FF8
1FFC
3C3E
781E
700E
F00F
F00F
F00F
F00F
F00F
F00F
F00F
700E
781E
3C3C
1FF8
0FF0
ENDCHAR
STARTCHAR 00F1
ENCODING 241
SWIDTH 600 0
DWIDTH 20 0
BBX 14 24 3 0
BITMAP
3E18
3FF8
63F0
60E0
0000
0000
0000
E7F0
FFF8
FC7C
F03C
F01C
E01C
E01C
E01C
E01C
E01C
E01C
E01C
E01C
E01C
E01C
E01C
E01C
ENDCHAR
STARTCHAR 00F2
ENCODING 242
SWIDTH 600 0
DWIDTH 20 0
BBX 16 25 2 0
BITMAP
0E00
0700
0700
0380
0180
0040
0000
0000
0FF0
1FF8
3C3C
781E
700E
F00F
F00F
F00F
F00F
F00F
F00F
F00F
700E
781E
3C3C
1FF8
0FF0
ENDCHAR
STARTCHAR 00F3
ENCODING 243
SWIDTH 600 0
DWIDTH 20 0
BBX 16 25 2 0
BITMAP
00F0
00E0
01C0
01C0
0180
0200
0000
0000
0FF0
1FF8
3C3C
781E
700E
F00F
F00F
F00F
F00F
F00F
F00F
F00F
700E
781E
3C3C
1FF8
0FF0
ENDCHAR
STARTCHAR 00F4
ENCODING 244
SWIDTH 600 0
DWIDTH 20 0
BBX 16 25 2 0
BITMAP
03C0
07E0
0E60
0E70
1C38
2004
0000
0000
0FF0
1FF8
3C3C
781E
700E
F00F
F00F
F00F
F00F
F00F
F00F
F00F
700E
781E
3C3C
1FF8
0FF0
ENDCHAR
STARTCHAR 00F5
ENCODING 245
SWIDTH 600 0
DWIDTH 20 0
BBX 16 24 2 0
BITMAP
1F0C
1FFC
31F8
3070
0000
0000
0000
0FF0
1FF8
3C3C
781E
700E
F00F
F00F
F00F
F00F
F00F
F00F
F00F
700E
781E
3C3C
1FF8
0FF0
ENDCHAR
STARTCHAR 00F6
ENCODING 246
SWIDTH 600 0
DWIDTH 20 0
BBX 16 24 2 0
BITMAP
1C38
1C38
1C38
1C38
0000
0000
0000
0FF0
1FF8
3C3C
781E
700E
F00F
F00F
F00F
F00F
F00F
F00F
F00F
700E
781E
3C3C
1FF8
0FF0
ENDCHAR
STARTCHAR 00F7
ENCODING 247
SWIDTH 600 0
DWIDTH 20 0
BBX 18 13 1 2
BITMAP
00C000
00C000
00C000
000000
000000
FFFFC0
FFFFC0
FFFFC0
000000
000000
00C000
00C000
00C000
ENDCHAR
STARTCHAR 00F8
ENCODING 248
SWIDTH 600 0
DWIDTH 20 0
BBX 16 21 2 -2
BITMAP
0007
000E
0FFC
1FF8
3C3C
783E
706E
F06F
F0CF
F1CF
F18F
F30F
F30F
F60F
7C0E
7C1E
3C3C
3FF8
3FF0
6000
E000
ENDCHAR
STARTCHAR 00F9
ENCODING 249
SWIDTH 600 0
DWIDTH 20 0
BBX 17 25 2 0
BITMAP
0E0000
070000
070000
030000
038000
000000
000000
000000
F00E00
F00E00
F00E00
F00E00
F00E00
F00E00
F00E00
F00E00
F00E00
F00E00
F00E00
F01E00
701E00
783E00
7C7E00
3FEF80
1FCF80
ENDCHAR
STARTCHAR 00FA
ENCODING 250
SWIDTH 600 0
DWIDTH 20 0
BBX 17 25 2 0
BITMAP
00F000
00E000
01C000
018000
038000
000000
000000
000000
F00E00
F00E00
F00E00
F00E00
F00E00
F00E00
F00E00
F00E00
F00E00
F00E00
F00E00
F01E00
701E00
783E00
7C7E00
3FEF80
1FCF80
ENDCHAR
STARTCHAR 00FB
ENCODING 251
SWIDTH 600 0
DWIDTH 20 0
BBX 17 25 2 0
BITMAP
03C000
07C000
0EE000
1C7000
1C3800
200000
000000
000000
F00E00
F00E00
F00E00
F00E00
F00E00
F00E00
F00E00
F00E00
F00E00
F00E00
F00E00
F01E00
701E00
783E00
7C7E00
3FEF80
1FCF80
ENDCHAR
STARTCHAR 00FC
ENCODING 252
SWIDTH 600 0
DWIDTH 20 0
BBX 17 24 2 0
BITMAP
3C3800
3C3800
3C3800
3C3800
000000
000000
000000
F00E00
F00E00
F00E00
F00E00
F00E00
F00E00
F00E00
F00E00
F00E00
F00E00
F00E00
F01E00
701E00
783E00
7C7E00
3FEF80
1FCF80
ENDCHAR
STARTCHAR 00FD
ENCODING 253
SWIDTH 600 0
DWIDTH 20 0
BBX 16 31 2 -6
BITMAP
0070
00E0
00E0
01C0
0180
0200
0000
0000
F007
F00F
700E
780E
381C
381C
3C1C
1C38
1E38
0E70
0E70
0F70
07E0
07E0
03E0
03C0
03C0
0380
0380
0700
4F00
7E00
7C00
ENDCHAR
STARTCHAR 00FE
ENCODING 254
SWIDTH 600 0
DWIDTH 20 0
BBX 15 30 3 -6
BITMAP
E000
E000
E000
E000
E000
E000
E000
E7F0
EFF8
FC3C
F01C
F01E
F00E
E00E
E00E
E00E
E00E
E00E
F00E
F01E
F81C
FC7C
EFF8
E7F0
E000
E000
E000
E000
E000
E000
ENDCHAR
STARTCHAR 00FF
ENCODING 255
SWIDTH 600 0
DWIDTH 20 0
BBX 16 30 2 -6
BITMAP
1C3C
1C3C
1C3C
1C3C
0000
0000
0000
F007
F00F
700E
780E
381C
381C
3C1C
1C38
1E38
0E70
0E70
0F70
07E0
07E0
03E0
03C0
03C0
0380
0380
0700
4F00
7E00
7C00
ENDCHAR
STARTCHAR 0152
ENCODING 140
SWIDTH 600 0
DWIDTH 20 0
BBX 19 23 1 0
BITMAP
07FFC0
1FFFC0
3FFFC0
783800
703800
703800
F03800
E03800
E03800
E03800
E03F80
E03F80
E03F80
E03800
E03800
E03800
E03800
703800
703800
783800
3FFFC0
1FFFC0
0FFFE0
ENDCHAR
STARTCHAR 0153
ENCODING 156
SWIDTH 600 0
DWIDTH 20 0
BBX 20 17 0 0
BITMAP
1F8F80
3FDFC0
71F8E0
70F0E0
60F060
607060
E07060
E07FF0
E07FF0
E07000
607010
607060
60F060
70F060
71F8E0
3F9FC0
1F0F80
ENDCHAR
STARTCHAR 0160
ENCODING 138
SWIDTH 600 0
DWIDTH 20 0
BBX 18 29 1 0
BITMAP
1E1E00
073800
03F000
01E000
000000
000000
07F800
1FFE00
3FFF00
780780
780380
700380
700380
780000
7C0000
3FC000
1FF800
07FE00
00FF00
001F80
0007C0
0003C0
F003C0
F003C0
700380
780780
3FFF00
3FFF00
0FFC00
ENDCHAR
STARTCHAR 0161
ENCODING 154
SWIDTH 600 0
DWIDTH 20 0
BBX 14 25 3 0
BITMAP
7878
18E0
1CE0
0FC0
0780
0000
0000
0000
1FE0
7FF8
F038
E01C
E01C
F000
FC00
7FE0
3FF8
03FC
003C
001C
E01C
E01C
F03C
7FF8
3FF0
ENDCHAR
STARTCHAR 0178
ENCODING 159
SWIDTH 600 0
DWIDTH 20 0
BBX 18 29 1 0
BITMAP
0E1C00
0E1C00
0E1C00
000000
000000
000000
F001C0
F003C0
780380
780780
3C0700
3C0F00
1E1E00
0E1E00
0F3C00
073800
07F800
03F000
03F000
01E000
01E000
01E000
01E000
01E000
01E000
01E000
01E000
01E000
01E000
ENDCHAR
STARTCHAR 017D
ENCODING 142
SWIDTH 600 0
DWIDTH 20 0
BBX 18 29 1 0
BITMAP
1E1E00
073800
03F000
01E000
000000
000000
7FFF80
7FFF80
7FFF80
000F00
001E00
001E00
003C00
007C00
007800
00F000
00F000
01E000
03C000
03C000
078000
0F0000
0F0000
1E0000
3C0000
3C0000
7FFFC0
FFFFC0
FFFFC0
ENDCHAR
STARTCHAR 017E
ENCODING 158
SWIDTH 600 0
DWIDTH 20 0
BBX 14 25 3 0
BITMAP
7878
18E0
1CE0
0FC0
0780
0000
0000
0000
7FF8
7FF8
0070
00F0
01E0
01E0
03C0
0380
0780
0F00
0F00
1E00
3C00
3C00
7800
7FFC
FFFC
ENDCHAR
STARTCHAR 0192
ENCODING 131
SWIDTH 600 0
DWIDTH 20 0
BBX 16 30 1 -6
BITMAP
003F
007F
00F1
00F0
00E0
00E0
00E0
03FE
07FE
07FE
01C0
01C0
01C0
01C0
01C0
03C0
03C0
03C0
0380
0380
0380
0380
0780
0780
0780
0700
0700
4F00
7E00
FC00
ENDCHAR
STARTCHAR 02C6
ENCODING 136
SWIDTH 600 0
DWIDTH 20 0
BBX 12 5 4 20
BITMAP
0F00
1F80
3980
39C0
F0F0
ENDCHAR
STARTCHAR 02DC
ENCODING 152
SWIDTH 600 0
DWIDTH 20 0
BBX 12 4 4 20
BITMAP
7C30
7FF0
C7E0
C1C0
ENDCHAR
STARTCHAR 2013
ENCODING 150
SWIDTH 600 0
DWIDTH 20 0
BBX 14 4 3 7
BITMAP
FFFC
FFFC
FFFC
FFFC
ENDCHAR
STARTCHAR 2014
ENCODING 151
SWIDTH 600 0
DWIDTH 20 0
BBX 20 4 0 7
BITMAP
FFFFF0
FFFFF0
FFFFF0
FFFFF0
ENDCHAR
STARTCHAR 2018
ENCODING 145
SWIDTH 600 0
DWIDTH 20 0
BBX 4 10 8 13
BITMAP
30
60
60
C0
C0
F0
F0
F0
F0
F0
ENDCHAR
STARTCHAR 2019
ENCODING 146
SWIDTH 600 0
DWIDTH 20 0
BBX 4 10 8 14
BITMAP
F0
F0
F0
F0
F0
30
30
60
60
C0
ENDCHAR
STARTCHAR 201A
ENCODING 130
SWIDTH 600 0
DWIDTH 20 0
BBX 4 10 8 -5
BITMAP
F0
F0
F0
F0
F0
30
30
60
60
C0
ENDCHAR
STARTCHAR 201C
ENCODING 147
SWIDTH 600 0
DWIDTH 20 0
BBX 10 10 5 13
BITMAP
30C0
61C0
E180
C180
C300
F3C0
F3C0
F3C0
F3C0
F3C0
ENDCHAR
STARTCHAR 201D
ENCODING 148
SWIDTH 600 0
DWIDTH 20 0
BBX 10 10 5 14
BITMAP
F3C0
F3C0
F3C0
F3C0
F3C0
30C0
60C0
61C0
E180
C300
ENDCHAR
STARTCHAR 201E
ENCODING 132
SWIDTH 600 0
DWIDTH 20 0
BBX 10 10 5 -5
BITMAP
F3C0
F3C0
F3C0
F3C0
F3C0
30C0
60C0
61C0
E180
C300
ENDCHAR
STARTCHAR 2020
ENCODING 134
SWIDTH 600 0
DWIDTH 20 0
BBX 16 29 2 -6
BITMAP
03C0
0180
0180
0180
0180
0180
FFBF
FFFF
FDBF
0180
0180
0180
0180
0180
0180
0180
0180
0180
0180
0180
0180
0180
0180
0180
0180
0180
0180
0180
03C0
ENDCHAR
STARTCHAR 2021
ENCODING 135
SWIDTH 600 0
DWIDTH 20 0
BBX 16 29 2 -6
BITMAP
03C0
0180
0180
0180
0180
0180
FFBF
FFFF
FDBF
0180
0180
0180
0180
0180
03C0
0180
0180
0180
0180
0180
FFFF
FFFF
FDBF
0180
0180
0180
0180
0180
03C0
ENDCHAR
STARTCHAR 2022
ENCODING 149
SWIDTH 600 0
DWIDTH 20 0
BBX 10 11 5 6
BITMAP
0800
3F00
7F80
FFC0
FFC0
FFC0
FFC0
FFC0
7F80
3F00
0800
ENDCHAR
STARTCHAR 2026
ENCODING 133
SWIDTH 600 0
DWIDTH 20 0
BBX 16 4 2 0
BITMAP
E3C7
E3C7
E3C7
E3C7
ENDCHAR
STARTCHAR 2030
ENCODING 137
SWIDTH 600 0
DWIDTH 20 0
BBX 18 23 1 0
BITMAP
1C0000
7F0000
630000
E38000
C38000
C38000
C38000
630000
7F0000
3E0000
000000
FFFFC0
000000
3E1F00
7F3F80
633180
E3F1C0
C3F1C0
C3F1C0
C3F1C0
633180
7F3F80
3E1F00
ENDCHAR
STARTCHAR 2039
ENCODING 139
SWIDTH 600 0
DWIDTH 20 0
BBX 6 12 7 5
BITMAP
1C
18
38
70
70
E0
F0
70
38
38
1C
0C
ENDCHAR
STARTCHAR 203A
ENCODING 155
SWIDTH 600 0
DWIDTH 20 0
BBX 6 12 7 5
BITMAP
E0
60
70
38
38
1C
3C
38
70
70
E0
C0
ENDCHAR
STARTCHAR 20AC
ENCODING 128
SWIDTH 600 0
DWIDTH 20 0
BBX 17 23 1 0
BITMAP
003F80
00FF80
03FF80
03E000
078000
0F0000
0F0000
1E0000
FFF800
FFF800
1C0000
1C0000
1C0000
FFF800
FFF800
1E0000
0E0000
0F0000
078000
07C000
03FF80
00FF80
007F80
ENDCHAR
STARTCHAR 2122
ENCODING 153
SWIDTH 600 0
DWIDTH 20 0
BBX 20 13 0 10
BITMAP
FFF0F0
FFF0F0
18F0F0
18F0B0
18D1B0
18D9B0
18D9B0
18D930
18C930
18CF30
18CF30
18CE30
18CE30
ENDCHAR
ENDFONT
